<svg width="113" height="101" viewBox="0 0 113 101" fill="none" xmlns="http://www.w3.org/2000/svg">
<path d="M93.5125 15.0038C93.5125 15.0038 93.7891 13.571 92.1765 11.1701C90.5639 8.76922 89.499 7.36963 89.499 7.36963C89.499 7.36963 87.8394 10.4731 89.322 12.8463C90.4177 14.5266 91.652 16.1125 93.0119 17.5872L93.5125 15.0038Z" fill="#7AC99A"/>
<path d="M88.8462 23.3929C88.8462 23.3929 89.1228 21.9601 87.5102 19.5593C85.8977 17.1584 84.8272 15.7588 84.8272 15.7588C84.8272 15.7588 83.1676 18.8622 84.653 21.2327C85.7482 22.9142 86.9825 24.501 88.3428 25.9764L88.8462 23.3929Z" fill="#7AC99A"/>
<path d="M92.9068 17.424C92.9068 17.424 93.3383 16.041 95.8968 14.6746C98.4554 13.3082 100.046 12.5918 100.046 12.5918C100.046 12.5918 100.046 16.1046 97.6173 17.5014C95.8568 18.4644 94.0194 19.2795 92.124 19.9383L92.9068 17.424Z" fill="#7AC99A"/>
<path d="M87.3196 27.3152C87.3196 27.3152 87.895 25.9709 90.5807 24.895C93.2665 23.819 94.9344 23.2603 94.9344 23.2603C94.9344 23.2603 94.5555 26.7537 92.0025 27.8878C90.1517 28.6617 88.2392 29.2789 86.2852 29.7327L87.3196 27.3152Z" fill="#7AC99A"/>
<path d="M85.7261 38.9793C85.7261 38.9793 86.0027 37.5437 88.4091 35.9367C90.8155 34.3297 92.3229 33.4252 92.3229 33.4252C92.3229 33.4252 92.6825 36.9214 90.4255 38.5644C88.7786 39.7099 87.0382 40.7148 85.2227 41.5682L85.7261 38.9793Z" fill="#7AC99A"/>
<path d="M85.143 41.7869C85.143 41.7869 85.6242 40.4039 84.3685 37.8011C83.1127 35.1983 82.2525 33.6521 82.2525 33.6521C82.2525 33.6521 80.178 36.4872 81.2982 39.0458C82.1434 40.865 83.1399 42.61 84.2772 44.2624L85.143 41.7869Z" fill="#7AC99A"/>
<path d="M81.5332 49.7445C81.5332 49.7445 81.8098 48.3117 84.2134 46.7019C86.6171 45.0921 88.1301 44.1738 88.1301 44.1738C88.1301 44.1738 88.4897 47.6673 86.2326 49.313C84.585 50.4574 82.8447 51.4622 81.0298 52.3169L81.5332 49.7445Z" fill="#7AC99A"/>
<path d="M81.3947 57.5723C81.3947 57.5723 81.3035 56.1146 83.2175 53.9433C85.1316 51.772 86.368 50.5356 86.368 50.5356C86.368 50.5356 87.6016 53.8244 85.8341 55.9874C84.5304 57.5124 83.1009 58.9253 81.5607 60.2111L81.3947 57.5723Z" fill="#7AC99A"/>
<path d="M93.7642 14.6718C93.3714 16.1461 92.8977 17.5976 92.3453 19.0199C90.7493 22.967 88.2488 25.224 86.7303 28.7728C85.2118 32.3215 86.5588 37.541 85.0182 42.1795C83.4775 46.8181 81.1098 49.0945 81.0185 52.3805C80.9273 55.6665 82.0309 64.8026 82.0309 64.8026" stroke="#263238" stroke-width="0.170747" stroke-linecap="round" stroke-linejoin="round"/>
<path d="M92.7021 18.3728L95.1915 17.1364" stroke="#263238" stroke-width="0.170747" stroke-linecap="round" stroke-linejoin="round"/>
<path d="M93.1751 16.4808L92.5859 14.694" stroke="#263238" stroke-width="0.170747" stroke-linecap="round" stroke-linejoin="round"/>
<path d="M86.8823 28.6263C86.8823 28.6263 88.9623 27.6222 91.0894 26.6265" stroke="#263238" stroke-width="0.170747" stroke-linecap="round" stroke-linejoin="round"/>
<path d="M88.3428 25.9764C88.3428 25.9764 87.4107 22.7208 86.083 20.425" stroke="#263238" stroke-width="0.170747" stroke-linecap="round" stroke-linejoin="round"/>
<path d="M85.3999 41.0345C86.8062 39.3304 88.4525 37.8396 90.2874 36.6089" stroke="#263238" stroke-width="0.170747" stroke-linecap="round" stroke-linejoin="round"/>
<path d="M84.6529 42.979C84.3551 41.5768 83.9406 40.2019 83.4138 38.8687C82.6614 37.104 82.5508 36.8717 82.5508 36.8717" stroke="#263238" stroke-width="0.170747" stroke-linecap="round" stroke-linejoin="round"/>
<path d="M81.0186 52.3806C81.6995 51.3305 82.4606 50.3346 83.295 49.4017C84.1138 48.5445 85.002 47.7563 85.9503 47.045" stroke="#263238" stroke-width="0.170747" stroke-linecap="round" stroke-linejoin="round"/>
<path d="M81.5605 60.1972C81.669 59.0885 82.0709 58.0287 82.725 57.127C83.765 55.8131 84.9959 54.0706 85.491 53.3818" stroke="#263238" stroke-width="0.170747" stroke-linecap="round" stroke-linejoin="round"/>
<path d="M76.618 31.5997C76.618 31.5997 76.6374 30.6675 77.9678 29.3869C79.2982 28.1062 80.1502 27.3871 80.1502 27.3871C80.1502 27.3871 80.7559 29.539 79.5168 30.8141C78.6089 31.7118 77.6272 32.5315 76.582 33.2648L76.618 31.5997Z" fill="#7AC99A"/>
<path d="M78.3802 37.447C78.3802 37.447 78.4023 36.5176 79.73 35.2342C81.0577 33.9508 81.9151 33.2344 81.9151 33.2344C81.9151 33.2344 82.5181 35.3863 81.2817 36.6642C80.3727 37.5608 79.3901 38.3796 78.3442 39.1121L78.3802 37.447Z" fill="#7AC99A"/>
<path d="M76.665 33.1846C76.665 33.1846 76.5875 32.258 75.1797 31.0686C73.7718 29.8792 72.8756 29.2098 72.8756 29.2098C72.8756 29.2098 72.4054 31.3977 73.722 32.5926C74.6853 33.4304 75.7169 34.1863 76.806 34.8525L76.665 33.1846Z" fill="#7AC99A"/>
<path d="M78.8 40.0912C78.8 40.0912 78.623 39.1784 77.099 38.155C75.5749 37.1316 74.6096 36.548 74.6096 36.548C74.6096 36.548 74.3745 38.7608 75.8072 39.8229C76.8532 40.5592 77.9588 41.2068 79.1126 41.7591L78.8 40.0912Z" fill="#7AC99A"/>
<path d="M78.2083 47.5594C78.2083 47.5594 78.2277 46.63 76.9553 45.2996C75.6829 43.9691 74.8614 43.2085 74.8614 43.2085C74.8614 43.2085 74.1644 45.3328 75.3427 46.6605C76.2125 47.5954 77.159 48.4559 78.1723 49.2328L78.2083 47.5594Z" fill="#7AC99A"/>
<path d="M78.1916 49.385C78.1916 49.385 78.0782 48.4639 79.215 47.0118C80.3519 45.5596 81.0904 44.7271 81.0904 44.7271C81.0904 44.7271 81.9949 46.7711 80.9521 48.2094C80.18 49.2261 79.3242 50.1763 78.3935 51.0501L78.1916 49.385Z" fill="#7AC99A"/>
<path d="M79.2923 57.1353C79.2923 57.1353 79.5689 56.2474 81.2091 55.401C82.8494 54.5547 83.8673 54.0983 83.8673 54.0983C83.8673 54.0983 83.8424 56.3332 82.2962 57.2072C81.1709 57.8126 79.9967 58.3224 78.7861 58.7313L79.2923 57.1353Z" fill="#7AC99A"/>
<path d="M79.3591 54.8229C79.3591 54.8229 79.3784 53.8936 78.1033 52.5631C76.8282 51.2327 76.0094 50.472 76.0094 50.472C76.0094 50.472 75.3124 52.5963 76.4935 53.924C77.3632 54.859 78.3097 55.7194 79.3231 56.4964L79.3591 54.8229Z" fill="#7AC99A"/>
<path d="M78.3826 59.7076C78.3826 59.7076 78.6371 58.8142 77.7437 57.2044C76.8503 55.5946 76.2473 54.6514 76.2473 54.6514C76.2473 54.6514 75.033 56.5295 75.8407 58.1144C76.4441 59.2402 77.1408 60.3135 77.9235 61.3229L78.3826 59.7076Z" fill="#7AC99A"/>
<path d="M76.499 31.3562C76.5437 32.3262 76.6416 33.2929 76.7922 34.2522C77.2514 36.9214 78.4988 38.6778 78.9635 41.0787C79.4282 43.4795 77.882 46.5525 78.2112 49.6532C78.5403 52.7539 79.702 54.4854 79.3176 56.5378C78.9331 58.5901 77.0107 64.1249 77.0107 64.1249" stroke="#263238" stroke-width="0.170747" stroke-linecap="round" stroke-linejoin="round"/>
<path d="M76.6649 33.8015L75.2847 32.6951" stroke="#263238" stroke-width="0.170747" stroke-linecap="round" stroke-linejoin="round"/>
<path d="M76.626 32.5622L77.2345 31.5305" stroke="#263238" stroke-width="0.170747" stroke-linecap="round" stroke-linejoin="round"/>
<path d="M78.8916 40.9653C78.8916 40.9653 77.7382 40.0608 76.5488 39.1536" stroke="#263238" stroke-width="0.170747" stroke-linecap="round" stroke-linejoin="round"/>
<path d="M78.3442 39.1203C78.9548 38.0007 79.6777 36.946 80.5017 35.9727" stroke="#263238" stroke-width="0.170747" stroke-linecap="round" stroke-linejoin="round"/>
<path d="M78.1339 48.8761C77.4908 47.626 76.6689 46.4762 75.6943 45.4629" stroke="#263238" stroke-width="0.170747" stroke-linecap="round" stroke-linejoin="round"/>
<path d="M78.3359 50.1926C78.7097 49.3616 79.1519 48.5632 79.6581 47.8056C80.3662 46.8098 80.4657 46.6798 80.4657 46.6798" stroke="#263238" stroke-width="0.170747" stroke-linecap="round" stroke-linejoin="round"/>
<path d="M78.9468 58.0729C79.5676 57.5541 80.2331 57.0913 80.9355 56.6899C81.3735 56.4835 81.7935 56.2411 82.1913 55.9652" stroke="#263238" stroke-width="0.170747" stroke-linecap="round" stroke-linejoin="round"/>
<path d="M79.3203 56.5323C79.0399 55.7864 78.7024 55.0633 78.3107 54.3693C77.9172 53.7261 77.4713 53.1164 76.9775 52.5465" stroke="#263238" stroke-width="0.170747" stroke-linecap="round" stroke-linejoin="round"/>
<path d="M77.9236 61.323C78.0077 60.6192 77.9017 59.9057 77.6166 59.2568C77.1492 58.2998 76.6209 57.044 76.4023 56.5544" stroke="#263238" stroke-width="0.170747" stroke-linecap="round" stroke-linejoin="round"/>
<path d="M9.78875 51.0556C9.78875 51.0556 9.35172 49.7915 6.97297 48.6381C4.59422 47.4847 3.10059 46.8651 3.10059 46.8651C3.10059 46.8651 3.22229 50.0737 5.47381 51.2713C7.11068 52.0977 8.81406 52.7852 10.566 53.3265L9.78875 51.0556Z" fill="#7AC99A"/>
<path d="M9.95184 59.8238C9.95184 59.8238 9.51481 58.5625 7.13606 57.4063C4.75731 56.2501 3.26367 55.6333 3.26367 55.6333C3.26367 55.6333 3.38537 58.8418 5.63689 60.0423C7.27417 60.867 8.97749 61.5535 10.7291 62.0947L9.95184 59.8238Z" fill="#7AC99A"/>
<path d="M10.4221 53.2435C10.4221 53.2435 10.1206 51.9407 11.5285 49.6975C12.9364 47.4543 13.8603 46.1432 13.8603 46.1432C13.8603 46.1432 15.4618 48.9258 14.1922 51.1386C13.2445 52.7079 12.1666 54.1948 10.9698 55.5835L10.4221 53.2435Z" fill="#7AC99A"/>
<path d="M10.5441 63.6243C10.5441 63.6243 10.3809 62.2966 12.0101 60.2138C13.6392 58.131 14.7014 56.925 14.7014 56.925C14.7014 56.925 16.0042 59.8598 14.5078 61.926C13.3999 63.3865 12.1721 64.7521 10.8373 66.0086L10.5441 63.6243Z" fill="#7AC99A"/>
<path d="M14.6376 73.5708C14.6376 73.5708 14.2006 72.3095 15.3568 69.9308C16.513 67.552 17.293 66.1497 17.293 66.1497C17.293 66.1497 19.1822 68.7469 18.1532 71.0814C17.3769 72.7417 16.4628 74.3341 15.4204 75.8417L14.6376 73.5708Z" fill="#7AC99A"/>
<path d="M15.4677 76.0575C15.4677 76.0575 15.2132 74.7464 13.0226 73.2638C10.8319 71.7813 9.45169 70.9625 9.45169 70.9625C9.45169 70.9625 9.11424 74.1545 11.1749 75.6647C12.677 76.7176 14.2647 77.6429 15.9213 78.4307L15.4677 76.0575Z" fill="#7AC99A"/>
<path d="M16.2641 84.0041C16.2641 84.0041 15.8271 82.7401 16.9833 80.3613C18.1394 77.9826 18.9195 76.5802 18.9195 76.5802C18.9195 76.5802 20.8086 79.1775 19.7797 81.512C19.0021 83.1731 18.0871 84.7663 17.0441 86.275L16.2641 84.0041Z" fill="#7AC99A"/>
<path d="M19.7491 90.2497C19.7491 90.2497 19.005 89.1433 19.5223 86.5461C20.0395 83.9488 20.4433 82.3971 20.4433 82.3971C20.4433 82.3971 22.9327 84.4329 22.5206 86.9499C22.1902 88.7536 21.7091 90.5263 21.0823 92.2495L19.7491 90.2497Z" fill="#7AC99A"/>
<path d="M9.83887 50.6766C10.2054 52.0213 10.4972 53.3851 10.7129 54.762C11.2661 58.6123 10.3202 61.5442 10.7516 65.046C11.1831 68.5477 14.624 72.0522 15.5506 76.4252C16.4772 80.7983 15.6391 83.6887 17.0692 86.322C18.4992 88.9552 23.5665 95.6765 23.5665 95.6765" stroke="#263238" stroke-width="0.170747" stroke-linecap="round" stroke-linejoin="round"/>
<path d="M10.6934 54.0871L12.093 51.9684" stroke="#263238" stroke-width="0.170747" stroke-linecap="round" stroke-linejoin="round"/>
<path d="M10.2011 52.375L8.91211 51.2327" stroke="#263238" stroke-width="0.170747" stroke-linecap="round" stroke-linejoin="round"/>
<path d="M10.8013 64.8606C10.8013 64.8606 11.9823 63.1125 13.2077 61.3506" stroke="#263238" stroke-width="0.170747" stroke-linecap="round" stroke-linejoin="round"/>
<path d="M10.7373 62.0947C10.7373 62.0947 8.50791 59.94 6.40576 58.7451" stroke="#263238" stroke-width="0.170747" stroke-linecap="round" stroke-linejoin="round"/>
<path d="M15.3232 75.3438C15.652 73.352 16.2689 71.4186 17.1543 69.6044" stroke="#263238" stroke-width="0.170747" stroke-linecap="round" stroke-linejoin="round"/>
<path d="M15.6248 77.2219C14.7473 76.2517 13.7907 75.3561 12.7648 74.5444C11.3596 73.4934 11.166 73.3606 11.166 73.3606" stroke="#263238" stroke-width="0.170747" stroke-linecap="round" stroke-linejoin="round"/>
<path d="M17.0659 86.322C17.1237 85.1796 17.268 84.0432 17.4974 82.9226C17.7524 81.874 18.0928 80.8481 18.5153 79.8551" stroke="#263238" stroke-width="0.170747" stroke-linecap="round" stroke-linejoin="round"/>
<path d="M21.0826 92.2496C20.6597 91.3239 20.4908 90.3025 20.593 89.29C20.8143 87.7742 20.9857 85.8325 21.0632 85.0608" stroke="#263238" stroke-width="0.170747" stroke-linecap="round" stroke-linejoin="round"/>
<path d="M4.05209 71.9195C4.05209 71.9195 3.63996 71.1755 4.10741 69.5573C4.57487 67.9392 4.91508 66.9767 4.91508 66.9767C4.91508 66.9767 6.38106 68.4012 5.98829 69.975C5.68121 71.1009 5.28059 72.1991 4.79061 73.2582L4.05209 71.9195Z" fill="#7AC99A"/>
<path d="M8.12949 75.731C8.12949 75.731 7.72012 74.987 8.1848 73.3689C8.64949 71.7508 8.99247 70.7882 8.99247 70.7882C8.99247 70.7882 10.4584 72.2127 10.0657 73.7865C9.7603 74.9126 9.36058 76.0109 8.87077 77.0698L8.12949 75.731Z" fill="#7AC99A"/>
<path d="M4.81835 73.1504C4.81835 73.1504 4.33154 72.4534 2.67195 72.1602C1.01235 71.867 0 71.748 0 71.748C0 71.748 0.633412 73.6842 2.21279 74.0328C3.35927 74.2538 4.52234 74.3778 5.68964 74.4034L4.81835 73.1504Z" fill="#7AC99A"/>
<path d="M9.67541 77.6423C9.67541 77.6423 9.12221 77.0006 7.43772 76.8844C5.75323 76.7683 4.73535 76.7572 4.73535 76.7572C4.73535 76.7572 5.56515 78.6215 7.18325 78.7957C8.34573 78.8925 9.51422 78.8925 10.6767 78.7957L9.67541 77.6423Z" fill="#7AC99A"/>
<path d="M12.6348 83.8022C12.6348 83.8022 12.2227 83.0581 10.6073 82.5907C8.99201 82.1232 7.99072 81.8992 7.99072 81.8992C7.99072 81.8992 8.41669 83.899 9.95734 84.4052C11.0733 84.7458 12.216 84.9919 13.3733 85.1409L12.6348 83.8022Z" fill="#7AC99A"/>
<path d="M13.4595 85.2516C13.4595 85.2516 12.9478 84.5739 13.1829 82.9088C13.418 81.2436 13.6171 80.2368 13.6171 80.2368C13.6171 80.2368 15.2767 81.4373 15.1052 83.0554C14.9621 84.2131 14.7215 85.3568 14.3861 86.4741L13.4595 85.2516Z" fill="#7AC99A"/>
<path d="M17.8848 90.8693C17.8848 90.8693 17.7022 90.0395 18.604 88.6205C19.5057 87.2016 20.1059 86.369 20.1059 86.369C20.1059 86.369 21.1127 88.1503 20.2912 89.5499C19.6802 90.5444 18.9863 91.4854 18.2167 92.3629L17.8848 90.8693Z" fill="#7AC99A"/>
<path d="M16.8752 89.0133C16.8752 89.0133 16.4658 88.2693 14.8477 87.8046C13.2296 87.3399 12.2339 87.1104 12.2339 87.1104C12.2339 87.1104 12.6571 89.1102 14.2005 89.6191C15.3163 89.963 16.459 90.2128 17.6165 90.3659L16.8752 89.0133Z" fill="#7AC99A"/>
<path d="M18.3465 93.3227C18.3465 93.3227 18.139 92.493 16.6869 91.6383C15.2348 90.7836 14.333 90.3051 14.333 90.3051C14.333 90.3051 14.2362 92.3464 15.5999 93.2287C16.593 93.8405 17.6358 94.3679 18.7171 94.8053L18.3465 93.3227Z" fill="#7AC99A"/>
<path d="M3.85303 71.7812C4.3339 72.5261 4.85467 73.2445 5.41305 73.9332C7.00072 75.8334 8.78755 76.6383 10.2618 78.3311C11.7361 80.0239 11.9214 83.155 13.5976 85.448C15.2738 87.741 16.997 88.5819 17.6304 90.3825C18.2638 92.1832 19.29 97.4358 19.29 97.4358" stroke="#263238" stroke-width="0.170747" stroke-linecap="round" stroke-linejoin="round"/>
<path d="M5.10021 73.6399L3.50146 73.3965" stroke="#263238" stroke-width="0.170747" stroke-linecap="round" stroke-linejoin="round"/>
<path d="M4.5 72.6746L4.5083 71.582" stroke="#263238" stroke-width="0.170747" stroke-linecap="round" stroke-linejoin="round"/>
<path d="M10.1483 78.2786C10.1483 78.2786 8.82067 78.0932 7.46533 77.9218" stroke="#263238" stroke-width="0.170747" stroke-linecap="round" stroke-linejoin="round"/>
<path d="M8.87043 77.0698C8.83784 75.9059 8.92496 74.7418 9.13043 73.5957" stroke="#263238" stroke-width="0.170747" stroke-linecap="round" stroke-linejoin="round"/>
<path d="M13.1827 84.8809C12.0997 84.1884 10.9221 83.6564 9.68652 83.3015" stroke="#263238" stroke-width="0.170747" stroke-linecap="round" stroke-linejoin="round"/>
<path d="M13.9434 85.8241C13.8571 84.9971 13.8405 84.1644 13.8936 83.3347C13.996 82.2283 14.0153 82.0762 14.0153 82.0762" stroke="#263238" stroke-width="0.170747" stroke-linecap="round" stroke-linejoin="round"/>
<path d="M18.0425 91.7682C18.2907 91.0721 18.5998 90.3991 18.9663 89.7573C19.2167 89.3918 19.4377 89.0071 19.6274 88.6067" stroke="#263238" stroke-width="0.170747" stroke-linecap="round" stroke-linejoin="round"/>
<path d="M17.6303 90.3825C17.0665 89.9223 16.4682 89.5062 15.8407 89.1378C15.2336 88.8104 14.6008 88.5328 13.9487 88.308" stroke="#263238" stroke-width="0.170747" stroke-linecap="round" stroke-linejoin="round"/>
<path d="M18.7228 94.8053C18.4652 94.2104 18.0537 93.6948 17.5307 93.3117C16.723 92.7723 15.73 92.0255 15.3179 91.7351" stroke="#263238" stroke-width="0.170747" stroke-linecap="round" stroke-linejoin="round"/>
<path d="M83.2042 55.4039H63.7289C63.0399 55.4039 62.4814 55.9624 62.4814 56.6514V98.6585C62.4814 99.3474 63.0399 99.9059 63.7289 99.9059H83.2042C83.8932 99.9059 84.4517 99.3474 84.4517 98.6585V56.6514C84.4517 55.9624 83.8932 55.4039 83.2042 55.4039Z" fill="white" stroke="#263238" stroke-width="0.344908" stroke-linecap="round" stroke-linejoin="round"/>
<path d="M82.615 61.243H64.3207C63.6318 61.243 63.0732 61.8016 63.0732 62.4905V97.5965C63.0732 98.2854 63.6318 98.8439 64.3207 98.8439H82.615C83.3039 98.8439 83.8624 98.2854 83.8624 97.5965V62.4905C83.8624 61.8016 83.3039 61.243 82.615 61.243Z" fill="#7AC99A"/>
<path opacity="0.5" d="M82.615 61.243H64.3207C63.6318 61.243 63.0732 61.8016 63.0732 62.4905V97.5965C63.0732 98.2854 63.6318 98.8439 64.3207 98.8439H82.615C83.3039 98.8439 83.8624 98.2854 83.8624 97.5965V62.4905C83.8624 61.8016 83.3039 61.243 82.615 61.243Z" fill="white"/>
<path d="M78.6954 45.806H68.2427V55.404H78.6954V45.806Z" fill="#263238" stroke="#263238" stroke-width="0.344908" stroke-linecap="round" stroke-linejoin="round"/>
<path d="M69.1143 46.7548V54.3695" stroke="white" stroke-width="0.344908" stroke-linecap="round" stroke-linejoin="round"/>
<path d="M70.7295 46.7548V54.3695" stroke="white" stroke-width="0.344908" stroke-linecap="round" stroke-linejoin="round"/>
<path d="M73.0361 49.1777V54.3695" stroke="white" stroke-width="0.344908" stroke-linecap="round" stroke-linejoin="round"/>
<path d="M73.0361 46.7548V48.0243" stroke="white" stroke-width="0.344908" stroke-linecap="round" stroke-linejoin="round"/>
<path d="M83.1988 64.847H63.7373V86.325H83.1988V64.847Z" fill="white"/>
<path d="M73.3381 83.3487C77.319 83.3487 80.5462 80.1215 80.5462 76.1405C80.5462 72.1596 77.319 68.9324 73.3381 68.9324C69.3571 68.9324 66.1299 72.1596 66.1299 76.1405C66.1299 80.1215 69.3571 83.3487 73.3381 83.3487Z" fill="#263238"/>
<path d="M74.6573 71.1812H72.0186V81.1H74.6573V71.1812Z" fill="#7AC99A"/>
<path d="M78.2974 77.4599V74.8212H68.3785V77.4599H78.2974Z" fill="#7AC99A"/>
<path d="M103.766 79.551H73.1273C72.4017 79.551 71.8135 80.1393 71.8135 80.8649V98.6861C71.8135 99.4118 72.4017 100 73.1273 100H103.766C104.492 100 105.08 99.4118 105.08 98.6861V80.8649C105.08 80.1393 104.492 79.551 103.766 79.551Z" fill="white" stroke="#263238" stroke-width="0.341493" stroke-linecap="round" stroke-linejoin="round"/>
<path d="M74.9971 88.4299C74.6714 88.4299 74.3591 88.3005 74.1287 88.0702C73.8984 87.8399 73.769 87.5275 73.769 87.2018V83.8826C73.7687 83.7211 73.8002 83.5611 73.8617 83.4118C73.9233 83.2625 74.0137 83.1267 74.1278 83.0124C74.2418 82.8981 74.3773 82.8074 74.5265 82.7455C74.6757 82.6836 74.8356 82.6517 74.9971 82.6517C75.3236 82.6517 75.6367 82.7814 75.8675 83.0122C76.0983 83.2431 76.228 83.5562 76.228 83.8826V87.2018C76.228 87.3633 76.1961 87.5232 76.1343 87.6724C76.0724 87.8216 75.9817 87.9571 75.8673 88.0712C75.753 88.1852 75.6173 88.2756 75.468 88.3372C75.3186 88.3988 75.1587 88.4303 74.9971 88.4299V88.4299Z" fill="#263238" stroke="#263238" stroke-width="0.344908" stroke-linecap="round" stroke-linejoin="round"/>
<path d="M75.8296 83.7692V85.8271" stroke="white" stroke-width="0.344908" stroke-linecap="round" stroke-linejoin="round"/>
<path d="M75.8296 86.3582V87.4867" stroke="white" stroke-width="0.344908" stroke-linecap="round" stroke-linejoin="round"/>
<path d="M80.3712 88.4299C80.0455 88.4299 79.7331 88.3005 79.5028 88.0702C79.2725 87.8399 79.1431 87.5275 79.1431 87.2018V83.8826C79.1427 83.7211 79.1742 83.5611 79.2358 83.4118C79.2973 83.2625 79.3877 83.1267 79.5018 83.0124C79.6159 82.8981 79.7514 82.8074 79.9006 82.7455C80.0497 82.6836 80.2097 82.6517 80.3712 82.6517V82.6517C80.5327 82.6517 80.6926 82.6836 80.8418 82.7455C80.991 82.8074 81.1265 82.8981 81.2405 83.0124C81.3546 83.1267 81.445 83.2625 81.5066 83.4118C81.5681 83.5611 81.5996 83.7211 81.5993 83.8826V87.2018C81.5993 87.5275 81.4699 87.8399 81.2396 88.0702C81.0093 88.3005 80.6969 88.4299 80.3712 88.4299Z" fill="#263238" stroke="#263238" stroke-width="0.344908" stroke-linecap="round" stroke-linejoin="round"/>
<path d="M81.2065 83.7692V85.8271" stroke="white" stroke-width="0.344908" stroke-linecap="round" stroke-linejoin="round"/>
<path d="M81.2065 86.3582V87.4867" stroke="white" stroke-width="0.344908" stroke-linecap="round" stroke-linejoin="round"/>
<path d="M85.7569 88.4299C85.4312 88.4299 85.1188 88.3005 84.8885 88.0702C84.6582 87.8399 84.5288 87.5275 84.5288 87.2018V83.8826C84.5284 83.7211 84.5599 83.5611 84.6215 83.4118C84.6831 83.2625 84.7735 83.1267 84.8875 83.0124C85.0016 82.8981 85.1371 82.8074 85.2863 82.7455C85.4355 82.6836 85.5954 82.6517 85.7569 82.6517C85.9184 82.6517 86.0783 82.6836 86.2275 82.7455C86.3767 82.8074 86.5122 82.8981 86.6263 83.0124C86.7404 83.1267 86.8308 83.2625 86.8923 83.4118C86.9539 83.5611 86.9854 83.7211 86.985 83.8826V87.2018C86.985 87.5275 86.8556 87.8399 86.6253 88.0702C86.395 88.3005 86.0826 88.4299 85.7569 88.4299Z" fill="#263238" stroke="#263238" stroke-width="0.344908" stroke-linecap="round" stroke-linejoin="round"/>
<path d="M86.5864 83.7692V85.8271" stroke="white" stroke-width="0.344908" stroke-linecap="round" stroke-linejoin="round"/>
<path d="M86.5864 86.3582V87.4867" stroke="white" stroke-width="0.344908" stroke-linecap="round" stroke-linejoin="round"/>
<path d="M91.1368 88.4299C90.8111 88.4299 90.4987 88.3005 90.2684 88.0702C90.0381 87.8399 89.9087 87.5275 89.9087 87.2018V83.8826C89.9083 83.7211 89.9398 83.5611 90.0014 83.4118C90.0629 83.2625 90.1533 83.1267 90.2674 83.0124C90.3815 82.8981 90.517 82.8074 90.6662 82.7455C90.8154 82.6836 90.9753 82.6517 91.1368 82.6517V82.6517C91.2983 82.6517 91.4582 82.6836 91.6074 82.7455C91.7566 82.8074 91.8921 82.8981 92.0062 83.0124C92.1202 83.1267 92.2106 83.2625 92.2722 83.4118C92.3338 83.5611 92.3653 83.7211 92.3649 83.8826V87.2018C92.3649 87.5275 92.2355 87.8399 92.0052 88.0702C91.7749 88.3005 91.4625 88.4299 91.1368 88.4299Z" fill="#263238" stroke="#263238" stroke-width="0.344908" stroke-linecap="round" stroke-linejoin="round"/>
<path d="M91.9663 83.7692V85.8271" stroke="white" stroke-width="0.344908" stroke-linecap="round" stroke-linejoin="round"/>
<path d="M91.9663 86.3582V87.4867" stroke="white" stroke-width="0.344908" stroke-linecap="round" stroke-linejoin="round"/>
<path d="M96.5165 88.4299C96.355 88.4303 96.195 88.3988 96.0457 88.3372C95.8964 88.2756 95.7606 88.1852 95.6463 88.0712C95.532 87.9571 95.4413 87.8216 95.3794 87.6724C95.3175 87.5232 95.2856 87.3633 95.2856 87.2018V83.8826C95.2856 83.5562 95.4153 83.2431 95.6462 83.0122C95.877 82.7814 96.1901 82.6517 96.5165 82.6517C96.678 82.6517 96.8379 82.6836 96.9871 82.7455C97.1363 82.8074 97.2718 82.8981 97.3859 83.0124C97.5 83.1267 97.5904 83.2625 97.6519 83.4118C97.7135 83.5611 97.745 83.7211 97.7446 83.8826V87.2018C97.7446 87.5275 97.6152 87.8399 97.3849 88.0702C97.1546 88.3005 96.8422 88.4299 96.5165 88.4299Z" fill="#263238" stroke="#263238" stroke-width="0.344908" stroke-linecap="round" stroke-linejoin="round"/>
<path d="M97.3462 83.7692V85.8271" stroke="white" stroke-width="0.344908" stroke-linecap="round" stroke-linejoin="round"/>
<path d="M97.3462 86.3582V87.4867" stroke="white" stroke-width="0.344908" stroke-linecap="round" stroke-linejoin="round"/>
<path d="M101.894 88.4299C101.568 88.4299 101.256 88.3005 101.025 88.0702C100.795 87.8399 100.666 87.5275 100.666 87.2018V83.8826C100.665 83.7211 100.697 83.5611 100.758 83.4118C100.82 83.2625 100.91 83.1267 101.024 83.0124C101.138 82.8981 101.274 82.8074 101.423 82.7455C101.572 82.6836 101.732 82.6517 101.894 82.6517V82.6517C102.055 82.6517 102.215 82.6836 102.364 82.7455C102.513 82.8074 102.649 82.8981 102.763 83.0124C102.877 83.1267 102.967 83.2625 103.029 83.4118C103.091 83.5611 103.122 83.7211 103.122 83.8826V87.2018C103.122 87.5275 102.992 87.8399 102.762 88.0702C102.532 88.3005 102.219 88.4299 101.894 88.4299Z" fill="#263238" stroke="#263238" stroke-width="0.344908" stroke-linecap="round" stroke-linejoin="round"/>
<path d="M102.723 83.7692V85.8271" stroke="white" stroke-width="0.344908" stroke-linecap="round" stroke-linejoin="round"/>
<path d="M102.723 86.3582V87.4867" stroke="white" stroke-width="0.344908" stroke-linecap="round" stroke-linejoin="round"/>
<path d="M74.9971 97.2478C74.6714 97.2478 74.3591 97.1184 74.1287 96.8881C73.8984 96.6578 73.769 96.3454 73.769 96.0197V92.7005C73.769 92.3748 73.8984 92.0624 74.1287 91.8321C74.3591 91.6018 74.6714 91.4724 74.9971 91.4724C75.1587 91.4721 75.3186 91.5036 75.468 91.5651C75.6173 91.6267 75.753 91.7171 75.8673 91.8311C75.9817 91.9452 76.0724 92.0807 76.1343 92.2299C76.1961 92.3791 76.228 92.539 76.228 92.7005V96.0197C76.228 96.1812 76.1961 96.3411 76.1343 96.4903C76.0724 96.6395 75.9817 96.775 75.8673 96.8891C75.753 97.0032 75.6173 97.0936 75.468 97.1551C75.3186 97.2167 75.1587 97.2482 74.9971 97.2478Z" fill="#263238" stroke="#263238" stroke-width="0.344908" stroke-linecap="round" stroke-linejoin="round"/>
<path d="M75.8296 92.601V94.6588" stroke="white" stroke-width="0.344908" stroke-linecap="round" stroke-linejoin="round"/>
<path d="M75.8296 95.1899V96.3185" stroke="white" stroke-width="0.344908" stroke-linecap="round" stroke-linejoin="round"/>
<path d="M80.3712 97.2478C80.0455 97.2478 79.7331 97.1184 79.5028 96.8881C79.2725 96.6578 79.1431 96.3454 79.1431 96.0197V92.7005C79.1431 92.3748 79.2725 92.0624 79.5028 91.8321C79.7331 91.6018 80.0455 91.4724 80.3712 91.4724C80.5325 91.4721 80.6924 91.5036 80.8416 91.5652C80.9907 91.6267 81.1263 91.7172 81.2404 91.8313C81.3545 91.9454 81.4449 92.0809 81.5065 92.2301C81.5681 92.3793 81.5996 92.5391 81.5993 92.7005V96.0197C81.5996 96.1811 81.5681 96.3409 81.5065 96.4901C81.4449 96.6393 81.3545 96.7748 81.2404 96.8889C81.1263 97.003 80.9907 97.0935 80.8416 97.1551C80.6924 97.2167 80.5325 97.2482 80.3712 97.2478V97.2478Z" fill="#263238" stroke="#263238" stroke-width="0.344908" stroke-linecap="round" stroke-linejoin="round"/>
<path d="M81.2065 92.601V94.6588" stroke="white" stroke-width="0.344908" stroke-linecap="round" stroke-linejoin="round"/>
<path d="M81.2065 95.1899V96.3185" stroke="white" stroke-width="0.344908" stroke-linecap="round" stroke-linejoin="round"/>
<path d="M85.7569 97.2478C85.4312 97.2478 85.1188 97.1184 84.8885 96.8881C84.6582 96.6578 84.5288 96.3454 84.5288 96.0197V92.7005C84.5288 92.3748 84.6582 92.0624 84.8885 91.8321C85.1188 91.6018 85.4312 91.4724 85.7569 91.4724C86.0826 91.4724 86.395 91.6018 86.6253 91.8321C86.8556 92.0624 86.985 92.3748 86.985 92.7005V96.0197C86.985 96.3454 86.8556 96.6578 86.6253 96.8881C86.395 97.1184 86.0826 97.2478 85.7569 97.2478Z" fill="#263238" stroke="#263238" stroke-width="0.344908" stroke-linecap="round" stroke-linejoin="round"/>
<path d="M86.5864 92.601V94.6588" stroke="white" stroke-width="0.344908" stroke-linecap="round" stroke-linejoin="round"/>
<path d="M86.5864 95.1899V96.3185" stroke="white" stroke-width="0.344908" stroke-linecap="round" stroke-linejoin="round"/>
<path d="M91.1368 97.2478C90.9754 97.2482 90.8156 97.2167 90.6664 97.1551C90.5172 97.0935 90.3817 97.003 90.2676 96.8889C90.1535 96.7748 90.063 96.6393 90.0014 96.4901C89.9398 96.3409 89.9083 96.1811 89.9087 96.0197V92.7005C89.9083 92.5391 89.9398 92.3793 90.0014 92.2301C90.063 92.0809 90.1535 91.9454 90.2676 91.8313C90.3817 91.7172 90.5172 91.6267 90.6664 91.5652C90.8156 91.5036 90.9754 91.4721 91.1368 91.4724C91.4625 91.4724 91.7749 91.6018 92.0052 91.8321C92.2355 92.0624 92.3649 92.3748 92.3649 92.7005V96.0197C92.3649 96.3454 92.2355 96.6578 92.0052 96.8881C91.7749 97.1184 91.4625 97.2478 91.1368 97.2478Z" fill="#263238" stroke="#263238" stroke-width="0.344908" stroke-linecap="round" stroke-linejoin="round"/>
<path d="M91.9663 92.601V94.6588" stroke="white" stroke-width="0.344908" stroke-linecap="round" stroke-linejoin="round"/>
<path d="M91.9663 95.1899V96.3185" stroke="white" stroke-width="0.344908" stroke-linecap="round" stroke-linejoin="round"/>
<path d="M96.5165 97.2478C96.355 97.2482 96.195 97.2167 96.0457 97.1551C95.8964 97.0936 95.7606 97.0032 95.6463 96.8891C95.532 96.775 95.4413 96.6395 95.3794 96.4903C95.3175 96.3411 95.2856 96.1812 95.2856 96.0197V92.7005C95.2856 92.539 95.3175 92.3791 95.3794 92.2299C95.4413 92.0807 95.532 91.9452 95.6463 91.8311C95.7606 91.7171 95.8964 91.6267 96.0457 91.5651C96.195 91.5036 96.355 91.4721 96.5165 91.4724C96.8422 91.4724 97.1546 91.6018 97.3849 91.8321C97.6152 92.0624 97.7446 92.3748 97.7446 92.7005V96.0197C97.7446 96.3454 97.6152 96.6578 97.3849 96.8881C97.1546 97.1184 96.8422 97.2478 96.5165 97.2478Z" fill="#263238" stroke="#263238" stroke-width="0.344908" stroke-linecap="round" stroke-linejoin="round"/>
<path d="M97.3462 92.601V94.6588" stroke="white" stroke-width="0.344908" stroke-linecap="round" stroke-linejoin="round"/>
<path d="M97.3462 95.1899V96.3185" stroke="white" stroke-width="0.344908" stroke-linecap="round" stroke-linejoin="round"/>
<path d="M101.894 97.2478C101.568 97.2478 101.256 97.1184 101.025 96.8881C100.795 96.6578 100.666 96.3454 100.666 96.0197V92.7005C100.666 92.3748 100.795 92.0624 101.025 91.8321C101.256 91.6018 101.568 91.4724 101.894 91.4724C102.055 91.4721 102.215 91.5036 102.364 91.5652C102.513 91.6267 102.649 91.7172 102.763 91.8313C102.877 91.9454 102.967 92.0809 103.029 92.2301C103.091 92.3793 103.122 92.5391 103.122 92.7005V96.0197C103.122 96.1811 103.091 96.3409 103.029 96.4901C102.967 96.6393 102.877 96.7748 102.763 96.8889C102.649 97.003 102.513 97.0935 102.364 97.1551C102.215 97.2167 102.055 97.2482 101.894 97.2478V97.2478Z" fill="#263238" stroke="#263238" stroke-width="0.344908" stroke-linecap="round" stroke-linejoin="round"/>
<path d="M102.723 92.601V94.6588" stroke="white" stroke-width="0.344908" stroke-linecap="round" stroke-linejoin="round"/>
<path d="M102.723 95.1899V96.3185" stroke="white" stroke-width="0.344908" stroke-linecap="round" stroke-linejoin="round"/>
<path d="M77.7188 80.6132V81.3047" stroke="#263238" stroke-width="0.170747" stroke-linecap="round" stroke-linejoin="round"/>
<path d="M77.7188 82.588V97.3446" stroke="#263238" stroke-width="0.170747" stroke-linecap="round" stroke-linejoin="round" stroke-dasharray="1.58 1.58"/>
<path d="M77.7188 97.9863V98.6778" stroke="#263238" stroke-width="0.170747" stroke-linecap="round" stroke-linejoin="round"/>
<path d="M83.0986 80.6132V81.3047" stroke="#263238" stroke-width="0.170747" stroke-linecap="round" stroke-linejoin="round"/>
<path d="M83.0986 82.588V97.3446" stroke="#263238" stroke-width="0.170747" stroke-linecap="round" stroke-linejoin="round" stroke-dasharray="1.58 1.58"/>
<path d="M83.0986 97.9863V98.6778" stroke="#263238" stroke-width="0.170747" stroke-linecap="round" stroke-linejoin="round"/>
<path d="M88.4785 80.6132V81.3047" stroke="#263238" stroke-width="0.170747" stroke-linecap="round" stroke-linejoin="round"/>
<path d="M88.4785 82.588V97.3446" stroke="#263238" stroke-width="0.170747" stroke-linecap="round" stroke-linejoin="round" stroke-dasharray="1.58 1.58"/>
<path d="M88.4785 97.9863V98.6778" stroke="#263238" stroke-width="0.170747" stroke-linecap="round" stroke-linejoin="round"/>
<path d="M93.8555 80.6132V81.3047" stroke="#263238" stroke-width="0.170747" stroke-linecap="round" stroke-linejoin="round"/>
<path d="M93.8555 82.588V97.3446" stroke="#263238" stroke-width="0.170747" stroke-linecap="round" stroke-linejoin="round" stroke-dasharray="1.58 1.58"/>
<path d="M93.8555 97.9863V98.6778" stroke="#263238" stroke-width="0.170747" stroke-linecap="round" stroke-linejoin="round"/>
<path d="M99.2354 80.6132V81.3047" stroke="#263238" stroke-width="0.170747" stroke-linecap="round" stroke-linejoin="round"/>
<path d="M99.2354 82.588V97.3446" stroke="#263238" stroke-width="0.170747" stroke-linecap="round" stroke-linejoin="round" stroke-dasharray="1.58 1.58"/>
<path d="M99.2354 97.9863V98.6778" stroke="#263238" stroke-width="0.170747" stroke-linecap="round" stroke-linejoin="round"/>
<path d="M72.6709 89.777H104.084" stroke="#263238" stroke-width="0.170747" stroke-linecap="round" stroke-linejoin="round" stroke-dasharray="1.71 1.71"/>
<path d="M102.703 82.3806V77.8638H95.3984V82.3806L93.6475 84.7787C93.4013 85.1182 93.2687 85.5267 93.2686 85.946V99.9059H104.822V85.9405C104.822 85.5212 104.689 85.1126 104.443 84.7732L102.703 82.3806Z" fill="#263238" stroke="#263238" stroke-width="0.344908" stroke-linecap="round" stroke-linejoin="round"/>
<path d="M102.706 75.792H95.4287V76.5748H102.706V75.792Z" fill="#263238" stroke="#263238" stroke-width="0.344908" stroke-linecap="round" stroke-linejoin="round"/>
<path d="M103.763 74.0135H94.3364V76.0189H103.763V74.0135Z" fill="#7AC99A" stroke="#263238" stroke-width="0.344908" stroke-linecap="round" stroke-linejoin="round"/>
<path d="M103.412 76.5361H94.6877C94.4937 76.5361 94.3364 76.6934 94.3364 76.8874V77.7781C94.3364 77.9721 94.4937 78.1293 94.6877 78.1293H103.412C103.606 78.1293 103.763 77.9721 103.763 77.7781V76.8874C103.763 76.6934 103.606 76.5361 103.412 76.5361Z" fill="#263238" stroke="#263238" stroke-width="0.344908" stroke-linecap="round" stroke-linejoin="round"/>
<path d="M100.74 86.8007H93.2715V96.0999H100.74V86.8007Z" fill="#7AC99A" stroke="#263238" stroke-width="0.344908" stroke-linecap="round" stroke-linejoin="round"/>
<path d="M56.6695 12.5532H19.962C17.7439 12.5532 15.9458 14.3513 15.9458 16.5694V95.8482C15.9458 98.0663 17.7439 99.8645 19.962 99.8645H56.6695C58.8876 99.8645 60.6857 98.0663 60.6857 95.8482V16.5694C60.6857 14.3513 58.8876 12.5532 56.6695 12.5532Z" fill="#263238"/>
<path opacity="0.2" d="M19.7962 12.5532C18.7736 12.5532 17.7929 12.9595 17.0698 13.6826C16.3467 14.4057 15.9404 15.3864 15.9404 16.409V96.0087C15.9399 96.5728 16.0635 97.1301 16.3025 97.6412C16.5416 98.1522 16.8901 98.6043 17.3234 98.9655L43.4261 12.5532H19.7962Z" fill="white"/>
<path d="M39.8385 97.3392C39.8385 97.0383 39.7493 96.7442 39.5821 96.494C39.4149 96.2438 39.1773 96.0488 38.8994 95.9337C38.6214 95.8185 38.3155 95.7884 38.0204 95.8471C37.7253 95.9058 37.4542 96.0507 37.2415 96.2635C37.0287 96.4762 36.8838 96.7473 36.8251 97.0424C36.7664 97.3375 36.7966 97.6434 36.9117 97.9213C37.0268 98.1993 37.2218 98.4369 37.472 98.6041C37.7222 98.7712 38.0163 98.8605 38.3172 98.8605C38.7207 98.8605 39.1076 98.7002 39.3929 98.4149C39.6782 98.1296 39.8385 97.7426 39.8385 97.3392V97.3392Z" stroke="white" stroke-width="0.341493" stroke-linecap="round" stroke-linejoin="round"/>
<path d="M56.6695 12.5532H19.962C17.7439 12.5532 15.9458 14.3513 15.9458 16.5694V95.8482C15.9458 98.0663 17.7439 99.8645 19.962 99.8645H56.6695C58.8876 99.8645 60.6857 98.0663 60.6857 95.8482V16.5694C60.6857 14.3513 58.8876 12.5532 56.6695 12.5532Z" stroke="#263238" stroke-width="0.341493" stroke-linecap="round" stroke-linejoin="round"/>
<path d="M58.6994 18.4835H17.937V94.6838H58.6994V18.4835Z" fill="#7AC99A"/>
<path d="M51.0513 56.0844L44.5899 50.2454L38.3167 50.3532L32.0434 50.2454L25.5821 56.0844L10.3027 66.147V95.8372H37.509H39.1243H66.3306V66.147L51.0513 56.0844Z" fill="white" stroke="#263238" stroke-width="0.344908" stroke-linecap="round" stroke-linejoin="round"/>
<path d="M37.7941 78.049L35.0088 81.9989C35.0088 81.9989 38.328 80.4942 41.5255 79.1914C44.7229 77.8886 48.7419 73.7784 49.6436 72.2764C50.5454 70.7745 51.8564 68.5672 51.8564 68.5672L47.8402 65.4721H52.1579C52.1579 65.4721 52.0556 60.7699 50.7528 56.9501" stroke="#263238" stroke-width="0.344908" stroke-linecap="round" stroke-linejoin="round"/>
<path d="M36.5213 79.775C36.0539 79.5786 35.5809 79.3823 35.1079 79.1914C31.9021 77.8886 27.8914 73.7784 26.9897 72.2764C26.088 70.7745 24.7769 68.5672 24.7769 68.5672L28.7959 65.4721H24.4976C24.4976 65.4721 24.5999 60.7699 25.9027 56.9501" stroke="#263238" stroke-width="0.344908" stroke-linecap="round" stroke-linejoin="round"/>
<path d="M31.4875 50.6879C31.4875 50.6879 30.2401 70.4951 37.794 78.049C37.794 78.049 45.7628 72.5779 45.7628 50.9257L31.4875 50.6879Z" fill="white"/>
<path d="M35.7058 28.1478H42.1312C43.9733 28.1478 45.7398 28.8796 47.0424 30.1821C48.3449 31.4846 49.0766 33.2512 49.0766 35.0932V49.5068C49.077 50.7313 48.8362 51.9438 48.3679 53.0752C47.8997 54.2066 47.2132 55.2347 46.3476 56.1008C45.482 56.9669 44.4543 57.654 43.3232 58.1229C42.1921 58.5918 40.9797 58.8334 39.7552 58.8337H38.0956C36.8712 58.8337 35.6587 58.5925 34.5274 58.124C33.3962 57.6554 32.3683 56.9686 31.5025 56.1027C30.6366 55.2369 29.9498 54.209 29.4812 53.0778C29.0127 51.9465 28.7715 50.734 28.7715 49.5096V35.0932C28.7715 33.2512 29.5032 31.4846 30.8057 30.1821C32.1083 28.8796 33.8749 28.1478 35.7169 28.1478H35.7058Z" fill="#7AC99A"/>
<path opacity="0.5" d="M35.7058 28.1478H42.1312C43.9733 28.1478 45.7398 28.8796 47.0424 30.1821C48.3449 31.4846 49.0766 33.2512 49.0766 35.0932V49.5068C49.077 50.7313 48.8362 51.9438 48.3679 53.0752C47.8997 54.2066 47.2132 55.2347 46.3476 56.1008C45.482 56.9669 44.4543 57.654 43.3232 58.1229C42.1921 58.5918 40.9797 58.8334 39.7552 58.8337H38.0956C36.8712 58.8337 35.6587 58.5925 34.5274 58.124C33.3962 57.6554 32.3683 56.9686 31.5025 56.1027C30.6366 55.2369 29.9498 54.209 29.4812 53.0778C29.0127 51.9465 28.7715 50.734 28.7715 49.5096V35.0932C28.7715 33.2512 29.5032 31.4846 30.8057 30.1821C32.1083 28.8796 33.8749 28.1478 35.7169 28.1478H35.7058Z" fill="white"/>
<path d="M31.4875 50.6879C31.4875 50.6879 30.2401 70.4951 37.794 78.049C37.794 78.049 45.7628 72.5779 45.7628 50.9257L31.4875 50.6879Z" stroke="#263238" stroke-width="0.344908" stroke-linecap="round" stroke-linejoin="round"/>
<path d="M34.6659 49.0007C34.6659 49.0007 33.9744 57.6445 38.1483 60.9415C38.1483 60.9415 42.5517 58.5545 42.5517 49.1058L34.6659 49.0007Z" stroke="#263238" stroke-width="0.344908" stroke-linecap="round" stroke-linejoin="round"/>
<path d="M33.2715 63.6548L38.1479 60.9414L43.6218 64.7253" stroke="#263238" stroke-width="0.344908" stroke-linecap="round" stroke-linejoin="round"/>
<path d="M39.4592 65.32L40.4107 62.5844L38.1481 60.9414L35.1747 62.5844L36.7209 65.0738L34.2812 72.4009C35.1608 74.5916 36.306 76.5499 37.7941 78.0408C37.7941 78.0408 39.9128 76.5858 41.9652 72.2073L39.4592 65.32Z" fill="#7AC99A" stroke="#263238" stroke-width="0.344908" stroke-linecap="round" stroke-linejoin="round"/>
<path d="M49.206 80.2544C51.3726 79.9011 52.8426 77.8584 52.4894 75.6918C52.1361 73.5253 50.0934 72.0553 47.9268 72.4085C45.7603 72.7617 44.2903 74.8045 44.6435 76.971C44.9967 79.1376 47.0394 80.6076 49.206 80.2544Z" fill="white" stroke="#263238" stroke-width="0.344908" stroke-linecap="round" stroke-linejoin="round"/>
<path d="M51.2048 77.416C51.8048 75.9565 51.1081 74.287 49.6487 73.6869C48.1892 73.0868 46.5196 73.7835 45.9195 75.243C45.3195 76.7025 46.0162 78.3721 47.4756 78.9721C48.9351 79.5722 50.6047 78.8755 51.2048 77.416Z" fill="white" stroke="#263238" stroke-width="0.344908" stroke-linecap="round" stroke-linejoin="round"/>
<path d="M48.5621 76.9399C48.4007 76.9399 48.246 76.8758 48.1318 76.7617C48.0177 76.6476 47.9536 76.4928 47.9536 76.3314V52.9781C47.9536 52.8168 48.0177 52.662 48.1318 52.5479C48.246 52.4337 48.4007 52.3696 48.5621 52.3696C48.7235 52.3696 48.8783 52.4337 48.9924 52.5479C49.1065 52.662 49.1706 52.8168 49.1706 52.9781V76.3314C49.171 76.4114 49.1555 76.4907 49.1251 76.5647C49.0946 76.6387 49.0498 76.7059 48.9932 76.7625C48.9367 76.8191 48.8694 76.8639 48.7954 76.8943C48.7214 76.9248 48.6421 76.9403 48.5621 76.9399Z" fill="#263238"/>
<path d="M29.3574 85.4094H29.2993C28.7461 85.3154 23.4382 80.154 22.9375 78.771C22.4369 77.388 22.5779 75.1753 22.5835 75.0923C22.5886 75.0116 22.6256 74.9362 22.6863 74.8828C22.747 74.8294 22.8264 74.8022 22.9071 74.8074C22.9878 74.8125 23.0631 74.8495 23.1166 74.9102C23.17 74.9709 23.1971 75.0503 23.192 75.131C23.192 75.1504 23.0675 77.3023 23.5101 78.5719C23.9167 79.7308 28.641 84.3583 29.3878 84.8092C29.8027 84.6792 31.324 83.3156 31.8772 81.9187C31.8919 81.8815 31.9138 81.8475 31.9416 81.8188C31.9695 81.79 32.0027 81.767 32.0394 81.7511C32.0762 81.7352 32.1157 81.7266 32.1557 81.726C32.1957 81.7253 32.2355 81.7325 32.2727 81.7472C32.31 81.762 32.3439 81.7839 32.3727 81.8117C32.4015 81.8395 32.4245 81.8728 32.4404 81.9095C32.4563 81.9462 32.4649 81.9857 32.4655 82.0258C32.4662 82.0658 32.4589 82.1055 32.4442 82.1428C31.8689 83.6226 30.0572 85.4094 29.3574 85.4094Z" fill="white" stroke="#263238" stroke-width="0.344908" stroke-linecap="round" stroke-linejoin="round"/>
<path d="M24.6417 85.4094C23.9391 85.4094 22.1302 83.6226 21.5438 82.1262C21.5141 82.051 21.5155 81.9671 21.5476 81.8929C21.5798 81.8187 21.6401 81.7604 21.7153 81.7306C21.7905 81.7009 21.8744 81.7023 21.9486 81.7345C22.0227 81.7666 22.0811 81.8269 22.1108 81.9021C22.664 83.299 24.1825 84.6681 24.6002 84.7926C25.347 84.3417 30.0713 79.7142 30.4779 78.5553C30.9205 77.2857 30.7988 75.1338 30.796 75.1144C30.7909 75.0337 30.818 74.9543 30.8714 74.8936C30.9249 74.8329 31.0002 74.7959 31.0809 74.7908C31.1616 74.7856 31.241 74.8128 31.3017 74.8662C31.3624 74.9196 31.3994 74.995 31.4045 75.0757C31.4045 75.1697 31.5373 77.3714 31.0505 78.7544C30.5637 80.1374 25.2668 85.3098 24.6887 85.3928L24.6417 85.4094Z" fill="white" stroke="#263238" stroke-width="0.344908" stroke-linecap="round" stroke-linejoin="round"/>
<path d="M27.0729 64.7667C26.9117 64.766 26.7574 64.7017 26.6434 64.5877C26.5294 64.4737 26.4651 64.3194 26.4644 64.1582V53.9711C26.4644 53.8097 26.5285 53.6549 26.6426 53.5408C26.7567 53.4267 26.9115 53.3625 27.0729 53.3625C27.2343 53.3625 27.389 53.4267 27.5032 53.5408C27.6173 53.6549 27.6814 53.8097 27.6814 53.9711V64.1582C27.6814 64.2381 27.6656 64.3172 27.6351 64.3911C27.6045 64.4649 27.5597 64.532 27.5032 64.5885C27.4467 64.645 27.3796 64.6898 27.3057 64.7204C27.2319 64.751 27.1528 64.7667 27.0729 64.7667Z" fill="#263238"/>
<path d="M31.0476 76.3204C30.8865 76.3197 30.7321 76.2553 30.6182 76.1414C30.5042 76.0274 30.4398 75.8731 30.4391 75.7119V68.382C30.4391 67.4562 30.0714 66.5684 29.4167 65.9137C28.7621 65.2591 27.8742 64.8914 26.9484 64.8914C26.0227 64.8914 25.1348 65.2591 24.4802 65.9137C23.8255 66.5684 23.4578 67.4562 23.4578 68.382V75.7064C23.4578 75.8678 23.3936 76.0225 23.2795 76.1367C23.1654 76.2508 23.0106 76.3149 22.8492 76.3149C22.6879 76.3149 22.5331 76.2508 22.419 76.1367C22.3048 76.0225 22.2407 75.8678 22.2407 75.7064V68.3765C22.2407 67.1294 22.7361 65.9334 23.618 65.0516C24.4998 64.1697 25.6958 63.6743 26.9429 63.6743C28.19 63.6743 29.386 64.1697 30.2678 65.0516C31.1497 65.9334 31.6451 67.1294 31.6451 68.3765V75.7064C31.6459 75.8666 31.5837 76.0207 31.4719 76.1356C31.3602 76.2504 31.2078 76.3168 31.0476 76.3204V76.3204Z" fill="#263238"/>
<path d="M20.9817 80.9931L20.879 81.0728C20.5702 81.3127 20.5143 81.7576 20.7542 82.0664L21.2039 82.6453C21.4438 82.9541 21.8886 83.01 22.1975 82.7701L22.3001 82.6903C22.609 82.4504 22.6648 82.0056 22.4249 81.6967L21.9753 81.1179C21.7354 80.809 21.2905 80.7532 20.9817 80.9931Z" fill="white" stroke="#263238" stroke-width="0.344908" stroke-linecap="round" stroke-linejoin="round"/>
<path d="M31.5925 82.6868L31.6952 82.7665C32.004 83.0064 32.4489 82.9506 32.6888 82.6417L33.1384 82.0629C33.3783 81.754 33.3225 81.3092 33.0136 81.0693L32.911 80.9895C32.6021 80.7496 32.1573 80.8055 31.9174 81.1143L31.4677 81.6932C31.2278 82.002 31.2837 82.4469 31.5925 82.6868Z" fill="white" stroke="#263238" stroke-width="0.344908" stroke-linecap="round" stroke-linejoin="round"/>
<path d="M28.2348 37.8868H27.9775C27.1801 37.8868 26.5337 38.5333 26.5337 39.3307V41.9224C26.5337 42.7198 27.1801 43.3663 27.9775 43.3663H28.2348C29.0322 43.3663 29.6786 42.7198 29.6786 41.9224V39.3307C29.6786 38.5333 29.0322 37.8868 28.2348 37.8868Z" fill="white" stroke="#263238" stroke-width="0.344908" stroke-linecap="round" stroke-linejoin="round"/>
<path d="M49.4882 37.8868H49.231C48.4335 37.8868 47.7871 38.5333 47.7871 39.3307V41.9224C47.7871 42.7198 48.4335 43.3663 49.231 43.3663H49.4882C50.2856 43.3663 50.932 42.7198 50.932 41.9224V39.3307C50.932 38.5333 50.2856 37.8868 49.4882 37.8868Z" fill="white" stroke="#263238" stroke-width="0.344908" stroke-linecap="round" stroke-linejoin="round"/>
<path d="M35.7057 24.1593H42.131C43.9731 24.1593 45.7397 24.891 47.0422 26.1936C48.3447 27.4961 49.0764 29.2627 49.0764 31.1047V45.5183C49.0764 47.9912 48.0941 50.3628 46.3455 52.1114C44.5969 53.8601 42.2252 54.8424 39.7523 54.8424H38.0927C36.8682 54.8424 35.6558 54.6012 34.5245 54.1327C33.3932 53.6641 32.3654 52.9773 31.4995 52.1114C30.6337 51.2456 29.9469 50.2177 29.4783 49.0865C29.0097 47.9552 28.7686 46.7427 28.7686 45.5183V31.1047C28.7686 29.2641 29.4992 27.4988 30.7999 26.1965C32.1006 24.8942 33.8651 24.1615 35.7057 24.1593V24.1593Z" fill="white" stroke="#263238" stroke-width="0.344908" stroke-linecap="round" stroke-linejoin="round"/>
<path d="M42.5515 24.1593H35.2852C33.5547 24.1593 31.895 24.8468 30.6714 26.0704C29.4477 27.2941 28.7603 28.9538 28.7603 30.6843V46.0162C28.7603 48.357 29.6902 50.602 31.3454 52.2573C33.0007 53.9125 35.2457 54.8424 37.5865 54.8424H40.264C41.4232 54.8428 42.5711 54.6148 43.6421 54.1713C44.7131 53.7279 45.6863 53.0778 46.5059 52.2581C47.3256 51.4384 47.9757 50.4653 48.4192 49.3943C48.8626 48.3233 49.0906 47.1754 49.0903 46.0162V30.6843C49.0903 29.8262 48.921 28.9766 48.5923 28.1841C48.2635 27.3915 47.7816 26.6716 47.1743 26.0655C46.5669 25.4595 45.846 24.9791 45.0527 24.652C44.2595 24.3249 43.4095 24.1575 42.5515 24.1593V24.1593ZM47.5303 43.8559C47.5303 43.8559 47.5303 45.7202 45.666 47.5873C45.666 47.5873 43.6966 44.9955 42.8668 44.7881C42.3302 44.6553 40.3332 44.694 38.9778 44.7383C37.6253 44.694 35.6254 44.6553 35.1054 44.7881C34.2756 44.9955 32.3063 47.5873 32.3063 47.5873C30.442 45.7202 30.442 43.8559 30.442 43.8559V35.356L31.4128 34.0782C31.7842 33.6031 31.997 33.0235 32.0213 32.421C32.0456 31.8186 31.8802 31.2237 31.5484 30.7202C31.1996 30.1856 31.0478 29.5462 31.119 28.9118C31.1901 28.2774 31.4798 27.6875 31.9384 27.2434L31.9577 27.2268C32.4018 26.7972 32.9777 26.5297 33.5924 26.4675C34.2071 26.4053 34.8249 26.5519 35.3461 26.8838L36.7955 28.0206C37.4275 28.5141 38.2064 28.7821 39.0082 28.7821C39.8101 28.7821 40.589 28.5141 41.221 28.0206L42.6649 26.8838C43.1889 26.5499 43.81 26.4022 44.4282 26.4644C45.0464 26.5267 45.6256 26.7952 46.0726 27.2268L46.0892 27.2434C46.5483 27.6961 46.8358 28.2943 46.9024 28.9357C46.969 29.577 46.8106 30.2216 46.4543 30.759C46.134 31.2609 45.9776 31.8499 46.0069 32.4446C46.0361 33.0392 46.2495 33.6101 46.6175 34.0782L47.6215 35.356L47.5303 43.8559Z" fill="#263238" stroke="#263238" stroke-width="0.344908" stroke-linecap="round" stroke-linejoin="round"/>
<path d="M26.4643 92.9218C28.4471 92.9218 30.0545 91.3144 30.0545 89.3316C30.0545 87.3487 28.4471 85.7413 26.4643 85.7413C24.4814 85.7413 22.874 87.3487 22.874 89.3316C22.874 91.3144 24.4814 92.9218 26.4643 92.9218Z" stroke="#263238" stroke-width="0.247298" stroke-linecap="round" stroke-linejoin="round"/>
<path d="M26.4591 90.2194C26.2669 90.2194 26.0825 90.143 25.9466 90.0071C25.8107 89.8712 25.7344 89.6869 25.7344 89.4947V87.1989C25.7344 87.0067 25.8107 86.8224 25.9466 86.6865C26.0825 86.5506 26.2669 86.4742 26.4591 86.4742V86.4742C26.6513 86.4742 26.8356 86.5506 26.9715 86.6865C27.1074 86.8224 27.1838 87.0067 27.1838 87.1989V89.4947C27.1838 89.6869 27.1074 89.8712 26.9715 90.0071C26.8356 90.143 26.6513 90.2194 26.4591 90.2194Z" fill="#263238"/>
<path d="M26.4647 90.7422C26.1253 90.7415 25.8 90.6063 25.56 90.3663C25.32 90.1263 25.1848 89.801 25.1841 89.4615V88.3828C25.1841 88.3476 25.1981 88.3138 25.223 88.2889C25.2479 88.264 25.2816 88.25 25.3169 88.25C25.3344 88.2497 25.3518 88.2528 25.3681 88.2594C25.3844 88.2659 25.3992 88.2757 25.4116 88.2881C25.424 88.3005 25.4337 88.3153 25.4403 88.3315C25.4468 88.3478 25.45 88.3653 25.4496 88.3828V89.4615C25.4632 89.722 25.5762 89.9672 25.7654 90.1468C25.9545 90.3263 26.2053 90.4264 26.4661 90.4264C26.7269 90.4264 26.9777 90.3263 27.1669 90.1468C27.356 89.9672 27.469 89.722 27.4826 89.4615V88.3828C27.4822 88.3653 27.4854 88.3478 27.492 88.3315C27.4985 88.3153 27.5083 88.3005 27.5207 88.2881C27.5331 88.2757 27.5479 88.2659 27.5641 88.2594C27.5804 88.2528 27.5979 88.2497 27.6154 88.25C27.6506 88.25 27.6844 88.264 27.7093 88.2889C27.7342 88.3138 27.7482 88.3476 27.7482 88.3828V89.4615C27.7474 89.8014 27.6119 90.1272 27.3713 90.3673C27.1307 90.6073 26.8046 90.7422 26.4647 90.7422V90.7422Z" fill="#263238"/>
<path d="M26.4645 92.1196C26.4472 92.1196 26.4301 92.1162 26.4141 92.1095C26.3982 92.1028 26.3837 92.093 26.3716 92.0806C26.3595 92.0682 26.35 92.0536 26.3436 92.0375C26.3372 92.0214 26.3341 92.0042 26.3345 91.9869V90.6039C26.3345 90.5672 26.3491 90.532 26.375 90.5061C26.4009 90.4801 26.4361 90.4656 26.4728 90.4656C26.5095 90.4656 26.5447 90.4801 26.5706 90.5061C26.5965 90.532 26.6111 90.5672 26.6111 90.6039V91.9869C26.6117 92.0057 26.6081 92.0244 26.6008 92.0417C26.5934 92.059 26.5824 92.0744 26.5684 92.0871C26.5545 92.0997 26.538 92.1091 26.52 92.1148C26.5021 92.1204 26.4832 92.122 26.4645 92.1196V92.1196Z" fill="#263238"/>
<path d="M27.3495 92.1917H25.582C25.547 92.191 25.5136 92.1768 25.4889 92.152C25.4641 92.1273 25.4499 92.0939 25.4492 92.0589C25.4492 92.0237 25.4632 91.9899 25.4881 91.965C25.513 91.9401 25.5468 91.9261 25.582 91.9261H27.3495C27.3847 91.9261 27.4184 91.9401 27.4433 91.965C27.4682 91.9899 27.4822 92.0237 27.4822 92.0589C27.4815 92.0939 27.4673 92.1273 27.4425 92.152C27.4178 92.1768 27.3844 92.191 27.3495 92.1917Z" fill="#263238"/>
<path d="M50.2377 92.9218C52.2206 92.9218 53.828 91.3144 53.828 89.3316C53.828 87.3487 52.2206 85.7413 50.2377 85.7413C48.2549 85.7413 46.6475 87.3487 46.6475 89.3316C46.6475 91.3144 48.2549 92.9218 50.2377 92.9218Z" stroke="#263238" stroke-width="0.247298" stroke-linecap="round" stroke-linejoin="round"/>
<path d="M52.4536 88.2805L51.4053 88.8863V88.3884C51.4046 88.2752 51.3591 88.1668 51.2788 88.087C51.1985 88.0072 51.0898 87.9624 50.9766 87.9624H48.6089C48.5527 87.962 48.4971 87.9728 48.4451 87.994C48.3931 88.0153 48.3458 88.0466 48.3059 88.0862C48.2661 88.1258 48.2345 88.1729 48.2129 88.2247C48.1913 88.2766 48.1802 88.3322 48.1802 88.3884V90.2969C48.1798 90.3533 48.1907 90.4092 48.2121 90.4614C48.2335 90.5136 48.2651 90.561 48.3049 90.6009C48.3448 90.6408 48.3922 90.6723 48.4444 90.6938C48.4966 90.7152 48.5525 90.726 48.6089 90.7256H50.9766C51.0329 90.7256 51.0887 90.7145 51.1407 90.693C51.1927 90.6715 51.2399 90.6399 51.2798 90.6001C51.3196 90.5603 51.3512 90.513 51.3727 90.461C51.3942 90.409 51.4053 90.3532 51.4053 90.2969V89.8129L52.4536 90.4186V88.2805Z" fill="#263238"/>
<path d="M38.3529 92.9218C40.3358 92.9218 41.9432 91.3144 41.9432 89.3316C41.9432 87.3487 40.3358 85.7413 38.3529 85.7413C36.3701 85.7413 34.7627 87.3487 34.7627 89.3316C34.7627 91.3144 36.3701 92.9218 38.3529 92.9218Z" fill="#263238" stroke="#263238" stroke-width="0.247298" stroke-linecap="round" stroke-linejoin="round"/>
<path d="M40.1699 88.5737H36.5354C36.4348 88.5737 36.3353 88.5958 36.2442 88.6385C36.153 88.6811 36.0724 88.7434 36.008 88.8207C35.9436 88.8981 35.897 88.9886 35.8715 89.086C35.846 89.1834 35.8422 89.2852 35.8605 89.3842L35.9656 89.9539C35.9732 89.9925 35.9939 90.0273 36.0241 90.0525C36.0543 90.0777 36.0922 90.0917 36.1316 90.0922H37.238C37.2835 90.0922 37.3271 90.0742 37.3592 90.042C37.3914 90.0098 37.4095 89.9662 37.4095 89.9208V89.3039H39.318V89.9208C39.318 89.9662 39.3361 90.0098 39.3682 90.042C39.4004 90.0742 39.444 90.0922 39.4895 90.0922H40.5959C40.6357 90.0924 40.6743 90.0786 40.7051 90.0534C40.7359 90.0281 40.7569 89.993 40.7646 89.9539L40.8697 89.3842C40.8884 89.2831 40.8842 89.1791 40.8573 89.0798C40.8304 88.9806 40.7816 88.8887 40.7144 88.8109C40.6472 88.7331 40.5634 88.6714 40.4692 88.6303C40.3749 88.5893 40.2727 88.5699 40.1699 88.5737Z" fill="#7AC99A"/>
<path d="M57.0949 19.2745H53.7148V21.1277H57.0949V19.2745Z" stroke="#263238" stroke-width="0.280389" stroke-linecap="round" stroke-linejoin="round"/>
<path d="M56.3508 19.2745H53.7148V21.1277H56.3508V19.2745Z" fill="#263238" stroke="#263238" stroke-width="0.247607" stroke-linecap="round" stroke-linejoin="round"/>
<path d="M57.5622 19.7919H57.0864V20.6078H57.5622V19.7919Z" fill="#263238" stroke="#263238" stroke-width="0.247607" stroke-linecap="round" stroke-linejoin="round"/>
<path d="M19.2563 19.8472H18.6367V20.9093H19.2563V19.8472Z" fill="#263238" stroke="#263238" stroke-width="0.301568" stroke-linecap="round" stroke-linejoin="round"/>
<path d="M20.2299 19.4764H19.6104V20.912H20.2299V19.4764Z" fill="#263238" stroke="#263238" stroke-width="0.301568" stroke-linecap="round" stroke-linejoin="round"/>
<path d="M21.2036 19.0339H20.584V20.9093H21.2036V19.0339Z" fill="#263238" stroke="#263238" stroke-width="0.301568" stroke-linecap="round" stroke-linejoin="round"/>
<path d="M58.6994 18.4835H17.937V94.6838H58.6994V18.4835Z" stroke="#263238" stroke-width="0.341493" stroke-linecap="round" stroke-linejoin="round"/>
<path d="M8.54395 99.8645H112.022" stroke="#263238" stroke-width="0.344908" stroke-linecap="round" stroke-linejoin="round"/>
<path d="M2.87354 99.8645H5.6091" stroke="#263238" stroke-width="0.344908" stroke-linecap="round" stroke-linejoin="round"/>
</svg>
