<svg width="24" height="24" viewBox="0 0 24 24" fill="none" xmlns="http://www.w3.org/2000/svg">
<mask id="mask0_124_3790" style="mask-type:alpha" maskUnits="userSpaceOnUse" x="0" y="0" width="24" height="24">
<rect y="24" width="24" height="24" transform="rotate(-90 0 24)" fill="#D9D9D9"/>
</mask>
<g mask="url(#mask0_124_3790)">
<path d="M20 20.2C20 20.5833 19.8293 20.875 19.488 21.075C19.146 21.275 18.8083 21.2667 18.475 21.05L5.35 12.85C5.03333 12.65 4.875 12.3667 4.875 12C4.875 11.6333 5.03333 11.35 5.35 11.15L18.475 2.95C18.8083 2.73333 19.146 2.72499 19.488 2.92499C19.8293 3.12499 20 3.41666 20 3.79999V20.2ZM18 18.4V5.59999L7.75 12L18 18.4Z" fill="#1C1B1F"/>
</g>
</svg>
