<svg width="81" height="81" viewBox="0 0 81 81" fill="none" xmlns="http://www.w3.org/2000/svg">
<circle cx="40.4278" cy="40.1425" r="40.1426" fill="#EBF3FA"/>
<mask id="mask0_145_4012" style="mask-type:alpha" maskUnits="userSpaceOnUse" x="0" y="0" width="81" height="81">
<circle cx="40.4278" cy="40.1427" r="40.1426" fill="#D9D9D9"/>
</mask>
<g mask="url(#mask0_145_4012)">
<path d="M98.6477 83.8544C91.0982 83.8544 -18.8798 83.883 -18.9434 83.6741L-18.9542 83.6475C-18.9542 83.6475 -18.9649 83.622 -18.9649 83.6087C-19.007 83.5045 -35.91 54.1262 -9.63211 33.6747C0.649714 25.6722 -10.2755 20.3901 -2.09944 11.4817C3.29914 5.59978 8.98101 6.83562 14.8202 8.07198C19.1444 8.98698 23.5544 9.90199 27.9997 7.92739C29.846 7.10793 31.6985 5.7888 33.5531 3.76465C34.5968 2.6269 35.7407 1.63169 36.9653 0.771858C37.1533 0.640053 37.3428 0.510788 37.5344 0.385109C38.2681 -0.0951233 39.0283 -0.529892 39.8115 -0.920212C40.3377 -1.1823 40.8736 -1.42496 41.4192 -1.64721H41.4198C42.2862 -2.00125 43.1762 -2.30625 44.0851 -2.56425C45.3756 -2.93056 46.7044 -3.20338 48.0598 -3.38782C48.6509 -3.46905 49.2471 -3.53239 49.8474 -3.58042C61.5218 -4.50717 74.6603 0.707481 81.4409 8.32946C82.806 9.86417 89.0133 17.806 84.12 28.7217C81.0306 35.6131 93.973 42.1954 98.5721 50.0651C110.264 70.0742 98.7539 83.5939 98.6477 83.8544Z" fill="#EBF3FA"/>
<path d="M49.1304 15.2352C49.1279 15.2352 49.1248 15.2352 49.1223 15.2352L47.7863 15.2193C47.6284 15.2163 47.4986 15.0942 47.4828 14.9383L47.4057 14.1173C47.3929 13.9789 47.2851 13.8634 47.1472 13.842C46.5765 13.7541 46.0247 13.5773 45.5138 13.3178C45.4684 13.2948 45.4193 13.2836 45.3718 13.2836C45.2921 13.2836 45.2145 13.3147 45.1577 13.3745L44.2054 14.3391C44.1472 14.3973 44.0706 14.4269 43.9934 14.4269C43.928 14.4269 43.8632 14.406 43.8085 14.3626L42.754 13.5257C42.6288 13.4271 42.6007 13.2498 42.6886 13.1196L43.5009 11.8919C43.5719 11.7867 43.5699 11.6497 43.4979 11.5445C43.3436 11.3202 43.2067 11.0791 43.0856 10.8236C43.0202 10.6862 42.9609 10.5472 42.9083 10.4073C42.8664 10.2979 42.7668 10.2208 42.6503 10.208L41.2489 10.069C41.086 10.0527 40.9638 9.9168 40.9644 9.75331L40.9822 8.45514L40.9833 8.42397C40.9863 8.2661 41.1064 8.13583 41.2627 8.12102L42.3422 8.01884C42.3601 8.0168 42.3775 8.01373 42.3938 8.00964C42.5093 7.97694 42.5992 7.87937 42.615 7.75828C42.7167 7.04457 42.9584 6.35997 43.3282 5.74179C43.3431 5.71625 43.3538 5.68866 43.3615 5.66159C43.388 5.55686 43.3574 5.44241 43.2792 5.36373L42.6345 4.72921C42.5502 4.64492 42.5231 4.51975 42.5583 4.41144C42.5701 4.37823 42.5864 4.34502 42.6099 4.31539L43.433 3.27624C43.4948 3.19858 43.5873 3.15669 43.6808 3.15669C43.7416 3.15669 43.8024 3.17406 43.856 3.20982L44.8594 3.87501C44.9105 3.90873 44.9692 3.92558 45.028 3.92558C45.0826 3.92558 45.1378 3.91077 45.1869 3.88113C45.3345 3.79377 45.4847 3.71254 45.6416 3.63795C45.9358 3.49797 46.2357 3.38813 46.5387 3.30536L46.5397 3.30484C46.6664 3.2701 46.7573 3.16435 46.7701 3.03407L46.8917 1.81765L46.8984 1.75634C46.9127 1.60154 47.0445 1.48097 47.2018 1.48097C47.2034 1.48097 47.2049 1.48097 47.2064 1.48097L48.5337 1.49885C48.6952 1.50191 48.83 1.62504 48.8454 1.78648L48.9598 2.98758C48.9726 3.12144 49.0691 3.23179 49.1984 3.2604C49.7435 3.39119 50.2667 3.60372 50.7469 3.89492C50.7959 3.92404 50.8511 3.93835 50.9053 3.93835C50.986 3.93835 51.0662 3.90668 51.1265 3.84537L51.8806 3.08261C51.9424 3.02028 52.0236 2.98861 52.1053 2.98861C52.1748 2.98861 52.2443 3.0116 52.302 3.05758L53.3463 3.88369C53.4694 3.98178 53.4965 4.15753 53.4102 4.28729L52.63 5.46745C52.5631 5.56707 52.56 5.69632 52.6198 5.80055C52.6944 5.92878 52.7639 6.0606 52.8283 6.19701C52.9504 6.45347 53.05 6.71403 53.1287 6.97611C53.1634 7.09566 53.2661 7.18302 53.3902 7.19375L54.8524 7.33833C55.0133 7.3557 55.1339 7.49058 55.1319 7.65151L55.1145 8.9834C55.1119 9.1244 55.0128 9.24599 54.879 9.2792C54.8652 9.28227 54.8499 9.28585 54.8345 9.28636L53.5021 9.41408C53.378 9.42532 53.2727 9.50757 53.2349 9.62559C53.2314 9.63581 53.2278 9.64602 53.2262 9.65726C53.2191 9.68945 53.213 9.71959 53.2033 9.75178C53.1154 10.1268 52.9866 10.4926 52.8206 10.8415C52.7634 10.9575 52.7894 11.098 52.8839 11.1894L53.6891 11.9859C53.8036 12.0983 53.8138 12.2807 53.7136 12.4064L53.5307 12.6378L52.8906 13.4435C52.8303 13.5211 52.7399 13.5615 52.6474 13.5615C52.5881 13.5615 52.5279 13.5451 52.4747 13.5104L51.4867 12.8549C51.4366 12.8212 51.3794 12.8049 51.3222 12.8049C51.2593 12.8049 51.196 12.8248 51.1418 12.8636C50.8741 13.0588 50.5814 13.234 50.2687 13.3822C50.0368 13.4925 49.7987 13.585 49.5601 13.6591L49.5346 13.9145L49.4298 14.9613C49.4181 15.0911 49.3235 15.1969 49.2014 15.2265C49.1785 15.2326 49.155 15.2352 49.1304 15.2352ZM47.9544 5.60028C47.4327 5.60028 46.9009 5.74128 46.414 6.04271C46.109 6.23174 45.8234 6.48259 45.5685 6.80138C45.5133 6.86831 45.4602 6.94955 45.4081 7.03742C45.1894 7.41854 45.028 7.94272 45.0244 8.32537C45.0096 10.2274 46.4401 11.4203 47.9579 11.4203C48.7769 11.4203 49.6214 11.0729 50.2779 10.302C50.308 10.2652 50.3382 10.2289 50.3678 10.1911C50.6468 9.83914 50.8792 9.17907 50.8879 8.73102C50.892 8.49601 50.8736 8.27173 50.8373 8.0592C50.5686 6.53062 49.2955 5.60028 47.9544 5.60028Z" fill="#AFC6F5"/>
<path d="M63.648 6.21025C63.6521 6.35075 63.6429 6.49738 63.6189 6.64911C63.5718 6.93776 63.3609 7.3434 63.1488 7.5452C63.1258 7.56666 63.1029 7.58761 63.0799 7.60856C61.6683 8.8582 59.5818 7.73934 59.8658 5.84854C59.9031 5.60127 60.0554 5.27736 60.2322 5.05104C60.2735 4.99893 60.3154 4.95142 60.3573 4.9131C60.5515 4.73071 60.7594 4.5943 60.974 4.5003C62.1965 3.96437 63.6015 4.80326 63.648 6.21025ZM57.2649 6.62867L58.1579 6.84733C58.2325 6.86623 58.2898 6.92499 58.3066 6.99958C58.3281 7.09512 58.3531 7.19014 58.3827 7.28517C58.4379 7.46143 58.5038 7.63002 58.583 7.78891C58.6198 7.86401 58.6085 7.95239 58.5534 8.0137L57.9158 8.73303C57.8468 8.80915 57.8488 8.92614 57.9204 9.00176L58.5253 9.63935C58.5937 9.71138 58.7046 9.72007 58.7838 9.6603L59.4883 9.12437C59.5557 9.07073 59.6508 9.0697 59.7233 9.12079C60.0298 9.33537 60.3706 9.49988 60.7313 9.60921C60.8187 9.63577 60.8774 9.72058 60.8733 9.81101L60.8473 10.349C60.8437 10.4512 60.9162 10.5421 61.0179 10.5584L61.8803 10.6913C61.8977 10.6943 61.915 10.6948 61.9324 10.6928C62.0136 10.6851 62.0846 10.6254 62.1041 10.5426L62.2681 9.87538L62.3079 9.71292C62.4688 9.68686 62.6313 9.64855 62.7912 9.59899C63.0068 9.53155 63.2122 9.44572 63.4038 9.34405C63.4768 9.30523 63.5657 9.31442 63.627 9.3696L64.2059 9.88407C64.2856 9.95406 64.4046 9.95252 64.4807 9.87947L64.9686 9.41711L65.1076 9.28428C65.1842 9.21224 65.1944 9.09372 65.1306 9.01044L64.683 8.42138C64.6304 8.35394 64.6268 8.26045 64.6743 8.19097C64.8138 7.98048 64.9308 7.7557 65.0218 7.5212C65.0315 7.50127 65.0381 7.48237 65.0453 7.46244C65.0473 7.45529 65.0509 7.44916 65.0539 7.44303C65.0892 7.36997 65.1648 7.32654 65.246 7.33063L66.1192 7.37048C66.1289 7.37151 66.1391 7.37049 66.1483 7.36947C66.2382 7.36078 66.3133 7.29129 66.3281 7.20035L66.4614 6.34104C66.4773 6.23682 66.4119 6.13873 66.3092 6.11268L65.3779 5.88533C65.2982 5.86694 65.2399 5.80103 65.2287 5.72031C65.2016 5.54354 65.1612 5.36626 65.1061 5.18898C65.0764 5.09498 65.0437 5.00353 65.0075 4.91361C64.9783 4.84106 64.9926 4.75778 65.0447 4.69954L65.6573 4.00781C65.7253 3.93219 65.7237 3.8157 65.6532 3.74111L65.0539 3.11119C64.9819 3.03507 64.8639 3.02434 64.7791 3.08871L64.2217 3.51275C64.1471 3.56946 64.0444 3.56793 63.9719 3.50969C63.6878 3.27774 63.3695 3.09228 63.0293 2.95741C62.948 2.92726 62.8959 2.84655 62.9 2.75919L62.9363 1.97191C62.9414 1.86666 62.8653 1.7747 62.7611 1.75784L61.9048 1.62398C61.8021 1.60763 61.704 1.67405 61.6805 1.77419L61.6703 1.81301L61.4803 2.58804C61.4598 2.6708 61.3914 2.73109 61.3066 2.74181L61.3055 2.74232C61.1022 2.76787 60.8984 2.8113 60.695 2.87465C60.5867 2.90837 60.4825 2.94719 60.3788 2.99011C60.3078 3.02076 60.2255 3.00748 60.1678 2.95639L59.5803 2.43426C59.5 2.36223 59.378 2.36478 59.3008 2.43834L58.6729 3.03404C58.6555 3.05141 58.6418 3.07134 58.631 3.09177C58.5983 3.1587 58.6045 3.24198 58.6509 3.30379L59.0096 3.7733C59.053 3.83155 59.0622 3.90818 59.0351 3.97357C59.028 3.99043 59.0183 4.00729 59.0065 4.02261C58.7107 4.3879 58.4916 4.80837 58.3603 5.26051C58.3388 5.33714 58.2719 5.39181 58.1942 5.40254C58.183 5.40356 58.1717 5.40407 58.16 5.40355L57.4529 5.37086C57.3502 5.36575 57.2608 5.43932 57.244 5.54099L57.2409 5.56091L57.1101 6.39825C57.0948 6.50401 57.1612 6.60313 57.2649 6.62867Z" fill="#DFEBFD"/>
<path d="M65.5753 22.4157C65.6269 22.7524 65.6499 23.107 65.6371 23.4779C65.6121 24.1855 65.2274 25.2215 64.7778 25.7697C64.7303 25.8285 64.6812 25.8857 64.6327 25.9424C61.6189 29.3649 56.2765 27.307 56.39 22.6834C56.4058 22.0791 56.674 21.256 57.0296 20.6598C57.1139 20.5229 57.2002 20.3957 57.2886 20.2914C57.7004 19.7949 58.1577 19.4056 58.644 19.1154C61.4171 17.4627 65.0414 19.0541 65.5753 22.4157ZM50.3824 25.3375L52.592 25.594C52.7759 25.617 52.9307 25.7411 52.9941 25.9148C53.0738 26.1376 53.1632 26.3578 53.2628 26.5764C53.4472 26.9831 53.6572 27.3678 53.8948 27.7264C54.0056 27.8945 54.0051 28.1106 53.8907 28.2746L52.5762 30.192C52.4341 30.3953 52.4735 30.6758 52.6686 30.8352L54.3111 32.184C54.4976 32.3362 54.7664 32.3234 54.9385 32.1569L56.4676 30.6595C56.6132 30.5103 56.8416 30.4786 57.0311 30.5793C57.8312 31.0018 58.6982 31.2955 59.5968 31.4493C59.814 31.4866 59.981 31.672 59.9979 31.8912L60.0975 33.1894C60.119 33.4356 60.3202 33.6318 60.5696 33.6415L62.6785 33.7008C62.7219 33.7023 62.7633 33.6998 62.8042 33.689C62.9978 33.6461 63.1496 33.4816 63.171 33.2768L63.3647 31.6266L63.4111 31.2245C63.7897 31.1136 64.1688 30.9731 64.5377 30.8056C65.0347 30.5798 65.5017 30.311 65.9298 30.0096C66.0938 29.8952 66.3099 29.8901 66.4744 30.005L68.0173 31.0656C68.2293 31.2092 68.5154 31.1698 68.6759 30.9716L69.7074 29.7158L70.0021 29.3557C70.1636 29.1595 70.1523 28.8713 69.9745 28.691L68.7239 27.4117C68.5773 27.2651 68.54 27.0424 68.6335 26.8615C68.9047 26.3143 69.1178 25.7401 69.2659 25.15C69.2828 25.0994 69.293 25.0524 69.3048 25.0019C69.3078 24.9845 69.314 24.9681 69.3196 24.9523C69.3819 24.7669 69.5505 24.6391 69.7467 24.6248L71.8546 24.4583C71.8786 24.4583 71.9027 24.4527 71.9246 24.4481C72.1366 24.399 72.296 24.21 72.3042 23.9872L72.3665 21.8849C72.3737 21.631 72.1872 21.4144 71.9333 21.3832L69.6287 21.1165C69.433 21.0966 69.2731 20.9561 69.2215 20.7661C69.1045 20.3502 68.9533 19.9364 68.7678 19.5277C68.6692 19.311 68.563 19.1006 68.4485 18.8967C68.3571 18.7302 68.3658 18.5263 68.4736 18.3705L69.7365 16.5277C69.8765 16.3254 69.8376 16.047 69.6461 15.8891L68.0194 14.5572C67.8232 14.3958 67.5376 14.4055 67.3527 14.5853L66.1424 15.7701C65.9799 15.9295 65.7336 15.956 65.5416 15.838C64.7911 15.3665 63.9711 15.0165 63.1133 14.7958C62.91 14.7473 62.7603 14.57 62.7439 14.359L62.5947 12.459C62.5748 12.2041 62.3648 12.0063 62.1099 11.9971L60.0152 11.9338C59.7634 11.9256 59.5478 12.1141 59.5217 12.3609L59.5095 12.4569L59.2852 14.3743C59.2612 14.5797 59.1151 14.7447 58.9143 14.7963L58.9122 14.7973C58.432 14.9194 57.9558 15.0855 57.4874 15.2985C57.2375 15.4119 56.9984 15.5366 56.7634 15.6704C56.601 15.765 56.4007 15.7578 56.2459 15.6521L54.6795 14.5756C54.4654 14.4274 54.1727 14.4699 54.0102 14.6691L52.6829 16.2886C52.6451 16.3346 52.6186 16.3872 52.5992 16.4383C52.5404 16.609 52.5797 16.8072 52.7105 16.9421L53.7124 17.9608C53.834 18.087 53.8789 18.2688 53.834 18.4333C53.8217 18.4768 53.8038 18.5192 53.7793 18.5595C53.179 19.5261 52.7795 20.6005 52.6002 21.7245C52.5726 21.9156 52.428 22.0668 52.2446 22.1153C52.2185 22.122 52.191 22.1266 52.1629 22.1286L50.456 22.262C50.2087 22.2814 50.0156 22.4837 50.0064 22.733L50.0043 22.782L49.942 24.8312C49.9364 25.0897 50.1264 25.3074 50.3824 25.3375Z" fill="#CDDFF9"/>
<path d="M25.7361 29.7368C25.7361 29.7368 26.8075 18.538 18.9413 14.5986C18.9413 14.5986 17.4025 13.8567 16.2683 15.4436C15.1336 17.0304 18.3221 18.1257 20.054 19.5067C21.7859 20.8871 25.3637 25.4626 25.7361 29.7368Z" fill="#CDDFF9"/>
<path d="M26.4206 25.4704C26.4206 25.4704 29.1559 17.5005 24.1144 13.2576C24.1144 13.2576 23.1233 12.4483 22.0198 13.4063C20.9162 14.3637 23.0472 15.7185 24.0679 17.0264C25.0887 18.3348 26.8957 22.2922 26.4206 25.4704Z" fill="#CDDFF9"/>
<path d="M88.0786 75.4491C91.8056 70.844 84.6996 64.0599 84.6996 64.0599C84.6996 64.0599 72.7473 64.6024 71.4369 63.1949C70.1259 61.7879 81.5627 60.735 81.5627 60.735C79.6873 57.5286 70.5004 52.5423 70.5004 52.5423C70.5004 52.5423 61.3872 59.8619 60.4624 58.1759C59.5382 56.4895 68.863 52.1065 68.863 52.1065C65.8983 49.8341 60.5636 49.5689 60.5636 49.5689C52.6152 50.1616 53.7984 60.3421 53.7984 60.3421C53.7984 60.3421 50.5849 62.8107 45.3529 63.5009H45.3523C45.3523 63.5009 44.3265 63.5454 42.8081 63.9331L43.3793 64.724C43.6378 64.6356 43.8938 64.559 44.1472 64.4956L44.1517 64.4946L44.163 64.4921C44.3239 64.4578 44.5538 64.4103 44.8353 64.3546H44.8369L44.8379 64.3541C45.4847 64.2545 45.9516 64.1656 46.2781 64.0869L46.2811 64.0859C48.2864 63.7385 50.9716 63.3855 51.8795 63.7886C51.8795 63.7886 51.9393 63.6123 52.1191 63.3574C52.043 63.4948 51.9628 63.6379 51.8795 63.7886C49.9606 67.2345 54.367 74.3507 57.8635 77.5627C61.3596 80.7752 61.2344 78.3643 61.4914 75.089C61.7484 71.8131 58.2212 67.8874 57.9887 66.1428C57.7568 64.3975 59.76 65.7463 61.3826 68.3988C63.0057 71.0524 61.403 74.1229 63.9503 78.4619C66.4976 82.8014 76.3603 80.3838 76.3603 80.3838C73.4661 78.2085 71.3792 72.065 72.2048 71.174C73.0309 70.283 78.3125 77.7967 79.44 78.748C80.568 79.6987 84.3522 80.0543 88.0786 75.4491Z" fill="#DFEBFD"/>
<path d="M2.80259 74.0524C0.37892 71.0576 5.00018 66.6455 5.00018 66.6455C5.00018 66.6455 12.7731 66.9985 13.6255 66.0835C14.4781 65.168 7.04022 64.4834 7.04022 64.4834C8.25997 62.398 14.2344 59.1554 14.2344 59.1554C14.2344 59.1554 20.1612 63.9158 20.7625 62.8189C21.3639 61.7221 15.2996 58.8718 15.2996 58.8718C17.2272 57.3943 20.6971 57.2216 20.6971 57.2216C25.8658 57.6068 25.0964 64.228 25.0964 64.228C25.0964 64.228 27.186 65.8332 30.589 66.2823C30.589 66.2823 31.2567 66.3109 32.2438 66.5633L31.8724 67.0777C31.7043 67.02 31.5377 66.9699 31.3727 66.9291L31.3702 66.9286L31.363 66.9265C31.2578 66.9045 31.1086 66.8734 30.9252 66.8371H30.9247H30.9236C30.5032 66.7722 30.1997 66.7145 29.9872 66.6634L29.9851 66.6624C28.6808 66.4366 26.9346 66.2072 26.3445 66.4693C26.3445 66.4693 26.3057 66.3543 26.1882 66.1888C26.2383 66.2782 26.2899 66.3712 26.3445 66.4693C27.5926 68.7105 24.7265 73.3382 22.4531 75.4272C20.1791 77.5163 20.2603 75.9483 20.0933 73.8184C19.9262 71.688 22.2201 69.1351 22.3713 68.0004C22.522 66.8652 21.2193 67.7424 20.1643 69.4677C19.1088 71.193 20.151 73.19 18.4942 76.0122C16.8374 78.8338 10.4233 77.2618 10.4233 77.2618C12.3058 75.8472 13.6631 71.8515 13.126 71.2721C12.5888 70.6928 9.15408 75.5795 8.42059 76.1976C7.68711 76.8163 5.2262 77.0478 2.80259 74.0524Z" fill="#DFEBFD"/>
<path d="M0.295407 22.1761C1.78338 18.6223 7.85904 20.5995 7.85904 20.5995C7.85904 20.5995 11.2333 27.6104 12.4433 27.9272C13.6532 28.2439 10.73 21.3704 10.73 21.3704C13.1442 21.4557 18.8322 25.1791 18.8322 25.1791C18.8322 25.1791 17.4502 32.6539 18.7009 32.6636C19.9515 32.6728 19.5862 25.9822 19.5862 25.9822C21.8015 26.979 23.5983 29.9523 23.5983 29.9523C25.7093 34.6862 19.5152 37.1477 19.5152 37.1477C19.5152 37.1477 19.0922 39.7487 20.3102 42.9576C20.3102 42.9576 20.6014 43.5589 20.8476 44.548L20.2187 44.4647C20.1896 44.2895 20.1543 44.1188 20.1124 43.9543L20.1114 43.9513L20.1099 43.9441C20.0798 43.8414 20.0358 43.6953 19.9811 43.5165L19.9806 43.516V43.515C19.8381 43.1139 19.7451 42.8196 19.6894 42.6081V42.6061C19.2695 41.3508 18.6441 39.7042 18.1333 39.3088C18.1333 39.3088 18.216 39.2204 18.3064 39.0385C18.2513 39.1249 18.1935 39.2148 18.1333 39.3088C16.7518 41.4704 11.3185 41.1408 8.4011 40.1293C5.48371 39.1177 6.90281 38.4459 8.6992 37.2887C9.80967 36.5735 11.5082 36.6098 12.8964 36.646C13.7538 36.6685 14.4927 36.691 14.9019 36.5362C15.9727 36.131 14.5826 35.4 12.5633 35.2886C11.5559 35.2334 10.7365 35.6692 9.76237 36.1055C8.7835 36.5433 7.64845 36.9817 6.00951 36.9209C2.7393 36.8003 1.08264 30.4075 1.08264 30.4075C3.22092 31.3941 7.38207 30.6952 7.63762 29.9472C7.89312 29.1998 1.96229 28.4922 1.07012 28.1397C0.177954 27.7867 -1.19256 25.7298 0.295407 22.1761Z" fill="#CDDFF9"/>
<path d="M73.5754 39.9582C73.5754 39.9582 73.5191 41.7009 73.2959 42.4815L71.5308 43.7133L78.1759 44.7075L76.5911 42.5178C76.5911 42.5178 76.1124 40.1815 76.3633 39.317C76.6146 38.4526 73.5754 39.9582 73.5754 39.9582Z" fill="#FFB27D"/>
<path d="M73.5654 40.1989C73.5654 40.1984 74.0911 41.4639 75.0807 41.4363C76.0703 41.4082 76.2956 40.2888 76.2956 40.2888L73.5654 40.1989Z" fill="#ED985F"/>
<path d="M72.9753 39.1745C72.9753 39.1745 72.6555 37.579 72.4328 37.0957C72.2095 36.6124 72.0235 34.4564 74.4957 34.3445C74.4957 34.3445 75.444 34.4564 75.964 34.1402C75.964 34.1402 75.964 34.4564 75.8343 34.5678C75.8343 34.5678 76.689 34.3634 77.3583 35.1068C78.0275 35.8506 76.9123 38.4526 76.9679 39.0662L72.9753 39.1745Z" fill="#2C3A64"/>
<path d="M74.9676 40.9472C74.2503 40.9345 72.9302 39.9796 72.9302 38.7969V36.9516C72.9302 36.5199 73.2316 36.1663 73.5994 36.1663H76.3358C76.7036 36.1663 77.005 36.5199 77.005 36.9516V38.6927C77.005 39.9326 75.7901 40.9615 74.9676 40.9472Z" fill="#FFB27D"/>
<path d="M72.9299 37.9367C72.9299 37.9367 72.934 36.8281 73.8122 36.6575C74.6905 36.4873 76.6564 37.198 76.9348 36.3898C77.2137 35.581 73.1353 35.5948 72.9299 36.1108C72.7251 36.6268 72.9299 37.9367 72.9299 37.9367Z" fill="#2C3A64"/>
<path d="M70.0297 56.7808C70.0297 56.7808 70.3096 65.3214 69.8912 70.1943C69.4728 75.0671 69.8943 81.8487 69.8943 81.8487C69.8943 81.8487 71.2318 82.5864 72.6817 81.8487C72.6817 81.8487 74.2716 72.435 74.2614 70.1943C74.2507 67.8084 75.9923 57.1533 75.9923 57.1533L70.0297 56.7808Z" fill="#739AF0"/>
<path d="M79.9212 81.8487C79.9212 81.8487 78.5842 82.5864 77.1343 81.8487C77.1343 81.8487 75.5444 72.4345 75.5546 70.1943C75.5592 69.1863 75.2512 66.7033 74.8935 64.1719C74.4046 60.7086 73.8237 57.1533 73.8237 57.1533L80.0173 56.7665C80.0173 56.7665 79.5064 65.3214 79.9248 70.1943C80.3427 75.0671 79.9212 81.8487 79.9212 81.8487Z" fill="#739AF0"/>
<path d="M79.9436 58.2015C79.9436 58.2015 77.3034 58.7129 74.894 58.7129C73.8436 58.7129 72.7023 58.5974 71.7934 58.4758C70.7885 58.3425 70.0681 58.2015 70.0681 58.2015C70.0681 58.2015 69.5327 58.2485 69.849 55.6092C70.0891 53.6004 70.014 51.7872 69.9603 49.9215C69.9542 49.714 69.9588 49.4683 69.9716 49.1955C70.0743 47.0201 70.7323 43.1036 71.2335 42.8936C71.2335 42.8936 71.9789 42.6162 73.2959 42.4814C73.2959 42.5069 74.0607 43.6247 74.9681 43.7499C75.5316 43.5271 75.9745 43.3371 76.5912 42.5176C77.3723 42.6086 78.2245 42.7634 79.1354 43.0086C79.1354 43.0086 79.2304 43.4234 79.5886 50.6214C79.7306 53.4721 80.7038 58.2112 79.9436 58.2015Z" fill="#F99746"/>
<path d="M75.5546 70.1941C75.5592 69.1861 75.2512 66.7032 74.8936 64.1717C75.2645 62.6595 76.1677 61.2039 76.1677 61.2039C77.3111 64.4103 75.5546 70.1941 75.5546 70.1941Z" fill="#5C7DE5"/>
<path d="M67.4649 51.1783C67.3453 51.5527 67.6764 52.058 67.9998 52.7676C68.666 54.2247 69.7715 56.3766 69.7715 56.3766C69.6116 56.984 69.4359 57.359 69.4359 57.359C67.5757 55.8974 66.3762 54.6538 65.6103 53.7005C64.5344 52.3594 64.4455 51.0045 64.6448 50.4186C67.0357 43.3882 71.3706 42.8482 71.3706 42.8482L71.0263 48.4205C71.0263 48.4205 67.7121 50.4063 67.4649 51.1783Z" fill="#F99746"/>
<path d="M69.5506 56.4832C69.5506 56.4832 70.5545 55.5534 70.9632 56.074C71.3725 56.5946 71.4465 57.4125 71.1308 57.3568C70.8146 57.3006 70.1642 57.0033 70.0712 57.1519C69.9782 57.3006 69.5619 57.5852 69.4357 57.3594C69.309 57.1336 69.5506 56.4832 69.5506 56.4832Z" fill="#FFB27D"/>
<path d="M69.7716 56.3766C69.6116 56.984 69.4359 57.359 69.4359 57.359C67.5757 55.8974 66.3762 54.6538 65.6104 53.7005C66.1877 53.6576 67.0301 53.4512 67.9998 52.7676C68.666 54.2247 69.7716 56.3766 69.7716 56.3766Z" fill="#FFB27D"/>
<path d="M85.6185 50.9836C85.6359 51.4214 85.5485 52.3594 84.4726 53.7005C83.7068 54.6538 82.5072 55.8974 80.647 57.359C80.647 57.359 80.4718 56.984 80.3114 56.3766C80.3114 56.3766 81.4175 54.2247 82.0831 52.7676C82.4065 52.058 82.638 51.7275 82.5634 51.4613C82.3253 50.6132 80.3262 49.4305 79.4863 48.7939C79.2094 48.5839 79.0566 48.4205 79.0566 48.4205L79.1353 43.0086C79.1353 43.0086 80.2363 43.2799 80.9153 43.9589C83.6761 46.7207 85.5363 48.939 85.6185 50.9836Z" fill="#F99746"/>
<path d="M80.5321 56.4832C80.5321 56.4832 79.5282 55.5534 79.1195 56.074C78.7103 56.5946 78.6362 57.4125 78.9519 57.3568C79.2682 57.3006 79.9185 57.0033 80.0115 57.1519C80.1045 57.3006 80.5209 57.5852 80.6471 57.3594C80.7738 57.1336 80.5321 56.4832 80.5321 56.4832Z" fill="#FFB27D"/>
<path d="M80.3115 56.3766C80.4714 56.984 80.6472 57.359 80.6472 57.359C82.5073 55.8974 83.7069 54.6538 84.4727 53.7005C83.8954 53.6576 83.053 53.4512 82.0833 52.7676C81.4171 54.2247 80.3115 56.3766 80.3115 56.3766Z" fill="#FFB27D"/>
<path d="M73.3883 42.0564C73.3883 42.0564 73.0936 42.1796 73.0098 42.5142C73.0098 42.5142 74.1935 43.7316 74.968 43.75L73.3883 42.0564Z" fill="#2B478B"/>
<path d="M74.9678 43.7501L76.4953 41.9952C76.4953 41.9952 76.8106 42.2027 76.806 42.5444C76.806 42.5444 75.6243 43.7966 74.9678 43.7501Z" fill="#2B478B"/>
<path d="M74.6918 43.6209C74.6918 43.6209 73.5259 53.6865 73.9321 54.9131C74.1411 55.5451 74.421 56.0912 74.6433 56.4729C74.8032 56.7472 75.2001 56.7462 75.3585 56.4713C75.6681 55.9334 76.0727 55.1558 76.0727 54.7609C76.0727 54.1212 75.1879 43.6122 75.1879 43.6122L74.6918 43.6209Z" fill="#2B478B"/>
<path d="M74.3869 43.1468C74.3869 43.1468 75.0919 43.0436 75.5205 43.107C75.6058 43.1197 75.6533 43.2551 75.6115 43.3644C75.4914 43.6797 75.2462 44.2263 74.9897 44.2263C74.629 44.2263 74.067 43.1831 74.3869 43.1468Z" fill="#2B478B"/>
<path d="M74.3965 39.7584C74.3965 39.7584 74.6197 40.0608 75.0101 40.0501C75.3999 40.0388 75.5833 39.7584 75.5833 39.7584C75.5833 39.7584 74.9253 39.6506 74.3965 39.7584Z" fill="white"/>
<path d="M1.49097 46.1015C1.37821 45.7617 3.03023 46.8034 4.999 46.1433C6.69577 45.5747 5.1658 44.4671 5.59822 43.0622C5.90609 42.0613 5.80871 39.3735 3.1861 39.2657C3.1861 39.2657 2.55561 38.8841 1.64469 39.1865C-0.426865 39.8742 -4.73516 46.5919 1.49097 46.1015Z" fill="#163560"/>
<path d="M4.36475 52.2604C4.36475 52.2604 4.61391 52.7539 5.06589 53.321C5.61071 54.003 8.47006 52.3835 8.22376 52.2604C7.97741 52.1372 6.58502 48.1845 5.99551 47.4841C5.44947 46.8347 4.69029 46.6876 4.69029 46.6876L4.36475 52.2604Z" fill="#739AF0"/>
<path d="M-2.01603 50.2026C-2.01603 50.2026 -2.08214 51.134 -2.01603 52.2518C-1.97209 52.9931 -1.22251 53.9858 -1.1162 54.231C-0.849308 54.8466 -0.548393 54.9473 -0.548393 54.9473L1.77974 55.5179L2.59834 55.7182L5.17977 54.9473C5.17977 54.9473 6.35553 51.6653 5.88341 49.8179C5.4113 47.9705 4.69002 46.6877 4.69002 46.6877C4.69002 46.6877 2.93573 46.2933 -0.159195 46.5125L-2.01603 50.2026Z" fill="#739AF0"/>
<path d="M-2.23779 52.278C-2.19386 53.0188 -1.2225 53.9859 -1.11618 54.2311C-0.849294 54.8468 -0.548379 54.9474 -0.548379 54.9474L1.77975 55.5181L2.40079 54.6419C2.40079 54.6419 -1.36805 53.5935 -0.654439 50.2707L-2.23779 52.278Z" fill="#5C7DE5"/>
<path d="M5.01554 55.4455C5.01554 55.4455 6.29389 59.4243 6.37599 60.7792C6.45809 62.1341 3.9323 80.025 3.83068 80.6493C3.73489 81.2373 3.00422 81.6128 3.00422 81.6128C3.00422 81.6128 2.66815 81.8111 2.18858 81.6752C1.52309 81.4877 1.31276 81.2624 1.31276 81.2624C1.31276 81.2624 0.317746 68.5029 0.933471 63.9447C1.54925 59.3871 1.5565 55.4455 1.5565 55.4455H5.01554Z" fill="#ED7D2B"/>
<path d="M-0.400953 55.3262C-0.400953 55.3262 -2.35097 57.9429 -2.53275 59.7117C-2.71457 61.4804 -2.81798 67.6928 -3.20528 69.417C-3.59259 71.1413 -5.01562 74.4595 -5.01562 79.8377C-5.01562 79.8377 -4.86772 80.1457 -4.41099 80.3103C-4.26492 80.3624 -4.06925 80.4135 -3.87925 80.4569C-3.50262 80.5432 -3.11619 80.3593 -2.94427 80.0134C-1.98226 78.0761 1.08226 71.829 1.23941 70.5318C1.35058 69.6142 2.31821 63.5403 4.42885 59.9763C4.93555 59.1206 4.11787 55.718 4.11787 55.718L-0.400953 55.3262Z" fill="#F99746"/>
<path d="M5.22011 54.8308C5.22011 54.8308 4.70686 55.2369 3.68738 55.2574C2.46957 55.2819 -0.548004 54.9468 -0.548004 54.9468C-0.548004 54.9468 -0.682062 55.3217 -0.676595 55.7172C-0.676595 55.7172 3.00887 56.6465 5.14419 55.8531C5.14419 55.8531 5.41961 55.3345 5.22011 54.8308Z" fill="#5C7DE5"/>
<path d="M3.60801 55.6779C3.60801 55.9231 3.77466 56.1229 3.97947 56.1229C4.18434 56.1229 4.35099 55.9231 4.35099 55.6779C4.35099 55.4327 4.18434 55.2334 3.97947 55.2334C3.77466 55.2334 3.60801 55.4327 3.60801 55.6779ZM3.42383 55.6779C3.42383 55.331 3.67304 55.049 3.97947 55.049C4.28591 55.049 4.53517 55.331 4.53517 55.6779C4.53517 56.0248 4.28591 56.3068 3.97947 56.3068C3.67304 56.3068 3.42383 56.0248 3.42383 55.6779Z" fill="white"/>
<path d="M1.31689 57.4507L6.85613 57.5028L9.58183 51.0967L4.04265 51.0452L1.31689 57.4507Z" fill="#163560"/>
<path d="M2.04102 54.5559L2.44702 54.0573C2.44702 54.0573 2.72183 53.812 2.92118 53.7701C3.12053 53.7288 3.5416 53.4861 3.58242 53.5546C3.62324 53.623 3.25898 54.1109 3.25898 54.1109L3.24048 54.1135C3.6587 54.4282 4.71451 54.1502 4.84483 54.2785C5.0028 54.4343 4.62735 54.7705 4.42601 54.959C4.22461 55.148 3.64869 55.4627 3.19961 55.3227C2.87142 55.2206 2.3548 55.1169 2.3548 55.1169L2.04102 54.5559Z" fill="#FFB27D"/>
<path d="M9.16543 52.2237C9.16543 52.2237 8.81736 51.8283 8.59584 52.0183C8.37432 52.2079 8.65383 53.1413 8.86482 53.0468C9.07582 52.9517 9.28677 52.3397 9.16543 52.2237Z" fill="#FFB27D"/>
<path d="M-0.159211 46.5125C-0.159211 46.5125 -2.00629 46.6422 -2.71433 48.3634C-3.42232 50.0846 -4.72397 52.917 -4.4441 54.1043C-4.33252 54.5774 -2.98684 56.2163 2.62494 55.1751C2.62494 55.1751 2.57916 54.5881 2.20003 54.3128C2.20003 54.3128 -1.75396 53.0432 -1.74716 52.7908C-1.73439 52.3131 -1.21287 51.9003 0.995811 49.6912C1.59631 49.0904 -0.159211 46.5125 -0.159211 46.5125Z" fill="#739AF0"/>
<path d="M1.06117 46.5961C1.00671 46.523 1.07681 46.29 1.16391 45.8563C1.24279 45.4634 1.37665 44.8555 1.37379 44.1719L1.49068 44.1913L3.45597 44.5219C3.45597 44.5219 3.41122 45.0476 3.40989 45.5426V45.5549C3.40749 45.9845 3.52586 46.6344 3.38092 46.7192C2.6362 47.1555 1.27074 46.8776 1.06117 46.5961Z" fill="#FFB27D"/>
<path d="M3.45602 44.522C3.45602 44.522 3.41693 45.2628 3.41556 45.7578C2.31581 45.7318 1.7289 44.664 1.49072 44.1914L3.45602 44.522Z" fill="#E8945B"/>
<path d="M3.57457 45.4059C3.57457 45.4059 0.9982 45.039 1.2514 43.4379C1.50465 41.8368 1.34264 40.7113 2.99829 40.8778C4.65398 41.0444 4.87617 41.706 4.92159 42.2608C4.96706 42.8156 4.2513 45.46 3.57457 45.4059Z" fill="#FFB27D"/>
<path d="M4.17534 41.0252C4.17534 41.0252 3.17266 42.7909 2.0487 42.8966C0.924693 43.0024 0.502441 42.6381 0.502441 42.6381C0.502441 42.6381 1.43548 42.1124 1.7903 40.991C1.7903 40.991 3.78701 40.0469 4.17534 41.0252Z" fill="#163560"/>
<path d="M3.97607 41.1501C3.97607 41.1501 4.46668 41.4281 4.62082 41.8429C4.77153 42.2485 4.87192 42.7697 4.73408 43.3674C4.73408 43.3674 5.46747 42.1755 4.98682 41.3586C4.47711 40.4926 3.97607 41.1501 3.97607 41.1501Z" fill="#163560"/>
<path d="M16.0298 83.7559H62.9571V20.7095H16.0298V83.7559Z" fill="#23569E"/>
<path d="M61.2274 82.2661H17.7598V51.7005C18.1618 51.1626 18.6089 50.6062 19.1024 50.0483C20.8103 50.8811 22.7292 51.348 24.7569 51.348C26.4613 51.348 28.0884 51.0185 29.5782 50.4187C32.2364 53.0385 33.6684 55.5996 33.6684 55.5996L34.8445 53.1014L38.2184 53.3497C36.864 51.1733 35.2624 49.3545 33.6025 47.8459C36.111 45.4891 37.6779 42.1412 37.6779 38.4276C37.6779 31.2915 31.893 25.5067 24.7569 25.5067C22.1785 25.5067 19.7763 26.2623 17.7598 27.5635V22.1991H61.2274V82.2661ZM42.5804 45.6669C41.9591 45.6669 41.4549 46.1706 41.4549 46.7924V52.3458C41.4549 52.9675 41.9591 53.4713 42.5804 53.4713H57.1326C57.7543 53.4713 58.2581 52.9675 58.2581 52.3458V46.7924C58.2581 46.1706 57.7543 45.6669 57.1326 45.6669H42.5804Z" fill="#D7E3F5"/>
<path d="M29.5679 19.7019C29.0805 19.7019 28.6851 20.0973 28.6851 20.5852V22.2936C28.6851 23.7251 29.9296 24.8854 31.4653 24.8854H46.4012C47.937 24.8854 49.1815 23.7251 49.1815 22.2936V20.4963C49.1815 20.0575 48.8259 19.7019 48.387 19.7019H29.5679Z" fill="#F77D48"/>
<path d="M21.8264 64.9325H29.7769V56.982H21.8264V64.9325ZM30.1907 65.3458H21.4126V56.5682H30.1907V65.3458Z" fill="#94B5FF"/>
<path d="M26.0198 63.5817C25.8359 63.5817 25.6601 63.4999 25.5416 63.3569L22.8334 60.08C22.6147 59.8159 22.652 59.4251 22.9161 59.2069C23.1798 58.9888 23.5711 59.0261 23.7893 59.2897L25.937 61.8886L29.8234 55.366C29.9986 55.0718 30.3792 54.9757 30.6735 55.1509C30.9678 55.3262 31.0643 55.7068 30.8891 56.0011L26.5527 63.2792C26.4495 63.4524 26.2686 63.5643 26.0673 63.5801C26.0515 63.5812 26.0356 63.5817 26.0198 63.5817Z" fill="#F99746"/>
<path d="M55.0885 61.9669H33.7256V61.2461H55.0885V61.9669Z" fill="#94B5FF"/>
<path d="M55.0885 65.186H33.7256V64.4652H55.0885V65.186Z" fill="#94B5FF"/>
<path d="M55.088 63.576H49.1377V62.8552H55.088V63.576Z" fill="#94B5FF"/>
<path d="M46.9459 63.576H33.7256V62.8552H46.9459V63.576Z" fill="#94B5FF"/>
<path d="M55.0885 73.5298H33.7256V72.8089H55.0885V73.5298Z" fill="#94B5FF"/>
<path d="M55.0885 76.749H33.7256V76.0282H55.0885V76.749Z" fill="#94B5FF"/>
<path d="M55.088 75.1391H49.1377V74.4182H55.088V75.1391Z" fill="#94B5FF"/>
<path d="M46.9459 75.1391H33.7256V74.4182H46.9459V75.1391Z" fill="#94B5FF"/>
<path d="M57.9722 38.8011H41.4551V38.0802H57.9722V38.8011Z" fill="#94B5FF"/>
<path d="M57.9722 42.02H41.4551V41.2991H57.9722V42.02Z" fill="#94B5FF"/>
<path d="M58.2578 40.4102H53.6572V39.6899H58.2578V40.4102Z" fill="#94B5FF"/>
<path d="M51.677 40.4102H41.4551V39.6899H51.677V40.4102Z" fill="#94B5FF"/>
<path d="M57.9722 29.7368H41.4551V29.0159H57.9722V29.7368Z" fill="#94B5FF"/>
<path d="M57.9722 32.9553H41.4551V32.2349H57.9722V32.9553Z" fill="#94B5FF"/>
<path d="M58.2578 31.3463H53.6572V30.6254H58.2578V31.3463Z" fill="#94B5FF"/>
<path d="M51.677 31.3463H41.4551V30.6254H51.677V31.3463Z" fill="#94B5FF"/>
<path d="M41.4551 53.4711H58.2583V45.6667H41.4551V53.4711Z" fill="#E1CCC0"/>
<path d="M42.8081 48.3199H56.666V47.5991H42.8081V48.3199Z" fill="#EDB183"/>
<path d="M42.8081 51.5389H56.666V50.8181H42.8081V51.5389Z" fill="#EDB183"/>
<path d="M53.0459 49.9293H56.9057V49.2089H53.0459V49.9293Z" fill="#EDB183"/>
<path d="M42.8081 49.9293H51.3839V49.2089H42.8081V49.9293Z" fill="#EDB183"/>
<path d="M21.8264 79.1803H29.7769V71.2298H21.8264V79.1803ZM30.1907 79.5941H21.4126V70.816H30.1907V79.5941Z" fill="#94B5FF"/>
<path d="M26.0198 77.8297C25.8359 77.8297 25.6601 77.748 25.5416 77.6049L22.8334 74.3281C22.6147 74.0644 22.652 73.6731 22.9161 73.455C23.1798 73.2368 23.5711 73.2741 23.7893 73.5377L25.937 76.1366L29.8234 69.6141C29.9986 69.3198 30.3792 69.2238 30.6735 69.399C30.9678 69.5742 31.0643 69.9548 30.8891 70.2491L26.5527 77.5273C26.4495 77.7005 26.2686 77.8123 26.0673 77.8282C26.0515 77.8292 26.0356 77.8297 26.0198 77.8297Z" fill="#F99746"/>
<path d="M25.3285 40.7239C25.3285 40.7239 15.2322 44.4366 10.3286 54.3269L13.6629 53.7552L15.0744 56.1283C15.0744 56.1283 18.9776 47.2306 27.0062 44.5633L25.3285 40.7239Z" fill="#739AF0"/>
<path d="M21.9794 41.2534C21.9794 41.2534 32.3863 43.977 38.2186 53.3498L34.8447 53.1015L33.6686 55.5998C33.6686 55.5998 28.927 47.1185 20.6787 45.2363L21.9794 41.2534Z" fill="#739AF0"/>
<path d="M11.8364 38.4275C11.8364 31.2914 17.6214 25.5066 24.7571 25.5066C31.8932 25.5066 37.678 31.2914 37.678 38.4275C37.678 45.5631 31.8932 51.348 24.7571 51.348C17.6214 51.348 11.8364 45.5631 11.8364 38.4275Z" fill="#F77D48"/>
<path d="M24.7613 50.03C18.369 50.03 13.168 44.8291 13.168 38.4368C13.168 32.0446 18.369 26.8437 24.7613 26.8437C31.1541 26.8437 36.3549 32.0446 36.3549 38.4368C36.3549 44.8291 31.1541 50.03 24.7613 50.03ZM24.7613 27.1978C18.5637 27.1978 13.5221 32.2392 13.5221 38.4368C13.5221 44.6345 18.5637 49.6759 24.7613 49.6759C30.9584 49.6759 36.0009 44.6345 36.0009 38.4368C36.0009 32.2392 30.9584 27.1978 24.7613 27.1978Z" fill="#ECE7ED"/>
<mask id="mask1_145_4012" style="mask-type:alpha" maskUnits="userSpaceOnUse" x="15" y="28" width="20" height="20">
<rect x="15.1602" y="28.8407" width="19.1584" height="19.1584" fill="#D9D9D9"/>
</mask>
<g mask="url(#mask1_145_4012)">
<path d="M24.739 43.4293L21.4262 45.4249C21.2799 45.5181 21.1269 45.558 20.9672 45.5447C20.8076 45.5314 20.6679 45.4781 20.5481 45.385C20.4284 45.2919 20.3353 45.1756 20.2687 45.0362C20.2022 44.8962 20.1889 44.7398 20.2288 44.5668L21.1069 40.795L18.1733 38.2605C18.0402 38.1407 17.9572 38.0042 17.9242 37.851C17.8907 37.6982 17.9005 37.5487 17.9538 37.4024C18.007 37.256 18.0868 37.1363 18.1932 37.0431C18.2997 36.95 18.446 36.8901 18.6323 36.8635L22.5039 36.5243L24.0006 32.972C24.0672 32.8123 24.1704 32.6926 24.3104 32.6128C24.4498 32.5329 24.5927 32.493 24.739 32.493C24.8854 32.493 25.0285 32.5329 25.1685 32.6128C25.3079 32.6926 25.4109 32.8123 25.4774 32.972L26.9742 36.5243L30.8458 36.8635C31.032 36.8901 31.1784 36.95 31.2848 37.0431C31.3912 37.1363 31.4711 37.256 31.5243 37.4024C31.5775 37.5487 31.5876 37.6982 31.5546 37.851C31.5211 38.0042 31.4378 38.1407 31.3048 38.2605L28.3711 40.795L29.2492 44.5668C29.2891 44.7398 29.2758 44.8962 29.2093 45.0362C29.1428 45.1756 29.0497 45.2919 28.9299 45.385C28.8102 45.4781 28.6705 45.5314 28.5108 45.5447C28.3512 45.558 28.1982 45.5181 28.0518 45.4249L24.739 43.4293Z" fill="white"/>
</g>
</g>
</svg>
