<svg width="87" height="80" viewBox="0 0 87 80" fill="none" xmlns="http://www.w3.org/2000/svg">
<path d="M47.4324 1.35694C42.9378 0.248428 38.8256 -0.264847 34.2647 0.731529C30.2232 1.61457 26.4463 3.45192 23.0678 5.81425C16.3007 10.5462 10.9758 17.2746 6.94808 24.4217C2.41152 32.4719 -0.239758 41.6775 0.0171047 50.9144C0.208453 57.79 2.37321 65.1573 7.97095 69.1543C12.4191 72.3306 18.2966 72.826 23.7045 72.0335C29.1125 71.2409 34.2764 69.2968 39.583 67.9866C46.514 66.2755 53.7118 65.6505 60.8339 66.1411C65.3916 66.4551 70.1855 67.1855 74.3646 65.3397C77.158 64.1055 79.3715 61.8208 81.0943 59.2995C86.0345 52.0704 87.2857 42.6272 85.1622 34.1328C83.0386 25.6384 77.7346 18.1108 70.9429 12.5849C64.1511 7.05872 55.9334 3.45331 47.4324 1.35694Z" fill="#D5F1F8"/>
<path d="M19.2813 72.3663C20.7653 72.3663 22.2517 72.2465 23.7046 72.0335C24.7236 71.8841 25.7343 71.6939 26.7384 71.4748C25.7343 71.6939 24.7236 71.8841 23.7048 72.0335C22.2517 72.2465 20.7653 72.3663 19.2813 72.3663ZM33.7378 69.6091C35.6798 69.0418 37.6217 68.471 39.5831 67.9866C44.9852 66.6531 50.55 65.979 56.1142 65.979C57.6888 65.979 59.263 66.033 60.8339 66.1412C59.263 66.033 57.6888 65.979 56.1142 65.979C50.55 65.979 44.9852 66.6531 39.5831 67.9866C37.6217 68.471 35.6798 69.0418 33.7378 69.6091ZM67.6272 66.5507C65.4105 66.5507 63.1506 66.304 60.9451 66.1489C63.1506 66.304 65.4103 66.5507 67.6268 66.5507C69.9574 66.5507 72.2403 66.2781 74.3646 65.3397C77.1581 64.1055 79.3715 61.8208 81.0944 59.2995C84.5005 54.3153 86.1529 48.2788 86.1548 42.2263C86.1529 48.2788 84.5005 54.3153 81.0944 59.2995C79.3715 61.8208 77.1581 64.1055 74.3646 65.3397C72.2403 66.2781 69.9577 66.5507 67.6272 66.5507ZM0.016402 50.8843C0.0163245 50.8815 0.016247 50.8792 0.0161694 50.8764C0.016247 50.8792 0.0163245 50.8815 0.016402 50.8843ZM0.0155492 50.8535C0.0154716 50.8506 0.0153941 50.848 0.0153166 50.8448C0.0153941 50.8476 0.0154716 50.8508 0.0155492 50.8535ZM0.0147738 50.8226C0.0146963 50.8194 0.0146188 50.8172 0.0145413 50.8142C0.0146188 50.817 0.0146963 50.8196 0.0147738 50.8226ZM0.0138435 50.7884C0.0138435 50.7871 0.0138435 50.7859 0.0137659 50.7845C0.0138435 50.7855 0.0138435 50.7873 0.0138435 50.7884ZM0.0115175 50.6898C0.0115175 50.6886 0.0115175 50.688 0.01144 50.687C0.0115175 50.688 0.0115175 50.6886 0.0115175 50.6898ZM0.0108197 50.657C0.0107422 50.6563 0.0108197 50.6565 0.0107422 50.6559C0.0107422 50.6563 0.0108197 50.6565 0.0108197 50.657ZM70.943 12.5849C70.9369 12.5797 70.9301 12.5744 70.9238 12.5692C70.9301 12.5744 70.9367 12.5797 70.943 12.5849Z" fill="#E8F7FB"/>
<path d="M19.2812 72.3663C15.5969 72.3663 11.9304 71.6266 8.84587 69.7339C8.54869 69.5515 8.25678 69.3584 7.97093 69.1543C2.37319 65.1573 0.208429 57.7901 0.0170801 50.9145C0.0168475 50.9046 0.0165374 50.8944 0.0163048 50.8843C0.0162272 50.8815 0.0161497 50.8792 0.0160722 50.8764C0.0158396 50.869 0.0156845 50.8611 0.0154519 50.8535C0.0153744 50.8508 0.0152968 50.8476 0.0152193 50.8448C0.0150643 50.8375 0.0148317 50.8299 0.0146766 50.8226C0.0145991 50.8196 0.0145215 50.817 0.014444 50.8142C0.0142114 50.8057 0.0139788 50.7968 0.0137462 50.7884C0.0137462 50.7873 0.0137462 50.7855 0.0136687 50.7845C0.0128934 50.7529 0.012118 50.7214 0.0114203 50.6898C0.0114203 50.6886 0.0114203 50.688 0.0113427 50.687C0.0111101 50.6771 0.0108775 50.6668 0.0107225 50.657C0.0107225 50.6565 0.0106449 50.6563 0.0106449 50.6559C-0.108212 45.2331 0.772396 39.8249 2.4446 34.6586C4.99392 35.2315 7.53667 35.8418 10.0843 36.4158C10.0026 36.5049 9.94008 36.5807 9.90719 36.6347L9.90612 36.6371C9.54411 37.1369 9.35139 37.8306 9.41736 38.5951C10.1665 47.2708 10.9157 55.9466 11.6647 64.6222C11.7849 66.0135 12.7082 67.0353 13.7805 67.0353C13.8734 67.0353 13.9672 67.0276 14.0619 67.0119C17.9285 66.3689 21.7951 65.7257 25.6615 65.0827L25.3005 66.5205L24.4412 69.9431C24.2682 70.632 24.7545 71.3118 25.4624 71.3706L26.7383 71.4748C25.7342 71.6939 24.7235 71.8841 23.7045 72.0335C22.2516 72.2465 20.7652 72.3663 19.2812 72.3663ZM33.7377 69.6091C33.2515 69.385 32.9617 68.8351 33.1046 68.2775L34.0557 64.5635C34.0559 64.5635 34.0559 64.5635 34.0559 64.5635L34.2903 63.6477C38.6752 62.9185 43.0602 62.1892 47.4449 61.46C47.7033 61.4171 47.9468 61.3278 48.1695 61.2034L48.1693 61.2042L48.2088 61.1819C48.2088 61.1819 49.6163 60.5258 49.9448 60.1367C50.4628 59.6344 50.7682 58.901 50.7043 58.1454C50.6384 57.3661 50.5725 56.5867 50.5066 55.8074C50.5009 55.7396 50.4951 55.6721 50.4894 55.6042C50.0438 50.3345 49.598 45.0648 49.1524 39.7951C49.069 38.8103 48.9859 37.826 48.9025 36.8413C48.9021 36.8374 48.9017 36.8334 48.9015 36.8294C48.9013 36.8274 48.9011 36.8255 48.9009 36.8235C48.8753 36.5464 48.8013 36.2806 48.6882 36.0355C48.8134 34.7491 48.9392 33.463 49.0657 32.1766C49.7864 31.5719 50.4735 30.9208 51.1237 30.2206C54.6891 26.3816 56.8205 21.4161 60.2031 17.4152C62.519 14.6755 65.3773 12.4611 68.5322 10.749C69.3461 11.3321 70.1452 11.9367 70.9237 12.5692C70.93 12.5744 70.9368 12.5797 70.9429 12.5849C77.7346 18.1108 83.0386 25.6384 85.1621 34.1329C85.8215 36.7709 86.1555 39.5002 86.1547 42.2263C86.1528 48.2788 84.5004 54.3153 81.0943 59.2995C79.3714 61.8208 77.158 64.1055 74.3645 65.3397C72.2402 66.2781 69.9573 66.5507 67.6267 66.5507C65.4102 66.5507 63.1505 66.304 60.945 66.1489C60.9079 66.1464 60.871 66.1438 60.8338 66.1412C59.2629 66.033 57.6887 65.979 56.1142 65.979C50.5499 65.979 44.9851 66.6531 39.583 67.9866C37.6216 68.471 35.6797 69.0418 33.7377 69.6091Z" fill="#C0E9F4"/>
<path d="M56.746 67.0614C57.7479 67.0445 58.7818 67.0374 59.7089 67.4176C60.4292 67.7132 61.1199 68.4739 60.8246 69.1942C60.7232 69.4426 60.5193 69.6345 60.304 69.7942C59.3483 70.5034 58.0958 70.7035 56.9079 70.6293C55.7202 70.5552 54.5641 70.2325 53.3988 69.9904C51.9522 69.6896 50.4835 69.5124 49.0165 69.3354C48.173 69.2335 47.3274 69.1317 46.4783 69.0896C46.3257 69.0821 46.128 69.0978 45.915 69.1137C45.4139 69.1509 44.8277 69.1883 44.5439 68.9209C43.5477 67.9837 46.8209 67.762 47.3471 67.6814C50.4557 67.2062 53.6068 67.114 56.746 67.0614Z" fill="#D5F1F8"/>
<path d="M57.3675 70.6438C57.2137 70.6438 57.0603 70.6388 56.9078 70.6293C55.7201 70.5553 54.564 70.2326 53.3987 69.9904C51.9521 69.6897 50.4834 69.5125 49.0164 69.3354C48.1729 69.2336 47.3273 69.1318 46.4782 69.0897C46.451 69.0883 46.4226 69.0877 46.3929 69.0877C46.2549 69.0877 46.0902 69.1008 45.9149 69.1137C45.7397 69.1268 45.5539 69.1397 45.3745 69.1397C45.0406 69.1397 44.7284 69.0949 44.5438 68.921C44.4134 68.7983 44.3562 68.688 44.3564 68.5885C44.3572 67.9282 46.8897 67.7516 47.347 67.6815C50.4556 67.2063 53.6067 67.114 56.7459 67.0614C56.9334 67.0583 57.1222 67.0555 57.3109 67.0555C58.1311 67.0555 58.9552 67.1087 59.7088 67.4177C60.3124 67.6654 60.8951 68.2396 60.8945 68.843C60.8943 68.9597 60.8723 69.0776 60.8245 69.1943C60.723 69.4426 60.5192 69.6346 60.3038 69.7943C59.4708 70.4124 58.4121 70.6438 57.3675 70.6438Z" fill="#C0E9F4"/>
<path d="M62.5643 39.2403C61.2138 38.4333 59.6924 38.1637 58.2471 38.3668L55.1827 35.6049L55.7183 39.2691C54.8269 39.8107 54.05 40.5703 53.4776 41.528C51.6002 44.6692 52.6245 48.7375 55.7655 50.6149C58.9063 52.4923 62.9745 51.4682 64.852 48.327C66.7294 45.186 65.7053 41.1177 62.5643 39.2403Z" fill="white"/>
<path d="M59.8584 47.9763H58.4712V41.879H59.8584V47.9763Z" fill="#3871C1"/>
<path d="M56.1162 45.6213V44.234H62.2134V45.6213H56.1162Z" fill="#3871C1"/>
<path d="M62.564 39.2403L62.615 39.1552C61.5349 38.5095 60.3462 38.2027 59.173 38.2029C58.8578 38.2029 58.5438 38.2249 58.2329 38.2686L58.2468 38.3668L58.3133 38.2932L55.0443 35.3469L55.6197 39.2834L55.718 39.2691L55.6664 39.1842C54.7617 39.734 53.9729 40.5052 53.3922 41.4772C52.7461 42.5577 52.4385 43.7472 52.4385 44.9213C52.4385 47.2094 53.6073 49.4405 55.7144 50.7001C56.795 51.3459 57.9845 51.6538 59.1583 51.6536C61.4466 51.6538 63.6775 50.4849 64.9371 48.378C65.5829 47.2973 65.8906 46.1078 65.8906 44.9338C65.8908 42.6457 64.7219 40.4145 62.615 39.1552L62.564 39.2403L62.513 39.3255C64.5582 40.5479 65.6919 42.7126 65.6921 44.9338C65.6921 46.0733 65.3938 47.2268 64.7666 48.2762C63.5443 50.3212 61.3795 51.4551 59.1583 51.4551C58.019 51.4551 56.8654 51.1568 55.8162 50.5298C53.7711 49.3073 52.6372 47.1425 52.637 44.9213C52.637 43.7818 52.9353 42.6284 53.5625 41.579C54.1264 40.6355 54.8913 39.8876 55.7694 39.3539L55.8256 39.3197L55.3204 35.8628L58.2149 38.4716L58.2607 38.4651C58.5622 38.4228 58.8671 38.4013 59.173 38.4013C60.3116 38.4013 61.4644 38.6987 62.513 39.3255L62.564 39.2403Z" fill="#2C3A92"/>
<path d="M69.3512 27.3132C68.2117 27.3132 67.1657 27.7111 66.3424 28.3745L63.4106 27.7961L65.1053 29.8754C64.7524 30.5435 64.5517 31.3047 64.5517 32.1127C64.5517 34.7634 66.7005 36.9124 69.3512 36.9124C72.0019 36.9124 74.1509 34.7634 74.1509 32.1127C74.1509 29.462 72.0019 27.3132 69.3512 27.3132Z" fill="white"/>
<path d="M69.8059 30.5682C70.0804 30.3681 70.4684 30.3139 70.7673 30.4751C71.1224 30.6666 71.28 31.1158 71.228 31.5159C71.1764 31.9161 70.9535 32.2733 70.7032 32.5899C70.4363 32.9275 70.133 33.2334 69.819 33.5273C69.5695 33.7611 69.42 34.1079 69.0513 33.8451C68.6984 33.5934 68.3518 33.3269 68.0686 32.9986C67.6047 32.4607 67.3207 31.6715 67.5152 30.9639C67.6531 30.4628 68.2069 30.0493 68.6916 30.2365C69.1052 30.3963 69.2158 30.8417 69.343 31.211C69.4554 30.9701 69.5852 30.7291 69.8059 30.5682Z" fill="#EF3357"/>
<path d="M69.3516 27.3132V27.214C68.1889 27.214 67.1205 27.6202 66.2805 28.2973L66.3428 28.3745L66.3621 28.2772L63.1602 27.6454L65.0287 29.9379L65.1057 29.8754L65.0179 29.8289C64.6579 30.5109 64.4529 31.2882 64.4529 32.1127C64.4529 34.8184 66.6461 37.0114 69.3516 37.0116C72.0571 37.0114 74.2505 34.8184 74.2505 32.1127C74.2505 29.4072 72.0571 27.2141 69.3516 27.214V27.3132V27.4124C70.6499 27.4126 71.8243 27.9384 72.6754 28.7891C73.5261 29.64 74.052 30.8144 74.052 32.1127C74.052 33.4109 73.5261 34.5856 72.6754 35.4364C71.8243 36.2871 70.6499 36.8129 69.3516 36.8131C68.0533 36.8129 66.8789 36.2871 66.028 35.4364C65.1771 34.5856 64.6514 33.4109 64.6514 32.1127C64.6514 31.3211 64.8478 30.5762 65.1934 29.9216L65.224 29.8635L63.6617 27.9467L66.369 28.4809L66.4051 28.4519C67.2116 27.802 68.2353 27.4126 69.3516 27.4124V27.3132Z" fill="#2C3A92"/>
<path d="M23.8065 10.8339C24.4837 11.7503 24.7856 12.828 24.7414 13.8845L26.9493 15.8983L24.27 15.7713C23.9423 16.4523 23.4497 17.066 22.7996 17.5465C20.6681 19.1221 17.6628 18.6713 16.0872 16.5396C14.5117 14.4081 14.9623 11.4029 17.0939 9.82717C19.2256 8.25163 22.2308 8.70238 23.8065 10.8339Z" fill="white"/>
<path d="M19.4372 11.5865C19.0298 11.2586 18.4369 11.1463 17.9652 11.3721C17.4047 11.6403 17.1291 12.3195 17.1791 12.939C17.2293 13.5582 17.5456 14.1247 17.9071 14.63C18.2061 15.0413 18.5316 15.4313 18.879 15.8025C19.203 16.1486 19.6253 16.4297 19.9873 16.7444C20.0248 16.7772 20.0671 16.8115 20.1169 16.8121C20.163 16.8125 20.2035 16.7838 20.24 16.756C20.9335 16.2288 21.5535 15.6054 22.0765 14.9085C22.4626 14.3942 22.8032 13.8194 22.8879 13.1821C23.0088 12.2717 22.3018 10.7854 21.176 11.159C20.5282 11.3739 20.3251 12.051 20.1016 12.6099C19.947 12.2308 19.7651 11.8505 19.4372 11.5865Z" fill="#EF3357"/>
<path d="M17.3136 13.9841H18.0341C18.0578 13.9841 18.0788 13.9694 18.0869 13.9472L18.2619 13.4722L18.4443 15.2184C18.4474 15.2472 18.4718 15.269 18.5006 15.269C18.5295 15.2688 18.5537 15.2466 18.5563 15.2178L18.7643 12.9734L18.9759 14.5817C18.9796 14.6095 19.0031 14.6303 19.0311 14.6307C19.0592 14.6309 19.0831 14.6105 19.0873 14.5827L19.2625 13.4289L19.5124 14.6045C19.5184 14.6327 19.5446 14.652 19.5733 14.6488C19.602 14.6458 19.6237 14.6218 19.6237 14.5928V13.8967H20.8237C20.8477 13.8967 20.8692 13.8815 20.8769 13.8586L20.99 13.5268L21.1 15.114C21.102 15.1432 21.126 15.1658 21.1552 15.1664C21.1843 15.1668 21.2092 15.145 21.2121 15.116L21.497 12.3788L21.8949 15.2204C21.8989 15.2498 21.9251 15.2708 21.9545 15.2688C21.984 15.2667 22.0069 15.2423 22.0069 15.2127V13.8918H22.985C23.0161 13.8918 23.0413 13.8666 23.0413 13.8356C23.0413 13.8044 23.0161 13.7792 22.985 13.7792H21.9505L21.9108 13.7957L21.8943 13.8356V14.4053L21.5444 11.9064C21.5404 11.8782 21.516 11.8573 21.4876 11.8579C21.4592 11.8583 21.4356 11.8802 21.4326 11.9084L21.1675 14.4584L21.0829 13.2404C21.0811 13.2136 21.0607 13.1919 21.0341 13.1886C21.0075 13.185 20.9823 13.2009 20.9736 13.2261L20.7834 13.7842H19.5675L19.5277 13.8007L19.5112 13.8406V14.0575L19.3084 13.1032C19.3027 13.0766 19.2788 13.058 19.2517 13.0588C19.2245 13.0595 19.2018 13.0796 19.1977 13.1066L19.0357 14.1734L18.8104 12.4611C18.8067 12.4325 18.7822 12.4115 18.7535 12.4123C18.7249 12.4127 18.7012 12.4347 18.6986 12.4633L18.4969 14.6391L18.3487 13.2199C18.346 13.1939 18.3256 13.1733 18.2997 13.1701C18.2737 13.1667 18.249 13.1818 18.24 13.2064L17.9949 13.8715H17.3136C17.2825 13.8715 17.2573 13.8967 17.2573 13.9277C17.2573 13.9589 17.2825 13.9841 17.3136 13.9841Z" fill="white"/>
<path d="M23.8062 10.834L23.7262 10.8929C24.3474 11.7335 24.646 12.7118 24.646 13.6824C24.646 13.7485 24.6446 13.8146 24.6418 13.8805L24.64 13.9267L26.6788 15.7863L24.2087 15.6692L24.1801 15.7285C23.8592 16.3954 23.3771 16.996 22.7403 17.4668C21.8996 18.0883 20.921 18.3874 19.9503 18.3876C18.5096 18.3874 17.0886 17.728 16.1666 16.4808C15.5453 15.64 15.2459 14.6615 15.2458 13.6907C15.246 12.2501 15.9053 10.829 17.1526 9.90705C17.9933 9.28581 18.9719 8.98649 19.9425 8.98629C21.3833 8.98649 22.8042 9.64565 23.7262 10.8929L23.8062 10.834L23.886 10.775C22.9253 9.47555 21.4433 8.78761 19.9425 8.78781C18.9312 8.78781 17.9102 9.10023 17.0346 9.74747C15.735 10.7081 15.0472 12.19 15.0474 13.6907C15.0473 14.7022 15.3597 15.7232 16.007 16.5989C16.9676 17.8983 18.4495 18.5863 19.9503 18.5861C20.9617 18.5861 21.9827 18.2736 22.8582 17.6264C23.5216 17.1361 24.0247 16.5093 24.3591 15.8145L24.2696 15.7714L24.2649 15.8706L27.2191 16.0106L24.8079 13.8112L24.741 13.8846L24.8403 13.8886C24.843 13.8199 24.8444 13.7512 24.8444 13.6824C24.8446 12.6713 24.533 11.6505 23.886 10.775L23.8062 10.834Z" fill="#2C3A92"/>
<path d="M32.7772 68.4819L34.6223 61.2789L26.2589 62.7044L24.4414 69.943C24.2683 70.632 24.7546 71.3118 25.4626 71.3705L35.1425 72.1605L35.1782 72.1567L40.5402 70.3877C40.6405 70.3563 40.6212 70.2091 40.5162 70.2045L33.8429 69.9177C33.1123 69.8861 32.5958 69.1904 32.7772 68.4819Z" fill="#F4F6F5"/>
<path d="M40.5402 70.3877L40.8637 70.2994C40.9046 70.2882 40.9324 70.2503 40.9308 70.2082L40.9258 70.059L40.5142 70.1812L40.5402 70.3877Z" fill="#F4F6F5"/>
<path d="M33.1046 68.2774L34.9494 61.0743L26.586 62.4998L24.7685 69.7384C24.5955 70.4274 25.0817 71.1072 25.7897 71.1659L35.1989 71.9463L35.2347 71.9426L40.8674 70.183C40.9676 70.1517 40.9484 70.0043 40.8434 70L34.1702 69.713C33.4396 69.6814 32.9232 68.9857 33.1046 68.2774Z" fill="#D3D4D3"/>
<path d="M25.3003 66.5205L25.6613 65.0827L25.3003 66.5205ZM34.0555 64.5635L34.2901 63.6476L34.0557 64.5635" fill="#86A9B4"/>
<path d="M25.3003 66.5205L25.6613 65.0827C25.7572 65.0668 25.8537 65.0507 25.9493 65.0349L25.6038 66.4113C25.5004 66.448 25.3991 66.4845 25.3003 66.5205Z" fill="#B1B2B3"/>
<path d="M25.604 66.4113L25.9496 65.0348C28.7301 64.5723 31.5098 64.11 34.2904 63.6476L34.0557 64.5634C30.6601 64.8426 27.6867 65.6728 25.604 66.4113Z" fill="#96999C"/>
<path d="M49.391 60.1405L49.8549 59.7074V58.82L49.3876 58.5846C48.7962 51.7326 48.2043 44.8804 47.6126 38.0282C47.508 36.8161 46.4364 35.8247 45.2316 35.8255C34.2949 35.8318 23.3582 35.8382 12.4216 35.8443L11.3997 35.1725C11.3997 35.1725 10.1067 36.3078 9.90743 36.6347L9.90636 36.6371C9.54435 37.1369 9.35162 37.8305 9.4176 38.5951C10.1668 47.2707 10.9159 55.9466 11.6649 64.6222C11.7955 66.134 12.8743 67.2094 14.0621 67.0119C25.1898 65.1613 36.3174 63.3106 47.4451 61.46C47.7035 61.4171 47.9471 61.3278 48.1698 61.2034L48.1696 61.2041L48.2091 61.1819C48.2091 61.1819 49.6181 60.525 49.9456 60.1359C50.0932 59.9605 49.789 59.9829 49.391 60.1405Z" fill="#BBBCBD"/>
<path d="M48.7351 60.7623C37.6076 62.6515 26.4799 64.5407 15.3522 66.4298C14.1644 66.6316 13.0856 65.5338 12.955 63.9903C12.2058 55.1334 11.4568 46.2768 10.7077 37.4201C10.5771 35.8765 11.4562 34.6132 12.661 34.6124C23.9479 34.6056 35.2347 34.5991 46.5218 34.5925C47.7266 34.5918 48.7982 35.6038 48.9028 36.8413C49.5034 43.9426 50.1042 51.0441 50.7046 58.1454C50.8092 59.3831 49.9232 60.5605 48.7351 60.7623Z" fill="white"/>
<path d="M46.5218 34.5925C35.2347 34.5991 23.9479 34.6056 12.661 34.6124C11.4562 34.6132 10.5771 35.8765 10.7077 37.4201C11.3745 45.3048 12.0415 53.1895 12.7084 61.0743C25.3079 59.3186 37.9075 57.5632 50.5069 55.8074C49.9722 49.4854 49.4375 43.1634 48.9028 36.8413C48.7982 35.6038 47.7266 34.5917 46.5218 34.5925Z" fill="#100F0D"/>
<path d="M14.4217 58.9788C13.7943 51.5615 13.167 44.1442 12.5396 36.7268C16.6152 36.6793 20.6911 36.6317 24.7669 36.5843C24.7753 36.8997 24.7822 37.2204 24.788 37.5457C24.7931 37.8395 24.7973 38.1366 24.8005 38.4377L20.3456 38.5419L18.0278 38.2743C18.0278 38.2743 18.0924 38.3988 18.2387 38.5913L13.3036 38.7068C13.2487 38.708 13.2053 38.7535 13.2066 38.8083C13.2079 38.8622 13.2521 38.9053 13.3058 38.9053C13.3066 38.9053 13.3074 38.9053 13.3082 38.9051L18.3972 38.786C18.9849 39.4648 20.3384 40.5894 22.9088 40.6891C22.9088 40.6891 23.0759 41.9576 23.2897 43.9513L19.1385 44.1206C19.1105 44.1218 19.0842 44.1349 19.0663 44.1563C19.0484 44.178 19.0404 44.2064 19.0443 44.234L19.1426 44.2199L19.1466 44.3191L19.1426 44.2199L19.0443 44.234L19.8682 49.9586C19.8754 50.0078 19.9176 50.0437 19.9665 50.0437C19.9697 50.0437 19.9728 50.0435 19.9762 50.0431L23.8164 49.6666C24.0123 52.2334 24.1685 55.0558 24.1912 57.714C24.1912 57.714 24.1912 57.7136 24.1912 57.714C20.9345 58.1356 17.6784 58.5572 14.4217 58.9788ZM25.5003 57.5447L35.2831 56.278L35.3919 56.2639L35.7932 52.6164C35.7972 52.6168 35.8013 52.6172 35.8053 52.6172L35.8228 52.616L35.8577 52.6105C36.3356 53.5789 36.7791 54.7336 37.1893 56.0313L42.7895 55.3063L43.2692 55.2441L48.5506 54.5604C48.2993 53.2966 48.0482 52.0003 47.8144 50.742L46.8639 41.5179C47.0955 41.515 47.3274 41.512 47.5588 41.5086C47.9266 45.8544 48.2942 50.2003 48.6616 54.5459C40.941 55.5456 33.2209 56.545 25.5003 57.5445M20.0512 49.8365L19.2565 44.3145L23.3109 44.149C23.4671 45.6215 23.6457 47.4631 23.8013 49.4687L20.0512 49.8365ZM47.344 48.1131C46.9842 46.0078 46.7228 44.1947 46.6636 43.0935C46.6384 42.6251 46.6091 42.0961 46.5765 41.5217C46.6059 41.5213 46.6353 41.5209 46.6646 41.5205L47.344 48.1131ZM24.8055 39.0568L21.7758 38.707L24.8025 38.6362C24.8037 38.7757 24.8047 38.9158 24.8055 39.0568Z" fill="url(#paint0_linear_124_15565)"/>
<path d="M13.3081 38.9051L46.5328 38.1277C46.5877 38.1265 46.631 38.0808 46.6298 38.026C46.6284 37.9713 46.583 37.928 46.5282 37.9292L13.3035 38.7068C13.2487 38.708 13.2052 38.7535 13.2066 38.8083C13.2079 38.863 13.2533 38.9065 13.3081 38.9051Z" fill="white"/>
<path d="M13.9752 37.8556C13.98 37.9636 13.8961 38.0549 13.7882 38.0596C13.6801 38.0642 13.5888 37.9804 13.5842 37.8725C13.5795 37.7645 13.6633 37.6732 13.7713 37.6684C13.8793 37.6639 13.9705 37.7476 13.9752 37.8556Z" fill="#EC1D27"/>
<path d="M14.6994 37.8242C14.7041 37.9324 14.6203 38.0237 14.5123 38.0282C14.4043 38.033 14.3129 37.9492 14.3083 37.8413C14.3036 37.7331 14.3874 37.6418 14.4954 37.6372C14.6034 37.6327 14.6948 37.7162 14.6994 37.8242Z" fill="#F9A72D"/>
<path d="M15.4236 37.7931C15.4282 37.9011 15.3445 37.9924 15.2364 37.9971C15.1285 38.0017 15.0371 37.9179 15.0324 37.81C15.0278 37.702 15.1116 37.6107 15.2196 37.6059C15.3277 37.6014 15.4189 37.6851 15.4236 37.7931Z" fill="#41B93C"/>
<path d="M35.5538 39.4754L35.5558 39.5746L46.4415 39.3531L47.8371 52.8945L37.704 53.8806L35.6521 39.4613L35.5538 39.4754L35.5558 39.5746L35.5538 39.4754L35.4556 39.4892L37.521 54.0024C37.5283 54.055 37.576 54.0923 37.6287 54.0872L47.9556 53.0825C47.9819 53.0799 48.006 53.067 48.0228 53.0465C48.0395 53.0259 48.0474 52.9999 48.0447 52.9735L46.6295 39.2417C46.6243 39.1905 46.5803 39.1516 46.5289 39.1528L35.5518 39.3761C35.5235 39.3767 35.4967 39.3894 35.4782 39.411C35.4597 39.4327 35.4516 39.4613 35.4556 39.4892L35.5538 39.4754Z" fill="white"/>
<path d="M35.818 41.4189L46.7218 41.1873C46.7768 41.1861 46.8203 41.1407 46.8191 41.0859C46.8179 41.0311 46.7724 40.9876 46.7177 40.9888L35.8139 41.2204C35.7591 41.2216 35.7156 41.2669 35.7168 41.3217C35.718 41.3765 35.7633 41.4199 35.818 41.4189Z" fill="white"/>
<path d="M19.1427 44.2199L19.1467 44.3191L32.7303 43.7645L33.2668 48.5408L20.0513 49.8365L19.2409 44.2058L19.1427 44.2199L19.1467 44.3191L19.1427 44.2199L19.0444 44.2339L19.8683 49.9585C19.8759 50.0109 19.9235 50.0483 19.9763 50.0431L33.3865 48.7284C33.4127 48.7258 33.4371 48.7127 33.4538 48.692C33.4705 48.6716 33.4784 48.645 33.4754 48.6186L32.9173 43.6506C32.9114 43.5988 32.8667 43.5603 32.8145 43.5625L19.1386 44.1206C19.1107 44.1218 19.0843 44.1349 19.0664 44.1563C19.0485 44.178 19.0405 44.2064 19.0444 44.2339L19.1427 44.2199Z" fill="white"/>
<path d="M11.0735 50.0624C10.9776 50.0705 10.8923 49.9986 10.8842 49.9026L10.0109 39.6514C10.0027 39.5553 10.0745 39.4702 10.1706 39.4619C10.2666 39.4537 10.3519 39.5258 10.36 39.6216L11.2333 49.8728C11.2414 49.9689 11.1696 50.0542 11.0735 50.0624Z" fill="#3B393D"/>
<path d="M29.9165 76.1322V76.5816L45.0414 80L64.9366 70.146V69.9223L52.8024 68.8336L29.9165 76.1322Z" fill="#BBBCBD"/>
<path d="M29.9165 76.1321L52.7258 68.0415L64.9366 69.9223L45.0829 79.7445L29.9165 76.1321Z" fill="#F4F6F5"/>
<path d="M51.6528 71.0925L52.5091 71.3009L53.3784 70.899L52.568 70.7009L51.6528 71.0925Z" fill="#8F9195"/>
<path d="M49.3188 71.34L50.2346 71.5631L51.1532 71.1721L50.3029 70.9643L49.3188 71.34Z" fill="#8F9195"/>
<path d="M48.0137 71.838L49.015 72.0819L49.9338 71.6909L48.9979 71.4624L48.0137 71.838Z" fill="#8F9195"/>
<path d="M46.709 72.3362L47.7959 72.6008L48.7148 72.2098L47.6936 71.9605L46.709 72.3362Z" fill="#8F9195"/>
<path d="M45.4038 72.8344L46.5762 73.1196L47.4952 72.7288L46.3887 72.4583L45.4038 72.8344Z" fill="#8F9195"/>
<path d="M55.8417 71.5007L54.6665 71.2137L53.8174 71.6197L54.9974 71.9069L55.8417 71.5007Z" fill="#8F9195"/>
<path d="M52.7026 71.3482L53.626 71.573L54.4783 71.1677L53.569 70.9454L52.7026 71.3482Z" fill="#8F9195"/>
<path d="M53.5903 72.5841L52.4052 72.2945L51.5557 72.7005L52.746 72.9904L53.5903 72.5841Z" fill="#8F9195"/>
<path d="M52.4644 73.1259L51.2743 72.8351L50.4248 73.241L51.6199 73.5322L52.4644 73.1259Z" fill="#8F9195"/>
<path d="M54.716 72.0424L53.536 71.7542L52.6865 72.1602L53.8717 72.4487L54.716 72.0424Z" fill="#8F9195"/>
<path d="M44.0986 73.3324L45.3566 73.6388L46.276 73.2476L45.0839 72.9563L44.0986 73.3324Z" fill="#8F9195"/>
<path d="M50.437 71.6123L51.353 71.8353L52.2224 71.4333L51.3524 71.2207L50.437 71.6123Z" fill="#8F9195"/>
<path d="M40.6664 76.7774L39.2002 76.4193L38.2832 76.8115L39.796 77.1801L40.6664 76.7774Z" fill="#8F9195"/>
<path d="M47.5894 76.8353L45.9281 76.4294L45.0859 76.8365L46.7663 77.2457L47.5894 76.8353Z" fill="#8F9195"/>
<path d="M43.4577 77.4596L42.2275 77.1589L41.3774 77.5652L42.6128 77.8661L43.4577 77.4596Z" fill="#8F9195"/>
<path d="M44.5834 76.9177L43.3582 76.6184L42.5083 77.0245L43.7385 77.3242L44.5834 76.9177Z" fill="#8F9195"/>
<path d="M46.4901 77.3835L44.8058 76.9721L43.9639 77.3789L45.667 77.7938L46.4901 77.3835Z" fill="#8F9195"/>
<path d="M41.9984 77.103L40.8986 76.8342L40.0312 77.2375L41.1453 77.5087L41.9984 77.103Z" fill="#8F9195"/>
<path d="M40.1836 74.8267L41.698 75.1953L42.6178 74.8041L41.1696 74.4504L40.1836 74.8267Z" fill="#8F9195"/>
<path d="M36.2686 76.3209L38.0394 76.7522L38.9596 76.3607L37.2554 75.9443L36.2686 76.3209Z" fill="#8F9195"/>
<path d="M41.4888 74.3284L42.9176 74.6764L43.8372 74.2852L42.4746 73.9523L41.4888 74.3284Z" fill="#8F9195"/>
<path d="M38.8789 75.3249L40.4787 75.7145L41.3986 75.3229L39.8652 74.9481L38.8789 75.3249Z" fill="#8F9195"/>
<path d="M37.5737 75.823L39.259 76.2334L40.1792 75.8418L38.5604 75.4464L37.5737 75.823Z" fill="#8F9195"/>
<path d="M42.7935 73.8305L44.1368 74.1576L45.0563 73.7662L43.7789 73.4544L42.7935 73.8305Z" fill="#8F9195"/>
<path d="M49.2217 72.1323L50.1974 72.3698L51.0668 71.9678L50.1375 71.7406L49.2217 72.1323Z" fill="#8F9195"/>
<path d="M51.0744 72.7864L50.1134 72.5516L49.2466 72.9542L50.2219 73.1919L51.0744 72.7864Z" fill="#8F9195"/>
<path d="M45.5757 73.6919L46.7304 73.9731L47.6 73.5708L46.4915 73.3001L45.5757 73.6919Z" fill="#8F9195"/>
<path d="M48.0063 72.6523L49.0416 72.9045L49.9112 72.5021L48.9221 72.2604L48.0063 72.6523Z" fill="#8F9195"/>
<path d="M48.8056 73.8655L47.8096 73.6224L46.9429 74.0251L47.9529 74.271L48.8056 73.8655Z" fill="#8F9195"/>
<path d="M46.791 73.1723L47.886 73.4388L48.7558 73.0367L47.707 72.7805L46.791 73.1723Z" fill="#8F9195"/>
<path d="M49.94 73.3261L48.9613 73.0869L48.0947 73.4898L49.0875 73.7316L49.94 73.3261Z" fill="#8F9195"/>
<path d="M47.6707 74.4049L46.6573 74.1575L45.7905 74.5604L46.8181 74.8107L47.6707 74.4049Z" fill="#8F9195"/>
<path d="M53.3437 71.7072L52.417 71.4809L51.5508 71.8834L52.4912 72.1124L53.3437 71.7072Z" fill="#8F9195"/>
<path d="M50.3989 72.4188L51.3568 72.6522L52.2091 72.2467L51.2653 72.0163L50.3989 72.4188Z" fill="#8F9195"/>
<path d="M43.4868 75.6311L44.5487 75.8899L45.4016 75.4842L44.3538 75.2282L43.4868 75.6311Z" fill="#8F9195"/>
<path d="M46.5364 74.9447L45.5061 74.6928L44.6392 75.0959L45.6838 75.3503L46.5364 74.9447Z" fill="#8F9195"/>
<path d="M46.835 75.8342L45.6197 75.5374L44.77 75.9435L45.9901 76.2407L46.835 75.8342Z" fill="#8F9195"/>
<path d="M44.2672 76.0237L43.2019 75.7636L42.335 76.1665L43.4145 76.4293L44.2672 76.0237Z" fill="#8F9195"/>
<path d="M45.7093 76.3761L44.4893 76.078L43.6392 76.4843L44.8646 76.7826L45.7093 76.3761Z" fill="#8F9195"/>
<path d="M50.2125 74.2092L49.0123 73.9161L48.1626 74.3222L49.3678 74.6157L50.2125 74.2092Z" fill="#8F9195"/>
<path d="M47.9612 75.2927L46.7511 74.9968L45.9014 75.403L47.1165 75.6992L47.9612 75.2927Z" fill="#8F9195"/>
<path d="M49.0868 74.7508L47.8814 74.4565L47.0317 74.8626L48.2421 75.1573L49.0868 74.7508Z" fill="#8F9195"/>
<path d="M43.1445 74.7321L44.4186 75.0421L45.2887 74.64L44.0609 74.3398L43.1445 74.7321Z" fill="#8F9195"/>
<path d="M41.9292 75.2519L43.263 75.5767L44.1331 75.1743L42.8456 74.8597L41.9292 75.2519Z" fill="#8F9195"/>
<path d="M44.3604 74.2118L45.5747 74.5077L46.4446 74.1054L45.2763 73.82L44.3604 74.2118Z" fill="#8F9195"/>
<path d="M40.7139 75.7717L42.1074 76.1111L42.9776 75.7085L41.6305 75.3795L40.7139 75.7717Z" fill="#8F9195"/>
<path d="M39.4985 76.2917L40.9516 76.6456L41.822 76.2431L40.4151 75.8993L39.4985 76.2917Z" fill="#8F9195"/>
<path d="M43.133 76.5634L42.0503 76.2988L41.1831 76.7017L42.2799 76.9689L43.133 76.5634Z" fill="#8F9195"/>
<path d="M51.3385 73.6676L50.1434 73.3756L49.2939 73.7815L50.4942 74.0739L51.3385 73.6676Z" fill="#8F9195"/>
<path d="M45.3906 77.9318L43.6835 77.5146L42.8413 77.9219L44.5673 78.342L45.3906 77.9318Z" fill="#8F9195"/>
<path d="M46.7064 77.4364L45.8862 77.8475L47.1126 78.1462L47.9419 77.7383L46.7064 77.4364Z" fill="#8F9195"/>
<path d="M46.8325 78.2839L45.6107 77.9854L44.7905 78.3962L46.0035 78.6918L46.8325 78.2839Z" fill="#8F9195"/>
<path d="M47.8021 76.8874L46.9819 77.2982L48.2222 77.6003L49.0513 77.1924L47.8021 76.8874Z" fill="#8F9195"/>
<path d="M48.8978 76.3381L48.0776 76.7492L49.3316 77.0547L50.1607 76.6468L48.8978 76.3381Z" fill="#8F9195"/>
<path d="M39.5106 77.312L37.9847 76.9393L37.0298 77.3476L38.6385 77.7152L39.5106 77.312Z" fill="#8F9195"/>
<path d="M36.0113 76.2583L37.0019 75.8824L36.2048 75.6877L35.2197 76.0656L36.0113 76.2583Z" fill="#8F9195"/>
<path d="M48.6889 76.2871L47.0503 75.8869L46.2085 76.294L47.8658 76.6978L48.6889 76.2871Z" fill="#8F9195"/>
<path d="M42.3317 78.001L41.0964 77.6994L40.2788 78.09L41.5453 78.3794L42.3317 78.001Z" fill="#8F9195"/>
<path d="M40.8639 77.6426L39.7468 77.3697L38.8828 77.771L40.0384 78.0353L40.8639 77.6426Z" fill="#8F9195"/>
<path d="M36.7763 77.2897L37.7403 76.8796L35.9506 76.4423L34.8711 76.8544L36.7763 77.2897Z" fill="#8F9195"/>
<path d="M35.6928 76.3792L34.9044 76.1867L33.8013 76.6099L34.6025 76.7928L35.6928 76.3792Z" fill="#8F9195"/>
<path d="M51.7263 70.2944L52.6395 69.948L51.7029 69.7408L50.8296 70.0761L51.7263 70.2944Z" fill="#8F9195"/>
<path d="M57.2331 70.9635L56.3086 71.4103L57.7601 71.7638L58.71 71.29L57.2331 70.9635Z" fill="#8F9195"/>
<path d="M44.5148 78.5345L43.7969 78.894L45.0223 79.1741L45.7227 78.8295L44.5148 78.5345Z" fill="#8F9195"/>
<path d="M57.9404 71.8079L59.3179 72.1433L60.3262 71.6475L58.8929 71.3305L57.9404 71.8079Z" fill="#8F9195"/>
<path d="M57.6645 71.946L56.8447 72.3568L58.2085 72.6891L59.0372 72.2814L57.6645 71.946Z" fill="#8F9195"/>
<path d="M56.569 72.4949L55.749 72.9057L57.0991 73.2346L57.9278 72.827L56.569 72.4949Z" fill="#8F9195"/>
<path d="M44.2915 78.4798L42.5616 78.0573L41.7827 78.4338L43.5665 78.8414L44.2915 78.4798Z" fill="#8F9195"/>
<path d="M57.4832 71.9017L56.0277 71.5462L55.1865 71.9531L56.6606 72.312L57.4832 71.9017Z" fill="#8F9195"/>
<path d="M56.3841 72.4498L54.9058 72.0887L54.0645 72.4956L55.5614 72.8602L56.3841 72.4498Z" fill="#8F9195"/>
<path d="M55.8362 70.6548L54.9482 71.0789L56.1235 71.3654L57.0448 70.9218L55.8362 70.6548Z" fill="#8F9195"/>
<path d="M53.8545 70.8127L54.7604 71.0333L55.6454 70.6126L54.7238 70.4087L53.8545 70.8127Z" fill="#8F9195"/>
<path d="M52.8682 70.5725L53.6647 70.7664L54.5306 70.3658L53.753 70.1939L52.8682 70.5725Z" fill="#8F9195"/>
<path d="M55.2846 72.9981L53.7835 72.6315L52.9419 73.0382L54.4619 73.4083L55.2846 72.9981Z" fill="#8F9195"/>
<path d="M53.0858 74.0945L51.5388 73.7163L50.6973 74.1235L52.2631 74.5048L53.0858 74.0945Z" fill="#8F9195"/>
<path d="M49.788 75.739L48.1723 75.3442L47.3306 75.7513L48.9651 76.1494L49.788 75.739Z" fill="#8F9195"/>
<path d="M50.8872 75.1908L49.2946 74.8018L48.4526 75.2087L50.0641 75.6011L50.8872 75.1908Z" fill="#8F9195"/>
<path d="M37.3211 75.7614L38.3115 75.3855L37.5057 75.1886L36.521 75.5667L37.3211 75.7614Z" fill="#8F9195"/>
<path d="M54.1855 73.5463L52.6612 73.1739L51.8198 73.5808L53.3628 73.9565L54.1855 73.5463Z" fill="#8F9195"/>
<path d="M51.9292 70.3438L52.6739 70.525L53.555 70.1503L52.8466 69.9935L51.9292 70.3438Z" fill="#8F9195"/>
<path d="M51.9865 74.6425L50.4168 74.2593L49.5752 74.666L51.1638 75.053L51.9865 74.6425Z" fill="#8F9195"/>
<path d="M50.624 70.8418L51.4543 71.0441L52.3726 70.6532L51.6077 70.4662L50.624 70.8418Z" fill="#8F9195"/>
<path d="M41.25 74.2704L42.2394 73.8951L41.4072 73.6916L40.4233 74.0692L41.25 74.2704Z" fill="#8F9195"/>
<path d="M39.9405 74.7675L40.9301 74.3919L40.1068 74.1906L39.1226 74.5681L39.9405 74.7675Z" fill="#8F9195"/>
<path d="M43.869 73.2766L44.8579 72.9013L44.0082 72.6937L43.0249 73.0708L43.869 73.2766Z" fill="#8F9195"/>
<path d="M38.6305 75.2644L39.6205 74.8887L38.8058 74.6898L37.8213 75.0675L38.6305 75.2644Z" fill="#8F9195"/>
<path d="M42.5595 73.7733L43.5486 73.398L42.7078 73.1926L41.7241 73.5699L42.5595 73.7733Z" fill="#8F9195"/>
<path d="M49.1073 71.2887L50.0951 70.9137L49.2103 70.6974L48.228 71.0745L49.1073 71.2887Z" fill="#8F9195"/>
<path d="M49.5288 70.5752L50.417 70.7914L51.4043 70.4166L50.5105 70.1985L49.5288 70.5752Z" fill="#8F9195"/>
<path d="M45.1788 72.7795L46.1674 72.4042L45.309 72.1944L44.3257 72.5718L45.1788 72.7795Z" fill="#8F9195"/>
<path d="M47.798 71.7856L48.7858 71.4105L47.9097 71.1966L46.9272 71.5734L47.798 71.7856Z" fill="#8F9195"/>
<path d="M46.4883 72.2825L47.4765 71.9074L46.6091 71.6954L45.6265 72.0725L46.4883 72.2825Z" fill="#8F9195"/>
<path d="M55.4457 73.04L49.0923 76.181L50.36 76.4896L56.7221 73.3518L55.4457 73.04Z" fill="#8F9195"/>
<path d="M52.0723 69.6108L54.333 68.7315L59.7874 69.4673L57.0448 70.7008L52.0723 69.6108Z" fill="#8F9195"/>
<path d="M59.0371 70.0943L60.0926 69.5929L63.4972 70.1577L60.5769 71.4908L59.2493 71.1182L60.9904 70.3778L59.0371 70.0943Z" fill="#8F9195"/>
<path d="M41.6594 72.3234L39.5747 73.0739L41.0119 73.3937L43.035 72.6341L41.6594 72.3234Z" fill="#8F9195"/>
<path d="M38.8963 73.3181L36.8101 74.0695L38.3181 74.4049L40.3426 73.6449L38.8963 73.3181Z" fill="#8F9195"/>
<path d="M35.6247 75.4161L37.6504 74.6558L36.1334 74.313L34.0454 75.0648L35.6247 75.4161Z" fill="#8F9195"/>
<path d="M33.3703 75.3079L31.4546 75.9976L33.1165 76.3578L34.9576 75.6667L33.3703 75.3079Z" fill="#8F9195"/>
<path d="M44.4224 71.3284L42.3394 72.0783L43.7055 72.3826L45.7276 71.6232L44.4224 71.3284Z" fill="#8F9195"/>
<path d="M47.1855 70.3335L45.104 71.0831L46.3993 71.3713L48.42 70.6128L47.1855 70.3335Z" fill="#8F9195"/>
<path d="M47.8687 70.0876L49.0929 70.3599L51.1126 69.6019L49.9483 69.3389L47.8687 70.0876Z" fill="#8F9195"/>
<path d="M54.0563 68.4966L52.7898 68.3155L50.6333 69.092L51.7865 69.3486L54.0563 68.4966Z" fill="#8F9195"/>
<path d="M24.1912 57.714C24.1686 55.0557 24.0124 52.2333 23.8165 49.6666L24.5929 49.5905C24.479 52.479 24.3335 55.2778 24.1912 57.7136M23.8014 49.4687C23.6458 47.463 23.4671 45.6215 23.3109 44.149L24.7622 44.0898C24.7255 45.846 24.6691 47.6329 24.6006 49.3903L23.8014 49.4687ZM23.2897 43.9513C23.0759 41.9575 22.9088 40.689 22.9088 40.689C20.3385 40.5894 18.9849 39.4648 18.3972 38.786L21.7759 38.707L24.8055 39.0567C24.8136 40.4185 24.8027 41.8444 24.7773 43.2989C24.7739 43.4958 24.7702 43.693 24.7662 43.8909L23.2897 43.9513ZM18.2387 38.5913C18.0924 38.3988 18.0278 38.2743 18.0278 38.2743L20.3456 38.5419L18.2387 38.5913Z" fill="url(#paint1_linear_124_15565)"/>
<path d="M18.3973 38.786C18.3364 38.7159 18.2837 38.6502 18.2388 38.5913L20.3457 38.5419L21.7759 38.707L18.3973 38.786Z" fill="#7A7D82"/>
<path d="M23.8163 49.6666C23.8114 49.6005 23.8062 49.5346 23.8012 49.4687L24.6005 49.3903C24.5979 49.4568 24.5954 49.5243 24.5928 49.5906L23.8163 49.6666ZM23.3108 44.149C23.3036 44.0821 23.2967 44.0166 23.2896 43.9513L24.7661 43.891C24.7649 43.9573 24.7635 44.0234 24.7621 44.0899L23.3108 44.149Z" fill="#7A7D82"/>
<path d="M24.1914 57.714C24.6275 57.6576 25.0645 57.6011 25.5006 57.5445V57.5447L24.1914 57.714Z" fill="#100F0D"/>
<path d="M24.1914 57.714L25.5006 57.5445V57.5447C25.0645 57.6011 24.6275 57.6576 24.1914 57.714Z" fill="url(#paint2_linear_124_15565)"/>
<path d="M58.7855 9.91142C58.8381 9.55019 58.8959 9.19014 58.9552 8.83049C59.0698 8.13243 59.1061 7.03364 59.9155 6.74763C59.9508 6.73532 59.987 6.7248 60.0235 6.71686C60.1723 6.68431 60.3301 6.69265 60.475 6.74028C60.5641 6.76966 60.6499 6.81511 60.7138 6.88378C60.7989 6.97588 60.8378 7.10073 60.8672 7.22259C60.9504 7.56716 60.9796 7.92422 60.9532 8.27752C60.9452 8.38629 60.942 8.51808 61.0333 8.57803C61.2201 8.70029 61.4563 8.46549 61.5494 8.3331C62.225 7.37423 62.9763 6.41974 64.006 5.85783C64.2488 5.72525 64.555 5.61847 64.7906 5.76336C64.9675 5.87232 65.0445 6.0978 65.0328 6.30521C65.021 6.51282 64.9359 6.70793 64.8519 6.89807C65.2604 6.82841 65.6516 6.4769 66.0365 6.62993C66.3147 6.74068 66.4368 7.08683 66.3886 7.38257C66.34 7.67811 66.1629 7.93395 65.9904 8.17888C66.2621 7.91668 66.6347 7.63385 66.9791 7.78807C67.2176 7.89485 67.329 8.18543 67.307 8.44583C67.2849 8.70624 67.1581 8.94442 67.0338 9.17426C67.2722 9.15263 67.4584 8.88885 67.6948 8.92775C67.8282 8.94978 67.9294 9.07026 67.9653 9.20086C68.0012 9.33146 67.9834 9.4704 67.9562 9.60318C67.8355 10.1945 67.5424 10.7345 67.2409 11.2575C66.6307 12.3162 65.971 13.3463 65.2646 14.3435C65.0079 14.7057 64.7299 15.0769 64.3325 15.2746C63.7375 15.5701 63.0231 15.41 62.3943 15.196C61.5057 14.8941 60.6497 14.4965 59.8458 14.0124C59.5884 13.8574 59.3338 13.6911 59.1283 13.4716C58.6911 13.0034 58.5551 12.3613 58.5902 11.7384C58.6248 11.1263 58.6974 10.5178 58.7855 9.91142Z" fill="#EEA88E"/>
<path d="M66.4079 11.6161L66.4309 11.6113C66.4609 11.5986 66.4752 11.5641 66.4623 11.5339C65.6203 9.53719 62.5732 8.15775 62.5426 8.14425C62.5127 8.13214 62.4777 8.14445 62.4646 8.17402C62.4513 8.20379 62.4646 8.23892 62.4944 8.25202C62.5246 8.26552 65.5294 9.62612 66.3537 11.58C66.363 11.6026 66.385 11.6161 66.4079 11.6161Z" fill="#B5674F"/>
<path d="M63.5396 8.80066L63.5807 8.78398C64.1787 8.20303 64.8742 6.97919 64.9036 6.92719C64.9197 6.89881 64.9093 6.86269 64.8812 6.84661C64.8528 6.83093 64.8169 6.84065 64.8006 6.86903C64.7934 6.88154 64.0841 8.13019 63.4983 8.69923C63.4749 8.72206 63.4745 8.75917 63.4971 8.78259L63.5396 8.80066Z" fill="#B5674F"/>
<path d="M64.7985 9.66858L64.8344 9.65627C65.5424 9.11144 66.0432 8.21411 66.0642 8.176C66.0801 8.14742 66.0696 8.11169 66.041 8.09581C66.0132 8.07954 65.9763 8.09025 65.9606 8.11903C65.9556 8.12796 65.4503 9.03324 64.7623 9.56279C64.7365 9.58264 64.7316 9.61975 64.7514 9.64556L64.7985 9.66858Z" fill="#B5674F"/>
<path d="M65.8548 10.708L65.8914 10.6955C66.5293 10.1965 67.0632 9.24342 67.0858 9.20293C67.1015 9.17454 67.0914 9.13862 67.0628 9.12274C67.0344 9.10666 66.9981 9.11678 66.9824 9.14576C66.9771 9.15529 66.4374 10.1183 65.8185 10.6022C65.7929 10.6225 65.7884 10.6596 65.8084 10.6854L65.8548 10.708Z" fill="#B5674F"/>
<path d="M62.3547 11.1494C62.3809 11.1494 62.4047 11.1317 62.4116 11.1054C62.5325 10.6488 62.6145 10.0135 62.3195 9.58062C62.1903 9.39107 61.9428 9.2565 61.7036 9.12589C61.3875 8.95361 61.0608 8.77558 61.0304 8.48361C61.0274 8.45126 60.9972 8.42823 60.9655 8.43101C60.9331 8.43438 60.9097 8.46317 60.9129 8.49591C60.9494 8.84961 61.3039 9.04273 61.6471 9.2297C61.8739 9.35355 62.1089 9.48118 62.2217 9.64691C62.4918 10.0433 62.412 10.6423 62.2973 11.0752C62.289 11.1067 62.308 11.1391 62.3396 11.1474L62.3547 11.1494Z" fill="#B5674F"/>
<path d="M36.521 21.7875C37.1348 19.9287 39.139 18.9204 40.9982 19.5331C41.5129 19.703 53.655 23.5583 58.5829 11.8031C61.4686 11.3313 65.1209 14.5437 65.1209 14.5437C61.2322 23.8201 54.18 26.5181 48.9486 27.1481C47.9663 27.2664 47.0126 27.3152 46.1085 27.3152C42.0132 27.3152 38.9318 26.3164 38.7752 26.2648C36.9166 25.6509 35.9071 23.6465 36.521 21.7875Z" fill="white"/>
<path d="M40.9983 19.5331C40.8505 19.4845 40.7018 19.4496 40.5531 19.421L36.4757 21.9524C35.9722 23.7636 36.9715 25.669 38.7753 26.2648C38.9319 26.3164 42.0134 27.3152 46.1086 27.3152C47.0127 27.3152 47.9664 27.2664 48.9487 27.1481C49.3623 27.0982 49.7885 27.0337 50.2224 26.9557C48.5633 24.2639 48.0883 21.7678 47.9807 20.1583C44.3324 20.5954 41.252 19.6169 40.9983 19.5331Z" fill="#E9EAEA"/>
<path d="M46.2067 45.25C46.2067 45.25 53.7562 79.4275 51.5784 96.5974C51.5784 96.5974 46.255 98.6173 42.1412 96.5974C42.1412 96.5974 41.1286 63.0822 35.8051 52.5055L31.0102 96.0925C31.0102 96.0925 28.189 98.6168 22.1396 95.5867L26.5763 43.3081L46.2067 45.25Z" fill="#EF3357"/>
<path d="M35.8049 52.6172L35.8224 52.616L36.3797 52.5283C36.4162 52.5225 36.4476 52.4987 36.4635 52.4653C37.5369 50.1681 37.6423 46.9863 37.6429 46.9549C37.6448 46.8932 37.5964 46.842 37.5349 46.84C37.4634 46.8463 37.4219 46.8864 37.42 46.948C37.4188 46.9795 37.3166 50.0661 36.2862 52.3169L35.9312 52.3731C36.0044 51.6506 36.3005 48.5003 36.056 46.9343C36.0461 46.8735 35.9861 46.8354 35.9284 46.8412C35.8676 46.8507 35.8258 46.9077 35.8353 46.9688C36.102 48.6775 35.6981 52.4556 35.694 52.4935C35.6904 52.5283 35.7027 52.5626 35.7281 52.5862C35.7487 52.6063 35.7765 52.6172 35.8049 52.6172Z" fill="#C0203B"/>
<path d="M33.414 53.4764C33.4364 53.4764 33.4588 53.4699 33.4787 53.456C35.3392 52.1393 39.2626 52.461 39.3015 52.4646C39.3638 52.4737 39.4168 52.4243 39.4222 52.363C39.4275 52.3016 39.3823 52.2476 39.3208 52.2423C39.1568 52.2278 35.2765 51.9094 33.3494 53.2738C33.299 53.3095 33.2871 53.379 33.3229 53.4294C33.3449 53.4604 33.379 53.4764 33.414 53.4764Z" fill="#C0203B"/>
<path d="M36.2797 49.7427C36.2279 49.7427 36.1757 49.7425 36.1235 49.7421C36.1364 49.4376 36.146 49.1278 36.1495 48.8231C36.5245 48.8007 36.8915 48.7689 37.2495 48.7292C37.2053 49.0406 37.1497 49.3775 37.08 49.727C36.8184 49.7375 36.5517 49.7427 36.2797 49.7427Z" fill="#E72138"/>
<path d="M35.8979 49.7393C35.7684 49.7369 35.6382 49.7333 35.5064 49.7285C35.3594 49.7232 35.2135 49.7166 35.0692 49.7093C35.0634 49.4274 35.0583 49.1444 35.0537 48.8616C35.0549 48.8616 35.0561 48.8616 35.0575 48.8616C35.3508 48.8586 35.64 48.8497 35.9244 48.8356C35.9203 49.1345 35.911 49.4394 35.8979 49.7393ZM37.3089 49.7166C37.3787 49.3602 37.4341 49.0178 37.4782 48.7028C39.0398 48.513 40.4326 48.1738 41.6225 47.7876C41.6747 48.1552 41.729 48.5331 41.7848 48.9171C40.5098 49.328 39.0202 49.6291 37.3089 49.7166Z" fill="#E72138"/>
<path d="M36.1234 49.7419C36.0484 49.7415 35.9738 49.7406 35.8979 49.7392C35.911 49.4393 35.9204 49.1344 35.9245 48.8355C35.9998 48.8317 36.0748 48.8275 36.1494 48.823C36.1459 49.1276 36.1363 49.4375 36.1234 49.7419ZM37.0799 49.7269C37.1496 49.3773 37.2051 49.0405 37.2494 48.7291C37.3264 48.7206 37.402 48.7118 37.4783 48.7027C37.4342 49.0177 37.3788 49.3601 37.309 49.7165C37.2331 49.7205 37.1567 49.7239 37.0799 49.7269Z" fill="#B11C27"/>
<path d="M45.1977 24.4741L46.2322 45.6181C46.2322 45.6181 41.8299 48.792 35.0575 48.8615C28.2849 48.9308 26.4496 46.1669 26.4496 46.1669C26.4496 46.1669 25.1674 25.4762 25.168 25.247C25.169 24.9635 25.2708 18.1679 35.1024 18.3237C44.9338 18.4795 45.1977 24.4741 45.1977 24.4741Z" fill="#EF3357"/>
<path d="M42.7895 55.3063C42.4185 53.1377 42.0777 50.9272 41.7852 48.9172C41.9975 48.8487 42.2036 48.7772 42.404 48.7032C42.6658 50.8295 42.9639 53.0872 43.2692 55.2441L42.7895 55.3063Z" fill="#CE2D47"/>
<path d="M41.7849 48.9171C41.7291 48.5331 41.6748 48.1551 41.6226 47.7876C41.8439 47.7157 42.0588 47.6421 42.2658 47.5676C42.3107 47.9414 42.3565 48.3197 42.4038 48.7032C42.2033 48.7772 41.9973 48.8486 41.7849 48.9171Z" fill="#BE1F31"/>
<path d="M41.6225 47.7876C41.2037 44.8411 40.9062 42.4766 40.7944 41.57C41.0719 41.5688 41.3494 41.5674 41.6269 41.566C41.7606 43.1296 41.9873 45.2399 42.2658 47.5677C42.0588 47.6421 41.8438 47.7157 41.6225 47.7876Z" fill="#CE2D47"/>
<path d="M31.2905 14.7569L32.09 18.9909L37.9587 25.3387L37.4758 18.8272L36.8083 15.3692L31.2905 14.7569Z" fill="#EEA88E"/>
<path d="M32.2578 16.002L37.0507 16.6248L37.406 18.4654C34.8274 18.615 32.2578 16.002 32.2578 16.002Z" fill="#C98A74"/>
<path d="M35.406 18.1257L37.8132 17.8855C39.8715 17.6801 41.3877 15.8282 41.1822 13.7698L40.5179 7.11133C40.3125 5.05288 38.4605 3.53687 36.4022 3.7423L33.995 3.98247C31.9368 4.1877 30.421 6.03973 30.626 8.09798L31.2905 14.7568C31.4957 16.8151 33.348 18.3309 35.406 18.1257Z" fill="#EEA88E"/>
<path d="M34.2658 27.5328L29.6699 27.9828L29.786 28.7974L34.4113 28.2474L34.2658 27.5328Z" fill="white"/>
<path d="M38.7205 26.9373L38.7447 26.9323C38.7683 26.922 38.7826 26.898 38.7804 26.8724L38.1463 18.5796C38.1439 18.5464 38.1139 18.5169 38.0814 18.524C38.0482 18.5264 38.0232 18.5554 38.026 18.5887L38.647 26.7106L31.1188 18.6907C31.0954 18.6659 31.0577 18.6653 31.0333 18.688C31.0089 18.711 31.0077 18.7493 31.0305 18.7737L38.6762 26.9184L38.7205 26.9373Z" fill="white"/>
<path d="M41.008 7.58105C41.008 7.58105 39.4263 5.54562 38.3214 5.08038C38.3214 5.08038 39.0774 9.53887 33.6108 10.6535C33.6108 10.6535 34.1925 9.67463 33.9018 8.74415C33.9018 8.74415 34.154 12.0016 30.5532 12.7283C30.5532 12.7283 30.6159 10.9018 29.7728 10.2302C28.9296 9.55832 28.4642 5.77844 30.3543 5.08038C30.3543 5.08038 29.8309 4.87693 29.5983 4.81878C29.5983 4.81878 30.3382 4.17907 31.0587 4.41169C31.0587 4.41169 31.023 3.59752 31.4593 3.21961C31.4593 3.21961 31.5521 3.53937 31.9856 3.53937C32.4187 3.53937 36.6083 1.59107 39.442 3.01597C42.2759 4.44067 42.1536 6.41815 41.008 7.58105Z" fill="#1A1D22"/>
<path d="M29.7405 12.6309C29.8072 13.3006 30.4042 13.7893 31.0739 13.7224C31.7433 13.6557 32.232 13.0587 32.1651 12.3892C32.0984 11.7195 31.5014 11.2309 30.8319 11.2977C30.1622 11.3646 29.6738 11.9615 29.7405 12.6309Z" fill="#EEA88E"/>
<path d="M31.016 13.4086C31.0358 13.4086 31.0553 13.3984 31.0664 13.3802C31.0834 13.352 31.0745 13.3159 31.0463 13.299C30.6968 13.0884 30.5067 12.8419 30.4818 12.5666C30.4388 12.0853 30.9102 11.6651 30.9149 11.6609C30.9393 11.6393 30.9417 11.602 30.9201 11.5774C30.8987 11.5528 30.8615 11.5508 30.8367 11.572C30.8155 11.5909 30.3157 12.0371 30.3641 12.5771C30.3927 12.8923 30.6015 13.169 30.9854 13.4004L31.016 13.4086Z" fill="#B5674F"/>
<path d="M31.371 12.9437L31.3893 12.9407C31.4203 12.9306 31.4373 12.8977 31.4272 12.8665C31.3434 12.6059 31.2045 12.4332 31.0144 12.3528C30.7168 12.2276 30.4108 12.3763 30.3981 12.3824C30.3689 12.3969 30.357 12.4322 30.3713 12.4614C30.3856 12.4914 30.4219 12.5031 30.4503 12.4884C30.4534 12.487 30.7226 12.3572 30.9693 12.4618C31.1255 12.5285 31.242 12.6768 31.3149 12.9026C31.323 12.9278 31.3462 12.9437 31.371 12.9437Z" fill="#B5674F"/>
<path d="M31.8595 17.771C31.8595 17.771 36.0713 26.2769 35.2699 37.5685C34.4686 48.8601 35.9042 66.6762 35.9042 66.6762C35.9042 66.6762 30.9303 67.4849 23.6533 65.7666C23.6533 65.7666 25.5736 41.3115 24.4619 31.6577C23.35 22.004 25.9162 18.7933 31.8595 17.771Z" fill="white"/>
<path d="M27.1422 47.0242V47.1235H33.7018V48.2195H27.2415V47.0242H27.1422V47.1235V47.0242H27.043V48.418H33.9003V46.925H27.043V47.0242H27.1422Z" fill="#D3D4D3"/>
<path d="M24.6919 34.6052C24.6391 33.5527 24.5663 32.5869 24.4702 31.734C24.5663 32.5869 24.6391 33.5531 24.6921 34.6052H24.6919Z" fill="#ACC6CD"/>
<path d="M24.767 36.5842C24.7487 35.8973 24.7241 35.2357 24.6924 34.6052H24.6926C24.721 35.1681 24.7436 35.7546 24.7611 36.3629H24.7609C24.763 36.4364 24.765 36.5102 24.767 36.5842Z" fill="#100F0D"/>
<path d="M24.7703 36.731H24.7902V37.5646H24.7703V36.731ZM24.7505 36.5722H24.7703V36.731H24.7505V36.5722Z" fill="url(#paint3_linear_124_15565)"/>
<path d="M24.471 31.733C24.4706 31.73 24.4704 31.7271 24.47 31.7241C24.4704 31.7271 24.4706 31.73 24.471 31.733ZM24.47 31.7241C24.4692 31.7177 24.4686 31.7115 24.4678 31.7052C24.4684 31.7111 24.4692 31.7181 24.47 31.7241ZM24.4678 31.7048C24.4674 31.7022 24.4672 31.6996 24.4668 31.697C24.4672 31.7 24.4674 31.7018 24.4678 31.7048ZM24.4666 31.6944C24.466 31.6888 24.4654 31.6836 24.4648 31.6781C24.4654 31.6834 24.466 31.689 24.4666 31.6944ZM24.4642 31.6737C24.464 31.6723 24.4638 31.6709 24.4638 31.6695C24.4638 31.6707 24.464 31.6725 24.4642 31.6737ZM24.4632 31.6655C24.463 31.6629 24.4626 31.6601 24.4624 31.6575C24.4626 31.6605 24.463 31.6625 24.4632 31.6655Z" fill="#ACC6CD"/>
<path d="M31.2618 37.0485L24.761 36.3629C24.7437 35.7546 24.7211 35.168 24.6927 34.6052C24.6397 33.553 24.5669 32.5868 24.4708 31.7339C24.4708 31.7335 24.4708 31.7331 24.4708 31.7329C24.4704 31.7299 24.4702 31.727 24.4698 31.724C24.469 31.718 24.4682 31.7111 24.4676 31.7051C24.4676 31.7049 24.4676 31.7049 24.4676 31.7047C24.4672 31.7018 24.467 31.7 24.4666 31.697C24.4666 31.6962 24.4664 31.6952 24.4664 31.6944C24.4658 31.6891 24.4652 31.6835 24.4646 31.6781C24.4644 31.6768 24.4643 31.6752 24.4641 31.6738C24.4639 31.6726 24.4637 31.6708 24.4637 31.6696C24.4635 31.6682 24.4633 31.667 24.4631 31.6656C24.4629 31.6627 24.4625 31.6607 24.4623 31.6577C24.3821 30.9618 24.3233 30.3033 24.2812 29.6727L29.6702 28.5078C29.6702 28.5078 27.1096 33.0042 32.6465 33.004C32.6604 33.004 32.6748 33.0038 32.6887 33.0038C32.7014 33.0038 32.7135 33.0038 32.726 33.0038C36.6526 33.0038 33.439 35.5702 31.2618 37.0485Z" fill="#D3D4D3"/>
<path d="M24.7904 38.6165H24.8102V39.073H24.7904V38.6165ZM24.7904 38.4379V37.7035H24.7705V37.5447H24.7904V37.6638H24.8102V38.4379" fill="url(#paint4_linear_124_15565)"/>
<path d="M24.8028 38.6362C24.8022 38.5699 24.8014 38.5035 24.8008 38.4376H24.801C24.8018 38.5035 24.8024 38.5701 24.803 38.6362H24.8028Z" fill="#D3D4D3"/>
<path d="M24.7705 43.3008V42.3282H24.7904V39.0533H24.8102V42.3481H24.7904V43.3008" fill="url(#paint5_linear_124_15565)"/>
<path d="M35.0933 41.1189C35.126 40.0876 35.1717 39.0862 35.2326 38.1262L38.0219 40.1215C38.0225 40.1499 38.023 40.1783 38.0236 40.2067C38.0266 40.3397 38.0399 40.4903 38.1282 40.5828C38.1199 40.6779 38.1118 40.7727 38.1036 40.8678C37.4093 40.9091 36.3554 40.9849 35.0933 41.1189Z" fill="#CE2D47"/>
<path d="M24.7773 43.2988C24.8029 41.8446 24.8139 40.4187 24.8059 39.0567C24.8049 38.9162 24.8039 38.7754 24.8027 38.6361C24.8022 38.57 24.8016 38.5035 24.8008 38.4376C24.7976 38.1369 24.7936 37.8392 24.7885 37.5458L29.6701 38.0665C29.6701 38.0665 30.3811 37.6463 31.2617 37.0484L34.152 37.3531L35.2328 38.1262C35.1718 39.0863 35.1262 40.0876 35.0934 41.1189C32.1474 41.4311 28.0668 42.0591 24.7773 43.2988Z" fill="#D3D4D3"/>
<path d="M24.7669 36.5842C24.7649 36.5101 24.7629 36.4362 24.7607 36.3627C24.7631 36.4356 24.7651 36.5107 24.7671 36.5842H24.7669Z" fill="#100F0D"/>
<path d="M24.7703 37.5646V36.731H24.7505V36.5722H24.7703V36.7111H24.7902V37.5646" fill="url(#paint6_linear_124_15565)"/>
<path d="M29.6703 38.0665L24.7886 37.5459C24.7829 37.2196 24.7759 36.9005 24.7674 36.5843C24.7654 36.5108 24.7634 36.4358 24.7612 36.363L31.2619 37.0485C30.3812 37.6463 29.6703 38.0665 29.6703 38.0665Z" fill="#A9ADAC"/>
<path d="M37.4064 18.4653C37.4064 18.4653 39.4863 19.0238 39.9646 22.3736C40.4432 25.7234 41.4481 35.8888 41.4959 39.4434C41.5438 42.9978 43.8408 60.7989 44.9414 65.0576C44.9414 65.0576 48.0996 64.6269 50.4445 63.622C50.4445 63.622 46.9034 47.5438 46.664 43.0935C46.4248 38.6433 45.8028 28.7379 45.755 26.2976C45.7069 23.857 44.5845 19.3976 38.7813 17.6555C38.7813 17.6555 38.3643 17.8244 37.9592 17.8679L37.3042 17.9363L37.4064 18.4653Z" fill="white"/>
<path d="M43.8375 45.9993L43.8516 46.0975L46.4132 45.7325L46.5882 46.5324L44.0145 46.7833L43.9363 45.9895L43.8375 45.9993L43.8516 46.0975L43.8375 45.9993L43.7388 46.009L43.8365 47L46.83 46.7082L46.5676 45.51L43.7295 45.9143L43.7388 46.009L43.8375 45.9993Z" fill="#D3D4D3"/>
<path d="M34.7118 54.1627H34.7116C34.6644 54.1627 34.6259 54.124 34.6259 54.0766C34.6272 52.6658 34.5957 51.0059 34.5621 49.2485C34.5056 46.2766 34.447 43.2038 34.5391 40.923C34.6816 37.3906 34.7257 35.3911 34.0729 32.0342C33.4405 28.7815 30.6739 24.4389 30.6459 24.3952C30.6259 24.3641 30.6282 24.3234 30.6517 24.2946L31.8745 22.7977L30.1066 22.5976C30.0614 22.5924 30.0278 22.5527 30.0304 22.5073L30.2799 18.0913C30.2827 18.0438 30.3228 18.0115 30.3708 18.0105C30.4182 18.0131 30.4544 18.0538 30.4518 18.1012L30.2067 22.4358L32.0506 22.6446C32.0817 22.6482 32.1087 22.6685 32.1206 22.6976C32.1323 22.7268 32.1274 22.7602 32.1075 22.7844L30.8239 24.3553C31.1429 24.8637 33.641 28.9127 34.2416 32.0013C34.898 35.377 34.8539 37.3845 34.711 40.9298C34.6191 43.2057 34.6775 46.2759 34.734 49.2451C34.7676 51.0035 34.7991 52.6644 34.7977 54.0766C34.7977 54.124 34.7592 54.1627 34.7118 54.1627Z" fill="#D3D4D3"/>
<path d="M42.9084 50.4952C42.8661 50.4952 42.8294 50.4643 42.8234 50.421C41.7798 42.9589 41.6085 34.1713 42.1033 30.6457C42.5652 27.3553 42.167 23.7804 42.1099 23.3035L40.6276 22.8116C40.5953 22.8009 40.5724 22.7723 40.5691 22.7386C40.5659 22.7048 40.5828 22.6721 40.6121 22.6554L41.8054 21.977C41.1421 19.7381 39.1414 17.8528 39.1209 17.8337C39.0864 17.8015 39.0844 17.747 39.117 17.7122C39.1491 17.6773 39.2037 17.6757 39.2382 17.7081C39.2591 17.7275 41.3332 19.6822 41.9894 21.9949C42.0001 22.033 41.9836 22.0735 41.9493 22.0931L40.865 22.7094L42.2157 23.1576C42.2468 23.1679 42.2695 23.1953 42.2736 23.228C42.2788 23.2667 42.7702 27.1306 42.2736 30.6697C41.7804 34.1836 41.9521 42.9494 42.9933 50.3974C43.0003 50.4442 42.9673 50.4879 42.9203 50.4942L42.9084 50.4952Z" fill="#D3D4D3"/>
<path d="M43.4581 34.4181C42.8694 34.4181 42.3454 34.1597 41.8986 33.6486C41.8675 33.6129 41.8711 33.5585 41.9068 33.5273C41.9423 33.4961 41.9967 33.4997 42.0281 33.5354C42.4711 34.0426 42.9945 34.2801 43.581 34.2422C44.3807 34.19 45.0992 33.6279 45.3542 33.2455C45.6861 32.7477 45.3211 30.0019 45.1371 28.8872L42.3621 29.0307C42.3163 29.0299 42.2742 28.9966 42.2718 28.9493C42.2694 28.9019 42.3059 28.8616 42.3532 28.859L45.205 28.7117C45.249 28.7111 45.2869 28.7403 45.2941 28.7832C45.3211 28.9416 45.9441 32.6707 45.4975 33.3407C45.2417 33.7242 44.4984 34.3548 43.5923 34.4137C43.5472 34.4165 43.5028 34.4181 43.4581 34.4181Z" fill="#D3D4D3"/>
<path d="M42.2978 29.8051C42.2535 29.8051 42.216 29.7709 42.2122 29.7261C42.2083 29.6788 42.2434 29.6373 42.2908 29.6334C42.375 29.6264 44.3693 29.4611 45.3403 29.5304C45.3877 29.5337 45.4233 29.5748 45.4199 29.6223C45.4165 29.6695 45.3734 29.704 45.3278 29.7018C44.3709 29.6334 42.3256 29.8029 42.3051 29.8049L42.2978 29.8051Z" fill="#D3D4D3"/>
<path d="M63.9992 16.3593C63.9726 16.3593 63.9466 16.3469 63.9298 16.3237C61.882 13.5041 58.226 13.3368 58.1893 13.3356C58.1418 13.3338 58.1047 13.2939 58.1065 13.2467C58.1085 13.2 58.1462 13.1637 58.1924 13.1637H58.1956C58.2331 13.1653 61.9725 13.3362 64.0689 16.2227C64.0967 16.2612 64.0881 16.315 64.0498 16.3428L63.9992 16.3593Z" fill="#D3D4D3"/>
<path d="M34.8062 30.1298C34.6762 30.1842 34.5787 30.1864 34.5716 30.1864C34.5047 30.187 34.4501 30.1336 34.4493 30.0669C34.4487 30.0004 34.5019 29.9452 34.5678 29.9446C34.5817 29.9444 34.7995 29.9319 34.9906 29.6892C35.2242 29.3943 35.4405 28.7317 35.1438 27.2514C34.7268 25.1718 34.0424 22.323 32.9192 21.5961C32.6769 21.4393 32.4308 21.3923 32.1672 21.4522C30.8919 21.7412 30.9572 23.6712 31.0142 25.538C31.0261 25.922 31.0376 26.3021 31.0372 26.6631C31.0354 28.8625 31.1728 29.588 32.8134 29.7599C32.8799 29.767 32.928 29.8262 32.921 29.8928C32.9141 29.9589 32.8551 30.008 32.788 30.0002C30.8779 29.8001 30.7939 28.7756 30.7957 26.663C30.7959 26.3043 30.7844 25.9268 30.7727 25.5455C30.7125 23.5809 30.6502 21.5491 32.1136 21.2164C32.4395 21.1422 32.7551 21.2015 33.0506 21.3931C34.2505 22.1697 34.9551 25.0814 35.3808 27.2038C35.6357 28.4741 35.5654 29.3641 35.1726 29.849C35.0499 30.0002 34.9164 30.0838 34.8062 30.1298Z" fill="#211D1D"/>
<path d="M34.281 29.7835C34.1722 29.7519 34.0563 29.7346 33.9533 29.7767C33.8503 29.8188 33.7649 29.9343 33.7753 30.0645C33.786 30.2025 33.8989 30.3102 34.0146 30.3406C34.1301 30.371 34.248 30.3414 34.3614 30.3122C34.4019 30.3017 34.4424 30.2912 34.483 30.2807C34.5438 30.265 34.6061 30.2485 34.6569 30.2076C34.9292 29.9887 34.4132 29.8218 34.281 29.7835Z" fill="#211D1D"/>
<path d="M32.4886 30.0969C32.5956 30.1374 32.7105 30.1646 32.8163 30.1317C32.9219 30.0985 33.0144 29.9907 33.0122 29.8603C33.0098 29.7224 32.9034 29.6057 32.7895 29.5658C32.6756 29.5259 32.5561 29.5451 32.4406 29.5646C32.3995 29.5715 32.3582 29.5785 32.3169 29.5856C32.2552 29.596 32.1919 29.6071 32.1385 29.6436C31.8525 29.8381 32.3588 30.0477 32.4886 30.0969Z" fill="#211D1D"/>
<path d="M43.6988 27.1544L43.6654 27.1629C43.5993 27.1703 43.5394 27.1227 43.5319 27.0562C43.0462 22.7467 41.8471 20.437 40.9268 19.2582C39.9348 17.9875 39.0468 17.7255 39.0378 17.7232C38.9739 17.7051 38.9364 17.6384 38.9541 17.5743C38.9723 17.51 39.0386 17.4727 39.1025 17.4901C39.254 17.5318 42.8233 18.6098 43.7722 27.0294C43.7784 27.084 43.7472 27.1342 43.6988 27.1544Z" fill="#211D1D"/>
<path d="M42.8609 27.3467C42.7648 27.3868 42.69 27.4317 42.6303 27.518C42.5247 27.6712 42.4744 27.8929 42.6009 28.0426C42.6882 28.1458 42.8438 28.1873 42.9849 28.2141C43.3682 28.2877 43.6917 28.2829 43.9736 28.1998C44.3036 28.1023 44.5702 27.8856 44.6897 27.6184C44.7415 27.5035 44.7602 27.3546 44.6849 27.2808C44.6522 27.2487 44.601 27.2284 44.5343 27.208C44.0559 27.0615 43.5466 27.0877 43.0201 27.286L42.974 27.3032C42.9333 27.3181 42.8956 27.3322 42.8609 27.3467ZM44.2014 28.375C44.15 28.3967 44.0966 28.4155 44.042 28.4316C43.7223 28.5261 43.3617 28.5326 42.9393 28.4517C42.7571 28.4167 42.5522 28.3592 42.4161 28.1986C42.2075 27.9513 42.2736 27.6097 42.4314 27.3808C42.5558 27.2 42.7251 27.1367 42.8899 27.0766L42.9351 27.0597C43.5046 26.8453 44.0819 26.8166 44.6053 26.9767V26.9769C44.6923 27.0035 44.7826 27.0379 44.8542 27.1083C45.0231 27.2743 44.9942 27.5319 44.9106 27.7175C44.7828 28.0023 44.524 28.2401 44.2014 28.375Z" fill="#211D1D"/>
<path d="M44.1803 27.7647C43.8645 27.8967 43.5239 27.9697 43.1823 27.9779C43.1154 27.9795 43.0602 27.9267 43.0586 27.86C43.0569 27.7931 43.1093 27.7377 43.1765 27.7363C43.5634 27.727 43.9488 27.6266 44.2916 27.4449C44.3462 27.4134 44.4236 27.4362 44.4548 27.4952C44.4861 27.5541 44.4637 27.6274 44.4047 27.6587C44.3315 27.6972 44.2565 27.7327 44.1803 27.7647Z" fill="#211D1D"/>
<path d="M31.789 17.3956L31.7443 17.1584C30.97 18.08 32.051 21.2176 32.0986 21.3541C32.1111 21.3893 32.1442 21.4115 32.1798 21.4115L32.2082 21.4067C32.253 21.3911 32.2766 21.3422 32.261 21.2972C32.2502 21.2662 31.2558 18.3831 31.789 17.3956Z" fill="#211D1D"/>
<path d="M38.0435 41.5759C41.4172 41.5753 44.7867 41.5501 48.1599 41.5001C48.6408 36.5015 49.1285 31.5038 49.6274 26.507C46.2499 25.9114 42.8803 25.2923 39.5114 24.6488C39.0156 30.2907 38.5266 35.9331 38.0435 41.5759Z" fill="#2C3A92"/>
<path d="M38.1593 40.2198L38.022 40.1216C38.0178 39.8947 38.0172 39.6679 38.0214 39.441C38.0345 38.73 38.0944 38.0133 38.3058 37.3343C38.3455 37.2065 38.3906 37.0809 38.44 36.9568C38.3463 38.0445 38.2526 39.1322 38.1593 40.2198Z" fill="#CE2D47"/>
<path d="M38.1284 40.5829C38.04 40.4904 38.0267 40.3397 38.0238 40.2068C38.0232 40.1784 38.0226 40.15 38.022 40.1216L38.1593 40.2199C38.149 40.3407 38.1387 40.462 38.1284 40.5829Z" fill="#A6283B"/>
<path d="M40.2474 40.9312C40.1329 40.9312 40.0184 40.925 39.9054 40.9141C39.4053 40.8655 38.9162 40.7333 38.4162 40.6827C38.3297 40.6737 38.2384 40.666 38.1671 40.6162C38.1528 40.606 38.1399 40.5949 38.1284 40.5828C38.1387 40.4619 38.1491 40.3407 38.1594 40.2198C38.2527 39.1321 38.3463 38.0444 38.44 36.9568C38.7127 36.2736 39.1218 35.6472 39.5563 35.0503C39.7939 34.7238 40.0444 34.3995 40.3657 34.1554C40.5632 34.0051 40.9518 33.7751 41.2642 33.7751C41.346 33.7751 41.4224 33.791 41.4889 33.8281C41.8144 34.0095 41.9643 34.6083 41.9516 34.9426C41.9444 35.1244 41.9027 35.3094 41.9458 35.4862C42.0421 35.8832 42.5159 36.083 42.6572 36.4663C42.7947 36.8391 42.5732 37.2455 42.3194 37.551C42.154 37.7499 41.9593 37.9676 41.9811 38.2251C42.0097 38.5597 42.4023 38.833 42.3019 39.1536C42.2142 39.4334 41.8033 39.5096 41.7205 39.7911C41.6832 39.9181 41.7251 40.0553 41.7078 40.1866C41.6822 40.3835 41.528 40.5403 41.3607 40.6475C41.0332 40.8577 40.6402 40.9312 40.2474 40.9312Z" fill="#2A3377"/>
<path d="M44.4653 29.4868C43.1793 29.3532 42.0883 30.4087 42.0333 31.8396C41.9783 33.2704 42.9852 34.4063 44.2777 34.3716C45.57 34.3371 46.6609 33.2815 46.7093 32.019C46.7577 30.7564 45.7512 29.6205 44.4653 29.4868ZM44.2664 34.6649C42.8183 34.7152 41.6905 33.4429 41.7524 31.8288C41.8144 30.2146 43.0362 29.0324 44.4764 29.1934C45.9166 29.3544 47.0441 30.6268 46.9902 32.0297C46.9364 33.4328 45.7145 34.6149 44.2664 34.6649Z" fill="white"/>
<path d="M46.2074 31.4706C45.6939 31.4432 45.4373 31.4297 44.924 31.4023C44.9445 30.8732 44.9544 30.6088 44.9748 30.0798C44.5505 30.0419 44.3383 30.0229 43.9139 29.9852C43.8931 30.5292 43.8828 30.8015 43.8619 31.3457C43.3485 31.3184 43.0918 31.3047 42.5783 31.2773C42.5605 31.7431 42.5516 31.9759 42.5337 32.4418C43.0478 32.4537 43.3046 32.4598 43.8187 32.4719C43.7976 33.0162 43.7873 33.2883 43.7663 33.8325C44.1924 33.8272 44.4054 33.8246 44.8313 33.8194C44.8516 33.2905 44.8619 33.0259 44.8819 32.4969C45.396 32.509 45.6528 32.515 46.1669 32.5271C46.183 32.1045 46.1911 31.8932 46.2074 31.4706Z" fill="white"/>
<path d="M42.041 26.5831C43.9603 26.9134 44.9196 27.0736 46.8387 27.3834C46.9229 26.5051 46.9651 26.0671 47.0497 25.1936C45.1306 24.8309 44.1713 24.6444 42.2522 24.2613C42.1676 25.1876 42.1256 25.6521 42.041 26.5831Z" fill="#F4F6F5"/>
<path d="M17.7131 34.0721L25.2431 21.6593C25.813 20.7201 26.798 20.0809 27.8879 19.9424C29.2683 19.7668 29.4142 20.5162 29.6623 21.6916C29.8644 22.6483 30.4058 23.5026 30.6537 24.4485C30.8858 25.3336 30.8387 26.2853 30.5436 27.1499C30.252 28.0039 29.6504 28.4221 29.1872 29.1428C28.4423 30.3012 27.7563 31.5014 27.042 32.679L38.3123 33.3276C38.3123 33.3276 39.535 36.2913 37.8953 40.5692L20.6052 39.5744C19.335 39.501 18.1957 38.7676 17.6035 37.641C17.0115 36.5148 17.0529 35.1604 17.7131 34.0721Z" fill="white"/>
<path d="M40.0152 33.2466C40.4653 33.2786 40.9351 33.3198 41.3178 33.559C41.7003 33.7984 41.9581 34.3017 41.7711 34.7126C41.6741 34.9258 41.4689 35.1026 41.4693 35.337C41.47 35.6318 41.7838 35.8094 41.9651 36.0422C42.2975 36.4692 42.1471 37.1368 41.7487 37.5034C41.6171 37.6245 41.4534 37.7363 41.4141 37.9109C41.3267 38.2978 41.9109 38.6016 41.8172 38.9871C41.7451 39.282 41.3212 39.3769 41.2416 39.6699C41.1985 39.8289 41.2728 39.9954 41.2684 40.1601C41.261 40.4362 41.0272 40.6649 40.7662 40.7552C40.5052 40.8455 40.2208 40.827 39.9451 40.8078C39.5116 40.777 39.0781 40.7464 38.6447 40.7159C38.3892 40.6976 38.1264 40.6778 37.8958 40.566C37.3992 40.3253 37.1894 39.7397 37.0503 39.2054C36.7839 38.183 36.6047 37.1216 36.7174 36.0712C36.8095 35.2146 37.1112 34.3011 37.6937 33.6483C38.2263 33.0519 39.282 33.1946 40.0152 33.2466Z" fill="#EEA88E"/>
<path d="M24.1384 34.0016C24.109 34.0016 24.0806 33.9865 24.0643 33.9595C24.0401 33.9188 24.0534 33.866 24.0943 33.8416C25.0053 33.2982 25.9898 32.8956 27.0209 32.6452C27.0668 32.6336 27.1136 32.6622 27.1247 32.7083C27.136 32.7545 27.1076 32.8008 27.0614 32.8121C26.0474 33.0584 25.0786 33.4546 24.1822 33.9895L24.1384 34.0016Z" fill="#D3D4D3"/>
<path d="M24.7402 34.5083C24.7136 34.5083 24.6876 34.496 24.6708 34.4728C24.6428 34.4345 24.6513 34.3807 24.6898 34.3527C25.4071 33.8311 26.1896 33.4014 27.015 33.0753C27.0591 33.0572 27.1091 33.079 27.1266 33.1235C27.1438 33.1678 27.1224 33.2176 27.078 33.235C26.2662 33.5558 25.4967 33.9788 24.7909 34.4918L24.7402 34.5083Z" fill="#D3D4D3"/>
<path d="M35.2965 40.3112C35.2663 40.3112 35.2369 40.2953 35.2213 40.2667C35.206 40.2389 33.7102 37.4502 35.6232 33.433C35.6436 33.3903 35.6952 33.3718 35.7377 33.3923C35.7806 33.4127 35.7988 33.4639 35.7784 33.5068C33.9055 37.4399 35.3568 40.1565 35.3717 40.1835C35.3945 40.225 35.3794 40.2774 35.338 40.3004L35.2965 40.3112Z" fill="#D3D4D3"/>
<defs>
<linearGradient id="paint0_linear_124_15565" x1="12.5396" y1="47.6512" x2="48.6616" y2="47.6512" gradientUnits="userSpaceOnUse">
<stop stop-color="#4444A3"/>
<stop offset="1" stop-color="#97359F"/>
</linearGradient>
<linearGradient id="paint1_linear_124_15565" x1="12.5396" y1="47.6512" x2="48.6617" y2="47.6512" gradientUnits="userSpaceOnUse">
<stop stop-color="#27296A"/>
<stop offset="1" stop-color="#57226F"/>
</linearGradient>
<linearGradient id="paint2_linear_124_15565" x1="12.5398" y1="47.6511" x2="48.6619" y2="47.6511" gradientUnits="userSpaceOnUse">
<stop stop-color="#27296A"/>
<stop offset="1" stop-color="#57226F"/>
</linearGradient>
<linearGradient id="paint3_linear_124_15565" x1="12.5394" y1="47.6512" x2="48.6615" y2="47.6512" gradientUnits="userSpaceOnUse">
<stop stop-color="#3B3A9B"/>
<stop offset="1" stop-color="#892A98"/>
</linearGradient>
<linearGradient id="paint4_linear_124_15565" x1="12.5396" y1="47.6512" x2="48.6616" y2="47.6512" gradientUnits="userSpaceOnUse">
<stop stop-color="#3B3A9B"/>
<stop offset="1" stop-color="#892A98"/>
</linearGradient>
<linearGradient id="paint5_linear_124_15565" x1="12.5396" y1="47.6513" x2="48.6616" y2="47.6513" gradientUnits="userSpaceOnUse">
<stop stop-color="#212357"/>
<stop offset="1" stop-color="#451F5B"/>
</linearGradient>
<linearGradient id="paint6_linear_124_15565" x1="12.5394" y1="47.6512" x2="48.6615" y2="47.6512" gradientUnits="userSpaceOnUse">
<stop stop-color="#2D308E"/>
<stop offset="1" stop-color="#761E90"/>
</linearGradient>
</defs>
</svg>
