<svg width="127" height="97" viewBox="0 0 127 97" fill="none" xmlns="http://www.w3.org/2000/svg">
<mask id="mask0_124_1438" style="mask-type:luminance" maskUnits="userSpaceOnUse" x="0" y="0" width="127" height="97">
<path d="M0 96.2002H127V3.07084e-05H0V96.2002Z" fill="white"/>
</mask>
<g mask="url(#mask0_124_1438)">
<path d="M76.8805 69.633C76.9427 69.1641 75.4583 68.5368 75.3394 69.4355C75.2202 70.3339 76.8184 70.1022 76.8805 69.633ZM72.3041 69.0271C72.3663 68.5582 73.9628 68.3388 73.8439 69.2375C73.725 70.1362 72.2422 69.496 72.3041 69.0271Z" fill="white"/>
<path d="M72.3443 69.3522L72.3991 69.3588L72.7606 69.3965C72.9312 69.4141 73.0839 69.2905 73.1019 69.1202C73.1193 68.9525 73.0001 68.8021 72.8343 68.7801L72.8256 68.7789L72.4637 68.7411C71.713 68.6712 71.1676 67.9917 71.2366 67.2448C71.4686 64.7486 72.4346 56.4372 75.1315 54.2863C75.6122 53.9026 76.1076 53.751 76.6457 53.8223C77.1839 53.8934 77.6228 54.1688 77.9875 54.6647C80.031 57.4424 78.8011 65.7195 78.3755 68.1901C78.2479 68.9293 77.5524 69.4456 76.801 69.3156L76.4421 69.2577L76.4334 69.2567C76.2676 69.2349 76.1132 69.3489 76.0865 69.5152C76.0595 69.6846 76.1747 69.8439 76.3438 69.8711L76.7027 69.9286L76.7574 69.9366C77.8121 70.0761 78.805 69.3503 78.9868 68.2954C79.5458 65.0505 80.6165 57.1907 78.4874 54.2967C78.0239 53.6671 77.4321 53.3002 76.7274 53.207C76.0227 53.1134 75.3558 53.3135 74.7447 53.801C71.9347 56.0422 70.9232 63.9093 70.6189 67.1875C70.5199 68.2532 71.2898 69.2124 72.3443 69.3522Z" fill="#ADAFDF"/>
<path d="M74.6478 53.6793C75.1974 53.2414 75.7914 53.0256 76.4172 53.0317C76.444 50.8468 76.6082 48.28 75.4149 45.5615C74.0269 42.3989 72.2093 41.9459 72.2093 41.9459L71.6431 41.4861C76.1763 42.1652 77.5162 49.4379 77.0391 53.1084C77.6596 53.2604 78.1881 53.628 78.6127 54.2046C79.402 55.2778 79.7593 57.013 79.8691 58.9417L78.9284 58.8171C78.7421 56.2431 78.1449 55.1401 77.8627 54.7563C77.5242 54.2968 77.12 54.0413 76.6255 53.9759C76.1317 53.9106 75.6745 54.0516 75.2284 54.4077C74.4083 55.0617 73.7174 56.3829 73.1509 58.0521L72.2016 57.9264C72.8096 56.0927 73.606 54.5105 74.6478 53.6793Z" fill="#23255A"/>
<path d="M120.626 65.1161C120.626 65.5494 120.275 65.9006 119.842 65.9006C119.408 65.9006 119.057 65.5494 119.057 65.1161C119.057 64.6831 119.408 64.3317 119.842 64.3317C120.275 64.3317 120.626 64.6831 120.626 65.1161ZM117.53 69.4774C117.53 69.5734 117.452 69.6513 117.356 69.6513C117.26 69.6513 117.182 69.5734 117.182 69.4774C117.182 69.3813 117.26 69.3034 117.356 69.3034C117.452 69.3034 117.53 69.3813 117.53 69.4774ZM118.536 59.0093C118.536 59.1813 118.397 59.3208 118.225 59.3208C118.053 59.3208 117.913 59.1813 117.913 59.0093C117.913 58.8371 118.053 58.6976 118.225 58.6976C118.397 58.6976 118.536 58.8371 118.536 59.0093ZM99.7414 68.3587C99.7414 68.7029 99.4622 68.9822 99.1176 68.9822C98.7733 68.9822 98.4941 68.7029 98.4941 68.3587C98.4941 68.0141 98.7733 67.7347 99.1176 67.7347C99.4622 67.7347 99.7414 68.0141 99.7414 68.3587ZM109.326 60.5418C109.326 60.9549 108.992 61.2899 108.578 61.2899C108.165 61.2899 107.83 60.9549 107.83 60.5418C107.83 60.1287 108.165 59.794 108.578 59.794C108.992 59.794 109.326 60.1287 109.326 60.5418ZM112.968 70.7397C112.968 71.2159 112.582 71.602 112.106 71.602C111.63 71.602 111.244 71.2159 111.244 70.7397C111.244 70.2633 111.63 69.8772 112.106 69.8772C112.582 69.8772 112.968 70.2633 112.968 70.7397ZM109.191 77.7724C109.191 78.2198 108.828 78.5822 108.381 78.5822C107.934 78.5822 107.572 78.2198 107.572 77.7724C107.572 77.3253 107.934 76.9628 108.381 76.9628C108.828 76.9628 109.191 77.3253 109.191 77.7724ZM111.132 75.0979C111.132 75.219 111.034 75.3173 110.912 75.3173C110.791 75.3173 110.693 75.219 110.693 75.0979C110.693 74.9767 110.791 74.8784 110.912 74.8784C111.034 74.8784 111.132 74.9767 111.132 75.0979ZM104.177 72.7278C104.177 72.9283 104.015 73.0907 103.814 73.0907C103.614 73.0907 103.452 72.9283 103.452 72.7278C103.452 72.5277 103.614 72.3653 103.814 72.3653C104.015 72.3653 104.177 72.5277 104.177 72.7278ZM107.572 73.7928C107.572 74.1402 107.29 74.4217 106.942 74.4217C106.595 74.4217 106.313 74.1402 106.313 73.7928C106.313 73.4451 106.595 73.1634 106.942 73.1634C107.29 73.1634 107.572 73.4451 107.572 73.7928ZM106.648 70.1913C106.648 70.3226 106.542 70.4289 106.411 70.4289C106.28 70.4289 106.173 70.3226 106.173 70.1913C106.173 70.0601 106.28 69.9539 106.411 69.9539C106.542 69.9539 106.648 70.0601 106.648 70.1913ZM106.411 76.0607C106.411 76.2706 106.24 76.4414 106.03 76.4414C105.82 76.4414 105.65 76.2706 105.65 76.0607C105.65 75.8502 105.82 75.6797 106.03 75.6797C106.24 75.6797 106.411 75.8502 106.411 76.0607ZM116.52 71.9457C116.52 72.2664 116.26 72.5265 115.939 72.5265C115.618 72.5265 115.358 72.2664 115.358 71.9457C115.358 71.6245 115.618 71.3646 115.939 71.3646C116.26 71.3646 116.52 71.6245 116.52 71.9457ZM106.434 65.5084C106.434 65.7251 106.258 65.9006 106.042 65.9006C105.825 65.9006 105.65 65.7251 105.65 65.5084C105.65 65.2916 105.825 65.1161 106.042 65.1161C106.258 65.1161 106.434 65.2916 106.434 65.5084ZM108.528 62.4942C108.528 62.6244 108.422 62.73 108.292 62.73C108.162 62.73 108.056 62.6244 108.056 62.4942C108.056 62.364 108.162 62.2585 108.292 62.2585C108.422 62.2585 108.528 62.364 108.528 62.4942ZM118.761 70.9895C118.761 71.2875 118.519 71.5288 118.221 71.5288C117.923 71.5288 117.682 71.2875 117.682 70.9895C117.682 70.6916 117.923 70.4502 118.221 70.4502C118.519 70.4502 118.761 70.6916 118.761 70.9895ZM114.2 69.5537C114.2 69.7324 114.055 69.8772 113.877 69.8772C113.698 69.8772 113.553 69.7324 113.553 69.5537C113.553 69.3752 113.698 69.2302 113.877 69.2302C114.055 69.2302 114.2 69.3752 114.2 69.5537ZM6.37354 65.1161C6.37354 65.5494 6.7247 65.9006 7.15797 65.9006C7.59124 65.9006 7.9424 65.5494 7.9424 65.1161C7.9424 64.6831 7.59124 64.3317 7.15797 64.3317C6.7247 64.3317 6.37354 64.6831 6.37354 65.1161ZM9.46928 69.4774C9.46928 69.5734 9.54716 69.6513 9.64334 69.6513C9.73928 69.6513 9.81716 69.5734 9.81716 69.4774C9.81716 69.3813 9.73928 69.3034 9.64334 69.3034C9.54716 69.3034 9.46928 69.3813 9.46928 69.4774ZM8.46317 59.0093C8.46317 59.1813 8.60274 59.3208 8.77469 59.3208C8.94687 59.3208 9.08645 59.1813 9.08645 59.0093C9.08645 58.8371 8.94687 58.6976 8.77469 58.6976C8.60274 58.6976 8.46317 58.8371 8.46317 59.0093ZM27.2582 68.3587C27.2582 68.7029 27.5373 68.9822 27.8819 68.9822C28.2263 68.9822 28.5054 68.7029 28.5054 68.3587C28.5054 68.0141 28.2263 67.7347 27.8819 67.7347C27.5373 67.7347 27.2582 68.0141 27.2582 68.3587ZM17.6732 60.5418C17.6732 60.9549 18.008 61.2899 18.4211 61.2899C18.8342 61.2899 19.1691 60.9549 19.1691 60.5418C19.1691 60.1287 18.8342 59.794 18.4211 59.794C18.008 59.794 17.6732 60.1287 17.6732 60.5418ZM14.0312 70.7397C14.0312 71.2159 14.4173 71.602 14.8935 71.602C15.3699 71.602 15.756 71.2159 15.756 70.7397C15.756 70.2633 15.3699 69.8772 14.8935 69.8772C14.4173 69.8772 14.0312 70.2633 14.0312 70.7397ZM17.8086 77.7724C17.8086 78.2198 18.171 78.5822 18.6181 78.5822C19.0655 78.5822 19.4279 78.2198 19.4279 77.7724C19.4279 77.3253 19.0655 76.9628 18.6181 76.9628C18.171 76.9628 17.8086 77.3253 17.8086 77.7724ZM15.8679 75.0979C15.8679 75.219 15.966 75.3173 16.0872 75.3173C16.2083 75.3173 16.3063 75.219 16.3063 75.0979C16.3063 74.9767 16.2083 74.8784 16.0872 74.8784C15.966 74.8784 15.8679 74.9767 15.8679 75.0979ZM22.822 72.7278C22.822 72.9283 22.9846 73.0907 23.1849 73.0907C23.3855 73.0907 23.5478 72.9283 23.5478 72.7278C23.5478 72.5277 23.3855 72.3653 23.1849 72.3653C22.9846 72.3653 22.822 72.5277 22.822 72.7278ZM19.4279 73.7928C19.4279 74.1402 19.7096 74.4217 20.057 74.4217C20.4047 74.4217 20.6862 74.1402 20.6862 73.7928C20.6862 73.4451 20.4047 73.1634 20.057 73.1634C19.7096 73.1634 19.4279 73.4451 19.4279 73.7928ZM20.3512 70.1913C20.3512 70.3226 20.4575 70.4289 20.5888 70.4289C20.72 70.4289 20.8262 70.3226 20.8262 70.1913C20.8262 70.0601 20.72 69.9539 20.5888 69.9539C20.4575 69.9539 20.3512 70.0601 20.3512 70.1913ZM20.5888 76.0607C20.5888 76.2706 20.7591 76.4414 20.9695 76.4414C21.1797 76.4414 21.35 76.2706 21.35 76.0607C21.35 75.8502 21.1797 75.6797 20.9695 75.6797C20.7591 75.6797 20.5888 75.8502 20.5888 76.0607ZM10.4794 71.9457C10.4794 72.2664 10.7393 72.5265 11.0602 72.5265C11.3811 72.5265 11.6413 72.2664 11.6413 71.9457C11.6413 71.6245 11.3811 71.3646 11.0602 71.3646C10.7393 71.3646 10.4794 71.6245 10.4794 71.9457ZM20.5658 65.5084C20.5658 65.7251 20.7413 65.9006 20.9578 65.9006C21.1746 65.9006 21.35 65.7251 21.35 65.5084C21.35 65.2916 21.1746 65.1161 20.9578 65.1161C20.7413 65.1161 20.5658 65.2916 20.5658 65.5084ZM18.472 62.4942C18.472 62.6244 18.5775 62.73 18.7077 62.73C18.8379 62.73 18.9437 62.6244 18.9437 62.4942C18.9437 62.364 18.8379 62.2585 18.7077 62.2585C18.5775 62.2585 18.472 62.364 18.472 62.4942ZM8.23868 70.9895C8.23868 71.2875 8.48029 71.5288 8.77821 71.5288C9.07613 71.5288 9.31751 71.2875 9.31751 70.9895C9.31751 70.6916 9.07613 70.4502 8.77821 70.4502C8.48029 70.4502 8.23868 70.6916 8.23868 70.9895ZM12.7994 69.5537C12.7994 69.7324 12.9441 69.8772 13.1229 69.8772C13.3014 69.8772 13.4463 69.7324 13.4463 69.5537C13.4463 69.3752 13.3014 69.2302 13.1229 69.2302C12.9441 69.2302 12.7994 69.3752 12.7994 69.5537Z" fill="white"/>
</g>
</svg>
