<svg width="176" height="96" viewBox="0 0 176 96" fill="none" xmlns="http://www.w3.org/2000/svg">
<g opacity="0.5">
<path d="M37.9061 18.0405C37.9061 18.312 37.5539 18.5318 37.1193 18.5318C36.6848 18.5318 36.3325 18.312 36.3325 18.0405C36.3325 17.7692 36.6848 17.5493 37.1193 17.5493C37.5539 17.5493 37.9061 17.7692 37.9061 18.0405ZM31.7739 19.8307C31.7739 20.102 31.4217 20.3221 30.9871 20.3221C30.5526 20.3221 30.2002 20.102 30.2002 19.8307C30.2002 19.5594 30.5526 19.3396 30.9871 19.3396C31.4217 19.3396 31.7739 19.5594 31.7739 19.8307Z" fill="#CBDCD2"/>
<path d="M127.857 4.64916e-06C117.684 5.328 100.707 8.10625 84.3005 7.98145C62.5469 7.81633 52.0467 13.0829 31.9228 21.9014C18.9694 27.5789 7.40245 28.8403 0 29.1494V27.0298C6.5472 26.7379 11.616 24.7258 11.616 22.2835C11.616 19.8413 6.5472 17.8291 0 17.5354V12.313C31.2928 17.8406 59.488 3.16608 83.3958 1.89312C89.8339 1.54944 94.9555 0.848645 99.007 4.64916e-06H127.857ZM113.399 91.4195C139.486 91.0999 165.793 89.3913 176 91.443V85.6709C166.325 85.9591 158.348 89.5241 157.254 86.3186C155.992 82.6178 164.378 78.6613 176 77.4644V68.2771C162.356 78.3782 135.707 84.3322 98.7325 85.0828C69.0202 85.6858 47.5446 91.536 35.3232 96H60.6964C72.002 94.0529 90.2211 91.7033 113.399 91.4195ZM116.864 9.96096C102.091 12.3475 83.7866 21.2333 67.8973 20.5747C52.0045 19.9181 33.9468 25.9507 23.1652 32.8627C16.7234 36.9907 6.88146 38.7725 0 39.5366V44.0909C6.29735 42.5741 26.9246 37.3901 34.6122 32.7322C43.7395 27.2026 59.0198 22.3757 72.4698 22.9037C85.9162 23.4298 109.349 14.665 121.852 12.7565C132.222 11.1744 162.772 12.1229 176 22.4563V15.9859C159.143 6.77761 128.156 8.13696 116.864 9.96096ZM111.95 65.6122C84.9235 65.7888 90.1845 65.9125 60.8432 70.7021C21.9748 77.0469 1.4432 72.1171 0 70.2989V76.6176C0.485654 76.7962 0.98919 76.9498 1.52064 77.0784C1.52064 77.0784 18.5258 82.4832 53.2154 76.5293C87.9014 70.5754 81.6675 70.3853 113.601 70.1664C134.13 70.0262 161.079 61.5878 176 49.7779V43.7856C162.951 55.8202 131.775 65.4835 111.95 65.6122Z" fill="#C5D3D2"/>
<path d="M151.805 37.2025C154.228 45.3291 128.551 55.1282 94.4552 59.0896C60.3595 63.051 30.7555 59.6746 28.333 51.548C25.9106 43.4216 51.5871 33.6223 85.6831 29.6609C119.779 25.6995 149.383 29.0759 151.805 37.2025Z" fill="#6E8E8C"/>
<path d="M153.877 36.6343C156.925 44.6782 132.037 55.2406 98.2874 60.2257C64.5377 65.2111 34.707 62.7314 31.6584 54.6875C28.6099 46.6436 53.4979 36.0813 87.2475 31.0961C120.997 26.1108 150.828 28.5903 153.877 36.6343Z" stroke="#9BB1B0" stroke-width="0.534232" stroke-miterlimit="10"/>
<path d="M91.9212 30.2946C91.9212 30.2946 88.2746 34.6184 78.7479 34.9945C69.2206 35.3709 68.2135 36.2716 65.7319 37.8271C63.2499 39.3827 62.2738 40.3031 55.2893 40.0376C48.3046 39.7724 49.6916 42.6577 44.2185 44.1722C38.7456 45.687 41.1089 47.3219 40.1138 48.674C39.1187 50.0264 36.631 49.7805 37.6261 51.3362C38.6212 52.892 41.2434 51.305 41.8552 54.4686C42.467 57.6324 47.4526 55.9211 50.438 56.3307C53.4233 56.7399 54.4184 58.8625 57.528 58.9475C60.6379 59.0324 63.6232 57.1493 69.5939 57.9681C75.5646 58.7867 78.8235 60.9383 84.5203 59.7694C90.2174 58.6 93.9738 57.0028 98.203 57.2807C102.433 57.5587 105.418 58.2136 108.403 56.0031C111.388 53.7924 116.364 52.3189 120.717 52.4006C125.071 52.4824 124.574 51.2544 128.802 49.2894C133.032 47.3244 135.022 48.6343 137.883 47.7339C140.744 46.8332 140.371 43.2501 144.849 41.3981C149.327 39.5464 148.705 37.397 146.093 36.22C143.48 35.0434 139.002 34.7978 138.754 33.0784C138.505 31.3591 133.778 30.6222 130.42 31.5228C127.061 32.4233 122.151 31.3591 119.879 30.2946C117.608 29.2303 112.881 29.5578 107.408 30.6222C101.935 31.6867 93.7247 30.8677 91.9212 30.2946Z" fill="#9BB1B0"/>
<path d="M114.285 38.2924C111.753 38.5822 108.502 36.0062 104.224 36.9311C99.9463 37.8557 97.1706 37.4763 92.9193 36.7108C88.6681 35.9453 84.5588 36.2727 82.7228 38.2924C80.8868 40.3119 79.5753 41.4035 74.2423 40.694C68.9091 39.9844 65.0623 40.5438 62.0023 43.2934C58.9423 46.043 50.8988 45.8793 50.2868 47.7624C49.6748 49.6455 53.5218 49.5908 62.7891 49.4817C72.0566 49.3726 67.3353 50.6774 77.5646 51.4714C87.7938 52.2654 85.0252 49.9205 91.3783 49.7547C97.7312 49.5889 100.646 50.8463 107.378 49.9184C114.11 48.9906 113.148 45.8207 116.995 44.3762C120.842 42.9318 128.098 43.7506 131.246 40.694C134.393 37.6373 129.147 39.0019 124.601 38.0194C120.055 37.0369 116.004 38.0953 114.285 38.2924Z" fill="#274745"/>
<path d="M53.7413 62.5405C53.7413 62.8044 53.3986 63.0181 52.9763 63.0181C52.5538 63.0181 52.2113 62.8044 52.2113 62.5405C52.2113 62.2769 52.5538 62.0629 52.9763 62.0629C53.3986 62.0629 53.7413 62.2769 53.7413 62.5405ZM129.728 55.8891C129.728 56.4109 129.051 56.834 128.215 56.834C127.379 56.834 126.701 56.4109 126.701 55.8891C126.701 55.3672 127.379 54.9441 128.215 54.9441C129.051 54.9441 129.728 55.3672 129.728 55.8891ZM36.2821 82.6751C36.2821 83.1967 35.6045 83.6199 34.7685 83.6199C33.9326 83.6199 33.2549 83.1967 33.2549 82.6751C33.2549 82.1531 33.9326 81.73 34.7685 81.73C35.6045 81.73 36.2821 82.1531 36.2821 82.6751ZM132.204 24.8194C132.204 25.3413 131.526 25.7644 130.69 25.7644C129.854 25.7644 129.176 25.3413 129.176 24.8194C129.176 24.2975 129.854 23.8745 130.69 23.8745C131.526 23.8745 132.204 24.2975 132.204 24.8194Z" fill="white"/>
<path d="M47.7602 34.63C47.7602 35.1519 47.0827 35.5749 46.2467 35.5749C45.4107 35.5749 44.7329 35.1519 44.7329 34.63C44.7329 34.1081 45.4107 33.6849 46.2467 33.6849C47.0827 33.6849 47.7602 34.1081 47.7602 34.63Z" fill="#CBDCD2"/>
<path d="M39.9986 67.4352C39.9986 67.4352 40.9095 67.3267 41.5167 66.6768C42.124 66.0269 42.1675 65.6027 42.1675 65.6027C42.1675 65.6027 42.6797 66.9205 43.768 67.2455C44.8568 67.5704 45.1603 67.5704 45.1603 67.5704C45.1603 67.5704 43.5121 68.0578 42.9482 68.7348C42.3843 69.4119 42.2108 69.9806 42.2108 69.9806C42.2108 69.9806 41.5167 68.4913 40.8228 68.1932C40.1288 67.8954 38.5527 67.6247 38.5527 67.6247L39.9986 67.4352Z" fill="white"/>
<path d="M137.577 54.146C137.577 54.146 138.674 54.0155 139.406 53.2328C140.137 52.4501 140.189 51.9391 140.189 51.9391C140.189 51.9391 140.806 53.5265 142.117 53.9179C143.428 54.3091 143.794 54.3091 143.794 54.3091C143.794 54.3091 141.809 54.8962 141.13 55.7116C140.451 56.5271 140.242 57.212 140.242 57.212C140.242 57.212 139.406 55.4181 138.57 55.0594C137.734 54.7004 135.836 54.3743 135.836 54.3743L137.577 54.146ZM122.178 17.2471C122.178 17.2471 123.008 17.1483 123.561 16.5565C124.114 15.9646 124.153 15.5781 124.153 15.5781C124.153 15.5781 124.62 16.7784 125.611 17.0744C126.603 17.3703 127.435 17.4012 127.435 17.4012C127.435 17.4012 125.378 17.8143 124.864 18.4307C124.351 19.0472 124.193 19.5651 124.193 19.5651C124.193 19.5651 123.561 18.2088 122.929 17.9375C122.297 17.6662 120.861 17.4196 120.861 17.4196L122.178 17.2471ZM32.5012 51.907C32.5012 51.907 33.4561 51.7937 34.0926 51.1123C34.7292 50.4311 34.7747 49.9863 34.7747 49.9863C34.7747 49.9863 35.3115 51.3677 36.4528 51.7083C37.5938 52.049 38.5518 52.0847 38.5518 52.0847C38.5518 52.0847 36.1842 52.56 35.5931 53.2697C35.002 53.9794 34.8201 54.5754 34.8201 54.5754C34.8201 54.5754 34.0926 53.0143 33.365 52.7019C32.6376 52.3898 30.9855 52.1059 30.9855 52.1059L32.5012 51.907ZM18.9831 52.3858C18.9831 52.3858 19.3565 52.3414 19.6055 52.0749C19.8544 51.8086 19.8722 51.6346 19.8722 51.6346C19.8722 51.6346 20.0821 52.175 20.5283 52.3082C20.9744 52.4414 21.349 52.4551 21.349 52.4551C21.349 52.4551 20.4233 52.6412 20.1921 52.9186C19.9611 53.196 19.89 53.4292 19.89 53.4292C19.89 53.4292 19.6055 52.8187 19.321 52.6966C19.0366 52.5745 18.3906 52.4635 18.3906 52.4635L18.9831 52.3858Z" fill="#CBDCD2"/>
<path d="M18.9831 60.7854C18.9831 60.7854 19.3565 60.7409 19.6055 60.4746C19.8544 60.2081 19.8722 60.0342 19.8722 60.0342C19.8722 60.0342 20.0821 60.5745 20.5283 60.7077C20.9744 60.8408 21.349 60.8548 21.349 60.8548C21.349 60.8548 20.4233 61.0406 20.1921 61.3182C19.9611 61.5956 19.89 61.8289 19.89 61.8289C19.89 61.8289 19.6055 61.2181 19.321 61.0962C19.0366 60.974 18.3906 60.863 18.3906 60.863L18.9831 60.7854ZM52.9478 28.8246C52.9478 28.8246 53.9906 28.7007 54.6858 27.9564C55.3814 27.2123 55.4309 26.7265 55.4309 26.7265C55.4309 26.7265 56.0175 28.2355 57.2639 28.6074C58.5102 28.9796 59.5567 29.0185 59.5567 29.0185C59.5567 29.0185 56.9707 29.5378 56.3248 30.313C55.6794 31.0881 55.4805 31.7393 55.4805 31.7393C55.4805 31.7393 54.6858 30.0339 53.8912 29.6927C53.0968 29.3517 51.292 29.0417 51.292 29.0417L52.9478 28.8246Z" fill="white"/>
<path d="M137.338 34.2223C137.338 34.2223 138.381 34.0985 139.077 33.3542C139.772 32.6101 139.822 32.1243 139.822 32.1243C139.822 32.1243 140.408 33.6333 141.654 34.0054C142.901 34.3776 143.947 34.4164 143.947 34.4164C143.947 34.4164 141.361 34.9356 140.715 35.7108C140.07 36.4859 139.871 37.1371 139.871 37.1371C139.871 37.1371 139.077 35.4317 138.282 35.0905C137.487 34.7495 135.683 34.4395 135.683 34.4395L137.338 34.2223ZM148.782 23.3482C148.782 23.3482 149.182 23.3008 149.448 23.0158C149.714 22.7311 149.733 22.545 149.733 22.545C149.733 22.545 149.957 23.1227 150.435 23.2651C150.912 23.4076 151.312 23.4225 151.312 23.4225C151.312 23.4225 150.322 23.6212 150.075 23.918C149.828 24.2147 149.752 24.4638 149.752 24.4638C149.752 24.4638 149.448 23.8111 149.144 23.6806C148.839 23.5499 148.148 23.4313 148.148 23.4313L148.782 23.3482Z" fill="#CBDCD2"/>
<path d="M158.108 29.8093C158.108 29.8093 158.508 29.7617 158.774 29.4771C159.04 29.192 159.059 29.0062 159.059 29.0062C159.059 29.0062 159.283 29.5839 159.761 29.7262C160.237 29.8687 160.638 29.8836 160.638 29.8836C160.638 29.8836 159.648 30.0823 159.401 30.379C159.154 30.6758 159.078 30.925 159.078 30.925C159.078 30.925 158.774 30.2722 158.469 30.1417C158.165 30.0112 157.475 29.8924 157.475 29.8924L158.108 29.8093Z" fill="white"/>
<path d="M156.525 41.3359C156.525 41.3359 156.924 41.2885 157.19 41.0037C157.457 40.7188 157.476 40.5328 157.476 40.5328C157.476 40.5328 157.7 41.1105 158.177 41.253C158.654 41.3953 159.055 41.4102 159.055 41.4102C159.055 41.4102 158.065 41.6089 157.818 41.9057C157.571 42.2024 157.495 42.4517 157.495 42.4517C157.495 42.4517 157.19 41.799 156.886 41.6683C156.582 41.5378 155.891 41.419 155.891 41.419L156.525 41.3359ZM43.6452 81.9316C43.6452 81.9316 44.5439 81.8248 45.1431 81.1835C45.7422 80.5421 45.7851 80.1234 45.7851 80.1234C45.7851 80.1234 46.2906 81.424 47.3646 81.7446C48.439 82.0653 49.3408 82.0987 49.3408 82.0987C49.3408 82.0987 47.1119 82.5462 46.5556 83.2142C45.999 83.8823 45.8279 84.4436 45.8279 84.4436C45.8279 84.4436 45.1431 82.9737 44.4582 82.6799C43.7734 82.3859 42.2183 82.1188 42.2183 82.1188L43.6452 81.9316Z" fill="#CBDCD2"/>
<path d="M119.096 25.4515C119.096 25.649 118.839 25.8091 118.523 25.8091C118.207 25.8091 117.95 25.649 117.95 25.4515C117.95 25.254 118.207 25.0937 118.523 25.0937C118.839 25.0937 119.096 25.254 119.096 25.4515ZM66.037 25.9205C66.037 26.4189 65.3901 26.823 64.5917 26.823C63.7937 26.823 63.1465 26.4189 63.1465 25.9205C63.1465 25.4223 63.7937 25.0182 64.5917 25.0182C65.3901 25.0182 66.037 25.4223 66.037 25.9205Z" fill="#3F6B68"/>
<path d="M126.002 32.1245C126.002 32.9685 124.906 33.6528 123.554 33.6528C122.202 33.6528 121.106 32.9685 121.106 32.1245C121.106 31.2805 122.202 30.5962 123.554 30.5962C124.906 30.5962 126.002 31.2805 126.002 32.1245ZM35.8824 60.6261C35.8824 61.4701 34.7863 62.1544 33.4343 62.1544C32.0824 62.1544 30.9863 61.4701 30.9863 60.6261C30.9863 59.7821 32.0824 59.0978 33.4343 59.0978C34.7863 59.0978 35.8824 59.7821 35.8824 60.6261ZM40.0788 42.8227C40.0788 44.3901 38.0435 45.6609 35.5327 45.6609C33.0217 45.6609 30.9863 44.3901 30.9863 42.8227C30.9863 41.2552 33.0217 39.9844 35.5327 39.9844C38.0435 39.9844 40.0788 41.2552 40.0788 42.8227ZM152.653 68.4406C152.653 69.6567 151.074 70.6429 149.126 70.6429C147.178 70.6429 145.599 69.6567 145.599 68.4406C145.599 67.2244 147.178 66.2385 149.126 66.2385C151.074 66.2385 152.653 67.2244 152.653 68.4406Z" fill="#3F6B68"/>
<path d="M39.3143 18.7005C39.3143 20.2681 37.2788 21.5387 34.7679 21.5387C32.2572 21.5387 30.2217 20.2681 30.2217 18.7005C30.2217 17.133 32.2572 15.8622 34.7679 15.8622C37.2788 15.8622 39.3143 17.133 39.3143 18.7005ZM135.236 86.6017C135.236 88.1694 133.2 89.44 130.689 89.44C128.178 89.44 126.143 88.1694 126.143 86.6017C126.143 85.0343 128.178 83.7635 130.689 83.7635C133.2 83.7635 135.236 85.0343 135.236 86.6017Z" fill="#274745"/>
<path d="M144.362 47.7624C144.362 49.3298 142.327 50.6006 139.816 50.6006C137.305 50.6006 135.269 49.3298 135.269 47.7624C135.269 46.1947 137.305 44.9241 139.816 44.9241C142.327 44.9241 144.362 46.1947 144.362 47.7624ZM55.4253 54.0607C55.4253 54.9047 54.3292 55.589 52.9773 55.589C51.6254 55.589 50.5293 54.9047 50.5293 54.0607C50.5293 53.2165 51.6254 52.5322 52.9773 52.5322C54.3292 52.5322 55.4253 53.2165 55.4253 54.0607Z" fill="#3F6B68"/>
<path d="M76.1165 -4.55976e-06C68.7104 1.28448 60.8115 3.2352 53.0781 5.1456C43.7114 7.4592 34.8655 9.64416 27.8115 10.391C23.7952 10.8173 19.9232 10.9786 16.3714 10.9786C9.07445 10.9786 3.12235 10.3027 0 9.8592V9.46175C4.47054 10.1069 15.3788 11.3184 27.6778 10.0147C34.6508 9.27552 43.4614 7.10015 52.7859 4.79615C59.8365 3.05471 67.0208 1.28064 73.8637 -4.55976e-06H76.1165ZM176 64.6445V65.257C170.72 68.7898 163.581 71.879 154.686 74.473C140.318 78.6624 121.732 81.4022 99.4506 82.6176C74.4691 83.9808 55.2112 87.9514 43.4544 91.0444C36.1645 92.9606 30.7825 94.7846 27.4982 96H26.2592C29.4518 94.7884 35.1578 92.8012 43.127 90.7046C54.9366 87.5962 74.2826 83.6044 99.3802 82.2356C121.57 81.026 140.068 78.2996 154.352 74.135C163.472 71.4739 170.727 68.2925 176 64.6445Z" fill="#9BB1B0"/>
<path d="M123.586 85.5837C123.586 85.5843 123.584 85.5851 123.584 85.5861C123.583 85.5866 123.583 85.5872 123.583 85.5878C123.584 85.5863 123.585 85.5848 123.586 85.5837Z" fill="white"/>
</g>
<path d="M105.577 19.5321C105.577 19.5321 108.422 21.6348 108.671 24.2319C108.918 26.8292 106.238 28.0261 106.238 28.0261C106.238 28.0261 106.257 27.6022 106.14 27.0992C106.08 26.8354 105.982 26.5487 105.824 26.2932C105.824 26.2932 106.064 27.2822 105.388 28.479C104.713 29.6737 102.774 30.2929 101.908 30.4571C101.908 30.4571 101.58 29.3039 101.372 28.7678C101.372 28.7678 101.395 29.9626 101.054 30.6648L100.177 30.8706C100.177 30.8706 100.094 30.0042 99.7241 29.4265C99.7241 29.4265 99.6369 30.295 99.4352 30.8706C99.4352 30.8706 96.7839 32.3229 93.2206 31.8534C92.9818 31.8214 92.7441 31.7819 92.5078 31.735C90.0352 31.2404 88.9859 28.7761 88.5497 27.0245C88.1111 28.7761 87.0619 31.2404 84.5892 31.735C83.2221 32.0092 81.9672 31.9864 80.9115 31.841C78.9397 31.5707 77.6639 30.8706 77.6639 30.8706C77.4604 30.295 77.3752 29.4265 77.3752 29.4265C77.0031 30.0042 76.9201 30.8706 76.9201 30.8706L76.0432 30.6648C75.7025 29.9626 75.7254 28.7678 75.7254 28.7678C75.5197 29.3039 75.1894 30.4571 75.1894 30.4571C74.3229 30.2929 72.3862 29.6737 71.709 28.479C71.0337 27.2822 71.2726 26.2932 71.2726 26.2932C70.8197 27.035 70.8612 28.0261 70.8612 28.0261L70.8592 28.0239C70.7657 27.9825 68.185 26.7814 68.4281 24.2319C68.6753 21.6348 71.5198 19.5321 71.5198 19.5321C68.4281 19.7793 67.1503 23.6128 67.1503 23.6128L66.8613 23.1599C66.8613 21.5101 68.7584 18.6656 72.7562 18.0879C76.7559 17.5123 77.9112 17.2651 79.7666 16.3986C81.6223 15.5321 81.3749 13.4294 83.8058 11.2435C86.239 9.05994 87.8889 9.30696 87.8889 9.30696C88.1568 9.2945 88.3812 9.37571 88.5497 9.46503C88.7158 9.37571 88.9423 9.2945 89.2105 9.30696C89.2105 9.30696 90.858 9.05994 93.2912 11.2435C95.7244 13.4294 95.477 15.5321 97.3325 16.3986C99.188 17.2651 100.341 17.5123 104.341 18.0879C108.341 18.6656 110.238 21.5101 110.238 23.1599L109.949 23.6128C109.949 23.6128 108.671 19.7793 105.577 19.5321Z" fill="#136C98"/>
<path d="M87.8999 26.0251L83.096 31.5999C83.096 31.5999 82.2005 31.733 80.9121 31.841C78.9403 31.5708 77.6646 30.8707 77.6646 30.8707C77.461 30.2951 77.3758 29.4265 77.3758 29.4265C77.0038 30.0042 76.9207 30.8707 76.9207 30.8707L76.0438 30.6648C75.7032 29.9627 75.726 28.7678 75.726 28.7678C75.5203 29.304 75.19 30.4571 75.19 30.4571C74.3236 30.293 72.3869 29.6737 71.7097 28.479C71.0343 27.2823 71.2732 26.2933 71.2732 26.2933C70.8203 27.0351 70.8619 28.0262 70.8619 28.0262L70.8598 28.0239C70.81 27.9431 69.6359 26.0045 70.8619 24.014C72.1127 21.9838 75.7987 22.6363 75.7987 22.6363C75.7987 22.6363 73.775 23.0663 73.2409 24.0678L73.5379 24.4211C73.5379 24.4211 74.5479 23.299 77.3966 23.0559C80.2453 22.8149 82.4664 21.6535 82.9838 20.8535C83.5011 20.0535 87.8999 26.0251 87.8999 26.0251ZM106.141 27.0993C106.081 26.8355 105.983 26.5488 105.825 26.2933C105.825 26.2933 106.064 27.2823 105.389 28.479C104.714 29.6737 102.775 30.293 101.908 30.4571C101.908 30.4571 101.58 29.304 101.372 28.7678C101.372 28.7678 101.395 29.9627 101.055 30.6648L100.178 30.8707C100.178 30.8707 100.095 30.0042 99.7248 29.4265C99.7248 29.4265 99.6375 30.2951 99.4358 30.8707C99.4358 30.8707 96.7845 32.323 93.2212 31.8535L88.6043 26.4948C88.6043 26.4948 93.0031 20.5232 93.5204 21.323C94.0357 22.123 96.2569 23.2846 99.1076 23.5256C101.956 23.7687 102.966 24.8906 102.966 24.8906L103.263 24.5375C102.729 23.536 100.705 23.1058 100.705 23.1058C100.705 23.1058 104.392 22.4535 105.643 24.4835C106.228 25.433 106.266 26.3701 106.141 27.0993Z" fill="#125A78"/>
<path d="M97.2249 56.3162C98.108 57.5566 98.9786 58.8782 99.6436 60.1041L88.2155 68.725V68.8434L88.1365 68.7851L88.0576 68.8434V68.725L76.6297 60.1041C77.2134 59.0236 77.9596 57.8682 78.7344 56.7587C80.7956 53.8126 83.0605 51.1987 83.0605 51.1987C83.0605 51.1987 81.4086 48.6304 79.5781 44.7926C78.9548 43.4836 78.3086 42.0293 77.7018 40.4771C75.3103 34.3745 75.5575 32.6436 75.5575 32.6436C76.2929 31.607 78.4457 30.7384 80.5068 29.9031C82.3727 29.1468 84.1638 28.4174 84.7517 27.6133C85.2775 26.8964 85.5351 26.1486 85.6556 25.5272C85.8219 24.6836 85.7409 24.0685 85.7409 24.0685H90.5323C90.5323 24.0685 90.4324 24.8207 90.6777 25.8035C90.819 26.3625 91.0724 26.9982 91.5213 27.6133C92.3689 28.7727 95.7103 29.7762 98.1828 30.9296C99.3214 31.4593 100.275 32.0204 100.716 32.6436C100.716 32.6436 100.963 34.3745 98.5713 40.4771C97.9335 42.1061 97.2542 43.629 96.5996 44.988C94.8065 48.7177 93.2127 51.1987 93.2127 51.1987C93.2127 51.1987 95.2531 53.5548 97.2228 56.3162H97.2249Z" fill="white"/>
<path d="M98.1808 30.9287C96.533 32.1026 93.7261 33.1996 89.4042 32.2397C85.608 31.3961 82.5992 30.5525 80.5048 29.9022C82.3707 29.1459 84.1618 28.4165 84.7497 27.6124C85.2754 26.8955 85.533 26.1476 85.6535 25.5263C86.9045 25.4453 88.2986 25.4806 89.8363 25.6842C90.125 25.7216 90.4036 25.7611 90.6757 25.8026C90.817 26.3616 91.0704 26.9973 91.5193 27.6124C92.3669 28.7718 95.7083 29.7753 98.1808 30.9287ZM97.2208 56.3153C95.2822 56.7767 92.2051 57.3168 88.0597 57.4498C83.4781 57.5954 80.4279 57.1402 78.7324 56.7578C80.7936 53.8117 83.0585 51.1978 83.0585 51.1978C83.0585 51.1978 81.4066 48.6295 79.576 44.7917C80.9494 45.9304 83.6071 47.416 87.9642 47.1542C92.2111 46.9008 95.0411 45.8016 96.5976 44.9871C94.8044 48.7168 93.2107 51.1978 93.2107 51.1978C93.2107 51.1978 95.2511 53.5539 97.2208 56.3153Z" fill="#E8E9E6"/>
<path d="M85.0718 27.1174C85.0718 27.1174 86.1922 27.9569 88.063 27.8868C90.564 27.793 91.0541 26.8347 91.0541 26.8347L90.5676 25.2363L85.7314 25.0329L85.0718 27.1174Z" fill="#F68573"/>
<path d="M85.9077 45.9209V50.0017C85.9077 50.0017 71.8077 59.0317 63.727 54.1657C63.727 54.1657 63.2324 52.6821 66.1187 49.2185C69.0048 45.7548 72.4663 37.7572 72.4663 37.7572C73.4574 34.1272 75.5561 32.6436 75.5561 32.6436L77.3264 36.9156L78.2031 39.0287L78.7351 40.3129L78.3362 40.8634L72.0736 49.4886L71.8991 49.7296C72.4415 49.5779 72.9899 49.4574 73.5386 49.3826C78.4048 48.7239 84.6713 46.9931 85.9077 45.9209Z" fill="white"/>
<path d="M89.2391 41.6892C89.1336 41.3725 88.9993 41.1648 88.885 41.4089C88.8533 40.7785 88.791 40.3225 88.7133 40.1895C88.4947 39.8145 88.394 39.8194 88.2148 40.2203C88.1963 39.9653 88.1079 39.7905 88.0125 39.772C87.8527 39.7412 87.5693 40.5296 87.4146 41.1789C87.3036 41.6458 87.1766 42.8996 87.1139 43.5691L86.8012 44.1794C86.832 43.2282 86.4975 42.2082 86.3013 42.2922C86.0849 42.3851 86.1778 42.9107 86.2086 44.0393C86.2243 44.6108 86.2241 45.0344 86.2201 45.3146L85.9098 45.9205C85.9098 45.9205 85.5799 48.8065 85.9098 50.0023C85.9098 50.0023 86.6943 49.6445 87.4901 48.579V48.5797C87.4901 48.5797 88.5898 47.2088 89.0844 45.4774C89.5792 43.7456 89.3936 42.153 89.2391 41.6892Z" fill="#F68573"/>
<path d="M112.721 54.1657C104.641 59.0317 90.5386 50.0017 90.5386 50.0017V45.9209C91.7771 46.9931 98.0436 48.7239 102.908 49.3826C103.456 49.4574 104.005 49.5779 104.549 49.7296L104.36 49.4699L98.2285 41.0234L97.7131 40.3129L100.352 32.2406C100.352 32.2406 102.773 33.5809 103.98 37.7572C103.98 37.7572 107.444 45.7548 110.33 49.2185C113.216 52.6821 112.721 54.1657 112.721 54.1657Z" fill="white"/>
<path d="M87.2102 41.6892C87.316 41.3725 87.4503 41.1648 87.5643 41.4089C87.5961 40.7785 87.6586 40.3225 87.736 40.1895C87.9547 39.8145 88.0553 39.8194 88.2346 40.2203C88.2531 39.9653 88.3415 39.7905 88.4368 39.772C88.5968 39.7412 88.8803 40.5296 89.0347 41.1789C89.146 41.6458 89.2727 42.8996 89.3354 43.5691L89.648 44.1794C89.6174 43.2282 89.952 42.2082 90.148 42.2922C90.3645 42.3851 90.2717 42.9107 90.2408 44.0393C90.2251 44.6108 90.2253 45.0344 90.2292 45.3146L90.5397 45.9205C90.5397 45.9205 90.8695 48.8065 90.5397 50.0023C90.5397 50.0023 89.755 49.6445 88.9592 48.579L88.9594 48.5797C88.9594 48.5797 87.8597 47.2088 87.3649 45.4774C86.8701 43.7456 87.0557 42.153 87.2102 41.6892Z" fill="#F68573"/>
<path d="M107.639 86.571C107.639 86.571 107.267 86.7891 106.804 86.571C106.804 86.571 106.525 86.7601 105.939 86.4503C105.939 86.4503 105.534 86.6353 105.133 86.2031C104.732 85.769 104.331 85.4904 102.908 84.6551C101.711 83.955 99.9448 82.8121 98.584 82.2491C98.3283 82.1411 98.0852 82.0557 97.865 81.9977C97.865 81.9977 82.0965 78.1017 71.7054 74.5735C63.3588 71.7438 61.3058 68.8845 61.0336 66.9524C60.9671 66.4785 61.0066 66.0608 61.0876 65.7118C61.0876 65.7118 62.7541 62.6741 69.6025 64.1866C76.9268 65.8032 83.9727 71.4195 88.1366 73.9566C92.0927 76.3667 95.4193 77.7153 97.9668 77.7382C98.1018 77.7382 98.2327 77.734 98.3615 77.7278C100.961 77.6052 101.638 77.7922 103.001 79.0907C104.36 80.3894 104.793 82.058 106.401 83.1094C108.011 84.1628 108.503 85.769 108.628 86.2031C108.753 86.6353 108.287 86.8515 107.639 86.571Z" fill="#6488CE"/>
<path d="M98.585 82.2492C98.3293 82.1411 98.0862 82.0557 97.866 81.9977C97.866 81.9977 82.0975 78.1018 71.7064 74.5736C63.3598 71.7438 61.3068 68.8845 61.0347 66.9524C61.7183 67.8188 63.4492 69.3 67.8394 71.3844C75.3197 74.9373 95.969 80.0613 98.585 82.2492Z" fill="#4873C2"/>
<path d="M104.141 74.5737C94.5068 77.8438 80.2464 81.4313 78.2202 81.9363C78.0616 81.9765 77.9779 81.9969 77.9779 81.9969C76.5868 82.3663 74.3616 83.8209 72.9387 84.655C71.5157 85.489 71.1146 85.7691 70.7135 86.2019C70.3093 86.6348 69.9082 86.4503 69.9082 86.4503C69.3195 86.759 69.0423 86.5715 69.0423 86.5715C68.5777 86.788 68.2083 86.5715 68.2083 86.5715C67.5589 86.8514 67.0943 86.6348 67.2184 86.2019C67.3424 85.7691 67.8361 84.1616 69.4436 83.1081C71.0511 82.0575 71.484 80.3892 72.8464 79.0905C74.2058 77.7917 74.8869 77.6042 77.4843 77.7283C77.773 77.7428 78.0731 77.7369 78.3849 77.7167C80.864 77.5349 84.0099 76.2101 87.7099 73.9561C91.8745 71.4192 98.9197 65.8027 106.242 64.1865C113.091 62.6742 114.8 65.6828 114.8 65.6828C115.213 67.455 114.531 71.0498 104.141 74.5737Z" fill="#6488CE"/>
<path d="M94.2875 18.0499C94.2875 21.7172 90.809 26.3347 88.3847 26.3347C85.8127 26.3347 82.4292 21.7172 82.4292 18.0499C82.4292 14.3823 85.0837 11.4092 88.3583 11.4092C91.6328 11.4092 94.2875 14.3823 94.2875 18.0499Z" fill="#F8A090"/>
<path d="M91.0024 11.2079C90.0483 10.7992 88.4455 10.6668 88.4455 10.6668C88.4455 10.6668 87.0437 10.5431 85.6007 11.1616C84.1576 11.7801 82.0136 14.0065 81.993 16.5834C81.9724 19.1603 82.9835 20.8528 82.9835 20.8528C82.9835 20.8528 83.6628 20.2119 83.7454 19.0368C83.8277 17.8616 83.4154 17.0782 83.4154 17.0782C83.4154 17.0782 83.9102 16.872 84.6522 16.3154C85.3946 15.7589 86.3015 14.5219 86.3015 14.5219C85.7861 15.6765 84.4668 16.9753 84.4668 16.9753L84.8173 17.0782C84.8173 17.0782 86.0335 16.5217 87.1674 14.5631C87.669 13.697 87.9764 13.0332 88.1638 12.5612C88.3249 13.0281 88.6493 13.8056 89.2909 14.9134C90.4245 16.872 91.6409 17.4285 91.6409 17.4285L91.9913 17.3254C91.9913 17.3254 90.6719 16.0267 90.1566 14.8722C90.1566 14.8722 91.0636 16.1092 91.8058 16.6658C92.548 17.2223 93.0428 17.4285 93.0428 17.4285C93.0428 17.4285 92.6305 18.2119 92.7131 19.3869C92.7954 20.562 93.5788 21.3973 93.5788 21.3973C93.5788 21.3973 94.4858 19.5106 94.4653 16.9337C94.4447 14.3568 92.4455 11.8264 91.0024 11.2079Z" fill="#136C98"/>
<path d="M108.647 60.9067C104.799 59.8991 100.792 59.7779 99.6128 60.0323C99.1437 58.9256 98.011 57.4491 98.011 57.4491C98.011 57.4491 93.537 60.3499 86.7339 60.2882C79.9309 60.2264 77.6797 58.3326 77.6797 58.3326C77.4008 58.7634 76.6284 60.1025 76.6284 60.1025C76.6284 60.1025 73.3157 59.7994 67.197 61.0923C61.3422 62.3289 61.0884 65.71 61.0884 65.71C61.0884 65.71 64.9642 63.2362 72.2207 65.2154C79.3129 67.1496 82.9403 72.704 87.797 73.0315V73.049C87.854 73.0481 87.9097 73.0426 87.9664 73.0403C88.0231 73.0426 88.0788 73.0481 88.1358 73.049V73.0315C92.9926 72.704 96.6197 67.1496 103.712 65.2154C110.969 63.2362 114.844 65.71 114.844 65.71C114.844 65.71 115.026 62.5765 108.647 60.9067Z" fill="#6488CE"/>
<path d="M78.2202 81.9363C78.0616 81.9765 77.9779 81.9969 77.9779 81.9969C76.5868 82.3663 74.3616 83.8209 72.9387 84.655C71.5157 85.489 71.1146 85.7691 70.7135 86.2019C70.3093 86.6348 69.9082 86.4503 69.9082 86.4503C69.3195 86.759 69.0423 86.5715 69.0423 86.5715C68.5777 86.788 68.2083 86.5715 68.2083 86.5715C67.5589 86.8514 67.0943 86.6348 67.2184 86.2019C67.3424 85.7691 67.8361 84.1616 69.4436 83.1081C71.0511 82.0575 71.484 80.3892 72.8464 79.0905C74.2058 77.7917 74.8869 77.6042 77.4843 77.7283C77.773 77.7428 78.0731 77.7369 78.3849 77.7167C77.9201 79.278 78.0501 80.9087 78.2202 81.9363ZM107.639 86.5715C107.639 86.5715 107.266 86.788 106.805 86.5715C106.805 86.5715 106.525 86.759 105.939 86.4503C105.939 86.4503 105.535 86.6348 105.134 86.2019C104.732 85.7691 104.331 85.489 102.908 84.655C101.711 83.9536 99.9444 82.8107 98.5849 82.2479C98.7581 80.1295 98.2702 78.5105 97.9673 77.7369C98.1029 77.7369 98.2328 77.7341 98.3628 77.7283C100.96 77.6042 101.638 77.7917 103.001 79.0905C104.36 80.3892 104.793 82.0575 106.401 83.1081C108.011 84.1616 108.505 85.7691 108.629 86.2019C108.753 86.6348 108.288 86.8514 107.639 86.5715Z" fill="#F68573"/>
<path d="M69.0392 63.4474C68.9412 63.4604 68.9072 63.4797 68.9072 63.4797C68.9072 63.4797 68.9531 63.4668 69.0392 63.4474Z" fill="#1A395B"/>
<path d="M103.725 63.7645C101.145 64.6079 98.1634 66.5814 95.2252 68.6843C94.4507 68.7213 93.5435 68.6667 92.6825 68.378C91.976 68.1412 91.5628 68.1835 91.6068 67.8411C91.9941 64.836 96.9056 61.922 96.9056 61.922C93.6823 62.8771 91.6481 65.6955 90.8391 67.2872C90.2312 68.0275 89.234 68.9385 88.0575 68.8437C86.1036 68.686 85.4554 66.9926 84.8235 66.0849C83.8079 64.626 81.6882 62.7539 78.8799 61.922C78.8799 61.922 83.2513 64.3909 84.7674 67.6088C85.1854 68.4962 85.2201 69.3281 83.7777 68.8437C81.4625 68.0664 77.4482 65.0664 76.1195 64.4598C72.5146 62.8142 69.6695 63.3061 69.0386 63.448C69.4082 63.3992 70.6986 63.4453 74.6056 64.9943C77.8654 66.2862 81.8954 69.2492 84.2623 71.1173L86.2148 72.7131C86.2437 72.7379 86.2633 72.7545 86.2633 72.7545C86.2633 72.7545 86.2526 72.7433 86.2367 72.7263C86.3821 72.8123 87.3944 73.3445 89.3747 72.8782C88.7186 73.3231 88.0835 73.7346 87.4765 74.0972C82.7052 76.9468 78.384 77.7169 78.384 77.7169C78.384 77.7169 78.791 78.5296 84.4902 76.5259C90.1892 74.5223 95.6656 68.8677 100.964 65.9737C106.263 63.0795 109.825 63.4359 111.383 63.9701C111.383 63.9701 108.711 62.1341 103.725 63.7645ZM89.1938 79.7466C89.1938 79.7466 93.4466 78.943 95.7806 77.445L95.1166 77.3251L87.9207 79.4025L89.1938 79.7466Z" fill="#4873C2"/>
<path d="M78.3382 40.8628L72.0756 49.4879C70.8414 49.6562 69.9771 49.4401 69.9771 49.4401C72.834 47.2022 76.6551 38.4921 77.3284 36.915C77.399 36.7571 77.4343 36.6698 77.4343 36.6698C77.8103 37.3473 78.066 38.1554 78.205 39.028C78.3008 39.6161 78.3444 40.2354 78.3382 40.8628ZM106.588 49.4401C106.588 49.4401 105.663 49.6707 104.361 49.4692L98.229 41.0227C98.1916 39.4084 98.4783 37.8438 99.1287 36.6698C99.1287 36.6698 103.442 46.9758 106.588 49.4401Z" fill="#E8E9E6"/>
<path d="M78.2185 41.0234C78.2185 41.0234 77.8364 35.6523 75.7982 33.2253C75.7982 33.2253 79.2041 35.5314 78.2185 41.0234ZM71.8995 49.7283C71.8995 49.7283 66.7694 50.2112 65.79 52.1702C65.79 52.1702 66.0125 50.7813 68.3501 49.7283C70.6876 48.675 72.2945 49.184 72.2945 49.184L71.8995 49.7283ZM98.2415 41.0234C98.2415 41.0234 98.6234 35.6523 100.662 33.2253C100.662 33.2253 97.2557 35.5314 98.2415 41.0234ZM104.561 49.7283C104.561 49.7283 109.69 50.2112 110.67 52.1702C110.67 52.1702 110.447 50.7813 108.11 49.7283C105.772 48.675 104.165 49.184 104.165 49.184L104.561 49.7283Z" fill="#E8E9E6"/>
<path d="M88.2292 9.78377L88.358 11.8987C88.358 11.8987 89.2518 10.3403 88.2292 9.78377ZM82.1978 17.5366C82.1978 17.5366 82.0863 19.1339 80.1051 20.3362C78.1238 21.5382 75.5503 21.0931 75.5503 21.0931C75.5503 21.0931 78.0284 20.8544 79.927 19.735C81.8255 18.6157 82.1978 17.5366 82.1978 17.5366ZM95.1469 18.2731C95.1469 18.2731 95.2064 20.4859 98.5606 21.2496C101.915 22.0132 103.488 21.5382 105.031 22.3695C105.031 22.3695 103.696 21.1227 101.113 20.9743C98.5308 20.8258 95.8426 19.9388 95.1469 18.2731Z" fill="#125A78"/>
</svg>
