<svg width="143" height="82" viewBox="0 0 143 82" fill="none" xmlns="http://www.w3.org/2000/svg">
<path d="M48.6313 70.7681C51.3603 71.0161 54.1376 71.5748 55.5867 72.9045C58.379 75.4682 59.0402 75.5937 59.0402 75.5937" stroke="black" stroke-width="2.82272" stroke-linecap="round" stroke-linejoin="round"/>
<path d="M26.9751 70.7613C26.0514 70.4087 25.1155 70.0024 24.2461 69.5422C20.4122 67.5074 17.973 69.5183 17.644 68.0094C17.3149 66.5004 19.6515 67.0801 19.8779 66.7275C20.1073 66.3749 20.4364 65.5951 23.9654 66.2494C27.4943 66.9038 29.7796 65.6459 29.7796 65.6459C29.7796 65.6459 32.4723 64.1638 34.2746 66.7275C35.1651 67.9944 36.4421 68.9058 37.8398 69.5183" stroke="black" stroke-width="2.82272" stroke-linecap="round" stroke-linejoin="round"/>
<path d="M57.8365 68.4146C57.9422 68.4504 58.0478 68.4833 58.1535 68.5191C62.8024 70.037 67.0016 73.4792 65.0605 77.6803C63.1194 81.8815 54.0449 79.0668 54.0449 79.0668C54.0449 79.0668 49.891 77.9493 47.4096 77.7252C45.8247 77.5817 41.4233 75.783 37.8853 74.3368" stroke="black" stroke-width="2.82272" stroke-linecap="round" stroke-linejoin="round"/>
<path d="M23.5512 66.1454C26.0387 64.9591 27.9285 63.7191 27.9285 62.8466C27.9285 61.3287 28.2454 60.9701 28.5141 59.1385C28.7858 57.3069 28.7405 54.8029 28.7405 54.8029C27.207 52.1675 27.1617 47.2971 27.1617 47.2971C27.1617 47.2971 24.7678 51.7223 24.2274 53.1954C23.687 54.6685 23.1437 54.6685 22.872 57.262C22.6003 59.8526 18.5823 62.9362 17.0034 64.2779C15.4246 65.6195 13.2571 69.1035 13.2571 69.1035L12.5598 70.4959C11.0292 73.3913 8.78022 74.703 6.60669 75.0466C4.43315 75.3932 3.17129 75.0705 3.17129 75.0705C3.13205 74.5386 4.14335 74.3683 4.14335 74.3683C2.80602 74.2847 2 73.8962 2 73.8962C2.1449 73.0775 4.91918 73.5496 4.91918 73.5496C4.91918 73.5496 4.25202 72.71 4.07693 72.3365C3.90184 71.963 4.18561 69.8146 4.18561 69.8146C4.18561 69.8146 4.46032 69.7429 4.77126 70.0776C5.08219 70.4092 5.0037 71.2608 5.07012 71.8136C5.13653 72.3664 5.71312 72.7697 5.71312 72.7697C5.71312 72.7697 5.59539 72.3365 5.66482 71.6164C5.73123 70.8963 7.54553 71.0875 7.61195 70.8903C7.67836 70.6901 7.41271 70.1881 7.19837 69.9072C6.98404 69.6264 5.93651 70.0178 5.03389 70.0088C4.13127 69.9999 4.02561 69.2349 4.18561 69.1662C4.34561 69.0975 7.50629 68.724 7.50629 68.724C8.65645 68.1533 9.46549 68.0218 10.0119 68.0487L10.0874 67.971C10.8813 67.0358 11.6511 65.4312 12.3756 64.0687C12.8164 63.241 13.1635 62.3715 13.4352 61.4751C15.1982 55.6515 18.1385 53.7063 18.8207 52.4454C19.5453 51.1038 21.1422 47.1058 21.1422 46.0511C21.1422 44.9963 20.7316 44.7095 22.4493 39.5372C24.167 34.365 27.8198 35.9935 31.0861 34.9865C34.3525 33.9796 33.8453 30.7734 33.8453 30.7734L37.809 27.5703L41.8572 30.7734C41.8572 30.7734 41.35 33.9826 44.6164 34.9865C47.8827 35.9935 51.5355 34.365 53.2532 39.5372C54.9709 44.7095 54.5603 44.9963 54.5603 46.0511C54.5603 47.1058 56.1572 51.1038 56.8817 52.4454C57.564 53.7063 60.5013 55.6485 62.2673 61.4751C62.539 62.3715 62.8861 63.241 63.3269 64.0687C64.0514 65.4312 64.8212 67.0358 65.6151 67.971L65.6906 68.0487C66.237 68.0218 67.046 68.1563 68.1962 68.724C68.1962 68.724 71.3569 69.0975 71.5169 69.1662C71.6769 69.2349 71.5712 69.9999 70.6686 70.0088C69.766 70.0178 68.7185 69.6264 68.5041 69.9072C68.2898 70.1881 68.0241 70.6901 68.0905 70.8903C68.157 71.0905 69.9682 70.8963 70.0377 71.6164C70.1041 72.3365 69.9894 72.7697 69.9894 72.7697C69.9894 72.7697 70.566 72.3664 70.6324 71.8136C70.6988 71.2608 70.6203 70.4092 70.9312 70.0776C71.2422 69.7459 71.5169 69.8146 71.5169 69.8146C71.5169 69.8146 71.7976 71.963 71.6256 72.3365C71.4505 72.71 70.7833 73.5496 70.7833 73.5496C70.7833 73.5496 73.5576 73.0745 73.7025 73.8962C73.7025 73.8962 72.8965 74.2847 71.5591 74.3683C71.5591 74.3683 72.5674 74.5386 72.5312 75.0705C72.5312 75.0705 71.2693 75.3932 69.0958 75.0466C66.9223 74.7 64.6733 73.3883 63.1427 70.4959L62.4454 69.1035C62.4454 69.1035 60.2779 65.6195 58.6991 64.2779C57.1202 62.9362 53.1022 59.8526 52.8305 57.262C52.5588 54.6714 52.0185 54.6714 51.4751 53.1954C50.9347 51.7223 48.5408 47.2971 48.5408 47.2971C48.5408 47.2971 48.4955 52.1675 46.962 54.8029C46.962 54.8029 46.9167 57.3039 47.1884 59.1385C47.4601 60.9701 47.774 61.3287 47.774 62.8466C47.774 63.7221 49.6759 64.9681 52.1785 66.1573" stroke="black" stroke-width="2.82272" stroke-linecap="round" stroke-linejoin="round"/>
<path d="M16.6619 75.5989C16.6619 75.5989 17.323 75.4734 20.1154 72.9097C22.9078 70.346 30.654 70.6478 33.4494 70.5223C36.2448 70.3968 39.6199 69.2912 41.4221 66.7275C43.2243 64.1638 45.9171 65.6459 45.9171 65.6459C45.9171 65.6459 48.2023 66.9038 51.7313 66.2494C55.2603 65.5951 55.5923 66.3749 55.8187 66.7275C56.0482 67.0801 58.3847 66.5004 58.0526 68.0094C57.7236 69.5183 55.2844 67.5074 51.4505 69.5422C47.6167 71.577 42.5541 72.5242 42.5541 72.5242L42.3307 72.5959C40.1632 73.2204 30.7748 77.5112 28.2903 77.7353C25.8058 77.9594 21.655 79.0769 21.655 79.0769C21.655 79.0769 12.5805 81.8916 10.6394 77.6905C8.69832 73.4893 12.8975 70.0502 17.5464 68.5293C17.6551 68.4934 17.7638 68.4576 17.8755 68.4217" stroke="black" stroke-width="2.82272" stroke-linecap="round" stroke-linejoin="round"/>
<path d="M43.8154 27.6254C43.9603 27.488 43.9995 27.2728 44.0025 27.0726C44.0053 26.9239 43.9948 26.7731 43.9844 26.6227C43.961 26.2866 43.9378 25.9519 44.0629 25.6444C44.1107 25.5249 44.1795 25.4157 44.2482 25.3066C44.262 25.2847 44.2757 25.2629 44.2893 25.241L43.8154 27.6254ZM43.8154 27.6254C43.6433 27.7898 43.3746 27.7957 43.1361 27.7898M43.8154 27.6254L43.1361 27.7898M42.3727 23.5852L42.2896 24.7782L42.9626 24.7021C42.8954 24.816 42.8154 24.9638 42.754 25.1163C42.5589 25.5982 42.5473 26.0571 42.5567 26.3634L42.0138 26.3498L41.7593 27.4796C41.5115 28.5793 41.0494 29.5801 40.3705 30.3184L40.369 30.3201C39.7084 31.0407 38.8294 31.5185 37.9511 31.616L37.9335 31.618L37.9286 31.6186C37.9282 31.6186 37.9278 31.6187 37.9274 31.6187C37.9212 31.6189 37.912 31.6191 37.8978 31.6192L37.8442 31.6193C37.7909 31.6193 37.7552 31.6176 37.73 31.6152C36.854 31.5159 35.9781 31.0387 35.3193 30.3201L35.3178 30.3184C34.6385 29.5797 34.1768 28.5816 33.9292 27.4802L33.6784 26.3644L33.1284 26.3712C33.1382 26.064 33.128 25.5998 32.9297 25.1125L32.9265 25.1046L32.9232 25.0968C32.864 24.9562 32.7844 24.811 32.7197 24.7007L33.4186 24.7798L33.2861 23.0759C33.2674 22.8346 33.2567 22.5969 33.2541 22.3569L33.2541 22.3553C33.2513 22.1303 33.2543 21.9167 33.2665 21.7145C33.2798 21.512 33.2979 21.3172 33.3225 21.1306C33.3485 20.9487 33.3785 20.7775 33.4143 20.6145C33.4474 20.4648 33.4874 20.3161 33.5339 20.1711L33.5339 20.1711L33.5367 20.1624C33.5777 20.0315 33.6252 19.9017 33.6789 19.7756L33.6789 19.7757L33.6817 19.769C33.7274 19.6601 33.7818 19.547 33.8449 19.4287C33.9033 19.3223 33.9638 19.2223 34.0257 19.1302C34.0992 19.0225 34.1605 18.939 34.219 18.8689L34.219 18.8689L34.224 18.8629C34.2911 18.7814 34.3588 18.7067 34.4266 18.6396C34.4993 18.5676 34.5779 18.4961 34.6649 18.422C34.7362 18.3615 34.804 18.3098 34.8711 18.2643L34.8712 18.2643L34.8792 18.2588C34.9536 18.2077 35.0395 18.1535 35.1381 18.0944C35.207 18.054 35.2843 18.0133 35.3743 17.9699L42.3727 23.5852ZM42.3727 23.5852L40.1622 21.9442H42.4357M42.3727 23.5852L42.4357 21.9442M42.4357 21.9442L42.4351 21.9323L42.4352 21.9323C42.427 21.7133 42.4138 21.5118 42.3919 21.3188L42.3912 21.3126L42.3912 21.3126C42.3714 21.1316 42.3442 20.9525 42.3093 20.7722C42.2785 20.615 42.2405 20.4568 42.195 20.2974C42.1499 20.1468 42.1027 20.0055 42.0516 19.8728C42.0012 19.7463 41.9467 19.6253 41.8854 19.504L41.8854 19.504C41.8349 19.4039 41.7752 19.2995 41.7064 19.19C41.6328 19.0773 41.5748 18.9954 41.5219 18.9304L41.5137 18.9203L41.5056 18.91C41.4455 18.8332 41.3778 18.7563 41.3081 18.6853L41.3077 18.6849C41.2235 18.599 41.1485 18.5277 41.0772 18.4667L41.0745 18.4643C40.6608 18.1084 40.125 17.8409 39.5294 17.6831L39.524 17.6817L39.524 17.6817C39.2336 17.6035 38.9245 17.5505 38.6053 17.5211L38.6021 17.5208C37.7375 17.4391 36.8992 17.4773 36.1534 17.6805L36.1471 17.6823L36.1471 17.6823C36.0575 17.7062 35.9806 17.7292 35.9108 17.7535L35.8999 17.7573L35.8999 17.7572C35.8066 17.7888 35.7175 17.8214 35.6344 17.8547C35.5447 17.8912 35.4583 17.9295 35.375 17.9696L42.4357 21.9442ZM43.1361 27.7898C42.8493 29.0626 42.2969 30.3086 41.4094 31.2738M43.1361 27.7898L41.4094 31.2738M32.5522 27.7898C32.839 29.0656 33.3914 30.3086 34.279 31.2738L32.5522 27.7898ZM32.5522 27.7898C32.3107 27.7927 32.042 27.7898 31.87 27.6254M32.5522 27.7898L31.87 27.6254M31.87 27.6254C31.7251 27.488 31.6858 27.2728 31.6828 27.0726L31.87 27.6254ZM41.4094 31.2738C40.552 32.209 39.3717 32.8783 38.1068 33.0188L41.4094 31.2738ZM32.8448 26.6048L32.8413 26.6014L32.8448 26.6048ZM33.0941 27.0558C33.0943 27.0582 33.0944 27.0594 33.0943 27.0595L33.0941 27.0558Z" fill="white" stroke="black" stroke-width="2.82272"/>
<path d="M37.7881 16.0631C38.1081 16.0631 38.4251 16.078 38.739 16.1079C39.1284 16.1438 39.5179 16.2095 39.8952 16.3111C40.662 16.5143 41.3986 16.8698 41.9993 17.3868C42.111 17.4824 42.2167 17.584 42.3193 17.6886C42.425 17.7991 42.5246 17.9127 42.6212 18.0322C42.7208 18.1577 42.8144 18.2891 42.8989 18.4206C42.9895 18.5611 43.074 18.7075 43.1495 18.8599C43.231 19.0182 43.3034 19.1826 43.3699 19.3499C43.4393 19.5292 43.4997 19.7084 43.554 19.8937C43.6114 20.0909 43.6597 20.2911 43.6989 20.4943C43.7412 20.7124 43.7744 20.9305 43.7985 21.1516C43.8257 21.3907 43.8408 21.6327 43.8498 21.8718C43.8589 22.1347 43.8559 22.3947 43.8498 22.6576C43.8438 22.8309 43.8317 23.0042 43.8197 23.1775C43.8498 23.1745 43.877 23.1715 43.9072 23.1715C44.0944 23.1715 44.2966 23.2373 44.4445 23.3478C44.6166 23.4733 44.7313 23.6735 44.7434 23.8857C44.7494 23.9902 44.7313 24.0978 44.7102 24.2024C44.6317 24.5639 44.4928 24.9135 44.3027 25.2333C44.2242 25.3647 44.1366 25.4932 44.0763 25.6366C43.8951 26.0818 44.0249 26.5838 44.0159 27.0649C44.0129 27.2651 43.9736 27.4802 43.8287 27.6177C43.6808 27.7581 43.4604 27.782 43.2491 27.782C43.2159 27.782 43.1827 27.782 43.1495 27.782C42.8627 29.0579 42.3103 30.3009 41.4227 31.266C40.5654 32.2013 39.385 32.8706 38.1202 33.011C38.0326 33.02 37.9451 33.023 37.8575 33.023C37.77 33.023 37.6824 33.023 37.5949 33.011C36.33 32.8706 35.1497 32.2013 34.2923 31.266C33.4048 30.3009 32.8524 29.0549 32.5656 27.782C32.5324 27.782 32.4992 27.782 32.466 27.782C32.2546 27.782 32.0343 27.7581 31.8863 27.6177C31.7414 27.4802 31.7022 27.2651 31.6992 27.0649C31.6901 26.5838 31.8199 26.0818 31.6388 25.6366C31.5815 25.4932 31.4939 25.3647 31.4124 25.2333C31.2222 24.9135 31.0833 24.5639 31.0049 24.2024C30.9807 24.0978 30.9626 23.9932 30.9717 23.8857C30.9837 23.6735 31.1015 23.4733 31.2705 23.3478C31.4184 23.2373 31.6177 23.1715 31.8079 23.1715C31.8381 23.1715 31.8682 23.1715 31.8954 23.1775C31.8743 22.9086 31.8622 22.6367 31.8592 22.3648C31.8562 22.1168 31.8592 21.8658 31.8743 21.6178C31.8863 21.3877 31.9105 21.1606 31.9407 20.9305C31.9679 20.7214 32.0071 20.5092 32.0524 20.3031C32.0946 20.1118 32.146 19.9206 32.2063 19.7324C32.2607 19.5561 32.3241 19.3857 32.3965 19.2154C32.4629 19.0571 32.5384 18.9017 32.6199 18.7493C32.6984 18.6059 32.7829 18.4654 32.8735 18.331C32.961 18.2025 33.0516 18.077 33.1512 17.9575C33.2448 17.8439 33.3444 17.7334 33.4501 17.6288C33.5497 17.5272 33.6584 17.4316 33.7671 17.339C33.8727 17.2493 33.9844 17.1657 34.0961 17.088C34.2048 17.0103 34.3195 16.9386 34.4342 16.8728C34.5459 16.8071 34.6606 16.7473 34.7784 16.6906C34.8901 16.6368 35.0078 16.586 35.1225 16.5382C35.2342 16.4934 35.3489 16.4515 35.4636 16.4127C35.5753 16.3768 35.687 16.341 35.7987 16.3111C36.4478 16.1348 37.124 16.0631 37.8002 16.0631M37.8002 15.9137C37.0696 15.9137 36.3844 16.0003 35.7595 16.1677C35.6448 16.2005 35.527 16.2334 35.4153 16.2723C35.2976 16.3111 35.1799 16.3559 35.0651 16.4007C34.9444 16.4485 34.8236 16.5023 34.7119 16.5591C34.5912 16.6189 34.4735 16.6816 34.3587 16.7473C34.238 16.8161 34.1203 16.8908 34.0086 16.9685C33.8908 17.0491 33.7761 17.1358 33.6674 17.2284C33.5527 17.324 33.444 17.4226 33.3414 17.5272C33.2327 17.6348 33.1301 17.7483 33.0335 17.8678C32.9339 17.9903 32.8373 18.1188 32.7467 18.2533C32.6531 18.3907 32.5656 18.5372 32.4871 18.6836C32.4056 18.836 32.3271 18.9973 32.2577 19.1616C32.1852 19.332 32.1188 19.5112 32.0614 19.6905C32.0011 19.8788 31.9497 20.073 31.9045 20.2732C31.8592 20.4794 31.8199 20.6945 31.7897 20.9126C31.7596 21.1367 31.7354 21.3728 31.7233 21.6088C31.7082 21.8538 31.7022 22.1078 31.7082 22.3678C31.7082 22.5799 31.7203 22.801 31.7354 23.0251C31.5392 23.0401 31.3369 23.1148 31.183 23.2283C30.9747 23.3837 30.8388 23.6257 30.8237 23.8767C30.8147 24.0052 30.8388 24.1277 30.86 24.2323C30.9445 24.6118 31.0864 24.9733 31.2856 25.308C31.3037 25.3408 31.3249 25.3707 31.343 25.4036C31.4033 25.5022 31.4607 25.5948 31.4999 25.6904C31.6116 25.9653 31.5905 26.2731 31.5694 26.5988C31.5603 26.7512 31.5482 26.9065 31.5513 27.0619C31.5573 27.3607 31.6328 27.5758 31.7837 27.7193C31.9709 27.8956 32.2214 27.9225 32.4478 27.9254C32.7739 29.291 33.3716 30.4772 34.1837 31.3616C35.1044 32.3626 36.3421 33.017 37.5828 33.1544C37.6673 33.1634 37.7549 33.1694 37.8636 33.1694C37.9722 33.1694 38.0598 33.1664 38.1443 33.1544C39.385 33.017 40.6227 32.3626 41.5435 31.3616C42.3555 30.4772 42.9533 29.291 43.2793 27.9254C43.5057 27.9254 43.7593 27.8956 43.9434 27.7193C44.0944 27.5758 44.1698 27.3607 44.1759 27.0619C44.1789 26.9065 44.1668 26.7482 44.1578 26.5988C44.1366 26.2731 44.1125 25.9653 44.2272 25.6904C44.2664 25.5918 44.3238 25.4992 44.3842 25.4006C44.4023 25.3677 44.4234 25.3378 44.4415 25.305C44.6408 24.9703 44.7827 24.6088 44.8672 24.2293C44.8913 24.1247 44.9125 23.9992 44.9034 23.8737C44.8883 23.6227 44.7525 23.3807 44.5442 23.2253C44.3902 23.1118 44.1879 23.0371 43.9917 23.0221C44.0008 22.8996 44.0068 22.7771 44.0098 22.6576C44.0189 22.3857 44.0219 22.1168 44.0098 21.8628C44.0008 21.6118 43.9857 21.3668 43.9585 21.1307C43.9344 20.9007 43.8981 20.6766 43.8589 20.4614C43.8197 20.2523 43.7683 20.0461 43.711 19.8489C43.6566 19.6577 43.5932 19.4724 43.5238 19.2931C43.4574 19.1198 43.3789 18.9525 43.2974 18.7911C43.2189 18.6358 43.1314 18.4834 43.0378 18.3399C42.9472 18.1995 42.8506 18.065 42.751 17.9366C42.6544 17.8141 42.5487 17.6945 42.4401 17.581C42.3344 17.4734 42.2257 17.3688 42.111 17.2702C41.5224 16.7653 40.7737 16.3828 39.9465 16.1617C39.5782 16.0631 39.1798 15.9944 38.7662 15.9555C38.4371 15.9256 38.1141 15.9077 37.8002 15.9077V15.9137Z" fill="white"/>
<g filter="url(#filter0_f_124_16978)">
<path d="M37.9213 74.7296C39.9052 74.7296 41.5135 73.1213 41.5135 71.1374C41.5135 69.1535 39.9052 67.5452 37.9213 67.5452C35.9374 67.5452 34.3291 69.1535 34.3291 71.1374C34.3291 73.1213 35.9374 74.7296 37.9213 74.7296Z" fill="#D71921"/>
</g>
<path d="M115.881 54.8606C118.61 55.1086 121.387 55.6674 122.836 56.997C125.629 59.5607 126.29 59.6862 126.29 59.6862" stroke="black" stroke-width="2.82272" stroke-linecap="round" stroke-linejoin="round"/>
<path d="M94.228 54.8538C93.3043 54.5013 92.3685 54.0949 91.499 53.6347C87.6652 51.5999 85.226 53.6108 84.8969 52.1019C84.5679 50.593 86.9044 51.1726 87.1308 50.82C87.3603 50.4675 87.6893 49.6876 91.2183 50.342C94.7473 50.9963 97.0325 49.7384 97.0325 49.7384C97.0325 49.7384 99.7253 48.2563 101.527 50.82C102.418 52.087 103.695 52.9983 105.093 53.6108" stroke="black" stroke-width="2.82272" stroke-linecap="round" stroke-linejoin="round"/>
<path d="M125.09 52.5071C125.196 52.5429 125.301 52.5758 125.407 52.6117C130.056 54.1296 134.255 57.5717 132.314 61.7729C130.373 65.974 121.298 63.1593 121.298 63.1593C121.298 63.1593 117.144 62.0418 114.663 61.8177C113.078 61.6743 108.677 59.8755 105.139 58.4293" stroke="black" stroke-width="2.82272" stroke-linecap="round" stroke-linejoin="round"/>
<path d="M90.8007 50.2379C93.2882 49.0517 95.178 47.8116 95.178 46.9391C95.178 45.4212 95.4949 45.0627 95.7636 43.231C96.0353 41.3994 95.99 38.8954 95.99 38.8954C94.4565 36.26 94.4112 31.3896 94.4112 31.3896C94.4112 31.3896 92.0173 35.8148 91.4769 37.2879C90.9366 38.761 90.3932 38.761 90.1215 41.3546C89.8498 43.9452 85.8318 47.0288 84.2529 48.3704C82.6741 49.712 80.5066 53.196 80.5066 53.196L79.8093 54.5884C78.2787 57.4838 76.0297 58.7955 73.8562 59.1391C71.6827 59.4857 70.4208 59.163 70.4208 59.163C70.3816 58.6312 71.3929 58.4609 71.3929 58.4609C70.0555 58.3772 69.2495 57.9887 69.2495 57.9887C69.3944 57.17 72.1687 57.6421 72.1687 57.6421C72.1687 57.6421 71.5015 56.8025 71.3264 56.429C71.1514 56.0555 71.4351 53.9071 71.4351 53.9071C71.4351 53.9071 71.7098 53.8354 72.0208 54.1701C72.3317 54.5018 72.2532 55.3533 72.3196 55.9061C72.386 56.4589 72.9626 56.8623 72.9626 56.8623C72.9626 56.8623 72.8449 56.429 72.9143 55.7089C72.9807 54.9888 74.795 55.18 74.8615 54.9828C74.9279 54.7826 74.6622 54.2806 74.4479 53.9998C74.2335 53.7189 73.186 54.1103 72.2834 54.1014C71.3808 54.0924 71.2751 53.3275 71.4351 53.2587C71.5951 53.19 74.7558 52.8165 74.7558 52.8165C75.906 52.2458 76.715 52.1143 77.2614 52.1412L77.3369 52.0635C78.1308 51.1283 78.9006 49.5238 79.6251 48.1612C80.0659 47.3336 80.413 46.464 80.6847 45.5676C82.4477 39.744 85.388 37.7989 86.0703 36.5379C86.7948 35.1963 88.3917 31.1984 88.3917 30.1436C88.3917 29.0888 87.9812 28.802 89.6989 23.6298C91.4165 18.4575 95.0693 20.086 98.3356 19.0791C101.602 18.0721 101.095 14.866 101.095 14.866L105.058 11.6628L109.107 14.866C109.107 14.866 108.6 18.0751 111.866 19.0791C115.132 20.086 118.785 18.4575 120.503 23.6298C122.22 28.802 121.81 29.0888 121.81 30.1436C121.81 31.1984 123.407 35.1963 124.131 36.5379C124.814 37.7989 127.751 39.7411 129.517 45.5676C129.788 46.464 130.136 47.3336 130.576 48.1612C131.301 49.5238 132.071 51.1283 132.865 52.0635L132.94 52.1412C133.487 52.1143 134.296 52.2488 135.446 52.8165C135.446 52.8165 138.606 53.19 138.766 53.2587C138.926 53.3275 138.821 54.0924 137.918 54.1014C137.015 54.1103 135.968 53.7189 135.754 53.9998C135.539 54.2806 135.274 54.7826 135.34 54.9828C135.406 55.183 137.218 54.9888 137.287 55.7089C137.354 56.429 137.239 56.8623 137.239 56.8623C137.239 56.8623 137.815 56.4589 137.882 55.9061C137.948 55.3533 137.87 54.5018 138.181 54.1701C138.492 53.8384 138.766 53.9071 138.766 53.9071C138.766 53.9071 139.047 56.0555 138.875 56.429C138.7 56.8025 138.033 57.6421 138.033 57.6421C138.033 57.6421 140.807 57.167 140.952 57.9887C140.952 57.9887 140.146 58.3772 138.809 58.4609C138.809 58.4609 139.817 58.6312 139.781 59.163C139.781 59.163 138.519 59.4857 136.345 59.1391C134.172 58.7925 131.923 57.4808 130.392 54.5884L129.695 53.196C129.695 53.196 127.527 49.712 125.949 48.3704C124.37 47.0288 120.352 43.9452 120.08 41.3546C119.808 38.764 119.268 38.764 118.725 37.2879C118.184 35.8148 115.79 31.3896 115.79 31.3896C115.79 31.3896 115.745 36.26 114.211 38.8954C114.211 38.8954 114.166 41.3964 114.438 43.231C114.71 45.0627 115.024 45.4212 115.024 46.9391C115.024 47.8146 116.925 49.0606 119.428 50.2498" stroke="black" stroke-width="2.82272" stroke-linecap="round" stroke-linejoin="round"/>
<path d="M83.9114 59.6914C83.9114 59.6914 84.5725 59.5659 87.3649 57.0022C90.1573 54.4385 97.9035 54.7403 100.699 54.6148C103.494 54.4893 106.869 53.3837 108.672 50.82C110.474 48.2563 113.167 49.7384 113.167 49.7384C113.167 49.7384 115.452 50.9963 118.981 50.342C122.51 49.6876 122.842 50.4675 123.068 50.82C123.298 51.1726 125.634 50.593 125.302 52.1019C124.973 53.6108 122.534 51.5999 118.7 53.6347C114.866 55.6696 109.804 56.6168 109.804 56.6168L109.58 56.6885C107.413 57.313 98.0243 61.6037 95.5398 61.8278C93.0554 62.0519 88.9045 63.1694 88.9045 63.1694C88.9045 63.1694 79.83 65.9841 77.8889 61.783C75.9478 57.5819 80.147 54.1427 84.7959 52.6218C84.9046 52.5859 85.0133 52.5501 85.125 52.5142" stroke="black" stroke-width="2.82272" stroke-linecap="round" stroke-linejoin="round"/>
<path d="M111.067 11.7177C111.212 11.5803 111.251 11.3651 111.254 11.1649C111.257 11.0162 111.247 10.8654 111.236 10.715C111.213 10.3789 111.19 10.0442 111.315 9.73666C111.363 9.61715 111.431 9.50801 111.5 9.39886C111.514 9.37703 111.528 9.3552 111.541 9.33329L111.067 11.7177ZM111.067 11.7177C110.895 11.882 110.627 11.888 110.388 11.882M111.067 11.7177L110.388 11.882M109.625 7.67749L109.542 8.8705L110.215 8.79437C110.147 8.90833 110.067 9.05604 110.006 9.20862C109.811 9.69049 109.799 10.1493 109.809 10.4557L109.266 10.4421L109.011 11.5718C108.763 12.6715 108.301 13.6724 107.622 14.4107L107.621 14.4123C106.96 15.133 106.081 15.6108 105.203 15.7083L105.185 15.7103L105.181 15.7109C105.18 15.7109 105.18 15.7109 105.179 15.711C105.173 15.7112 105.164 15.7114 105.15 15.7115L105.096 15.7116C105.043 15.7116 105.007 15.7099 104.982 15.7075C104.106 15.6081 103.23 15.131 102.571 14.4123L102.57 14.4107C101.89 13.672 101.429 12.6739 101.181 11.5725L100.93 10.4566L100.38 10.4634C100.39 10.1563 100.38 9.69213 100.182 9.2048L100.178 9.19692L100.175 9.18908C100.116 9.04845 100.036 8.90327 99.9717 8.793L100.671 8.87206L100.538 7.16819C100.519 6.9269 100.509 6.68923 100.506 6.44914L100.506 6.44763C100.503 6.22259 100.506 6.009 100.518 5.80682C100.532 5.60425 100.55 5.40946 100.574 5.22293C100.6 5.04101 100.63 4.86976 100.666 4.70681C100.699 4.5571 100.739 4.40842 100.786 4.26343L100.786 4.26343L100.789 4.25464C100.83 4.12379 100.877 3.99403 100.931 3.86793L100.931 3.86794L100.934 3.86129C100.979 3.75241 101.034 3.6393 101.097 3.52101C101.155 3.41455 101.216 3.31458 101.278 3.22246C101.351 3.11475 101.412 3.03128 101.471 2.96115L101.471 2.96117L101.476 2.95516C101.543 2.87367 101.611 2.79897 101.679 2.73192C101.751 2.6599 101.83 2.58841 101.917 2.51424C101.988 2.45382 102.056 2.40208 102.123 2.3566L102.123 2.35663L102.131 2.3511C102.206 2.29996 102.291 2.24579 102.39 2.18664C102.459 2.14628 102.536 2.10563 102.626 2.06222L109.625 7.67749ZM109.625 7.67749L107.414 6.0365H109.688M109.625 7.67749L109.688 6.0365M109.688 6.0365L109.687 6.02457L109.687 6.02457C109.679 5.80563 109.666 5.6041 109.644 5.41107L109.643 5.40493L109.643 5.40493C109.623 5.22389 109.596 5.04475 109.561 4.86444C109.53 4.70732 109.492 4.54909 109.447 4.38965C109.402 4.23904 109.355 4.09779 109.304 3.96512C109.253 3.83854 109.199 3.71756 109.137 3.59626L109.137 3.59625C109.087 3.49618 109.027 3.39179 108.958 3.28233C108.885 3.16963 108.827 3.08769 108.774 3.02265L108.766 3.01255L108.758 3.00231C108.697 2.9255 108.63 2.84857 108.56 2.77759L108.56 2.77719C108.475 2.69132 108.4 2.61999 108.329 2.55897L108.326 2.55663C107.913 2.20071 107.377 1.93323 106.781 1.7754L106.776 1.77397L106.776 1.77396C106.486 1.69576 106.176 1.64274 105.857 1.61336L105.854 1.61306C104.989 1.53143 104.151 1.56961 103.405 1.77283L103.399 1.77456L103.399 1.77454C103.309 1.79851 103.233 1.82151 103.163 1.84577L103.152 1.84956L103.152 1.84952C103.059 1.88112 102.969 1.9137 102.886 1.94699C102.797 1.98348 102.71 2.02181 102.627 2.06188L109.688 6.0365ZM110.388 11.882C110.101 13.1549 109.549 14.4009 108.661 15.3661M110.388 11.882L108.661 15.3661M99.8042 11.882C100.091 13.1579 100.643 14.4009 101.531 15.3661L99.8042 11.882ZM99.8042 11.882C99.5627 11.885 99.294 11.882 99.1219 11.7177M99.8042 11.882L99.1219 11.7177M99.1219 11.7177C98.977 11.5803 98.9378 11.3651 98.9348 11.1649L99.1219 11.7177ZM108.661 15.3661C107.804 16.3013 106.624 16.9706 105.359 17.111L108.661 15.3661ZM100.097 10.6971L100.093 10.6937L100.097 10.6971ZM100.346 11.1481C100.346 11.1505 100.346 11.1517 100.346 11.1517L100.346 11.1481Z" fill="white" stroke="black" stroke-width="2.82272"/>
<path d="M105.037 0.155376C105.357 0.155376 105.674 0.170316 105.988 0.200196C106.377 0.236052 106.766 0.301788 107.144 0.40338C107.911 0.606563 108.647 0.962135 109.248 1.47906C109.36 1.57467 109.465 1.67627 109.568 1.78085C109.674 1.8914 109.773 2.00495 109.87 2.12447C109.969 2.24996 110.063 2.38143 110.147 2.51291C110.238 2.65334 110.323 2.79975 110.398 2.95214C110.48 3.11051 110.552 3.27484 110.618 3.44217C110.688 3.62145 110.748 3.80073 110.803 3.98599C110.86 4.1832 110.908 4.38339 110.947 4.58658C110.99 4.8047 111.023 5.02282 111.047 5.24394C111.074 5.48297 111.089 5.725 111.098 5.96404C111.107 6.22699 111.104 6.48694 111.098 6.74989C111.092 6.92319 111.08 7.09649 111.068 7.2698C111.098 7.26681 111.126 7.26382 111.156 7.26382C111.343 7.26382 111.545 7.32956 111.693 7.44011C111.865 7.56561 111.98 7.7658 111.992 7.97795C111.998 8.08253 111.98 8.1901 111.959 8.29468C111.88 8.65623 111.741 9.00582 111.551 9.32554C111.473 9.45701 111.385 9.58549 111.325 9.72892C111.144 10.1741 111.273 10.6761 111.264 11.1572C111.261 11.3574 111.222 11.5725 111.077 11.71C110.929 11.8504 110.709 11.8743 110.498 11.8743C110.464 11.8743 110.431 11.8743 110.398 11.8743C110.111 13.1502 109.559 14.3932 108.671 15.3583C107.814 16.2935 106.634 16.9629 105.369 17.1033C105.281 17.1123 105.194 17.1152 105.106 17.1152C105.019 17.1152 104.931 17.1152 104.843 17.1033C103.579 16.9629 102.398 16.2935 101.541 15.3583C100.653 14.3932 100.101 13.1472 99.8141 11.8743C99.7809 11.8743 99.7477 11.8743 99.7145 11.8743C99.5032 11.8743 99.2828 11.8504 99.1349 11.71C98.99 11.5725 98.9507 11.3574 98.9477 11.1572C98.9387 10.6761 99.0685 10.1741 98.8873 9.72892C98.83 9.58549 98.7424 9.45701 98.6609 9.32554C98.4707 9.00582 98.3319 8.65623 98.2534 8.29468C98.2292 8.1901 98.2111 8.08552 98.2202 7.97795C98.2323 7.7658 98.35 7.56561 98.519 7.44011C98.667 7.32956 98.8662 7.26382 99.0564 7.26382C99.0866 7.26382 99.1168 7.26382 99.1439 7.2698C99.1228 7.00088 99.1107 6.72897 99.1077 6.45706C99.1047 6.20906 99.1077 5.95807 99.1228 5.71006C99.1349 5.47999 99.159 5.2529 99.1892 5.02282C99.2164 4.81366 99.2556 4.60152 99.3009 4.39534C99.3432 4.20411 99.3945 4.01288 99.4549 3.82464C99.5092 3.64834 99.5726 3.47803 99.6451 3.30771C99.7115 3.14935 99.7869 2.99397 99.8685 2.84159C99.9469 2.69816 100.031 2.55773 100.122 2.42327C100.21 2.29478 100.3 2.16929 100.4 2.04977C100.493 1.93622 100.593 1.82567 100.699 1.72109C100.798 1.61949 100.907 1.52388 101.016 1.43125C101.121 1.34161 101.233 1.25795 101.345 1.18026C101.453 1.10257 101.568 1.03086 101.683 0.965123C101.794 0.899387 101.909 0.839627 102.027 0.782855C102.139 0.729071 102.256 0.678275 102.371 0.630467C102.483 0.585647 102.597 0.543815 102.712 0.504972C102.824 0.469116 102.936 0.43326 103.047 0.40338C103.696 0.227088 104.372 0.155376 105.049 0.155376M105.049 0.00597599C104.318 0.00597599 103.633 0.092628 103.008 0.259956C102.893 0.292824 102.776 0.325692 102.664 0.364536C102.546 0.40338 102.428 0.4482 102.314 0.49302C102.193 0.540827 102.072 0.594611 101.96 0.651383C101.84 0.711143 101.722 0.773891 101.607 0.839627C101.487 0.908351 101.369 0.983051 101.257 1.06074C101.139 1.14141 101.025 1.22807 100.916 1.32069C100.801 1.41631 100.693 1.51491 100.59 1.61949C100.481 1.72706 100.379 1.84061 100.282 1.96013C100.182 2.08263 100.086 2.21112 99.9952 2.34558C99.9017 2.48303 99.8141 2.62944 99.7356 2.77585C99.6541 2.92824 99.5756 3.08959 99.5062 3.25393C99.4337 3.42424 99.3673 3.60352 99.31 3.7828C99.2496 3.97105 99.1983 4.16527 99.153 4.36546C99.1077 4.57164 99.0685 4.78677 99.0383 5.00489C99.0081 5.22899 98.9839 5.46505 98.9719 5.7011C98.9568 5.94611 98.9507 6.20009 98.9568 6.46005C98.9568 6.6722 98.9689 6.89331 98.9839 7.11741C98.7877 7.13235 98.5855 7.20705 98.4315 7.32059C98.2232 7.47597 98.0874 7.718 98.0723 7.96899C98.0632 8.09747 98.0874 8.21998 98.1085 8.32456C98.193 8.70404 98.3349 9.06558 98.5341 9.40024C98.5523 9.43311 98.5734 9.46299 98.5915 9.49585C98.6519 9.59446 98.7092 9.68709 98.7485 9.7827C98.8602 10.0576 98.839 10.3654 98.8179 10.6911C98.8089 10.8434 98.7968 10.9988 98.7998 11.1542C98.8058 11.453 98.8813 11.6681 99.0322 11.8116C99.2194 11.9878 99.47 12.0147 99.6964 12.0177C100.022 13.3832 100.62 14.5695 101.432 15.4539C102.353 16.4549 103.591 17.1093 104.831 17.2467C104.916 17.2557 105.003 17.2617 105.112 17.2617C105.221 17.2617 105.308 17.2587 105.393 17.2467C106.634 17.1093 107.871 16.4549 108.792 15.4539C109.604 14.5695 110.202 13.3832 110.528 12.0177C110.754 12.0177 111.008 11.9878 111.192 11.8116C111.343 11.6681 111.418 11.453 111.424 11.1542C111.427 10.9988 111.415 10.8405 111.406 10.6911C111.385 10.3654 111.361 10.0576 111.476 9.7827C111.515 9.6841 111.572 9.59147 111.633 9.49287C111.651 9.46 111.672 9.43012 111.69 9.39725C111.889 9.06259 112.031 8.70105 112.116 8.32157C112.14 8.21699 112.161 8.0915 112.152 7.966C112.137 7.71501 112.001 7.47298 111.793 7.3176C111.639 7.20406 111.436 7.12936 111.24 7.11442C111.249 6.99191 111.255 6.8694 111.258 6.74989C111.267 6.47798 111.27 6.20906 111.258 5.95508C111.249 5.70409 111.234 5.45907 111.207 5.22302C111.183 4.99294 111.147 4.76884 111.107 4.55371C111.068 4.34455 111.017 4.13838 110.96 3.94117C110.905 3.74994 110.842 3.56468 110.772 3.3854C110.706 3.2121 110.627 3.04477 110.546 2.88342C110.467 2.72804 110.38 2.57565 110.286 2.43223C110.196 2.29179 110.099 2.15733 110 2.02885C109.903 1.90634 109.797 1.78682 109.689 1.67328C109.583 1.56571 109.474 1.46113 109.36 1.36253C108.771 0.857555 108.022 0.475091 107.195 0.25398C106.827 0.155376 106.428 0.086652 106.015 0.047808C105.686 0.0179281 105.363 0 105.049 0V0.00597599Z" fill="white"/>
<g filter="url(#filter1_f_124_16978)">
<path d="M105.172 51.6034C107.156 51.6034 108.765 49.9951 108.765 48.0112C108.765 46.0272 107.156 44.4189 105.172 44.4189C103.188 44.4189 101.58 46.0272 101.58 48.0112C101.58 49.9951 103.188 51.6034 105.172 51.6034Z" fill="#FF9900"/>
</g>
<defs>
<filter id="filter0_f_124_16978" x="27.8212" y="61.0372" width="20.2005" height="20.2002" filterUnits="userSpaceOnUse" color-interpolation-filters="sRGB">
<feFlood flood-opacity="0" result="BackgroundImageFix"/>
<feBlend mode="normal" in="SourceGraphic" in2="BackgroundImageFix" result="shape"/>
<feGaussianBlur stdDeviation="3.25397" result="effect1_foregroundBlur_124_16978"/>
</filter>
<filter id="filter1_f_124_16978" x="95.0721" y="37.911" width="20.2005" height="20.2002" filterUnits="userSpaceOnUse" color-interpolation-filters="sRGB">
<feFlood flood-opacity="0" result="BackgroundImageFix"/>
<feBlend mode="normal" in="SourceGraphic" in2="BackgroundImageFix" result="shape"/>
<feGaussianBlur stdDeviation="3.25397" result="effect1_foregroundBlur_124_16978"/>
</filter>
</defs>
</svg>
