<svg width="73" height="95" viewBox="0 0 73 95" fill="none" xmlns="http://www.w3.org/2000/svg">
<path fill-rule="evenodd" clip-rule="evenodd" d="M45.4904 79.4226C45.8394 79.6145 46.2037 79.5753 46.568 79.5098C46.8502 79.4575 47.1222 79.3921 47.4044 79.3397C47.4968 79.3223 47.5943 79.3354 47.6917 79.3397C47.8046 79.3397 47.9227 79.3441 47.9637 79.4531C47.9996 79.5535 47.8867 79.5927 47.8149 79.6363C46.7373 80.3256 45.5572 80.7138 44.1768 80.5567C43.8946 80.5262 43.6021 80.5262 43.3148 80.5219C42.9145 80.5175 42.5348 80.5916 42.1602 80.7269C40.9749 81.1544 39.7742 81.547 38.594 81.9832C37.5318 82.3758 36.4286 82.62 35.2895 82.7814C33.5602 83.0257 31.8618 83.366 30.2146 83.9025C28.1775 84.5699 26.0737 85.0279 23.9031 85.2809C22.9025 85.3987 21.9122 85.595 20.8962 85.6517C19.3671 85.7389 17.838 85.7826 16.2986 85.7302C14.8875 85.6866 13.4866 85.5775 12.0807 85.4816C11.742 85.4598 11.4033 85.4074 11.0647 85.3464C10.6285 85.2678 10.5516 85.1544 10.6901 84.8054C10.998 84.0246 11.3059 83.2395 11.5624 82.4455C11.8549 81.5251 12.1115 80.596 12.4501 79.6887C12.64 79.1914 12.8555 78.7028 13.0556 78.2056C13.1069 78.0791 13.189 77.9831 13.3584 77.9526C14.2409 77.7824 15.1338 77.6908 16.042 77.6996C17.0221 77.7083 17.9714 77.8653 18.9104 78.0921C20.1881 78.4062 21.435 78.7945 22.6101 79.3223C23.6722 79.7977 24.8011 79.933 25.9864 79.9024C27.182 79.8719 28.352 79.693 29.5373 79.5884C30.0299 79.5447 30.4866 79.379 30.9279 79.1914C31.2204 79.0693 31.3743 78.8555 31.3743 78.5763C31.3743 78.4717 31.3897 78.3626 31.3589 78.2623C31.1485 77.5861 31.5795 77.1543 32.1696 76.8402C33.006 76.3953 33.9451 76.2993 34.8995 76.5261C35.6486 76.705 36.3927 76.9144 37.1316 77.1238C37.501 77.2285 37.8705 77.2808 38.2553 77.3026C39.4458 77.3637 40.6055 77.1936 41.7446 76.9275C42.2834 76.801 42.8273 76.7966 43.3712 76.8141C43.5816 76.8184 43.7715 76.8795 43.9613 76.9493C44.6592 77.1936 45.3775 77.307 46.1267 77.1717C46.5064 77.1019 46.8913 77.0976 47.271 77.1238C48.2613 77.1979 48.9643 77.5469 49.2568 78.3015C49.4518 78.8163 49.1439 79.2132 48.4922 79.2307C48.1946 79.2394 47.8919 79.2045 47.5943 79.174C47.3839 79.1521 47.1838 79.1652 46.9888 79.2307C46.5013 79.4008 46.0036 79.5055 45.4699 79.427L45.4904 79.4226Z" fill="#2A1649"/>
<path fill-rule="evenodd" clip-rule="evenodd" d="M52.0424 85.8568C50.5698 85.9179 49.1125 85.774 47.6552 85.6518C45.9362 85.5122 44.2172 85.3814 42.488 85.4904C42.0364 85.521 41.59 85.5689 41.1385 85.6126C40.1071 85.7172 39.0911 85.6213 38.0648 85.5166C36.7718 85.3814 35.5043 85.1327 34.2266 84.9277C33.2312 84.7663 32.2306 84.6267 31.2454 84.4304C31.076 84.3955 30.8502 84.4086 30.8092 84.2254C30.763 84.016 31.0196 84.0117 31.1581 83.9419C31.5122 83.763 31.897 83.6452 32.2973 83.558C33.2363 83.3443 34.1907 83.2047 35.1605 83.1218C36.6999 82.9866 38.1521 82.5722 39.5683 82.0574C40.0455 81.8829 40.5227 81.7085 40.9999 81.5296C41.4258 81.3682 41.8774 81.3726 42.3289 81.3508C44.1916 81.2679 46.0388 81.0934 47.8399 80.6528C48.4454 80.5045 49.0099 80.2602 49.5794 80.0334C50.6006 79.6277 51.5293 79.0912 52.4991 78.607C53.7204 77.9919 55.0494 77.7128 56.4553 77.6822C57.2045 77.6648 57.9588 77.7084 58.7131 77.7346C59.1903 77.752 59.4469 77.9396 59.5957 78.3278C59.8676 79.0345 60.0575 79.763 60.273 80.4827C60.5604 81.4555 60.976 82.3933 61.3095 83.3486C61.4429 83.7281 61.5764 84.1076 61.6995 84.4871C61.7919 84.7794 61.6995 84.8884 61.3249 84.919C60.7092 84.967 60.0985 85.0324 59.493 85.124C59.2262 85.1633 58.9543 85.2112 58.6875 85.2592C56.4964 85.6649 54.2694 85.7521 52.0373 85.8525L52.0424 85.8568Z" fill="#2A1649"/>
<path fill-rule="evenodd" clip-rule="evenodd" d="M64.8557 73.5333C65.1636 73.4112 65.4099 73.4984 65.6511 73.577C66.6978 73.9216 67.7395 74.2749 68.7863 74.6151C69.4277 74.8202 70.0383 75.0819 70.6387 75.3611C71.3622 75.6969 71.8137 76.2248 72.1575 76.8267C72.5629 77.5334 72.5424 78.288 72.4141 79.0471C72.3884 79.1954 72.3063 79.2215 72.1678 79.1125C71.7162 78.7592 71.2544 78.4189 70.9773 77.926C70.731 77.4898 70.3565 77.1452 69.8587 76.8834C69.2173 76.5476 68.5964 76.1811 68.032 75.758C67.5035 75.3611 66.9134 75.0819 66.2155 74.999C65.6254 74.9292 65.2354 74.7329 65.1431 74.192C65.102 73.9696 64.9583 73.7602 64.8506 73.529L64.8557 73.5333Z" fill="#2A1649"/>
<path fill-rule="evenodd" clip-rule="evenodd" d="M4.61511 78.646C4.48682 79.0255 4.39959 79.3134 4.25591 79.5882C3.90698 80.2556 3.55293 80.923 3.09111 81.5468C2.65496 82.1357 2.22906 82.7333 1.91605 83.3833C1.88013 83.4574 1.83395 83.5316 1.78264 83.597C1.70567 83.693 1.60818 83.7061 1.50555 83.6275C1.43371 83.5708 1.37213 83.5098 1.31569 83.4443C0.740985 82.7638 0.345877 82.0179 0.217595 81.1804C0.212464 81.1324 0.202202 81.0888 0.202202 81.0408C0.161152 80.4519 0.18681 80.4257 0.86927 80.4825C1.33622 80.5217 1.72619 80.3516 2.09565 80.1509C2.56772 79.8936 3.00388 79.5926 3.42464 79.2741C3.75305 79.0211 4.14816 78.8685 4.61511 78.646Z" fill="#2A1649"/>
<path fill-rule="evenodd" clip-rule="evenodd" d="M67.8623 78.655C68.2985 78.8557 68.6833 79.004 69.0066 79.2483C69.4068 79.5493 69.8224 79.8328 70.2637 80.0902C70.7512 80.3737 71.2643 80.5613 71.8801 80.4566C72.188 80.4042 72.2393 80.4566 72.2547 80.7227C72.2957 81.3421 72.0956 81.9179 71.8082 82.4806C71.6184 82.8557 71.367 83.2047 71.0694 83.5275C70.8641 83.75 70.7358 83.7413 70.6024 83.4795C70.156 82.6158 69.53 81.835 68.9963 81.0106C68.5294 80.2952 68.0983 79.5536 67.8623 78.6594V78.655Z" fill="#2A1649"/>
<path fill-rule="evenodd" clip-rule="evenodd" d="M0.504349 78.8513C0.46843 78.5722 0.571056 78.3366 0.689075 78.1054C1.08418 77.3159 1.73073 76.6921 2.49016 76.1425C3.40353 75.4838 4.40926 74.9472 5.44577 74.4412C5.96917 74.1839 6.48743 73.9309 7.01082 73.6779C7.17502 73.5994 7.34435 73.5165 7.53421 73.499C7.64197 73.5645 7.55987 73.6255 7.53421 73.6866C7.41619 73.9701 7.27251 74.2493 7.18015 74.5416C7.10831 74.764 6.95437 74.8644 6.70294 74.9124C6.37967 74.9691 6.06666 75.0432 5.74852 75.1086C5.24052 75.2133 4.83515 75.4707 4.4503 75.7499C3.8756 76.1643 3.25985 76.5351 2.62357 76.8753C2.11557 77.1458 1.74612 77.4991 1.47416 77.9397C1.29457 78.2319 1.08932 78.5024 0.796836 78.7205C0.730129 78.7728 0.663419 78.8383 0.504349 78.8513Z" fill="#2A1649"/>
<path d="M72.3833 79.5398C72.2807 79.3827 72.137 79.2562 71.978 79.1472C71.5059 78.8331 71.1518 78.4405 70.8439 78.0087C70.6079 77.6771 70.3 77.4023 69.9254 77.1755C69.4328 76.8789 68.9146 76.6128 68.4579 76.2813C67.6318 75.6836 66.7184 75.2256 65.6203 75.0991C65.3842 75.0729 65.2662 74.9726 65.1944 74.7851C64.8763 73.9911 64.5427 73.206 64.2246 72.4121C63.7782 71.2997 63.3625 70.1786 63.0803 69.0271C62.9059 68.3117 62.7622 67.5876 62.6288 66.8634C62.2798 64.979 61.6538 63.1644 60.6635 61.4457C60.3915 60.9746 60.1863 60.4817 59.9708 59.9887C59.7809 59.5569 59.7296 59.1076 59.7245 58.6496C59.7142 57.8906 59.7245 57.1316 59.6629 56.3813C59.591 55.5699 59.4628 54.7586 59.3242 53.9559C59.1754 53.0792 58.9856 52.2111 58.6725 51.3648C58.5391 51.0115 58.3647 50.6582 58.3647 50.283C58.3647 49.6767 58.3441 49.0704 58.4108 48.4684C58.4981 47.6919 58.6161 46.9198 58.6007 46.1347C58.5853 45.2361 58.4314 44.3506 58.298 43.4607C58.1851 42.7017 57.9182 41.9863 57.5437 41.2927C57.0357 40.3549 56.3122 39.5479 55.3475 38.9328C54.3982 38.3265 53.3206 37.9164 52.161 37.6765C51.7505 37.5893 51.3348 37.5151 50.9243 37.4279C50.0366 37.2359 49.1489 37.044 48.2407 36.9175C47.9122 36.8695 47.6044 36.7823 47.3221 36.634C46.8655 36.394 46.4191 36.1498 45.9572 35.9186C45.1362 35.4998 44.3255 35.0636 43.448 34.7277C42.9041 34.5183 42.5141 34.1606 42.2319 33.7244C42.0882 33.502 41.9497 33.2708 41.8419 33.0309C41.4058 32.0363 41.3904 31.0025 41.4879 29.9643C41.4879 29.9207 41.5084 29.8727 41.5341 29.8291C41.9497 29.1791 42.1909 28.4768 42.3499 27.7527C42.3807 27.6087 42.4423 27.5346 42.6476 27.552C42.8733 27.5738 43.0273 27.4386 43.1248 27.2729C43.1915 27.1594 43.2274 27.0329 43.2479 26.9064C43.3249 26.4528 43.4788 26.0297 43.7764 25.6371C44.2023 25.0743 44.2588 24.4593 43.9817 23.8311C43.7918 23.3993 43.5917 23.3251 43.0683 23.4429C43.0478 23.4473 43.0221 23.4342 42.9708 23.4298C42.9862 23.2728 42.9914 23.1114 43.017 22.95C43.1761 21.9991 43.0991 21.0699 42.6476 20.1757C42.2576 19.3905 41.7085 18.6926 40.9337 18.156C39.615 17.2443 38.0756 16.8081 36.3823 16.7558C35.2944 16.7253 34.2528 16.9215 33.2625 17.2749C31.4973 17.903 30.3017 18.9892 29.6757 20.5334C29.3575 21.3142 29.3524 22.1081 29.4602 22.9107C29.4858 23.0896 29.5166 23.2641 29.491 23.4516C28.9676 23.3077 28.7572 23.3033 28.4698 23.8922C28.3929 24.0536 28.3723 24.2281 28.3518 24.4026C28.2954 24.8911 28.4544 25.3274 28.7674 25.7243C28.9984 26.0253 29.1215 26.3481 29.1933 26.6971C29.2293 26.8803 29.2498 27.0678 29.3422 27.238C29.4345 27.4081 29.5731 27.5608 29.7988 27.5433C30.0708 27.5215 30.117 27.648 30.1529 27.8181C30.2709 28.407 30.4608 28.9784 30.7738 29.5106C30.938 29.7898 31.0149 30.069 31.0303 30.3743C31.0714 31.2511 31.0252 32.1192 30.6712 32.9567C30.3017 33.8335 29.727 34.5576 28.6289 34.8804C28.5417 34.9066 28.4596 34.9589 28.3775 34.9982C27.305 35.4955 26.2788 36.0494 25.2423 36.5947C24.996 36.7256 24.7445 36.8477 24.4572 36.887C23.0358 37.0789 21.6504 37.4148 20.2547 37.6983C19.0847 37.9339 17.9918 38.3614 17.0527 38.9982C15.6776 39.9274 14.8309 41.1662 14.3896 42.6013C14.1484 43.3822 14.0817 44.1848 13.974 44.9831C13.8816 45.6548 13.8559 46.331 13.9278 47.0071C14.0304 48.0147 14.169 49.0224 14.1484 50.0388C14.1433 50.2961 14.1125 50.5491 14.0253 50.7978C13.8713 51.234 13.6917 51.6615 13.584 52.1064C13.1324 53.921 12.8143 55.7488 12.7784 57.607C12.7732 58.0607 12.7579 58.5143 12.7579 58.968C12.7579 59.3126 12.6655 59.6398 12.5372 59.9582C12.3012 60.5296 12.0343 61.088 11.7316 61.6376C10.9773 63.0161 10.4077 64.4381 10.0691 65.9387C9.76632 67.2866 9.5662 68.6519 9.14544 69.9824C8.63744 71.592 7.94472 73.1493 7.32383 74.724C7.23147 74.9639 7.08779 75.0817 6.79018 75.1209C6.02561 75.2256 5.32263 75.4655 4.68636 75.8625C4.05008 76.2638 3.43945 76.7 2.76725 77.0577C2.24899 77.3369 1.83849 77.7077 1.53061 78.1613C1.28431 78.5277 0.961044 78.8418 0.571067 79.1079C0.391472 79.23 0.222138 79.3696 0.104119 79.5485C-0.121657 79.8931 0.0271552 80.2072 0.478708 80.3075C0.827635 80.386 1.18682 80.3816 1.52036 80.2377C1.99757 80.0327 2.46451 79.8146 2.83396 79.4743C3.01869 79.3042 3.24959 79.1733 3.4805 79.0468C3.86022 78.8375 4.23993 78.6281 4.61965 78.4187C4.69148 78.3794 4.75306 78.314 4.87621 78.3358C4.7274 78.8244 4.62991 79.3086 4.37848 79.7535C3.9885 80.4558 3.62418 81.1756 3.14697 81.843C2.51069 82.7285 1.94625 83.6445 1.47417 84.6042C1.36641 84.8179 1.27405 85.036 1.19708 85.2585C1.09446 85.5508 1.26892 85.9085 1.5768 86.0786C1.87442 86.2443 2.13098 86.2225 2.4799 85.987C2.73134 85.8168 2.89041 85.5856 3.04435 85.3501C3.62931 84.4384 4.22967 83.5398 4.87621 82.6587C4.95318 82.554 5.0045 82.4362 5.18409 82.3446C5.10199 82.5278 5.04042 82.6805 4.96858 82.8288C4.36822 84.0894 3.75246 85.3457 3.27012 86.6456C3.16749 86.9205 3.1521 87.1953 3.19315 87.4701C3.22907 87.7275 3.40866 87.8889 3.70628 87.9586C4.11678 88.0546 4.46571 87.9543 4.70688 87.6446C4.95831 87.3261 5.17896 86.9903 5.33289 86.6238C5.76392 85.6162 6.28731 84.6434 6.8261 83.675C7.00569 83.5616 7.00056 83.3522 7.1545 83.1908C7.00056 83.4002 6.93898 83.6053 6.91846 83.819C6.64137 84.6216 6.37455 85.4286 6.08206 86.2269C5.95891 86.5628 5.91786 86.9117 5.88194 87.2563C5.86142 87.4875 5.94865 87.6969 6.2206 87.806C6.49256 87.9194 6.7286 87.8409 6.94412 87.6926C7.19555 87.5181 7.34949 87.2825 7.46751 87.0339C7.63171 86.7024 7.76512 86.3577 7.8934 86.0131C8.10379 85.4417 8.33982 84.8746 8.5656 84.3032C8.65796 84.2029 8.70414 84.0894 8.74006 83.976V83.9542C8.79651 83.8015 8.82729 83.6532 8.92479 83.5442C8.85808 83.6663 8.79651 83.8059 8.75033 83.9542V83.976C8.69388 84.1243 8.65797 84.2814 8.6477 84.4428C8.64257 84.4864 8.63744 84.53 8.63231 84.5736C8.5656 84.6652 8.64257 84.7743 8.57073 84.8659C8.51942 85.1189 8.46811 85.3675 8.42193 85.6206C8.37574 85.8736 8.37574 86.1309 8.41166 86.3883C8.44758 86.65 8.69901 86.8594 8.99663 86.9117C9.26858 86.9554 9.50462 86.8594 9.67909 86.6151C9.78171 86.4668 9.8792 86.3054 9.94078 86.144C10.2487 85.289 10.6232 84.4471 10.8849 83.5791C11.2749 82.2704 11.7059 80.9705 12.1729 79.6837C12.4346 78.964 12.7271 78.2442 12.7065 77.4721C12.6963 77.1929 12.7065 76.9138 12.6963 76.6346C12.6758 75.9977 12.7784 75.3783 13.0709 74.7894C13.6353 73.6378 14.2921 72.5298 15.149 71.5091C16.1907 70.2659 17.1297 68.966 18.002 67.6355C18.6383 66.6628 19.1155 65.6377 19.3054 64.5297C19.449 63.6878 19.5722 62.8459 19.6697 61.9997C19.8082 60.835 20.0751 59.7052 20.6241 58.619C21.4862 56.9134 22.0249 55.1206 22.4406 53.3016C22.6971 52.1806 22.7741 51.0377 22.964 49.9079C23.0717 49.2797 23.1641 48.6516 23.4463 47.9973C23.4155 48.3811 23.3796 48.7039 23.3591 49.0311C23.3026 49.9602 23.2154 50.885 23.0769 51.8141C22.9794 52.4903 22.9075 53.1795 23.0974 53.8643C23.3745 54.8633 23.7183 55.8447 24.2519 56.7651C24.6008 57.3671 24.842 57.9909 24.9549 58.6539C25.0729 59.3431 25.1807 60.0367 25.4373 60.7041C25.5194 60.9222 25.5963 61.1578 25.5655 61.389C25.504 61.8296 25.4167 62.2658 25.2628 62.6889C24.8625 63.7794 24.4418 64.8569 24.0467 65.9474C23.9389 66.2397 23.7747 66.4054 23.4155 66.5014C21.6401 66.9769 19.9006 67.5439 18.2329 68.2506C18.0277 68.3378 17.8532 68.4338 17.7095 68.6127C16.8988 69.6203 16.1548 70.6716 15.2978 71.653C14.3845 72.7 13.6815 73.8297 13.3377 75.1166C13.1068 75.9934 13.0196 76.8571 13.4095 77.7426C13.7636 77.6117 14.1484 77.603 14.5281 77.5637C15.344 77.4852 16.165 77.459 16.986 77.5027C18.2381 77.5681 19.3772 77.9694 20.5317 78.3271C21.1372 78.5147 21.7068 78.7677 22.2918 78.9989C22.8408 79.217 23.395 79.2998 24.0005 79.1079C24.6009 78.916 25.2269 78.7764 25.8426 78.6194C27.1921 78.2791 28.5673 78.1133 29.9784 78.1788C30.1991 78.1875 30.4146 78.218 30.6352 78.2224C31.0098 78.2311 31.1022 78.1701 31.1278 77.8516C31.1843 77.2191 31.5999 76.8003 32.2208 76.5124C32.6877 76.2987 33.1957 76.2115 33.7243 76.1984C34.6274 76.1766 35.4894 76.3729 36.3412 76.591C37.0493 76.7742 37.7472 76.9661 38.4912 77.0185C39.2353 77.0708 39.9639 77.0577 40.6874 76.8745C41.1184 76.7654 41.5597 76.6738 42.001 76.5953C42.6732 76.4732 43.3403 76.5081 43.9766 76.7306C44.8027 77.0185 45.634 77.0621 46.5114 76.9312C47.6813 76.7567 48.6819 77.0359 49.4055 77.8734C49.4978 77.9781 49.5953 78.0261 49.739 78.0435C50.3342 78.1308 50.9141 78.2573 51.4682 78.471C51.6837 78.5539 51.8839 78.5452 52.0942 78.4449C52.4175 78.2922 52.7459 78.1526 53.0794 78.0087C54.5778 77.3674 56.1787 77.1929 57.831 77.3064C58.2005 77.3325 58.5648 77.3718 58.9342 77.3892C59.2575 77.4067 59.3345 77.3325 59.3858 77.0577C59.4884 76.5081 59.4422 75.9628 59.3037 75.4263C59.0317 74.3881 58.652 73.3848 57.9285 72.4949C57.6412 72.1416 57.3589 71.7839 57.0767 71.4262C56.3122 70.4753 55.563 69.5156 54.819 68.5516C54.7369 68.4469 54.6394 68.3727 54.5162 68.3247C53.5464 67.9452 52.592 67.5352 51.5965 67.2168C50.7498 66.9463 49.8929 66.702 49.036 66.4708C48.764 66.3967 48.6358 66.2658 48.5588 66.0477C48.256 65.2146 47.943 64.3858 47.6352 63.5526C47.4402 63.0204 47.2144 62.497 47.0964 61.943C47.004 61.5242 46.9681 61.1142 47.1272 60.7041C47.3889 60.0367 47.4864 59.3431 47.6095 58.6539C47.7173 58.065 47.8917 57.4893 48.2099 56.9571C48.6358 56.2373 48.9128 55.4696 49.2156 54.7106C49.6158 53.7117 49.6107 52.704 49.4722 51.6789C49.3901 51.0682 49.272 50.4575 49.2566 49.8381C49.2413 49.2448 49.1797 48.656 49.1386 48.0627C49.2926 48.4771 49.4465 48.8915 49.5183 49.3277C49.8057 51.0551 49.9494 52.8 50.4214 54.5056C50.8012 55.8665 51.2527 57.2057 51.8787 58.5013C52.32 59.4129 52.6689 60.3334 52.7972 61.3148C52.905 62.1349 53.0333 62.955 53.1308 63.7794C53.2898 65.1317 53.7465 66.3967 54.5213 67.5876C55.1628 68.5778 55.8503 69.5418 56.5841 70.484C57.4718 71.6182 58.3903 72.7261 59.0728 73.9737C59.6116 74.9552 59.94 75.9454 59.8579 77.0359C59.8117 77.651 59.8886 78.2617 60.1042 78.8636C60.5044 79.976 60.8944 81.0927 61.2382 82.2181C61.6282 83.4788 62.0489 84.7307 62.5313 85.9695C62.6236 86.2007 62.7263 86.4319 62.8751 86.6413C63.0495 86.8856 63.2856 86.9815 63.5575 86.9379C63.8551 86.8899 64.0963 86.6805 64.1425 86.4145C64.1579 86.3359 64.1528 86.2531 64.1579 86.1702C64.1887 85.734 64.0399 85.3196 63.9834 84.8921C63.9116 84.8048 63.9834 84.6914 63.9218 84.5998C63.9167 84.5562 63.9116 84.5126 63.9064 84.469C63.8808 84.1418 63.7628 83.8408 63.614 83.5442L63.6602 83.6096C63.7936 83.7797 63.7782 84.0938 63.9885 84.3294C64.0758 84.5475 64.1527 84.7656 64.2502 84.975C64.5479 85.6511 64.748 86.3534 65.0713 87.0208C65.1995 87.2825 65.3483 87.5312 65.61 87.71C65.8204 87.8583 66.0616 87.9368 66.3335 87.8234C66.6055 87.7144 66.6979 87.505 66.6773 87.2738C66.6414 86.9292 66.6004 86.5802 66.4772 86.2443C66.1847 85.4461 65.9179 84.6391 65.6357 83.8364C65.6049 83.6227 65.5639 83.4133 65.415 83.2301C65.5536 83.3653 65.5433 83.5747 65.7281 83.6881C66.1745 84.4995 66.6312 85.3065 67.0057 86.144C67.1238 86.4057 67.2469 86.6631 67.3701 86.9205C67.5086 87.1996 67.6933 87.4614 67.8986 87.7056C68.1295 87.9761 68.5041 88.0633 68.8889 87.9543C69.2019 87.867 69.3559 87.6707 69.3764 87.3349C69.3867 87.1735 69.4072 87.0033 69.3507 86.8463C69.1558 86.3141 68.9967 85.7645 68.735 85.2585C68.304 84.4166 67.9602 83.5398 67.524 82.7023C67.4727 82.5976 67.4316 82.4885 67.3701 82.349C67.5497 82.4406 67.6061 82.5627 67.6779 82.663C68.3245 83.5398 68.9248 84.4428 69.5098 85.3545C69.6535 85.5813 69.8074 85.8038 70.0383 85.9695C70.5309 86.3272 71.0697 86.2094 71.3212 85.7034C71.4033 85.5333 71.3981 85.3719 71.3365 85.1931C71.1159 84.6042 70.7875 84.0502 70.4745 83.4962C69.7869 82.2923 68.8787 81.1886 68.268 79.9498C68.0115 79.422 67.8267 78.8898 67.6779 78.2791C68.3296 78.6586 68.9659 78.9552 69.5355 79.3391C69.6124 79.3914 69.6843 79.4394 69.751 79.5005C70.1204 79.8451 70.5925 80.0545 71.0748 80.2551C71.3981 80.386 71.7419 80.386 72.0806 80.3119C72.5321 80.2115 72.6758 79.8975 72.4552 79.5528L72.3833 79.5398Z" fill="#2A1649"/>
<g filter="url(#filter0_f_124_16813)">
<path fill-rule="evenodd" clip-rule="evenodd" d="M40.9187 13.4732C40.9494 15.6533 38.9308 17.4214 36.2988 17.4162C33.2005 17.4058 31.6053 15.2569 31.6237 13.4679C31.6482 11.2513 33.679 9.51449 36.2988 9.53013C39.3787 9.54578 41.0291 11.7676 40.9187 13.4784V13.4732Z" fill="#B14B9B"/>
</g>
<g filter="url(#filter1_f_124_16813)">
<path fill-rule="evenodd" clip-rule="evenodd" d="M31.624 24.9039C31.5872 22.5934 33.7652 20.9296 36.25 20.9348C38.8391 20.9348 40.919 22.6769 40.919 24.857C40.919 27.1779 38.8207 28.8104 36.2868 28.8313C33.71 28.8522 31.6301 27.0945 31.6301 24.9039H31.624Z" fill="#89509D"/>
</g>
<g filter="url(#filter2_f_124_16813)">
<path fill-rule="evenodd" clip-rule="evenodd" d="M40.9198 36.0791C40.9505 38.254 38.9381 40.0273 36.3 40.0221C33.2016 40.0169 31.6065 37.8628 31.6187 36.0791C31.6433 33.8572 33.674 32.1256 36.2877 32.136C39.3676 32.1517 41.018 34.3683 40.9137 36.0791H40.9198Z" fill="#2FA6DE"/>
</g>
<g filter="url(#filter3_f_124_16813)">
<path fill-rule="evenodd" clip-rule="evenodd" d="M40.9186 47.5839C40.9554 49.7954 38.9062 51.5582 36.2803 51.5426C33.1881 51.5217 31.6113 49.3729 31.6236 47.61C31.642 45.3829 33.6605 43.6461 36.2803 43.6565C39.3786 43.667 41.0168 45.8941 40.9186 47.5891V47.5839Z" fill="#06A44C"/>
</g>
<g filter="url(#filter4_f_124_16813)">
<path fill-rule="evenodd" clip-rule="evenodd" d="M40.9194 58.8893C40.9501 61.0642 38.9316 62.8375 36.2934 62.8271C33.1951 62.8166 31.5999 60.6678 31.6183 58.8788C31.6429 56.657 33.6736 54.9254 36.2934 54.941C39.3672 54.9567 41.0176 57.1733 40.9133 58.8893H40.9194Z" fill="#F8B018"/>
</g>
<g filter="url(#filter5_f_124_16813)">
<path fill-rule="evenodd" clip-rule="evenodd" d="M40.9186 70.3983C40.9554 72.6046 38.9185 74.3727 36.2864 74.357C33.1942 74.3414 31.6113 72.1925 31.6236 70.4296C31.642 68.2025 33.6605 66.4657 36.2742 66.471C39.3725 66.4762 41.0106 68.7033 40.9186 70.3983Z" fill="#F17124"/>
</g>
<g filter="url(#filter6_f_124_16813)">
<path fill-rule="evenodd" clip-rule="evenodd" d="M31.6239 81.4685C31.5932 79.158 33.7774 77.4994 36.2622 77.5098C38.8512 77.5202 40.925 79.2571 40.9127 81.4424C40.9066 83.7738 38.7899 85.3959 36.2683 85.4063C33.6853 85.4167 31.6239 83.6591 31.6239 81.4685Z" fill="#E72827"/>
</g>
<path fill-rule="evenodd" clip-rule="evenodd" d="M42.6494 81.6611C42.6494 84.6027 39.8455 86.9863 36.3852 86.9863C32.9249 86.9863 30.1211 84.6027 30.1211 81.6611C30.1211 78.7195 32.9249 76.3359 36.3852 76.3359C39.8455 76.3359 42.6494 78.7195 42.6494 81.6611Z" fill="url(#paint0_radial_124_16813)"/>
<path fill-rule="evenodd" clip-rule="evenodd" d="M42.6494 81.6611C42.6494 84.6027 39.8455 86.9863 36.3852 86.9863C32.9249 86.9863 30.1211 84.6027 30.1211 81.6611C30.1211 78.7195 32.9249 76.3359 36.3852 76.3359C39.8455 76.3359 42.6494 78.7195 42.6494 81.6611Z" fill="url(#paint1_radial_124_16813)"/>
<g filter="url(#filter7_d_124_16813)">
<path fill-rule="evenodd" clip-rule="evenodd" d="M31.6243 81.4685C31.5937 79.158 33.7778 77.4994 36.2626 77.5098C38.8517 77.5202 40.9255 79.2571 40.9132 81.4424C40.9071 83.7738 38.7904 85.3959 36.2688 85.4063C33.6858 85.4167 31.6243 83.6591 31.6243 81.4685Z" fill="#E72827"/>
<path fill-rule="evenodd" clip-rule="evenodd" d="M36.1034 83.6758C36.1034 83.6758 36.1034 83.7384 36.0788 83.7749C35.8641 84.0879 35.5757 84.2078 35.1585 84.1296C34.9254 84.0879 34.7045 84.0253 34.4775 83.9731C34.2812 83.9314 34.091 83.8792 33.8885 83.9523C33.7351 84.0044 33.6983 83.921 33.6983 83.8167C33.6983 83.5767 33.6124 83.3577 33.4652 83.1647C33.0541 82.6275 33.1155 81.9703 33.7045 81.4644C33.6983 81.381 33.6063 81.3549 33.5572 81.3027C33.183 80.8855 33.0787 80.4369 33.3425 79.9466C33.502 79.6546 33.7167 79.3886 33.7045 79.0443C33.7045 78.9505 33.7842 78.9296 33.8762 78.9505C34.1523 79.0183 34.4162 78.94 34.6738 78.8774C34.864 78.8305 35.0604 78.7783 35.2567 78.7627C35.6432 78.7262 35.9254 78.8461 36.0911 79.1487C36.1095 79.1852 36.1156 79.2269 36.1647 79.2478C36.1831 79.2425 36.2138 79.2373 36.2199 79.2269C36.4592 78.7314 36.858 78.7105 37.312 78.794C37.4961 78.8253 37.6801 78.8722 37.8581 78.9192C38.0421 78.9661 38.2262 78.9974 38.4164 78.9557C38.582 78.9192 38.6618 78.9557 38.6618 79.1069C38.6618 79.3364 38.76 79.5346 38.8888 79.7328C39.2999 80.3639 39.2508 80.7968 38.7109 81.3601C38.6434 81.4331 38.6495 81.4696 38.7109 81.5322C39.2385 82.0694 39.2937 82.5232 38.8949 83.1334C38.7538 83.3472 38.6495 83.5663 38.6495 83.8167C38.6495 83.9314 38.6004 83.994 38.4532 83.9418C38.263 83.874 38.0789 83.9158 37.901 83.9575C37.6985 84.0044 37.4899 84.0514 37.2875 84.0931C36.7537 84.2026 36.5022 84.1087 36.2383 83.7019C36.2199 83.6758 36.2199 83.6393 36.0972 83.6602L36.1034 83.6758Z" fill="#FFF4F2"/>
<path fill-rule="evenodd" clip-rule="evenodd" d="M37.7162 81.4429C37.7162 81.8237 37.7162 82.2044 37.7162 82.5852C37.7162 82.8094 37.704 82.8147 37.4279 82.799C36.5873 82.7625 35.7529 82.7625 34.9124 82.799C34.6547 82.8094 34.6424 82.8094 34.6424 82.5956C34.6179 81.8445 34.6179 81.0883 34.6424 80.3372C34.6486 80.1182 34.6547 80.1182 34.9001 80.1182C35.7652 80.1182 36.6241 80.1182 37.4831 80.1182C37.6733 80.1182 37.7285 80.1755 37.7223 80.3268C37.7162 80.6971 37.7223 81.0674 37.7223 81.4429H37.7162Z" fill="#E72827"/>
<path fill-rule="evenodd" clip-rule="evenodd" d="M38.5143 79.0806C38.5205 79.4144 38.6861 79.6647 38.8456 79.9203C39.1401 80.3897 39.0665 80.8696 38.637 81.266C38.4039 80.1707 37.6615 79.5239 36.3608 79.357C36.4467 78.9815 36.6921 78.8302 37.1216 78.898C37.3179 78.9293 37.5143 78.9711 37.7045 79.018C37.956 79.0806 38.2076 79.1328 38.5143 79.0754V79.0806Z" fill="#E72827"/>
<path fill-rule="evenodd" clip-rule="evenodd" d="M33.8329 79.0812C34.1581 79.1386 34.4281 79.076 34.698 79.003C34.8698 78.9613 35.0416 78.9248 35.2134 78.8987C35.649 78.8309 35.8822 78.9717 35.9926 79.3577C34.6551 79.5663 33.9434 80.1661 33.7348 81.2405C33.6243 81.2614 33.5937 81.1832 33.5569 81.1258C33.2685 80.7242 33.244 80.3121 33.5201 79.9001C33.6857 79.655 33.833 79.4046 33.8391 79.076L33.8329 79.0812Z" fill="#E72827"/>
<path fill-rule="evenodd" clip-rule="evenodd" d="M33.7231 81.6475C33.9501 82.7584 34.6066 83.3113 35.9871 83.5668C35.8889 83.9423 35.6435 84.0936 35.214 84.0206C34.9809 83.9841 34.76 83.9163 34.533 83.8693C34.3183 83.8276 34.1035 83.7494 33.852 83.8537C33.8397 83.499 33.6495 83.2226 33.4777 82.9409C33.2139 82.4924 33.2998 82.023 33.7293 81.6475H33.7231Z" fill="#E72827"/>
<path fill-rule="evenodd" clip-rule="evenodd" d="M36.3481 83.5618C37.6366 83.3949 38.4035 82.7638 38.6305 81.6633C38.9802 81.9137 39.1213 82.3674 38.9679 82.7534C38.9311 82.8473 38.882 82.9412 38.8268 83.0246C38.6612 83.2697 38.5262 83.5201 38.5139 83.8383C38.244 83.7548 38.0108 83.8226 37.7777 83.88C37.5875 83.9269 37.3911 83.9739 37.1948 84.0104C36.7408 84.0938 36.4954 83.9687 36.3481 83.5618Z" fill="#E72827"/>
<path fill-rule="evenodd" clip-rule="evenodd" d="M34.6929 82.915H37.6378C37.0059 83.5409 35.4905 83.6035 34.6929 82.915Z" fill="#E62E26"/>
<path fill-rule="evenodd" clip-rule="evenodd" d="M37.8208 80.1392C38.6368 80.7285 38.6859 82.1055 37.8392 82.7731C37.876 81.8864 37.9067 81.0363 37.8208 80.1392Z" fill="#E72827"/>
<path fill-rule="evenodd" clip-rule="evenodd" d="M34.5265 80.1233C34.4651 81.0256 34.4713 81.881 34.5204 82.752C33.7596 82.2461 33.6307 80.8639 34.5265 80.1233Z" fill="#E72827"/>
<path fill-rule="evenodd" clip-rule="evenodd" d="M37.6677 79.9927H34.7412C35.2504 79.419 36.7965 79.2834 37.6677 79.9927Z" fill="#E72827"/>
<path fill-rule="evenodd" clip-rule="evenodd" d="M36.1342 82.5659C36.0483 82.5294 36.0176 82.4512 35.9747 82.3782C35.6434 81.8566 35.3182 81.335 34.993 80.8083C34.9624 80.7665 34.9378 80.7196 34.9133 80.6726C34.8765 80.5892 34.901 80.537 35.0176 80.5318C35.1587 80.5318 35.2998 80.5318 35.4409 80.5266C36.0176 80.5266 36.6005 80.5266 37.1772 80.5266C37.4656 80.5266 37.4901 80.5527 37.3613 80.7561C36.9993 81.3298 36.6373 81.9035 36.2692 82.4773C36.2446 82.5138 36.2201 82.5451 36.1281 82.5607L36.1342 82.5659Z" fill="#FCE6E1"/>
<path fill-rule="evenodd" clip-rule="evenodd" d="M37.269 80.6498C36.8825 81.2601 36.5327 81.8129 36.1585 82.4023C35.7904 81.8129 35.4468 81.2601 35.0664 80.6603C35.8149 80.6394 36.5082 80.6498 37.269 80.6498Z" fill="#E72827"/>
</g>
<path fill-rule="evenodd" clip-rule="evenodd" d="M42.6494 13.3252C42.6494 16.2668 39.8455 18.6503 36.3852 18.6503C32.9249 18.6503 30.1211 16.2668 30.1211 13.3252C30.1211 10.3835 32.9249 8 36.3852 8C39.8455 8 42.6494 10.3835 42.6494 13.3252Z" fill="url(#paint2_radial_124_16813)"/>
<path fill-rule="evenodd" clip-rule="evenodd" d="M42.6494 13.3252C42.6494 16.2668 39.8455 18.6503 36.3852 18.6503C32.9249 18.6503 30.1211 16.2668 30.1211 13.3252C30.1211 10.3835 32.9249 8 36.3852 8C39.8455 8 42.6494 10.3835 42.6494 13.3252Z" fill="url(#paint3_radial_124_16813)"/>
<g filter="url(#filter8_d_124_16813)">
<path fill-rule="evenodd" clip-rule="evenodd" d="M40.9192 13.4734C40.9498 15.6535 38.9313 17.4216 36.2993 17.4164C33.201 17.406 31.6058 15.2572 31.6242 13.4682C31.6487 11.2515 33.6795 9.51473 36.2993 9.53038C39.3792 9.54603 41.0296 11.7679 40.9192 13.4786V13.4734Z" fill="#B14B9B"/>
<path fill-rule="evenodd" clip-rule="evenodd" d="M37.962 16.3638C37.6491 16.3534 37.3914 16.3847 37.2013 16.5933C37.1154 16.6872 36.9742 16.7289 36.8331 16.7654C36.3914 16.8854 35.9497 16.8489 35.5877 16.7654C35.4588 16.7341 35.33 16.6924 35.2502 16.6089C35.0355 16.369 34.7349 16.3273 34.4281 16.3742C34.2379 16.4003 34.1765 16.3534 34.1275 16.2125C34.0722 16.0561 33.9741 15.9257 33.7409 15.91C33.5876 15.8996 33.4587 15.8109 33.3483 15.7223C33.3115 15.6962 33.2869 15.6597 33.244 15.6388C32.9618 15.4719 32.6795 15.3102 32.8145 14.9556C32.6734 14.7626 32.5507 14.554 32.3789 14.3819C32.2623 14.2567 32.1764 14.1628 32.2991 14.0168C32.4157 13.8864 32.2991 13.7821 32.2317 13.6882C32.1028 13.5265 32.0905 13.3857 32.2317 13.224C32.3421 13.0988 32.3728 12.958 32.2562 12.8119C32.1948 12.7389 32.2194 12.6555 32.3053 12.5981C32.52 12.4573 32.5691 12.2226 32.7532 12.0609C32.8636 11.967 32.8145 11.8314 32.7961 11.7167C32.7777 11.5915 32.7961 11.5028 32.9556 11.4559C33.0906 11.4142 33.1888 11.3203 33.2869 11.2316C33.4158 11.1221 33.5569 11.0178 33.7348 11.0021C33.9679 10.9813 34.0661 10.8561 34.1213 10.6996C34.1704 10.564 34.2195 10.5066 34.4158 10.5327C34.7226 10.5797 35.0232 10.5431 35.238 10.3032C35.3238 10.2093 35.4711 10.1728 35.6122 10.1363C35.9926 10.0477 36.4528 10.0477 36.8209 10.1363C36.962 10.1728 37.1031 10.2093 37.189 10.3084C37.3976 10.5431 37.6859 10.5744 37.9804 10.5327C38.1768 10.5066 38.2504 10.5484 38.3056 10.7048C38.3608 10.8613 38.4713 10.9813 38.6983 10.9969C38.8394 11.0073 38.9621 11.0856 39.0603 11.1742C39.1093 11.216 39.1584 11.2577 39.2136 11.2994C39.4529 11.482 39.5756 11.6645 39.6063 11.9305C39.6186 12.0087 39.6554 12.0609 39.7106 12.1131C39.8762 12.2695 39.9315 12.4886 40.1401 12.6242C40.2137 12.6711 40.2137 12.7598 40.1585 12.8172C40.0235 12.9632 40.0848 13.104 40.1891 13.2292C40.3303 13.3961 40.2996 13.5369 40.1769 13.6934C40.0787 13.8186 40.0358 13.9385 40.1523 14.0793C40.2198 14.1628 40.1953 14.2515 40.0971 14.3193C39.8885 14.4601 39.8272 14.6948 39.6492 14.8565C39.5511 14.9504 39.6002 15.086 39.6124 15.2059C39.6308 15.3155 39.6124 15.3989 39.4713 15.4458C39.3118 15.498 39.1952 15.6023 39.0848 15.7014C38.9682 15.8057 38.8271 15.8892 38.6615 15.9048C38.4651 15.9257 38.3486 16.0248 38.3117 16.1604C38.2504 16.369 38.1277 16.416 37.9375 16.3586L37.962 16.3638Z" fill="#F5ECF3"/>
<path fill-rule="evenodd" clip-rule="evenodd" d="M37.2996 13.4655C37.2996 13.987 36.8455 14.373 36.232 14.373C35.6001 14.373 35.1399 13.9818 35.1461 13.4446C35.1461 12.923 35.6062 12.5475 36.2197 12.5319C36.8639 12.5162 37.3609 13.0169 37.3057 13.4602L37.2996 13.4655Z" fill="#B14B9B"/>
<path fill-rule="evenodd" clip-rule="evenodd" d="M34.9795 13.5999C35.0899 14.0276 35.366 14.3197 35.8446 14.4657C35.955 14.497 35.955 14.5544 35.9243 14.6274C35.8139 14.9143 35.5071 15.1073 35.1697 15.0655C34.9181 15.0342 34.6605 15.0134 34.3905 14.9821C34.4028 14.7317 34.4457 14.5022 34.4028 14.2571C34.3414 13.8764 34.4887 13.7303 34.9795 13.5947V13.5999Z" fill="#B14B9B"/>
<path fill-rule="evenodd" clip-rule="evenodd" d="M34.3915 12.658C34.4284 12.4859 34.459 12.2616 34.3915 12.0321C34.367 11.9487 34.4038 11.8965 34.5143 11.9017C34.729 11.9069 34.9315 11.8652 35.1401 11.8391C35.4898 11.8026 35.8149 11.9956 35.9192 12.2877C35.9499 12.3711 35.9315 12.4129 35.8272 12.4442C35.41 12.5693 35.1339 12.8145 35.0174 13.1743C34.9744 13.3047 34.8885 13.2943 34.7781 13.2578C34.5081 13.1691 34.3793 12.997 34.3854 12.658H34.3915Z" fill="#B14B9B"/>
<path fill-rule="evenodd" clip-rule="evenodd" d="M37.2559 11.8347C37.4523 11.8608 37.7038 11.913 37.9676 11.9077C38.0658 11.9077 38.0719 11.9808 38.0535 12.0381C37.986 12.2676 38.029 12.4919 38.0535 12.7214C38.078 12.9978 37.9063 13.2064 37.624 13.2742C37.532 13.2951 37.4645 13.2951 37.4339 13.2012C37.3111 12.8257 37.0351 12.5753 36.6056 12.4449C36.5197 12.4189 36.4952 12.3824 36.5136 12.3146C36.5749 12.0538 36.8817 11.8399 37.2559 11.8399V11.8347Z" fill="#B14B9B"/>
<path fill-rule="evenodd" clip-rule="evenodd" d="M38.0847 14.9942C37.7963 15.0099 37.5693 15.0203 37.3546 15.062C36.9803 15.1246 36.6552 14.9369 36.5325 14.6292C36.4956 14.5301 36.5324 14.4883 36.6367 14.4518C37.0539 14.3214 37.3239 14.0711 37.4343 13.706C37.4712 13.586 37.5448 13.6017 37.6429 13.633C37.9129 13.7216 38.0724 13.8885 38.054 14.1389C38.0356 14.4153 37.9865 14.6917 38.0847 14.9942Z" fill="#B14B9B"/>
<path fill-rule="evenodd" clip-rule="evenodd" d="M35.2006 15.2406C34.7834 15.7361 34.2374 15.4753 33.7036 15.4388C33.7466 15.1988 33.8018 14.9694 33.814 14.7347C33.8263 14.526 33.992 14.3748 34.2067 14.2444C34.354 14.3852 34.2803 14.5417 34.2926 14.6773C34.2926 14.7451 34.2619 14.8129 34.2497 14.8807C34.219 15.0893 34.2374 15.0997 34.4767 15.1154C34.6423 15.1258 34.8018 15.1415 34.9675 15.1623C35.0472 15.1728 35.127 15.1884 35.2068 15.2406H35.2006Z" fill="#B14B9B"/>
<path fill-rule="evenodd" clip-rule="evenodd" d="M37.2317 15.2297C37.4833 15.1359 37.7287 15.1254 37.9741 15.115C38.2072 15.1046 38.2441 15.0837 38.195 14.8803C38.1459 14.6717 38.1336 14.4735 38.1888 14.2388C38.4772 14.3639 38.6306 14.5465 38.6367 14.7916C38.6429 15.0055 38.6919 15.2089 38.7471 15.4332C38.2256 15.4853 37.6735 15.7409 37.2256 15.235L37.2317 15.2297Z" fill="#B14B9B"/>
<path fill-rule="evenodd" clip-rule="evenodd" d="M34.2314 12.7881C34.2744 13.1427 34.5505 13.3357 35.0229 13.4505C34.5505 13.5652 34.2805 13.7634 34.2314 14.1129C34.0167 14.0868 33.9308 13.9773 33.8756 13.8573C33.802 13.6956 33.5627 13.5809 33.5811 13.4348C33.5995 13.3044 33.7958 13.1845 33.8756 13.0384C33.9369 12.9185 34.0167 12.8089 34.2376 12.7881H34.2314Z" fill="#B14B9B"/>
<path fill-rule="evenodd" clip-rule="evenodd" d="M38.2442 14.1116C38.0049 13.6578 37.9804 13.637 37.5264 13.4753C37.5264 13.3814 37.6184 13.4023 37.6736 13.3814C37.919 13.2875 38.1031 13.1519 38.1767 12.912C38.2197 12.7712 38.2933 12.7607 38.4221 12.8546C38.5448 12.9433 38.5816 13.0737 38.6614 13.1832C38.7105 13.251 38.778 13.3084 38.8332 13.371C38.87 13.4075 38.9252 13.4544 38.8639 13.4962C38.6798 13.6318 38.6123 13.83 38.4712 13.9916C38.416 14.0542 38.3485 14.1116 38.2381 14.1064L38.2442 14.1116Z" fill="#B14B9B"/>
<path fill-rule="evenodd" clip-rule="evenodd" d="M35.2129 11.6716C35.0166 11.7603 34.8264 11.7811 34.6423 11.7759C34.2435 11.7655 34.1822 11.7916 34.2803 12.1462C34.3294 12.3288 34.3049 12.454 34.2251 12.6522C33.9797 12.5374 33.8263 12.3653 33.814 12.1358C33.8018 11.9168 33.7527 11.7029 33.7036 11.4734C34.2251 11.4265 34.7773 11.1761 35.219 11.6716H35.2129Z" fill="#B14B9B"/>
<path fill-rule="evenodd" clip-rule="evenodd" d="M37.2319 11.6819C37.4099 11.4316 37.6798 11.3586 37.9498 11.3638C38.2013 11.3638 38.459 11.4368 38.7474 11.4785C38.686 11.7132 38.6492 11.9584 38.6246 12.1983C38.6001 12.4017 38.4406 12.5529 38.1952 12.6729C38.1338 12.4539 38.1461 12.2609 38.189 12.0627C38.2443 11.8123 38.2259 11.7915 37.9191 11.781C37.6982 11.7706 37.4712 11.7654 37.2381 11.6767L37.2319 11.6819Z" fill="#B14B9B"/>
<path fill-rule="evenodd" clip-rule="evenodd" d="M36.7905 11.7536C36.7905 11.7536 36.7659 11.8058 36.7475 11.8214C36.5635 11.9414 36.4592 12.1083 36.3671 12.2856C36.2996 12.416 36.1585 12.4108 36.0849 12.2856C35.9868 12.1135 35.8886 11.9414 35.7045 11.8214C35.6248 11.7693 35.6677 11.7119 35.7229 11.6702C35.8702 11.5659 36.0174 11.4668 36.1647 11.3729C36.1892 11.3572 36.2444 11.3468 36.2567 11.3572C36.4224 11.4668 36.588 11.5815 36.7537 11.6962C36.7721 11.7067 36.7721 11.7328 36.7905 11.7536Z" fill="#B14B9B"/>
<path fill-rule="evenodd" clip-rule="evenodd" d="M36.7893 15.132C36.7771 15.1633 36.7648 15.1894 36.7464 15.2155C36.7157 15.2468 36.6789 15.2728 36.6421 15.2937C36.501 15.3824 36.3415 15.5493 36.2188 15.5336C36.047 15.5128 35.8936 15.3563 35.7341 15.252C35.6482 15.1946 35.6175 15.132 35.7279 15.059C35.8936 14.9547 35.9856 14.7982 36.0654 14.6418C36.0961 14.5844 36.1206 14.5322 36.2126 14.5322C36.3169 14.5322 36.3537 14.5844 36.3844 14.6522C36.4519 14.8139 36.5623 14.9599 36.7219 15.0694C36.7464 15.0851 36.7648 15.1112 36.7893 15.1372V15.132Z" fill="#B14B9B"/>
<path fill-rule="evenodd" clip-rule="evenodd" d="M38.52 15.5955C38.4648 15.8615 38.2255 16.0075 38.1396 16.2266C38.1212 16.2735 38.0599 16.2526 38.0169 16.2474C37.8022 16.2109 37.5936 16.2631 37.3911 16.3152C37.1703 16.3726 36.9494 16.3882 36.7285 16.2578C36.8205 16.1796 36.9003 16.0649 37.0414 16.1379C37.1948 16.2161 37.25 16.1327 37.3359 16.0597C37.6243 15.8197 38.066 15.6424 38.5262 15.5955H38.52Z" fill="#B14B9B"/>
<path fill-rule="evenodd" clip-rule="evenodd" d="M35.7287 16.2476C35.5201 16.3884 35.3176 16.378 35.109 16.331C34.882 16.2789 34.6612 16.2111 34.4158 16.2528C34.3667 16.2632 34.3114 16.2632 34.293 16.2215C34.2071 16.0024 33.9679 15.8564 33.9004 15.6008C34.3912 15.6113 34.7593 15.8147 35.0968 16.0598C35.1949 16.1328 35.244 16.2319 35.4158 16.138C35.5385 16.0702 35.6183 16.185 35.7226 16.2528L35.7287 16.2476Z" fill="#B14B9B"/>
<path fill-rule="evenodd" clip-rule="evenodd" d="M35.7346 10.6583C35.5996 10.747 35.5198 10.8565 35.3542 10.7522C35.2683 10.6948 35.2131 10.7678 35.1517 10.8148C34.8204 11.0964 34.4277 11.2738 33.9553 11.3207C33.8817 11.2373 33.9553 11.1799 33.9921 11.1225C34.0535 11.0338 34.1455 10.9608 34.1885 10.8722C34.2682 10.7 34.3787 10.627 34.6057 10.6635C34.7713 10.6896 34.9308 10.6166 35.0842 10.5801C35.2928 10.5331 35.5014 10.5175 35.7407 10.6531L35.7346 10.6583Z" fill="#B14B9B"/>
<path fill-rule="evenodd" clip-rule="evenodd" d="M36.7227 10.6601C36.9374 10.5297 37.146 10.5453 37.3546 10.587C37.4834 10.6131 37.6061 10.6444 37.7288 10.6705C37.8638 10.7018 38.0724 10.6027 38.1276 10.6861C38.2565 10.8843 38.4651 11.046 38.5264 11.3068C38.2872 11.2964 38.0786 11.2807 37.8884 11.166C37.6798 11.0408 37.4159 10.9782 37.2625 10.7852C37.2196 10.7331 37.1583 10.7331 37.0785 10.7539C36.9374 10.7957 36.9312 10.7852 36.7288 10.6548L36.7227 10.6601Z" fill="#B14B9B"/>
<path fill-rule="evenodd" clip-rule="evenodd" d="M37.7473 11.2317C37.4528 11.3152 37.2196 11.4299 37.0846 11.6594C37.0478 11.7272 36.9681 11.7324 36.9129 11.675C36.8086 11.5655 36.6675 11.4925 36.5325 11.4142C36.4036 11.336 36.4036 11.2421 36.5263 11.1743C36.7104 11.07 36.9067 10.9813 37.1031 10.8875C37.1705 10.8562 37.2135 10.8979 37.2503 10.9344C37.3853 11.0596 37.5448 11.1587 37.7473 11.2317Z" fill="#B14B9B"/>
<path fill-rule="evenodd" clip-rule="evenodd" d="M37.7961 15.6674C37.5507 15.7665 37.3667 15.8447 37.2317 15.9856C37.1887 16.0273 37.1335 16.0429 37.0783 16.0064C36.9188 15.8969 36.7286 15.8447 36.5629 15.7561C36.3973 15.6674 36.4034 15.5892 36.5507 15.4797C36.5875 15.4536 36.6304 15.4327 36.6672 15.4118C36.7777 15.3388 36.8758 15.2189 36.9924 15.2084C37.1335 15.198 37.158 15.3806 37.2623 15.4536C37.4035 15.5527 37.563 15.5996 37.7961 15.6622V15.6674Z" fill="#B14B9B"/>
<path fill-rule="evenodd" clip-rule="evenodd" d="M34.7046 15.6668C34.9807 15.5938 35.2138 15.4842 35.3488 15.26C35.3979 15.1765 35.4776 15.1713 35.5451 15.2391C35.6433 15.3434 35.7783 15.406 35.901 15.4842C36.0421 15.5833 36.0482 15.6616 35.901 15.745C35.7231 15.8441 35.5206 15.9015 35.3488 16.0162C35.3058 16.0475 35.2568 16.0267 35.2261 15.9901C35.0911 15.8493 34.9071 15.7607 34.7107 15.6668H34.7046Z" fill="#B14B9B"/>
<path fill-rule="evenodd" clip-rule="evenodd" d="M34.6367 11.2515C34.8883 11.142 35.0846 11.069 35.2134 10.9229C35.2564 10.8812 35.3116 10.8655 35.3668 10.9021C35.5263 11.0116 35.7227 11.0637 35.8883 11.1576C36.0356 11.2411 36.0417 11.3193 35.9067 11.4184C35.7902 11.5019 35.6552 11.5644 35.5509 11.6635C35.465 11.7522 35.3914 11.7209 35.3362 11.6322C35.2073 11.4184 34.9803 11.3193 34.6367 11.2567V11.2515Z" fill="#B14B9B"/>
<path fill-rule="evenodd" clip-rule="evenodd" d="M34.0174 14.2117C33.7904 14.4046 33.6616 14.6081 33.6493 14.8845C33.3732 14.775 33.3057 14.5298 33.1094 14.3838C33.2566 14.2221 33.318 14.0395 33.3916 13.8622C33.4223 13.7944 33.4714 13.7266 33.5573 13.7162C33.6554 13.7057 33.6861 13.7944 33.7168 13.8518C33.7843 13.9822 33.8886 14.0917 34.0174 14.2117Z" fill="#B14B9B"/>
<path fill-rule="evenodd" clip-rule="evenodd" d="M33.6493 11.9812C33.6554 12.2941 33.8088 12.508 34.0174 12.701C33.864 12.8157 33.7781 12.9565 33.6861 13.0973C33.6063 13.2225 33.5204 13.2225 33.4345 13.0973C33.3118 12.9252 33.2934 12.7166 33.1462 12.5549C33.1216 12.5236 33.1339 12.4923 33.1585 12.4767C33.318 12.3359 33.4039 12.1429 33.6554 11.9864L33.6493 11.9812Z" fill="#B14B9B"/>
<path fill-rule="evenodd" clip-rule="evenodd" d="M38.7961 14.9221C38.7777 14.6196 38.6612 14.4058 38.4219 14.218C38.5569 14.0928 38.6673 13.9572 38.7593 13.8112C38.8391 13.6808 38.9188 13.686 39.0109 13.8112C39.1336 13.9833 39.1458 14.1971 39.2992 14.3536C39.3299 14.3849 39.3115 14.4162 39.287 14.4318C39.1213 14.5727 39.0354 14.7656 38.79 14.9221H38.7961Z" fill="#B14B9B"/>
<path fill-rule="evenodd" clip-rule="evenodd" d="M38.7959 11.9868C39.0413 12.1433 39.1272 12.3363 39.2929 12.4771C39.3174 12.4979 39.3236 12.5292 39.2929 12.5553C39.1456 12.7066 39.1334 12.91 39.0229 13.0717C38.9248 13.2229 38.8266 13.2177 38.7346 13.0612C38.6548 12.9256 38.5628 12.8005 38.4155 12.7014C38.6425 12.5084 38.7775 12.2945 38.7898 11.9868H38.7959Z" fill="#B14B9B"/>
<path fill-rule="evenodd" clip-rule="evenodd" d="M37.0967 10.416C36.974 10.4473 36.839 10.4578 36.7409 10.5151C36.5814 10.6038 36.4464 10.6247 36.3053 10.4995C36.2378 10.4421 36.1764 10.4682 36.1212 10.5151C35.9862 10.6247 35.8574 10.609 35.7163 10.5151C35.612 10.4526 35.4709 10.4473 35.3481 10.4265C35.385 10.3169 35.4954 10.2856 35.5874 10.27C35.8206 10.2283 36.0353 10.0822 36.25 10.1031C36.4525 10.124 36.6672 10.2231 36.882 10.2752C36.9679 10.2961 37.066 10.3222 37.1029 10.416H37.0967Z" fill="#B14B9B"/>
<path fill-rule="evenodd" clip-rule="evenodd" d="M37.1216 16.4844C37.0173 16.5991 36.913 16.6356 36.7964 16.6513C36.5878 16.6826 36.3976 16.8234 36.2013 16.8077C36.0172 16.7921 35.8332 16.6878 35.6368 16.6513C35.5203 16.6304 35.4098 16.5939 35.3301 16.4896C35.508 16.4583 35.6798 16.4374 35.8209 16.3436C35.9068 16.2914 35.9804 16.3123 36.0479 16.3592C36.1584 16.4374 36.2565 16.4792 36.3792 16.3696C36.459 16.2966 36.5633 16.3018 36.6614 16.3644C36.7903 16.4426 36.9375 16.4635 37.1216 16.4844Z" fill="#B14B9B"/>
<path fill-rule="evenodd" clip-rule="evenodd" d="M38.6614 15.7842C38.6307 15.6798 38.6614 15.5964 38.7902 15.5807C38.962 15.5599 38.9313 15.4817 38.8884 15.3878C38.87 15.3408 38.8577 15.2887 38.8393 15.2469C38.7779 15.127 38.8147 15.0592 38.9375 14.9705C39.0908 14.8662 39.2013 14.7202 39.3424 14.5793C39.5694 14.8088 39.4651 15.0592 39.4774 15.2939C39.4774 15.2991 39.4651 15.3095 39.4528 15.3148C39.1706 15.4295 39.0172 15.6851 38.7289 15.7789C38.7104 15.7842 38.6859 15.7789 38.6552 15.7789L38.6614 15.7842Z" fill="#B14B9B"/>
<path fill-rule="evenodd" clip-rule="evenodd" d="M33.0906 14.564C33.2808 14.7413 33.3912 14.9238 33.5875 15.0386C33.698 15.1064 33.6182 15.2107 33.5875 15.2889C33.5323 15.435 33.4587 15.5654 33.7287 15.6175C33.7777 15.628 33.8207 15.7062 33.7777 15.7896C33.6428 15.7896 33.5507 15.7218 33.4587 15.6488C33.379 15.5862 33.3053 15.5289 33.2317 15.4611C33.1458 15.3828 32.9433 15.3828 32.9556 15.2576C32.9802 15.0386 32.8881 14.7987 33.0967 14.564H33.0906Z" fill="#B14B9B"/>
<path fill-rule="evenodd" clip-rule="evenodd" d="M33.7902 11.1226C33.8025 11.2269 33.778 11.3155 33.6553 11.3312C33.5203 11.352 33.5141 11.4094 33.5448 11.4981C33.5755 11.5763 33.5939 11.6493 33.6246 11.7276C33.643 11.7745 33.6614 11.8371 33.6062 11.8684C33.3976 11.9831 33.2749 12.1709 33.1031 12.3587C32.8884 12.1135 32.9988 11.8632 32.9497 11.6441C32.9497 11.6285 32.9681 11.6024 32.9804 11.5972C33.2565 11.4929 33.4037 11.2529 33.6798 11.1486C33.7105 11.1382 33.7412 11.1382 33.7964 11.133L33.7902 11.1226Z" fill="#B14B9B"/>
<path fill-rule="evenodd" clip-rule="evenodd" d="M39.3611 12.3429C39.1586 12.1708 39.0482 11.9831 38.8396 11.8579C38.7414 11.8005 38.8396 11.691 38.858 11.6075C38.8948 11.4771 39.0114 11.3415 38.723 11.3102C38.6617 11.305 38.6187 11.2059 38.6678 11.1277C38.8089 11.1277 38.9009 11.2007 38.993 11.2737C39.0605 11.3259 39.1341 11.3833 39.1954 11.4406C39.2875 11.5293 39.4899 11.5293 39.4899 11.6701C39.4899 11.884 39.5513 12.1082 39.3611 12.3429Z" fill="#B14B9B"/>
<path fill-rule="evenodd" clip-rule="evenodd" d="M33.158 12.8928C33.2623 13.0128 33.3666 13.1484 33.3911 13.2579C33.4218 13.3779 33.477 13.5448 33.3788 13.6804C33.3666 13.696 33.3482 13.7117 33.3359 13.7273C33.2377 13.8003 33.2745 13.9829 33.1396 13.9829C32.9923 13.9829 32.9432 13.8212 32.8942 13.7117C32.8451 13.6126 32.6917 13.5239 32.753 13.4196C32.8635 13.2423 32.9126 13.0232 33.158 12.898V12.8928Z" fill="#B14B9B"/>
<path fill-rule="evenodd" clip-rule="evenodd" d="M39.275 14.0076C39.1952 13.8824 39.1154 13.7677 39.0602 13.6581C38.9989 13.5277 38.9989 13.3608 39.0725 13.2148C39.1032 13.1522 39.1645 13.1001 39.2013 13.0375C39.2995 12.881 39.3424 12.8758 39.4467 13.0062C39.4897 13.0636 39.5326 13.1261 39.5633 13.1939C39.6062 13.293 39.7658 13.3817 39.6983 13.486C39.5817 13.6581 39.5388 13.8876 39.2811 14.0076H39.275Z" fill="#B14B9B"/>
<path fill-rule="evenodd" clip-rule="evenodd" d="M39.6311 12.2017C39.7906 12.3686 39.852 12.572 40.036 12.6971C40.0729 12.7232 40.0606 12.7754 40.036 12.8067C39.9502 12.9318 39.9195 13.0935 39.7293 13.1666C39.5698 13.0466 39.5391 12.8432 39.2998 12.7702C39.49 12.598 39.4716 12.379 39.6311 12.2017Z" fill="#B14B9B"/>
<path fill-rule="evenodd" clip-rule="evenodd" d="M36.833 10.8748C36.6612 11 36.4772 11.0209 36.3545 11.1356C36.2808 11.1982 36.1643 11.2034 36.0968 11.1408C35.9618 11.0261 35.7716 10.9948 35.606 10.8748C35.8023 10.7862 35.9741 10.7027 36.152 10.6245C36.2072 10.5984 36.2624 10.6088 36.3177 10.6349C36.4772 10.7131 36.6428 10.7862 36.8392 10.8748H36.833Z" fill="#B14B9B"/>
<path fill-rule="evenodd" clip-rule="evenodd" d="M39.6425 14.7158C39.4646 14.5437 39.5137 14.3351 39.3603 14.1995C39.3174 14.1578 39.3787 14.1108 39.4217 14.0795C39.5075 14.0274 39.5566 13.9439 39.6118 13.8709C39.7223 13.7249 39.7714 13.7197 39.8818 13.8553C39.937 13.9283 39.98 14.0117 40.029 14.09C40.0597 14.1369 40.0781 14.1943 40.029 14.2308C39.8573 14.356 39.7836 14.5385 39.6425 14.7211V14.7158Z" fill="#B14B9B"/>
<path fill-rule="evenodd" clip-rule="evenodd" d="M32.8026 12.2068C32.9805 12.3685 32.9437 12.6032 33.1217 12.7492C32.9928 12.8587 32.864 12.9474 32.8026 13.083C32.7474 13.1873 32.6554 13.1769 32.5879 13.0934C32.5143 12.9996 32.459 12.9005 32.4038 12.8014C32.3793 12.7649 32.3793 12.7127 32.4161 12.6866C32.594 12.5614 32.6554 12.3685 32.8026 12.2068Z" fill="#B14B9B"/>
<path fill-rule="evenodd" clip-rule="evenodd" d="M32.8198 14.7164C32.648 14.5443 32.599 14.3461 32.421 14.2261C32.372 14.1948 32.3842 14.1322 32.421 14.0853C32.4763 13.9966 32.5253 13.9027 32.5867 13.8193C32.6481 13.7358 32.7278 13.7097 32.8014 13.8193C32.8198 13.8454 32.826 13.8819 32.8505 13.8975C33.2493 14.1739 32.9609 14.4191 32.8198 14.7112V14.7164Z" fill="#B14B9B"/>
<path fill-rule="evenodd" clip-rule="evenodd" d="M36.8212 16.0091C36.6617 16.1551 36.4531 16.1812 36.2935 16.2803C36.2383 16.3116 36.1831 16.296 36.1279 16.2699C35.9684 16.1916 35.8027 16.1186 35.6187 16.0352C35.7659 15.9048 35.9745 15.8891 36.0972 15.7692C36.1524 15.717 36.2629 15.7118 36.3242 15.7587C36.4653 15.8631 36.6433 15.9204 36.8212 16.0091Z" fill="#B14B9B"/>
<path fill-rule="evenodd" clip-rule="evenodd" d="M39.987 13.7545C39.8949 13.6763 39.7109 13.6502 39.8643 13.5041C39.8888 13.4781 39.8949 13.4468 39.8643 13.4207C39.6986 13.2538 39.9011 13.2381 39.9747 13.1599C40.1894 13.3581 40.1956 13.5459 39.9747 13.7545H39.987Z" fill="#B14B9B"/>
<path fill-rule="evenodd" clip-rule="evenodd" d="M32.4283 13.7386C32.3056 13.5717 32.2136 13.4257 32.367 13.2588C32.3976 13.2222 32.4038 13.1492 32.4835 13.1857C32.5572 13.217 32.6799 13.2535 32.6185 13.3526C32.5633 13.4361 32.5817 13.483 32.6185 13.5665C32.6676 13.6812 32.5326 13.6969 32.4345 13.7438L32.4283 13.7386Z" fill="#B14B9B"/>
</g>
<path fill-rule="evenodd" clip-rule="evenodd" d="M42.6494 24.7143C42.6494 27.656 39.8455 30.0395 36.3852 30.0395C32.9249 30.0395 30.1211 27.656 30.1211 24.7143C30.1211 21.7727 32.9249 19.3892 36.3852 19.3892C39.8455 19.3892 42.6494 21.7727 42.6494 24.7143Z" fill="url(#paint4_radial_124_16813)"/>
<g filter="url(#filter9_d_124_16813)">
<path fill-rule="evenodd" clip-rule="evenodd" d="M31.6245 24.9039C31.5877 22.5934 33.7657 20.9296 36.2505 20.9348C38.8396 20.9348 40.9195 22.6769 40.9195 24.857C40.9195 27.1779 38.8212 28.8104 36.2873 28.8313C33.7105 28.8522 31.6306 27.0945 31.6306 24.9039H31.6245Z" fill="#89509D"/>
<path fill-rule="evenodd" clip-rule="evenodd" d="M39.8581 24.8261C39.6801 24.9618 39.4654 25.0348 39.3243 25.1912C39.1893 25.3425 39.0482 25.4938 38.9071 25.6398C38.631 25.9162 38.2629 26.0414 37.8518 26.0623C37.68 26.0727 37.5389 26.0988 37.3978 26.1822C36.7106 26.5786 35.8947 26.5734 35.2075 26.1718C35.0725 26.0936 34.9437 26.0675 34.7842 26.057C34.3179 26.0362 33.913 25.8849 33.6246 25.5563C33.4037 25.306 33.1951 25.0504 32.8577 24.8992C32.7595 24.8574 32.7534 24.7844 32.8577 24.7427C33.189 24.6019 33.3976 24.3567 33.6062 24.1116C33.9007 23.7726 34.3056 23.6109 34.7842 23.5848C34.9437 23.5744 35.0725 23.5483 35.2075 23.4701C35.9437 23.0633 36.6923 23.0633 37.4285 23.4805C37.5389 23.5431 37.6432 23.5744 37.7843 23.5796C38.3058 23.5953 38.7414 23.7674 39.0482 24.1429C39.1586 24.2733 39.2691 24.4037 39.4041 24.5132C39.539 24.6227 39.6986 24.7062 39.8642 24.8105L39.8581 24.8261Z" fill="#F3F4FA"/>
<path fill-rule="evenodd" clip-rule="evenodd" d="M34.8091 24.1993C35.8275 24.1367 36.7785 24.1524 37.8031 24.1524C37.3123 24.8721 36.846 25.5554 36.3552 26.2751C35.8153 25.5919 35.3429 24.9086 34.8152 24.1993H34.8091Z" fill="#89509D"/>
<path fill-rule="evenodd" clip-rule="evenodd" d="M37.7788 23.7107C38.2512 23.7107 38.6132 23.8619 38.8832 24.1697C39.0918 24.4044 39.2881 24.6391 39.6071 24.8268C39.2819 25.025 39.0733 25.2858 38.8402 25.531C38.5764 25.8126 38.2144 25.9378 37.7849 25.9534C38.3862 24.879 38.3862 24.6495 37.7788 23.7107Z" fill="#89509D"/>
<path fill-rule="evenodd" clip-rule="evenodd" d="M34.8578 23.7056C34.2259 24.4723 34.2259 25.1972 34.864 25.9587C34.367 25.9326 33.9989 25.8075 33.7289 25.4997C33.5203 25.2598 33.3117 25.0147 32.9927 24.8321C33.2994 24.6496 33.508 24.4097 33.7228 24.1698C33.9866 23.8725 34.3486 23.7264 34.8578 23.7056Z" fill="#89509D"/>
<path fill-rule="evenodd" clip-rule="evenodd" d="M37.7845 24.0179C36.766 24.0388 35.8212 24.0544 34.8027 24.0753C35.0972 23.6632 35.4837 23.439 35.9684 23.3659C36.6863 23.2616 37.2875 23.4546 37.7906 24.0179H37.7845Z" fill="#89509D"/>
<path fill-rule="evenodd" clip-rule="evenodd" d="M34.7043 24.2869C35.2074 24.9753 35.686 25.6273 36.1768 26.2949C34.9559 26.2845 34.2074 25.0849 34.7043 24.2869Z" fill="#89509D"/>
<path fill-rule="evenodd" clip-rule="evenodd" d="M36.4966 26.2952C36.9751 25.5963 37.4292 24.9392 37.8893 24.2664C38.4047 24.9809 37.742 26.1909 36.4966 26.2952Z" fill="#89509D"/>
</g>
<path fill-rule="evenodd" clip-rule="evenodd" d="M42.6494 36.1037C42.6494 39.0454 39.8455 41.4289 36.3852 41.4289C32.9249 41.4289 30.1211 39.0454 30.1211 36.1037C30.1211 33.1621 32.9249 30.7786 36.3852 30.7786C39.8455 30.7786 42.6494 33.1621 42.6494 36.1037Z" fill="url(#paint5_radial_124_16813)"/>
<g filter="url(#filter10_d_124_16813)">
<path fill-rule="evenodd" clip-rule="evenodd" d="M40.9194 36.0791C40.95 38.254 38.9377 40.0273 36.2995 40.0221C33.2011 40.0169 31.606 37.8628 31.6182 36.0791C31.6428 33.8572 33.6736 32.1256 36.2872 32.136C39.3671 32.1517 41.0175 34.3683 40.9132 36.0791H40.9194Z" fill="#2FA6DE"/>
<path fill-rule="evenodd" clip-rule="evenodd" d="M35.4338 39.027C35.0166 39.2147 34.7283 38.98 34.4276 38.714C34.2129 38.5263 33.943 38.3907 33.6423 38.3176C33.5073 38.2864 33.4521 38.2342 33.4276 38.1247C33.3846 37.9056 33.3049 37.697 33.176 37.4988C33.1208 37.4101 33.0717 37.3006 32.9797 37.2537C32.7527 37.1233 32.7159 36.9355 32.6914 36.7373C32.6607 36.5235 32.6055 36.3201 32.4582 36.1427C32.403 36.0749 32.3907 36.0228 32.4459 35.9497C32.6484 35.7098 32.6791 35.4282 32.722 35.1518C32.7343 35.0683 32.7466 35.0005 32.8325 34.9431C33.1638 34.7293 33.2803 34.4111 33.3785 34.0878C33.4337 33.9104 33.4767 33.78 33.7405 33.7175C34.1147 33.6288 34.4215 33.4045 34.6853 33.1489C34.8142 33.0238 34.9369 32.9768 35.1455 33.0133C35.4952 33.0707 35.851 33.0811 36.1701 32.8934C36.2314 32.8569 36.305 32.8517 36.3664 32.8934C36.71 33.0916 37.0842 33.0707 37.4585 33.0081C37.6057 32.982 37.7039 33.0081 37.8021 33.102C38.1334 33.4097 38.4953 33.6757 38.9923 33.7748C39.1089 33.8009 39.1089 33.8791 39.1273 33.9626C39.1886 34.2494 39.2684 34.5572 39.5138 34.7606C39.7654 34.9692 39.8574 35.1935 39.8758 35.4699C39.8942 35.6837 40.1212 35.8611 40.1089 36.0541C40.0967 36.2366 39.9126 36.4087 39.8758 36.6121C39.8635 36.6799 39.8328 36.753 39.839 36.8208C39.8513 36.9877 39.7715 37.092 39.6242 37.2015C39.3297 37.4258 39.2193 37.7387 39.1457 38.0569C39.1089 38.2186 39.0353 38.2811 38.8512 38.3333C38.4647 38.4428 38.1395 38.6462 37.8696 38.9122C37.7284 39.0478 37.5873 39.1104 37.3787 39.0635C37.0351 38.9905 36.6977 39.0165 36.3909 39.173C36.2805 39.2304 36.1946 39.1939 36.0964 39.1469C35.9062 39.0583 35.6976 39.0322 35.4216 39.027H35.4338Z" fill="#E9F6FD"/>
<path fill-rule="evenodd" clip-rule="evenodd" d="M33.5387 37.919C33.551 37.8825 33.594 37.8356 33.5571 37.8095C33.4467 37.7313 33.3915 37.6478 33.459 37.5279C33.2197 37.4809 33.3485 37.1732 33.0786 37.1471C33.0356 37.1471 32.9927 37.1002 33.0111 37.0532C33.0418 36.9698 33.0479 36.9176 32.9129 36.9333C32.8639 36.9333 32.8332 36.8811 32.8455 36.8446C32.9068 36.6047 32.7902 36.4117 32.6859 36.1979C32.643 36.1144 32.6368 35.958 32.7166 35.8224C32.8209 35.6554 32.9068 35.4781 32.8455 35.2747C32.827 35.2226 32.8454 35.1652 32.9191 35.16C33.0111 35.1548 33.0541 35.1287 33.0172 35.0504C32.9866 34.9878 33.0356 34.9409 33.0909 34.9357C33.2258 34.92 33.2749 34.8679 33.2442 34.7584C33.2442 34.7479 33.2442 34.7323 33.2504 34.7323C33.5081 34.6645 33.3363 34.3933 33.5449 34.2994C33.5633 34.2942 33.5755 34.2629 33.5694 34.2472C33.5449 34.1325 33.4222 33.976 33.7167 33.9969C33.7596 33.8665 33.8455 33.7883 34.0173 33.8195C34.1032 33.6631 34.3609 33.71 34.4406 33.5535C34.4713 33.491 34.5204 33.4597 34.6063 33.4805C34.637 33.4857 34.7044 33.4962 34.6983 33.4649C34.637 33.178 34.9867 33.3032 35.091 33.1885C35.1217 33.1519 35.1953 33.1415 35.2198 33.1728C35.3302 33.3032 35.4345 33.2615 35.5388 33.1728C35.7229 33.2719 35.864 33.1467 36.0174 33.105C36.1646 33.0685 36.318 33.225 36.453 33.0894C36.6616 33.2041 36.9254 33.1415 37.134 33.251C37.1524 33.2615 37.1831 33.2771 37.1892 33.2719C37.269 33.2197 37.3426 33.1102 37.4469 33.1572C37.5267 33.1937 37.5451 33.3241 37.6801 33.2197C37.6923 33.2093 37.7598 33.2354 37.766 33.251C37.8212 33.4075 37.9684 33.4805 38.1157 33.5588C38.2752 33.6422 38.3979 33.783 38.6126 33.8039C38.674 33.8091 38.766 33.8248 38.7783 33.8926C38.7967 33.976 38.8151 34.0282 38.9317 33.9864C38.9685 33.9708 39.0053 34.0177 38.993 34.0386C38.9133 34.2159 39.1771 34.3411 39.0912 34.5184C39.0666 34.5758 39.1219 34.6019 39.1832 34.6228C39.2814 34.654 39.3305 34.7166 39.3059 34.8053C39.2937 34.8627 39.2875 34.9044 39.3673 34.9148C39.49 34.9253 39.5697 34.9566 39.5145 35.0869C39.4961 35.1339 39.5452 35.1547 39.5943 35.1547C39.674 35.1547 39.7047 35.186 39.6986 35.2434C39.6556 35.4729 39.7538 35.6659 39.8581 35.8693C39.9072 35.9736 39.9011 36.1144 39.8458 36.2292C39.7477 36.4274 39.6495 36.6203 39.7047 36.8394C39.7109 36.8707 39.7109 36.9281 39.6372 36.9229C39.5207 36.9124 39.4777 36.9385 39.5452 37.0376C39.5697 37.0793 39.5268 37.1367 39.4961 37.1367C39.2937 37.1263 39.3489 37.3192 39.2937 37.3453C39.0851 37.4496 39.1771 37.6583 39.036 37.7678C38.9808 37.8095 39.0053 37.8564 39.0114 37.9034C39.0237 38.0025 39.0298 38.0755 38.8458 38.0859C38.7599 38.0912 38.7476 38.2998 38.5267 38.2633C38.4102 38.2424 38.3672 38.4771 38.177 38.4197C38.177 38.6179 37.7966 38.5449 37.8212 38.7692C37.8212 38.8057 37.7414 38.8839 37.6617 38.8474C37.5635 38.8057 37.5144 38.8266 37.4715 38.9048C37.4653 38.9204 37.3856 38.9361 37.3794 38.9257C37.2445 38.7483 37.0727 38.8944 36.9254 38.8787C36.8334 38.8683 36.7843 38.8787 36.7107 38.91C36.5941 38.9569 36.4653 39.0561 36.3303 38.9257C36.2935 38.8891 36.2383 38.9048 36.2076 38.9413C36.1217 39.0248 36.0051 38.9882 35.9561 38.9413C35.8027 38.7953 35.5388 38.9726 35.4039 38.7953H35.3732C35.2505 39.0508 35.048 38.7744 34.9008 38.8422C34.864 38.8579 34.8394 38.837 34.8026 38.8213C34.6738 38.7744 34.7719 38.644 34.6922 38.5919C34.6308 38.5501 34.4774 38.6388 34.4652 38.5241C34.4468 38.3572 34.2443 38.4458 34.2198 38.3884C34.1216 38.1955 33.7473 38.3206 33.7289 38.0599C33.551 38.1016 33.5326 38.0181 33.551 37.8982L33.5387 37.919Z" fill="#2FA7DF"/>
<path fill-rule="evenodd" clip-rule="evenodd" d="M39.3549 36.0276C39.3672 37.3837 38.2322 38.6824 36.2934 38.6928C34.5755 38.7032 33.2135 37.6444 33.2012 36.0537C33.189 34.2699 34.8455 33.4041 36.2259 33.3885C37.8518 33.3676 39.3427 34.4368 39.3549 36.0276Z" fill="#F4FAFC"/>
<path fill-rule="evenodd" clip-rule="evenodd" d="M36.2756 38.5573C34.6436 38.5938 33.3613 37.3003 33.3613 36.0486C33.3613 34.7916 34.6375 33.519 36.2633 33.5242C37.8646 33.5242 39.196 34.6716 39.1899 36.0538C39.1899 37.4568 37.7665 38.599 36.2756 38.5573Z" fill="#2FA6DE"/>
<path fill-rule="evenodd" clip-rule="evenodd" d="M36.2503 35.3288H37.6675C37.9497 35.3288 38.232 35.3288 38.5203 35.3288C38.643 35.3288 38.8148 35.2714 38.8823 35.3757C38.9559 35.4853 38.7964 35.5687 38.7228 35.6522C38.3179 36.1216 37.9068 36.5858 37.5019 37.0552C37.146 37.4568 36.7963 37.8584 36.4405 38.26C36.2564 38.4686 36.2319 38.4686 36.0601 38.2704C35.2686 37.3577 34.4833 36.4397 33.698 35.5218C33.655 35.4696 33.5691 35.4122 33.6182 35.3392C33.6673 35.261 33.7655 35.2871 33.8391 35.2923C34.6428 35.2923 35.4465 35.2766 36.2503 35.334V35.3288Z" fill="#E9F6FD"/>
<path fill-rule="evenodd" clip-rule="evenodd" d="M37.4347 36.4686C37.4347 37.0423 36.8948 37.5117 36.226 37.5117C35.5695 37.5117 35.0296 37.0528 35.0235 36.4947C35.0174 35.921 35.5573 35.4568 36.2321 35.4568C36.8948 35.4568 37.4285 35.9053 37.4347 36.4686Z" fill="#2FA6DE"/>
<path fill-rule="evenodd" clip-rule="evenodd" d="M34.8095 36.6196C34.4782 36.2336 34.153 35.8477 33.791 35.4304H35.6255C35.1101 35.7277 34.834 36.1032 34.8831 36.6248H34.8095V36.6196Z" fill="#31A8DF"/>
<path fill-rule="evenodd" clip-rule="evenodd" d="M37.594 36.6926C37.6369 36.1606 37.3977 35.7538 36.8394 35.446H38.7106C38.3486 35.905 37.9805 36.2962 37.594 36.6926Z" fill="#2FA7DF"/>
<path fill-rule="evenodd" clip-rule="evenodd" d="M35.6128 37.5621C36.0423 37.6768 36.4411 37.6612 36.8951 37.4995C36.6987 37.802 36.4779 38.0159 36.2386 38.2871C36.0177 38.0315 35.8153 37.802 35.6128 37.5673V37.5621Z" fill="#2CA9E1"/>
</g>
<path fill-rule="evenodd" clip-rule="evenodd" d="M42.6494 47.4929C42.6494 50.4345 39.8455 52.8181 36.3852 52.8181C32.9249 52.8181 30.1211 50.4345 30.1211 47.4929C30.1211 44.5513 32.9249 42.1677 36.3852 42.1677C39.8455 42.1677 42.6494 44.5513 42.6494 47.4929Z" fill="url(#paint6_radial_124_16813)"/>
<path fill-rule="evenodd" clip-rule="evenodd" d="M42.6494 47.4929C42.6494 50.4345 39.8455 52.8181 36.3852 52.8181C32.9249 52.8181 30.1211 50.4345 30.1211 47.4929C30.1211 44.5513 32.9249 42.1677 36.3852 42.1677C39.8455 42.1677 42.6494 44.5513 42.6494 47.4929Z" fill="url(#paint7_radial_124_16813)"/>
<g filter="url(#filter11_d_124_16813)">
<path fill-rule="evenodd" clip-rule="evenodd" d="M40.9191 47.5839C40.9559 49.7954 38.9067 51.5582 36.2808 51.5426C33.1886 51.5217 31.6118 49.3729 31.6241 47.61C31.6425 45.3829 33.661 43.6461 36.2808 43.6565C39.3791 43.667 41.0173 45.8941 40.9191 47.5891V47.5839Z" fill="#06A44C"/>
<path fill-rule="evenodd" clip-rule="evenodd" d="M35.139 45.0118C35.188 44.7093 35.3844 44.5789 35.6359 44.485C35.82 44.412 35.9918 44.3285 36.1206 44.1929C36.2126 44.0938 36.3108 44.0677 36.409 44.1825C36.5378 44.3337 36.7341 44.4172 36.9243 44.4954C37.1697 44.5997 37.3661 44.7301 37.3967 45.0013C37.6728 44.8397 37.9428 44.8344 38.2189 44.944C38.3845 45.0066 38.5625 45.017 38.7404 44.9909C38.8692 44.9701 38.9428 45.0013 38.9367 45.1265C38.9306 45.283 39.0042 45.4186 39.1024 45.549C39.2803 45.7785 39.36 46.0236 39.2803 46.2896C39.2435 46.3991 39.2803 46.4513 39.403 46.493C39.7036 46.5869 39.8202 46.8112 39.8938 47.0459C39.9429 47.2023 39.992 47.3536 40.127 47.4788C40.219 47.5622 40.2006 47.6352 40.1147 47.7135C39.9981 47.8178 39.949 47.9482 39.9122 48.089C39.8386 48.3498 39.7159 48.5897 39.3907 48.6888C39.2741 48.7253 39.268 48.7931 39.2926 48.8818C39.3723 49.1634 39.2864 49.419 39.0962 49.6485C38.9735 49.8049 38.9428 49.9823 38.9306 50.2013C38.587 50.1335 38.2741 50.2013 37.9612 50.2952C37.771 50.3474 37.5931 50.2587 37.4151 50.1805C37.3661 50.436 37.182 50.5769 36.9366 50.676C36.7464 50.7542 36.5623 50.8429 36.4212 50.9889C36.3353 51.0724 36.2433 51.0828 36.1574 50.9889C36.0286 50.8481 35.8506 50.7646 35.6727 50.6916C35.4212 50.5873 35.2003 50.4621 35.1635 50.17C34.8813 50.3422 34.6113 50.3265 34.3352 50.2222C34.1757 50.1648 34.0101 50.1596 33.8505 50.1805C33.7094 50.2013 33.6174 50.1805 33.6235 50.0344C33.6297 49.878 33.5499 49.7424 33.4517 49.612C33.2738 49.3825 33.1941 49.1321 33.28 48.8661C33.3168 48.741 33.2677 48.7097 33.1511 48.6732C32.8812 48.5845 32.7585 48.3915 32.691 48.1725C32.6358 47.9951 32.5928 47.823 32.4394 47.6822C32.3597 47.6092 32.3719 47.5361 32.4456 47.4683C32.5867 47.338 32.6419 47.1763 32.6848 47.0094C32.7523 46.7747 32.8873 46.5817 33.1634 46.4826C33.28 46.4409 33.3168 46.3991 33.28 46.2844C33.2002 46.0288 33.2677 45.7889 33.4395 45.5698C33.5438 45.4342 33.6297 45.2934 33.6235 45.1213C33.6174 44.9909 33.6972 44.9648 33.826 44.9857C34.0162 45.017 34.2003 44.9909 34.3782 44.9283C34.6297 44.8397 34.8813 44.8188 35.1574 45.0118H35.139Z" fill="#F2F9F6"/>
<path fill-rule="evenodd" clip-rule="evenodd" d="M33.3049 47.5901C33.2375 46.3696 34.44 45.0605 36.2499 45.0449C37.7776 45.0292 39.2501 46.0306 39.2501 47.5849C39.2501 49.2226 37.6549 50.1197 36.2806 50.1145C34.5075 50.1092 33.2559 48.8262 33.3111 47.5901H33.3049Z" fill="#06A44C"/>
<path fill-rule="evenodd" clip-rule="evenodd" d="M36.2747 44.238C36.4649 44.4154 36.6919 44.5197 36.925 44.6188C37.1152 44.697 37.2502 44.8118 37.2625 45.0256C36.6183 44.8952 35.9802 44.8639 35.3483 45.0256C35.2992 44.817 35.3299 44.7596 35.5814 44.6344C35.7041 44.5718 35.833 44.5249 35.9495 44.4623C36.0538 44.4049 36.152 44.3267 36.2747 44.2432V44.238Z" fill="#0CA54D"/>
<path fill-rule="evenodd" clip-rule="evenodd" d="M33.3608 48.6026C32.9988 48.5452 32.8823 48.3679 32.8025 48.1592C32.735 47.9767 32.7043 47.7889 32.5509 47.6377C32.508 47.5907 32.5141 47.549 32.5509 47.5021C32.6982 47.3508 32.735 47.1631 32.7964 46.9805C32.87 46.7719 32.9927 46.5998 33.3363 46.5476C33.054 47.2309 33.0234 47.8932 33.3547 48.6026H33.3608Z" fill="#0CA54D"/>
<path fill-rule="evenodd" clip-rule="evenodd" d="M39.2139 48.5978C39.4838 47.6642 39.4899 47.5129 39.22 46.595C39.5022 46.621 39.6495 46.7201 39.7354 46.9914C39.7906 47.1739 39.8274 47.3669 39.9808 47.5129C40.0421 47.5755 39.9992 47.6277 39.9562 47.6746C39.8397 47.805 39.7906 47.9563 39.7538 48.1179C39.6802 48.3944 39.5513 48.5091 39.2139 48.5978Z" fill="#06A64E"/>
<path fill-rule="evenodd" clip-rule="evenodd" d="M37.2628 50.1199C37.2443 50.3494 37.1094 50.4589 36.9192 50.5371C36.686 50.631 36.459 50.7405 36.2688 50.9231C36.0664 50.7353 35.8148 50.631 35.5694 50.5215C35.3485 50.4224 35.3179 50.365 35.3179 50.1303C35.9621 50.292 36.6063 50.2763 37.2566 50.1199H37.2628Z" fill="#0CA54D"/>
<path fill-rule="evenodd" clip-rule="evenodd" d="M37.5083 50.0413C38.2016 49.7596 38.7231 49.3632 39.0667 48.8052C39.2262 49.0503 39.2323 49.1651 39.0851 49.4154C38.9808 49.5927 38.8335 49.7544 38.809 49.963C38.7967 50.0361 38.7415 50.0569 38.6556 50.0465C38.4409 50.0256 38.2384 50.0882 38.0359 50.1456C37.8641 50.1978 37.6985 50.203 37.5083 50.0413Z" fill="#0CA54D"/>
<path fill-rule="evenodd" clip-rule="evenodd" d="M33.4398 48.8262C33.8325 49.3582 34.3294 49.7702 35.0227 50.031C34.8693 50.1979 34.6914 50.2083 34.5135 50.1457C34.2681 50.0623 34.0165 50.0258 33.7466 50.0466C33.7343 49.838 33.6361 49.6659 33.5134 49.5094C33.3478 49.2956 33.3355 49.0713 33.4337 48.8262H33.4398Z" fill="#06A64E"/>
<path fill-rule="evenodd" clip-rule="evenodd" d="M39.0912 46.3747C38.7108 45.7906 38.2016 45.3838 37.5083 45.1125C37.6924 44.9456 37.8703 44.9613 38.0543 45.0082C38.2568 45.0656 38.4531 45.1334 38.674 45.1073C38.766 45.0969 38.8029 45.1491 38.8151 45.2116C38.8397 45.3994 38.9685 45.5454 39.0667 45.7019C39.1955 45.9053 39.2507 46.114 39.0973 46.3747H39.0912Z" fill="#0BA64F"/>
<path fill-rule="evenodd" clip-rule="evenodd" d="M35.06 45.1096C34.336 45.3964 33.8146 45.798 33.4403 46.3978C33.3237 46.1058 33.3483 45.8815 33.5017 45.6676C33.6182 45.506 33.7348 45.3391 33.7409 45.1252C34.017 45.1252 34.2747 45.0887 34.5262 45.0105C34.698 44.9531 34.7716 44.9792 35.06 45.1096Z" fill="#06A64E"/>
<path fill-rule="evenodd" clip-rule="evenodd" d="M33.8082 46.5463C34.1886 46.5463 34.5567 46.5254 34.9125 46.5515C35.2868 46.5828 35.5445 46.4942 35.7101 46.2021C35.796 46.0508 35.9249 45.9152 36.0476 45.7796C36.1641 45.6492 36.2316 45.644 36.3543 45.7692C36.52 45.9413 36.6856 46.1134 36.8145 46.3012C36.9679 46.5202 37.1642 46.588 37.4587 46.5724C37.79 46.5515 38.1213 46.5672 38.4465 46.5724C38.7287 46.5724 38.7532 46.6089 38.5999 46.8071C38.4526 47.0001 38.2931 47.1878 38.1397 47.3808C38.017 47.5338 38.0231 47.6868 38.1581 47.8398C38.3176 48.0276 38.4833 48.2101 38.6428 48.3979C38.6919 48.4552 38.741 48.5074 38.7532 48.5752C38.6919 48.6534 38.5999 48.6274 38.5262 48.6274C38.1458 48.6274 37.7716 48.6378 37.3912 48.6274C37.1826 48.6169 37.0599 48.6847 36.9617 48.8255C36.8636 48.9612 36.7531 49.0915 36.6427 49.2219C36.4464 49.4653 36.2398 49.4653 36.023 49.2219C35.888 49.0707 35.7531 48.9194 35.6242 48.763C35.5383 48.6534 35.4279 48.6065 35.2684 48.6117C34.9002 48.6221 34.5383 48.6117 34.1702 48.6117C34.072 48.6117 33.937 48.6534 33.8757 48.5648C33.8082 48.4709 33.9309 48.4031 33.9861 48.3353C34.1456 48.1266 34.3113 47.918 34.483 47.7146C34.5689 47.6155 34.5628 47.5477 34.4769 47.4538C34.2867 47.2504 34.1088 47.0366 33.9248 46.828C33.8695 46.7654 33.7959 46.708 33.7959 46.5672L33.8082 46.5463Z" fill="#ECF6F2"/>
<path fill-rule="evenodd" clip-rule="evenodd" d="M36.3236 48.4806C35.753 48.6109 35.3971 48.3919 35.1395 47.9903C35.0474 47.839 34.8266 47.7347 34.8204 47.5678C34.8143 47.4009 35.0352 47.2914 35.1149 47.1349C35.3235 46.7437 35.661 46.5977 36.1579 46.6707C36.4217 46.7072 36.7285 46.6081 36.9617 46.7072C37.1948 46.8063 37.3052 47.0567 37.4709 47.2392C37.7961 47.5991 37.7961 47.6043 37.4954 47.9642C37.3543 48.1363 37.2439 48.3554 37.0537 48.4597C36.8573 48.564 36.569 48.4701 36.3297 48.4806H36.3236Z" fill="#06A44C"/>
<path fill-rule="evenodd" clip-rule="evenodd" d="M34.1212 48.4562C34.0783 48.3832 34.1335 48.3466 34.1642 48.3049C34.3298 48.1015 34.4955 47.8929 34.6795 47.6738C34.9249 47.9346 35.152 48.1693 35.3544 48.4562H34.1212Z" fill="#0BA750"/>
<path fill-rule="evenodd" clip-rule="evenodd" d="M37.8699 47.4975C37.6245 47.2159 37.3975 46.9916 37.2012 46.71H38.5019C38.2871 46.976 38.0969 47.2211 37.8699 47.4975Z" fill="#0DA850"/>
<path fill-rule="evenodd" clip-rule="evenodd" d="M38.5512 48.4825H37.2505C37.4652 48.2112 37.6554 47.9765 37.8702 47.7053C38.1033 47.9661 38.3119 48.206 38.5512 48.4825Z" fill="#0CA54D"/>
<path fill-rule="evenodd" clip-rule="evenodd" d="M34.0107 46.6892H35.2992C35.1151 46.9604 34.9004 47.1899 34.6979 47.4507C34.4402 47.216 34.2439 46.9656 34.0107 46.6892Z" fill="#0CA54D"/>
<path fill-rule="evenodd" clip-rule="evenodd" d="M35.6919 48.6167H36.9558C36.7472 48.8775 36.5693 49.1018 36.3607 49.3678C36.1337 49.1122 35.9312 48.8827 35.698 48.6167H35.6919Z" fill="#0BA64F"/>
<path fill-rule="evenodd" clip-rule="evenodd" d="M36.8513 46.55H35.6304C35.7838 46.2683 36.0046 46.0649 36.1825 45.8093C36.4341 46.044 36.6181 46.2787 36.8451 46.55H36.8513Z" fill="#0BA64F"/>
</g>
<path fill-rule="evenodd" clip-rule="evenodd" d="M42.6494 58.8823C42.6494 61.8239 39.8455 64.2075 36.3852 64.2075C32.9249 64.2075 30.1211 61.8239 30.1211 58.8823C30.1211 55.9407 32.9249 53.5571 36.3852 53.5571C39.8455 53.5571 42.6494 55.9407 42.6494 58.8823Z" fill="url(#paint8_radial_124_16813)"/>
<path fill-rule="evenodd" clip-rule="evenodd" d="M42.6494 58.8823C42.6494 61.8239 39.8455 64.2075 36.3852 64.2075C32.9249 64.2075 30.1211 61.8239 30.1211 58.8823C30.1211 55.9407 32.9249 53.5571 36.3852 53.5571C39.8455 53.5571 42.6494 55.9407 42.6494 58.8823Z" fill="url(#paint9_radial_124_16813)"/>
<g filter="url(#filter12_d_124_16813)">
<path fill-rule="evenodd" clip-rule="evenodd" d="M40.9194 58.889C40.9501 61.0639 38.9316 62.8373 36.2934 62.8268C33.1951 62.8164 31.5999 60.6676 31.6183 58.8786C31.6429 56.6567 33.6736 54.9251 36.2934 54.9408C39.3672 54.9564 41.0176 57.1731 40.9133 58.889H40.9194Z" fill="#F8B018"/>
<path fill-rule="evenodd" clip-rule="evenodd" d="M35.1154 61.4282C34.8086 61.6316 34.5325 61.5951 34.2626 61.496C34.0908 61.4334 33.919 61.4439 33.7411 61.4647C33.6429 61.4751 33.5816 61.4491 33.5816 61.3552C33.5693 61.1466 33.4466 60.9744 33.3361 60.7971C33.2134 60.6146 33.1337 60.4112 33.2196 60.1921C33.2625 60.0878 33.2564 59.9991 33.103 59.9522C32.8146 59.8635 32.6919 59.6549 32.6245 59.4254C32.5754 59.2585 32.5263 59.0968 32.3852 58.9664C32.3054 58.8934 32.3116 58.8256 32.3852 58.7578C32.5263 58.6274 32.5815 58.4657 32.6245 58.2988C32.6858 58.0693 32.8269 57.8659 33.103 57.772C33.2257 57.7303 33.2687 57.6729 33.2257 57.5634C33.1214 57.3026 33.2257 57.0679 33.3852 56.8489C33.4895 56.7081 33.5632 56.562 33.5754 56.4003C33.5877 56.2804 33.6491 56.2491 33.784 56.2647C33.9374 56.2856 34.0908 56.2856 34.238 56.2334C34.5203 56.1395 34.7964 56.0665 35.0909 56.2804C35.1645 55.9727 35.3915 55.8423 35.6553 55.7379C35.8271 55.6701 35.9866 55.5815 36.1032 55.4511C36.1891 55.3624 36.2811 55.352 36.367 55.4511C36.502 55.5971 36.686 55.6858 36.8823 55.764C37.1278 55.8631 37.3241 55.9935 37.3732 56.2856C37.6615 56.0822 37.9376 56.1239 38.2199 56.2282C38.3671 56.2804 38.5205 56.2856 38.6739 56.2647C38.8272 56.2439 38.9315 56.2647 38.9193 56.4264C38.907 56.5777 38.9868 56.6976 39.0727 56.8176C39.2506 57.0575 39.3426 57.3079 39.2444 57.5895C39.2138 57.6782 39.2444 57.7147 39.3426 57.746C39.6616 57.8503 39.8028 58.0745 39.8641 58.3458C39.9009 58.4866 39.9561 58.617 40.0666 58.7265C40.1647 58.8152 40.1709 58.8986 40.0666 58.9925C39.9316 59.1125 39.8887 59.2689 39.8457 59.4306C39.7782 59.6653 39.6494 59.8635 39.3733 59.9574C39.2506 59.9991 39.2138 60.0408 39.2506 60.1556C39.3365 60.4112 39.2567 60.6511 39.0911 60.8754C38.9868 61.011 38.9009 61.1518 38.9131 61.3239C38.9193 61.4439 38.8457 61.4856 38.7107 61.4647C38.5082 61.4386 38.3119 61.4543 38.1217 61.5221C37.8763 61.6055 37.637 61.616 37.3977 61.4543C37.3118 61.7464 37.0725 61.8924 36.7842 62.0071C36.6308 62.0645 36.4958 62.1427 36.3915 62.2575C36.2811 62.3775 36.1829 62.3618 36.0786 62.2471C35.9743 62.1323 35.8271 62.0645 35.6798 62.0019C35.416 61.882 35.1399 61.7829 35.1215 61.4386L35.1154 61.4282Z" fill="#FFF9F2"/>
<path fill-rule="evenodd" clip-rule="evenodd" d="M36.2262 56.3289C37.8582 56.3237 39.208 57.4607 39.2141 58.848C39.2203 60.2458 37.895 61.3776 36.2631 61.3985C34.7292 61.4141 33.2813 60.3762 33.2629 58.895C33.2445 57.4763 34.5758 56.3341 36.2262 56.3289Z" fill="#F8B018"/>
<path fill-rule="evenodd" clip-rule="evenodd" d="M39.1704 59.8713C39.4281 59.1985 39.4526 58.5413 39.1704 57.8737C39.3483 57.8215 39.4465 57.9102 39.5324 57.9989C39.6121 58.0823 39.6858 58.1814 39.7042 58.2909C39.7471 58.4996 39.9496 58.6873 39.9435 58.8699C39.9435 59.0524 39.7533 59.2402 39.698 59.4488C39.649 59.6418 39.5201 59.7983 39.2931 59.8765C39.2747 59.8817 39.2502 59.8765 39.1704 59.8765V59.8713Z" fill="#F8B018"/>
<path fill-rule="evenodd" clip-rule="evenodd" d="M33.3177 57.832C33.017 58.5309 33.0109 59.1829 33.3177 59.8713C33.1091 59.8609 32.9925 59.7879 32.8943 59.6679C32.7839 59.5323 32.7655 59.3706 32.7041 59.2194C32.6489 59.089 32.5078 58.969 32.5078 58.8491C32.5078 58.7396 32.6612 58.63 32.7041 58.5048C32.7287 58.437 32.7348 58.3692 32.7594 58.3014C32.8453 58.0876 32.9557 57.8946 33.3238 57.832H33.3177Z" fill="#F8B018"/>
<path fill-rule="evenodd" clip-rule="evenodd" d="M37.208 56.3178C36.5454 56.1613 35.9135 56.1665 35.257 56.3073C35.2325 56.1248 35.3368 56.0257 35.4779 55.9475C35.7049 55.8275 35.9687 55.7493 36.1589 55.5771C36.208 55.5354 36.2632 55.5406 36.3123 55.5824C36.4902 55.7388 36.7172 55.8171 36.932 55.9214C37.0915 55.9944 37.2203 56.0935 37.208 56.3178Z" fill="#F8B018"/>
<path fill-rule="evenodd" clip-rule="evenodd" d="M37.2078 61.4093C37.2201 61.6283 37.0913 61.7274 36.9317 61.8057C36.717 61.91 36.4839 61.9882 36.3121 62.1447C36.2446 62.2073 36.1894 62.176 36.1341 62.129C35.9624 61.9882 35.7476 61.8995 35.539 61.8057C35.3672 61.7274 35.2323 61.6283 35.2568 61.4145C35.901 61.5605 36.5391 61.5762 37.2017 61.4041L37.2078 61.4093Z" fill="#F8B018"/>
<path fill-rule="evenodd" clip-rule="evenodd" d="M39.0673 57.6697C38.6685 57.0803 38.1593 56.6735 37.4722 56.4023C37.6562 56.2406 37.8403 56.2563 38.0182 56.3032C38.2207 56.3606 38.417 56.4284 38.6379 56.4023C38.7238 56.3919 38.7728 56.4336 38.779 56.5014C38.7974 56.6787 38.914 56.8196 39.0121 56.9656C39.1471 57.1638 39.19 57.3724 39.0673 57.6697Z" fill="#F8B018"/>
<path fill-rule="evenodd" clip-rule="evenodd" d="M33.4163 60.0632C33.7844 60.6422 34.2937 61.049 34.9747 61.3202C34.8704 61.461 34.7354 61.4767 34.5943 61.461C34.5023 61.4506 34.398 61.4349 34.3305 61.3932C34.1403 61.2628 33.7906 61.4715 33.6985 61.2211C33.6249 61.0125 33.4838 60.8456 33.3918 60.6526C33.3059 60.47 33.2875 60.2875 33.4102 60.0632H33.4163Z" fill="#F8B018"/>
<path fill-rule="evenodd" clip-rule="evenodd" d="M37.49 61.3204C38.171 61.0492 38.6864 60.6424 39.0668 60.0947C39.1588 60.2877 39.1772 60.465 39.0729 60.6476C38.9502 60.8614 38.7846 61.0596 38.7416 61.3048C38.4594 61.3308 38.1833 61.3621 37.9195 61.4456C37.7722 61.4925 37.6189 61.4612 37.4839 61.3204H37.49Z" fill="#F8B018"/>
<path fill-rule="evenodd" clip-rule="evenodd" d="M34.9744 56.383C34.6554 56.5604 34.3363 56.7012 34.0725 56.915C33.821 57.1237 33.6185 57.3688 33.416 57.64C33.2565 57.3844 33.324 57.1654 33.4651 56.9515C33.5633 56.8055 33.686 56.6647 33.686 56.4873C33.686 56.4091 33.7412 56.3778 33.8271 56.3882C34.0602 56.4143 34.2627 56.3413 34.4774 56.2839C34.6431 56.2422 34.8149 56.2266 34.9744 56.3778V56.383Z" fill="#F8B018"/>
<path fill-rule="evenodd" clip-rule="evenodd" d="M33.7724 57.9875C33.8645 57.9301 33.9626 57.951 34.0547 57.951C35.4965 57.951 36.9321 57.9614 38.3739 57.9718C38.4353 57.9718 38.4905 57.9718 38.5518 57.977C38.6623 57.9927 38.6868 58.0501 38.6316 58.1283C38.5948 58.1805 38.5518 58.2274 38.515 58.2795C37.8647 59.0828 37.2205 59.8807 36.5701 60.684C36.5333 60.7361 36.4904 60.7831 36.4474 60.83C36.3615 60.9187 36.2695 60.9135 36.1836 60.83C36.1591 60.8091 36.1407 60.7831 36.1161 60.757C35.3553 59.886 34.5946 59.0202 33.8338 58.1492C33.797 58.1074 33.7602 58.0709 33.7663 57.9927L33.7724 57.9875Z" fill="#FFF5E3"/>
<path fill-rule="evenodd" clip-rule="evenodd" d="M33.9744 58.0994H38.4654C37.7476 59.0173 37.0421 59.8675 36.312 60.775C35.5205 59.8727 34.7597 58.9965 33.9683 58.0994H33.9744Z" fill="#F8B018"/>
</g>
<path fill-rule="evenodd" clip-rule="evenodd" d="M42.6494 70.2717C42.6494 73.2133 39.8455 75.5969 36.3852 75.5969C32.9249 75.5969 30.1211 73.2133 30.1211 70.2717C30.1211 67.3301 32.9249 64.9465 36.3852 64.9465C39.8455 64.9465 42.6494 67.3301 42.6494 70.2717Z" fill="url(#paint10_radial_124_16813)"/>
<path fill-rule="evenodd" clip-rule="evenodd" d="M42.6494 70.2717C42.6494 73.2133 39.8455 75.5969 36.3852 75.5969C32.9249 75.5969 30.1211 73.2133 30.1211 70.2717C30.1211 67.3301 32.9249 64.9465 36.3852 64.9465C39.8455 64.9465 42.6494 67.3301 42.6494 70.2717Z" fill="url(#paint11_radial_124_16813)"/>
<g filter="url(#filter13_d_124_16813)">
<path fill-rule="evenodd" clip-rule="evenodd" d="M40.9191 70.3983C40.9559 72.6046 38.919 74.3727 36.2869 74.357C33.1947 74.3414 31.6118 72.1925 31.6241 70.4296C31.6425 68.2025 33.661 66.4657 36.2747 66.471C39.373 66.4762 41.0111 68.7033 40.9191 70.3983Z" fill="#F17124"/>
<path fill-rule="evenodd" clip-rule="evenodd" d="M34.999 68.7393C35.1094 68.6611 35.0787 68.5568 35.1155 68.4733C35.2137 68.2438 35.3671 68.0613 35.6554 67.9935C35.8334 67.9518 35.9745 67.8631 36.0911 67.7536C36.177 67.6701 36.2628 67.6597 36.3549 67.7483C36.4899 67.8787 36.6616 67.9622 36.858 68.0143C37.1218 68.0822 37.2506 68.2595 37.3365 68.4681C37.3733 68.5516 37.3733 68.6454 37.4531 68.7497C37.8212 68.5411 38.1955 68.6402 38.5697 68.7758C38.7108 68.828 38.852 68.8854 39.0053 68.901C39.1342 68.9167 39.1587 68.9792 39.1096 69.0731C38.9746 69.3235 38.9317 69.5895 38.9317 69.8659C38.9317 70.0745 38.809 70.2258 38.6004 70.3301C38.5513 70.3562 38.4838 70.3562 38.4654 70.4396C38.8519 70.5544 38.9562 70.8151 38.9378 71.1437C38.9317 71.3471 38.9992 71.5401 39.0974 71.7227C39.1648 71.8426 39.128 71.8948 38.9624 71.9261C38.7354 71.973 38.5206 72.0617 38.2998 72.1295C38.0053 72.2182 37.7231 72.2286 37.4654 72.0617C37.3979 72.1191 37.3856 72.1869 37.3672 72.2547C37.2874 72.5363 37.1156 72.7501 36.7659 72.8284C36.6003 72.8649 36.4715 72.9536 36.361 73.0579C36.269 73.1465 36.1831 73.1361 36.0911 73.0527C35.9561 72.917 35.7782 72.844 35.5818 72.7919C35.3671 72.7345 35.2321 72.5937 35.1524 72.4163C35.1033 72.312 35.0726 72.2077 35.0358 72.1086C34.999 72.0878 34.9683 72.0721 34.9315 72.093C34.6677 72.239 34.3977 72.2025 34.1155 72.1243C33.8824 72.0565 33.6676 71.9417 33.4161 71.9104C33.3118 71.9 33.2872 71.8322 33.3302 71.754C33.4713 71.5036 33.5081 71.2376 33.5081 70.9664C33.5081 70.69 33.7106 70.5335 34.0419 70.4135C33.551 70.2571 33.4713 69.9546 33.4958 69.5999C33.502 69.4695 33.4529 69.3443 33.4038 69.2192C33.2995 68.9532 33.2934 68.9532 33.594 68.8697C33.7044 68.8384 33.8149 68.7967 33.9192 68.755C34.275 68.6298 34.6309 68.5516 34.9806 68.7445L34.999 68.7393Z" fill="#FFF6F1"/>
<path fill-rule="evenodd" clip-rule="evenodd" d="M36.2374 68.7127C37.3233 68.7127 38.1945 69.4742 38.1945 70.4078C38.1945 71.3362 37.3049 72.0925 36.2189 72.0925C35.3232 72.0925 34.2802 71.5083 34.2556 70.3922C34.2372 69.469 35.1575 68.7075 36.2374 68.7075V68.7127Z" fill="#F17124"/>
<path fill-rule="evenodd" clip-rule="evenodd" d="M38.3916 70.2645C38.1891 69.55 38.1032 69.4248 37.502 68.9085C37.6615 68.7468 37.8517 68.705 38.0909 68.752C38.3916 68.8146 38.6615 68.9345 38.9806 69.0284C38.8517 69.2683 38.8333 69.5135 38.821 69.7638C38.8088 70.0559 38.729 70.1341 38.3854 70.2697L38.3916 70.2645Z" fill="#F17124"/>
<path fill-rule="evenodd" clip-rule="evenodd" d="M37.478 71.8916C37.9934 71.5474 38.2879 71.1093 38.3677 70.5408C38.5947 70.5773 38.7358 70.6712 38.7849 70.8537C38.8094 70.9424 38.8155 71.031 38.8278 71.1197C38.8401 71.2188 38.8462 71.3179 38.8462 71.4222C38.8523 71.5474 39.018 71.683 38.9198 71.7821C38.8339 71.8708 38.6499 71.8916 38.5088 71.9333C38.3677 71.9803 38.2204 72.0168 38.0732 72.0533C37.8461 72.1107 37.6621 72.0481 37.478 71.8864V71.8916Z" fill="#F17124"/>
<path fill-rule="evenodd" clip-rule="evenodd" d="M34.084 70.2707C33.7833 70.2029 33.6484 70.0516 33.6545 69.8065C33.6545 69.5457 33.6054 69.2901 33.4766 69.0189C33.9735 68.9355 34.403 68.5287 34.992 68.9094C34.4521 69.2641 34.1637 69.7178 34.084 70.2707Z" fill="#F17124"/>
<path fill-rule="evenodd" clip-rule="evenodd" d="M34.0835 70.5355C34.1755 71.0936 34.4577 71.5421 34.9608 71.8811C34.8259 72.0428 34.6602 72.095 34.4577 72.0689C34.1387 72.0324 33.8626 71.8863 33.562 71.8081C33.4638 71.782 33.5006 71.7142 33.5252 71.6569C33.6172 71.4482 33.6479 71.2292 33.6479 71.0101C33.6479 70.7702 33.7645 70.6085 34.0774 70.5303L34.0835 70.5355Z" fill="#F17124"/>
<path fill-rule="evenodd" clip-rule="evenodd" d="M35.1763 72.0069C35.888 72.2886 36.569 72.299 37.2439 72.0174C37.2561 72.3981 37.115 72.5859 36.7285 72.711C36.5874 72.758 36.4463 72.8154 36.342 72.9092C36.2561 72.9875 36.1886 72.9822 36.1088 72.904C36.0168 72.8101 35.888 72.7528 35.753 72.7162C35.3481 72.6224 35.2254 72.3616 35.1824 72.0017L35.1763 72.0069Z" fill="#F17124"/>
<path fill-rule="evenodd" clip-rule="evenodd" d="M37.2866 68.8132C36.5811 68.5107 35.9 68.5054 35.2129 68.7975C35.2129 68.3959 35.3356 68.2238 35.7405 68.0986C35.9246 68.0412 36.0657 67.9369 36.2314 67.8118C36.4093 67.9787 36.624 68.0621 36.8572 68.1403C37.1762 68.2551 37.2498 68.5107 37.2866 68.8184V68.8132Z" fill="#F17124"/>
<path fill-rule="evenodd" clip-rule="evenodd" d="M36.2194 71.907C35.342 71.907 34.5567 71.302 34.4647 70.5613C34.4585 70.504 34.4401 70.4309 34.5322 70.4101C34.6181 70.3892 34.6487 70.4622 34.6794 70.5144C34.8328 70.7595 35.0598 70.9473 35.3298 71.0985C35.9433 71.4376 36.5507 71.4376 37.1335 71.0673C37.4035 70.8951 37.6121 70.6813 37.7839 70.4414C37.8207 70.3944 37.8514 70.3266 37.9434 70.3527C38.0293 70.3788 38.0109 70.4518 38.0048 70.5092C37.9495 71.3802 37.0108 71.9748 36.2194 71.907Z" fill="#FFEFE5"/>
<path fill-rule="evenodd" clip-rule="evenodd" d="M34.6973 70.7758C35.139 71.1982 35.6421 71.4851 36.2986 71.4538C36.9612 71.4225 37.4029 71.0626 37.814 70.6245C37.7588 71.3025 36.906 71.7876 36.3047 71.7876C35.5378 71.7876 34.8875 71.3964 34.6973 70.7705V70.7758Z" fill="#F07423"/>
</g>
<defs>
<filter id="filter0_f_124_16813" x="22.7972" y="0.703698" width="26.953" height="25.5389" filterUnits="userSpaceOnUse" color-interpolation-filters="sRGB">
<feFlood flood-opacity="0" result="BackgroundImageFix"/>
<feBlend mode="normal" in="SourceGraphic" in2="BackgroundImageFix" result="shape"/>
<feGaussianBlur stdDeviation="4.41317" result="effect1_foregroundBlur_124_16813"/>
</filter>
<filter id="filter1_f_124_16813" x="22.7972" y="12.1085" width="26.9481" height="25.5494" filterUnits="userSpaceOnUse" color-interpolation-filters="sRGB">
<feFlood flood-opacity="0" result="BackgroundImageFix"/>
<feBlend mode="normal" in="SourceGraphic" in2="BackgroundImageFix" result="shape"/>
<feGaussianBlur stdDeviation="4.41317" result="effect1_foregroundBlur_124_16813"/>
</filter>
<filter id="filter2_f_124_16813" x="22.7923" y="23.3097" width="26.9544" height="25.5389" filterUnits="userSpaceOnUse" color-interpolation-filters="sRGB">
<feFlood flood-opacity="0" result="BackgroundImageFix"/>
<feBlend mode="normal" in="SourceGraphic" in2="BackgroundImageFix" result="shape"/>
<feGaussianBlur stdDeviation="4.41317" result="effect1_foregroundBlur_124_16813"/>
</filter>
<filter id="filter3_f_124_16813" x="22.7972" y="34.8302" width="26.952" height="25.5389" filterUnits="userSpaceOnUse" color-interpolation-filters="sRGB">
<feFlood flood-opacity="0" result="BackgroundImageFix"/>
<feBlend mode="normal" in="SourceGraphic" in2="BackgroundImageFix" result="shape"/>
<feGaussianBlur stdDeviation="4.41317" result="effect1_foregroundBlur_124_16813"/>
</filter>
<filter id="filter4_f_124_16813" x="22.7918" y="46.1146" width="26.9544" height="25.5389" filterUnits="userSpaceOnUse" color-interpolation-filters="sRGB">
<feFlood flood-opacity="0" result="BackgroundImageFix"/>
<feBlend mode="normal" in="SourceGraphic" in2="BackgroundImageFix" result="shape"/>
<feGaussianBlur stdDeviation="4.41317" result="effect1_foregroundBlur_124_16813"/>
</filter>
<filter id="filter5_f_124_16813" x="22.7972" y="57.6446" width="26.9515" height="25.5389" filterUnits="userSpaceOnUse" color-interpolation-filters="sRGB">
<feFlood flood-opacity="0" result="BackgroundImageFix"/>
<feBlend mode="normal" in="SourceGraphic" in2="BackgroundImageFix" result="shape"/>
<feGaussianBlur stdDeviation="4.41317" result="effect1_foregroundBlur_124_16813"/>
</filter>
<filter id="filter6_f_124_16813" x="22.7972" y="68.6834" width="26.9417" height="25.5491" filterUnits="userSpaceOnUse" color-interpolation-filters="sRGB">
<feFlood flood-opacity="0" result="BackgroundImageFix"/>
<feBlend mode="normal" in="SourceGraphic" in2="BackgroundImageFix" result="shape"/>
<feGaussianBlur stdDeviation="4.41317" result="effect1_foregroundBlur_124_16813"/>
</filter>
<filter id="filter7_d_124_16813" x="27.2109" y="77.5098" width="18.1154" height="16.7228" filterUnits="userSpaceOnUse" color-interpolation-filters="sRGB">
<feFlood flood-opacity="0" result="BackgroundImageFix"/>
<feColorMatrix in="SourceAlpha" type="matrix" values="0 0 0 0 0 0 0 0 0 0 0 0 0 0 0 0 0 0 127 0" result="hardAlpha"/>
<feOffset dy="4.41317"/>
<feGaussianBlur stdDeviation="2.20658"/>
<feComposite in2="hardAlpha" operator="out"/>
<feColorMatrix type="matrix" values="0 0 0 0 0 0 0 0 0 0 0 0 0 0 0 0 0 0 0.25 0"/>
<feBlend mode="normal" in2="BackgroundImageFix" result="effect1_dropShadow_124_16813"/>
<feBlend mode="normal" in="SourceGraphic" in2="effect1_dropShadow_124_16813" result="shape"/>
</filter>
<filter id="filter8_d_124_16813" x="27.2109" y="9.53027" width="18.1266" height="16.7126" filterUnits="userSpaceOnUse" color-interpolation-filters="sRGB">
<feFlood flood-opacity="0" result="BackgroundImageFix"/>
<feColorMatrix in="SourceAlpha" type="matrix" values="0 0 0 0 0 0 0 0 0 0 0 0 0 0 0 0 0 0 127 0" result="hardAlpha"/>
<feOffset dy="4.41317"/>
<feGaussianBlur stdDeviation="2.20658"/>
<feComposite in2="hardAlpha" operator="out"/>
<feColorMatrix type="matrix" values="0 0 0 0 0 0 0 0 0 0 0 0 0 0 0 0 0 0 0.25 0"/>
<feBlend mode="normal" in2="BackgroundImageFix" result="effect1_dropShadow_124_16813"/>
<feBlend mode="normal" in="SourceGraphic" in2="effect1_dropShadow_124_16813" result="shape"/>
</filter>
<filter id="filter9_d_124_16813" x="27.2109" y="20.9348" width="18.1217" height="16.7231" filterUnits="userSpaceOnUse" color-interpolation-filters="sRGB">
<feFlood flood-opacity="0" result="BackgroundImageFix"/>
<feColorMatrix in="SourceAlpha" type="matrix" values="0 0 0 0 0 0 0 0 0 0 0 0 0 0 0 0 0 0 127 0" result="hardAlpha"/>
<feOffset dy="4.41317"/>
<feGaussianBlur stdDeviation="2.20658"/>
<feComposite in2="hardAlpha" operator="out"/>
<feColorMatrix type="matrix" values="0 0 0 0 0 0 0 0 0 0 0 0 0 0 0 0 0 0 0.25 0"/>
<feBlend mode="normal" in2="BackgroundImageFix" result="effect1_dropShadow_124_16813"/>
<feBlend mode="normal" in="SourceGraphic" in2="effect1_dropShadow_124_16813" result="shape"/>
</filter>
<filter id="filter10_d_124_16813" x="27.205" y="32.136" width="18.1281" height="16.7126" filterUnits="userSpaceOnUse" color-interpolation-filters="sRGB">
<feFlood flood-opacity="0" result="BackgroundImageFix"/>
<feColorMatrix in="SourceAlpha" type="matrix" values="0 0 0 0 0 0 0 0 0 0 0 0 0 0 0 0 0 0 127 0" result="hardAlpha"/>
<feOffset dy="4.41317"/>
<feGaussianBlur stdDeviation="2.20658"/>
<feComposite in2="hardAlpha" operator="out"/>
<feColorMatrix type="matrix" values="0 0 0 0 0 0 0 0 0 0 0 0 0 0 0 0 0 0 0.25 0"/>
<feBlend mode="normal" in2="BackgroundImageFix" result="effect1_dropShadow_124_16813"/>
<feBlend mode="normal" in="SourceGraphic" in2="effect1_dropShadow_124_16813" result="shape"/>
</filter>
<filter id="filter11_d_124_16813" x="27.2109" y="43.6565" width="18.1256" height="16.7126" filterUnits="userSpaceOnUse" color-interpolation-filters="sRGB">
<feFlood flood-opacity="0" result="BackgroundImageFix"/>
<feColorMatrix in="SourceAlpha" type="matrix" values="0 0 0 0 0 0 0 0 0 0 0 0 0 0 0 0 0 0 127 0" result="hardAlpha"/>
<feOffset dy="4.41317"/>
<feGaussianBlur stdDeviation="2.20658"/>
<feComposite in2="hardAlpha" operator="out"/>
<feColorMatrix type="matrix" values="0 0 0 0 0 0 0 0 0 0 0 0 0 0 0 0 0 0 0.25 0"/>
<feBlend mode="normal" in2="BackgroundImageFix" result="effect1_dropShadow_124_16813"/>
<feBlend mode="normal" in="SourceGraphic" in2="effect1_dropShadow_124_16813" result="shape"/>
</filter>
<filter id="filter12_d_124_16813" x="27.205" y="54.9407" width="18.1281" height="16.7126" filterUnits="userSpaceOnUse" color-interpolation-filters="sRGB">
<feFlood flood-opacity="0" result="BackgroundImageFix"/>
<feColorMatrix in="SourceAlpha" type="matrix" values="0 0 0 0 0 0 0 0 0 0 0 0 0 0 0 0 0 0 127 0" result="hardAlpha"/>
<feOffset dy="4.41317"/>
<feGaussianBlur stdDeviation="2.20658"/>
<feComposite in2="hardAlpha" operator="out"/>
<feColorMatrix type="matrix" values="0 0 0 0 0 0 0 0 0 0 0 0 0 0 0 0 0 0 0.25 0"/>
<feBlend mode="normal" in2="BackgroundImageFix" result="effect1_dropShadow_124_16813"/>
<feBlend mode="normal" in="SourceGraphic" in2="effect1_dropShadow_124_16813" result="shape"/>
</filter>
<filter id="filter13_d_124_16813" x="27.2109" y="66.4709" width="18.1252" height="16.7126" filterUnits="userSpaceOnUse" color-interpolation-filters="sRGB">
<feFlood flood-opacity="0" result="BackgroundImageFix"/>
<feColorMatrix in="SourceAlpha" type="matrix" values="0 0 0 0 0 0 0 0 0 0 0 0 0 0 0 0 0 0 127 0" result="hardAlpha"/>
<feOffset dy="4.41317"/>
<feGaussianBlur stdDeviation="2.20658"/>
<feComposite in2="hardAlpha" operator="out"/>
<feColorMatrix type="matrix" values="0 0 0 0 0 0 0 0 0 0 0 0 0 0 0 0 0 0 0.25 0"/>
<feBlend mode="normal" in2="BackgroundImageFix" result="effect1_dropShadow_124_16813"/>
<feBlend mode="normal" in="SourceGraphic" in2="effect1_dropShadow_124_16813" result="shape"/>
</filter>
<radialGradient id="paint0_radial_124_16813" cx="0" cy="0" r="1" gradientUnits="userSpaceOnUse" gradientTransform="translate(7133.29 78.0774) scale(6.2693 5.32955)">
<stop stop-color="white"/>
<stop offset="1" stop-color="white" stop-opacity="0"/>
</radialGradient>
<radialGradient id="paint1_radial_124_16813" cx="0" cy="0" r="1" gradientUnits="userSpaceOnUse" gradientTransform="translate(7133.29 78.0774) scale(6.2693 5.32955)">
<stop stop-color="white"/>
<stop offset="1" stop-color="white" stop-opacity="0"/>
</radialGradient>
<radialGradient id="paint2_radial_124_16813" cx="0" cy="0" r="1" gradientUnits="userSpaceOnUse" gradientTransform="translate(21.9034 9.59067) scale(6.2693 5.32955)">
<stop stop-color="white"/>
<stop offset="1" stop-color="white" stop-opacity="0"/>
</radialGradient>
<radialGradient id="paint3_radial_124_16813" cx="0" cy="0" r="1" gradientUnits="userSpaceOnUse" gradientTransform="translate(21.9034 9.59067) scale(6.2693 5.32955)">
<stop stop-color="white"/>
<stop offset="1" stop-color="white" stop-opacity="0"/>
</radialGradient>
<radialGradient id="paint4_radial_124_16813" cx="0" cy="0" r="1" gradientUnits="userSpaceOnUse" gradientTransform="translate(7133.29 20.9992) scale(6.2693 5.32955)">
<stop stop-color="white"/>
<stop offset="1" stop-color="white" stop-opacity="0"/>
</radialGradient>
<radialGradient id="paint5_radial_124_16813" cx="0" cy="0" r="1" gradientUnits="userSpaceOnUse" gradientTransform="translate(7133.29 32.4043) scale(6.2693 5.32955)">
<stop stop-color="white"/>
<stop offset="1" stop-color="white" stop-opacity="0"/>
</radialGradient>
<radialGradient id="paint6_radial_124_16813" cx="0" cy="0" r="1" gradientUnits="userSpaceOnUse" gradientTransform="translate(7133.29 43.8234) scale(6.2693 5.32955)">
<stop stop-color="white"/>
<stop offset="1" stop-color="white" stop-opacity="0"/>
</radialGradient>
<radialGradient id="paint7_radial_124_16813" cx="0" cy="0" r="1" gradientUnits="userSpaceOnUse" gradientTransform="translate(7133.29 43.8234) scale(6.2693 5.32955)">
<stop stop-color="white"/>
<stop offset="1" stop-color="white" stop-opacity="0"/>
</radialGradient>
<radialGradient id="paint8_radial_124_16813" cx="0" cy="0" r="1" gradientUnits="userSpaceOnUse" gradientTransform="translate(7133.29 55.2486) scale(6.2693 5.32955)">
<stop stop-color="white"/>
<stop offset="1" stop-color="white" stop-opacity="0"/>
</radialGradient>
<radialGradient id="paint9_radial_124_16813" cx="0" cy="0" r="1" gradientUnits="userSpaceOnUse" gradientTransform="translate(7133.29 55.2486) scale(6.2693 5.32955)">
<stop stop-color="white"/>
<stop offset="1" stop-color="white" stop-opacity="0"/>
</radialGradient>
<radialGradient id="paint10_radial_124_16813" cx="0" cy="0" r="1" gradientUnits="userSpaceOnUse" gradientTransform="translate(7133.29 66.6592) scale(6.2693 5.32955)">
<stop stop-color="white"/>
<stop offset="1" stop-color="white" stop-opacity="0"/>
</radialGradient>
<radialGradient id="paint11_radial_124_16813" cx="0" cy="0" r="1" gradientUnits="userSpaceOnUse" gradientTransform="translate(7133.29 66.6592) scale(6.2693 5.32955)">
<stop stop-color="white"/>
<stop offset="1" stop-color="white" stop-opacity="0"/>
</radialGradient>
</defs>
</svg>
