<svg width="157" height="94" viewBox="0 0 157 94" fill="none" xmlns="http://www.w3.org/2000/svg">
<path d="M102.056 77.5192C102.468 77.5192 102.468 76.8787 102.056 76.8787C101.644 76.8787 101.643 77.5192 102.056 77.5192Z" fill="#ECF4FB"/>
<path d="M15.0459 92.9478C9.71959 92.2809 4.58161 86.9542 2.24718 82.492C-0.732998 76.7955 -0.522162 70.0067 1.55309 63.9982C4.08169 56.6775 11.287 53.1796 17.9493 50.1551C23.4582 47.6541 29.1537 45.4853 34.2445 42.1916C40.247 38.3083 45.2849 32.8929 48.7676 26.5799C51.9578 20.7967 53.8922 14.2423 57.9943 9.08882C61.718 4.41091 67.3088 1.1938 73.2733 0.273926C79.6636 -0.711716 85.7125 0.964958 90.4669 5.2648C91.4979 6.19743 92.4536 7.21149 93.3426 8.27879C97.5489 13.328 100.788 19.3278 105.938 23.3704C111.058 27.3895 117.482 28.8577 123.452 31.116C126.251 32.1748 129.211 32.9502 131.887 34.3606C138.882 38.0473 145.058 43.5419 149.086 50.3922C153.135 57.2783 154.678 65.5194 153.729 73.4668C153.203 77.874 151.828 82.1993 149.453 85.9639C147.311 89.3591 144.082 91.869 140.209 92.962H17.5216C16.7549 92.962 15.9312 93.0475 15.168 92.962C15.1274 92.9578 15.0867 92.9528 15.0459 92.9478Z" fill="#E2EEF9"/>
<path d="M104.68 18.9414L100.648 14.0777H98.0513C97.4402 13.2384 96.8334 12.3951 96.2193 11.5579C96.6093 11.4613 96.8983 11.1087 96.8983 10.6887C96.8983 10.1941 96.4975 9.79311 96.0031 9.79311C95.6755 9.79311 95.3889 9.96932 95.2329 10.2321C94.634 9.43957 94.0229 8.65891 93.3897 7.8995C93.2773 7.76466 93.164 7.63071 93.0493 7.49766H105.025C105.559 7.49766 105.991 7.93081 105.991 8.46504V13.1103C105.991 13.6445 105.559 14.0777 105.025 14.0777H103.558L104.68 18.9414ZM100.13 9.79311C99.6357 9.79311 99.235 10.1941 99.235 10.6887C99.235 11.1831 99.6357 11.5841 100.13 11.5841C100.625 11.5841 101.025 11.1831 101.025 10.6887C101.025 10.1941 100.625 9.79311 100.13 9.79311Z" fill="#ADE0E5"/>
<path d="M98.0512 14.0775H87.9598C87.4259 14.0775 86.9932 13.6444 86.9932 13.1101V8.46489C86.9932 7.93066 87.4259 7.49751 87.9598 7.49751H93.0492C93.1639 7.63056 93.2772 7.76451 93.3896 7.89935C94.0228 8.65876 94.6338 9.43942 95.2328 10.2319C95.1508 10.3701 95.1076 10.5279 95.1079 10.6886C95.1079 11.183 95.5086 11.5839 96.003 11.5839C96.0777 11.5839 96.1499 11.575 96.2191 11.5578C96.8333 12.395 97.4401 13.2383 98.0512 14.0775ZM91.876 9.79296C91.3816 9.79296 90.9809 10.1939 90.9809 10.6886C90.9809 11.183 91.3816 11.5839 91.876 11.5839C92.3704 11.5839 92.7712 11.183 92.7712 10.6886C92.7712 10.1939 92.3704 9.79296 91.876 9.79296Z" fill="#9DD3E0"/>
<path d="M91.8761 11.5838C91.3817 11.5838 90.981 11.1829 90.981 10.6884C90.981 10.1938 91.3817 9.79284 91.8761 9.79284C92.3705 9.79284 92.7712 10.1938 92.7712 10.6884C92.7712 11.1829 92.3705 11.5838 91.8761 11.5838Z" fill="#9DD3E0"/>
<path d="M96.2192 11.5579C95.8931 11.1135 95.5648 10.6708 95.2329 10.232C95.3889 9.96928 95.6754 9.79307 96.0031 9.79307C96.4975 9.79307 96.8982 10.194 96.8982 10.6887C96.8982 11.1086 96.6092 11.4613 96.2192 11.5579Z" fill="#ADE0E5"/>
<path d="M96.003 11.5838C95.5087 11.5838 95.1079 11.1829 95.1079 10.6884C95.1079 10.5216 95.1535 10.3655 95.2329 10.2318C95.5648 10.6705 95.8931 11.1133 96.2192 11.5576C96.1499 11.5749 96.0777 11.5838 96.003 11.5838Z" fill="#9DD3E0"/>
<path d="M100.13 11.5838C99.6356 11.5838 99.2349 11.1829 99.2349 10.6884C99.2349 10.1938 99.6356 9.79284 100.13 9.79284C100.624 9.79284 101.025 10.1938 101.025 10.6884C101.025 11.1829 100.624 11.5838 100.13 11.5838Z" fill="#ADE0E5"/>
<path d="M105.024 6.04495H87.9598C87.4259 6.04495 86.9932 6.4781 86.9932 7.01232V11.6573C86.9932 12.1918 87.4259 12.6249 87.9598 12.6249H100.648L104.679 17.4887L103.558 12.6249H105.024C105.558 12.6249 105.991 12.1918 105.991 11.6573V7.01232C105.991 6.4781 105.558 6.04495 105.024 6.04495Z" fill="#1890C4"/>
<path d="M92.7712 9.23572C92.7712 9.73037 92.3705 10.1313 91.8761 10.1313C91.3817 10.1313 90.981 9.73037 90.981 9.23572C90.981 8.7413 91.3817 8.34035 91.8761 8.34035C92.3705 8.34035 92.7712 8.7413 92.7712 9.23572ZM96.8982 9.23572C96.8982 9.73037 96.4975 10.1313 96.0031 10.1313C95.5087 10.1313 95.1079 9.73037 95.1079 9.23572C95.1079 8.7413 95.5087 8.34035 96.0031 8.34035C96.4975 8.34035 96.8982 8.7413 96.8982 9.23572ZM101.025 9.23572C101.025 9.73037 100.624 10.1313 100.13 10.1313C99.6357 10.1313 99.2349 9.73037 99.2349 9.23572C99.2349 8.7413 99.6357 8.34035 100.13 8.34035C100.624 8.34035 101.025 8.7413 101.025 9.23572Z" fill="white"/>
<path d="M137.193 18.9414L138.117 14.0777H125.429C124.895 14.0777 124.462 13.6445 124.462 13.1103V8.46504C124.462 7.93081 124.895 7.49766 125.429 7.49766H142.493C143.028 7.49766 143.46 7.93081 143.46 8.46504V13.1103C143.46 13.6445 143.028 14.0777 142.493 14.0777H141.027L137.193 18.9414ZM138.088 10.0346C137.594 10.0346 137.193 10.4356 137.193 10.9302C137.193 11.4249 137.594 11.8256 138.088 11.8256C138.582 11.8256 138.983 11.4249 138.983 10.9302C138.983 10.4356 138.582 10.0346 138.088 10.0346ZM133.961 10.0346C133.467 10.0346 133.066 10.4356 133.066 10.9302C133.066 11.4249 133.467 11.8256 133.961 11.8256C134.455 11.8256 134.856 11.4249 134.856 10.9302C134.856 10.4356 134.455 10.0346 133.961 10.0346ZM129.834 10.0346C129.34 10.0346 128.939 10.4356 128.939 10.9302C128.939 11.4249 129.34 11.8256 129.834 11.8256C130.329 11.8256 130.729 11.4249 130.729 10.9302C130.729 10.4356 130.329 10.0346 129.834 10.0346Z" fill="#ADE0E5"/>
<path d="M129.834 11.8253C129.34 11.8253 128.939 11.4246 128.939 10.9299C128.939 10.4353 129.34 10.0343 129.834 10.0343C130.328 10.0343 130.729 10.4353 130.729 10.9299C130.729 11.4246 130.328 11.8253 129.834 11.8253ZM133.961 11.8253C133.467 11.8253 133.066 11.4246 133.066 10.9299C133.066 10.4353 133.467 10.0343 133.961 10.0343C134.455 10.0343 134.856 10.4353 134.856 10.9299C134.856 11.4246 134.455 11.8253 133.961 11.8253ZM138.088 11.8253C137.594 11.8253 137.193 11.4246 137.193 10.9299C137.193 10.4353 137.594 10.0343 138.088 10.0343C138.582 10.0343 138.983 10.4353 138.983 10.9299C138.983 11.4246 138.582 11.8253 138.088 11.8253Z" fill="#ADE0E5"/>
<path d="M142.493 6.04495H125.429C124.895 6.04495 124.462 6.4781 124.462 7.01232V11.6573C124.462 12.1918 124.895 12.6249 125.429 12.6249H138.117L137.193 17.4887L141.027 12.6249H142.493C143.028 12.6249 143.46 12.1918 143.46 11.6573V7.01232C143.46 6.4781 143.028 6.04495 142.493 6.04495Z" fill="#1890C4"/>
<path d="M130.729 9.47743C130.729 9.97207 130.328 10.373 129.834 10.373C129.34 10.373 128.939 9.97207 128.939 9.47743C128.939 8.98301 129.34 8.58206 129.834 8.58206C130.328 8.58206 130.729 8.98301 130.729 9.47743ZM134.856 9.47743C134.856 9.97207 134.455 10.373 133.961 10.373C133.467 10.373 133.066 9.97207 133.066 9.47743C133.066 8.98301 133.467 8.58206 133.961 8.58206C134.455 8.58206 134.856 8.98301 134.856 9.47743ZM138.983 9.47743C138.983 9.97207 138.582 10.373 138.088 10.373C137.594 10.373 137.193 9.97207 137.193 9.47743C137.193 8.98301 137.594 8.58206 138.088 8.58206C138.582 8.58206 138.983 8.98301 138.983 9.47743Z" fill="white"/>
<path d="M73.9363 55.4846H56.8717C56.3377 55.4846 55.9048 55.0517 55.9048 54.5174V49.8724C55.9048 49.338 56.3377 48.9048 56.8717 48.9048H69.5597L75.2188 44.0409L72.4701 48.9048H73.9363C74.4703 48.9048 74.9032 49.338 74.9032 49.8724V54.5174C74.9032 55.0517 74.4703 55.4846 73.9363 55.4846ZM69.5309 51.4158C69.0365 51.4158 68.6357 51.8168 68.6357 52.3112C68.6357 52.8059 69.0365 53.2068 69.5309 53.2068C70.0252 53.2068 70.426 52.8059 70.426 52.3112C70.426 51.8168 70.0252 51.4158 69.5309 51.4158ZM65.4041 51.4158C64.9097 51.4158 64.509 51.8168 64.509 52.3112C64.509 52.8059 64.9097 53.2068 65.4041 53.2068C65.8983 53.2068 66.299 52.8059 66.299 52.3112C66.299 51.8168 65.8983 51.4158 65.4041 51.4158ZM61.2771 51.4158C60.7827 51.4158 60.382 51.8168 60.382 52.3112C60.382 52.8059 60.7827 53.2068 61.2771 53.2068C61.7715 53.2068 62.172 52.8059 62.172 52.3112C62.172 51.8168 61.7715 51.4158 61.2771 51.4158Z" fill="#9DD3E0"/>
<path d="M61.277 53.2067C60.7826 53.2067 60.3818 52.8057 60.3818 52.3111C60.3818 51.8166 60.7826 51.4157 61.277 51.4157C61.7714 51.4157 62.1719 51.8166 62.1719 52.3111C62.1719 52.8057 61.7714 53.2067 61.277 53.2067ZM65.4039 53.2067C64.9096 53.2067 64.5088 52.8057 64.5088 52.3111C64.5088 51.8166 64.9096 51.4157 65.4039 51.4157C65.8981 51.4157 66.2989 51.8166 66.2989 52.3111C66.2989 52.8057 65.8981 53.2067 65.4039 53.2067ZM69.5307 53.2067C69.0363 53.2067 68.6356 52.8057 68.6356 52.3111C68.6356 51.8166 69.0363 51.4157 69.5307 51.4157C70.0251 51.4157 70.4258 51.8166 70.4258 52.3111C70.4258 52.8057 70.0251 53.2067 69.5307 53.2067Z" fill="#9DD3E0"/>
<path d="M73.9363 54.0323H56.8717C56.3377 54.0323 55.9048 53.5994 55.9048 53.0652V48.4197C55.9048 47.8857 56.3377 47.4526 56.8717 47.4526H69.5597L75.219 42.5886L72.4701 47.4526H73.9363C74.4703 47.4526 74.9032 47.8857 74.9032 48.4197V53.0652C74.9032 53.5994 74.4703 54.0323 73.9363 54.0323Z" fill="#1890C4"/>
<path d="M62.1719 50.8588C62.1719 50.3644 61.7714 49.9634 61.277 49.9634C60.7826 49.9634 60.3818 50.3644 60.3818 50.8588C60.3818 51.3534 60.7826 51.7544 61.277 51.7544C61.7714 51.7544 62.1719 51.3534 62.1719 50.8588ZM66.2989 50.8588C66.2989 50.3644 65.8981 49.9634 65.4037 49.9634C64.9096 49.9634 64.5088 50.3644 64.5088 50.8588C64.5088 51.3534 64.9096 51.7544 65.4037 51.7544C65.8981 51.7544 66.2989 51.3534 66.2989 50.8588ZM70.4258 50.8588C70.4258 50.3644 70.0251 49.9634 69.5307 49.9634C69.0363 49.9634 68.6356 50.3644 68.6356 50.8588C68.6356 51.3534 69.0363 51.7544 69.5307 51.7544C70.0251 51.7544 70.4258 51.3534 70.4258 50.8588Z" fill="white"/>
<path d="M111.945 65.2271C111.834 67.9135 111.701 71.2541 111.539 73.938H112.967C113.127 71.2548 113.259 67.915 113.369 65.2294C112.799 65.2283 112.515 65.228 111.945 65.2271Z" fill="#757C7F"/>
<path d="M109.772 65.2233C106.012 65.2171 102.253 65.2104 98.4931 65.2037C98.3711 67.898 98.226 71.2465 98.0513 73.938H111.539C111.701 71.2541 111.834 67.9135 111.946 65.2271C111.076 65.2256 110.641 65.2249 109.772 65.2233ZM134.615 62.7957C135.847 64.0167 135.989 64.2117 137.216 65.4358C138.645 52.4196 139.776 39.3732 141.405 26.3789C141.713 24.221 141 22.0089 139.37 20.6153C137.388 34.674 136.13 48.6824 134.615 62.7957Z" fill="#A5A9A8"/>
<path d="M134.615 62.7957C135.847 64.0167 137.216 65.4358 137.216 65.4358L80.1086 65.3307C80.1086 65.3307 79.0132 64.0533 77.9614 62.7957C96.8461 62.8704 115.731 62.7318 134.615 62.7957Z" fill="#8A9192"/>
<path d="M77.9614 62.7957C96.8461 62.8704 115.731 62.7318 134.615 62.7957C134.88 60.3717 135.006 59.0474 135.253 56.6491C116.396 56.5161 97.5392 56.7951 78.6827 56.6491C78.4505 58.7259 78.2111 60.7208 77.9614 62.7957Z" fill="#DDDAD8"/>
<path d="M83.152 20.6155C81.2013 32.4521 80.008 44.7311 78.6826 56.6493C97.5391 56.7953 116.396 56.5163 135.253 56.6493C136.489 44.5372 137.672 32.6738 139.369 20.6155C120.63 20.6305 101.891 20.5578 83.152 20.6155Z" fill="#1A181B"/>
<path d="M136.833 22.7317C119.57 22.6854 102.307 22.7232 85.0445 22.7071C84.8955 23.6344 84.8228 24.1007 84.6807 25.0388C101.949 25.1286 119.218 25.166 136.486 25.2798C136.621 24.2644 136.69 23.755 136.833 22.7317Z" fill="#C1C0BD"/>
<path d="M85.4355 24.4491C85.5064 23.9866 85.5424 23.7561 85.6152 23.2961C100.372 23.3256 115.129 23.318 129.886 23.3551C129.817 23.8538 129.783 24.1029 129.715 24.6003C114.956 24.5338 100.195 24.5099 85.4355 24.4491Z" fill="white"/>
<path d="M84.6808 25.0389C83.2555 34.7531 82.2298 44.7265 81.1572 54.4844C98.52 54.6398 115.883 54.3395 133.246 54.4844C134.24 44.668 135.217 35.0657 136.486 25.2799C119.218 25.1661 101.949 25.1288 84.6808 25.0389Z" fill="#33344B"/>
<path d="M108.275 26.5672C101.596 26.5279 94.9173 26.4876 88.2386 26.4418C87.5227 30.0966 86.8819 33.7662 86.2695 37.4396C93.1478 37.5402 100.026 37.6353 106.905 37.729C107.324 34.0041 107.768 30.2816 108.275 26.5672Z" fill="#FCCC6A"/>
<path d="M86.2692 37.4396C86.1411 38.2095 86.0777 38.596 85.9512 39.3712C92.8637 39.4732 99.7764 39.5694 106.689 39.6642C106.774 38.8884 106.817 38.5016 106.904 37.729C100.026 37.6353 93.1475 37.5402 86.2692 37.4396Z" fill="#5AAAE2"/>
<path d="M131.873 29.9637C131.53 31.923 129.39 33.2894 127.394 33.3173C125.529 33.3435 123.615 31.7412 123.894 29.8774C124.194 27.8805 126.375 26.4913 128.394 26.5112C130.111 26.5282 132.207 28.0573 131.873 29.9637Z" fill="white"/>
<path d="M129.989 29.3515C129.455 29.3461 129.189 29.3432 128.657 29.3376C128.722 28.8814 128.755 28.6531 128.822 28.1962C128.842 28.0607 128.731 27.9494 128.574 27.9482C128.255 27.9451 128.095 27.9438 127.776 27.9409C127.619 27.9397 127.475 28.0482 127.454 28.1837C127.384 28.6399 127.348 28.8678 127.279 29.3233L125.949 29.3099C125.791 29.3083 125.645 29.4165 125.623 29.5516C125.579 29.8264 125.557 29.9639 125.512 30.2388C125.491 30.3738 125.602 30.4845 125.762 30.4863C126.297 30.4924 126.565 30.4953 127.102 30.5013C127.033 30.9566 127 31.184 126.932 31.6389C126.912 31.7739 127.027 31.8851 127.187 31.8869L128.004 31.8969C128.164 31.8989 128.31 31.7909 128.329 31.6559C128.392 31.2006 128.424 30.9727 128.488 30.517C129.025 30.5232 129.293 30.5261 129.83 30.5324C129.989 30.5344 130.132 30.4259 130.15 30.2904C130.187 30.0145 130.205 29.8765 130.242 29.6003C130.26 29.4646 130.147 29.3532 129.989 29.3515Z" fill="#F03556"/>
<path d="M107.119 59.9409C106.974 60.8392 106.018 61.4785 105.127 61.5002C104.295 61.5201 103.442 60.786 103.561 59.9241C103.688 59.0008 104.65 58.3606 105.55 58.3682C106.315 58.3745 107.261 59.067 107.119 59.9409Z" fill="#757C7F"/>
<path d="M133.454 36.5519C126.754 36.4535 120.055 36.3616 113.355 36.2717C112.744 40.0506 112.17 43.8352 111.596 47.6197C118.487 47.6998 125.378 47.7803 132.269 47.865C132.65 44.0926 133.036 40.3206 133.454 36.5519Z" fill="#FCCC6A"/>
<path d="M111.596 47.6196C111.477 48.405 111.418 48.7983 111.299 49.5863C118.223 49.6599 125.148 49.7341 132.072 49.812C132.151 49.0324 132.19 48.6429 132.269 47.8649C125.378 47.7802 118.487 47.6997 111.596 47.6196Z" fill="#5AAAE2"/>
<path d="M118.608 46.9023C118.727 46.5231 118.858 46.1512 119.005 45.7974C119.108 45.549 119.229 45.3133 119.357 45.0897C119.051 44.9103 118.592 44.5964 118.126 44.1162C117.947 44.43 117.809 44.7627 117.689 45.0948C117.617 45.2965 117.558 45.5051 117.494 45.7113C117.446 45.9224 117.392 46.1324 117.349 46.3442C117.262 46.7672 117.202 47.2017 117.156 47.6376L117.156 47.6843C117.648 47.6901 117.894 47.6928 118.385 47.6986C118.408 47.6114 118.419 47.568 118.442 47.4808C118.508 47.2494 118.541 47.1335 118.608 46.9023Z" fill="#F89E6E"/>
<path d="M118.058 43.8585C118.2 43.6313 118.375 43.4018 118.577 43.2015C118.68 43.0993 118.787 42.9973 118.919 42.9067C118.978 42.8602 119.054 42.8155 119.125 42.7717C119.215 42.7231 119.259 42.6927 119.435 42.6315C119.687 42.5434 120.071 42.6411 120.328 42.8656C120.484 43.0022 120.558 43.1995 120.557 43.3692C120.556 43.5387 120.49 43.6863 120.418 43.8258C120.255 44.1411 120.022 44.3978 119.831 44.6923C119.764 44.776 119.701 44.8656 119.642 44.9607C119.571 45.0736 119.502 45.1897 119.434 45.3075C119.056 45.0861 118.488 44.6977 117.913 44.1044C117.96 44.0217 118.008 43.9383 118.058 43.8585Z" fill="#C6DFDF"/>
<path d="M120.497 42.4834C120.433 42.5141 120.375 42.5514 120.315 42.5865C120.4 44.6385 120.446 45.6673 120.536 47.732C121.535 47.7439 122.036 47.7497 123.036 47.7615C123.003 45.6566 122.986 44.6081 122.957 42.515C122.136 42.1272 121.166 42.1565 120.497 42.4834Z" fill="#1BB3A9"/>
<path d="M118.703 44.607C118.361 45.4804 118.524 46.7318 118.412 47.7072C119.261 47.7173 119.686 47.722 120.535 47.7321C120.445 45.6674 120.4 44.6385 120.315 42.5866C119.551 43.0296 119.023 43.7861 118.703 44.607ZM123.058 42.56C123.025 42.5428 122.99 42.5309 122.957 42.515C122.985 44.6081 123.002 45.6567 123.036 47.7616C124.142 47.7748 124.696 47.7813 125.803 47.7947C125.393 46.1909 124.859 43.5028 123.058 42.56Z" fill="#BBDBD6"/>
<path d="M126.172 47.592C126.148 47.3803 126.114 47.1649 126.085 46.9509C126.043 46.7349 126.004 46.5189 125.952 46.302C125.869 45.9462 125.766 45.5799 125.626 45.2136C125.168 45.4366 124.728 45.5119 124.437 45.5345C124.537 45.7966 124.629 46.0661 124.705 46.3389C124.813 46.7278 124.905 47.1247 124.987 47.5241C125.005 47.6251 125.014 47.6755 125.033 47.7765C125.495 47.7823 125.727 47.785 126.19 47.7906C126.183 47.7242 126.18 47.6585 126.172 47.592Z" fill="#F89E6E"/>
<path d="M125.708 45.0106C125.596 44.7394 125.454 44.452 125.285 44.1765C125.198 44.0361 125.109 43.8952 124.996 43.7523C124.945 43.6828 124.879 43.6074 124.819 43.5352C124.741 43.45 124.704 43.403 124.548 43.2662C124.325 43.0703 123.969 42.9833 123.719 43.0698C123.567 43.1226 123.486 43.2682 123.474 43.4229C123.462 43.5777 123.51 43.7418 123.566 43.901C123.69 44.2626 123.883 44.6025 124.035 44.9576C124.09 45.0643 124.141 45.1747 124.188 45.2881C124.243 45.4227 124.298 45.5598 124.35 45.6982C124.711 45.6701 125.255 45.5766 125.822 45.3009C125.785 45.2045 125.747 45.107 125.708 45.0106Z" fill="#C6DFDF"/>
<path d="M120.82 40.6324C120.787 41.1194 120.77 41.3632 120.737 41.8509C121.114 42.1163 121.556 42.2764 121.972 42.2852C122.244 42.2908 122.501 42.231 122.724 42.1197C122.75 41.7825 122.763 41.6141 122.79 41.2771C122.002 41.0193 121.608 40.8902 120.82 40.6324Z" fill="#F36644"/>
<path d="M120.738 41.8511C120.721 42.093 120.713 42.214 120.697 42.456C120.671 42.8473 120.983 43.2576 121.398 43.3712C121.489 43.3963 121.591 43.4171 121.706 43.4325C122.639 43.5566 122.649 43.0944 122.649 43.0944C122.679 42.7044 122.694 42.5096 122.725 42.1199C122.502 42.2312 122.245 42.2909 121.973 42.2853C121.556 42.2766 121.115 42.1165 120.738 41.8511ZM123.277 40.2305C123.309 40.167 123.33 40.0617 123.33 39.9476C123.33 39.8714 123.321 39.7915 123.3 39.7171L123.293 39.6985C123.278 39.6491 123.256 39.6044 123.229 39.5639C123.199 39.5203 123.165 39.4814 123.119 39.4561C123.095 39.4427 123.069 39.4326 123.042 39.4261L123.013 39.4206L122.977 39.4194C122.931 39.421 122.889 39.4378 122.85 39.4615C122.765 39.5272 122.752 39.6549 122.656 39.7318C122.541 39.8255 122.394 39.8215 122.265 39.6701C122.203 39.5961 122.164 39.5091 122.13 39.4235C121.939 38.9472 121.87 38.48 121.766 38.001C121.477 38.2931 121.051 38.4391 120.601 38.4726C120.416 38.4867 120.225 38.4791 120.033 38.4621C119.955 38.9955 120.004 39.5773 120.116 40.1402C120.214 40.6406 120.416 41.2659 120.921 41.5843C120.969 41.6149 121.021 41.644 121.076 41.6708C122.108 42.1746 122.835 41.6883 123.047 40.8323L123.051 40.8334C122.991 40.7122 122.931 40.5914 122.874 40.4693C123.051 40.4651 123.204 40.3743 123.277 40.2305Z" fill="#F57C5B"/>
<path d="M123.688 37.995C123.597 37.8693 123.472 37.7575 123.335 37.6799C123.158 37.5786 122.962 37.5366 122.803 37.5992C122.686 37.3783 122.434 37.2445 122.2 37.1636C121.591 36.9534 120.966 36.9619 120.411 37.101C119.857 37.2398 119.366 37.5035 118.904 37.7958C118.842 37.8349 118.776 37.8805 118.763 37.9561C118.747 38.0489 118.82 38.1576 118.911 38.2197C119.003 38.2821 119.108 38.3078 119.21 38.3304C119.485 38.3915 119.76 38.4382 120.033 38.4621C120.225 38.4791 120.416 38.4867 120.601 38.4726C121.051 38.4391 121.477 38.2931 121.766 38.001C121.87 38.48 121.939 38.9472 122.13 39.4235C122.164 39.5091 122.202 39.5961 122.265 39.6701C122.393 39.8215 122.54 39.8255 122.656 39.7318C122.75 39.6556 122.765 39.5299 122.848 39.4635L122.867 39.451C122.896 39.4338 122.93 39.4215 122.977 39.4194L123.013 39.4206L123.042 39.4262C123.066 39.4324 123.092 39.4407 123.119 39.4561H123.119C123.164 39.4814 123.199 39.5203 123.228 39.5639C123.256 39.6044 123.278 39.6491 123.293 39.6985L123.3 39.7171C123.321 39.7913 123.33 39.8714 123.33 39.9476C123.33 40.0617 123.309 40.167 123.277 40.2305C123.204 40.3743 123.051 40.4651 122.874 40.4693C122.931 40.5914 122.991 40.7122 123.051 40.8334C123.64 41.0566 123.971 39.8754 123.992 39.5002C124.02 39.0089 124.039 38.4778 123.688 37.995Z" fill="#A44931"/>
<path d="M120.61 42.4325C120.61 42.4325 120.501 45.0551 120.465 46.0923C120.173 45.5862 120.027 45.3331 119.736 44.8273C119.925 44.7434 120.02 44.7014 120.209 44.6175C119.86 44.1562 119.685 43.9256 119.335 43.4647C119.335 43.4647 119.769 42.4037 120.697 42.4558M122.957 42.515C122.957 42.515 123.023 45.1741 123.012 46.2162C123.324 45.8514 123.48 45.6694 123.792 45.3051C123.608 45.1341 123.517 45.0484 123.333 44.8776C123.702 44.5846 123.886 44.4384 124.254 44.1459C124.254 44.1459 123.877 42.8961 122.957 42.515Z" fill="#D6EDE9"/>
<path d="M121.717 40.775C121.725 40.7616 121.725 40.7401 121.712 40.7061C121.675 40.6001 121.573 40.5019 121.471 40.4496C121.331 40.3776 121.163 40.3845 121.076 40.4796C120.988 40.3559 120.811 40.3172 120.693 40.366C120.642 40.3872 120.599 40.4212 120.565 40.4624C120.541 40.4903 120.492 40.5592 120.51 40.6059C120.535 40.6688 120.697 40.675 120.744 40.6808C120.849 40.6936 120.954 40.7063 121.06 40.7193C121.227 40.7397 121.395 40.7602 121.563 40.7806C121.621 40.7877 121.697 40.8108 121.717 40.775Z" fill="#A44931"/>
<path d="M91.0165 30.9843C91.1236 30.8164 91.1412 30.5968 91.1529 30.3868C91.1622 30.2106 91.0968 30.0487 91.0277 29.8743C90.9512 29.6812 90.865 29.4922 90.7693 29.3078C90.7376 29.2461 90.7036 29.1839 90.6549 29.1314C90.5814 29.0527 90.481 29.0844 90.4533 29.1658C90.4406 29.2045 90.4468 29.2497 90.4551 29.2933C90.4734 29.3903 90.4989 29.4899 90.5367 29.5853C90.5449 29.6064 90.6095 29.8186 90.5856 29.8143C90.0986 29.7287 89.6317 29.4981 89.1418 29.4548C89.0861 29.4498 89.0294 29.4449 88.9775 29.4552C88.8155 29.4872 88.7062 29.6066 88.7828 29.7799C88.8412 29.9123 88.9784 30.0163 89.1027 30.0934C89.3552 30.2502 89.6491 30.3828 89.9249 30.4671C89.9763 30.4829 90.0284 30.4968 90.0803 30.5084L90.1236 30.5248L90.1542 30.5706C90.1972 30.6706 90.2301 30.7745 90.2526 30.881C90.2526 30.881 90.884 31.1918 91.0165 30.9843Z" fill="#F57C5B"/>
<path d="M95.6285 32.6164C95.61 32.605 95.5901 32.5938 95.5689 32.5833C95.4225 32.5102 95.2642 32.4865 95.1116 32.476C94.3604 32.4232 93.6653 32.7235 93.054 33.0095C92.407 33.3123 91.8071 33.6831 91.1759 34.0093C91.1784 33.6632 91.1813 33.3179 91.1844 32.9731C91.1869 32.6821 91.1817 32.0502 91.1851 31.7604C91.1869 31.5763 91.1741 31.393 91.1609 31.2092C91.1524 31.0877 91.144 30.9663 91.1399 30.844C90.785 30.7599 90.4305 30.6758 90.0756 30.5918C90.049 30.7212 90.0291 30.8527 90.0099 30.9849C89.9328 31.5124 89.9057 32.0574 89.8968 32.6043C89.8865 33.2387 89.8295 33.9416 90.0745 34.5983C90.1737 34.8653 90.3358 35.1429 90.5935 35.2976C91.0027 35.5436 91.5805 35.3439 91.9416 35.2381C92.3902 35.1066 92.8073 34.9165 93.219 34.7216C93.3202 34.6735 93.4197 34.6212 93.5184 34.5679C93.1995 35.4195 93.3296 36.6055 93.2096 37.5398C94.0582 37.5519 94.4824 37.5579 95.3306 37.5698C95.2803 35.9975 95.2569 35.216 95.2155 33.6623C95.5385 33.4659 96.1953 32.9682 95.6285 32.6164Z" fill="#15B09A"/>
<path d="M95.3695 32.417C95.3058 32.4474 95.2466 32.4836 95.186 32.5178C95.2357 34.5226 95.2654 35.5333 95.3306 37.5699C96.3293 37.5837 96.8286 37.5909 97.8265 37.6047C97.818 35.5257 97.8164 34.4937 97.8245 32.4449C97.0125 32.0664 96.0441 32.0968 95.3695 32.417Z" fill="#FEEDCF"/>
<path d="M97.9245 32.4889C97.8919 32.4721 97.8575 32.4605 97.8246 32.445C97.8166 34.4938 97.8181 35.5258 97.8266 37.6048C98.9307 37.6203 99.4828 37.6279 100.586 37.6428C100.197 36.0556 99.7056 33.4093 97.9245 32.4889Z" fill="#15B09A"/>
<path d="M95.8768 30.8339C95.8411 31.2318 95.8232 31.431 95.7881 31.8299C96.0992 32.0464 96.4662 32.1768 96.8144 32.1837C97.0419 32.188 97.2574 32.1385 97.4451 32.0471C97.4722 31.7707 97.4858 31.6327 97.5131 31.357C96.8584 31.1475 96.5312 31.0428 95.8768 30.8339Z" fill="#F36644"/>
<path d="M98.0965 30.3455C98.1783 30.1939 98.1904 29.7762 97.9665 29.6539C97.7363 29.528 97.6091 29.7742 97.4797 29.8744C97.4614 29.8885 97.4408 29.9014 97.4158 29.9043C97.3565 29.9108 97.2926 29.856 97.2682 29.7979C97.2441 29.7395 97.2486 29.6796 97.2519 29.6219C97.2716 29.2764 97.334 28.9334 97.1536 28.5964C96.6237 27.6078 95.2549 28.3994 95.2549 28.3994C95.0616 28.9676 95.0878 29.634 95.2046 30.2737C95.2858 30.7201 95.4597 31.2782 95.916 31.562C95.9601 31.5893 96.007 31.6152 96.0569 31.6392C96.9936 32.0884 97.6663 31.6512 97.8751 30.8842L97.8789 30.8853C97.8263 30.7771 97.7734 30.6691 97.724 30.5602C97.8853 30.556 98.0273 30.4741 98.0965 30.3455Z" fill="#F57C5B"/>
<path d="M98.2094 28.0464C97.8994 27.7005 97.5015 27.5328 97.0762 27.4411C97.0058 27.4259 96.2443 27.4442 96.2443 27.4442C96.2443 27.4442 96.055 27.0292 95.8532 26.9585C95.6907 26.9017 95.5343 26.9905 95.4565 27.1137C95.3901 27.219 95.3686 27.3715 95.4618 27.4874C95.21 27.4004 94.9619 27.2877 94.7057 27.2944C94.6503 27.2957 94.594 27.3029 94.554 27.3328C94.4876 27.382 94.4822 27.4829 94.518 27.569C94.5533 27.6553 94.6219 27.7302 94.6901 27.8007C94.7352 27.8472 95.2596 28.3852 95.2549 28.3995C95.2549 28.3995 96.6236 27.6079 97.1535 28.5965C97.3339 28.9335 97.2715 29.2765 97.2519 29.622C97.2485 29.6797 97.2441 29.7397 97.2682 29.798C97.2926 29.8562 97.3565 29.911 97.4157 29.9045C97.4407 29.9016 97.4613 29.8886 97.4796 29.8745C97.609 29.7743 97.7362 29.5281 97.9664 29.654C98.1904 29.7763 98.1783 30.1941 98.0965 30.3457C98.0272 30.4743 97.8853 30.5561 97.7239 30.5603C97.7733 30.6692 97.8263 30.7773 97.8788 30.8855C98.4143 31.0838 98.7377 30.0257 98.7643 29.69C98.8077 29.1446 98.6329 28.5183 98.2094 28.0464Z" fill="#6A4C4F"/>
<path d="M95.6243 32.3143C95.6243 32.3143 95.332 34.9347 95.2808 35.9546C94.9965 35.4562 94.8548 35.2075 94.5716 34.7115C94.7621 34.6292 94.8573 34.5878 95.0477 34.5058C94.6635 34.0565 94.472 33.8325 94.0889 33.385C94.0889 33.385 94.6986 32.2649 95.6243 32.3143ZM97.5167 32.3219C97.5167 32.3219 97.7342 35.0968 97.8223 36.1827C98.1682 35.7086 98.3412 35.472 98.6877 34.9993C98.489 34.8533 98.39 34.7804 98.1913 34.6346C98.5048 34.2884 98.6615 34.1156 98.9751 33.7698C98.9751 33.7698 98.4487 32.5712 97.5167 32.3219Z" fill="#1AB2A2"/>
<path d="M96.8143 32.1837C96.4661 32.1768 96.0991 32.0464 95.788 31.83L95.7858 31.8566C95.7838 31.8796 95.7815 31.9026 95.7795 31.9257C95.7719 32.014 95.7641 32.1023 95.7565 32.1907C95.7482 32.2852 95.7342 32.3787 95.7496 32.478C95.7601 32.5451 95.7748 32.6124 95.7927 32.6793C95.8184 32.7754 95.8513 32.8714 95.8928 32.9655C95.9402 33.0724 95.9992 33.1773 96.0723 33.2741C96.1499 33.377 96.244 33.4702 96.3521 33.5435C96.3521 33.5435 97.1085 33.4485 97.3262 32.9192C97.3595 32.8548 97.372 32.7828 97.3811 32.7001L97.3854 32.6643C97.399 32.5205 97.4131 32.3769 97.427 32.2331C97.4314 32.1884 97.4357 32.1435 97.4402 32.0985L97.4451 32.0471C97.2573 32.1386 97.0419 32.188 96.8143 32.1837Z" fill="#F57C5B"/>
<path d="M119.559 31.2984C112.878 31.2239 106.197 31.1528 99.5157 31.0799C98.8568 34.8148 98.2558 38.5593 97.6626 42.3052C104.541 42.3984 111.419 42.4894 118.297 42.5818C118.693 38.8181 119.102 35.0552 119.559 31.2984Z" fill="#FEEDCF"/>
<path d="M97.6625 42.3053C97.5398 43.0859 97.479 43.4773 97.3569 44.2617C104.269 44.3519 111.181 44.44 118.094 44.529C118.174 43.7492 118.215 43.3599 118.297 42.5819C111.419 42.4896 104.541 42.3985 97.6625 42.3053Z" fill="#5AAAE2"/>
<path d="M105.332 41.6539C105.447 41.2954 105.573 40.9448 105.714 40.6109C105.813 40.3766 105.928 40.1543 106.052 39.9432C105.762 39.7737 105.329 39.477 104.892 39.0246C104.72 39.3198 104.586 39.6335 104.472 39.9466C104.402 40.1369 104.344 40.3336 104.283 40.528C104.236 40.7272 104.184 40.9253 104.141 41.1248C104.057 41.5242 103.999 41.9343 103.953 42.3458V42.39C104.418 42.3961 104.651 42.3994 105.117 42.4055C105.139 42.3232 105.15 42.282 105.172 42.2C105.236 41.9813 105.267 41.8721 105.332 41.6539Z" fill="#F89E6E"/>
<path d="M104.828 38.7815C104.964 38.5675 105.131 38.3513 105.323 38.1625C105.422 38.0664 105.524 37.9705 105.65 37.885C105.706 37.8412 105.778 37.7992 105.846 37.7578C105.931 37.7122 105.973 37.6838 106.14 37.6259C106.38 37.5429 106.743 37.6348 106.984 37.8463C107.132 37.9754 107.2 38.1612 107.197 38.3211C107.195 38.4812 107.132 38.6205 107.063 38.7518C106.907 39.0492 106.685 39.2914 106.502 39.5691C106.438 39.6478 106.377 39.7326 106.321 39.8218C106.253 39.9285 106.188 40.038 106.123 40.1494C105.765 39.9399 105.23 39.5729 104.688 39.0132C104.734 38.9354 104.78 38.8569 104.828 38.7815Z" fill="#1890C4"/>
<path d="M110.805 34.4357C110.974 35.3629 110.947 36.3255 110.737 37.1686C110.732 37.1907 110.726 37.2138 110.708 37.2272L110.666 37.2433C110.007 37.3956 109.374 37.491 108.655 37.4166C108.418 37.392 108.179 37.364 107.94 37.3148C107.714 37.2683 107.493 37.1681 107.27 37.1203C107.061 37.0753 106.864 37.0311 106.655 36.9515C106.596 36.9293 106.039 36.7108 106.042 36.6657C106.104 35.7983 106.216 34.9454 106.253 34.0755C106.275 33.5746 106.321 33.1229 106.605 32.7347C106.747 32.5395 106.933 32.3749 107.162 32.2751C107.473 32.1396 108.001 32.0734 108.314 32.4046C108.29 32.3802 108.856 32.3216 108.896 32.3243C109.154 32.3422 109.419 32.3827 109.67 32.5073C110.391 32.8662 110.636 33.6291 110.778 34.2966C110.788 34.3429 110.797 34.3892 110.805 34.4357Z" fill="#FCCC6A"/>
<path d="M109.459 37.5998C109.428 37.5834 109.396 37.5725 109.365 37.5575C108.6 37.1957 107.693 37.2232 107.064 37.5282C107.005 37.557 106.95 37.5917 106.894 37.6241C106.176 38.0374 105.678 38.7429 105.373 39.509C105.049 40.3239 105.194 41.4932 105.085 42.4051C105.88 42.4158 106.278 42.421 107.072 42.4317C108.008 42.4442 108.475 42.4503 109.411 42.463C110.445 42.4767 110.963 42.4836 111.998 42.4975C111.622 40.9943 111.137 38.4795 109.459 37.5998Z" fill="#1C7AAA"/>
<path d="M107.39 35.8026C107.368 36.2565 107.358 36.4837 107.336 36.9388C107.655 37.1857 108.028 37.3344 108.376 37.342C108.604 37.3471 108.818 37.2905 109.003 37.1863C109.021 36.8717 109.029 36.7145 109.047 36.4001C108.384 36.1608 108.053 36.0414 107.39 35.8026Z" fill="#F68B4D"/>
<path d="M107.336 36.939C107.325 37.1852 107.265 37.4376 107.345 37.691C107.47 38.0888 107.654 38.4813 107.887 38.8511C107.897 38.867 108.457 38.5701 108.506 38.5396C108.665 38.4408 108.784 38.3006 108.863 38.1311C108.945 37.956 108.969 37.8097 108.98 37.6076C108.988 37.4716 108.995 37.3359 109.003 37.2004L109.003 37.1865C108.818 37.2907 108.604 37.3473 108.376 37.3422C108.028 37.3346 107.655 37.1859 107.336 36.939ZM106.908 34.9054C106.929 35.4007 107.052 35.915 107.309 36.3652C107.599 36.8728 108.413 37.081 108.848 36.8911C109.063 36.7972 109.224 36.6087 109.341 36.415C109.403 36.3115 109.455 36.1995 109.486 36.0785C109.51 35.9846 109.573 35.8759 109.535 35.7679C109.669 35.9246 109.824 35.8813 109.924 35.7755C110.018 35.6751 110.034 35.4906 110.035 35.345C110.036 35.2893 110.032 35.2319 110.013 35.1751C109.953 34.9912 109.813 34.8651 109.635 34.9329C109.38 35.0304 109.461 35.2656 109.345 35.4687C109.321 35.51 109.276 35.5487 109.224 35.5264C109.171 35.5038 109.153 35.4385 109.145 35.3859C109.134 35.3144 109.123 35.2433 109.112 35.1717C109.106 35.1328 109.1 35.0934 109.084 35.055C109.03 34.9215 108.899 34.8153 108.81 34.7003C108.702 34.5601 108.608 34.4081 108.519 34.2587C108.465 34.1672 108.018 33.4047 108.087 33.3537C107.847 33.5319 107.595 33.7175 107.28 33.7754C107.24 33.7826 107.039 33.7956 107.028 33.8356C106.937 34.1565 106.893 34.5255 106.908 34.9054ZM112.212 42.298C112.188 42.082 112.155 41.8624 112.127 41.6446C112.084 41.4241 112.046 41.2041 111.995 40.9829C111.911 40.6206 111.809 40.2476 111.669 39.8742C111.199 40.1007 110.749 40.1772 110.45 40.2002C110.551 40.4668 110.644 40.7414 110.72 41.0194C110.828 41.4154 110.92 41.8201 111.001 42.2271C111.019 42.3302 111.028 42.3816 111.046 42.4845C111.519 42.491 111.756 42.4941 112.229 42.5006C112.222 42.4329 112.219 42.3658 112.212 42.298Z" fill="#F89E6E"/>
<path d="M111.753 39.6675C111.641 39.3911 111.498 39.0986 111.328 38.8186C111.241 38.6755 111.15 38.5324 111.036 38.3871C110.984 38.3162 110.918 38.2397 110.856 38.1661C110.777 38.0796 110.74 38.0317 110.582 37.8924C110.355 37.6936 109.992 37.6053 109.736 37.6934C109.58 37.7468 109.496 37.8946 109.483 38.0519C109.469 38.2091 109.517 38.3757 109.573 38.538C109.697 38.9054 109.892 39.2509 110.045 39.6125C110.1 39.7209 110.151 39.8332 110.198 39.9488C110.254 40.0859 110.309 40.2254 110.362 40.3661C110.73 40.3379 111.287 40.2433 111.869 39.9629C111.831 39.8647 111.793 39.7654 111.753 39.6675Z" fill="#1890C4"/>
<path d="M88.1391 50.2178C88.7472 51.025 88.5382 52.1429 87.6713 52.7154C86.8043 53.288 85.6083 53.0957 85.0009 52.2844C84.3931 51.4732 84.603 50.3537 85.4695 49.7853C86.3361 49.2168 87.5309 49.4107 88.1391 50.2178Z" fill="#54BF3D"/>
<path d="M87.1838 51.0108C87.201 50.8708 87.2095 50.801 87.2269 50.661C86.8279 50.6566 86.0667 50.6485 85.6677 50.6443C85.594 51.1195 85.5569 51.3576 85.4829 51.8342C85.8971 51.8386 86.6666 51.8462 87.0807 51.8505C87.0979 51.7103 87.1067 51.6403 87.1239 51.5001C87.2837 51.6421 87.3648 51.713 87.5286 51.8549C87.5805 51.3789 87.6064 51.1407 87.6578 50.6655C87.4701 50.8037 87.3755 50.8728 87.1838 51.0108Z" fill="white"/>
<path d="M100.726 50.3516C101.335 51.1528 101.13 52.2627 100.266 52.8318C99.4026 53.4007 98.2087 53.2104 97.6003 52.4055C96.9919 51.6005 97.1987 50.4887 98.0614 49.9236C98.9245 49.3583 100.117 49.5504 100.726 50.3516Z" fill="#5AAAE2"/>
<path d="M99.1487 51.6746C99.3934 51.677 99.5926 51.5194 99.591 51.3244L99.5865 50.7228C99.5852 50.5281 99.3905 50.3668 99.1541 50.3646C98.9176 50.3619 98.7218 50.5191 98.7189 50.7141C98.7151 50.9545 98.7131 51.0748 98.7095 51.3157C98.7064 51.5106 98.9042 51.6723 99.1487 51.6746Z" fill="white"/>
<path d="M99.2132 51.9348C99.5789 51.9115 99.8632 51.6727 99.8587 51.3769L99.8554 51.1468C99.8551 51.1181 99.8259 51.0942 99.7903 51.0938C99.7546 51.0935 99.7259 51.1168 99.7262 51.1454C99.7273 51.2376 99.7277 51.2834 99.7286 51.3755C99.7315 51.632 99.4712 51.8382 99.1477 51.8351C98.825 51.8319 98.5664 51.6206 98.5711 51.3641C98.5729 51.272 98.5738 51.2259 98.5758 51.134C98.5763 51.1052 98.5476 51.0815 98.5121 51.0812C98.4768 51.0808 98.4471 51.1038 98.4464 51.1327C98.4444 51.2248 98.4433 51.2706 98.441 51.363C98.4345 51.6591 98.7166 51.9033 99.0816 51.9337C99.0809 52.0542 99.0805 52.1146 99.0796 52.2351L99.08 52.236C98.9258 52.2347 98.8492 52.2338 98.6949 52.2324C98.6583 52.232 98.6279 52.2555 98.6274 52.2843C98.6268 52.3129 98.6565 52.3366 98.6931 52.3371C99.0552 52.3404 99.2363 52.342 99.5981 52.3454C99.6348 52.3458 99.6647 52.3228 99.6645 52.2939C99.6643 52.2651 99.6341 52.2412 99.5974 52.2407C99.4434 52.2396 99.3663 52.2389 99.2121 52.2374L99.2128 52.2365C99.2128 52.1159 99.213 52.0556 99.2132 51.9348Z" fill="white"/>
<path d="M94.4353 50.286C95.0439 51.0901 94.8365 52.204 93.9713 52.7749C93.1062 53.3458 91.9118 53.1543 91.3038 52.3464C90.6959 51.5385 90.9044 50.4228 91.7689 49.856C92.6335 49.2891 93.827 49.4818 94.4353 50.286Z" fill="#F03556"/>
<path d="M93.608 51.4928C93.503 51.4414 93.4503 51.4156 93.345 51.3642C93.2587 51.3222 93.1695 51.3562 93.1505 51.4382C93.1322 51.5172 93.1231 51.5565 93.1047 51.635C92.9621 51.5907 92.7838 51.5049 92.5828 51.3318C92.4154 51.1873 92.3189 51.0469 92.2614 50.9275C92.3377 50.891 92.3756 50.8727 92.4519 50.836C92.5254 50.8007 92.5402 50.7027 92.4843 50.6225C92.4159 50.5243 92.3817 50.4751 92.3133 50.3767C92.2597 50.2998 92.1618 50.2687 92.0945 50.3076C92.0527 50.332 92.0111 50.3564 91.9691 50.3805C91.9023 50.4196 91.8491 50.4599 91.8205 50.5361C91.8004 50.5891 91.8068 50.6433 91.8196 50.7052C91.8898 51.0426 92.0835 51.3687 92.3636 51.6104C92.7923 51.9801 93.1677 52.0644 93.3901 52.0753C93.516 52.0814 93.6179 52.0143 93.6534 51.9011C93.678 51.8222 93.6903 51.7831 93.7149 51.7041C93.7386 51.6279 93.6907 51.533 93.608 51.4928Z" fill="white"/>
<path d="M120.292 72.8153H83.502V73.9214H120.292V72.8153Z" fill="#DDDAD8"/>
<path d="M87.269 72.1667H84.3887V72.8154H87.269V72.1667ZM90.8417 72.1667H87.9616V72.8154H90.8417V72.1667ZM105.303 72.1667H91.5345V72.8154H105.303V72.1667ZM108.706 72.1667H105.826V72.8154H108.706V72.1667ZM112.279 72.1667H109.399V72.8154H112.279V72.1667ZM115.852 72.1667H112.972V72.8154H115.852V72.1667ZM119.425 72.1667H116.544V72.8154H119.425V72.1667ZM122.592 72.1667H120.118V72.8154H122.592V72.1667ZM125.661 72.1667H123.187V72.8154H125.661V72.1667Z" fill="#272633"/>
<path d="M126.13 73.9214H120.292V72.8153H126.13V73.9214Z" fill="#A5A9A8"/>
<path d="M135.77 71.358H133.427C132.069 71.358 130.968 72.4595 130.968 73.8187V73.9214H138.229V73.8187C138.229 72.4595 137.128 71.358 135.77 71.358Z" fill="#757C7F"/>
<path d="M155.278 73.9381H56.5487C55.5977 73.9381 54.8267 74.699 54.8267 75.6376H157C157 74.699 156.229 73.9381 155.278 73.9381Z" fill="#5AAAE2"/>
<path d="M142.975 75.6378H54.8267C54.8267 76.5765 55.5977 77.3375 56.5487 77.3375H155.278C156.229 77.3375 157 76.5765 157 75.6378H142.975Z" fill="#4386BB"/>
<path d="M66.0608 37.9948C61.3779 37.9948 57.1618 35.1627 55.3514 30.903L49.9429 29.457L54.4203 26.49C54.336 20.7967 58.4333 15.7527 64.218 14.8189C64.8366 14.7189 65.4621 14.6685 66.0887 14.6684C71.7083 14.6684 76.6573 18.7448 77.5812 24.4739C78.6067 30.8323 74.2861 36.8184 67.9313 37.8441C67.3026 37.9456 66.6776 37.9948 66.0608 37.9948Z" fill="#9DD3E0"/>
<path d="M64.218 13.6233C58.4333 14.5572 54.336 19.6011 54.4203 25.2943L49.9429 28.2612L55.3514 29.7072C57.4003 34.5279 62.5306 37.5204 67.9313 36.6485C74.2861 35.6226 78.6067 29.6365 77.5812 23.2783C76.5558 16.9202 70.5729 12.5974 64.218 13.6233Z" fill="white"/>
<path d="M72.0751 23.3969C72.0751 21.5129 70.5485 19.9858 68.6658 19.9858C67.5715 19.9858 66.6001 20.5037 65.9763 21.3056C65.3526 20.5037 64.3812 19.9858 63.2869 19.9858C61.4039 19.9858 59.8776 21.5129 59.8776 23.3969C59.8776 23.3969 59.3452 26.4358 64.5571 31.1151C65.3753 31.8499 66.6106 31.8664 67.4419 31.1462C69.3054 29.5307 72.2626 26.4638 72.0751 23.3969Z" fill="#F03556"/>
<path d="M61.7849 26.1481H64.1239C64.1478 26.1482 64.1711 26.1401 64.1899 26.1251C64.2086 26.1101 64.2217 26.0892 64.2269 26.0658L64.5327 24.723L65.1397 27.2935C65.1513 27.3422 65.1953 27.3762 65.2454 27.3747C65.2697 27.374 65.293 27.365 65.3115 27.3492C65.3299 27.3333 65.3424 27.3116 65.3467 27.2877L65.9743 23.7715L66.6132 27.2879C66.6222 27.3375 66.6649 27.374 66.7154 27.3749C66.7398 27.3752 66.7636 27.3671 66.7828 27.3519C66.8019 27.3367 66.8152 27.3154 66.8204 27.2915L67.3859 24.6894L67.7334 26.0683C67.7453 26.1152 67.7873 26.1481 67.8358 26.1481H70.0221C70.0804 26.1481 70.1278 26.1007 70.1278 26.0423C70.1278 25.984 70.0804 25.9366 70.0221 25.9366H67.9181L67.4807 24.201C67.4748 24.178 67.4613 24.1575 67.4424 24.143C67.4235 24.1286 67.4003 24.1209 67.3765 24.1212C67.3527 24.1216 67.3296 24.1301 67.3112 24.1452C67.2928 24.1603 67.28 24.1813 67.275 24.2046L66.7263 26.7291L66.0773 23.1565C66.0728 23.1322 66.0599 23.1102 66.0409 23.0943C66.0218 23.0785 65.9979 23.0698 65.9731 23.0698C65.9222 23.0698 65.8784 23.1067 65.8694 23.157L65.2282 26.7485L64.6335 24.231C64.628 24.2078 64.6148 24.187 64.596 24.1723C64.5773 24.1575 64.5541 24.1495 64.5302 24.1496C64.5063 24.1498 64.4832 24.158 64.4646 24.1729C64.446 24.1879 64.433 24.2086 64.4276 24.2319L64.0396 25.9366H61.7849C61.7266 25.9366 61.6792 25.984 61.6792 26.0423C61.6792 26.1007 61.7266 26.1481 61.7849 26.1481Z" fill="white"/>
<path d="M21.9989 92.8979C21.996 92.5224 21.9929 92.1468 21.9862 91.7713C21.9839 91.645 21.9797 91.5191 21.9768 91.3929C21.9688 91.0166 21.961 90.6402 21.9491 90.264C21.9451 90.1375 21.9391 90.0109 21.9349 89.8844C21.9219 89.5089 21.909 89.1331 21.8923 88.7576C21.8865 88.6277 21.8787 88.4977 21.8724 88.3678C21.8546 87.9959 21.837 87.6242 21.8156 87.2523C21.808 87.1215 21.7984 86.9909 21.7904 86.86C21.7678 86.489 21.7453 86.118 21.7192 85.7475C21.7107 85.6296 21.7007 85.5119 21.6918 85.394C21.6637 85.0107 21.6351 84.6271 21.603 84.244C21.5936 84.1324 21.5823 84.021 21.5727 83.9093C21.5388 83.5208 21.5049 83.132 21.4672 82.7435C21.4551 82.6217 21.4415 82.5002 21.4293 82.3786C21.3914 82.0004 21.3532 81.6221 21.3115 81.2443C21.2986 81.1264 21.2836 81.0092 21.2703 80.8912C21.227 80.51 21.1837 80.1284 21.1367 79.7476C21.1222 79.6308 21.1059 79.5145 21.0912 79.3979C21.0428 79.0163 20.9941 78.6347 20.942 78.2535C20.9257 78.1353 20.9076 78.0169 20.8911 77.8988C20.838 77.5199 20.7849 77.1409 20.7281 76.7626C20.7096 76.6393 20.689 76.5162 20.6701 76.3928C20.6128 76.0197 20.5554 75.6465 20.4943 75.2742C20.476 75.1623 20.456 75.051 20.4375 74.9391C20.3735 74.5557 20.3094 74.1727 20.2416 73.7902C20.2182 73.6569 20.1924 73.524 20.1683 73.3909C20.1031 73.0303 20.0382 72.6697 19.9698 72.31C19.9406 72.157 19.9091 72.0049 19.8794 71.8518C19.8132 71.5121 19.7474 71.1723 19.6783 70.8333C19.6466 70.6784 19.6127 70.5245 19.5806 70.3699C19.5103 70.0333 19.4407 69.6965 19.3676 69.3608C19.3346 69.2096 19.2994 69.0588 19.2659 68.9079C19.1907 68.569 19.1158 68.2301 19.0375 67.892C19.0045 67.7491 18.9693 67.607 18.9358 67.4644C18.8544 67.1194 18.7734 66.7738 18.6889 66.4297C18.6477 66.2617 18.6039 66.0945 18.562 65.9267C18.4822 65.608 18.4032 65.2893 18.3207 64.971C18.2781 64.8067 18.2328 64.6426 18.1893 64.4785C18.1048 64.1582 18.021 63.8379 17.9335 63.5183C17.8867 63.3474 17.8374 63.1769 17.7899 63.006C17.7031 62.6943 17.617 62.3824 17.5276 62.0716C17.4768 61.8948 17.4232 61.7187 17.3715 61.5422C17.2823 61.2379 17.1942 60.9333 17.1025 60.63C17.0546 60.4717 17.0046 60.3144 16.9562 60.1566C16.8576 59.8359 16.7597 59.5147 16.6585 59.1948C16.6012 59.0133 16.5409 58.8327 16.4827 58.6514C16.3875 58.3566 16.2936 58.0612 16.1961 57.7672C16.1125 57.5148 16.0257 57.2636 15.9403 57.0116C15.8649 56.7898 15.7913 56.5673 15.7146 56.3459C15.6234 56.082 15.5286 55.8192 15.4354 55.5559C15.3616 55.3477 15.2893 55.1385 15.2142 54.9307C15.1283 54.6926 15.0392 54.4556 14.9516 54.2181C14.8661 53.9864 14.7821 53.7541 14.6952 53.5228C14.5986 53.2663 14.4989 53.0112 14.4006 52.7557C14.3194 52.5449 14.24 52.3335 14.1577 52.1234C14.0561 51.864 13.9512 51.6058 13.8476 51.3473C13.7653 51.1419 13.6847 50.936 13.6014 50.7309C13.2245 49.8058 12.8351 48.8861 12.4334 47.9718C9.97409 42.3749 7.01209 36.809 6.52168 30.6749C6.44703 29.7419 6.4316 28.7968 6.58841 27.8751C6.63895 27.5779 6.7123 27.2863 6.79995 27C5.76931 27.4638 4.80523 28.0759 4.1359 28.9517C2.018 31.7227 1.64704 34.7851 2.27823 38.1253C3.3261 43.6694 6.11336 48.7471 8.36715 53.9538C12.1382 62.6656 14.4538 71.9014 15.738 81.2332C16.0599 83.5724 16.3166 85.9198 16.5166 88.2713C16.6284 89.5847 16.3306 91.7202 16.9928 93H22C21.9998 92.966 21.9991 92.9321 21.9989 92.8979Z" fill="#272633"/>
<path d="M6.70649 31.0497C7.19795 37.1095 10.1662 42.6081 12.6308 48.1373C13.0334 49.0405 13.4235 49.9492 13.8012 50.863C13.8848 51.0656 13.9655 51.2691 14.048 51.4719C14.1518 51.7273 14.257 51.9825 14.3588 52.2387C14.4413 52.4463 14.5208 52.6551 14.6022 52.8633C14.7007 53.1158 14.8006 53.3678 14.8974 53.6212C14.9845 53.8497 15.0686 54.0791 15.1544 54.3081C15.2421 54.5427 15.3314 54.7768 15.4175 55.0121C15.4928 55.2173 15.5652 55.424 15.6392 55.6297C15.7326 55.8898 15.8276 56.1494 15.919 56.4101C15.9959 56.6288 16.0696 56.8486 16.1452 57.0678C16.2308 57.3167 16.3177 57.5649 16.4015 57.8142C16.499 58.1047 16.5933 58.3965 16.6887 58.6877C16.7471 58.8668 16.8074 59.0453 16.8649 59.2246C16.9665 59.5406 17.0644 59.8579 17.1632 60.1748C17.2117 60.3306 17.2618 60.486 17.3098 60.6424C17.4017 60.942 17.49 61.243 17.5794 61.5435C17.6312 61.718 17.6849 61.8919 17.7358 62.0666C17.8255 62.3736 17.9117 62.6818 17.9987 62.9897C18.0463 63.1585 18.0957 63.3269 18.1426 63.4957C18.2302 63.8115 18.3143 64.1279 18.399 64.4443C18.4426 64.6065 18.4879 64.7686 18.5306 64.9309C18.6133 65.2453 18.6924 65.5602 18.7724 65.875C18.8145 66.0407 18.8583 66.206 18.8996 66.3719C18.9843 66.7118 19.0655 67.0533 19.147 67.3941C19.1806 67.535 19.2159 67.6754 19.249 67.8165C19.3274 68.1506 19.4025 68.4853 19.4778 68.8201C19.5114 68.9693 19.5469 69.1182 19.5797 69.2676C19.6531 69.5992 19.7228 69.9319 19.7932 70.2645C19.8254 70.4172 19.8593 70.5693 19.8911 70.7222C19.9604 71.0572 20.0263 71.3928 20.0927 71.7285C20.1224 71.8797 20.1539 72.0299 20.1832 72.1811C20.2518 72.5365 20.3169 72.8927 20.3821 73.2489C20.4063 73.3804 20.432 73.5117 20.4557 73.6434C20.5236 74.0213 20.5877 74.3996 20.6519 74.7784C20.6704 74.8889 20.6906 74.9989 20.7089 75.1094C20.7701 75.4773 20.8276 75.846 20.885 76.2145C20.904 76.3364 20.9246 76.458 20.9431 76.5799C21.0001 76.9536 21.0533 77.3279 21.1065 77.7023C21.123 77.8189 21.1411 77.9357 21.1575 78.0527C21.2098 78.4293 21.2585 78.8063 21.307 79.1833C21.3217 79.2984 21.338 79.4134 21.3526 79.5288C21.3997 79.9049 21.4431 80.2819 21.4864 80.6585C21.4999 80.775 21.5148 80.8909 21.5278 81.0074C21.5696 81.3805 21.6078 81.7542 21.6458 82.1279C21.6581 82.248 21.6717 82.368 21.6838 82.4884C21.7216 82.8721 21.7555 83.2563 21.7895 83.6401C21.7991 83.7505 21.8105 83.8605 21.8199 83.9708C21.8521 84.3492 21.8807 84.7282 21.9089 85.1068C21.9178 85.2233 21.9279 85.3396 21.9364 85.456C21.9625 85.8221 21.9851 86.1886 22.0077 86.5551C22.0157 86.6844 22.0253 86.8134 22.0329 86.9426C22.0544 87.31 22.072 87.6773 22.0899 88.0447C22.0962 88.173 22.104 88.3014 22.1098 88.4297C22.1266 88.8007 22.1395 89.1719 22.1525 89.5429C22.1567 89.6679 22.1628 89.7929 22.1668 89.9179C22.1786 90.2898 22.1865 90.6614 22.1945 91.0331C22.1974 91.1578 22.2017 91.2822 22.2039 91.407C22.2106 91.778 22.2137 92.1489 22.2166 92.5199C22.2169 92.5537 22.2175 92.5873 22.2177 92.6208H38.769C40.9638 91.9616 43.1331 91.2116 45.2938 90.4622C46.3927 90.0812 47.5219 89.6835 48.3877 88.9411C50.1011 87.4733 50.3742 85.0629 50.4307 82.8831C50.6147 75.7847 49.6939 68.707 48.7748 61.6596L46.9879 47.9587C46.2767 42.5064 45.557 37.0158 43.7683 31.787C42.5742 28.2956 39.4118 26.0967 35.7301 25.0647C32.5016 24.1595 29.0766 24.1356 25.7082 24.1835C21.6825 24.2407 17.5986 24.3968 13.693 25.3977C11.9646 25.8405 10.1723 26.296 8.49304 26.8479C7.99172 27.0125 7.48108 27.1992 6.98535 27.4192C6.89752 27.7021 6.82401 27.9901 6.77336 28.2837C6.61622 29.1943 6.63168 30.1279 6.70649 31.0497Z" fill="#33344B"/>
<path d="M22.1945 91.033C22.1865 90.6613 22.1787 90.2897 22.1668 89.9178C22.1787 90.2895 22.1865 90.6613 22.1945 91.033ZM16.6888 58.6876C16.5933 58.3965 16.499 58.1046 16.4016 57.8142C16.4992 58.1046 16.5933 58.3965 16.6888 58.6876ZM17.1633 60.1747C17.0645 59.8578 16.9666 59.5405 16.8649 59.2245C16.9664 59.5405 17.0645 59.8578 17.1633 60.1747Z" fill="#40425A"/>
<path d="M78.8462 67.9737C81.5486 67.5387 84.5265 67.9513 87.2137 68.4053C87.8902 68.5193 88.5793 68.6376 89.1877 68.9361C89.6519 69.1638 90.0513 69.4882 90.435 69.8208C91.0112 70.3203 94.8224 73.4888 93.2174 74.023C92.6131 74.2241 92.1039 73.5762 91.6388 73.3085C90.2882 72.5313 88.6629 71.3738 87.0774 71.1052C85.8447 70.8966 84.3808 70.9811 83.177 71.2577C82.9352 71.3132 82.6502 71.4217 82.6205 71.6504C82.6075 71.7511 82.6509 71.8508 82.7012 71.9411C83.2872 72.9919 84.4259 72.6963 85.5012 72.9445C85.6259 72.9734 85.7551 73.0069 85.8528 73.0845C86.1234 73.2998 86.0019 73.7298 85.7388 73.9514C85.1673 74.4338 84.1338 74.5343 83.3867 74.4821C81.8679 74.3766 80.4324 73.7504 79.0795 73.1447" fill="#F89E6F"/>
<path d="M77.8548 66.7773C77.8548 66.7773 78.3409 66.7053 80.0248 66.9797C80.0248 66.9797 80.0201 72.2171 78.8175 73.1275L77.2847 72.8098L77.8548 66.7773Z" fill="#1BB3A9"/>
<path d="M77.3092 66.0208C73.5631 65.2777 69.7687 64.819 65.9704 64.4436C63.0325 64.1513 60.1676 63.5728 57.2364 63.4147C56.9423 63.3988 56.6175 63.3698 56.4144 63.1564C56.2689 63.0037 56.217 62.7874 56.1707 62.5819C55.3407 58.8967 54.6169 55.1806 53.5321 51.5584C52.6414 48.5849 51.4825 44.3887 49.1121 42.1941C47.3319 40.5461 45.0553 40.3868 43.8687 42.8453C43.318 43.9862 43.3815 45.3176 43.4984 46.5795C43.9427 51.3668 44.9943 56.0963 46.6084 60.6242C47.3976 62.838 48.3211 65.0037 49.374 67.1049C50.2441 68.8417 50.9352 70.9261 52.4286 72.2268C53.8193 73.4382 55.2524 73.1547 56.9164 73.245C58.6863 73.3412 60.4486 73.2057 62.2181 73.2609C64.9819 73.3472 67.7464 73.455 70.5123 73.4275C71.7657 73.415 73.0191 73.4024 74.2725 73.3902C74.9197 73.3836 75.567 73.3772 76.2143 73.3709C76.8094 73.3648 77.2408 73.5106 77.5736 73.0278C78.6813 71.4232 78.785 68.6349 78.5783 66.7799C78.5626 66.6388 78.5411 66.4901 78.4529 66.3794C78.3416 66.2401 78.1531 66.1943 77.979 66.1572C77.756 66.1107 77.5327 66.0653 77.3092 66.0208Z" fill="#AFD0CB"/>
<path d="M42.1321 81C42.1321 81 70.6616 85.224 79 93H21.9864L21 88.3595L42.1321 81Z" fill="#494E67"/>
<path d="M42.9993 40.0222C42.7557 40.496 42.4688 40.9448 42.1091 41.3361C40.9706 42.575 39.2646 42.6642 37.6777 42.6012C36.9134 42.571 36.1423 42.471 35.4313 42.1886C34.5543 41.8402 33.8091 41.2248 33.2151 40.4851L33.0112 43.8259L34.7778 58.5034L34.89 87.961C36.9026 87.8293 38.6379 87.5658 40.2413 87.1438C40.8347 86.9876 41.9315 84.9206 41.9315 84.9206C41.9315 84.9206 43.0595 86.1973 43.5932 85.9578C44.4499 85.5736 45.2981 85.1302 46.1657 84.623C46.1657 84.623 45.6767 50.5036 42.9993 40.0222Z" fill="#1BB3A9"/>
<path d="M41.4224 44.0336L40.2137 43.1451L38.7001 43.1362L37.6631 44.1333L38.6599 46.1271L40.6102 46.0122L41.4224 44.0336Z" fill="#1C7AAA"/>
<path d="M40.6099 46.0123L38.6596 46.1272L36.2207 67.5352L40.4992 71.1891L44.421 67.4506L40.6099 46.0123Z" fill="#1890C4"/>
<path d="M32.5034 36.8514C32.5034 36.8514 32.5671 36.1493 38.1855 35.904C38.1855 35.904 42.3498 35.7723 43.2032 36.8783L42.2647 41.4593L39.3281 42.5703L32.7754 38.5346L32.5034 36.8514Z" fill="#16B09D"/>
<path d="M42.2314 36.0807C42.0687 34.7823 41.9422 33.3384 42.0448 32.5113L32.4771 32.6342C32.4771 32.6342 32.8706 33.8684 33.1348 35.4442C34.2821 36.4152 35.7912 36.9747 37.3031 37.0747C38.9933 37.1865 40.6792 36.7766 42.2314 36.0807Z" fill="#F68142"/>
<path d="M42.645 38.8241C42.645 38.8241 42.4151 37.5452 42.2313 36.0807C40.6791 36.7766 38.9932 37.1865 37.3031 37.0747C35.7911 36.9748 34.282 36.4153 33.1348 35.4443C33.329 36.6027 33.453 37.9453 33.2984 39.1193L33.215 40.4852C33.8091 41.2249 34.5542 41.8403 35.4313 42.1887C36.1422 42.4711 36.9133 42.5711 37.6777 42.6013C39.2646 42.6643 40.9706 42.5751 42.1091 41.3362C42.4687 40.9449 42.7557 40.4961 42.9993 40.0223C42.8864 39.5802 42.7684 39.179 42.645 38.8241Z" fill="#F89E6F"/>
<path d="M46.0638 18.96L46.0178 18.8757C41.9625 14.4208 36.0562 14.0932 33.6066 14.171C33.0434 14.1889 32.6507 14.7298 32.7978 15.2741C33.8959 19.3397 32.5926 22.2987 31.7411 23.6766C31.5046 24.0592 30.9376 24.0201 30.7436 23.6144C29.3469 20.6951 27.7855 22.9507 27.7855 22.9507C27.1503 24.4682 27.1376 26.2357 27.7506 27.7624C27.9744 28.3194 28.3972 29.0026 28.9795 29.1477C28.9795 29.1477 30.1993 29.2899 30.9858 28.7758C30.9858 28.7758 31.0279 30.6544 31.7869 31.9995C32.4051 32.9468 33.1876 33.7864 34.089 34.4696C34.3683 34.6811 34.6587 34.8779 34.949 35.0745C37.2669 36.6441 40.4445 36.4073 42.5266 34.5099C44.4278 32.7777 45.0426 30.2347 45.3837 27.7888C45.5889 26.3162 45.7538 24.8379 45.8631 23.3553C45.9176 22.6144 45.9587 21.8725 45.9849 21.1298C45.9956 20.823 46.203 19.3592 46.0638 18.96Z" fill="#F89E6F"/>
<path d="M46.6311 14.1659C46.9898 14.1473 47.3496 14.1509 47.7079 14.1766C47.9426 14.1934 48.3263 14.2301 48.5615 14.2281C48.7809 14.226 49.0161 14.2931 49.2369 14.2607C50.4637 14.0811 49.0132 12.3959 48.7248 11.9874C48.2845 11.3635 47.8065 10.7658 47.2895 10.2036C46.2574 9.08168 45.0654 8.09753 43.7264 7.36383C43.6462 7.31978 43.5655 7.27685 43.4844 7.23458C40.9369 5.91344 38.0582 5.69116 35.3107 6.57535C33.7725 7.07045 32.5714 7.81845 31.2834 8.77152C31.1676 8.26099 31.0516 7.75047 30.9356 7.23995C30.8781 6.98636 30.801 6.70505 30.5769 6.57356C30.5266 6.54404 30.468 6.52348 30.4104 6.53264C30.3008 6.55009 30.2356 6.66279 30.196 6.76655C29.9133 7.50986 30.1459 8.33882 30.3802 9.0989C30.1906 8.65009 29.9222 8.13801 29.4399 8.07137C29.3733 8.0622 29.2986 8.06511 29.2488 8.11028C29.171 8.18117 29.1974 8.30773 29.2327 8.40702C29.4015 8.88087 29.6265 9.18454 29.9164 9.59578C28.3765 9.78183 27.0936 10.9811 26.4546 12.395C25.8156 13.8092 25.7293 15.411 25.8109 16.9607C25.9273 19.1687 26.3898 21.237 27.786 22.9508C27.786 22.9508 29.3474 20.6951 30.744 23.6145C30.938 24.0201 31.5051 24.0593 31.7415 23.6766C32.5931 22.2987 33.8963 19.3398 32.7983 15.2741C32.6512 14.7299 33.0439 14.1889 33.6071 14.171C36.0567 14.0932 41.963 14.4208 46.0182 18.8758L46.8016 19.5777C47.0262 19.7796 47.395 19.7736 47.5651 19.5019C47.6471 19.3706 47.6722 19.2125 47.6912 19.0587C47.8865 17.4886 47.8194 15.3484 46.6311 14.1659ZM28.9799 29.1477C29.0443 29.4831 29.1089 29.8188 29.1733 30.1544C29.3083 30.8566 29.5778 31.9107 30.306 32.2122C30.8609 32.4418 31.2941 32.3083 31.7601 31.9577L31.7874 31.9995C31.0283 30.6545 30.9863 28.7758 30.9863 28.7758C30.1998 29.2899 28.9799 29.1477 28.9799 29.1477Z" fill="#A44931"/>
<path d="M29.9751 27.7194C29.7545 27.6881 29.5489 27.5855 29.38 27.4379C29.2079 27.2905 29.0831 27.1045 28.9745 26.8981C28.7606 26.486 28.6632 26.0175 28.6428 25.5561C28.6408 25.4799 28.6424 25.403 28.646 25.3258C28.9625 25.7775 29.418 26.1136 29.9233 26.2715C29.9698 26.2856 30.0214 26.2643 30.0429 26.2192C30.0666 26.1693 30.0451 26.1101 29.9955 26.0866C29.6558 25.926 29.3614 25.6619 29.1536 25.3459C29.0478 25.1856 28.9633 25.0116 28.8992 24.8307C28.8661 24.737 28.8362 24.6406 28.8161 24.5434C28.7935 24.4329 28.863 24.3247 28.914 24.2265C29.1164 23.8345 29.4526 23.5925 29.9302 23.5641C29.9711 23.5617 30.0084 23.534 30.0205 23.4921C30.0364 23.4389 30.006 23.3828 29.9508 23.3665C29.6984 23.2922 29.3974 23.3059 29.1384 23.4396C28.8789 23.5704 28.6793 23.7967 28.5579 24.0389C28.4339 24.2824 28.3606 24.5387 28.315 24.7949C28.2703 25.051 28.2517 25.3113 28.2649 25.5718C28.2884 26.091 28.4395 26.5998 28.6969 27.0513C28.9432 27.5016 29.4099 27.9039 29.9615 27.9176C29.9859 27.9182 30.0096 27.9098 30.0282 27.8941C30.0468 27.8783 30.0589 27.8563 30.0623 27.8321C30.0701 27.7778 30.0324 27.7275 29.9751 27.7194Z" fill="#D25640"/>
<path d="M36.3251 88.1583C36.2457 91.4677 24.6412 90.6296 20.9429 90.278C20.3207 90.219 19.8618 89.6722 19.9097 89.0485L23.2627 45.327C25.9275 41.5975 33.2986 39.1191 33.2986 39.1191C33.2986 39.1191 37.1297 54.6528 36.3251 88.1583ZM42.6453 38.8239C42.9457 40.8541 45.718 76.1149 44.8081 85.9405C44.7578 86.4812 45.2348 86.9235 45.7698 86.8311C47.3084 86.5659 50.14 85.8861 52.0724 84.2861C52.531 83.9064 52.7785 83.329 52.7717 82.7334C52.7065 76.7606 51.6147 43.9692 42.6453 38.8239Z" fill="#BBDBD6"/>
<path d="M48.6762 77.0703C48.7167 76.9685 49.5651 76.7447 49.7166 76.6732C50.1143 76.4851 50.5628 76.3666 50.9819 76.235C51.8473 75.9641 52.7335 75.7452 53.6389 75.6669C53.9766 75.6375 54.3438 75.6358 54.6199 75.8325C55.7754 76.6566 53.1865 77.611 52.7308 77.8789C52.5344 77.9945 52.3327 78.1188 52.208 78.3096C52.0835 78.5006 52.0599 78.7774 52.2154 78.944C52.3155 79.0513 52.466 79.0925 52.6086 79.1269C53.7406 79.5314 54.8109 79.5004 55.9805 79.5721C57.236 79.6493 58.4098 79.2526 59.6558 79.1334C59.9204 79.1081 60.217 79.1077 60.4148 79.2857C60.7474 79.5849 60.5644 80.1549 60.2503 80.374C59.8062 80.6837 59.2224 80.7551 58.714 80.9038C57.2355 81.3365 55.7097 81.5682 54.1918 81.8126C54.6283 81.7423 55.1835 81.87 55.6283 81.8877C56.9367 81.9398 58.2473 81.7951 59.5635 81.7448C59.7452 81.7379 59.9359 81.7326 60.0993 81.813C60.8927 82.2044 60.1676 82.8607 59.6969 83.0972C59.2573 83.318 58.7745 83.4418 58.2936 83.5349C56.9208 83.8001 55.5067 83.8498 54.1188 83.6809C54.9227 84.0205 55.7901 84.1639 56.6542 84.2453C57.0842 84.286 57.5158 84.3111 57.9469 84.3386C58.2933 84.3607 58.8271 84.3254 58.9806 84.7284C59.0014 84.7827 59.0126 84.8411 59.0097 84.8992C58.9905 85.2586 58.4578 85.501 58.1644 85.625C57.6906 85.8258 57.1264 85.8887 56.6171 85.9061C55.1375 85.9571 53.6472 85.6745 52.2889 85.0853C52.959 85.7358 53.7721 86.1246 54.6413 86.4319C55.286 86.6598 55.9533 86.8173 56.6318 86.9017C56.8752 86.9321 57.3081 87.0735 57.1414 87.4044C57.0149 87.6551 56.5149 87.7445 56.2709 87.7845C54.4547 88.0815 52.6986 87.3597 51.2092 86.3936C49.4259 85.2368 47.6656 83.8759 46.73 81.9668L48.6762 77.0703Z" fill="#F89E6F"/>
<path d="M46.7398 75.7676C46.7398 75.7676 47.2306 75.7945 48.8256 76.4005C48.8256 76.4005 47.7733 81.5312 46.4128 82.1819L44.9746 81.5638L46.7398 75.7676Z" fill="#1BB3A9"/>
<path d="M46.3583 74.9132C39.4945 71.9662 32.2791 69.4448 24.9315 68.1968C26.3434 63.6484 27.3509 58.9749 27.9432 54.2492C28.2336 51.9324 28.4238 49.6042 28.5133 47.2709C28.5721 45.7418 29.1298 43.1713 27.1996 42.5197C24.6611 41.6626 22.395 45.242 21.4529 47.086C19.2051 51.4848 18.3138 56.3615 17.4126 61.1624C17.0713 62.9806 16.8022 64.8139 16.4384 66.6263C16.0821 68.4003 15.8519 70.2069 15.9608 72.0191C15.9815 72.3664 16.0133 72.7206 16.1518 73.04C16.6071 74.0883 17.7696 74.9688 18.7302 75.5179C19.9049 76.1892 21.1668 76.538 22.4142 77.019C23.8471 77.5718 25.3588 77.9001 26.8626 78.2346C30.6494 79.0763 34.4248 80.0772 38.2156 80.8129C39.4462 81.0516 40.6768 81.2904 41.9072 81.5292C42.5426 81.6524 43.1783 81.7759 43.8135 81.899C44.3979 82.0124 44.7915 82.2416 45.2142 81.8355C46.6202 80.4846 47.2795 77.7737 47.4483 75.915C47.461 75.7737 47.4697 75.6236 47.4054 75.4972C47.324 75.3385 47.1488 75.2558 46.9854 75.1847C46.7767 75.0937 46.5675 75.0031 46.3583 74.9132Z" fill="#D0EFE6"/>
<path d="M33.2984 39.1194C33.2984 39.1194 35.1648 39.5984 36.2278 67.3198L30.4929 51.963L32.9866 49.8524L28.9756 47.4517C28.9756 47.4517 29.4078 42.4922 33.2984 39.1194ZM42.6931 38.8276C42.6931 38.8276 43.645 48.8605 44.5323 67.1199L47.6117 51.0186L44.7996 49.3562L47.7085 46.1274C47.7085 46.1274 46.3947 39.6462 42.6931 38.8276Z" fill="#D0EFE6"/>
<path d="M35.6905 63.162L34.9072 63.2856C34.9552 63.6186 35.1128 64.8648 35.1391 65.0842C35.1756 65.3859 35.0077 65.6576 34.8343 65.7128L34.5786 65.7949C34.3703 65.8617 34.2554 66.0849 34.3222 66.2933C34.3891 66.5019 34.6124 66.6167 34.8204 66.55L35.0759 66.468C35.6402 66.2877 36.0057 65.652 35.9259 64.9894C35.8955 64.7365 35.7366 63.4829 35.6905 63.162Z" fill="#B29CA0"/>
<path d="M34.6619 66.742L33.9986 66.8918C33.6743 66.9652 33.3694 66.8082 33.3209 66.543L33.2644 66.2348C33.2159 65.9699 33.4416 65.6932 33.7657 65.6197L34.4293 65.4701C34.7533 65.3967 35.0582 65.5539 35.1069 65.8189L35.1633 66.1271C35.2118 66.3923 34.9862 66.6689 34.6619 66.742Z" fill="#262843"/>
<path d="M26.168 64.4803L26.9574 64.4056C26.9936 64.7399 27.15 65.9862 27.1789 66.2055C27.2184 66.5065 27.4484 66.7281 27.6303 66.7386L27.8981 66.7547C28.1167 66.7677 28.2832 66.9553 28.2702 67.1738C28.2573 67.3925 28.0693 67.5593 27.8514 67.5464L27.5836 67.5303C26.992 67.4956 26.4804 66.9705 26.3933 66.3088C26.3602 66.0566 26.2031 64.8025 26.168 64.4803Z" fill="#B29CA0"/>
<path d="M28.0526 67.6933L28.7325 67.6736C29.0646 67.664 29.3212 67.4364 29.3024 67.1674L29.2805 66.855C29.2617 66.5862 28.9745 66.3742 28.6422 66.3838L27.9625 66.4033C27.6304 66.4129 27.3738 66.6407 27.3926 66.9093L27.4142 67.2222C27.433 67.4909 27.7202 67.7029 28.0526 67.6933Z" fill="#262843"/>
<path d="M31.891 54.0223C31.1872 53.531 30.4203 53.3787 29.6115 53.5692C25.7668 54.4769 25.6523 60.123 26.0638 64.4876C26.0902 64.769 26.3486 64.9682 26.6275 64.9241C26.8834 64.8837 27.0618 64.6509 27.0376 64.393C26.554 59.2259 27.1297 55.1607 29.8363 54.5218C30.3696 54.3959 30.8586 54.4945 31.3311 54.8248C33.3614 56.243 34.3263 60.2337 34.7762 63.1421C34.8175 63.4102 35.0678 63.5925 35.3356 63.5504H35.3361C35.6022 63.5082 35.7848 63.2604 35.7439 62.9939C35.2431 59.7337 34.196 55.6325 31.891 54.0223Z" fill="#272633"/>
<path d="M32.3736 39.4209C31.8734 39.8174 31.4385 40.3044 31.0833 40.8344C30.9821 40.9565 30.9105 41.1034 30.8247 41.2371C30.7449 41.3758 30.6441 41.4997 30.5789 41.6477C30.4434 41.9389 30.2675 42.2072 30.162 42.5136C30.0456 42.8137 29.9079 43.1044 29.8299 43.4199L29.6929 43.8848L29.6243 44.1169L29.5767 44.3557L29.3849 45.3099L29.2756 46.2815C29.2611 46.4441 29.2305 46.6042 29.2291 46.7684L29.2124 47.2588L29.1759 48.2398L29.2117 49.2241L29.2296 49.7166L29.2383 49.9628L29.2642 50.2083C29.2977 50.5361 29.336 50.8633 29.3652 51.1915L29.4115 51.6837L29.4348 51.9302L29.4732 52.1746C29.5773 52.8269 29.6808 53.4796 29.7756 54.135L29.7781 54.1523C29.8015 54.316 29.6884 54.4676 29.5248 54.4913C29.3673 54.5139 29.2204 54.4088 29.1889 54.2547C29.0552 53.5963 28.9305 52.9353 28.8063 52.2741C28.6923 51.6111 28.6281 50.938 28.5481 50.2684L28.5197 50.0171L28.5081 49.7637L28.4853 49.257L28.4399 48.2429L28.4686 47.2252C28.4766 46.8855 28.488 46.5465 28.5387 46.2082L28.6612 45.1934L28.8735 44.1889L28.9292 43.9382L29.0065 43.6925L29.1616 43.201C29.2515 42.8691 29.4044 42.5567 29.5358 42.2383C29.8098 41.6061 30.1721 41.0035 30.6229 40.4737C31.0746 39.9471 31.6215 39.4853 32.2916 39.2409C32.3427 39.2223 32.3993 39.2485 32.4181 39.2995C32.4328 39.3406 32.419 39.3849 32.3868 39.4104L32.3736 39.4209ZM43.8623 39.3596C44.5628 39.5056 45.1752 39.8802 45.7053 40.3335C45.8457 40.4404 45.9639 40.5681 46.0882 40.6913C46.2073 40.8183 46.3367 40.9386 46.4442 41.0757L46.7636 41.4892L46.9216 41.6978L47.0584 41.9189C47.8013 43.0912 48.3304 44.3897 48.6307 45.7256C48.6721 45.8918 48.7233 46.0564 48.7566 46.2241L48.8435 46.729L49.0123 47.7398L49.1026 48.7572L49.1473 49.266C49.1642 49.4352 49.1774 49.6047 49.1759 49.7745C49.1832 50.4527 49.2067 51.1325 49.1801 51.8092C49.1408 52.485 49.101 53.1605 49.0518 53.8343C49.04 53.9993 48.8967 54.123 48.732 54.1111C48.5731 54.0997 48.4524 53.966 48.4546 53.8088L48.4548 53.7898C48.4656 53.1243 48.4855 52.4601 48.5058 51.7962C48.5147 51.6303 48.5116 51.4646 48.5031 51.2989L48.4852 50.8022C48.4718 50.4713 48.4674 50.1401 48.4582 49.8091C48.4584 49.6432 48.4441 49.4788 48.426 49.3145L48.3784 48.8216L48.2828 47.8361L48.1113 46.8645L48.0284 46.3786C47.9978 46.2171 47.9497 46.0606 47.9113 45.9014C47.8284 45.585 47.753 45.2654 47.6641 44.9508L47.3382 44.0286C47.0968 43.4255 46.8242 42.8333 46.4811 42.2859L46.3579 42.0768L46.2156 41.8821L45.9349 41.4892C45.8423 41.3568 45.7268 41.2452 45.6257 41.1202C45.5227 40.9972 45.4244 40.8679 45.3057 40.7604C44.8703 40.2894 44.3639 39.8713 43.8064 39.5493L43.7928 39.5416C43.7816 39.5352 43.7717 39.5266 43.7639 39.5163C43.756 39.5061 43.7502 39.4944 43.7468 39.4819C43.7434 39.4693 43.7426 39.4563 43.7443 39.4435C43.7459 39.4306 43.7501 39.4182 43.7566 39.407C43.767 39.389 43.7828 39.3748 43.8018 39.3662C43.8208 39.3577 43.8419 39.3554 43.8623 39.3596Z" fill="#272633"/>
<path d="M50.9727 53.4564C50.8842 54.7304 49.7804 55.6911 48.5071 55.6027C47.234 55.514 46.2736 54.4097 46.3621 53.1355C46.4506 51.8618 47.5547 50.9009 48.8278 50.9897C50.1011 51.078 51.0613 52.1827 50.9727 53.4564Z" fill="#A5A9A8"/>
<path d="M50.4535 53.4205C50.3849 54.4076 49.5296 55.152 48.543 55.0834C47.5565 55.0149 46.8122 54.1589 46.8809 53.1719C46.9495 52.1848 47.8048 51.4402 48.7916 51.5088C49.7779 51.5777 50.5222 52.4335 50.4535 53.4205Z" fill="#DDDAD8"/>
<path d="M49.6135 53.362C49.5771 53.8849 49.1243 54.2791 48.6017 54.2429C48.0794 54.2062 47.6853 53.7531 47.7215 53.2303C47.758 52.7077 48.211 52.3135 48.7333 52.3499C49.2557 52.3862 49.6499 52.8394 49.6135 53.362Z" fill="#131112"/>
<path d="M32.5034 36.8518L32.0195 39.6895L36.1063 45.3851L39.3281 42.5706L32.5034 36.8518ZM39.3281 42.5706L42.2756 44.5241L44.2498 39.5278L43.2032 36.8786L39.3281 42.5706Z" fill="#20B4AE"/>
</svg>
