<svg width="84" height="80" viewBox="0 0 84 80" fill="none" xmlns="http://www.w3.org/2000/svg">
<path d="M80.7687 50.5574C77.2553 52.5856 71.5424 52.5751 68.007 50.5345C64.4717 48.4932 64.4538 45.1943 67.9667 43.1661C71.4801 41.1383 77.1936 41.1482 80.7289 43.1894C84.2637 45.2303 84.2812 48.529 80.7687 50.5574Z" fill="#C0BBAD"/>
<path d="M71.938 42.5084C71.938 42.5084 70.1203 43.8491 70.0939 43.9448C70.0685 44.0413 68.4942 45.3493 68.4111 45.4703C68.328 45.5916 67.9068 46.3623 68.0586 46.9473C68.2095 47.5319 68.8173 47.8147 69.4666 47.5562C70.1158 47.2978 71.2499 46.4096 71.4187 46.2668C71.5875 46.1245 73.4101 45.2984 73.5062 45.0799C73.6028 44.8608 73.7442 44.451 73.6591 43.9767C73.5734 43.5022 73.6541 42.8116 73.6461 42.6284C73.6386 42.4452 71.938 42.5084 71.938 42.5084Z" fill="#423E3B"/>
<path d="M71.0759 42.9865C71.0759 42.9865 70.7722 43.6242 70.4182 43.907C70.0642 44.1897 69.9134 44.7992 70.0159 44.8963C70.1185 44.9933 70.9554 45.0591 71.3632 44.8669C71.7709 44.6742 72.6357 44.1804 72.6357 44.1804C72.6357 44.1804 73.5323 43.6909 73.0156 42.5085C72.4988 41.3261 71.0759 42.9865 71.0759 42.9865Z" fill="#FAB597"/>
<path d="M80.3109 44.3121C80.3109 44.3121 80.6445 45.0211 80.7142 45.1137C80.7844 45.2067 80.7914 45.6384 80.771 45.7849C80.7506 45.9317 80.6923 46.4708 80.527 46.8288C80.3612 47.1872 80.2213 48.0805 79.5547 48.5853C78.8881 49.0896 79.0055 49.3216 77.9979 49.5307C76.9912 49.7398 76.6865 49.2997 76.6168 49.2077C76.5466 49.1145 76.6417 48.548 76.7537 48.2149C76.8662 47.8823 77.6867 46.9842 77.7659 46.414C77.844 45.845 78.1024 44.9354 78.1273 44.7563C78.1517 44.5775 79.1156 44.0807 80.3109 44.3121Z" fill="#423E3B"/>
<path d="M78.6675 43.6044C78.6675 43.6044 78.2523 45.1717 78.2065 45.3812C78.1612 45.5904 77.976 46.8081 78.321 46.9555C78.665 47.1023 79.5417 46.7598 79.8096 46.382C80.0774 46.0041 80.2552 45.2001 80.289 45.0716C80.3234 44.9436 80.3597 44.5587 80.3597 44.5587L80.0809 43.4586L78.6675 43.6044Z" fill="#FAB597"/>
<path d="M74.4722 34.6596C74.406 34.8499 74.165 35.357 73.6094 35.6946C73.4789 35.7719 73.3296 35.8431 73.1598 35.8948C72.2736 36.1706 71.3008 35.837 70.8736 35.1575C70.8378 35.1007 70.8044 35.0245 70.7736 34.9329C70.6456 34.5611 70.5376 33.9014 70.446 33.0963C70.3484 32.2476 70.2697 31.2334 70.2025 30.2217C70.1527 29.4586 70.1109 28.6962 70.0706 28.0068L70.0671 27.9739C69.9406 25.7199 70.093 25.0484 70.1423 24.8965L70.1552 24.8588C70.1552 24.8588 72.887 24.9335 74.2526 25.1295C74.6818 25.1927 74.982 25.2664 75.0139 25.3545C75.1612 25.725 74.9048 29.1956 74.9048 29.1956C74.9048 29.1956 74.5568 34.4212 74.4722 34.6596Z" fill="#3FA565"/>
<path d="M73.0771 43.66C72.9536 43.687 72.8107 43.7113 72.6489 43.7327C71.3286 43.9005 70.7829 43.1802 70.7829 43.1802L70.7725 34.933L71.1115 34.3186L73.8547 34.5985L74.4711 34.6597C74.4711 34.6597 74.478 35.158 74.5443 36.2937C74.6105 37.4289 73.8941 43.1602 73.8941 43.1602C73.8941 43.1602 73.9463 43.4738 73.0771 43.66Z" fill="#3FA565"/>
<path d="M79.4763 36.2868C79.2966 36.7792 78.9486 37.0495 78.2824 37.3237C77.332 37.7175 76.404 36.8891 76.394 36.7916C76.3801 36.6866 74.3817 29.5491 74.3817 29.5491C74.3817 29.5491 73.2236 28.7407 72.9145 28.2999C72.6013 27.8589 72.4365 25.4483 72.4365 25.4483C72.4365 25.4483 77.9573 25.0411 79.2776 25.7126C79.3593 25.756 79.4245 25.8007 79.4688 25.8511C80.2968 26.7173 79.7989 28.1572 79.8293 28.8338C79.8552 29.3943 79.7641 32.9038 79.6779 34.6786C79.6595 35.046 79.6421 35.3424 79.6261 35.5195C79.5988 35.8301 79.5525 36.0781 79.4763 36.2868Z" fill="#45B56C"/>
<path d="M80.5975 44.1618C80.5975 44.1618 80.3655 44.687 79.9179 45.019C79.7312 45.1604 79.5096 45.2689 79.2473 45.2924C78.3651 45.3696 77.7761 44.9657 77.7761 44.9657L76.3945 36.7915L76.6669 35.3331L79.0267 34.8189L79.6784 34.6784C79.6784 34.6784 80.3331 36.5394 80.7707 38.0409C81.2113 39.5425 80.5975 44.1618 80.5975 44.1618Z" fill="#45B56C"/>
<path d="M79.0267 34.8188C78.9052 34.0864 79.0247 29.7929 79.0641 29.5071C79.1074 29.2229 78.8261 28.5193 78.7738 28.2097C78.7653 28.1679 78.7594 28.1041 78.7549 28.025C78.9291 27.9285 79.1029 27.7961 79.2677 27.6292C79.433 27.4693 79.5873 27.2756 79.7297 27.0527C79.7989 26.9421 79.8462 26.7892 79.8766 26.6105C79.9313 26.8287 79.9507 27.0572 79.9507 27.2832C79.9507 27.8497 79.8283 28.4049 79.8283 28.7723C79.8283 28.7931 79.8288 28.8135 79.8298 28.8336C79.8328 28.8993 79.8342 29.0053 79.8342 29.1448C79.8342 30.1928 79.7546 33.1117 79.6784 34.6784L79.0267 34.8188Z" fill="#3C9A5E"/>
<path d="M79.9175 45.019C80.034 43.1964 80.3706 39.2036 80.1864 38.4339C80.0574 37.8987 79.7478 37.0558 79.4764 36.2866C79.2683 35.6882 79.0811 35.1416 79.0264 34.8189L79.6781 34.6785C79.6781 34.6785 80.3328 36.5395 80.7704 38.041C80.8869 38.4384 80.9297 39.0543 80.9297 39.7448C80.9292 41.6639 80.5971 44.1618 80.5971 44.1618C80.5971 44.1618 80.3651 44.6871 79.9175 45.019Z" fill="#3C9A5E"/>
<path d="M74.4715 34.6597L73.8551 34.5984C73.9263 33.9995 74.1035 32.2246 74.1364 31.5292C74.1668 30.7614 73.5051 29.4121 73.5051 29.4121C73.5051 29.4121 72.5776 31.4609 72.4018 31.6362C72.2306 31.811 71.4226 32.6184 70.6982 32.9922C70.6085 33.0397 70.5239 33.0755 70.4453 33.0963C70.3477 32.2476 70.269 31.2334 70.2018 30.2217C70.4184 29.9514 70.738 29.556 70.9336 29.232C71.0277 29.2653 71.1154 29.2933 71.1756 29.3052C71.1856 29.3071 71.1965 29.308 71.208 29.308C71.4066 29.308 71.788 29.0377 71.9149 28.8825C72.0449 28.7166 72.1922 28.5465 72.1922 28.5465C72.1922 28.5465 72.2067 28.5638 72.243 28.5638C72.2724 28.5638 72.3172 28.5519 72.3804 28.5086C72.4646 28.4492 72.6304 28.2108 72.7822 27.9769C72.823 28.1198 72.8673 28.2328 72.9146 28.2999C73.2238 28.7406 74.3818 29.549 74.3818 29.549C74.3818 29.549 74.5461 30.1371 74.7816 30.9784C74.6726 32.5164 74.5232 34.5142 74.4715 34.6597ZM70.7634 27.6353C70.7156 27.4631 70.6832 27.343 70.6832 27.343L70.4074 27.6249C70.3736 27.359 70.3034 26.9358 70.2147 26.8069C70.1789 26.7552 70.1052 26.6546 70.0176 26.537C70.0176 26.5018 70.0171 26.4668 70.0171 26.4325C70.0171 26.212 70.0211 26.0202 70.0275 25.8555C70.3004 26.2184 70.7485 26.6591 71.4619 27.008C71.313 27.2301 71.193 27.4107 71.1761 27.4308L70.7634 27.6353Z" fill="#378C59"/>
<path d="M73.1126 43.6526C73.1067 43.5983 73.1007 43.5447 73.0947 43.4898C73.3138 41.251 73.7449 36.8085 73.5976 36.5009C73.5074 36.3171 73.5413 36.0119 73.6095 35.6948C73.6882 35.3233 73.8126 34.9425 73.84 34.7434C73.845 34.7086 73.8515 34.6617 73.856 34.5985L74.4723 34.6598C74.4723 34.6636 74.4793 35.1625 74.5455 36.2938C74.5485 36.3436 74.5495 36.4023 74.5495 36.4694C74.55 37.9217 73.8953 43.1602 73.8953 43.1602C73.8953 43.1602 73.8958 43.1643 73.8958 43.1707C73.8958 43.2255 73.8555 43.4858 73.1126 43.6526Z" fill="#378C59"/>
<path d="M74.7821 30.9783C74.5466 30.1369 74.3823 29.5489 74.3823 29.5489C74.3823 29.5489 73.2243 28.7404 72.9151 28.2997C72.8678 28.2326 72.8235 28.1196 72.7827 27.9767C72.8783 27.8299 72.9684 27.685 73.0297 27.5874C73.0461 27.5609 73.063 27.5347 73.0804 27.5082C73.5111 27.5854 73.9218 27.6601 74.3082 27.7243C74.5446 27.7651 74.7727 27.8029 74.9917 27.8388C74.9504 28.5796 74.9046 29.1955 74.9046 29.1955C74.9046 29.1955 74.8518 29.9925 74.7821 30.9783Z" fill="#3C9A5E"/>
<path d="M79.7293 27.0526C79.5869 27.2755 79.4325 27.4692 79.2672 27.6291C78.9252 27.9756 78.5433 28.1742 78.2003 28.2102C77.7841 28.2565 76.3562 28.0747 74.3075 27.7242C73.8834 27.6536 73.4293 27.5709 72.9519 27.4852C72.8388 27.4657 72.7303 27.4424 72.6268 27.4159C70.1444 26.8344 69.6431 25.1618 69.6431 25.1618C69.6431 25.1618 69.9995 24.3671 70.1414 23.3401C70.2833 22.3128 70.6746 18.5864 70.5402 16.132C70.4053 13.6775 70.3366 10.2338 70.6702 9.43226C71.0032 8.63468 72.2056 8.22743 72.2056 8.22743L76.8043 7.89187C76.8043 7.89187 77.4456 8.3504 77.9185 8.64265C78.387 8.93838 80.3381 10.9189 80.8191 11.5825C81.301 12.2457 80.9839 13.0975 80.9978 13.7202C80.9993 13.7965 80.9834 13.9653 80.9505 14.2073C80.728 15.9318 79.7805 21.2928 79.7462 21.8568C79.7098 22.4967 79.7158 23.8907 79.7158 23.8907C79.7158 23.8907 80.1734 26.3416 79.7293 27.0526Z" fill="#44BE83"/>
<path d="M76.7221 16.1907L74.3682 15.5637L74.4264 13.9995L76.7798 14.6268L76.7221 16.1907Z" fill="white"/>
<path d="M74.3082 27.7244C73.9219 27.6601 73.5111 27.5855 73.0805 27.5083C73.2284 27.2858 73.4036 27.0791 73.6092 26.8795C73.8392 26.6524 76.6203 25.1304 77.4333 24.2875C78.0666 23.6333 79.1474 22.8473 79.7299 22.2986C79.718 22.7671 79.7165 23.3381 79.7165 23.6533C79.7165 23.7973 79.7165 23.8879 79.7165 23.8908C79.7165 23.8908 79.9246 25.0036 79.9241 25.947C79.9236 26.404 79.8748 26.8208 79.7299 27.0528C79.5876 27.2757 79.4332 27.4694 79.2679 27.6292C79.2928 25.806 78.6317 24.545 78.6317 24.545C78.6317 24.545 77.3158 25.6562 76.695 25.714C76.0701 25.7712 74.6274 27.1119 74.6274 27.1119L74.3082 27.7244ZM72.9829 25.5909L77.1326 20.5571C77.1326 20.5571 77.1331 18.1057 77.1829 17.7463C77.2322 17.3873 77.8147 14.3832 77.8147 14.3832L79.4437 14.292L77.9949 15.2953C77.9949 15.2953 77.6892 15.8941 77.6773 16.9347C77.6638 17.9797 77.8351 20.3396 77.6882 20.5701C77.6882 20.5701 73.4927 25.3311 72.9829 25.5909Z" fill="#369D6F"/>
<path d="M70.8605 2.11089C70.8605 2.11089 70.5025 2.9941 70.5872 3.63983C70.6718 4.28605 70.8978 4.9019 70.9402 4.95717C70.9825 5.01293 71.1488 5.24742 71.0905 5.57502C71.0333 5.90261 70.8202 6.54485 70.8834 6.71562C70.9471 6.88589 71.4938 6.79976 71.4938 6.79976L71.5386 7.4654L71.6242 7.47685L71.5973 7.67201L71.8069 7.77556C71.8069 7.77556 71.8567 8.49149 72.0703 8.65778C72.2839 8.82407 72.4178 8.84299 73.1546 8.73296C73.8905 8.62343 74.6831 8.11112 74.8354 7.9085C74.9873 7.70537 75.4523 5.69251 75.4662 5.32111C75.4807 4.9502 75.4747 2.64858 75.0679 2.35634C74.6602 2.06359 74.4227 1.17242 73.9313 1.21673C73.4404 1.26104 70.8605 2.11089 70.8605 2.11089Z" fill="#FAB597"/>
<path d="M73.3301 8.06085C73.3301 8.06085 73.2982 8.53332 73.2399 8.71803C73.1812 8.90274 72.886 9.35928 72.8695 9.83822C72.8526 10.3167 73.1289 10.7194 73.9793 10.8036C74.8301 10.8882 75.331 10.6258 76.5462 9.7491C77.762 8.87187 77.6251 8.5383 77.6251 8.5383C77.6251 8.5383 77.1984 8.14748 76.9869 7.63767C76.7758 7.12736 76.6259 6.47566 76.6603 6.36264C76.6936 6.25012 76.6189 2.86068 75.5769 3.08124C74.5349 3.30279 72.1526 6.0241 72.1043 6.25012C72.057 6.47566 73.3301 8.06085 73.3301 8.06085Z" fill="#FAB597"/>
<path d="M80.256 21.538C80.2013 21.7333 80.1062 21.903 79.9578 22.0259C79.7298 22.2091 79.3768 22.2844 78.8436 22.1704C77.9579 21.9847 77.5407 20.7968 77.6876 20.5702C77.8345 20.3398 77.6632 17.9798 77.6766 16.9349C77.6886 15.8942 77.9943 15.2954 77.9943 15.2954L81.1368 13.1186C81.1368 13.1186 81.189 13.6918 81.2159 14.5033C81.2483 15.395 81.2513 16.5774 81.1233 17.5946C80.8754 19.5341 80.392 21.0432 80.256 21.538Z" fill="#FAB597"/>
<path d="M80.0836 21.9002C79.7928 22.393 78.2455 23.449 77.4334 24.2878C76.6204 25.1306 73.8394 26.6526 73.6094 26.8798C73.3794 27.1028 73.1877 27.3348 73.0299 27.5877C72.871 27.8407 72.5181 28.4121 72.3811 28.5087C72.2407 28.6048 72.1929 28.5466 72.1929 28.5466C72.1929 28.5466 72.0456 28.7168 71.9156 28.8827C71.7812 29.0468 71.363 29.3397 71.1763 29.3053C70.9906 29.268 70.5505 29.0838 70.4494 29.0379C70.3484 28.9922 69.3437 28.2882 69.3357 28.2275C69.3238 28.1701 69.4014 27.9821 69.4014 27.9821L69.3815 27.8953L69.5428 27.7351C69.5428 27.7351 69.5164 27.6952 69.4955 27.6445L69.4771 27.5509C69.4871 27.4801 69.5767 27.4329 69.7649 27.483C69.9531 27.5328 70.2279 27.7057 70.2279 27.7057L70.6431 27.6958L71.1768 27.4309C71.2152 27.385 71.8061 26.4794 72.0282 26.1956C72.2502 25.9124 72.4698 25.8512 72.9831 25.5912C73.4929 25.3313 77.6884 20.5703 77.6884 20.5703C78.9908 20.2487 79.7455 20.7152 80.0188 21.2145C80.1667 21.47 80.1826 21.7304 80.0836 21.9002Z" fill="#FAB597"/>
<path d="M72.5416 2.90301C72.5416 2.90301 71.6395 2.95231 71.3074 3.10515C70.9753 3.25849 70.5755 3.36852 70.5755 3.36852L70.3903 3.71254L70.2484 4.28956C70.2484 4.28956 70.0368 3.75087 70.2106 3.21517C70.3838 2.67948 70.5496 2.01831 71.1909 1.24862C71.8321 0.479423 72.7532 0.0218902 74.0372 0.000482082C75.3212 -0.0214238 75.9863 0.654674 75.9863 0.654674C75.9863 0.654674 76.9223 1.08283 77.1005 2.6745C77.2782 4.26616 76.6938 5.97632 76.6933 6.25014C76.6928 6.52297 76.3766 6.38009 76.3766 6.38009C76.3766 6.38009 75.7583 5.99624 75.7886 5.77618C75.819 5.55662 75.9191 4.47626 75.3505 4.44738C74.7825 4.419 74.7715 5.03884 74.7596 5.12447C74.7476 5.21011 74.7093 5.49041 74.7093 5.49041L74.0964 5.69154C74.0964 5.69154 73.9366 5.04781 73.6907 4.93977C73.4447 4.83074 73.1495 4.35478 72.8926 3.78423C72.6357 3.21418 72.7766 2.82336 72.5416 2.90301Z" fill="#3D1D21"/>
<path d="M74.9341 5.09005C74.9341 5.09005 74.7654 4.81025 74.9934 4.6589C75.2219 4.50855 75.441 4.36417 75.8477 4.71914C76.2545 5.07362 75.7626 6.17489 75.552 6.31977C75.3409 6.46465 75.087 6.26401 75.0248 6.11465C74.9625 5.96479 74.9859 5.37782 74.9859 5.37782L74.9341 5.09005Z" fill="#FBC6AE"/>
<path d="M72.2433 2.99825C72.2433 2.99825 71.3964 3.43637 71.1101 3.36468C70.8249 3.29199 71.26 4.79056 71.26 4.79056C71.26 4.79056 71.9167 4.73181 72.3354 4.93892C72.7546 5.14603 73.1041 5.40542 73.0787 5.58863C73.0538 5.77185 72.7844 6.28165 72.656 6.40064C72.5275 6.52013 72.1477 6.56643 72.1477 6.56643C72.1477 6.56643 72.5256 7.25348 73.0364 7.249C73.5467 7.24552 73.9221 6.68741 73.9221 6.68741C73.9221 6.68741 73.8524 5.39098 73.7677 5.28294C73.6836 5.17441 73.0025 4.52121 72.9144 4.34696C72.8273 4.17371 72.5126 3.29697 72.5126 3.29697C72.5126 3.29697 72.6221 2.82201 72.2433 2.99825Z" fill="#FBC6AE"/>
<path d="M71.4364 4.541L71.2597 4.79043C71.2597 4.79043 70.9629 6.30344 70.9505 6.40102C70.9385 6.49959 71.0117 6.55934 71.1561 6.56681C71.301 6.57428 71.5429 6.62207 71.5429 6.62207L71.5922 6.2666L71.3996 6.12769L71.5668 4.55893L71.4364 4.541Z" fill="#FBC6AE"/>
<path d="M71.2088 29.3081C71.1973 29.3081 71.1864 29.3072 71.1764 29.3052C70.9907 29.2679 70.5506 29.0837 70.4495 29.0378C70.3983 29.015 70.1165 28.8233 69.8486 28.6315L69.9422 28.5499L70.5302 28.9139C70.5302 28.9139 70.9365 29.0853 71.2511 29.0853C71.3108 29.0853 71.3676 29.0786 71.4174 29.0643C71.729 28.9676 72.0014 28.6076 72.0014 28.6076C72.0014 28.6076 71.8869 28.17 71.9362 28.1008C71.981 28.0357 72.0168 27.4038 72.0268 27.3291C72.0367 27.2595 72.2478 26.8268 72.2478 26.8268L72.5814 26.889C72.5814 26.889 72.5973 26.8911 72.6297 26.8911C72.7795 26.8911 73.2774 26.8452 74.0994 26.3266C75.1026 25.6928 77.4948 23.7591 78.8012 22.5981C79.4957 21.9777 79.8318 21.5625 80.0189 21.2144C79.9677 21.558 79.9468 21.8213 79.9587 22.0259C80.009 21.9841 80.0533 21.9374 80.0916 21.8855C80.0892 21.8906 80.0862 21.8956 80.0837 21.9001C80.0194 22.0086 79.895 22.1445 79.7302 22.2988C79.1477 22.8474 78.0668 23.6335 77.4336 24.2877C76.6205 25.1305 73.8395 26.6525 73.6095 26.8797C73.4039 27.0792 73.2286 27.2859 73.0807 27.5084C73.0633 27.5349 73.0464 27.5611 73.03 27.5876C72.9687 27.6852 72.8786 27.8301 72.783 27.9769C72.6312 28.2109 72.4654 28.4493 72.3813 28.5086C72.318 28.552 72.2732 28.5639 72.2438 28.5639C72.2075 28.5639 72.1931 28.5465 72.1931 28.5465C72.1931 28.5465 72.0457 28.7167 71.9157 28.8826C71.7888 29.0378 71.4074 29.3081 71.2088 29.3081ZM71.0988 28.7457C71.0988 28.7457 70.7946 28.7033 70.7119 28.6685C70.6293 28.6331 70.1822 28.4678 70.0936 28.4439C70.1304 28.4295 70.1802 28.4081 70.225 28.3847L70.9375 28.6475L71.4423 28.5066L71.0988 28.7457ZM70.572 28.2667C70.5217 28.2667 70.4431 28.2507 70.352 28.2264C70.3639 28.1799 70.3784 28.1203 70.3918 28.0621L70.4416 28.0899L70.9111 27.9714L71.0574 28.0675C71.0574 28.0675 70.7826 28.2402 70.5919 28.2657C70.586 28.2667 70.579 28.2667 70.572 28.2667Z" fill="#F7916E"/>
<path d="M80.0907 21.8853C80.1265 21.8182 80.1449 21.7375 80.1454 21.6494C80.1459 21.5154 80.1046 21.3641 80.018 21.2141C80.018 21.2141 80.7777 17.415 80.7867 17.0346C80.7991 16.6542 81.1442 16.4347 80.6184 16.3781C80.5671 16.373 80.5193 16.3705 80.474 16.3705C80.0628 16.3705 79.9015 16.5696 79.6112 16.6727C79.6028 16.6756 79.5953 16.6772 79.5888 16.6772C79.3474 16.6772 80.5024 14.7151 81.1327 14.5274L81.2158 14.5031C81.2268 14.8092 81.2348 15.1503 81.2348 15.5068C81.2348 16.1879 81.2074 16.9267 81.1232 17.5943C80.8753 19.5339 80.3919 21.043 80.256 21.5377C80.2201 21.6669 80.1659 21.7847 80.0907 21.8853Z" fill="#F7916E"/>
<path d="M79.9579 22.0259C79.9459 21.8213 79.9668 21.5579 80.0181 21.2143C80.1047 21.3643 80.1461 21.5156 80.1456 21.6495C80.1451 21.7377 80.1266 21.8184 80.0908 21.8854C80.0525 21.9374 80.0081 21.9841 79.9579 22.0259Z" fill="#F57553"/>
<path d="M80.9267 16.0912C80.9267 16.0912 79.7681 16.6772 79.0647 16.8454C78.3617 17.0138 77.4805 16.9088 77.4805 16.9088C77.4805 16.9088 77.7588 14.6583 77.9689 13.3779C78.179 12.0969 79.4311 11.1918 79.9792 11.0683C80.5264 10.9454 81.1139 11.8555 81.1826 12.0805C81.2508 12.3055 81.5296 15.81 81.5296 15.81L80.9267 16.0912Z" fill="#57C48D"/>
<path d="M73.4741 26.3125C73.4741 26.3125 73.1963 26.0754 72.7542 26.2133C72.3121 26.3514 72.2264 26.6131 72.1866 26.7197C72.1468 26.8263 72.2911 27.132 72.2911 27.132L72.1318 27.6571C72.1318 27.6571 71.987 28.0112 71.9242 28.182C71.8615 28.3537 72.0034 28.5842 72.1921 28.5464C72.3803 28.5091 72.3628 28.6151 72.6476 28.1775C72.9329 27.7407 73.4303 27.0628 73.4303 27.0628C73.4303 27.0628 73.6095 26.5927 73.4741 26.3125Z" fill="#FBC6AE"/>
<path d="M59.4854 42.4346L71.097 48.399C71.7846 48.746 71.811 49.7179 71.1429 50.1016L59.6114 56.7223C59.0473 57.0519 58.3443 57.0519 57.7728 56.7223L50.9834 52.8405C50.7524 52.7096 47.2957 50.6837 46.1417 50.1186C45.5313 49.8195 45.4945 48.9636 46.0765 48.6125C48.5753 47.1075 53.7505 44.0322 56.2453 42.5472C57.2351 41.9577 58.4568 41.9153 59.4854 42.4346Z" fill="#C0BBAD"/>
<path d="M49.8835 33.8837L52.2309 39.5977L51.2038 39.9324L49.0615 33.9929L49.8835 33.8837Z" fill="#52595F"/>
<path d="M57.3679 29.8628L59.7158 35.5767L58.6882 35.9114L56.5459 29.9718L57.3679 29.8628Z" fill="#52595F"/>
<path d="M68.7837 50.0057L66.7903 37.6373C66.7196 37.1988 66.4552 36.8149 66.0698 36.5924L63.5955 35.164C63.2788 34.9813 62.9069 34.8966 62.548 34.9648C62.067 35.057 61.6807 35.3567 61.4771 35.7892L57.9846 43.1875C57.8506 43.4718 57.5111 43.5932 57.2268 43.4594C56.9829 43.3439 56.8783 43.0525 56.9938 42.8087L60.5072 35.366C60.6038 35.162 60.7198 34.9654 60.8662 34.7935C61.7141 33.7984 63.0702 33.6391 64.0824 34.2235L66.5991 35.6768C67.2592 36.0586 67.7133 36.7163 67.8343 37.4695L69.8407 49.9131C69.884 50.1805 69.7018 50.4324 69.4344 50.4758C69.1252 50.525 68.834 50.315 68.7837 50.0057Z" fill="#666A6D"/>
<path d="M60.9033 36.0982L57.4108 43.496L57.4038 43.5074C57.6398 43.5347 57.8768 43.4143 57.9838 43.1877L61.4763 35.7894C61.5644 35.6027 61.6919 35.4465 61.8408 35.3155C61.4241 35.4345 61.087 35.7079 60.9033 36.0982Z" fill="#52595F"/>
<path d="M69.841 49.913L67.8346 37.4694C67.7136 36.7162 67.2596 36.0585 66.5994 35.6767L64.0827 34.2234C63.2473 33.7411 62.1824 33.7743 61.3579 34.3568C62.0664 34.0925 62.8585 34.1557 63.5102 34.532L66.0264 35.9853C66.687 36.3667 67.1406 37.0248 67.262 37.7776L69.2679 50.2216C69.2819 50.3094 69.2704 50.394 69.2411 50.4712C69.3033 50.4827 69.3685 50.4862 69.4347 50.4757C69.7021 50.4323 69.8843 50.1804 69.841 49.913Z" fill="#9A9C9D"/>
<path d="M50.7058 25.5598C50.7058 25.5598 45.9552 28.6133 46.2186 30.435C46.473 32.1919 47.7659 37.9122 48.5899 38.2588L49.2187 38.4634C50.0267 38.4002 59.7987 32.8436 60.0049 31.8165C60.1866 30.9124 59.4114 25.9581 58.7826 24.6632C58.6975 24.4878 58.3365 24.4999 58.2713 24.4725C57.7237 24.2439 54.0206 24.1836 50.7058 25.5598Z" fill="#38393B"/>
<path d="M51.217 25.7499C51.217 25.7499 46.4669 28.8038 46.7303 30.625C46.9937 32.4467 48.4892 38.5261 49.2973 38.4629C50.1053 38.3997 60.31 33.0341 60.5161 32.0076C60.7222 30.9804 59.3302 24.8921 58.783 24.6631C58.2354 24.4346 54.5323 24.3743 51.217 25.7499Z" fill="#EE2229"/>
<path d="M51.6757 25.9464C51.6757 25.9464 47.1845 28.8326 47.4349 30.5641C47.6853 32.2961 49.1067 38.0759 49.8749 38.0156C50.6431 37.9554 60.3201 32.8711 60.5162 31.8949C60.7129 30.9192 59.3891 25.1304 58.8683 24.9134C58.348 24.6959 54.8272 24.6385 51.6757 25.9464Z" fill="#F03C47"/>
<path d="M60.6425 33.9929C60.6425 33.9929 65.6241 36.0086 66.8757 37.812C68.1264 39.6152 68.2887 40.9709 68.2887 41.4863C68.2887 42.0015 60.4419 46.7704 59.5218 46.8074C58.6018 46.8442 57.5349 46.3657 56.5411 45.0042C55.5474 43.6425 49.8145 40.8605 49.4466 40.6399C49.0782 40.4188 49.4715 39.7212 49.4715 39.7212C54.3739 36.2129 60.6425 33.9929 60.6425 33.9929Z" fill="#272729"/>
<path d="M59.4443 33.8616C60.209 33.5175 61.0782 33.521 61.8395 33.8715C63.3958 34.5885 66.0155 35.9277 66.8753 37.1663C68.126 38.9697 68.4575 40.2575 68.4575 40.7729C68.4575 41.2883 60.6108 46.0572 59.6907 46.094C58.7702 46.1309 57.7032 45.6525 56.7095 44.2908C55.7158 42.9291 49.9834 40.1471 49.6155 39.9265C49.247 39.706 49.4178 39.7801 50.7561 38.8223C54.1948 36.3614 57.6734 34.6587 59.4443 33.8616Z" fill="#B01C22"/>
<path d="M52.5876 37.8932C52.5876 37.8932 52.6957 38.6684 53.4076 39.2802C54.1191 39.8932 55.8442 41.2777 56.34 41.6221C56.8364 41.9677 59.1983 43.1556 59.7753 43.6943C60.3518 44.232 60.5365 44.5984 60.5365 44.5984C60.5365 44.5984 60.6963 45.4393 60.3946 45.612C60.0929 45.7849 59.2316 46.2081 58.4325 45.612C57.633 45.0161 56.0916 43.2612 55.6121 42.8947C55.1327 42.5284 49.7842 39.7462 49.7842 39.7462C49.7842 39.7462 52.7176 37.4203 52.5876 37.8932Z" fill="#F03C47"/>
<path d="M55.9265 36.6017C55.9265 36.6017 53.6014 38.5478 53.9808 39.6172C54.3597 40.6873 57.7188 43.3815 58.3132 43.6455C58.9077 43.9093 61.4333 45.3279 61.4333 45.3279L66.2536 42.4616C66.2536 42.4616 64.5116 37.8125 61.8416 37.5705C59.1715 37.328 55.9265 36.6017 55.9265 36.6017Z" fill="#B01C22"/>
<path d="M58.3413 56.0538L56.3474 43.6855C56.2767 43.2463 56.0123 42.863 55.627 42.6399L53.1526 41.2115C52.8359 41.0289 52.464 40.9443 52.1056 41.013C51.6246 41.1046 51.2378 41.4048 51.0342 41.8369L47.5417 49.2351C47.4073 49.52 47.0682 49.6413 46.7839 49.507C46.54 49.392 46.4359 49.1007 46.5504 48.8568L50.0643 41.4138C50.1604 41.2096 50.2774 41.0135 50.4238 40.8412C51.2717 39.8459 52.6268 39.6872 53.64 40.2712L56.1562 41.7244C56.8163 42.1063 57.2709 42.7641 57.3919 43.5172L59.3978 55.9613C59.4411 56.2287 59.2594 56.48 58.992 56.5233C58.6828 56.5737 58.3911 56.3631 58.3413 56.0538Z" fill="#666A6D"/>
<path d="M50.4609 42.1454L46.9679 49.5437L46.9609 49.555C47.1969 49.5824 47.4339 49.4615 47.541 49.2349L51.0335 41.8367C51.1216 41.65 51.2495 41.4947 51.3984 41.3632C50.9817 41.4817 50.6446 41.7555 50.4609 42.1454Z" fill="#52595F"/>
<path d="M57.7935 49.8753L58.8246 56.2693C58.8385 56.3568 58.8266 56.4414 58.7977 56.5186C58.8599 56.5307 58.9252 56.5342 58.9914 56.5231C59.2587 56.4797 59.4404 56.2285 59.3971 55.9611L57.3912 43.517C57.2703 42.7638 56.8157 42.1061 56.1556 41.7242L53.6394 40.271C52.8039 39.7891 51.7385 39.8218 50.9141 40.4044C51.623 40.1405 52.4151 40.2037 53.0663 40.58L55.583 42.0334C56.2432 42.4141 56.6967 43.0725 56.8182 43.8251L57.7935 49.8753Z" fill="#9A9C9D"/>
<path d="M66.1777 25.2467C66.1513 25.418 65.9238 25.4892 65.6664 25.5192C65.2821 25.5604 64.827 25.5007 64.827 25.5007C64.827 25.5007 63.9164 25.4783 62.726 25.1981C61.5396 24.9182 60.1143 24.616 60.1143 24.616C59.8753 24.5637 59.7857 24.2133 59.7892 23.7766C59.7892 22.9781 60.0919 21.8922 60.3493 21.8624C60.7446 21.8175 62.0056 22.4484 62.3307 22.4484C62.5692 22.4484 64.1778 22.7948 65.0436 22.9925C65.0436 22.9925 65.077 23.0005 65.1292 23.0149L65.2597 23.0452L65.3383 23.0637L65.4613 23.0935C65.5061 23.1045 65.5504 23.116 65.5957 23.1308C65.6176 23.1607 66.2489 24.8251 66.1777 25.2467Z" fill="#FAB597"/>
<path d="M68.0208 26.8069C67.9501 26.8069 67.8828 26.7995 67.8231 26.7915C67.4164 26.7248 67.2745 26.4593 67.2745 26.4593C67.2745 26.4593 66.7149 26.3403 66.3191 26.2726C65.9238 26.2024 64.827 25.5009 64.827 25.5009C64.827 25.5009 64.8041 25.3925 64.7672 25.2392C64.7408 25.1202 64.7075 24.9747 64.6702 24.8329L64.6667 24.8144C64.6403 24.7019 64.6144 24.5939 64.592 24.5008L64.5731 24.3699C64.5581 24.1832 64.6069 23.9745 64.6517 23.8213L64.6587 23.7993C64.6965 23.6723 64.7339 23.5902 64.7339 23.5902L65.0435 22.9928C65.0435 22.9928 65.0769 23.0008 65.1292 23.0152C65.1665 23.0231 65.2073 23.034 65.2596 23.0455L65.3383 23.064L65.4612 23.0937C65.5061 23.1048 65.5504 23.1163 65.5957 23.1311C65.8083 23.1795 66.0059 23.2283 66.0398 23.2398C66.1105 23.2616 67.51 24.1497 67.9501 24.5008C68.3942 24.8477 69.3754 25.62 69.4685 25.8067C69.5621 25.9934 68.5804 26.8069 68.0208 26.8069Z" fill="#FAB597"/>
<path d="M70.4358 27.8473C70.4358 27.8812 70.3536 28.2322 70.3312 28.2995C70.3088 28.3701 70.04 28.4638 70.04 28.4638L69.7343 28.732C69.7343 28.732 69.7004 28.7919 69.5476 28.9895C69.3982 29.1877 69.1632 29.1533 69.1632 29.1533C69.1632 29.1533 69.0253 29.2209 68.9093 29.2209C68.7898 29.2209 68.6146 29.0342 68.6031 29.2468C68.5927 29.4561 68.4428 29.4072 68.3238 29.3514C68.2078 29.2917 67.812 28.4524 67.6706 28.2546C67.5327 28.0566 67.6482 27.8473 67.6482 27.7398C67.6482 27.6353 67.5775 26.8069 67.5775 26.8069C67.5775 26.8069 67.5327 26.3404 67.5775 26.1089C67.6258 25.8738 68.4169 25.3851 68.4169 25.3851C68.861 25.3401 69.4689 25.8067 69.4689 25.8067C69.4689 25.8067 70.0848 26.6202 70.2152 26.8069C70.3048 26.9374 70.376 27.3699 70.4094 27.6353C70.4283 27.7509 70.4358 27.8365 70.4358 27.8473Z" fill="#FAB597"/>
<path d="M64.8269 25.501C64.8269 25.501 63.9163 25.4786 62.7259 25.1984C62.009 25.029 61.2049 24.8518 60.6812 24.7383C60.8425 24.464 61.0725 24.0035 61.2034 23.4977L61.1178 24.4296C61.1178 24.467 61.8228 24.6984 62.7259 24.8145C63.4796 24.911 64.4535 25.1576 64.7671 25.2392C64.804 25.3925 64.8269 25.501 64.8269 25.501ZM64.67 24.8329L64.6665 24.8145C64.6103 24.6651 64.5655 24.5047 64.5729 24.3849V24.3699L64.5919 24.5008C64.6143 24.594 64.6402 24.7019 64.6665 24.8145L64.67 24.8329Z" fill="#F7916E"/>
<path d="M67.5699 26.7134C67.3558 26.6103 67.2746 26.4594 67.2746 26.4594C67.2746 26.4594 66.715 26.3404 66.3192 26.2727C65.9239 26.2025 64.8272 25.501 64.8272 25.501C64.8272 25.501 64.8043 25.3925 64.7674 25.2393C64.8346 25.2581 64.872 25.2696 64.872 25.2696C64.872 25.2696 64.76 25.0644 64.6703 24.833L64.6668 24.8145C64.6405 24.7019 64.6146 24.594 64.5922 24.5008L64.5732 24.3699C64.5922 24.1124 64.6405 23.8884 64.6519 23.8213L64.6589 23.7993C64.6589 23.7993 65.0846 24.6123 65.1294 24.9001C65.1742 25.1873 65.439 25.493 65.5849 25.501L65.6665 25.5195C65.7786 25.5527 66.0858 25.6544 66.6802 25.8406C67.1113 25.9759 67.3887 26.0924 67.5644 26.205C67.55 26.3713 67.5609 26.5903 67.5699 26.7134Z" fill="#F7916E"/>
<path d="M67.8235 26.7915C67.7234 26.775 67.6398 26.7466 67.5701 26.7133C67.5611 26.5902 67.5502 26.3713 67.5646 26.205C67.71 26.2975 67.7867 26.3872 67.8235 26.4817C67.8384 26.5232 67.8424 26.6391 67.8235 26.7915Z" fill="#F7916E"/>
<path d="M68.4851 29.3997C68.4348 29.3997 68.376 29.3763 68.3233 29.3514C68.3282 29.352 68.3337 29.3524 68.3387 29.3524C68.491 29.3524 68.5468 29.0342 68.5468 29.0342C68.5468 29.0342 68.0206 28.3145 67.9723 28.1949C67.9314 28.0863 67.8045 27.4745 67.7891 27.3998L68.1963 28.1725C68.1963 28.1725 68.6962 29.0342 68.8156 29.0342C68.9312 29.0342 69.0248 28.9187 68.9944 28.874C68.969 28.8252 68.8938 28.3477 68.849 28.2657C68.8047 28.1875 68.4945 27.2505 68.4572 27.135L68.8938 27.9743C68.8938 27.9743 69.2184 28.874 69.3469 28.874C69.3474 28.874 69.3484 28.874 69.3489 28.874C69.4798 28.859 69.4425 28.6608 69.4758 28.6276L69.3155 27.952L69.0805 26.8069L69.5619 27.6424L69.6292 28.4747H69.7223L69.9349 28.2995L69.9573 27.6015L69.6292 26.7915L70.0503 27.5307V28.1501H70.2709L70.4088 27.6353C70.4277 27.7509 70.4352 27.8365 70.4352 27.8473C70.4352 27.8642 70.4143 27.9615 70.3909 28.0621C70.3774 28.1202 70.363 28.1799 70.3511 28.2264C70.3426 28.2591 70.3351 28.2855 70.3307 28.2995C70.3222 28.3269 70.2769 28.3572 70.2241 28.3847C70.1793 28.408 70.1295 28.4294 70.0927 28.4438C70.0613 28.4563 70.0394 28.4638 70.0394 28.4638L69.9413 28.5498L69.8477 28.6315L69.7337 28.732C69.7337 28.732 69.6999 28.7919 69.547 28.9895C69.436 29.1369 69.2772 29.1558 69.2035 29.1558C69.1781 29.1558 69.1627 29.1533 69.1627 29.1533C69.1627 29.1533 69.0248 29.2209 68.9088 29.2209C68.8326 29.2209 68.734 29.1453 68.6693 29.1453C68.6324 29.1453 68.6066 29.1698 68.6026 29.2468C68.5966 29.3629 68.5478 29.3997 68.4851 29.3997Z" fill="#F7916E"/>
<path d="M59.7188 25.5024C59.7188 25.5024 60.3949 25.1992 60.6279 24.8258C60.8609 24.4529 61.3274 23.5433 61.304 22.7033C61.2806 21.8645 61.2806 21.8645 61.2806 21.8645C61.2806 21.8645 59.672 21.4617 59.2752 21.1146C58.8789 20.7683 56.9631 20.5944 56.1601 20.9728C55.3575 21.3511 57.5496 24.523 57.5496 24.523L59.7188 25.5024Z" fill="#88A4DB"/>
<path d="M70.6493 46.7561C70.6493 46.7561 70.6493 48.4977 70.6493 48.7619C70.6493 49.0259 70.4781 49.6015 70.8978 50.0679C71.3175 50.5344 71.9393 50.6589 72.4058 50.6589C72.8723 50.6589 73.401 50.8143 73.401 50.8143C73.401 50.8143 74.6601 51.4051 75.4378 51.5605C76.2149 51.7162 76.8527 51.6073 77.0394 51.3115C77.2261 51.0163 77.2415 50.5184 77.2415 50.3477C77.2415 50.177 76.7905 49.6791 76.1686 49.4461C75.5468 49.2125 74.0567 48.5599 73.9307 48.513C73.8048 48.4664 73.292 48.1865 73.292 48.1865L72.9186 46.2895L72.2968 45.9943L70.6493 46.7561Z" fill="#423E3B"/>
<path d="M73.603 48.5908C73.603 48.5908 72.7014 49.0727 72.561 49.3529C72.4211 49.6322 72.6233 49.9903 72.6855 50.0679C72.7477 50.1456 74.5978 50.8765 74.8935 51.0785C75.1887 51.2806 76.0441 51.5142 76.4175 51.3738C76.7904 51.2339 77.0856 50.752 77.0856 50.5653C77.0856 50.3786 76.4648 49.8244 76.0749 49.5396C75.6851 49.254 73.603 48.5908 73.603 48.5908Z" fill="#423E3B"/>
<path d="M71.637 39.7291C71.3761 40.3967 70.256 40.4156 69.6112 40.3668C69.3309 40.3444 69.1407 40.311 69.1407 40.311L69.0362 40.2438L68.5582 39.9382L65.5253 39.147L61.7002 37.6429L59.4165 36.7439C59.4165 36.7439 59.5808 34.9002 59.5808 34.6429C59.5808 34.3889 62.3529 33.1054 62.3529 33.1054C62.3529 33.1054 64.3832 33.3852 64.5251 33.3852C64.663 33.3852 69.9353 35.669 69.9353 35.669C69.9353 35.669 71.5434 36.5572 71.8013 37.3965C71.8536 37.5758 71.8949 37.7401 71.9203 37.8969V37.9004C72.0214 38.4864 71.9323 38.9788 71.637 39.7291Z" fill="#A3B0B5"/>
<path d="M73.4019 47.0049C73.4019 47.0049 72.9354 47.8599 71.8461 47.7807C71.5996 47.7622 71.3871 47.7399 71.2078 47.7105C70.585 47.6133 70.3236 47.4457 70.3236 47.2066C70.3236 46.8964 69.3867 43.4602 69.1631 42.3744C68.9431 41.292 69.0362 40.2435 69.0362 40.2435L69.0586 39.4857L69.07 39.1093C69.07 39.1093 70.4765 37.2733 71.9203 37.8966V37.9001C72.9877 39.8999 73.4019 47.0049 73.4019 47.0049Z" fill="#A3B0B5"/>
<path d="M69.0363 40.2437L68.5584 39.938L68.282 39.8658L67.1798 39.578C66.9901 39.444 66.8009 39.3753 66.551 39.2847C66.2787 39.1842 64.9314 38.5793 63.7261 38.0346C63.7361 37.93 63.7311 37.7648 63.7236 37.6283C63.7386 37.5836 63.762 37.5118 63.7859 37.4356C64.2758 37.6906 64.9917 38.0212 65.9053 38.3294C67.1783 38.7581 68.3906 39.1762 69.0587 39.4858L69.0363 40.2437Z" fill="#8B979C"/>
<path d="M71.2082 47.7107C70.5854 47.6135 70.324 47.4458 70.324 47.2068C70.324 47.1835 70.3185 47.1411 70.3086 47.0833C70.2369 46.6776 69.9312 45.4911 69.6474 44.3715C69.4433 43.5654 69.2501 42.7943 69.1635 42.3746C69.0445 41.7891 69.0171 41.2136 69.0171 40.8083C69.0171 40.4647 69.0365 40.2437 69.0365 40.2437L69.0589 39.4859C69.3611 39.6278 69.5478 39.7472 69.5777 39.8369C69.6076 39.9306 69.6076 40.1024 69.6115 40.3666C69.6185 40.9153 69.6484 41.8557 70.0258 43.2887C70.3947 44.6951 70.899 46.4719 71.2082 47.7107Z" fill="#8B979C"/>
<path d="M71.1302 51.8091C71.1302 51.8091 72.2962 52.8511 72.6074 53.0532C72.918 53.2552 73.7734 54.0479 73.8202 54.4057C73.867 54.7634 73.4473 55.0745 72.9803 55.2612C72.5143 55.4473 71.6903 55.634 71.2084 55.5872C70.726 55.5405 70.0887 55.043 70.0887 55.043L68.6115 53.5819C68.6115 53.5819 67.6014 52.96 67.6168 52.6798C67.6322 52.4005 67.3833 51.2962 67.3833 51.1717C67.3833 51.0473 67.2992 50.2392 67.3415 50.1302C67.3833 50.0212 68.5647 49.5397 68.5647 49.5397L69.3887 49.2908C69.3887 49.2908 70.0573 50.612 70.1972 50.8143C70.3376 51.0164 71.1302 51.8091 71.1302 51.8091Z" fill="#423E3B"/>
<path d="M70.5768 51.8091C70.5768 51.8091 69.3889 52.4314 69.1404 52.711C68.8915 52.9909 68.8452 53.0691 68.8452 53.0691C68.8452 53.0691 70.0953 54.7395 71.0373 55.1368C71.9788 55.5341 73.556 54.7941 73.6645 54.3591C73.7736 53.9238 72.2033 52.9287 72.2033 52.9287C72.2033 52.9287 70.9646 51.5979 70.5768 51.8091Z" fill="#423E3B"/>
<path d="M67.0439 43.3666C66.4957 43.5049 66.0516 43.5274 65.6862 43.4825C65.3765 43.4452 65.1266 43.3596 64.925 43.2581H64.921C64.7641 43.1799 64.6337 43.0941 64.5257 43.016C64.104 42.714 62.1225 42.4559 60.0215 42.1054C58.2158 41.8073 56.428 41.1237 55.5179 40.6577C55.3685 40.5831 55.245 40.5123 55.1484 40.4526C54.9692 40.3367 54.8721 40.1838 54.8273 40.0198C54.7417 39.7247 54.8199 39.3891 54.8985 39.176C54.9433 39.0455 54.9842 38.9599 54.9842 38.9599C54.9842 38.9599 55.1071 38.837 55.3127 38.6389C55.5029 38.4522 55.7638 38.1982 56.0625 37.9109C56.9059 37.1015 58.0365 36.0305 58.6823 35.4858C58.9511 35.2583 59.1373 35.12 59.1816 35.135C59.2419 35.1538 59.4355 35.2917 59.6934 35.4893C59.7825 35.5572 59.8801 35.6313 59.9807 35.7094C60.1634 35.8553 60.3576 36.012 60.5478 36.1645C60.6742 36.2689 60.8012 36.3736 60.9212 36.4712C61.3578 36.829 61.7008 37.1169 61.7008 37.1169C61.7008 37.1169 62.6562 37.5535 63.7266 38.0344C64.9319 38.5792 66.2791 39.184 66.5515 39.2845C67.0663 39.4712 67.3242 39.5644 67.8574 40.3326C67.9769 40.5043 68.0744 40.7359 68.1302 40.9938L68.171 41.2029L68.175 41.2396C68.2865 42.0904 68.0147 43.12 67.0439 43.3666Z" fill="#B4BFC3"/>
<path d="M69.7301 49.5237C69.7301 49.5237 68.9838 50.3934 67.898 50.2402C67.8383 50.2328 67.7825 50.2217 67.7262 50.2137C66.7972 50.0535 66.7151 49.8036 66.7151 49.8036C66.7151 49.8036 65.689 47.035 65.2524 46.0089C64.8197 44.9823 64.9203 43.2582 64.9203 43.2582H64.9243L65.5252 42.8335L68.1295 40.9939L68.1703 41.203L68.1743 41.2397L69.7301 49.5237Z" fill="#B4BFC3"/>
<path d="M64.9165 43.2566C64.7612 43.179 64.6317 43.0938 64.5247 43.016C64.103 42.714 62.1215 42.4559 60.0205 42.1055C62.1215 42.4559 64.103 42.714 64.5247 43.016C64.6317 43.0938 64.7612 43.179 64.9165 43.2566ZM57.1075 41.3309C56.2174 41.0108 55.5044 40.6767 55.1475 40.4526C55.244 40.5123 55.3675 40.5831 55.5169 40.6578C55.9077 40.8579 56.4608 41.0983 57.1075 41.3309Z" fill="#941A1F"/>
<path d="M64.9242 43.2583H64.9202C64.9187 43.2578 64.9177 43.2572 64.9167 43.2568C64.7614 43.1791 64.6319 43.094 64.5249 43.0162C64.1032 42.7142 62.1217 42.4561 60.0207 42.1057C58.9912 41.9355 57.9666 41.6397 57.1078 41.331C56.461 41.0984 55.9079 40.8581 55.5171 40.658C55.6764 40.4662 55.8113 40.2747 55.8975 40.1237C56.236 40.3447 56.6552 40.5473 57.17 40.6912C59.1589 41.2509 64.0395 41.9378 64.6628 42.1241C65.0322 42.2365 65.3419 42.4528 65.5251 42.8336L64.9242 43.2583Z" fill="#99A4A8"/>
<path d="M55.1474 40.4526C54.9662 40.3377 54.8676 40.1817 54.8218 40.0141C54.8233 40.016 54.8248 40.018 54.8263 40.0199C54.8711 40.1838 54.9682 40.3367 55.1474 40.4526Z" fill="#941A1F"/>
<path d="M67.7266 50.2139C66.7976 50.0537 66.7154 49.8037 66.7154 49.8037C66.7154 49.8037 65.6893 47.0352 65.2527 46.0091C64.9913 45.3891 64.9246 44.5149 64.9126 43.92C64.9112 43.8428 64.9102 43.771 64.9102 43.7043C64.9102 43.433 64.9206 43.2584 64.9206 43.2584H64.9246L65.5255 42.8337C65.6107 43.0124 65.6669 43.2249 65.6858 43.4828C65.6968 43.5983 65.6968 43.7253 65.6893 43.8632C65.6261 44.9227 65.5698 45.7286 66.4545 47.5649C66.8722 48.4266 67.3462 49.4119 67.7266 50.2139Z" fill="#99A4A8"/>
<path d="M63.1479 33.2695C63.1479 33.2695 62.7043 35.624 62.1925 35.9486C62.0655 36.0306 61.7374 36.1647 61.3043 36.3294H61.3008C61.1813 36.3737 61.0543 36.4225 60.9204 36.4714C59.5697 36.9636 57.6181 37.6168 57.1999 37.8409C57.1103 37.8887 56.9988 37.9708 56.8718 38.0793C56.5208 38.3815 56.0583 38.8739 55.67 39.3031C55.2592 39.7582 54.9386 40.147 54.9386 40.147C54.9386 40.147 54.8938 40.0982 54.8266 40.02C54.6847 39.8483 54.4278 39.5272 54.2854 39.2399C54.0763 38.8181 52.9795 35.9037 52.3492 34.1089C52.2631 33.8704 52.1471 33.5752 52.0057 33.2471C51.0881 31.0938 49.1774 27.3813 49.1734 27.019C49.1699 26.5978 49.4796 25.6199 49.6433 25.4336C49.8076 25.2469 51.2743 23.392 51.4386 23.1351C51.6029 22.8737 53.33 21.3954 54.1211 21.1162C54.9162 20.8325 57.8307 21.045 57.8307 21.045C57.8307 21.045 58.7413 21.4443 58.9504 21.7465C59.159 22.0487 60.1144 25.3136 60.1403 25.4562C60.1627 25.594 60.9538 28.5114 60.9802 28.6275C61.0026 28.743 62.0058 31.7282 62.0282 32.3101C62.0506 32.8961 63.1479 33.2695 63.1479 33.2695Z" fill="#659CD4"/>
<path d="M50.6499 24.1716C50.6658 24.0431 50.74 23.6643 51.0676 23.4966C51.094 23.483 51.1398 23.4701 51.2025 23.4572C51.0542 23.6524 50.856 23.9083 50.6499 24.1716Z" fill="#C7C8C6"/>
<path d="M54.2545 25.3677C53.5271 25.3677 52.851 25.1905 52.4214 25.0172C51.813 24.7718 50.7819 24.3461 50.7819 24.3461L50.646 24.2152C50.646 24.2152 50.6465 24.1992 50.65 24.1718C50.8561 23.9085 51.0543 23.6525 51.2026 23.4573C51.2136 23.4548 51.2255 23.4529 51.2375 23.4503C51.1946 23.5176 51.1663 23.5604 51.1663 23.5604C51.1663 23.5604 51.5392 23.7138 51.819 23.7615C52.0699 23.8019 53.0706 24.1814 54.2291 24.1814C54.363 24.1814 54.499 24.1757 54.6364 24.1648C55.4842 24.0956 55.8327 23.6088 55.9408 23.1497C56.2684 23.1378 56.471 23.1312 56.471 23.1312C56.471 23.1312 56.69 23.4678 56.5432 23.9268C56.3958 24.3863 56.2221 25.0057 55.1785 25.2617C54.8714 25.3368 54.5587 25.3677 54.2545 25.3677Z" fill="#537FAC"/>
<path d="M55.898 40.1235C55.678 39.9802 55.4922 39.8284 55.3369 39.6799C55.436 39.5654 55.5495 39.4374 55.6705 39.3031C55.8273 39.5868 55.9503 39.7994 55.9876 39.8367C56.019 39.8701 55.9816 39.9777 55.898 40.1235Z" fill="#8F989C"/>
<path d="M55.5172 40.658C55.3678 40.5833 55.2444 40.5125 55.1478 40.4528C54.9686 40.3369 54.8715 40.184 54.8267 40.02C54.8939 40.0983 54.9387 40.1471 54.9387 40.1471C54.9387 40.1471 55.0985 39.9533 55.3365 39.6801C55.4918 39.8285 55.6775 39.9804 55.8976 40.1237C55.8114 40.2747 55.6765 40.4662 55.5172 40.658Z" fill="#798288"/>
<path d="M63.726 38.0347C63.6598 38.0047 63.5935 37.9754 63.5283 37.9456C63.6398 37.7873 63.7076 37.6767 63.7076 37.6767C63.7076 37.6767 63.7135 37.6584 63.7235 37.6284C63.731 37.7649 63.7359 37.9301 63.726 38.0347Z" fill="#6D787E"/>
<path d="M61.5181 38.6997C61.0875 38.6997 60.5438 38.6729 60.2635 38.5385C59.7975 38.3144 59.2036 38.1731 59.2036 38.1731L57.1066 38.1277L56.8721 38.0793C56.999 37.9708 57.1106 37.8887 57.2002 37.8409C57.2549 37.8115 57.3366 37.7742 57.4396 37.7314C58.973 38.0511 60.1704 38.2586 60.3009 38.2586C60.4432 38.2586 60.8161 38.5385 61.3045 38.5385C61.7939 38.5385 62.1927 38.5385 62.1927 38.5385C62.1927 38.5385 62.939 38.4006 62.9838 38.1875L63.0212 38.1201H63.0247C63.062 38.0828 63.1222 38.0684 63.185 38.0605L63.1964 38.057C63.3199 38.0461 63.4578 38.0461 63.521 37.956C63.5235 37.9525 63.526 37.949 63.5285 37.9455C63.5937 37.9753 63.6599 38.0046 63.7261 38.0346L63.7077 38.1277C63.652 38.2362 63.2004 38.3442 63.1481 38.4076C63.0924 38.4712 62.3013 38.6878 62.1146 38.6878C62.0399 38.6878 61.8039 38.6997 61.5181 38.6997Z" fill="#8F989C"/>
<path d="M54.9386 40.147C54.9386 40.147 54.8937 40.0982 54.8265 40.02C54.6846 39.8483 54.4278 39.5272 54.2854 39.2399C54.1569 38.9801 53.6914 37.7757 53.206 36.4692C54.255 36.8442 55.9696 37.4208 57.1775 37.6765C57.2656 37.695 57.3532 37.7135 57.4393 37.7314C57.3363 37.7742 57.2546 37.8115 57.1999 37.8409C57.1102 37.8887 56.9987 37.9708 56.8718 38.0793L56.0617 37.9111L54.7892 37.6462C54.7892 37.6462 55.0391 38.1316 55.312 38.639C55.4349 38.8704 55.5619 39.1021 55.6699 39.3031C55.5489 39.4375 55.4354 39.5655 55.3363 39.68C55.0984 39.9533 54.9386 40.147 54.9386 40.147ZM60.3493 36.322C60.2074 36.322 54.6812 34.2697 54.4502 34.1089C54.2147 33.9447 53.5804 30.5606 53.5804 30.5606L53.0785 30.6149L52.8789 28.5602C52.8789 28.5602 53.5615 29.9484 53.7258 30.3515C53.8866 30.7584 54.4014 33.2615 54.6025 33.6016C54.7882 33.9173 55.0267 33.9297 55.0645 33.9297C55.0675 33.9297 55.0695 33.9297 55.0695 33.9297C55.0695 33.9297 55.7297 31.7213 55.9836 30.8216C56.2036 30.0454 56.4984 29.2434 56.5467 29.1532L56.5432 29.1726C56.4829 29.3737 55.6137 33.37 55.5654 33.7286C55.5206 34.083 55.4907 34.2543 55.5654 34.3031C55.5679 34.3045 55.5713 34.3057 55.5748 34.3057C55.6804 34.3057 56.1902 33.7106 56.237 33.6349C56.2639 33.5886 56.3958 33.4707 56.466 33.4707C56.5133 33.4707 56.5322 33.5254 56.4685 33.6948C56.3117 34.1164 56.3117 34.5492 56.3117 34.5492C56.3117 34.5492 57.7336 35.2246 58.1622 35.3889C58.2966 35.4412 58.4833 35.4712 58.6815 35.4859C58.8239 35.4974 58.9737 35.5015 59.1171 35.5015C59.3446 35.5015 59.5547 35.492 59.6926 35.4894L59.7892 35.4859C59.9799 35.4859 60.5271 35.379 60.6645 35.379C60.7103 35.379 60.7103 35.3908 60.6366 35.4224C60.4798 35.4859 60.2074 35.6091 59.9799 35.7096C59.7748 35.7992 59.6105 35.8743 59.6105 35.8743C59.6105 35.8743 60.0621 36.0307 60.547 36.1647C60.663 36.1975 60.781 36.2283 60.8955 36.2547C60.6251 36.2946 60.4021 36.322 60.3493 36.322Z" fill="#537FAC"/>
<path d="M63.8716 36.7214C63.8716 36.7214 63.8716 37.046 63.8716 37.1172C63.8716 37.1874 63.7073 37.6767 63.7073 37.6767C63.7073 37.6767 63.6367 37.7922 63.5207 37.9561C63.4574 38.0462 63.3195 38.0462 63.196 38.0571L63.1846 38.0606C63.1219 38.0685 63.0616 38.0829 63.0243 38.1203H63.0208L62.9835 38.1876C62.9386 38.4007 62.1924 38.5386 62.1924 38.5386C62.1924 38.5386 61.7936 38.5386 61.3042 38.5386C60.8158 38.5386 60.4429 38.2587 60.3005 38.2587C60.1626 38.2587 58.8343 38.0273 57.1774 37.6767C55.5205 37.3252 52.9087 36.3709 52.3715 36.1617C51.8373 35.9487 52.0464 35.8108 51.7895 35.3443C51.5316 34.8777 50.0654 30.9373 50.0654 30.9373L52.9271 30.6315L53.5803 30.5607C53.5803 30.5607 54.2146 33.9448 54.4501 34.109C54.6811 34.2698 60.2074 36.3221 60.3493 36.3221C60.4872 36.3221 61.7936 36.1354 62.0619 36.0199C62.3268 35.9038 62.9611 36.1129 62.9611 36.1129L63.8716 36.7214Z" fill="#FAB597"/>
<path d="M62.1924 38.5386C62.1924 38.5386 61.7936 38.5386 61.3042 38.5386C60.8158 38.5386 60.4429 38.2587 60.3005 38.2587C60.17 38.2587 58.9727 38.0512 57.4393 37.7315C57.3531 37.7136 57.2655 37.6951 57.1774 37.6767C55.9696 37.4209 54.2549 36.8443 53.2059 36.4694C52.8151 36.3301 52.5169 36.2185 52.3715 36.1617C51.8373 35.9487 52.0464 35.8108 51.7895 35.3443C51.5316 34.8777 50.0654 30.9373 50.0654 30.9373L52.9271 30.6315C53.2592 30.8141 53.5017 30.9935 53.5017 30.9935C53.5017 30.9935 52.7444 31.3101 52.3825 31.5306C52.024 31.7547 50.8227 32.0454 50.8227 32.0454C50.8227 32.0454 50.752 32.1277 50.9496 32.4412C51.1473 32.7549 52.3715 35.7292 52.5577 35.8706C52.7444 36.0084 55.1401 36.7364 56.2036 37.0086C57.271 37.2809 59.3899 37.7998 59.7035 37.848C60.0132 37.8927 60.644 38.2025 60.8491 38.2249C60.9029 38.2309 60.9721 38.2329 61.0483 38.2329C61.2643 38.2329 61.5367 38.215 61.6666 38.2064C61.6706 38.2064 61.6751 38.2061 61.6796 38.2061C61.7697 38.2061 61.92 38.2578 62.0599 38.3091C62.1998 38.3608 62.3288 38.412 62.3761 38.412C62.3786 38.412 62.3805 38.412 62.3825 38.4116C62.4647 38.4007 62.7783 38.2065 62.7858 38.1203C62.7858 38.0273 62.3377 37.6878 62.3377 37.6878L62.5359 37.7101C62.5359 37.7101 62.8973 38.1094 63.0208 38.1203L62.9835 38.1876C62.9386 38.4007 62.1924 38.5386 62.1924 38.5386Z" fill="#F7916E"/>
<path d="M63.1962 38.0571C63.3047 37.9935 63.4093 37.8969 63.4053 37.8292C63.3978 37.7175 63.3157 37.6429 63.2863 37.5947C63.256 37.5538 62.7561 37.2625 62.6929 37.2248C62.7486 37.2436 63.2226 37.4074 63.2933 37.4188C63.363 37.4293 63.478 37.6505 63.5387 37.6505C63.5432 37.6505 63.5472 37.6489 63.5512 37.6464C63.603 37.6131 63.7787 37.4602 63.6781 37.2218C63.588 37.0157 63.0434 36.7024 62.9094 36.6238L63.603 36.9638L63.8718 37.1172C63.8718 37.1874 63.7075 37.6767 63.7075 37.6767C63.7075 37.6767 63.6368 37.7922 63.5208 37.9562C63.4576 38.0462 63.3197 38.0462 63.1962 38.0571Z" fill="#F7916E"/>
<path d="M54.6367 24.1649C53.3119 24.2733 52.0991 23.8064 51.8193 23.7615C51.5395 23.7138 51.1666 23.5604 51.1666 23.5604C51.1666 23.5604 51.6176 22.8739 51.6664 22.7205C51.7112 22.5643 51.6963 21.6611 51.651 21.3813C51.6032 21.1014 50.8415 20.1385 50.8415 20.1385C50.8415 20.1385 50.4835 18.9108 50.9644 18.7547C51.4459 18.5973 52.1777 18.5374 52.7712 18.568C53.2148 18.5903 54.2339 19.1125 54.6999 19.3659C54.8532 19.4482 54.9463 19.5009 54.9463 19.5009C54.9463 19.5009 54.9946 20.2541 55.0728 20.84C55.1106 21.1349 55.1589 21.3887 55.2112 21.4748C55.364 21.7393 55.8161 22.0345 55.9431 22.4855C56.066 22.9371 55.9575 24.0569 54.6367 24.1649Z" fill="#FAB597"/>
<path d="M53.7323 21.0273C53.5262 21.0273 53.3419 21.0104 53.211 20.9705C52.7221 20.8212 51.8115 20.2806 51.8115 20.2806C51.8344 20.0491 54.3526 19.4968 54.6996 19.3659C54.853 19.4482 54.9461 19.5009 54.9461 19.5009C54.9461 19.5009 54.9944 20.2541 55.0725 20.84C54.7399 20.9453 54.1833 21.0273 53.7323 21.0273Z" fill="#F7916E"/>
<path d="M55.5676 18.5604C55.5676 18.5604 55.7229 19.4546 55.7229 19.7345C55.7229 20.0141 55.4118 20.1701 55.1788 20.2786C54.9458 20.3875 53.9241 20.7759 53.3466 20.7759C52.7691 20.7759 52.2558 20.5116 52.0382 20.3875C51.8202 20.263 49.9079 19.5015 49.5664 18.8949C49.2238 18.2881 48.9749 17.1535 49.3951 16.6407C49.8148 16.1269 50.8877 15.3652 50.9813 15.3035C51.0739 15.2412 52.2717 14.8523 52.8776 15.1635C53.484 15.4742 54.3239 16.2827 54.3702 16.5625C54.417 16.8424 54.666 16.8578 54.9298 17.1843C55.1947 17.5114 55.5676 18.5604 55.5676 18.5604Z" fill="#FAB597"/>
<path d="M52.4489 15.4621C52.4489 15.4621 51.5677 15.9405 51.3113 16.0342C51.0544 16.1268 50.6347 16.3135 50.565 16.5235C50.4948 16.7336 50.8568 17.8295 50.9265 18.028C50.9967 18.2262 51.2177 18.9611 51.2177 18.9611L51.1714 19.5441H50.5182L51.1157 20.5004L51.5294 21.1147C51.5294 21.1147 51.1714 21.1064 50.2852 20.4416C49.399 19.7765 48.4775 18.6435 48.2908 17.9096C48.1046 17.1768 48.7459 15.7892 49.2238 15.3456C49.7018 14.9025 51.1829 14.5068 51.9526 14.5649C52.7223 14.6227 52.909 14.9728 52.909 14.9728L52.9976 15.2291L52.4489 15.4621Z" fill="#3D1D21"/>
<path d="M51.665 19.7965C51.665 19.7965 51.781 20.1077 51.665 20.2629C51.548 20.4189 51.2214 20.4263 51.198 20.4263C51.1746 20.4263 50.1798 19.8741 50.0554 19.6645C49.9309 19.4544 50.1335 19.0577 50.1878 19.0188C50.2421 18.9805 50.8798 19.0657 50.9107 19.1512C50.9421 19.2368 51.665 19.7965 51.665 19.7965Z" fill="#FBC6AE"/>
<path d="M53.4391 16.5938C53.4391 16.5938 52.9865 16.8034 52.5822 17.0135C52.178 17.2235 52.0281 17.4043 51.935 17.5611C51.8414 17.719 51.9584 18.1566 51.9993 18.2204C52.0401 18.2839 52.5997 18.3777 52.9203 18.2725C53.2409 18.168 53.5152 18.274 53.5152 18.3203C53.5152 18.3656 53.6258 19.0189 53.2469 19.1587C52.868 19.2991 52.2208 18.9378 52.0809 18.8849C51.9405 18.8326 51.4745 18.6436 51.352 18.5603C51.2296 18.4767 50.8706 17.4919 50.8661 17.4567C50.8621 17.4217 50.5818 16.6521 50.7133 16.5469C50.8447 16.4419 51.4859 16.086 51.6029 15.9993C51.7194 15.9117 52.3781 15.5852 52.3781 15.5852C52.3781 15.5852 52.6778 15.7017 52.9975 16.0107C53.3166 16.3195 53.4391 16.5938 53.4391 16.5938Z" fill="#FBC6AE"/>
<path d="M54.6804 17.5904C54.6804 17.5904 54.6401 17.7129 54.5121 17.7304C54.3613 17.7508 54.1034 18.0046 54.0511 18.0046C53.9984 18.0046 53.9575 17.719 53.9695 17.6488C53.9809 17.5785 53.1709 16.6579 53.1709 16.6579L53.4388 16.5937C53.4388 16.5937 53.8355 17.0309 54.1442 17.2001C54.4534 17.3695 54.6695 17.486 54.6804 17.5904Z" fill="#FBC6AE"/>
<path d="M53.7246 30.9595C53.7246 30.9595 52.6179 27.8811 52.4486 27.2281C52.2788 26.5754 50.8345 24.0293 49.6431 25.4326C48.2576 27.0647 49.6431 32.1021 49.6431 32.1021C49.6431 32.1021 50.3934 31.7491 51.2079 31.4827C52.0224 31.2164 53.7246 30.9595 53.7246 30.9595Z" fill="#88A4DB"/>
<path d="M69.1765 25.5024C69.1765 25.5024 68.135 25.04 67.6725 25.5322C67.4897 25.73 67.3927 25.9281 67.3478 26.0884C67.2727 26.3344 67.3105 26.51 67.3105 26.51C67.3105 26.51 66.3437 26.3194 65.8179 26.1446C65.5939 26.0695 65.3698 25.9614 65.1871 25.8568C64.9332 25.7189 64.7585 25.596 64.7585 25.596C64.7585 25.596 62.9368 25.342 62.6351 25.2599C62.3329 25.1778 61.9336 25.0174 61.9336 25.0174C61.9336 25.0174 62.2243 24.98 62.5081 24.7819C62.7317 24.6257 62.9522 24.3682 63.0189 23.954C63.1837 23.0061 62.9338 22.5098 62.2169 22.4316L62.5898 22.1926L66.3775 22.9761C66.4298 22.9838 66.4597 22.9917 66.4597 22.9917L69.0495 25.0732L69.1765 25.5024Z" fill="#D9DAD7"/>
<path d="M69.1762 25.5024C69.1762 25.5024 68.1347 25.04 67.6722 25.5322C67.4895 25.73 67.3924 25.9281 67.3476 26.0884C67.2724 26.3344 67.3102 26.51 67.3102 26.51C67.3102 26.51 66.3434 26.3194 65.8176 26.1446C65.5936 26.0695 65.3696 25.9614 65.1868 25.8568C64.9185 25.4581 64.463 24.659 64.6606 23.7973C65.2391 22.9091 66.1124 22.9429 66.3772 22.9761C66.4295 22.9838 66.4594 22.9917 66.4594 22.9917L69.0493 25.0732L69.1762 25.5024Z" fill="#ECECEA"/>
<path d="M67.3105 26.51C67.3105 26.51 66.3437 26.3194 65.8179 26.1446C65.2917 25.9688 64.7585 25.596 64.7585 25.596C64.7585 25.596 62.9368 25.342 62.6351 25.2599C62.3329 25.1778 61.9336 25.0174 61.9336 25.0174C61.9336 25.0174 62.2243 24.98 62.5081 24.7819C62.5788 24.7933 62.6495 24.8009 62.7247 24.8124C63.478 24.9089 64.4518 25.1553 64.7694 25.2375C64.8366 25.256 64.87 25.2673 64.87 25.2673C64.87 25.2673 64.7615 25.0623 64.6684 24.8307V24.8124C64.6091 24.663 64.5678 24.5026 64.5748 24.3826V24.3682C64.5902 24.1109 64.6385 23.8863 64.6539 23.8196L64.6609 23.7973C64.6609 23.7973 65.0826 24.6102 65.1314 24.898C65.1722 25.1852 65.4371 25.4913 65.5864 25.4989L65.6646 25.5174C65.7801 25.5506 66.0868 25.6553 66.6797 25.842C66.967 25.9314 67.1835 26.0137 67.3478 26.0884C67.2727 26.3344 67.3105 26.51 67.3105 26.51Z" fill="#B2B4B3"/>
<path d="M69.3026 21.8451C69.2464 22.2702 69.3808 22.4645 69.3997 22.5913C69.4181 22.7183 68.9591 22.9907 68.9591 22.9907C68.9591 22.9907 68.6046 22.9529 68.4816 22.9235C68.3622 22.897 68.0819 22.77 68.0819 22.77L67.6676 23.158C67.6676 23.158 67.5297 23.6141 67.5113 23.6617C67.4929 23.707 67.2913 23.9042 67.0787 23.9083C66.8656 23.9157 67.0822 23.2142 67.0822 23.2142L67.1419 22.7891L66.888 22.8673C66.888 22.8673 66.7202 23.699 66.7162 23.7519C66.7093 23.8002 66.6903 24.1209 66.5445 24.1621C66.4031 24.2029 66.1606 24.0839 66.1606 24.0839C66.1606 24.0839 65.9475 24.2518 65.7952 24.207C65.6493 24.1662 65.7354 23.5538 65.7464 23.4647C65.72 23.5055 65.6309 23.6508 65.6155 23.707C65.5931 23.7743 65.3506 23.7105 65.2988 23.6617C65.2426 23.6141 65.3098 23.2181 65.3098 23.2181C65.3098 23.2181 65.4661 22.7068 65.6155 22.5277C65.7648 22.3484 66.1158 22.4116 66.2761 22.2329C66.4404 22.0576 66.9781 21.8451 66.9781 21.8451C66.9781 21.8451 67.3022 21.6878 67.5521 21.4417C67.8026 21.1919 68.276 20.0314 68.7351 18.6354C69.1941 17.2404 69.6193 16.1879 69.7353 15.8369C69.802 15.6317 69.9513 14.8631 70.0599 14.2661C70.138 13.8484 70.1978 13.5158 70.1978 13.5158C70.1978 13.5158 70.2874 13.4491 70.4368 13.348C70.4442 13.7328 70.4552 14.1208 70.4701 14.5051C70.489 15.0682 70.5114 15.6208 70.5413 16.1321C70.605 17.3037 70.5483 18.7663 70.4592 20.0837C69.9254 20.7926 69.336 21.6136 69.3026 21.8451Z" fill="#FAB597"/>
<path d="M70.6723 9.4339C70.4517 9.95268 70.4069 11.5906 70.4368 13.348C70.4443 13.7328 70.4552 14.1208 70.4702 14.5051C70.3208 14.4229 70.1829 14.3443 70.0599 14.2661C69.4406 13.8822 69.1533 13.5532 69.1533 13.5532C69.1533 13.5532 69.1907 13.3073 69.2091 13.1613C69.2275 13.016 69.7129 11.6728 70.1869 10.2808C70.6608 8.88924 70.9889 8.97089 70.9889 8.97089C70.855 9.10581 70.7425 9.26214 70.6723 9.4339Z" fill="#57C48D"/>
<path d="M54.934 20.509C54.934 20.509 55.0998 20.9242 54.69 21.22C54.2803 21.5162 53.2487 21.5405 52.8022 21.2801C52.3551 21.0193 52.3924 20.6838 51.8896 20.7585C51.3862 20.833 51.2125 20.875 51.1129 21.22C51.0133 21.5654 50.6195 23.53 50.5618 23.6471C50.5045 23.7639 50.4049 24.0249 51.4734 24.4471C52.5413 24.8692 52.7399 24.9683 54.4292 25.0555C56.1179 25.1426 56.3295 23.3911 56.3544 23.056C56.3793 22.721 55.2611 20.607 55.2237 20.509C55.1864 20.4109 54.9001 20.1968 54.9001 20.1968L54.934 20.509Z" fill="#D9DAD7"/>
<path d="M55.146 20.4973L55.0548 20.5088C55.0548 20.5088 55.1046 20.9652 54.9224 21.2198C54.7407 21.4745 54.5993 21.6896 53.7963 21.6229C52.9932 21.5572 52.7946 21.3666 52.6457 21.259C52.4968 21.1515 52.3554 20.791 52.099 20.818C51.8422 20.8452 51.5733 20.9096 51.534 20.9642C51.4946 21.0191 52.1319 21.2013 52.331 21.4084C52.5297 21.615 52.9185 21.9382 53.9043 21.9631C54.8891 21.988 55.0718 21.7062 55.2535 21.3417C55.4357 20.9776 55.3117 20.5556 55.3117 20.5556L55.146 20.4973Z" fill="#ECECEA"/>
<path d="M31.9798 58.5166L32.0173 59.4496C32.0173 59.4496 32.1486 59.9843 31.9854 60.2101C31.8221 60.4359 31.7786 60.5203 31.277 60.5545C30.7753 60.5876 30.18 60.7576 30.0284 60.8704C29.8767 60.9834 29.5378 61.5054 28.9422 61.6751C28.3471 61.8454 28.1317 62.0068 27.671 61.8602C27.2103 61.7141 27.3565 61.0222 27.3565 61.0222C27.3565 61.0222 27.4555 60.4454 27.8242 60.2555C28.1927 60.0656 29.2394 59.7147 29.4267 59.5363C29.5106 59.4566 29.7716 59.2457 29.9111 59.0679C30.0829 58.8488 30.1284 58.665 30.1284 58.665L31.9798 58.5166Z" fill="#423E3B"/>
<path d="M32.1175 58.8742C32.1175 58.8742 32.0354 59.1176 31.57 59.1976C31.479 59.2139 31.3686 59.2257 31.2414 59.224C30.4854 59.2209 29.9894 58.8125 29.9894 58.8125C29.9894 58.8125 30.0054 58.4599 30.0116 58.0608C30.0177 57.6622 29.7413 56.0024 29.9171 55.3294C30.0905 54.6525 29.8711 53.0823 29.8244 52.9174C29.7907 52.7988 29.3825 50.739 29.1242 48.569C29.0263 47.7535 28.9528 46.9193 28.9273 46.1703C28.9233 46.0551 28.9215 45.944 28.9191 45.836C28.8798 43.3215 29.3945 42.0727 29.3945 42.0727L32.4609 43.5302L32.6128 43.6015C32.6128 43.6015 32.6682 43.6983 32.7626 43.861C33.0404 44.3577 33.6579 45.4627 33.9594 46.1195L33.9629 46.1199C34.048 46.3076 34.1112 46.4599 34.1309 46.5518C34.1893 46.7968 34.056 48.0243 33.8894 49.2815C33.7133 50.6371 33.4989 52.0309 33.4378 52.2995C33.3688 52.6037 33.1155 53.888 32.9044 54.9968C32.7532 55.7998 32.6249 56.514 32.6106 56.6955C32.5766 57.1283 32.1175 58.8742 32.1175 58.8742Z" fill="#3FA565"/>
<path d="M32.534 53.3042L32.2351 53.1314C32.1831 52.1114 32.1124 51.0256 32.0664 50.7684C32.0407 50.6253 31.9513 50.2626 31.8389 49.8254C31.865 49.8481 31.8906 49.8714 31.9151 49.8946C32.104 50.9841 32.3356 52.2789 32.534 53.3042Z" fill="#256F47"/>
<path d="M33.8597 60.7501C33.8597 60.7501 33.4456 61.7911 33.4273 61.8712C33.4093 61.9512 32.5153 63.3459 32.3666 63.5857C32.2179 63.825 32.1157 64.0438 32.3035 64.3282C32.4914 64.6123 33.588 64.8289 34.1002 64.6084C34.6122 64.3882 34.8529 64.2115 34.9609 63.6163C35.0691 63.0202 35.2617 62.6334 35.2822 62.5438C35.3027 62.4533 35.4921 62.0336 35.5691 61.694C35.646 61.3545 35.64 60.407 35.4976 60.3857C35.3554 60.3638 33.8597 60.7501 33.8597 60.7501Z" fill="#423E3B"/>
<path d="M35.5119 61.1561C35.5119 61.1561 35.4347 61.1853 35.3116 61.2248C35.1275 61.2803 34.8385 61.353 34.5846 61.346C34.1698 61.3364 33.6792 60.9933 33.6792 60.9933C33.6792 60.9933 33.7099 60.0108 33.6715 59.8245C33.6265 59.6358 33.1958 55.8795 32.9049 54.9965C32.6178 54.1112 31.5342 47.7286 31.5478 47.6677C31.5523 47.6486 31.502 47.5737 31.4304 47.4599C31.2699 47.2183 31.0027 46.8084 30.9003 46.4286C30.8314 46.1538 30.8287 45.4974 30.8521 44.9044C30.8701 44.2896 30.9104 43.7409 30.9104 43.7409C30.9104 43.7409 31.601 43.6315 32.4613 43.5299C32.904 43.4758 33.3898 43.4241 33.8513 43.3908C34.7966 43.3156 35.6372 43.3142 35.7637 43.5142C36.0751 44.0087 36.7965 46.0216 36.6722 48.3238C36.5504 50.6298 35.5325 52.4374 36.0179 53.9162C36.5013 55.3908 36.182 57.0838 36.2458 57.4548C36.3099 57.8256 35.5119 61.1561 35.5119 61.1561Z" fill="#45B56C"/>
<path d="M29.1249 48.5688C29.1109 48.4521 29.0974 48.3343 29.0845 48.2171C29.2022 48.2495 29.2954 48.2779 29.3552 48.3007C29.3759 48.3085 29.401 48.3191 29.4303 48.3321C29.3364 48.4013 29.2299 48.4844 29.1249 48.5688ZM30.9637 46.6186C30.4511 46.4566 30.2894 46.363 30.2894 46.363C30.2894 46.363 29.9251 46.1267 29.4433 45.8182C29.4523 45.8182 29.4617 45.8187 29.4716 45.8196C29.6398 45.8288 29.834 45.844 30.116 45.844C30.31 45.844 30.5456 45.837 30.8427 45.8151C30.8495 46.0751 30.8675 46.2964 30.9006 46.4288C30.9175 46.4917 30.9391 46.5551 30.9637 46.6186Z" fill="#256F47"/>
<path d="M36.2857 55.5918L36.2132 55.4281L35.9139 55.2552C35.8915 54.9564 35.8577 54.6474 35.8101 54.3298C35.4366 51.8342 35.9286 48.9189 35.9286 48.9189L35.9101 45.6599C35.9101 45.6599 35.7021 45.7163 35.4213 45.7898C35.3852 45.7346 35.3397 45.6818 35.2833 45.6319C35.2833 45.6319 35.1425 45.5247 34.9526 45.5247C34.8307 45.5247 34.6883 45.5688 34.5504 45.7146C34.4526 45.8187 34.3418 45.9477 34.2295 46.0804C34.109 46.1048 34.0174 46.1202 33.9736 46.1202C33.9697 46.1202 33.9663 46.1202 33.9632 46.1197L33.9598 46.1194C33.9576 46.1194 33.9552 46.1194 33.9526 46.1194C33.7304 46.1194 32.7065 46.5472 32.406 46.6554C32.2217 46.7214 31.9496 46.7949 31.7636 46.8426C31.7064 46.8291 31.6453 46.8137 31.5804 46.7966C31.3334 46.7306 31.1298 46.6712 30.9633 46.6186C30.9387 46.5551 30.9172 46.4917 30.9002 46.4288C30.8671 46.2964 30.8491 46.0751 30.8423 45.8151C31.1799 45.7912 31.5971 45.7483 32.1231 45.6768C33.7851 45.4507 35.8594 44.7702 35.9388 44.4787C35.9604 44.3999 35.9925 44.2647 36.0305 44.0871C36.3301 44.8683 36.6863 46.2375 36.6863 47.7904C36.6863 47.9659 36.6819 48.1441 36.6722 48.3239C36.5733 50.1932 35.886 51.7348 35.8876 53.0393C35.8879 53.3439 35.9258 53.6362 36.0178 53.9163C36.1997 54.4712 36.2679 55.0571 36.2857 55.5918Z" fill="#287A4C"/>
<path d="M28.2023 48.4981C28.1563 48.5816 28.0922 48.6714 28.0922 48.6714C28.0922 48.6714 27.9869 48.7216 27.9069 48.7037C27.8269 48.6852 27.6598 48.6809 27.6598 48.6809L27.4601 48.73C27.4601 48.73 27.4601 48.73 27.3483 48.7045C27.2398 48.6801 27.135 48.5926 27.135 48.5926C27.135 48.5926 26.8942 48.6756 26.6422 48.5851C26.3865 48.4972 26.3969 48.1833 26.3969 48.1833L26.3617 47.5965L26.2959 47.6058C26.313 47.5892 26.3892 47.5191 26.4278 47.3497C26.4706 47.1607 26.4786 46.9607 26.4786 46.9607C26.4786 46.9607 26.6083 47.2058 26.5673 47.3275C26.5301 47.447 26.4966 47.6543 26.4966 47.6543L26.5803 48.1606C26.5752 48.1833 26.6521 48.4529 26.7193 48.4678C26.7865 48.4835 27.0008 48.5317 27.0008 48.5317L27.1087 48.4857C27.1087 48.4857 27.0466 48.3741 27.0225 48.3317L26.9651 48.2582L26.9248 47.9025L27.1603 48.2586L27.2972 48.5151C27.2991 48.5356 27.4752 48.5755 27.5257 48.5598C27.5803 48.5418 27.6145 48.5093 27.6145 48.5093L27.4162 48.182L27.4716 48.0565L27.7317 48.4515L27.8469 48.4779L27.9628 48.4271L27.8326 48.2293L27.6838 48.0543L27.8767 48.0644L28.0116 48.3601C28.0116 48.3601 27.9616 48.4905 28.1409 48.5011L28.2023 48.4981Z" fill="#FCE688"/>
<path d="M28.2545 48.3719C28.2564 48.3926 28.2345 48.4445 28.2024 48.4981C28.1564 48.5816 28.0923 48.6714 28.0923 48.6714C28.0923 48.6714 27.987 48.7216 27.907 48.7037C27.827 48.6852 27.6598 48.6809 27.6598 48.6809L27.4602 48.73C27.4602 48.73 27.4602 48.73 27.3484 48.7045C27.2398 48.6801 27.135 48.5926 27.135 48.5926C27.135 48.5926 26.8942 48.6756 26.6423 48.5851C26.3865 48.4972 26.397 48.1833 26.397 48.1833L26.3618 47.5965L26.296 47.6058L26.292 47.608C26.2546 47.6097 26.2006 47.6105 26.1572 47.594C26.0635 47.5629 26.0025 47.2229 26.0505 47.1598C26.0951 47.0961 26.1802 46.6308 26.1794 46.5901C26.1792 46.5469 26.5546 46.4633 26.6006 46.4238L26.6301 46.3665C26.6857 46.2108 26.7693 45.7828 26.8525 45.3107C26.9537 44.7449 27.1347 42.8759 27.3202 41.9088C27.502 40.9413 27.7291 40.3842 28.0198 39.5756C28.2781 38.8505 28.3976 37.9968 28.4177 37.8331L28.4203 37.8064C28.4203 37.8064 28.4627 37.7828 28.5358 37.7421L28.5555 37.7294C28.8863 37.5456 29.762 37.0949 30.1741 37.2047C30.6903 37.3456 29.7782 39.6071 29.7782 39.6071C29.7782 39.6071 29.6732 40.1147 29.5404 40.7606C29.3261 41.8117 29.0322 43.2282 28.9904 43.4136C28.9229 43.7107 28.649 44.4897 28.4777 44.9789C28.3041 45.4642 28.0174 46.5963 28.076 46.7979C28.0848 46.8335 28.0971 46.8832 28.1118 46.9371L28.1143 46.941L28.1299 47.0054C28.1938 47.2583 28.2673 47.6013 28.2778 47.674C28.2863 47.7702 28.2461 48.3194 28.2545 48.3719Z" fill="#FAB597"/>
<path d="M28.7704 44.1326C28.7331 44.1025 28.696 44.0722 28.6596 44.0425C28.7673 43.7396 28.9429 43.2184 29.0041 42.8784C29.0673 42.539 29.0629 41.8628 29.0677 41.2949C29.1348 41.6711 29.1958 42.002 29.2369 42.2378C29.1148 42.8273 29.0138 43.3104 28.9906 43.4136C28.9564 43.5637 28.8699 43.8363 28.7704 44.1326ZM27.0874 43.4977C27.1602 42.9183 27.2397 42.3289 27.3204 41.9087C27.5022 40.9412 27.7293 40.3842 28.02 39.5756C28.2783 38.8505 28.3978 37.9967 28.4179 37.8331C28.4743 37.792 28.5157 37.7574 28.536 37.7421L28.5557 37.7294C28.5557 37.7294 28.422 38.7214 28.3632 38.9809C28.3038 39.243 28.112 40.1344 27.9138 40.5938C27.7156 41.0532 27.6325 41.465 27.5559 41.9522C27.4937 42.3311 27.2988 42.9087 27.2374 43.4841L27.0874 43.4977Z" fill="#F7916E"/>
<path d="M29.3279 34.2326C29.3279 34.2326 28.8241 34.6308 28.7947 34.7608C28.7654 34.8908 28.2477 37.9368 28.2605 38.0344C28.2733 38.1316 28.6904 38.6041 29.044 38.7157C29.3975 38.8278 29.4243 34.2887 29.3279 34.2326Z" fill="#57C48D"/>
<path d="M35.4879 43.62C35.4037 43.813 34.5495 44.3627 33.3644 44.4573C32.1828 44.553 31.3234 44.4427 30.5844 44.0537C29.8458 43.6609 29.2894 42.7917 29.2899 42.5966C29.2903 42.4018 28.8525 40.3255 28.7137 38.9493C28.578 37.5731 28.8999 34.7541 28.9693 34.6421C29.0021 34.5856 29.0807 34.4754 29.2379 34.3161C29.4061 34.1524 29.6574 33.9336 30.0266 33.6842C30.4755 33.3788 30.4461 33.3827 30.5128 33.3867C30.5531 33.3888 30.6283 33.391 30.8644 33.3258C31.4915 33.1547 32.0064 33.3757 32.0064 33.3757C32.0064 33.3757 32.2414 33.3486 32.5486 33.3438C32.9363 33.3376 33.4345 33.3665 33.7115 33.5232C34.2097 33.8041 35.7704 34.6482 36.2033 36.0783C36.6361 37.5079 36.4494 38.3327 36.3119 38.8062C36.1777 39.2801 35.5743 43.4315 35.4879 43.62Z" fill="#44BE83"/>
<path d="M33.2664 39.7095L31.1978 39.1577L31.4119 37.8265L33.4809 38.3783L33.2664 39.7095Z" fill="white"/>
<path d="M34.3823 34.1661C34.3823 34.1661 33.584 35.047 33.1345 35.4076C32.685 35.7681 32.1326 36.3051 31.4074 36.12C30.6823 35.9349 30.6961 35.2233 30.7818 34.938C30.8674 34.6523 30.8228 34.1062 30.8047 33.9548C30.7862 33.8042 31.8277 31.8959 32.1786 31.692C32.5297 31.4876 33.0806 31.6544 33.1058 32.0066C33.1311 32.3593 33.2379 32.9089 33.4818 33.2686C33.7262 33.6288 34.1669 33.771 34.2755 33.9421C34.3835 34.1141 34.3823 34.1661 34.3823 34.1661Z" fill="#FAB597"/>
<path d="M28.8893 29.8858C28.8893 29.8858 28.5137 30.431 28.4817 30.8966C28.4498 31.3626 28.7055 31.9035 28.8754 32.268C29.045 32.6321 29.1371 32.9681 29.1371 32.9681C29.1371 32.9681 29.1518 33.6123 29.1841 33.6722C29.2164 33.7322 29.6489 33.7252 29.6489 33.7252L29.8154 34.0569L29.8754 34.0704L29.8437 34.2104L30.0022 34.2993C30.0022 34.2993 30.1747 34.5583 30.3957 34.6507C30.6163 34.7426 30.8934 34.6795 31.4002 34.4367C31.907 34.1943 32.5515 33.4364 32.6516 33.1335C32.7516 32.8303 32.4887 32.1822 32.5882 31.7424C32.6875 31.3027 32.6212 30.4362 32.2548 30.059C31.8883 29.6818 29.3966 29.5484 28.8893 29.8858Z" fill="#FAB597"/>
<path d="M29.3845 28.5573C29.3845 28.5573 29.2655 27.4454 30.0409 27.1024C30.8161 26.7593 32.2611 27.4931 32.8239 28.041C33.1165 28.3259 33.1896 28.826 33.2435 29.2102C33.276 29.4404 33.2951 29.6723 33.3071 29.9051C33.3144 30.0526 33.4187 30.4403 33.2093 30.4604C33.1208 30.4692 33.0384 30.4189 32.9652 30.369C32.8994 30.3243 32.8344 30.2771 32.7626 30.2425C32.5944 30.162 32.3898 30.1467 32.2538 30.0189C32.1093 29.8837 32.0881 29.6653 32.0056 29.4855C31.9018 29.2588 31.6986 29.0916 31.5825 28.8711C31.5123 28.7381 31.461 28.5727 31.3218 28.5149C31.2687 28.4926 31.2094 28.4904 31.1516 28.4891C30.9899 28.4869 30.8119 28.4773 30.6513 28.5018C30.5152 28.5223 30.4062 28.6129 30.2745 28.6492C29.9592 28.7381 29.6623 28.7678 29.3845 28.5573Z" fill="#351519"/>
<path d="M31.5757 32.0666C31.5757 32.0666 31.1048 31.7638 30.9493 31.5533C30.7937 31.3432 30.2252 30.8221 30.0435 30.851C29.8616 30.8798 29.5367 31.0619 29.0555 31.0054C28.5745 30.949 28.4864 30.8479 28.4864 30.8479C28.4864 30.8479 28.387 30.5705 28.4278 30.3906C28.4685 30.2108 28.7776 29.3562 29.077 28.961C29.3767 28.5667 29.6932 28.05 30.2905 27.9646C30.8879 27.8793 32.1157 28.0727 32.8239 29.1684C33.5321 30.2642 33.2811 30.7538 33.2543 31.1363C33.2269 31.5192 33.0748 31.8526 33.0435 32.0661C33.0124 32.2797 32.8295 31.3341 32.6282 31.3835C32.4266 31.4325 32.2666 31.7222 32.2666 31.7222C32.2666 31.7222 32.5032 32.3011 32.5176 32.3777C32.5316 32.4547 32.7039 32.9544 32.6656 33.0735C32.6277 33.1921 32.6391 33.3452 32.6391 33.3452C32.6391 33.3452 32.5863 32.6775 32.2183 32.4468C31.8501 32.2162 31.5757 32.0666 31.5757 32.0666Z" fill="#3D1D21"/>
<path d="M29.425 31.075C29.425 31.075 29.0111 31.1078 28.9436 31.1275C28.8763 31.1468 28.8571 32.0044 28.8783 32.0653C28.8997 32.1265 29.1963 32.2705 29.4715 32.1996C29.7467 32.1292 30.3268 32.0779 30.6209 32.1235C30.9146 32.169 31.1088 32.1782 31.0511 32.4945C30.9936 32.8105 30.5947 33.0564 30.4952 33.1251C30.3954 33.1934 30.8921 33.5369 31.2037 33.4607C31.5152 33.3842 31.6815 32.8669 31.7054 32.6066C31.7292 32.3466 31.6112 32.1865 31.5418 32.1221C31.4724 32.0574 30.9876 31.7235 30.9417 31.6776C30.896 31.6325 30.3037 30.938 30.0768 30.9494C29.8501 30.9617 29.6918 31.0518 29.425 31.075Z" fill="#FBC6AE"/>
<path d="M29.0449 31.8654L28.9092 32.0995C28.9092 32.0995 29.1743 32.4776 29.1817 32.5844C29.189 32.6911 29.2477 33.5921 29.2625 33.5956C29.2775 33.5991 29.5247 33.6236 29.6765 33.579C29.8281 33.5348 29.8837 33.4053 29.8837 33.4053L29.6887 33.2451L29.5259 33.0823L29.1285 32.0522L29.0449 31.8654Z" fill="#FBC6AE"/>
<path d="M30.6509 44.3577L30.8794 44.2477C30.8787 44.2606 30.8781 44.2736 30.8774 44.2872C30.796 44.3125 30.7199 44.3363 30.6509 44.3577Z" fill="#256F47"/>
<path d="M30.8774 44.2871C30.8781 44.2735 30.8788 44.2605 30.8795 44.2476L30.9427 44.2171C30.9668 44.2263 30.991 44.2355 31.0152 44.2442C30.9678 44.2591 30.9219 44.2731 30.8774 44.2871Z" fill="#287A4C"/>
<path d="M31.0153 44.2444C30.9911 44.2356 30.967 44.2264 30.9429 44.2172L33.8891 42.7978L33.8366 40.6478C33.9033 40.3879 34.0361 40.2076 34.1927 40.0825C34.1823 40.2549 34.1605 40.5901 34.1357 40.9768C34.0737 41.9046 33.9879 43.1294 33.9879 43.1294C33.9879 43.1294 33.807 43.1858 33.3452 43.4444C33.0298 43.6194 31.8258 43.9933 31.0153 44.2444Z" fill="#2B855F"/>
<path d="M22.9686 47.7811L17.9404 47.1309V48.4936L37.5545 59.8179V58.4553L22.9686 47.7811Z" fill="#3B5C88"/>
<path d="M22.9686 47.7813L17.9404 47.1311L37.5545 58.4556L36.2132 55.4282L22.9686 47.7813Z" fill="#7DBFEB"/>
<path d="M41.3811 72.6968L35.983 69.5802L20.8377 60.8267L20.8387 60.8394L13.7186 56.7252C13.3308 56.5016 12.6529 56.5296 12.2057 56.7883L1.44052 63.0043C0.993017 63.2629 0.944301 63.6539 1.33215 63.8777L9.43833 68.558L9.43474 68.5597L10.7276 69.3041L18.5475 73.8183L20.7486 75.0878L21.7551 75.6693V75.6702L23.5963 76.7322L28.9948 79.8487C29.3825 80.0728 30.0571 80.0447 30.5077 79.7861L41.2731 73.5703C41.7201 73.3117 41.7691 72.9204 41.3811 72.6968Z" fill="#C0BBAD"/>
<path d="M12.7654 68.541L20.9348 73.2579L20.9115 77.5335L23.9376 79.2808L40.3791 69.7878V69.0495L29.9474 68.054L21.7778 63.3376L21.8011 59.0616L2.3335 66.0692V66.8078L5.3592 68.5547L12.7654 68.541Z" fill="#636769"/>
<path d="M12.7654 67.8028L20.9348 72.519L20.9115 76.7952L23.9376 78.542L40.3791 69.0494L37.3532 67.3026L29.9474 67.3161L21.7778 62.5989L21.8011 58.3232L18.7754 56.5764L2.3335 66.069L5.3592 67.8159L12.7654 67.8028Z" fill="#D4D4D3"/>
<path d="M25.125 73.7837H20.9321L20.9348 72.519L12.7654 67.8028L5.3592 67.8159L2.3335 66.069L10.374 61.4271L25.125 73.7837Z" fill="#838687"/>
<path d="M39.6661 68.6376L39.7715 69.0123L23.9729 78.0073L20.9116 76.7952L23.9376 78.542L40.3792 69.0494L39.6661 68.6376Z" fill="#EDEEEB"/>
<path d="M25.125 73.7837L33.7067 68.8292V59.0956L25.125 64.0499V73.7837Z" fill="#898C8C"/>
<path d="M25.4537 63.7217L34.0351 58.7673L18.7454 49.9424L10.1641 54.8969L25.4537 63.7217Z" fill="#575359"/>
<path d="M9.83594 55.2252V64.9588L25.1254 73.7837V64.0499L9.83594 55.2252Z" fill="#686C6E"/>
<path d="M25.125 69.8232L33.7067 64.8689V57.309L25.125 60.0896V69.8232Z" fill="#75797B"/>
<path d="M9.83594 51.2647V60.9985L25.1254 69.8232V60.0896L9.83594 51.2647Z" fill="#5E6163"/>
<path d="M6.5874 56.4097L17.6086 50.0462V48.9444L6.5874 55.3073V56.4097Z" fill="#3E3B42"/>
<path d="M6.58794 55.3074L17.6092 48.9444L11.0216 45.1421L0 51.5056L6.58794 55.3074Z" fill="#575359"/>
<path d="M0 51.5056V52.6069L6.58777 56.4097V55.3073L0 51.5056Z" fill="#939594"/>
<path d="M6.5875 54.8237L17.6087 48.4608V47.0981L0.0224609 49.6686V51.0316L6.5875 54.8237Z" fill="#3B5C88"/>
<path d="M6.5875 53.4612L17.6087 47.0982L11.0441 43.3057L0.0224609 49.6687L6.5875 53.4612Z" fill="#7DBFEB"/>
<path d="M26.4072 68.6375L37.429 62.2741V60.3836L26.4072 66.7471V68.6375Z" fill="#3E3B42"/>
<path d="M26.4075 66.7473L37.4293 60.3838L17.7921 49.0499L6.77051 55.4132L26.4075 66.7473Z" fill="#575359"/>
<path d="M6.77051 55.413V57.3035L26.4075 68.6375V66.7471L6.77051 55.413Z" fill="#939594"/>
<path d="M26.4071 66.2637L37.4288 59.9003V58.5372L6.79297 53.5763V54.9394L26.4071 66.2637Z" fill="#3B5C88"/>
<path d="M26.4071 64.9001L37.4288 58.5372L17.8144 47.2128L6.79297 53.5763L26.4071 64.9001Z" fill="#7DBFEB"/>
<path d="M34.6396 72.6006L45.661 66.2376V65.1353L34.6396 71.4986V72.6006Z" fill="#C4C3C2"/>
<path d="M34.6401 71.4985L45.6614 65.1352L37.7067 60.5439L26.6851 66.9069L34.6401 71.4985Z" fill="#575359"/>
<path d="M26.6851 66.907V68.0094L34.6401 72.6006V71.4986L26.6851 66.907Z" fill="#939594"/>
<path d="M34.6401 71.0151L45.6615 64.6516V63.2889L26.708 65.0704V66.4331L34.6401 71.0151Z" fill="#3B5C88"/>
<path d="M34.6401 69.6523L45.6615 63.2888L37.7293 58.707L26.708 65.0703L34.6401 69.6523Z" fill="#7DBFEB"/>
<path d="M37.7293 58.707L44.8812 63.2894L34.6274 69.2445L26.708 65.0703L34.6401 69.6523L45.6615 63.2888L37.7293 58.707Z" fill="#A5DAF5"/>
<path d="M30.2493 54.3918L36.6489 58.5376L26.395 64.4931L19.4243 60.8682L26.4078 64.9001L37.4296 58.5372L30.2493 54.3918Z" fill="#A5DAF5"/>
<path d="M21.3173 65.8337L26.3453 66.4839V65.1212L8.07275 56.8241V58.1868L21.3173 65.8337Z" fill="#3B5C88"/>
<path d="M6.73145 53.7968V54.9119L8.07314 58.1868V56.8241L6.73145 53.7968Z" fill="#3B5C88"/>
<path d="M21.3177 64.4711L26.3457 65.1213L6.73145 53.797L8.07314 56.8242L21.3177 64.4711Z" fill="#7DBFEB"/>
<path d="M25.8043 64.9471L21.3445 64.3441L17.4111 62.2158L21.3176 64.4711L26.3456 65.1213L25.8043 64.9471Z" fill="#A5DAF5"/>
<path d="M11.0441 43.3057L16.8284 47.0987L6.57467 53.0538L0.0224609 49.6687L6.5875 53.4612L17.6087 47.0982L11.0441 43.3057Z" fill="#A5DAF5"/>
<path d="M34.6396 69.6524V71.0151L45.661 64.6516V63.2889L34.6396 69.6524Z" fill="#508AAB"/>
<path d="M5.91067 47.8193C5.91067 47.8193 5.10419 48.1711 5.28194 48.6218C5.45955 49.0731 5.91185 49.4148 6.41678 49.6061C6.92189 49.7977 7.73467 49.9867 7.73467 49.9867C7.73467 49.9867 7.07211 50.4672 7.12681 51.0274C7.18151 51.5873 7.05864 52.2118 7.87159 52.9587C8.68454 53.7057 9.89596 54.3346 9.89596 54.3346C9.89596 54.3346 14.2329 56.8215 15.2033 57.122C16.1735 57.4227 16.4468 57.616 16.5015 57.704C16.5562 57.7916 16.8704 57.989 17.1164 58.1433C17.3623 58.297 17.871 58.6532 17.9242 58.7074C17.9772 58.7621 18.2057 59.0342 18.5472 58.959C18.8891 58.8841 19.1453 58.6614 19.6203 58.8619C19.6991 58.6662 20.1477 58.6247 20.1477 58.6247L19.7239 57.8914L20.369 57.968L19.6203 57.1492C19.6203 57.1492 20.5218 57.0687 21.1285 57.3343C21.7351 57.6002 25.3671 58.6513 26.1442 59.3559C26.9212 60.0605 29.0939 61.6598 31.8614 63.1048C34.6286 64.5492 36.4325 65.3487 36.4325 65.3487L37.2687 65.8755L38.9358 65.0979L32.5446 60.6774L22.9937 54.8493C22.9937 54.8493 24.7928 53.792 24.7808 53.3933C24.769 52.9951 24.8237 52.6827 25.1244 52.7155C25.4249 52.7492 26.3734 52.5965 26.3734 52.5965L24.523 51.3388L5.91067 47.8193Z" fill="#3B5C88"/>
<path d="M13.3569 46.704L13.5949 46.433C13.5949 46.433 14.0274 46.3043 14.3786 46.3875C14.7297 46.4706 15.4188 46.7419 15.4188 46.7419L15.9432 47.0356L16.477 47.1039C16.477 47.1039 16.6262 47.4282 16.5529 47.628C16.4796 47.8285 15.8492 47.8425 15.8492 47.8425L13.3569 46.704Z" fill="#88A4DB"/>
<path d="M16.2852 47.2629C16.2852 47.2629 16.7642 47.3889 17.8252 47.6581C18.8858 47.9272 19.8646 48.167 19.9278 48.1945C19.9911 48.2212 23.8637 49.5844 23.9456 49.6902C24.0271 49.7962 25.1683 50.628 25.2218 50.73C25.2755 50.8324 25.7841 51.8406 25.8431 51.9381C25.9019 52.0366 26.3609 52.5429 26.3731 52.5968C26.385 52.6506 26.5149 52.753 26.3084 52.6933C26.1018 52.6335 26.1017 52.6335 26.1017 52.6335L25.8746 52.5472C25.8746 52.5472 25.5717 52.608 25.4676 52.4904C25.3637 52.3718 24.8534 51.7828 24.8534 51.7828C24.8534 51.7828 24.8606 51.9504 24.8047 52.0147C24.7488 52.079 24.7377 52.1303 24.6485 52.1185C24.5594 52.107 24.3834 52.0703 24.3406 52.0313C24.2979 51.9923 24.1172 51.7316 24.0899 51.6848C24.0625 51.6388 23.7453 51.403 23.7453 51.403C23.7453 51.403 21.0321 49.9309 20.9175 49.9331C20.803 49.9348 18.9358 49.5437 18.4628 49.4701C17.9895 49.3965 13.317 47.659 16.2852 47.2629Z" fill="#FAB597"/>
<path d="M7.05471 47.7294L7.15728 47.8952L7.12188 48.1718C7.12188 48.1718 6.96995 48.2046 6.95354 48.2593C6.93678 48.3145 7.01436 48.6388 7.19745 48.6955C7.38054 48.7524 7.65762 48.7546 7.65762 48.7546L7.93623 48.8759L8.27072 49.0994C8.27072 49.0994 7.58375 49.1738 7.34614 49.1336C7.1084 49.0933 6.68705 48.9252 6.25593 48.6845C5.82504 48.4436 5.7563 48.3109 5.74006 47.8803C5.72383 47.4492 5.68059 46.8581 5.9582 46.1794C6.23559 45.5008 6.78909 45.305 6.94343 45.2534C7.09764 45.2018 7.48171 45.1917 7.73761 45.2876C7.73761 45.2876 7.21504 45.3647 6.87508 45.7496C6.53525 46.1344 6.38603 46.3344 6.35969 46.4643C6.33339 46.5942 6.11801 46.8997 6.25799 46.9605C6.39767 47.0217 6.70963 47.1522 6.79714 47.287C6.88449 47.4222 7.05471 47.7294 7.05471 47.7294Z" fill="#351519"/>
<path d="M24.3193 49.9985C24.0576 50.8973 24.0688 51.9991 23.8611 52.3352C23.6531 52.6743 22.6419 52.8372 22.0732 52.6117C22.0354 52.5977 21.992 52.5803 21.9459 52.5589C21.2879 52.2704 19.8253 51.4854 19.9312 51.1581C20.0439 50.8032 19.8663 50.0947 20.3979 49.325C20.3979 49.325 21.8491 45.4454 21.9722 45.0804C22.0951 44.7151 22.4981 43.6391 23.2793 43.2027C23.3388 43.1677 23.4044 43.155 23.4648 43.1598C24.0892 43.2094 24.7397 45.0997 24.7784 46.1774C24.7833 46.3062 24.7808 46.4221 24.7645 46.5231C24.7593 46.5656 24.7546 46.6016 24.744 46.6364C24.509 47.5663 24.5808 49.0992 24.3193 49.9985Z" fill="#FAB597"/>
<path d="M33.6386 46.7924C33.6386 46.7924 33.5022 46.9517 33.3334 47.0821C33.1642 47.2129 32.5839 47.8886 32.4543 48.3047C32.3766 48.5537 32.1082 48.8881 31.8713 49.12C31.7081 49.2757 31.5626 49.3882 31.5014 49.3894L31.4426 49.3728C31.1134 49.2542 29.6808 48.4247 29.3553 48.3007C29.0037 48.1669 27.4967 47.846 26.6585 47.5616C26.0565 47.3596 25.2025 46.8173 24.7647 46.5232C24.5878 46.4064 24.4791 46.3285 24.4791 46.3285C24.388 46.2528 24.3032 46.1775 24.2239 46.1066C22.3689 44.4118 23.0573 43.272 23.4492 43.1638L23.465 43.1599C23.9234 43.0785 26.6544 44.099 27.4643 44.5809C28.286 45.0639 30.2895 46.363 30.2895 46.363C30.2895 46.363 30.573 46.5276 31.5808 46.7967C32.589 47.0632 32.6249 46.8791 32.7933 46.8485C32.9087 46.8295 33.2642 46.8112 33.4756 46.802L33.5158 46.798C33.5893 46.795 33.6386 46.7924 33.6386 46.7924Z" fill="#FAB597"/>
<path d="M25.8799 46.2097H30.0416V44.587H25.8799V46.2097Z" fill="#F7916E"/>
<path d="M35.3835 46.9399C35.2724 47.3066 34.5528 48.1681 34.4007 48.3773C34.2459 48.586 33.6921 49.9355 33.1944 50.2528C33.0084 50.372 32.826 50.4157 32.6623 50.4099C32.3886 50.4051 32.169 50.2643 32.0939 50.1115C31.973 49.8674 31.4855 49.6034 31.4416 49.3759L31.4419 49.3729C31.4342 49.3139 31.5091 49.1344 31.6307 48.9002C32.003 48.1827 32.7802 46.9448 32.7802 46.9448C32.7802 46.9448 33.2776 46.8227 33.475 46.802L33.5152 46.7981C33.6776 46.7911 34.1972 46.0901 34.5502 45.7147C34.9028 45.3423 35.2832 45.632 35.2832 45.632C35.7185 46.0171 35.4946 46.5731 35.3835 46.9399Z" fill="#FAB597"/>
<path d="M23.2844 52.3608C22.9739 52.3608 22.6296 52.229 22.6296 52.229C22.6296 52.229 22.4515 52.0178 22.1963 51.6195C22.4346 51.7233 22.8568 51.8908 23.105 51.8908C23.2038 51.8908 23.2751 51.8641 23.2961 51.7968C23.3908 51.4857 23.7761 48.3384 23.7547 48.2195C23.7303 48.1009 24.2235 46.1067 24.2235 46.1067C24.3029 46.1777 24.3876 46.2529 24.4788 46.3286C24.4788 46.3286 24.5875 46.4066 24.7644 46.5233C24.7591 46.5659 24.7545 46.6018 24.7439 46.6367C24.5089 47.5665 24.5807 49.0994 24.3191 49.9982C24.3191 49.9982 24.3191 49.9982 24.3191 49.9987C24.1615 50.5396 24.1029 51.1544 24.036 51.6313C24.0207 51.7399 24.0049 51.8419 23.9875 51.9337C23.9251 51.9762 23.8257 52.0593 23.6846 52.222C23.5937 52.3263 23.4434 52.3608 23.2844 52.3608Z" fill="#F7916E"/>
<path d="M31.4423 49.3728C31.1341 49.262 29.8583 48.5274 29.4301 48.3322C29.4009 48.3192 29.3758 48.3086 29.3551 48.3007C29.2952 48.278 29.2021 48.2496 29.0843 48.2171C28.8734 48.159 28.5842 48.0867 28.2681 48.0076C27.7232 47.8701 27.0984 47.7108 26.6582 47.5616C26.4687 47.4982 26.2544 47.4006 26.0357 47.2881C25.56 47.0426 25.0645 46.725 24.7645 46.5232C24.5876 46.4064 24.4788 46.3285 24.4788 46.3285C24.3877 46.2528 24.303 46.1775 24.2236 46.1066L24.9822 46.2042C24.9822 46.2042 25.5108 46.8353 26.4766 47.0291C27.4421 47.2233 28.5705 47.5018 28.8788 47.6177C29.187 47.7336 30.8463 48.1747 31.2346 48.5444C31.3435 48.6468 31.4859 48.7719 31.631 48.9002C31.5095 49.1344 31.4346 49.3138 31.4423 49.3728Z" fill="#F7916E"/>
<path d="M32.6623 50.4097C32.3886 50.4049 32.169 50.264 32.0939 50.1112C31.973 49.8671 31.4855 49.6032 31.4416 49.3757L31.4419 49.3726C31.4342 49.3136 31.5091 49.1342 31.6307 48.9C31.71 48.9709 31.7918 49.0458 31.8707 49.1198C32.1594 49.3883 32.4098 49.6458 32.3948 49.7625C32.3681 49.9695 32.5264 50.3283 32.6398 50.3704L32.6623 50.4097Z" fill="#F7916E"/>
<path d="M19.7401 49.5067C19.7401 49.5067 19.9798 49.5623 20.1493 49.4572C20.3187 49.3522 20.3984 49.3247 20.3984 49.3247C20.3984 49.3247 20.4117 49.6178 20.4798 49.7792C20.5479 49.9404 21.7373 50.8672 22.0621 51.4041C22.3867 51.941 22.6292 52.2288 22.6292 52.2288C22.6292 52.2288 23.416 52.5304 23.6842 52.2218C23.9523 51.9135 24.0697 51.8902 24.0697 51.8902L23.7453 53.1312C23.7453 53.1312 20.9334 56.5422 20.3302 56.5916C19.7269 56.6411 17.4141 55.3674 17.4141 55.3674C17.4141 55.3674 18.8398 51.1817 18.9591 50.9428C19.0786 50.7043 19.7401 49.5067 19.7401 49.5067Z" fill="#A3B0B5"/>
<path d="M18.0423 54.9574C18.0107 55.0842 17.9862 55.1784 17.9822 55.2116C17.9679 55.3227 18.8081 56.0912 18.8081 56.0912L19.1076 56.3218C19.1076 56.3218 17.7698 56.0587 17.1588 55.6907C16.7063 55.4163 14.2907 54.6471 12.7675 54.1894C12.2188 54.0249 11.7836 53.9015 11.6031 53.8603C10.911 53.6954 8.57007 51.2497 8.55195 50.7018C8.53414 50.1509 8.29535 49.9195 8.33193 49.6831C8.37127 49.4477 9.22746 48.9021 9.38661 48.7549C9.54558 48.6076 10.3548 48.0255 10.7018 47.8382C11.0512 47.6575 11.4662 47.391 11.6633 47.279C11.8639 47.1644 13.4635 46.48 13.5943 46.4323C13.7283 46.3859 15.9241 47.0878 16.8131 47.5705C17.7051 48.0535 18.0835 48.4771 18.5603 48.6115C19.0399 48.7427 20.2639 49.512 20.0857 49.8827C20.0857 49.8827 19.5851 50.9097 19.2922 51.5302C18.9958 52.1532 18.5093 53.6665 18.3688 53.9776C18.2678 54.1964 18.1256 54.6629 18.0423 54.9574Z" fill="#659CD4"/>
<path d="M19.1078 56.3218C19.1078 56.3218 19.0396 56.3083 18.9269 56.2833C18.8273 56.2233 18.7474 56.1734 18.7237 56.1568C18.6733 56.124 18.4372 56.1113 18.1382 56.0806C17.7847 55.9756 17.4104 55.8421 17.1589 55.6907C16.9887 55.5879 16.541 55.4146 15.9676 55.2143C15.8923 55.1635 15.813 55.1088 15.7296 55.0505C14.4343 54.147 13.2542 53.6511 13.148 53.5767C13.0453 53.4998 12.595 52.9453 12.1896 52.4482C12.019 52.2407 11.758 51.9826 11.5127 51.7537C11.9739 52.0159 12.5546 52.3821 12.5546 52.3821L13.536 53.1417C13.536 53.1417 15.3698 53.8856 15.6917 54.1562C16.0108 54.4253 18.0425 54.9574 18.0425 54.9574C18.0109 55.0842 17.9864 55.1784 17.9824 55.2116C17.9824 55.2124 17.9822 55.2133 17.9822 55.2143C17.9811 55.3346 18.8083 56.0912 18.8083 56.0912L19.1078 56.3218Z" fill="#537FAC"/>
<path d="M37.9937 63.5003C37.756 63.8566 37.3771 64.1738 37.0446 64.3418C36.8199 64.456 36.6151 64.5059 36.4912 64.4504C36.1852 64.3169 33.7887 62.8759 32.9246 62.5547C32.0604 62.2367 29.8947 61.301 29.1966 60.803C28.4988 60.302 27.7271 59.2609 26.6503 58.532C25.5735 57.8025 25.5814 57.9561 24.0462 57.5215C22.5111 57.0875 20.406 56.723 20.3315 56.5912C20.2864 56.5155 20.2086 56.2188 20.1686 55.8875C20.1402 55.6588 20.1259 55.4132 20.1517 55.2123C20.2139 54.7262 20.5164 53.5553 20.8373 52.8832C21.1584 52.2078 21.8917 52.1225 22.0011 52.1488C22.1136 52.175 23.0609 52.6533 23.0609 52.6533C23.0609 52.6533 26.8837 54.9993 26.9615 55.058C27.0398 55.1138 28.5371 55.9152 29.0482 56.4687C29.5569 57.0182 32.5631 59.4333 32.5631 59.4333C32.5631 59.4333 36.4629 61.9141 36.8147 62.072C37.1655 62.2331 38.3847 62.304 38.3847 62.304C38.3847 62.304 38.3928 62.9052 37.9937 63.5003Z" fill="#FAB597"/>
<path d="M35.8647 64.1082C35.8647 64.1082 36.798 64.7344 36.9211 64.8648C37.0442 64.9947 37.5595 65.4926 37.9775 65.5714C38.3951 65.6502 38.8526 65.1509 38.9356 65.0979C39.0188 65.0446 39.8637 64.2009 40.1128 63.9405C40.362 63.6802 40.8974 63.3677 40.9303 62.7119C40.9572 62.184 40.6104 62.2003 40.2899 62.2165C40.2119 62.2199 40.1357 62.2239 40.0666 62.2199C39.7136 62.2003 38.386 62.3035 38.386 62.3035C38.386 62.3035 35.9386 63.5453 35.9271 63.6193C35.9155 63.6942 35.8647 64.1082 35.8647 64.1082Z" fill="#FAB597"/>
<path d="M35.8647 64.1084C35.0109 63.6252 33.5575 62.7898 32.925 62.555C32.0608 62.2369 29.8951 61.3012 29.197 60.8032C28.4992 60.3023 27.7275 59.2611 26.6507 58.5322C25.5739 57.8027 25.5817 57.9563 24.0466 57.5217C22.5126 57.0877 20.4094 56.7236 20.332 56.5918C20.3319 56.5915 20.3319 56.5915 20.3319 56.5915C20.2867 56.5157 20.2089 56.219 20.1689 55.8877C20.7563 56.0852 21.6834 56.3901 22.2468 56.56C23.127 56.8251 24.6363 56.9393 25.6781 57.4172C26.7232 57.8955 28.6997 59.4988 29.1153 59.9911C29.5335 60.4838 30.8335 61.1836 31.3307 61.3235C31.8276 61.4636 34.619 62.87 35.3044 63.2989C35.4923 63.4165 35.7061 63.5447 35.9199 63.6712C35.902 63.8047 35.8654 64.1026 35.8647 64.1084Z" fill="#F7916E"/>
<path d="M36.6126 64.4731C36.5669 64.4731 36.5261 64.4656 36.4915 64.4504C36.4097 64.4145 36.1774 64.2849 35.8647 64.1082C35.8654 64.1024 35.902 63.8045 35.9199 63.671C36.3804 63.9433 36.8416 64.207 37.045 64.3419C36.8828 64.4241 36.731 64.4731 36.6126 64.4731Z" fill="#F7916E"/>
<path d="M9.84105 51.7932C9.84105 51.7932 9.31454 52.3349 9.26877 52.4435C9.22313 52.5523 9.07886 52.7366 9.07868 52.7877C9.07851 52.8385 9.10109 53.0622 9.10109 53.0622L9.46157 53.3032L8.96928 53.294C8.96928 53.294 8.01788 52.2959 7.95443 52.0973C7.89102 51.8987 7.64129 51.0732 7.77138 50.4038C7.90179 49.7352 8.58211 49.3742 8.58211 49.3742C8.58211 49.3742 9.31883 49.428 9.86105 49.9036C10.4032 50.3798 11.276 51.0502 11.276 51.0502L11.2201 51.4855C11.2201 51.4855 11.048 51.2939 10.5803 51.4755C10.1127 51.6566 9.84105 51.7932 9.84105 51.7932Z" fill="#88A4DB"/>
<path d="M19.8074 58.5903L19.0674 57.9199C19.2645 58.0946 19.7961 58.5589 19.8074 58.5903Z" fill="#FCE688"/>
<path d="M10.4337 47.0721C10.4337 47.0721 10.6129 46.7907 10.3664 46.4825C10.1202 46.175 9.64671 45.8572 9.39133 45.7675C9.13631 45.6774 9.13631 45.6774 9.13631 45.6774C9.13631 45.6774 9.06437 45.4968 8.50368 45.3391C7.94287 45.1817 7.47588 45.3313 7.28596 45.4022C7.09605 45.473 6.4759 45.8508 6.36361 46.2073C6.25115 46.5649 6.06806 47.0264 6.21474 47.3697C6.36121 47.7122 6.47607 48.4505 6.83179 48.6486C7.18715 48.8469 8.03039 49.0311 9.0066 49.2893C9.98313 49.5479 11.6142 47.6707 11.6142 47.6707C11.6142 47.6707 10.7 47.3731 10.4337 47.0721Z" fill="#FAB597"/>
<path d="M20.3689 57.9678C20.1794 57.9249 19.617 57.5087 19.617 57.5087L19.2011 57.2811L19.1898 57.2738L19.036 57.1902C19.1023 57.2444 19.6266 57.6711 19.7058 57.7423C19.7937 57.8177 20.2474 58.3204 20.2819 58.4071C20.3166 58.4941 20.2997 58.6259 20.1475 58.6245L20.0537 58.6189C19.9659 58.6136 19.9226 58.5961 19.9226 58.5961L19.0295 57.8842L19.0676 57.9196C19.2647 58.0943 19.7963 58.5586 19.8076 58.59L19.8093 58.5996L19.8124 58.6242L19.8117 58.6761C19.8024 58.7485 19.7599 58.843 19.6202 58.8618C19.4061 58.8924 18.7442 58.3261 18.7442 58.3261L18.2263 58.0158C18.2793 58.0772 18.5805 58.415 18.5897 58.4373C18.5982 58.4657 18.8996 58.8032 18.889 58.884C18.8802 58.9527 18.7375 58.9956 18.6121 58.9763L18.6092 58.976L18.5471 58.9589C18.4131 58.9117 17.8312 58.3156 17.8312 58.3156C17.8312 58.3156 17.0744 57.9201 16.9624 57.7471C16.8535 57.5748 16.6692 57.2278 16.5798 57.1647C16.4933 57.1017 14.771 56.5824 13.6482 55.9754C12.5251 55.3681 12.1448 55.1734 11.1898 54.4929C10.2346 53.8124 8.87793 52.9137 8.87793 52.9137C8.87793 52.9137 8.96186 52.5678 9.0345 52.2388C9.09414 51.9868 9.14372 51.7439 9.15042 51.6682C9.16101 51.4901 10.8654 51.1751 10.8654 51.1751C10.8654 51.1751 11.7834 51.954 12.1896 52.448C12.595 52.9451 13.0453 53.4996 13.148 53.5765C13.2542 53.6509 14.4343 54.1467 15.7296 55.0503C17.022 55.9504 17.301 55.9619 17.7613 56.0332C18.2213 56.1045 18.6534 56.1106 18.7237 56.1566C18.7938 56.2052 19.3531 56.5479 19.464 56.5627C19.5779 56.5771 20.0315 56.6537 20.0542 56.714L20.0368 56.8248L19.9973 56.8716L19.7871 56.9661C19.7871 56.9661 20.5906 57.6391 20.5785 57.735C20.5665 57.8281 20.5614 58.0102 20.3689 57.9678Z" fill="#FAB597"/>
<path d="M8.27038 49.0991C7.62069 48.9328 7.09388 48.7945 6.83198 48.6484C6.79303 48.6265 6.75711 48.5986 6.72363 48.5653C6.75711 48.5986 6.79303 48.6265 6.83198 48.6484C7.09388 48.7945 7.62069 48.9328 8.27038 49.0991Z" fill="#341215"/>
<path d="M6.72302 48.5649C6.722 48.5639 6.72124 48.5636 6.72021 48.5625C6.72124 48.5636 6.72221 48.5639 6.72302 48.5649Z" fill="#341215"/>
<path d="M10.7702 47.3149C10.6697 47.2597 10.5779 47.2014 10.5068 47.1419C10.5779 47.2011 10.6699 47.2592 10.77 47.3139L10.7702 47.3149Z" fill="#719DB3"/>
<path d="M9.19707 49.3127C9.13126 49.3127 9.06751 49.3054 9.00633 49.2892C8.74955 49.2213 8.50188 49.1584 8.26991 49.0992C7.62022 48.9329 7.09341 48.7946 6.83151 48.6485C6.79257 48.6266 6.75664 48.5987 6.72317 48.5654C6.72317 48.5654 6.72299 48.5649 6.72282 48.5649C6.72212 48.564 6.72128 48.5637 6.72041 48.5628C6.58589 48.4266 6.49273 48.2053 6.4165 47.9803C6.48332 47.7646 6.61412 47.4421 6.76229 47.4299C6.7717 47.4294 6.78058 47.4291 6.78898 47.4291C6.96673 47.4291 6.90385 47.5974 7.45254 47.7278C7.78021 47.8061 8.03046 47.8229 8.18515 47.8229C8.30172 47.8229 8.36395 47.8131 8.36395 47.8131C8.36395 47.8131 8.70203 47.628 8.91041 47.1533C9.11897 46.6785 9.55003 46.4352 9.74253 46.371C9.76782 46.3621 9.79535 46.3581 9.82475 46.3581C10.0162 46.3581 10.2794 46.525 10.4688 46.6737C10.5411 46.8978 10.4334 47.072 10.4334 47.072C10.4541 47.0956 10.4787 47.1188 10.5066 47.1419C10.5777 47.2014 10.6695 47.2597 10.77 47.3149L10.3505 47.2233C10.3505 47.2233 10.2317 47.2591 9.91739 47.3839C9.60285 47.5087 9.30442 47.8072 9.30442 47.8072C9.30442 47.8072 8.99692 47.9769 8.98887 48.0394C8.98082 48.102 8.507 48.2824 8.49899 48.3449C8.49094 48.4075 8.80766 48.562 9.15743 48.607C9.20731 48.6131 9.26389 48.6157 9.32476 48.6157C9.46133 48.6157 9.61961 48.6027 9.77294 48.5895C9.92627 48.5764 10.0748 48.5632 10.1917 48.5632C10.2717 48.5632 10.337 48.5694 10.3791 48.5859C10.5536 48.6538 9.95568 49.0687 9.73177 49.1845C9.5468 49.2639 9.36528 49.3127 9.19707 49.3127Z" fill="#F7916E"/>
<path d="M18.6092 58.9761L18.5471 58.959C18.4131 58.9118 17.8312 58.3158 17.8312 58.3158C17.8312 58.3158 17.0744 57.9202 16.9624 57.7472C16.8535 57.5749 16.6692 57.2279 16.5798 57.1648C16.4933 57.1018 14.771 56.5825 13.6482 55.9755C12.5251 55.3682 12.1448 55.1735 11.1898 54.493C10.6339 54.097 9.94197 53.6269 9.4608 53.3031C9.33263 53.217 9.21947 53.1413 9.12766 53.0799C8.97179 52.9758 8.87793 52.9138 8.87793 52.9138C8.87793 52.9138 8.96186 52.5679 9.0345 52.2389L9.08697 52.2333C9.08697 52.2333 9.39227 52.9676 9.55225 53.1216C9.71534 53.277 11.2045 54.1412 11.303 54.2515C11.4052 54.3586 12.0527 54.5853 12.0491 54.6125C12.0453 54.6422 12.5347 55.0552 12.6892 55.1817C12.8443 55.3056 13.7447 55.7926 14.5416 56.1143C15.3385 56.4355 16.1728 56.75 16.4152 56.9517C16.654 57.1561 16.8048 57.3368 16.9579 57.5455C17.1104 57.757 17.435 57.9113 17.6182 58.051C17.7991 58.1867 18.423 58.858 18.6092 58.9761Z" fill="#F7916E"/>
<path d="M7.87114 48.3405C7.87114 48.3405 7.89849 48.573 7.79031 48.6731C7.68227 48.7738 7.36397 48.8787 7.13699 48.8175C6.9098 48.7571 6.81698 48.5755 6.8565 48.3803C6.89562 48.1851 6.96384 48.099 7.03407 48.1077C7.10452 48.1169 7.29015 48.1169 7.34809 48.148C7.40585 48.1791 7.81679 48.2066 7.87114 48.3405Z" fill="#FAB597"/>
<path d="M19.6019 58.863C19.3713 58.863 18.7435 58.3261 18.7435 58.3261L18.2255 58.0159L18.2173 58.0085L17.9546 57.704L18.3864 57.9022C18.3864 57.9022 19.0269 58.4203 19.1451 58.521C19.266 58.6246 19.3816 58.8163 19.6195 58.8618C19.6138 58.8627 19.6081 58.863 19.6019 58.863Z" fill="#F7916E"/>
<path d="M19.7864 56.9663L19.1147 56.6185C19.2476 56.6814 19.6521 56.8612 19.8696 56.8612C19.8966 56.8612 19.9209 56.8586 19.9412 56.8525L20.0361 56.825L19.9966 56.8718L19.7864 56.9663Z" fill="#F7916E"/>
<path d="M20.0538 58.6191C19.966 58.6138 19.9227 58.5964 19.9227 58.5964L19.0296 57.8845L19.0677 57.9198L19.0019 57.8626L18.9935 57.8555L18.4658 57.4556L18.9757 57.7097C18.9757 57.7097 19.9029 58.56 20.0538 58.6191Z" fill="#F7916E"/>
<path d="M20.4216 57.9741C20.4057 57.9741 20.3879 57.9719 20.3683 57.968C20.1787 57.9251 19.6163 57.5089 19.6163 57.5089L19.2004 57.2813L19.1891 57.274C19.1249 57.2292 19.0736 57.2017 19.0353 57.1904L19.0299 57.1865C18.8687 57.0407 18.8687 57.0407 18.8687 57.0407C18.8687 57.0407 19.2924 57.1593 19.4649 57.2879C19.6408 57.4143 20.2594 57.8651 20.2594 57.8651C20.2594 57.8651 20.3134 57.9124 20.3828 57.9124C20.4445 57.9124 20.5183 57.8752 20.5778 57.7352C20.5671 57.8188 20.5619 57.9741 20.4216 57.9741Z" fill="#F7916E"/>
<path d="M35.9388 44.4788C35.8593 44.7703 33.785 45.4508 32.123 45.6769C30.4612 45.9024 29.8862 45.8424 29.4711 45.8197C29.3216 45.8109 29.2703 45.8354 29.2346 45.8595C29.1714 45.9027 29.1571 45.9461 28.7308 45.8065C28.0682 45.586 27.8011 45.1453 27.8011 45.1453C27.8011 45.1453 27.2964 45.0881 26.7424 44.9357C26.1891 44.7804 26.0605 44.7243 26.0215 44.6583C25.9788 44.5949 25.9788 44.5949 25.9788 44.5949C25.9788 44.5949 25.8327 44.6158 25.7898 44.5086C25.7505 44.4154 25.7445 44.2929 25.7471 44.2667L25.7453 44.2592C25.7453 44.2592 25.5524 44.1315 25.6718 44.0348C25.7506 43.9683 25.8229 43.917 25.8667 43.8867L25.8699 43.8878L25.906 43.8619L26.0393 43.7779L26.0426 43.7787L26.3805 43.563L27.4382 43.4659L28.277 43.7266C28.277 43.7266 29.1024 44.4177 29.2402 44.4928C29.3756 44.5638 30.0457 44.5739 30.2641 44.4855C30.4802 44.393 32.8794 43.7027 33.3449 43.4443C33.8067 43.1857 33.9875 43.1293 33.9875 43.1293C33.9875 43.1293 34.0734 41.9046 34.1354 40.9768C34.1619 40.5629 34.185 40.2085 34.1944 40.0487C34.2166 39.728 34.775 39.1915 35.2041 38.8554C35.4511 38.6555 35.6593 38.5246 35.6858 38.5404C35.7037 38.5509 35.763 38.6585 35.8405 38.8073C36.0482 39.2278 36.3938 39.9888 36.3938 39.9888C36.3938 39.9888 36.463 40.9291 36.3533 42.0376C36.2399 43.1481 36.0174 44.191 35.9388 44.4788Z" fill="#FAB597"/>
<path d="M25.8701 43.8877L25.9062 43.8619L26.0395 43.7778L26.0428 43.7786L26.8241 43.7135L27.6061 43.7795L26.6388 43.8193L25.8701 43.8877Z" fill="#F7916E"/>
<path d="M25.7453 44.2593C25.7453 44.2593 25.6333 44.1852 25.6328 44.107C25.6326 44.0825 25.6433 44.0575 25.6718 44.0348L25.8865 44.1704L26.8919 44.082L27.5401 44.1451L26.8 44.1757L25.7453 44.2593Z" fill="#F7916E"/>
<path d="M27.6398 44.5974L27.0549 44.5829L26.1418 44.5304L25.9794 44.5948C25.9794 44.5948 25.9679 44.5965 25.9503 44.5965C25.9053 44.5965 25.8212 44.5856 25.7903 44.5085C25.756 44.4268 25.7471 44.323 25.7471 44.2805C25.7471 44.2745 25.7472 44.2701 25.7476 44.2666L25.8604 44.467L26.5267 44.4499L27.6398 44.5974Z" fill="#F7916E"/>
<path d="M29.1245 45.9016C29.0605 45.9016 28.9503 45.8784 28.731 45.8066C28.0683 45.5861 27.8013 45.1454 27.8013 45.1454C27.8013 45.1454 27.2965 45.0881 26.7426 44.9358C26.1892 44.7805 26.0607 44.7244 26.0217 44.6584C25.979 44.595 25.979 44.595 25.979 44.595C25.979 44.595 25.979 44.595 26.0217 44.6584C26.0607 44.7244 26.1892 44.7805 26.7426 44.9358C27.2965 45.0881 27.8013 45.1454 27.8013 45.1454C27.8013 45.1454 28.0683 45.5861 28.731 45.8066C28.9503 45.8784 29.0605 45.9016 29.1245 45.9016C29.1848 45.9016 29.204 45.8806 29.2348 45.8596C29.2653 45.839 29.3077 45.818 29.4144 45.818C29.423 45.818 29.4318 45.818 29.4411 45.8183C29.4318 45.818 29.423 45.818 29.4144 45.818C29.3077 45.818 29.2653 45.839 29.2348 45.8596C29.204 45.8806 29.1848 45.9016 29.1245 45.9016Z" fill="#F57553"/>
<path d="M29.1245 45.9016C29.0605 45.9016 28.9503 45.8784 28.731 45.8066C28.0683 45.5861 27.8013 45.1454 27.8013 45.1454C27.8013 45.1454 27.2965 45.0881 26.7426 44.9358C26.1892 44.7805 26.0607 44.7244 26.0217 44.6584C25.979 44.595 25.979 44.595 25.979 44.595L26.279 44.71L27.6864 45.0287C27.6864 45.0287 28.4033 45.4867 28.4597 45.5196C28.5097 45.5488 28.9329 45.7869 29.1131 45.7869C29.1359 45.7869 29.1551 45.783 29.1688 45.7743C29.2905 45.6977 30.7513 45.6618 30.7513 45.6618C30.7513 45.6618 32.7522 45.2745 33.4014 45.0216C34.0539 44.7686 35.6085 44.6164 35.703 44.4054C35.8013 44.1958 36.2722 42.7392 36.2488 41.997C36.2247 41.2553 36.2432 40.7888 36.2432 40.7888C36.2432 40.7888 36.2418 40.7888 36.2394 40.7888C36.1881 40.7888 35.616 40.7866 35.035 40.703C34.9696 40.6938 34.9075 40.6895 34.8492 40.6895C34.3665 40.6895 34.1356 40.9769 34.1356 40.9769C34.1621 40.563 34.1852 40.2085 34.1946 40.0488C34.2168 39.7281 34.7752 39.1916 35.2043 38.8555C35.3581 38.8161 35.4974 38.7938 35.6158 38.7903C35.6254 38.7899 35.6353 38.7899 35.6456 38.7899C35.7013 38.7899 35.7666 38.7964 35.8406 38.8074C36.0483 39.2279 36.3939 39.9889 36.3939 39.9889C36.3939 39.9889 36.4157 40.282 36.4155 40.7345C36.4155 41.0921 36.402 41.5484 36.3534 42.0377C36.2712 42.8446 36.1311 43.6156 36.0306 44.0873C35.9926 44.2649 35.9605 44.4001 35.9389 44.4789C35.8595 44.7704 33.7852 45.4509 32.1232 45.677C31.5972 45.7485 31.18 45.7913 30.8424 45.8153C30.5453 45.8372 30.3097 45.8442 30.1157 45.8442C29.8337 45.8442 29.6395 45.829 29.4713 45.8197C29.4609 45.8189 29.4507 45.8183 29.4411 45.8183C29.4318 45.818 29.423 45.818 29.4144 45.818C29.3077 45.818 29.2653 45.839 29.2348 45.8596C29.204 45.8806 29.1848 45.9016 29.1245 45.9016Z" fill="#F7916E"/>
<path d="M36.202 36.0775C36.202 36.0775 35.1203 35.5944 34.1431 36.5077C33.1653 37.4214 33.8866 40.9199 33.8866 40.9199C33.8866 40.9199 34.4029 40.4342 35.102 40.5641C35.8011 40.6945 36.5347 40.7348 36.5347 40.7348C36.5347 40.7348 36.572 38.4033 36.545 37.3461C36.5182 36.2889 36.202 36.0775 36.202 36.0775Z" fill="#57C48D"/>
</svg>
