<svg width="110" height="106" viewBox="0 0 110 106" fill="none" xmlns="http://www.w3.org/2000/svg">
<path d="M54.8582 104.994C84.6032 104.994 108.716 81.714 108.716 52.9969C108.716 24.2798 84.6032 1 54.8582 1C25.1131 1 1 24.2798 1 52.9969C1 81.714 25.1131 104.994 54.8582 104.994Z" stroke="#6699FF" stroke-width="1.86082" stroke-miterlimit="10"/>
<path d="M35.6317 52.1474C34.8742 52.1474 34.2576 52.6274 34.2576 53.2179V62.9049C34.0292 65.1067 31.8977 66.1733 31.2925 66.398C24.6316 67.9332 24.0645 63.0116 24.0645 63.0116V60.8974C24.0645 60.8974 24.0759 48.422 24.0569 47.8163C23.7334 43.9841 19.7939 42.9937 19.2306 42.8337C14.1835 41.489 11.6334 44.2622 11.169 44.8374V37.4055C11.169 36.815 10.5524 36.3351 9.79495 36.3351C9.03751 36.3351 8.4209 36.815 8.4209 37.4055V58.0709C8.4209 58.6613 9.0337 59.1413 9.79495 59.1413C10.5562 59.1413 11.169 58.6613 11.169 58.0709V48.3839C11.3974 46.1821 13.5289 45.1155 14.1341 44.8907C20.795 43.3556 21.3621 48.2772 21.3621 48.2772V52.2122C21.3621 54.753 21.3621 58.3223 21.3621 60.7603V61.3659C21.3621 62.5316 21.3659 63.3353 21.3697 63.4725C21.6932 67.3046 25.6327 68.2951 26.196 68.455C31.2431 69.7997 33.7932 67.0266 34.2576 66.4514V73.8833C34.2576 74.4737 34.8742 74.9537 35.6317 74.9537C36.3891 74.9537 37.0057 74.4737 37.0057 73.8833V53.2179C37.0057 52.6274 36.3891 52.1474 35.6317 52.1474Z" fill="#0DB04B"/>
<path d="M30.4433 50.658C30.1236 46.8716 26.2298 45.8888 25.6703 45.7326C20.6804 44.4032 18.1606 47.1459 17.7001 47.7134V40.3653C17.7001 39.7825 17.0911 39.3101 16.3412 39.3101C15.5914 39.3101 14.9824 39.7825 14.9824 40.3653V60.7946C14.9824 61.3774 15.5914 61.8497 16.3412 61.8497C17.0911 61.8497 17.7001 61.3774 17.7001 60.7946V51.218C17.9246 49.0429 20.0333 47.9877 20.6309 47.7668C27.2157 46.2507 27.779 51.1151 27.779 51.1151V55.0082C27.779 56.5929 27.779 58.5776 27.779 60.4327C27.779 61.0079 28.3766 61.4726 29.1188 61.4726C29.861 61.4726 30.4586 61.0079 30.4586 60.4327C30.4586 56.7339 30.4586 51.058 30.4509 50.658" fill="#D71921"/>
<path d="M71.9546 69.6207V66.1961L72.5864 66.12V66.318C72.7539 66.1885 72.9176 66.12 73.0812 66.12C73.4276 66.12 73.6978 66.2419 73.9034 66.4895C74.1051 66.7371 74.2079 67.0228 74.2079 67.3504C74.2079 67.678 74.1051 67.9675 73.9034 68.2113C73.7016 68.4589 73.4276 68.5808 73.0812 68.5808C72.8567 68.5655 72.6892 68.497 72.5864 68.3827V69.6207H71.9546ZM72.5864 67.1294V67.5294C72.6169 67.8037 72.7729 67.9675 73.0584 68.017C73.42 67.9865 73.6217 67.7808 73.6674 67.4037C73.6522 66.9428 73.4504 66.7066 73.0584 66.6914C72.7729 66.7409 72.6169 66.8894 72.5864 67.1332V67.1294Z" fill="#D71921"/>
<path d="M75.2353 66.3942C75.3952 66.2152 75.5893 66.1238 75.8215 66.1238C75.8938 66.1238 75.9661 66.1314 76.0309 66.1428L75.9319 66.8247C75.8596 66.7523 75.753 66.7142 75.616 66.7104C75.4637 66.7218 75.3343 66.8437 75.2353 67.0761V68.5884H74.6035V66.1961L75.2353 66.12V66.3942Z" fill="#D71921"/>
<path d="M76.3232 67.3542C76.3232 66.9923 76.4298 66.6952 76.6392 66.4666C76.8485 66.2381 77.1187 66.12 77.4499 66.12C77.781 66.12 78.0437 66.2342 78.2378 66.4666C78.4319 66.6952 78.5309 66.9923 78.5309 67.3542V67.6018H76.9779C76.9931 67.7313 77.0464 67.8341 77.134 67.9103C77.2253 67.9827 77.3281 68.0208 77.4499 68.0208C77.6592 68.0208 77.8457 67.956 78.0132 67.8227L78.3748 68.2151C78.2111 68.4627 77.9028 68.5846 77.4537 68.5846C77.1226 68.5846 76.8523 68.4703 76.643 68.2379C76.4336 68.0094 76.3271 67.7122 76.3271 67.3504M77.7696 66.7942C77.6783 66.718 77.5755 66.6837 77.4537 66.6837C77.3319 66.6837 77.2291 66.7218 77.1378 66.7942C77.0464 66.8666 77.0046 66.9694 77.0046 67.1028H77.9066C77.9066 66.9694 77.861 66.8666 77.7734 66.7942H77.7696Z" fill="#D71921"/>
<path d="M79.6465 67.0113V68.5884H79.0146V66.1961L79.6465 66.12V66.3409C79.7873 66.1962 79.9662 66.1238 80.187 66.1238C80.4724 66.1238 80.6894 66.219 80.8378 66.4057C81.0015 66.2152 81.2489 66.1238 81.5801 66.1238C81.8655 66.1238 82.0825 66.219 82.2347 66.4057C82.3832 66.5961 82.4593 66.8133 82.4593 67.0571V68.5846H81.8275V67.2285C81.8275 67.0647 81.7932 66.939 81.7247 66.8475C81.6562 66.7561 81.5496 66.7104 81.3973 66.7066C81.2717 66.7142 81.1652 66.8056 81.0738 66.9771C81.0662 67.0266 81.0624 67.0799 81.0624 67.1332V68.5846H80.4306V67.2285C80.4306 67.0647 80.3963 66.939 80.3278 66.8475C80.2593 66.7561 80.1489 66.7104 80.0005 66.7066C79.8634 66.7142 79.7416 66.8171 79.6427 67.0075" fill="#D71921"/>
<path d="M83.0835 65.2857C83.1444 65.221 83.2282 65.1638 83.3271 65.1638C83.4337 65.1638 83.5175 65.221 83.5784 65.2857C83.6393 65.3543 83.6697 65.4343 83.6697 65.5334C83.6697 65.6324 83.6393 65.7124 83.5784 65.781C83.5175 65.8457 83.4337 65.88 83.3309 65.88C83.2282 65.88 83.1444 65.8457 83.0835 65.781C83.0226 65.7162 82.9922 65.6324 82.9922 65.5334C82.9922 65.4343 83.0226 65.3505 83.0835 65.2857ZM83.6469 66.1238H83.015V68.5884H83.6469V66.1238Z" fill="#D71921"/>
<path d="M85.5497 67.7123V66.12H86.1815V68.5846H85.5497V68.3598C85.3975 68.5084 85.2186 68.5808 85.0092 68.5808C84.7238 68.5808 84.5068 68.4855 84.3584 68.2989C84.2099 68.1084 84.1338 67.8913 84.1338 67.6475V66.12H84.7656V67.4761C84.7656 67.6399 84.8037 67.7694 84.8798 67.857C84.9559 67.9484 85.0663 67.9941 85.2186 67.998C85.348 67.9865 85.4622 67.8913 85.5535 67.7084" fill="#D71921"/>
<path d="M87.3462 67.0113V68.5884H86.7144V66.1961L87.3462 66.12V66.3409C87.487 66.1962 87.6659 66.1238 87.8867 66.1238C88.1721 66.1238 88.3891 66.219 88.5413 66.4057C88.705 66.2152 88.9524 66.1238 89.2836 66.1238C89.569 66.1238 89.786 66.219 89.9344 66.4057C90.0867 66.5961 90.159 66.8133 90.159 67.0571V68.5846H89.5272V67.2285C89.5272 67.0647 89.4929 66.939 89.4244 66.8475C89.3559 66.7561 89.2493 66.7104 89.0971 66.7066C88.9715 66.7142 88.8649 66.8056 88.7735 66.9771C88.7659 67.0266 88.7621 67.0799 88.7621 67.1332V68.5846H88.1341V67.2285C88.1341 67.0647 88.0998 66.939 88.0313 66.8475C87.9628 66.7561 87.8524 66.7104 87.704 66.7066C87.567 66.7142 87.449 66.8171 87.3462 67.0075" fill="#D71921"/>
<path d="M92.516 68.2798C92.2914 68.0741 92.1772 67.8075 92.1772 67.4799V67.2323C92.1772 66.9047 92.2914 66.638 92.516 66.4323C92.7406 66.2266 93.0032 66.1238 93.3077 66.1238C93.6655 66.1238 93.9662 66.2647 94.206 66.5428L93.7568 66.9123C93.6236 66.7637 93.4714 66.6914 93.3077 66.6914C93.1593 66.6914 93.026 66.7561 92.9118 66.8894C92.8015 67.019 92.7444 67.179 92.7444 67.358C92.7444 67.537 92.7977 67.6932 92.9004 67.8265C93.007 67.956 93.1402 68.0246 93.3039 68.0246C93.4676 68.0246 93.6198 67.9522 93.753 67.8037L94.2022 68.1732C93.9624 68.4513 93.6617 68.5922 93.3001 68.5922C92.9994 68.5922 92.7368 68.4894 92.5122 68.2837" fill="#D71921"/>
<path d="M94.697 66.4209C94.9824 66.2228 95.3136 66.1238 95.6866 66.1238C95.9568 66.1238 96.17 66.2038 96.326 66.3714C96.4821 66.5352 96.562 66.7828 96.562 67.1104V68.5884H95.9302V68.3903C95.7475 68.5198 95.5838 68.5884 95.4354 68.5884C95.1347 68.5884 94.9101 68.5198 94.7617 68.3789C94.6094 68.2379 94.5371 68.0475 94.5371 67.7999C94.5371 67.5713 94.6094 67.3656 94.7503 67.1828C94.8911 67.0037 95.1233 66.9123 95.4392 66.9123C95.5838 66.9123 95.7513 66.9618 95.934 67.0609V66.9885C95.934 66.8094 95.8122 66.7104 95.5724 66.6914C95.3022 66.6914 95.0928 66.7409 94.9406 66.8399L94.6932 66.4209H94.697ZM95.934 67.8494V67.5713C95.8731 67.4456 95.7323 67.3808 95.5077 67.3808C95.2375 67.4151 95.0966 67.5294 95.0776 67.7275C95.0928 67.9218 95.2337 68.0284 95.5077 68.0437C95.7323 68.0437 95.8769 67.9789 95.934 67.8494Z" fill="#D71921"/>
<path d="M97.7074 66.3942C97.8673 66.2152 98.0652 66.1238 98.2936 66.1238C98.3659 66.1238 98.4382 66.1314 98.5029 66.1428L98.404 66.8247C98.3316 66.7523 98.2251 66.7142 98.088 66.7104C97.9358 66.7218 97.8064 66.8437 97.7036 67.0761V68.5884H97.0718V66.1961L97.7036 66.12V66.3942H97.7074Z" fill="#D71921"/>
<path d="M98.7954 67.3542C98.7954 66.9923 98.902 66.6952 99.1113 66.4666C99.3207 66.2381 99.5909 66.12 99.9221 66.12C100.253 66.12 100.516 66.2342 100.71 66.4666C100.904 66.6952 101.003 66.9923 101.003 67.3542V67.6018H99.4501C99.4653 67.7313 99.5186 67.8341 99.6061 67.9103C99.6975 67.9827 99.8003 68.0208 99.9221 68.0208C100.131 68.0208 100.318 67.956 100.485 67.8227L100.847 68.2151C100.683 68.4627 100.375 68.5846 99.9259 68.5846C99.5947 68.5846 99.3245 68.4703 99.1151 68.2379C98.9058 68.0094 98.7992 67.7122 98.7992 67.3504M100.242 66.7942C100.15 66.718 100.048 66.6837 99.9259 66.6837C99.8041 66.6837 99.7013 66.7218 99.6099 66.7942C99.5186 66.8666 99.4767 66.9694 99.4767 67.1028H100.375C100.375 66.9694 100.329 66.8666 100.242 66.7942Z" fill="#D71921"/>
<path d="M71.9546 75.148V71.7196L72.5484 71.6473V71.8453C72.7044 71.7158 72.8605 71.6473 73.0127 71.6473C73.3363 71.6473 73.5951 71.7692 73.7854 72.0168C73.9757 72.2644 74.0709 72.5501 74.0709 72.8777C74.0709 73.2053 73.9757 73.4948 73.7854 73.7386C73.5951 73.9824 73.3363 74.1081 73.0127 74.1081C72.7996 74.0928 72.6435 74.0243 72.5484 73.91V75.148H71.9546ZM72.5484 72.6567V73.0567C72.575 73.3348 72.7234 73.4948 72.9937 73.5443C73.3324 73.5138 73.5228 73.3081 73.5646 72.931C73.5494 72.4701 73.3591 72.2339 72.9937 72.2187C72.7273 72.2682 72.5788 72.4167 72.5484 72.6605V72.6567Z" fill="#D71921"/>
<path d="M74.3784 72.8815C74.3784 72.5196 74.4774 72.2263 74.6753 71.9939C74.8732 71.7653 75.1283 71.6473 75.4366 71.6473C75.7449 71.6473 75.9923 71.7615 76.1788 71.9939C76.3615 72.2263 76.4528 72.5196 76.4528 72.8815V73.1291H74.995C75.0103 73.2586 75.0597 73.3614 75.1435 73.4376C75.2272 73.5138 75.3262 73.5481 75.4404 73.5481C75.6383 73.5481 75.8134 73.4833 75.9694 73.35L76.3082 73.7424C76.1521 73.99 75.8629 74.1119 75.4404 74.1119C75.1321 74.1119 74.877 73.9976 74.6791 73.7652C74.4812 73.5367 74.3822 73.2395 74.3822 72.8777M75.7372 72.3215C75.6535 72.2453 75.5545 72.211 75.4404 72.211C75.3262 72.211 75.2272 72.2491 75.1435 72.3215C75.0597 72.3939 75.0179 72.4967 75.0179 72.6301H75.8629C75.8629 72.4967 75.821 72.3977 75.7372 72.3215Z" fill="#D71921"/>
<path d="M77.4654 71.9215C77.6177 71.7424 77.8004 71.651 78.0174 71.651C78.0859 71.651 78.1506 71.6586 78.2153 71.6701L78.1239 72.3519C78.0554 72.2795 77.9565 72.2415 77.827 72.2376C77.6824 72.2491 77.5644 72.371 77.4693 72.6033V74.1194H76.8755V71.7272L77.4693 71.651V71.9253L77.4654 71.9215Z" fill="#D71921"/>
<path d="M79.7985 71.7196C79.9089 71.7767 80.0117 71.8567 80.1068 71.9672L79.7757 72.4015C79.6805 72.2681 79.5587 72.2034 79.4179 72.2034C79.2771 72.2034 79.1781 72.2339 79.1324 72.2948C79.0829 72.3557 79.0829 72.4129 79.1324 72.4624C79.1819 72.5119 79.2733 72.5538 79.4179 72.5881C79.6272 72.611 79.7985 72.6795 79.9355 72.7976C80.0688 72.9157 80.1373 73.1176 80.1373 73.4071C80.1373 73.6395 80.0573 73.8223 79.9013 73.948C79.7414 74.0775 79.5587 74.1385 79.3494 74.1385C79.14 74.1385 78.9802 74.1042 78.8508 74.0395C78.7175 73.9709 78.6034 73.8833 78.5044 73.7728L78.8317 73.3424C78.9269 73.4757 79.0753 73.5519 79.2771 73.5747C79.4407 73.5747 79.5435 73.5442 79.593 73.4833C79.6387 73.4224 79.6463 73.3614 79.612 73.3005C79.5777 73.2395 79.4674 73.1976 79.2771 73.1747C79.1058 73.1519 78.9459 73.0909 78.8051 72.9881C78.6604 72.889 78.5919 72.6986 78.5919 72.4205C78.5919 72.1653 78.6719 71.971 78.8355 71.8377C78.9992 71.7044 79.1667 71.6358 79.338 71.6358C79.5359 71.6358 79.6919 71.6625 79.8023 71.7196" fill="#D71921"/>
<path d="M80.7541 73.7766C80.5486 73.5366 80.4458 73.2357 80.4458 72.8814C80.4458 72.5271 80.5486 72.2262 80.7541 71.9862C80.9596 71.7462 81.2147 71.6281 81.523 71.6281C81.8313 71.6281 82.0863 71.7462 82.2918 71.9862C82.4974 72.2262 82.6001 72.5233 82.6001 72.8814C82.6001 73.2395 82.4974 73.5404 82.2918 73.7804C82.0863 74.0204 81.8275 74.1385 81.523 74.1385C81.2185 74.1385 80.9596 74.0166 80.7541 73.7766ZM81.523 73.5404C81.6828 73.5404 81.8122 73.4795 81.915 73.3499C82.014 73.2242 82.0673 73.0681 82.0673 72.8814C82.0673 72.6947 82.0178 72.5386 81.915 72.4129C81.816 72.2872 81.6828 72.2224 81.523 72.2224C81.3631 72.2224 81.2337 72.2833 81.1347 72.4129C81.0358 72.5386 80.9825 72.6947 80.9825 72.8814C80.9825 73.0681 81.032 73.2242 81.1347 73.3499C81.2337 73.4756 81.3669 73.5404 81.5268 73.5404H81.523Z" fill="#D71921"/>
<path d="M83.5972 72.5463V74.1119H83.0034V71.7196L83.5972 71.6473V71.872C83.7418 71.7234 83.9093 71.6511 84.1072 71.6511C84.3737 71.6511 84.5792 71.7463 84.72 71.933C84.8609 72.1234 84.9332 72.3406 84.9332 72.5843V74.1119H84.3394V72.7558C84.3394 72.592 84.3051 72.4663 84.2328 72.3748C84.1605 72.2834 84.0539 72.2377 83.9131 72.2301C83.7913 72.2415 83.6847 72.3444 83.5972 72.5424" fill="#D71921"/>
<path d="M85.4706 71.9443C85.7408 71.7463 86.0492 71.651 86.4031 71.651C86.6582 71.651 86.8561 71.7348 87.0045 71.8986C87.153 72.0624 87.2253 72.31 87.2253 72.6376V74.1156H86.6315V73.9175C86.4602 74.0471 86.3042 74.1156 86.1671 74.1156C85.8855 74.1156 85.6723 74.0471 85.5315 73.9061C85.3907 73.7652 85.3184 73.5747 85.3184 73.3271C85.3184 73.0985 85.3831 72.8928 85.5163 72.71C85.6495 72.5272 85.8665 72.4395 86.1633 72.4395C86.3004 72.4395 86.4564 72.4891 86.6277 72.5881V72.5157C86.6277 72.3367 86.5135 72.2377 86.2889 72.2186C86.0339 72.2186 85.836 72.2681 85.6952 72.3672L85.463 71.9481L85.4706 71.9443ZM86.6353 73.3728V73.0947C86.5782 72.969 86.445 72.9043 86.2319 72.9043C85.9768 72.9386 85.8436 73.0528 85.8284 73.2509C85.8436 73.4452 85.9768 73.5519 86.2319 73.5671C86.445 73.5671 86.5782 73.5023 86.6353 73.3728Z" fill="#D71921"/>
<path d="M88.3477 70.4168H87.7539V74.1118H88.3477V70.4168Z" fill="#D71921"/>
<path d="M91.4047 74.1118C91.1649 74.1118 90.9746 74.0356 90.8338 73.8756C90.6929 73.7195 90.6206 73.5176 90.6206 73.2738V72.2072H90.3047V71.651H90.6206V70.9844L91.2144 70.9082V71.651H91.5303V72.2072H91.2144V73.1747C91.2144 73.3042 91.2372 73.3995 91.2867 73.4528C91.3324 73.5061 91.3933 73.5328 91.4694 73.5328C91.4922 73.5328 91.5455 73.5214 91.6293 73.5023L91.7549 73.9975C91.6521 74.0737 91.5379 74.1118 91.4047 74.1118Z" fill="#D71921"/>
<path d="M92.298 73.7766C92.0925 73.5366 91.9897 73.2357 91.9897 72.8814C91.9897 72.5271 92.0925 72.2262 92.298 71.9862C92.5036 71.7462 92.7624 71.6281 93.0669 71.6281C93.3714 71.6281 93.6302 71.7462 93.8358 71.9862C94.0413 72.2262 94.1441 72.5233 94.1441 72.8814C94.1441 73.2395 94.0413 73.5404 93.8358 73.7804C93.6302 74.0204 93.3714 74.1385 93.0669 74.1385C92.7624 74.1385 92.5036 74.0166 92.298 73.7766ZM93.0669 73.5404C93.2268 73.5404 93.36 73.4795 93.459 73.3499C93.5579 73.2242 93.6112 73.0681 93.6112 72.8814C93.6112 72.6947 93.5617 72.5386 93.459 72.4129C93.36 72.2872 93.2268 72.2224 93.0669 72.2224C92.907 72.2224 92.7776 72.2833 92.6787 72.4129C92.5797 72.5386 92.5264 72.6947 92.5264 72.8814C92.5264 73.0681 92.5759 73.2242 92.6787 73.3499C92.7776 73.4756 92.9109 73.5404 93.0707 73.5404H93.0669Z" fill="#D71921"/>
<path d="M95.8272 73.2395V71.6473H96.421V74.1119H95.8272V73.8871C95.6826 74.0357 95.5151 74.1081 95.3172 74.1081C95.0507 74.1081 94.8452 74.0128 94.7044 73.8262C94.5635 73.6357 94.4912 73.4186 94.4912 73.1748V71.6473H95.085V73.0034C95.085 73.1672 95.1192 73.2929 95.1916 73.3843C95.2601 73.4757 95.3704 73.5214 95.5113 73.5291C95.6331 73.5176 95.7397 73.4224 95.8272 73.2395Z" fill="#D71921"/>
<path d="M97.1411 73.8033C96.928 73.5976 96.8252 73.331 96.8252 73.0034V72.7558C96.8252 72.4282 96.9318 72.1615 97.1411 71.9558C97.3543 71.7501 97.6017 71.6473 97.8833 71.6473C98.2221 71.6473 98.5037 71.7882 98.7283 72.0663L98.3058 72.4358C98.1802 72.2872 98.0356 72.2148 97.8833 72.2148C97.7425 72.2148 97.6169 72.2796 97.5141 72.4129C97.4076 72.5424 97.3543 72.6986 97.3543 72.8815C97.3543 73.0643 97.4037 73.2167 97.5027 73.35C97.6017 73.4795 97.7273 73.5481 97.8833 73.5481C98.0394 73.5481 98.1802 73.4757 98.3058 73.3272L98.7283 73.6967C98.5037 73.9747 98.2221 74.1157 97.8833 74.1157C97.6017 74.1157 97.3543 74.0128 97.1411 73.8071" fill="#D71921"/>
<path d="M99.7432 72.4472V74.1118H99.1494V70.4168H99.7432V71.872C99.8878 71.7234 100.055 71.651 100.249 71.651C100.52 71.651 100.721 71.7463 100.862 71.9329C101.003 72.1234 101.075 72.3405 101.075 72.5843V74.1118H100.482V72.7557C100.482 72.5919 100.447 72.4662 100.375 72.3748C100.303 72.2834 100.196 72.2377 100.055 72.2301C99.9335 72.2415 99.8269 72.31 99.7394 72.4434" fill="#D71921"/>
<path d="M59.2794 43.2641C59.3251 42.4718 59.386 39.2834 55.0583 39.1615C54.4455 39.1044 51.5033 39.3177 50.5479 42.1785C50.3881 42.6394 49.2691 47.0049 54.7691 47.9039C55.3095 47.9305 57.4563 48.1553 59.1348 46.5439C59.3137 46.304 59.3594 45.9421 58.8379 45.744C58.3165 45.5459 57.7646 46.0602 57.7646 46.0602C57.7646 46.0602 56.2002 47.3706 53.905 46.5287C53.3379 46.304 52.0895 45.8278 51.7964 44.1136H58.3774C58.3774 44.1136 59.2338 44.1898 59.2794 43.2641ZM51.7964 43.028C52.177 40.8757 53.6272 40.4757 54.2781 40.3767C57.8864 39.8929 57.9397 43.028 57.9397 43.028H51.8002H51.7964Z" fill="#0DB04B"/>
<path d="M48.3744 42.1062C48.207 40.1482 46.1935 39.6415 45.9042 39.5577C43.3236 38.8683 42.018 40.2891 41.782 40.5824V36.7808C41.782 36.4798 41.4661 36.2322 41.0817 36.2322C40.6973 36.2322 40.3813 36.476 40.3813 36.7808V47.3478C40.3813 47.6487 40.6973 47.8963 41.0817 47.8963C41.4661 47.8963 41.782 47.6525 41.782 47.3478V42.3957C41.8962 41.2681 42.9886 40.7272 43.2969 40.6091C46.7035 39.8244 46.9928 42.3423 46.9928 42.3423V44.3536C46.9928 45.2107 46.9928 46.2926 46.9928 47.2906V47.3478C46.9928 47.6487 47.3049 47.8963 47.6855 47.8963C48.0661 47.8963 48.3782 47.6525 48.3782 47.3478V46.9211C48.3782 45.0127 48.3782 42.3042 48.3744 42.1062Z" fill="#0DB04B"/>
<path d="M69.922 46.8716L66.2794 42.9784C66.2794 42.9784 69.4881 40.6548 69.6784 40.4681C69.8687 40.2777 69.8306 40.0339 69.4728 39.7748C69.1112 39.5158 68.6697 39.7824 68.6697 39.7824L63.1697 43.8279V36.9483C63.1697 36.6398 62.8462 36.3884 62.4503 36.3884C62.0545 36.3884 61.731 36.6398 61.731 36.9483V47.0506V47.3591C61.731 47.6601 62.0545 47.9039 62.4503 47.9039C62.8462 47.9039 63.1697 47.6601 63.1697 47.3591V45.5497V45.1688L65.1794 43.6679C65.1794 43.6679 68.5175 47.3706 68.8943 47.7248C69.2711 48.0753 69.6784 47.9153 69.941 47.782C70.4625 47.4315 69.922 46.883 69.922 46.883" fill="#0DB04B"/>
<path d="M40.3891 69.3084C40.5565 71.274 42.5738 71.7806 42.8669 71.8644C45.4552 72.5539 46.7645 71.1292 47.0043 70.8359V74.649C47.0043 74.9537 47.3202 75.1975 47.7084 75.1975C48.0967 75.1975 48.4126 74.9537 48.4126 74.649V64.101C48.4126 63.8039 48.1043 63.5639 47.7199 63.5639H47.6932C47.3126 63.5639 47.0005 63.8039 47.0005 64.101V69.015C46.8863 70.1464 45.8929 70.7026 45.478 70.8054C42.06 71.5939 41.7707 69.0684 41.7707 69.0684V67.0494C41.7707 66.2266 41.7707 65.0534 41.7707 64.0934C41.7707 63.7963 41.4586 63.5525 41.078 63.5525C40.6936 63.5525 40.3853 63.7925 40.3853 64.0934C40.3853 66.0133 40.3853 69.1027 40.3891 69.3084Z" fill="#0DB04B"/>
<path d="M54.8916 63.3468C50.404 63.0497 49.7798 66.8513 49.8065 67.4722C49.8788 71.5672 53.1902 71.9215 53.8601 71.9634C58.6369 72.2034 58.8919 68.6988 58.9452 68.0208C58.9985 63.4458 54.8916 63.3468 54.8916 63.3468ZM54.0694 70.9463C53.6089 70.9159 51.3328 70.6492 51.2833 67.5446C51.3061 67.0875 51.5573 64.2267 54.6404 64.4477C54.6404 64.4477 57.4151 64.4591 57.5598 67.9598C57.5217 68.4703 57.3504 71.1254 54.0656 70.9425L54.0694 70.9463Z" fill="#0DB04B"/>
<path d="M69.191 64.8591V64.021C69.191 63.7277 68.8979 63.4915 68.5363 63.4915C68.1747 63.4915 67.8817 63.7277 67.8817 64.021C67.8817 64.4781 67.8817 65 67.8817 65.5333V65.7085C67.8817 67.1827 67.8474 68.1046 67.7713 68.4779C67.0214 70.9387 65.3848 70.8816 64.4256 70.9082C62.2713 70.8549 62.4159 68.2265 62.4159 68.2265V65.2438V64.0172C62.4159 63.7239 62.1152 63.4877 61.7498 63.4877C61.3806 63.4877 61.0837 63.7239 61.0837 64.0172C61.0837 64.2915 61.0837 64.5886 61.0837 64.8972C61.0837 65.8495 61.0799 67.4761 61.0837 68.935C61.2169 71.3958 62.9983 71.9786 64.1896 71.9977C66.4695 72.2377 67.6685 70.7254 67.8093 70.5349H67.8169V71.4758C67.8169 71.7501 68.091 71.9939 68.4526 72.0091C68.8446 72.0282 69.172 71.7882 69.172 71.4949V70.4587V67.0151C69.172 67.0151 69.1834 66.0857 69.1872 65.2438V64.8591H69.191Z" fill="#0DB04B"/>
<path d="M97.9891 63.5944H71.2808C71.1476 63.5944 71.041 63.5106 71.041 63.4078V63.3506C71.041 63.2478 71.1476 63.164 71.2808 63.164H97.9891C98.1224 63.164 98.2289 63.2478 98.2289 63.3506V63.4078C98.2289 63.5106 98.1224 63.5944 97.9891 63.5944Z" fill="#0DB04B"/>
<path d="M45.7743 51.9417C43.1937 51.2522 41.8881 52.6731 41.6522 52.9664V49.1647C41.6522 48.8638 41.34 48.62 40.9518 48.62C40.5636 48.62 40.2515 48.8638 40.2515 49.1647V59.7317C40.2515 60.0326 40.5674 60.2803 40.9518 60.2803C41.3362 60.2803 41.6522 60.0365 41.6522 59.7317V54.7796C41.7663 53.6521 42.8587 53.1073 43.167 52.9931C46.5736 52.2084 46.8629 54.7263 46.8629 54.7263V56.7376C46.8629 57.5566 46.8629 58.7946 46.8629 59.7508C46.8629 60.0479 47.1712 60.2917 47.5556 60.2917C47.9401 60.2917 48.2484 60.0517 48.2484 59.7546C48.2484 57.8423 48.2484 54.6958 48.2446 54.4901C48.0771 52.5321 46.0636 52.0255 45.7743 51.9417Z" fill="#D71921"/>
<path d="M55.0585 51.7018C54.4457 51.6446 51.5034 51.8541 50.5481 54.7187C50.4415 55.4501 49.4252 60.0136 54.7692 60.4441C55.3097 60.4708 57.4564 60.6955 59.1349 59.0842C59.3138 58.8442 59.3595 58.4823 58.8381 58.2842C58.3166 58.0861 57.7647 58.6004 57.7647 58.6004C57.7647 58.6004 56.2003 59.9146 53.9052 59.0689C53.3381 58.8442 52.0896 58.368 51.7965 56.6538H58.3775C58.3775 56.6538 59.2339 56.73 59.2796 55.8044C59.3253 55.012 59.3976 51.9303 55.0585 51.6979M51.7927 55.5682C52.1733 53.4159 53.6235 53.0121 54.2744 52.9169C57.8827 52.4331 57.936 55.5682 57.936 55.5682H51.7965H51.7927Z" fill="#D71921"/>
<path d="M72.5941 48.7382H72.381C72.0536 48.7382 71.791 48.9439 71.791 49.1991V59.8232C71.791 60.0784 72.0536 60.2841 72.381 60.2841H72.5941C72.9215 60.2841 73.1841 60.0784 73.1841 59.8232V49.1991C73.1841 48.9439 72.9215 48.7382 72.5941 48.7382Z" fill="#D71921"/>
<path d="M88.5769 51.8884C85.9963 51.1989 84.6908 52.6198 84.4548 52.9131V49.1114C84.4548 48.8105 84.1427 48.5667 83.7544 48.5667C83.3662 48.5667 83.0503 48.8105 83.0503 49.1114V59.7546C83.0503 60.0555 83.3662 60.3031 83.7544 60.3031C84.1427 60.3031 84.4548 60.0593 84.4548 59.7546V54.7263C84.569 53.5987 85.6614 53.054 85.9697 52.9397C89.3763 52.155 89.6655 54.673 89.6655 54.673V56.6843C89.6655 57.5033 89.6655 58.7946 89.6655 59.7546C89.6655 60.0517 89.9776 60.2917 90.3583 60.2917C90.7389 60.2917 91.051 60.0517 91.051 59.7546C91.051 57.8423 91.051 54.6425 91.0472 54.433C90.8797 52.475 88.8662 51.9684 88.5769 51.8846" fill="#D71921"/>
<path d="M100.392 52.0332C100.004 52.0332 99.6914 52.277 99.6914 52.5817V57.4691C99.5772 58.5928 98.4848 59.1375 98.1765 59.2556C94.77 60.0403 94.4807 57.5224 94.4807 57.5224V55.5073C94.4807 54.6883 94.4807 53.5112 94.4807 52.5513C94.4807 52.2541 94.1724 52.0141 93.7879 52.0141C93.4035 52.0141 93.0952 52.2541 93.0952 52.5513C93.0952 54.4635 93.0952 57.5529 93.099 57.7586C93.2665 59.7165 95.28 60.2232 95.5693 60.307C98.1499 60.9965 99.4554 59.5756 99.6914 59.2823V63.0611C99.6914 63.362 100.007 63.6096 100.392 63.6096C100.776 63.6096 101.096 63.3659 101.096 63.0611V52.5817C101.096 52.2808 100.78 52.0332 100.392 52.0332Z" fill="#D71921"/>
<path d="M69.6213 54.4635C69.5985 53.5493 69.3587 53.3283 69.1037 52.9931C67.0712 50.9361 63.0556 52.1551 62.9795 52.1703C62.8995 52.1855 61.8376 52.4446 62.1307 52.9893C62.4237 53.534 63.3981 53.1493 63.6684 53.0693C64.4487 52.8369 65.3507 52.875 65.9369 52.9093C68.3158 53.035 68.2244 54.5663 68.2244 54.5663V56.0024C64.6428 54.094 62.0964 56.1739 61.9137 56.4215C60.5815 57.9642 61.6625 59.4537 62.949 60.0098C66.0739 61.0802 68.2206 59.2594 68.2206 59.2594C68.2206 59.2594 68.2206 59.2442 68.2283 59.3165V59.7813C68.2283 60.0822 68.5404 60.3222 68.9286 60.3222C69.3168 60.3222 69.6289 60.0784 69.6289 59.7813V58.4937C69.6289 57.1224 69.6366 55.0577 69.6213 54.4673M65.9064 59.2365C65.2442 59.3013 63.3106 59.5146 62.7549 58.0061C62.5874 57.5757 62.9224 56.33 65.3393 56.3186C65.3393 56.3186 67.9961 56.1701 68.1635 57.6595C68.1407 57.9871 68.213 58.8518 65.9026 59.2327L65.9064 59.2365Z" fill="#D71921"/>
<path d="M80.1001 59.2899C79.5292 59.3775 79.1029 59.3242 78.8289 59.1375C78.3417 58.8023 78.3036 58.0557 78.3302 57.7966V54.0559H78.334V53.0541H80.0621C80.4161 53.0541 80.7244 52.8484 80.7472 52.5741C80.77 52.2732 80.4655 52.0256 80.0849 52.0256H78.3379V50.7533C78.3379 50.7304 78.3379 50.7075 78.3302 50.6847C78.3302 50.6847 78.3264 50.6542 78.3226 50.6428C78.3036 50.559 78.2579 50.479 78.1932 50.4142H78.1894C78.1894 50.4142 78.1742 50.3952 78.1628 50.3838C78.0448 50.2771 77.8773 50.2009 77.687 50.1933C77.2797 50.1742 76.9448 50.4218 76.9448 50.7342V52.0256H76.3776C76.0237 52.0256 75.7154 52.2313 75.6925 52.5055C75.6659 52.8065 75.9742 53.0541 76.3548 53.0541H76.9448V57.7281C76.9257 57.9643 76.8648 59.2137 77.9039 59.9375C78.2351 60.1698 78.7794 60.4098 79.6129 60.4098C79.8451 60.4098 80.0963 60.3908 80.3742 60.3489C80.751 60.2917 80.9984 60.006 80.9223 59.7127C80.85 59.4194 80.4846 59.2289 80.1039 59.2861" fill="#D71921"/>
<path d="M79.5515 42.0604C79.5287 41.1462 79.2889 40.9253 79.0339 40.59C77.0013 38.533 72.9857 39.752 72.9096 39.7672C72.8335 39.7825 71.7678 40.0415 72.0608 40.5862C72.3539 41.131 73.3283 40.7462 73.5986 40.6662C74.3788 40.4339 75.2809 40.472 75.8671 40.5062C78.246 40.6319 78.1546 42.1633 78.1546 42.1633V43.5994C74.573 41.6909 72.0266 43.7708 71.8439 44.0184C70.5117 45.5612 71.5927 47.0506 72.8792 47.6068C76.0041 48.6772 78.1508 46.8563 78.1508 46.8563C78.1508 46.8563 78.1508 46.8411 78.1584 46.9135V47.3782C78.1584 47.6791 78.4705 47.9191 78.8588 47.9191C79.247 47.9191 79.5591 47.6753 79.5591 47.3782V46.0907C79.5591 44.7193 79.5667 42.6547 79.5515 42.0642M75.8366 46.8335C75.1743 46.8982 73.2408 47.1116 72.6851 45.6031C72.5176 45.1726 72.8525 43.927 75.2695 43.9156C75.2695 43.9156 77.9262 43.767 78.0937 45.2564C78.0709 45.584 78.1432 46.4487 75.8328 46.8297L75.8366 46.8335Z" fill="#0DB04B"/>
</svg>
