<svg width="45" height="42" viewBox="0 0 45 42" fill="none" xmlns="http://www.w3.org/2000/svg">
<g clip-path="url(#clip0_124_3760)">
<path d="M0.550781 12.1505L11.0293 0.608215L23.5027 2.52109L43.3278 12.4108V13.2046L30.7984 11.4869L17.7983 4.75929L7.84652 15.651L0.550781 12.1505Z" fill="#D71921"/>
<path d="M5.07828 9.32676L4.92139 4.44698L7.57744 3.05461L10.5473 4.44698V7.54401L8.11537 10.5109L5.07828 9.32676Z" fill="white" stroke="#D71921" stroke-width="0.232603" stroke-miterlimit="10"/>
<path d="M3.28511 13.5299V28.1172L0.236816 29.5616V30.3554L22.3594 41.3642L44.6276 30.4205V29.3014L41.4337 27.4535V13.0094" stroke="#D71921" stroke-width="0.232603" stroke-miterlimit="10"/>
<path d="M3.28516 28.1172L23.1887 18.3446L41.4337 27.4535" stroke="#D71921" stroke-width="0.232603" stroke-miterlimit="10"/>
<path d="M4.91016 5.25378L7.46535 6.38589L10.4912 5.01955" stroke="#D71921" stroke-width="0.232603" stroke-miterlimit="10"/>
<path d="M4.92139 4.44698L7.48778 5.64416L10.3456 4.40794" stroke="#D71921" stroke-width="0.232603" stroke-miterlimit="10"/>
<path d="M0.774902 29.3014L22.0569 39.9848L44.6278 29.3014" stroke="#D71921" stroke-width="0.232603" stroke-miterlimit="10"/>
<path opacity="0.5" d="M22.4494 32.6326C30.6257 32.6326 37.2538 32.318 37.2538 31.9299C37.2538 31.5418 30.6257 31.2272 22.4494 31.2272C14.2732 31.2272 7.64502 31.5418 7.64502 31.9299C7.64502 32.318 14.2732 32.6326 22.4494 32.6326Z" fill="#559ED6"/>
<path d="M28.3107 20.9471C28.3443 20.7259 28.378 20.4917 28.4004 20.2704C28.434 19.9321 28.4676 19.5938 28.49 19.2685C28.5012 19.0993 28.5236 19.0212 28.3219 18.9692C28.1986 18.9301 28.053 18.9301 27.9297 18.9301C27.7616 18.9301 27.6495 18.9952 27.5935 19.1383C27.5598 19.2294 27.5598 19.3205 27.5486 19.3986C27.5038 20.4136 27.4814 21.4416 27.459 22.4566C27.459 22.6258 27.4814 22.6908 27.6607 22.7168C27.7728 22.7299 27.9633 22.7949 27.9857 22.6518C28.0193 22.5217 28.0417 22.4045 28.0642 22.2744C28.1538 21.832 28.2323 21.4026 28.2995 20.9601L28.3107 20.9471Z" fill="#F5957D"/>
<path d="M27.4814 22.3655C27.5598 22.3135 27.627 22.3135 27.7279 22.3395C27.7727 22.3395 27.8176 22.3525 27.8512 22.3655C27.9296 22.3915 27.9857 22.4045 27.9969 22.4826C28.0305 22.6258 27.9969 22.7949 27.9857 22.9511C27.9745 23.0942 27.9745 23.2374 27.8848 23.3675C27.8736 23.3935 27.8512 23.4065 27.8288 23.4195C27.8288 23.4195 27.8176 23.4195 27.8064 23.4195C27.7839 23.4195 27.7727 23.4195 27.7727 23.3935C27.7727 23.3805 27.7727 23.3675 27.7727 23.3545C27.7727 23.3285 27.8288 23.0682 27.8176 23.0682C27.8176 23.0682 27.8064 23.0682 27.7951 23.0682C27.7951 23.0682 27.7167 23.3545 27.7167 23.3805C27.7055 23.4195 27.6943 23.4716 27.6495 23.4976C27.627 23.5236 27.5822 23.5367 27.5598 23.5236C27.5374 23.5236 27.5374 23.4846 27.5486 23.4716C27.5486 23.3935 27.5822 23.3024 27.6046 23.2243L27.6382 23.0552H27.6158C27.6158 23.0552 27.571 23.2374 27.571 23.2504C27.5486 23.3285 27.5262 23.4065 27.4814 23.4846C27.4814 23.4976 27.4589 23.5106 27.4477 23.5236C27.4365 23.5236 27.4141 23.5367 27.3917 23.5367C27.3805 23.5367 27.3581 23.5236 27.3581 23.5106C27.3581 23.4976 27.3581 23.4846 27.3581 23.4716C27.3581 23.4065 27.3917 23.3415 27.4029 23.2894C27.4141 23.2113 27.4365 23.1202 27.4589 23.0422H27.4477C27.4477 23.0422 27.4029 23.1723 27.3917 23.2243C27.3805 23.2764 27.3693 23.3415 27.3357 23.3935C27.3245 23.4195 27.302 23.4326 27.2684 23.4456C27.246 23.4456 27.2124 23.4456 27.2124 23.4195C27.2124 23.3154 27.2236 23.2243 27.246 23.1202C27.2684 23.0942 27.2684 23.0031 27.2796 22.9771C27.2908 22.9251 27.3245 22.86 27.3469 22.8079V22.7819C27.3357 22.7819 27.3132 22.7819 27.3132 22.7949C27.246 22.86 27.19 22.9771 27.0891 23.0031C26.9995 23.0292 27.1227 22.834 27.1339 22.8079C27.1676 22.7429 27.2124 22.6908 27.246 22.6258C27.302 22.5347 27.3693 22.4436 27.4701 22.3785C27.4814 22.3785 27.4926 22.3655 27.5038 22.3525L27.4814 22.3655Z" fill="#F5957D"/>
<path d="M28.0415 16.8611C28.12 16.6659 28.2208 16.4837 28.3553 16.3276C28.4674 16.1974 28.6243 16.0803 28.8036 16.0933C29.2967 16.1324 29.1398 16.744 29.0838 17.0042C28.9941 17.4337 28.882 17.8631 28.77 18.2925C28.7139 18.5137 28.6579 18.7219 28.6131 18.9431C28.5906 19.0472 28.5682 19.1644 28.5458 19.2685C28.5346 19.3595 28.5458 19.4767 28.4562 19.5417C28.3777 19.6068 28.2432 19.6068 28.1312 19.5938C27.9967 19.5938 27.8734 19.5808 27.7389 19.5808C27.6044 19.5808 27.526 19.5547 27.5372 19.4246C27.5932 18.852 27.6605 18.2665 27.7613 17.7069C27.8062 17.4597 27.8846 17.2515 27.9631 17.0172C27.9855 16.9652 27.9967 16.9131 28.0191 16.8611H28.0415Z" fill="#F5957D"/>
<path d="M28.7812 19.0212L29.1062 17.5768C29.1735 17.2775 29.2407 16.9652 29.2855 16.6659C29.3079 16.4707 29.3192 16.2495 29.1511 16.1194C28.9605 15.9632 28.7028 15.9502 28.4786 16.0673C28.2433 16.1844 28.12 16.4187 28.0191 16.6399C27.9183 16.8741 27.851 17.1084 27.7838 17.3426C27.6269 17.9021 27.4812 18.4617 27.3691 19.0342C27.3691 19.0342 27.6941 19.0082 27.739 19.0082H28.1424C28.3554 19.0082 28.5571 19.0082 28.77 19.0082L28.7812 19.0212Z" fill="#71C391"/>
<path d="M28.9272 31.8128C29.0281 31.8128 29.1401 31.8128 29.241 31.7868H29.2746C29.2746 31.7868 29.3082 31.7868 29.3194 31.7738H29.3531C29.4203 31.7347 29.4427 31.7087 29.4427 31.6436V31.6176C29.4427 31.4745 29.4427 31.3183 29.4539 31.1752C29.4876 30.2513 29.6108 29.3274 29.622 28.3905C29.622 28.0521 29.622 27.7138 29.5212 27.4015C29.4427 27.1673 29.1738 26.9721 28.8824 27.0371C28.6582 27.0892 28.4901 27.2844 28.4341 27.4796C28.3781 27.6748 28.4005 27.883 28.4229 28.0912C28.5237 28.963 28.5798 29.8479 28.7143 30.7197C28.7367 30.8629 28.7591 31.006 28.7703 31.1492C28.7703 31.2793 28.7703 31.4224 28.7591 31.5526C28.7591 31.6046 28.7367 31.6436 28.7255 31.6957C28.6919 31.8128 28.8375 31.8388 28.9384 31.8388L28.9272 31.8128Z" fill="#F5957D"/>
<path d="M27.8176 32.047L29.5547 32.008V31.982C29.5547 31.982 29.5547 31.9299 29.5547 31.9039C29.5547 31.8128 29.521 31.7217 29.465 31.6436C29.4538 31.6306 29.4314 31.6046 29.409 31.6046C29.3866 31.6046 29.3529 31.6046 29.3305 31.6306C29.2409 31.6827 29.1176 31.7087 29.0279 31.6697C28.9607 31.6567 28.9047 31.6176 28.8598 31.5786C28.8374 31.5656 28.8262 31.5395 28.7926 31.5265C28.7702 31.5135 28.7366 31.5135 28.7029 31.5265C28.6133 31.5395 28.546 31.6046 28.4676 31.6436C28.3779 31.6827 28.2883 31.7217 28.1986 31.7608C28.1202 31.7868 28.0417 31.8128 27.9633 31.8388C27.9184 31.8649 27.84 31.9039 27.8064 31.9429C27.784 31.969 27.7728 32.008 27.8064 32.047H27.8176Z" fill="#E65860"/>
<path d="M27.8177 32.047L29.5548 32.008V31.982C29.5548 31.982 29.5548 31.9299 29.5548 31.9039L27.8177 31.9429C27.8177 31.9429 27.7841 32.008 27.8177 32.047Z" fill="white"/>
<path d="M28.2099 31.8128C28.2099 31.8128 28.2435 31.7868 28.2547 31.7868C28.3556 31.7477 28.4452 31.7087 28.5349 31.6567C28.5909 31.6306 28.6357 31.6046 28.6806 31.5656H28.703C28.703 31.5656 28.7142 31.5656 28.703 31.5656C28.6133 31.6306 28.5125 31.6827 28.4116 31.7217C28.3668 31.7477 28.3107 31.7608 28.2547 31.7868C28.2547 31.7868 28.2323 31.7868 28.2211 31.7998V31.8258C28.2211 31.8388 28.2883 31.8909 28.2771 31.9039C28.2547 31.9299 28.2211 31.8779 28.2099 31.8649C28.2099 31.8649 28.1987 31.8388 28.1875 31.8388C28.1875 31.8258 28.165 31.8128 28.165 31.7868L28.2099 31.8128Z" fill="#D63F4E"/>
<path d="M29.2407 31.8909C29.2631 31.7868 29.3192 31.6957 29.42 31.6306C29.42 31.6306 29.4424 31.6306 29.4537 31.6306C29.4537 31.6306 29.4537 31.6306 29.4537 31.6436C29.3528 31.6957 29.308 31.7868 29.2856 31.8909C29.2856 31.9039 29.2407 31.8909 29.2407 31.8909Z" fill="#D63F4E"/>
<path d="M28.5571 31.5786C28.5571 31.5786 28.5571 31.5786 28.5683 31.5786H28.5795L28.6468 31.6436C28.6468 31.6436 28.6468 31.6436 28.6356 31.6436H28.6244L28.5571 31.5786Z" fill="#D9E1F2"/>
<path d="M28.4678 31.6306H28.4902C28.5126 31.6436 28.535 31.6697 28.5462 31.6827C28.5462 31.6827 28.5462 31.6957 28.535 31.6957H28.5238C28.5238 31.6957 28.4902 31.6566 28.4678 31.6436V31.6306Z" fill="#D9E1F2"/>
<path d="M28.3555 31.6697C28.3555 31.6697 28.3555 31.6697 28.3667 31.6697H28.3779L28.4227 31.7217C28.4227 31.7217 28.4227 31.7347 28.4115 31.7347H28.4003L28.3555 31.6827V31.6697Z" fill="#D9E1F2"/>
<path d="M28.2549 31.7087C28.2549 31.7087 28.2773 31.7087 28.2885 31.7087C28.3109 31.7217 28.3333 31.7477 28.3445 31.7738H28.3333H28.3109H28.2997V31.7477H28.2885C28.2885 31.7477 28.2661 31.7217 28.2549 31.7087Z" fill="#D9E1F2"/>
<path d="M27.9747 21.1292C27.941 21.3764 27.9074 21.6237 27.885 21.8839C27.8626 22.1312 27.8738 22.3784 27.885 22.6257V22.7818C27.9074 23.5496 27.9523 24.3043 27.9859 25.059C28.0419 26.2172 28.1876 27.3493 28.1764 28.5074C28.1764 28.5465 28.1764 28.5855 28.1764 28.6375C28.1764 28.9889 28.1876 29.3272 28.21 29.6786C28.2212 29.9648 28.1316 30.3032 28.2885 30.5634C28.3557 30.6675 28.4566 30.7716 28.4229 30.8888C28.4117 30.9408 28.3669 30.9929 28.3333 31.0449C28.2212 31.2271 28.2436 31.4353 28.2773 31.6305C28.5462 31.6305 28.8152 31.6435 29.0954 31.6695C29.2411 31.6695 29.4988 31.7996 29.6221 31.6825C29.6557 31.6565 29.6669 31.6175 29.6781 31.5784C29.723 31.4613 29.723 31.3442 29.723 31.2271C29.7454 30.5504 29.7566 29.8738 29.7678 29.1971C29.7678 28.8718 29.8238 28.5334 29.7678 28.2081C29.7342 27.9088 29.7342 27.5965 29.7342 27.2972C29.7342 26.9589 29.7566 26.6206 29.7678 26.2822C29.7902 25.6186 29.8238 24.9419 29.8799 24.2783C29.9583 23.1982 29.9471 22.1442 29.9023 21.0771L27.9523 21.1292H27.9747Z" fill="#659F7F"/>
<path d="M29.4987 22.808C29.5436 23.5757 29.5884 24.3305 29.6444 25.0852C29.678 25.5407 29.7229 25.9961 29.7677 26.4386C29.8013 26.7378 29.8013 27.2584 30.1375 27.4405C30.2496 27.5056 30.3841 27.5186 30.5074 27.5316C30.6306 27.5316 30.7651 27.5446 30.8884 27.5186C31.5272 27.3755 31.4824 26.7118 31.4824 26.2694C31.4824 25.6057 31.516 24.9291 31.5496 24.2654C31.6056 23.1854 31.572 22.1313 31.5048 21.0643L29.5548 21.1424C29.5212 21.3896 29.4875 21.6499 29.4763 21.8971C29.4651 22.1443 29.4763 22.3916 29.4875 22.6388V22.795L29.4987 22.808Z" fill="#659F7F"/>
<path d="M32.2781 31.5135C32.3789 31.4875 32.4686 31.4485 32.5694 31.3964H32.5919C32.5919 31.3964 32.6143 31.3704 32.6367 31.3574H32.6591C32.7151 31.2923 32.7263 31.2663 32.7039 31.2012V31.1752C32.6479 31.0321 32.6031 30.8889 32.5582 30.7458C32.2781 29.8609 32.0651 28.937 31.7625 28.0521C31.6505 27.7268 31.5384 27.4145 31.3255 27.1282C31.1798 26.933 30.8436 26.8029 30.5858 26.9461C30.3841 27.0632 30.2944 27.2844 30.3168 27.4796C30.328 27.6878 30.4177 27.883 30.5186 28.0652C30.9108 28.8719 31.2694 29.7048 31.6953 30.4985C31.7625 30.6287 31.841 30.7588 31.897 30.8889C31.9531 31.0191 31.9979 31.1362 32.0203 31.2793C32.0203 31.3314 32.0315 31.3704 32.0315 31.4224C32.0315 31.5396 32.1884 31.5266 32.2893 31.5005L32.2781 31.5135Z" fill="#F5957D"/>
<path d="M31.3029 32.021L32.9504 31.5396V31.5135C32.9504 31.5135 32.9279 31.4615 32.9167 31.4485C32.8831 31.3574 32.8159 31.2793 32.7374 31.2273C32.715 31.2142 32.7038 31.2012 32.6702 31.2012C32.6478 31.2012 32.6254 31.2273 32.6029 31.2403C32.5357 31.3053 32.4236 31.3574 32.3228 31.3574C32.2555 31.3574 32.1883 31.3314 32.1323 31.3053C32.1098 31.3053 32.0874 31.2793 32.0538 31.2793C32.0202 31.2793 31.9978 31.2793 31.9641 31.2923C31.8857 31.3314 31.8409 31.4094 31.7848 31.4745C31.7176 31.5396 31.6391 31.6046 31.5607 31.6567C31.4935 31.7087 31.4262 31.7478 31.3702 31.7998C31.3366 31.8258 31.2693 31.8909 31.2581 31.943C31.2469 31.982 31.2581 32.008 31.2917 32.0341L31.3029 32.021Z" fill="#E65860"/>
<path d="M31.3032 32.021L32.9506 31.5396V31.5135C32.9506 31.5135 32.9282 31.4615 32.917 31.4485L31.2695 31.93C31.2695 31.93 31.2695 31.995 31.3032 32.021Z" fill="white"/>
<path d="M31.583 31.6957C31.583 31.6957 31.6054 31.6697 31.6166 31.6567C31.695 31.5916 31.7735 31.5265 31.8407 31.4615C31.8855 31.4224 31.9192 31.3834 31.9528 31.3444C31.9528 31.3444 31.964 31.3444 31.9752 31.3444C31.9752 31.3444 31.9976 31.3444 31.9864 31.3444C31.9192 31.4224 31.8407 31.5005 31.7623 31.5786C31.7174 31.6176 31.6838 31.6437 31.639 31.6827C31.639 31.6827 31.6166 31.6957 31.6054 31.7087C31.6054 31.7087 31.6054 31.7347 31.6278 31.7347C31.639 31.7347 31.7174 31.7738 31.7062 31.7998C31.7062 31.8258 31.639 31.7998 31.6278 31.7868C31.6278 31.7868 31.6054 31.7738 31.5942 31.7608C31.583 31.7608 31.5605 31.7347 31.5605 31.7217L31.583 31.6957Z" fill="#D63F4E"/>
<path d="M32.592 31.5135C32.5808 31.4094 32.592 31.3053 32.6816 31.2273H32.704C32.6256 31.3053 32.6144 31.4094 32.6256 31.5005C32.6256 31.5135 32.592 31.5266 32.592 31.5005V31.5135Z" fill="#D63F4E"/>
<path d="M31.8296 31.3834H31.852L31.9305 31.4087C31.9305 31.4087 31.9305 31.4087 31.9305 31.4214H31.908L31.8296 31.3961C31.8296 31.3961 31.8296 31.3961 31.8296 31.3834Z" fill="#D9E1F2"/>
<path d="M31.7622 31.4485H31.7846C31.807 31.4485 31.8406 31.4738 31.863 31.4865H31.8294C31.8294 31.4865 31.7846 31.4865 31.751 31.4738C31.751 31.4738 31.751 31.4738 31.751 31.4611L31.7622 31.4485Z" fill="#D9E1F2"/>
<path d="M31.6841 31.5265H31.7177L31.7849 31.5519H31.6953V31.5265H31.6841Z" fill="#D9E1F2"/>
<path d="M31.5942 31.5916H31.6167C31.6503 31.5916 31.6727 31.6176 31.6951 31.6307C31.6951 31.6307 31.6727 31.6567 31.6727 31.6437H31.6391V31.6176C31.6391 31.6176 31.6054 31.6176 31.5942 31.6046C31.5942 31.6046 31.5942 31.6046 31.5942 31.5916Z" fill="#D9E1F2"/>
<path d="M31.8633 27.8439C31.7288 27.5837 31.6279 27.3104 31.5383 27.0372C31.471 26.8159 31.5159 26.5687 31.2469 26.4386C31.1348 26.3865 31.0115 26.3735 30.8883 26.3735C30.6417 26.3735 30.3952 26.4646 30.2046 26.6207C30.0702 26.7248 29.9581 26.868 29.9021 27.0241C29.8348 27.1933 29.9357 27.3104 30.0029 27.4666C30.1486 27.8179 30.2943 28.1823 30.4288 28.5466L30.4736 28.6637C30.5969 28.9891 30.7314 29.3144 30.8547 29.6397C30.9667 29.913 31.0003 30.2513 31.2357 30.4725C31.3366 30.5636 31.471 30.6287 31.4822 30.7588C31.4822 30.8239 31.4598 30.8759 31.4486 30.928C31.4038 31.1232 31.5047 31.3184 31.6055 31.5005C31.8633 31.4355 32.1322 31.3704 32.39 31.3184C32.5357 31.2923 32.8159 31.3314 32.9055 31.2012C32.9279 31.1622 32.9279 31.1232 32.9279 31.0841C32.9279 30.967 32.8943 30.8499 32.8495 30.7328C32.6366 30.0821 32.4236 29.4315 32.1995 28.7809C32.0986 28.4686 32.0202 28.1302 31.8745 27.8439H31.8633Z" fill="#659F7F"/>
<path d="M28.6131 15.0524C28.4899 14.9483 28.4338 14.8442 28.3778 14.714C28.3442 14.636 28.3105 14.5839 28.3105 14.4928C28.3105 14.2456 28.389 14.0113 28.5347 13.8031C28.6804 13.5949 28.9381 13.4908 29.2071 13.5689C29.2071 13.5299 29.2631 13.5038 29.308 13.4778C29.4761 13.3997 29.6778 13.4128 29.8571 13.4778C30.2157 13.5949 30.4959 13.9463 30.608 14.2586C30.6864 14.4668 30.6752 14.714 30.5183 14.8832C30.6416 14.9613 30.7313 15.0654 30.7761 15.1955C30.8209 15.3647 30.7761 15.5989 30.5968 15.703C30.4847 15.7681 30.339 15.7681 30.2045 15.729C30.0812 15.69 29.9692 15.6119 29.8907 15.5208C29.8459 15.4688 29.8123 15.4297 29.7562 15.3907C29.6442 15.3256 29.4873 15.3907 29.3528 15.3907C29.2968 15.3907 29.2295 15.3907 29.1735 15.3777C29.0838 15.3647 28.9942 15.3256 28.9157 15.2866H28.8821C28.7924 15.2085 28.7028 15.1565 28.6243 15.0914L28.6131 15.0524Z" fill="#414183"/>
<path d="M31.8855 20.9211C31.8855 21.2204 31.8743 21.5197 31.8407 21.819H27.8286C27.8734 21.0643 27.9295 20.3095 27.9071 19.5548C27.8959 18.735 27.8846 17.9152 28.0079 17.1084C28.0528 16.8742 28.0976 16.6269 28.2433 16.4187C28.4338 16.1454 28.714 15.9502 29.039 15.8201C29.2071 15.7551 29.3752 15.716 29.5545 15.69C29.8347 15.651 30.1821 15.664 30.5071 15.729C30.776 15.7811 31.045 15.8852 31.2579 16.0153C31.4597 16.1454 31.6166 16.3146 31.695 16.5228C31.7623 16.731 31.7735 16.9392 31.7735 17.1474C31.7959 17.9152 31.8183 18.6829 31.8407 19.4637C31.8519 19.9452 31.8855 20.4136 31.8743 20.8951L31.8855 20.9211Z" fill="#71C391"/>
<path d="M30.5297 15.755C30.5297 15.755 30.4736 15.8461 30.44 15.8852C30.1262 16.1975 29.79 16.4968 29.4426 16.77C29.4202 16.783 29.3978 16.796 29.3753 16.8091C29.2857 16.8351 29.2297 16.77 29.2184 16.705C29.1736 16.5748 29.14 16.4317 29.1176 16.2886C29.0952 16.1584 29.0728 16.0283 29.0728 15.8982C29.0728 15.8721 29.0728 15.8591 29.0728 15.8461C29.2409 15.7811 29.409 15.742 29.5883 15.716C29.8684 15.677 30.2159 15.69 30.5409 15.755H30.5297Z" fill="#F5957D"/>
<path d="M28.3105 17.0043C28.3105 17.0043 28.3105 17.0693 28.3441 17.0954C28.3441 17.1084 28.3666 17.1214 28.3778 17.1344C28.3778 17.1344 28.4002 17.1344 28.4114 17.1344C28.4562 17.1604 28.5122 17.1344 28.5571 17.1344C28.5907 17.1084 28.6131 17.0824 28.6243 17.0433C28.6243 17.0043 28.6243 16.9652 28.6243 16.9392C28.6243 16.9262 28.6019 16.9002 28.5795 16.8872H28.5459V16.8221C28.5459 16.8221 28.5571 16.744 28.5683 16.705C28.5795 16.6269 28.6131 16.5358 28.6355 16.4577C28.6916 16.3146 28.7588 16.1715 28.8485 16.0413C28.8933 15.9763 28.9269 15.9112 28.9829 15.8461C29.0278 15.7941 29.0838 15.755 29.151 15.716C29.2855 15.6509 29.4424 15.6379 29.5881 15.6249C29.7674 15.5989 29.9467 15.5859 30.1261 15.5599C30.2045 15.5859 30.2717 15.6379 30.3166 15.69C30.4286 15.8201 30.4286 15.9893 30.4062 16.1454C30.3838 16.3016 30.339 16.4577 30.2605 16.6139C30.2605 16.6139 30.2493 16.6139 30.2381 16.6139C30.1148 16.6269 30.0028 16.679 29.9243 16.757C29.8683 16.8091 29.8235 16.8611 29.7898 16.9262C29.7786 16.9522 29.7562 16.9782 29.745 17.0043C29.689 17.0954 29.6442 17.1865 29.6105 17.2906C29.5657 17.3947 29.5433 17.4857 29.5209 17.5898C29.5209 17.6289 29.5097 17.6809 29.5433 17.707C29.5545 17.707 29.5769 17.72 29.5993 17.733C29.5993 17.759 29.6554 17.759 29.6778 17.746C29.689 17.746 29.7114 17.733 29.7114 17.707C29.7114 17.694 29.7002 17.6809 29.6778 17.6809C29.6666 17.6809 29.6442 17.6809 29.6217 17.6809C29.6217 17.6809 29.6217 17.6159 29.6217 17.6029C29.6217 17.5508 29.6442 17.4988 29.6554 17.4597C29.689 17.3296 29.745 17.1995 29.8235 17.0693H29.8459C29.9131 17.0043 30.0252 16.9652 30.1373 16.9913C30.2493 17.0173 30.339 17.0954 30.3726 17.1995C30.3614 17.3036 30.339 17.3947 30.3054 17.4988C30.2717 17.5898 30.2381 17.6679 30.1933 17.746C30.1709 17.785 30.1485 17.8241 30.1148 17.8501C30.1148 17.8501 30.1036 17.8501 30.0924 17.8631H30.0812V17.8241C30.0812 17.7981 30.0028 17.7981 29.9916 17.8241C29.9579 17.8241 29.9355 17.8501 29.9355 17.8891C29.9355 17.9152 29.9804 17.9152 29.9916 17.9152H30.014C30.014 17.9152 30.0588 17.9152 30.07 17.9152C30.1373 17.9152 30.1821 17.8891 30.2269 17.8371C30.2942 17.759 30.339 17.6549 30.3726 17.5638C30.4062 17.4597 30.4398 17.3556 30.4511 17.2515C30.4511 17.2125 30.4511 17.1734 30.4623 17.1344C30.4623 17.0693 30.4623 16.9913 30.4623 16.9262C30.4623 16.8351 30.4286 16.744 30.3614 16.6659C30.4062 16.5749 30.4511 16.4838 30.4735 16.3927C30.4959 16.3146 30.5183 16.2235 30.5183 16.1324C30.5183 16.0413 30.5183 15.9502 30.4959 15.8722C30.4511 15.729 30.3502 15.6249 30.1933 15.5599C30.1933 15.5599 30.1597 15.5468 30.1373 15.5468C30.1373 15.5468 30.1148 15.5468 30.1036 15.5468C29.8907 15.5729 29.689 15.5989 29.476 15.6249C29.3192 15.6379 29.1623 15.664 29.0278 15.742C28.8821 15.8201 28.8036 15.9633 28.7252 16.0804C28.6355 16.2235 28.5683 16.3536 28.5122 16.5098C28.4898 16.5879 28.4674 16.6529 28.4562 16.731C28.4562 16.77 28.445 16.8091 28.4338 16.8481V16.8872L28.4114 16.9132C28.3441 16.9392 28.2993 16.9913 28.2993 17.0563L28.3105 17.0043ZM30.2717 16.6529C30.339 16.718 30.3614 16.8221 30.3614 16.9132C30.3614 16.9392 30.3614 16.9652 30.3614 16.9913C30.3614 17.0043 30.3614 17.0303 30.3614 17.0433C30.3054 16.9782 30.2269 16.9392 30.1373 16.9262C30.0476 16.9132 29.9467 16.9262 29.8683 16.9522C29.8795 16.9262 29.8907 16.9132 29.9131 16.8872C29.9916 16.77 30.1148 16.6659 30.2717 16.6529Z" fill="#26275E"/>
<path d="M29.5433 17.707C29.5433 17.707 29.5769 17.72 29.5993 17.733C29.5993 17.759 29.6554 17.759 29.6778 17.746C29.689 17.746 29.7114 17.733 29.7114 17.707C29.7114 17.694 29.7002 17.6809 29.6778 17.6809C29.6666 17.6809 29.6442 17.6809 29.6217 17.6809C29.6217 17.6809 29.6217 17.6159 29.6217 17.6029C29.6217 17.5508 29.6442 17.4988 29.6554 17.4597C29.689 17.3296 29.745 17.1995 29.8235 17.0693H29.8459C29.9131 17.0043 30.0252 16.9652 30.1373 16.9913C30.2493 17.0173 30.339 17.0954 30.3726 17.1995C30.3614 17.3036 30.339 17.3947 30.3054 17.4988C30.2717 17.5899 30.2381 17.6679 30.1933 17.746C30.1709 17.7851 30.1485 17.8241 30.1149 17.8501C30.1149 17.8501 30.1036 17.8501 30.0924 17.8631H30.0812V17.8241C30.0812 17.7981 30.0028 17.7981 29.9916 17.8241C29.958 17.8241 29.9355 17.8501 29.9355 17.8892C29.9355 17.9152 29.9804 17.9152 29.9916 17.9152H30.014C30.014 17.9152 30.0588 17.9152 30.07 17.9152C30.1373 17.9152 30.1821 17.8892 30.2269 17.8371C30.2942 17.759 30.339 17.6549 30.3726 17.5638C30.4062 17.4597 30.4399 17.3556 30.4511 17.2515C30.4511 17.2125 30.4511 17.1735 30.4623 17.1344C30.4399 17.0954 30.4062 17.0563 30.3726 17.0303C30.3726 17.0433 30.3726 17.0693 30.3726 17.0824C30.3166 17.0173 30.2381 16.9783 30.1485 16.9652C30.0588 16.9522 29.958 16.9652 29.8795 16.9913C29.8907 16.9652 29.9019 16.9522 29.9243 16.9262C29.9131 16.9262 29.8907 16.9262 29.8795 16.9262C29.8571 16.9262 29.8347 16.9392 29.8123 16.9522C29.8011 16.9783 29.7786 17.0043 29.7674 17.0303C29.7114 17.1214 29.6666 17.2125 29.633 17.3166C29.5881 17.4207 29.5657 17.5118 29.5433 17.6159C29.5433 17.6549 29.5321 17.707 29.5657 17.733L29.5433 17.707Z" fill="white"/>
<path d="M28.3105 17.0043C28.3105 17.0043 28.3105 17.0694 28.3442 17.0954C28.3442 17.1084 28.3666 17.1214 28.3778 17.1344C28.3778 17.1344 28.4002 17.1344 28.4114 17.1344C28.4562 17.1605 28.5123 17.1344 28.5571 17.1344C28.5907 17.1084 28.6131 17.0824 28.6243 17.0433C28.6243 17.0043 28.6243 16.9653 28.6243 16.9392C28.6243 16.9262 28.6019 16.9002 28.5795 16.8872H28.5459V16.8612C28.5459 16.8612 28.4899 16.8612 28.4562 16.8612L28.4338 16.8872C28.3666 16.9132 28.3218 16.9653 28.3218 17.0303L28.3105 17.0043Z" fill="white"/>
<path d="M31.8633 22.5738C31.8073 22.6779 31.7512 22.821 31.6168 22.847C31.5607 22.847 31.4599 22.873 31.4262 22.821C31.415 22.795 31.415 22.7559 31.415 22.7299L31.4711 20.8691C31.4711 20.6218 31.4823 20.3876 31.5047 20.1404C31.5271 19.763 31.628 19.0603 32.2668 19.2425C32.5582 19.3206 32.5245 19.6459 32.5357 19.8671C32.5469 20.2705 32.4573 20.6479 32.3676 21.0252C32.334 21.1944 32.3004 21.3636 32.2444 21.5327C32.1771 21.7409 32.1099 21.9491 32.0426 22.1573C31.9978 22.3005 31.953 22.4436 31.8745 22.5738H31.8633Z" fill="#F5957D"/>
<path d="M31.415 22.4436C31.4823 22.3916 31.5607 22.3785 31.6616 22.3915C31.7064 22.3915 31.7513 22.3915 31.7961 22.4176C31.8857 22.4306 31.9306 22.4436 31.953 22.5217C31.9978 22.6648 31.9866 22.834 31.9866 22.9901C31.9866 23.1333 32.009 23.2764 31.9306 23.4196C31.9194 23.4456 31.9081 23.4586 31.8857 23.4846C31.8857 23.4846 31.8745 23.4846 31.8633 23.4846C31.8409 23.4846 31.8297 23.4846 31.8297 23.4586C31.8297 23.4456 31.8297 23.4326 31.8297 23.4196C31.8297 23.3935 31.8521 23.1333 31.8409 23.1333H31.8185C31.8185 23.1333 31.7737 23.4326 31.7737 23.4586C31.7737 23.4976 31.7513 23.5497 31.7176 23.5757C31.6952 23.6017 31.6616 23.6147 31.628 23.6017C31.6056 23.6017 31.6056 23.5627 31.6056 23.5497C31.6056 23.4716 31.628 23.3805 31.6392 23.3024V23.1333C31.6392 23.1333 31.6168 23.3155 31.6056 23.3285C31.6056 23.4065 31.5719 23.4846 31.5383 23.5627C31.5383 23.5757 31.5271 23.5887 31.5159 23.6017C31.5047 23.6017 31.4823 23.6278 31.4599 23.6147C31.4375 23.6147 31.4263 23.6147 31.4263 23.5887C31.4263 23.5887 31.4263 23.5627 31.4263 23.5497C31.4263 23.4846 31.4375 23.4196 31.4487 23.3545C31.4487 23.2764 31.4599 23.1853 31.4711 23.1073H31.4599C31.4599 23.1073 31.4262 23.2374 31.415 23.3024C31.415 23.3545 31.4038 23.4196 31.3814 23.4716C31.3814 23.4976 31.359 23.5106 31.3142 23.5237C31.303 23.5237 31.2581 23.5237 31.2581 23.5106C31.2581 23.4065 31.2581 23.3155 31.2581 23.2114C31.2806 23.1853 31.2694 23.0942 31.2806 23.0552C31.2806 23.0031 31.3142 22.9381 31.3254 22.886V22.86C31.3142 22.86 31.2918 22.86 31.2918 22.873C31.2357 22.9511 31.1797 23.0682 31.09 23.1073C31.0004 23.1463 31.1012 22.9381 31.1125 22.9121C31.1461 22.847 31.1797 22.7949 31.2133 22.7299C31.2694 22.6388 31.3142 22.5347 31.4038 22.4566C31.415 22.4566 31.4262 22.4306 31.4375 22.4306L31.415 22.4436Z" fill="#F5957D"/>
<path d="M31.886 16.8351C31.8636 16.77 31.8412 16.705 31.8076 16.6269C31.7627 16.4968 31.7067 16.3666 31.6058 16.2625C31.4938 16.1454 31.2472 16.0804 31.0679 16.0804C30.9446 16.0804 30.8214 16.1064 30.7429 16.1975C30.6757 16.2756 30.6645 16.3797 30.6757 16.4838C30.6757 16.679 30.7317 16.8741 30.7765 17.0563C30.8886 17.4857 31.0343 17.9022 31.18 18.3316C31.2472 18.5398 31.3145 18.761 31.3817 18.9822C31.4153 19.0863 31.4377 19.2034 31.4714 19.3075C31.4938 19.4246 31.505 19.5418 31.5386 19.6719C31.5386 19.6849 31.5386 19.7109 31.561 19.7239C31.5834 19.75 31.6283 19.763 31.6731 19.763C31.8636 19.776 32.0653 19.763 32.2558 19.75C32.3455 19.737 32.4464 19.7109 32.4912 19.6459C32.536 19.5808 32.5136 19.5027 32.4912 19.4246C32.3455 18.5658 32.1886 17.6939 31.886 16.8611V16.8351Z" fill="#F5957D"/>
<path d="M31.2471 19.0473L30.8213 17.6289C30.7316 17.3296 30.642 17.0303 30.5747 16.731C30.5299 16.5358 30.5187 16.3146 30.6644 16.1845C30.8885 15.9763 31.3032 16.0023 31.5609 16.1845C31.6618 16.2495 31.7402 16.3797 31.8075 16.4968C31.8187 16.5228 31.8411 16.5488 31.8523 16.5749C32.0652 16.9262 32.1885 17.3166 32.3118 17.707C32.379 17.9282 32.4463 18.1624 32.5023 18.3836C32.5359 18.5398 32.6368 18.7089 32.6032 18.8651C32.5696 19.0603 32.323 19.0082 32.1437 19.0213L31.2359 19.0733L31.2471 19.0473Z" fill="#71C391"/>
<path d="M31.2583 19.0213C31.0902 18.5658 30.9669 18.0974 30.8773 17.6159C30.8548 17.4858 30.8324 17.3426 30.8212 17.2125H30.7876C30.8436 17.694 30.9445 18.1624 31.0902 18.6309C31.135 18.761 31.1798 18.8911 31.2247 19.0213C31.2247 19.0213 31.2695 19.0213 31.2583 19.0213Z" fill="#659F7F"/>
<path d="M28.064 16.9002C27.9968 17.1604 27.9519 17.4207 27.9071 17.694C27.8735 17.9672 27.8511 18.2275 27.8511 18.5007C27.8511 18.6569 27.8511 18.8 27.8511 18.9562H27.8847C27.8735 18.6829 27.8735 18.4227 27.8847 18.1494C27.9071 17.8761 27.9407 17.6159 27.9856 17.3426C28.008 17.1995 28.0416 17.0433 28.0864 16.9002H28.0528H28.064Z" fill="#659F7F"/>
<path d="M31.6053 16.3406C31.3363 16.3536 31.157 16.5358 31.0562 16.731C31.0562 16.731 31.0898 16.744 31.0898 16.731C31.1794 16.5488 31.3475 16.3666 31.5941 16.3536C31.6165 16.3536 31.6165 16.3406 31.5941 16.3406H31.6053Z" fill="#659F7F"/>
<path d="M29.3868 16.0153C29.4988 16.0153 29.5997 16.0023 29.7006 15.9763C29.7566 15.9763 29.8126 15.9502 29.8575 15.9242C29.8799 15.9242 29.9135 15.9112 29.9359 15.8982C29.9471 15.8982 29.9471 15.8722 29.9583 15.8722C29.9583 15.8722 29.9807 15.8722 29.9919 15.8722C30.048 15.8722 30.1152 15.8461 30.1713 15.8331C30.2049 15.8331 30.2273 15.8071 30.2497 15.7811C30.2945 15.729 30.2497 15.651 30.2273 15.5859C30.1376 15.4037 30.0704 15.2215 30.0144 15.0263C30.0144 15.0003 29.9919 14.9613 29.9807 14.9353C29.8911 14.8051 29.6781 14.8832 29.5549 14.9222C29.51 14.9353 29.4652 14.9613 29.4204 14.9743C29.3419 15.0003 29.2523 15.0263 29.1738 15.0524C29.1402 15.0524 29.0506 15.0524 29.0281 15.0914C28.9945 15.1435 28.9945 15.1955 29.0057 15.2606C29.0057 15.2996 29.0281 15.3386 29.0393 15.3777C29.0618 15.4427 29.0842 15.5208 29.0954 15.5989C29.1178 15.716 29.1402 15.8201 29.1514 15.9372C29.1514 16.0413 29.2859 16.0543 29.3868 16.0543V16.0153Z" fill="#F5957D"/>
<path d="M29.0955 15.5729C29.1628 15.6379 29.2524 15.69 29.3533 15.703C29.5886 15.742 29.8912 15.5599 29.936 15.3517C29.936 15.3126 29.9585 15.2345 29.936 15.1825C29.9024 15.1044 29.8128 15.0654 29.7231 15.0524C29.6334 15.0524 29.5438 15.0524 29.4541 15.0914C29.3645 15.1174 29.286 15.1565 29.1964 15.1695C29.1291 15.1695 29.0619 15.1695 29.0171 15.2215H29.0059C29.0059 15.2215 29.0283 15.3256 29.0395 15.3647C29.0619 15.4297 29.0843 15.5078 29.0955 15.5859V15.5729Z" fill="#DA6357"/>
<path d="M28.7589 15.1565C28.7589 15.1565 28.8038 15.2475 28.8374 15.2866C28.9158 15.4037 29.0279 15.4818 29.1624 15.5468C29.3529 15.6379 29.6443 15.5598 29.8012 15.4427C29.9469 15.3256 30.0589 15.1695 30.115 15.0003C30.1598 14.8832 30.1934 14.7531 30.2158 14.6229H30.2046C30.2046 14.6229 30.1486 14.5709 30.1262 14.5709C30.0029 14.5188 29.902 14.3887 29.8236 14.2976C29.6555 14.1024 29.4762 13.9593 29.2296 13.8422C29.196 13.8292 29.1512 13.8161 29.1175 13.8292C29.0951 13.8292 29.0839 13.8422 29.0727 13.8552C28.927 13.9593 28.7925 14.1024 28.7029 14.2456C28.5236 14.5449 28.6244 14.8832 28.7701 15.1695L28.7589 15.1565Z" fill="#F5957D"/>
<path d="M30.1037 14.5188L30.1261 14.4928C30.1261 14.4928 30.2046 14.4538 30.2382 14.4538C30.3054 14.4538 30.3503 14.5058 30.3727 14.5709C30.4175 14.688 30.3727 14.8441 30.2718 14.9352C30.2382 14.9743 30.1822 15.0003 30.1373 14.9873C30.1037 14.9873 30.0813 14.9482 30.0701 14.9092C30.0365 14.8051 30.0253 14.675 30.0701 14.5839C30.0701 14.5579 30.0925 14.5318 30.1149 14.5188H30.1037Z" fill="#F5957D"/>
<path d="M29.1848 14.5579C29.1848 14.5579 29.2296 14.6229 29.2296 14.636C29.2296 14.675 29.2296 14.714 29.2296 14.7531C29.2296 14.8051 29.2072 14.8442 29.2072 14.8962C29.2072 14.9613 29.2856 14.9743 29.3417 14.9743C29.3641 14.9743 29.3529 15.0003 29.3417 15.0003C29.2968 15.0003 29.2296 15.0003 29.196 14.9613C29.1735 14.9483 29.1735 14.9222 29.1848 14.8962C29.1848 14.8702 29.196 14.8442 29.196 14.8181C29.196 14.7791 29.196 14.7401 29.196 14.701C29.196 14.675 29.196 14.662 29.1848 14.636C29.1848 14.6229 29.1623 14.5969 29.1735 14.5839L29.1848 14.5579Z" fill="#DA6357"/>
<path d="M29.8462 14.4408C29.8462 14.4408 29.7341 14.3627 29.6781 14.3497C29.6108 14.3367 29.5436 14.3236 29.4763 14.3236C29.4427 14.3236 29.3755 14.3236 29.3643 14.3627C29.3643 14.4017 29.4315 14.4017 29.4539 14.3887C29.566 14.3887 29.6668 14.3627 29.7677 14.4017C29.7901 14.4017 29.8237 14.4277 29.8462 14.4147V14.4408Z" fill="#26275E"/>
<path d="M28.647 14.5839C28.647 14.5839 28.7142 14.4928 28.759 14.4668C28.8039 14.4408 28.8599 14.4147 28.9271 14.4017C28.9496 14.4017 29.0168 14.3887 29.0392 14.4147C29.0616 14.4538 28.9944 14.4668 28.972 14.4668C28.8711 14.4798 28.7815 14.4928 28.7142 14.5579C28.703 14.5579 28.6694 14.5969 28.6582 14.5969L28.647 14.5839Z" fill="#26275E"/>
<path d="M29.5659 14.5318C29.5659 14.5318 29.5995 14.5188 29.6219 14.5318C29.6443 14.5318 29.6555 14.5318 29.6667 14.5579C29.6779 14.5709 29.6891 14.5969 29.6891 14.6229C29.6891 14.6489 29.6891 14.662 29.6779 14.675C29.6667 14.688 29.6331 14.701 29.6107 14.701H29.5771C29.5771 14.701 29.5435 14.6489 29.5435 14.6229C29.5435 14.6099 29.5435 14.5969 29.5435 14.5839C29.5435 14.5839 29.5435 14.5579 29.5547 14.5579L29.5659 14.5318Z" fill="#26275E"/>
<path d="M28.8486 14.6359C28.8486 14.6359 28.8823 14.6099 28.9047 14.6229C28.9271 14.6229 28.9383 14.6229 28.9495 14.6359C28.9719 14.649 28.9719 14.675 28.9831 14.688C28.9831 14.714 28.9831 14.727 28.9831 14.7401C28.9831 14.7661 28.9495 14.7661 28.9271 14.7661H28.8935C28.8935 14.7661 28.8598 14.714 28.8598 14.688C28.8598 14.675 28.8598 14.662 28.8598 14.649C28.8598 14.649 28.8598 14.6229 28.871 14.6099L28.8486 14.6359Z" fill="#26275E"/>
<path d="M29.1626 15.1435C29.1626 15.1435 29.241 15.1174 29.2635 15.1304C29.3195 15.1304 29.3643 15.1304 29.4092 15.1174C29.4428 15.1044 29.4764 15.0784 29.51 15.0914C29.5548 15.0914 29.5324 15.1435 29.51 15.1695C29.4764 15.2085 29.4316 15.2215 29.3867 15.2345C29.3083 15.2476 29.2298 15.2476 29.1738 15.1955C29.1738 15.1955 29.1738 15.1955 29.1626 15.1825C29.1626 15.1825 29.1626 15.1825 29.1626 15.1695V15.1435Z" fill="white"/>
<path d="M30.1489 14.3627C30.0144 14.1545 29.8127 13.9723 29.5774 13.8552C29.5101 13.8161 29.4429 13.7901 29.3644 13.7641C29.3532 13.7641 29.3196 13.7641 29.342 13.7771C29.5886 13.8682 29.8127 14.0113 29.9808 14.1935C30.0256 14.2456 30.0705 14.2976 30.1041 14.3627C30.1041 14.3627 30.1489 14.3627 30.1377 14.3627H30.1489Z" fill="#26275E"/>
<path d="M30.2497 14.2455C30.1825 14.0634 30.0368 13.8942 29.8575 13.7771H29.8351C29.8239 13.7771 29.8351 13.7771 29.8351 13.7771C30.0144 13.8942 30.1489 14.0634 30.2273 14.2455C30.2273 14.2455 30.2721 14.2455 30.2609 14.2455H30.2497Z" fill="#26275E"/>
<path d="M30.5747 15.2605C30.5523 15.1695 30.5411 15.0784 30.4627 15.0133C30.4627 15.0133 30.4178 15.0133 30.429 15.0133C30.4963 15.0784 30.5187 15.1695 30.5299 15.2605C30.5523 15.3516 30.5523 15.4557 30.4739 15.5208C30.4627 15.5208 30.4963 15.5338 30.5075 15.5208C30.5972 15.4557 30.5859 15.3386 30.5747 15.2475V15.2605Z" fill="#26275E"/>
<path d="M30.3392 15.0914C30.3392 15.0914 30.2944 15.0914 30.3056 15.0914C30.3392 15.1825 30.328 15.2866 30.272 15.3647C30.272 15.3647 30.3056 15.3777 30.3056 15.3647C30.3616 15.2866 30.3728 15.1695 30.3392 15.0784V15.0914Z" fill="#26275E"/>
<path d="M28.804 13.8682C28.6247 13.9723 28.535 14.1414 28.4678 14.3106C28.4678 14.3106 28.5014 14.3236 28.5014 14.3106C28.5686 14.1414 28.6583 13.9723 28.8264 13.8812C28.8488 13.8812 28.8152 13.8682 28.804 13.8812V13.8682Z" fill="#26275E"/>
<path d="M22.8081 31.5785H22.8305C22.8529 31.5916 22.8641 31.6046 22.8866 31.6176C22.8866 31.6176 22.8866 31.6306 22.8753 31.6176C22.8753 31.6176 22.8417 31.5785 22.8193 31.5655L22.8081 31.5785Z" fill="#414183"/>
<path d="M22.7295 31.6306H22.7519C22.7743 31.6436 22.7855 31.6566 22.7967 31.6827H22.7855H22.7631C22.7631 31.6827 22.7407 31.6566 22.7183 31.6436L22.7295 31.6306Z" fill="#414183"/>
<path d="M21.7994 31.5005C21.7994 31.5005 21.8891 31.6957 21.8443 31.7087C21.8443 31.7087 21.8331 31.7087 21.8219 31.7087C21.6986 31.7087 21.5865 31.7347 21.4632 31.7477C21.3287 31.7607 21.2055 31.7477 21.071 31.7477C21.0374 31.7477 20.9925 31.7477 20.9813 31.7217C20.9477 31.6696 21.015 31.6436 21.0486 31.6306C21.1606 31.5655 21.1718 31.4354 21.1831 31.3313C21.1831 31.2532 21.1494 30.9149 21.2503 30.8889C21.34 30.8759 21.4408 30.8628 21.5305 30.8628C21.6089 30.8628 21.721 30.8628 21.777 30.9279C21.8331 30.993 21.7882 31.1231 21.777 31.2012C21.7658 31.2923 21.777 31.3964 21.777 31.4875L21.7994 31.5005Z" fill="#F5957D"/>
<path d="M20.1855 32.034H21.2277C21.3174 32.034 21.3959 32.008 21.4855 32.008C21.5191 32.008 21.564 32.008 21.5864 32.021H21.9226C21.9226 32.021 21.9226 31.9949 21.9226 31.9689C21.9226 31.9559 21.9226 31.9429 21.9226 31.9299C21.9226 31.9169 21.9338 31.9039 21.9338 31.8908C21.9338 31.8778 21.9338 31.8648 21.9338 31.8518C21.9338 31.7998 21.9002 31.6696 21.8217 31.6306C21.8105 31.6306 21.7881 31.6306 21.7657 31.6306C21.5528 31.6696 21.3398 31.7217 21.1269 31.7607C21.1605 31.7217 21.1941 31.6696 21.1941 31.6176C21.1941 31.5785 21.1717 31.5525 21.1493 31.5265C21.1157 31.5135 21.0709 31.5135 21.026 31.5265C20.914 31.5915 20.8131 31.6696 20.701 31.7217C20.5441 31.7998 20.3648 31.8258 20.2191 31.8908C20.1967 31.9039 20.1743 31.9299 20.1631 31.9429C20.1631 31.9689 20.1631 31.9949 20.1631 32.008L20.1855 32.034Z" fill="#414183"/>
<path d="M20.1855 32.034H21.2278C21.3174 32.034 21.3959 32.008 21.4855 32.008C21.5192 32.008 21.564 32.008 21.5864 32.021H21.9226C21.9226 32.021 21.9226 31.9949 21.9226 31.9689H20.1743C20.1743 31.9689 20.1743 32.021 20.1743 32.034H20.1855Z" fill="#26275E"/>
<path d="M20.7573 31.6566C20.7573 31.6566 20.8245 31.6566 20.8469 31.6566C20.9254 31.7086 20.9814 31.7607 21.0375 31.8257C21.0487 31.8518 21.0038 31.8648 20.9926 31.8648C20.9702 31.8648 20.9366 31.8648 20.9142 31.8388C20.8694 31.7737 20.8021 31.7216 20.7349 31.6826C20.7125 31.6696 20.7349 31.6436 20.7573 31.6436V31.6566Z" fill="#26275E"/>
<path d="M23.4805 31.5005V31.5265C23.4805 31.5265 23.5366 31.6956 23.503 31.7087C23.503 31.7087 23.4918 31.7087 23.4805 31.7087C23.3573 31.7087 23.2452 31.7347 23.1219 31.7477C22.9874 31.7607 22.8642 31.7477 22.7297 31.7477C22.6961 31.7477 22.6512 31.7477 22.64 31.7217C22.6064 31.6696 22.6736 31.6436 22.7073 31.6306C22.8193 31.5655 22.8193 31.4094 22.8305 31.2922C22.853 31.1491 22.853 31.019 22.853 30.8758C22.853 30.8368 22.853 30.7847 22.8866 30.7457C22.9202 30.7197 22.965 30.7067 23.0099 30.7067L23.1667 30.6806C23.234 30.6806 23.29 30.6806 23.3685 30.6806C23.4133 30.6806 23.4693 30.6806 23.4918 30.7327C23.503 30.7587 23.503 30.7978 23.503 30.8238C23.503 30.9799 23.4805 31.1361 23.4805 31.2922C23.4805 31.3573 23.4805 31.4224 23.4918 31.5005H23.4805Z" fill="#F5957D"/>
<path d="M21.8442 32.034H22.8864C22.9761 32.034 23.0545 32.0079 23.1442 32.0079C23.1778 32.0079 23.2227 32.0079 23.2451 32.021H23.5813C23.5813 32.021 23.5813 31.9949 23.5813 31.9689C23.5813 31.9559 23.5813 31.9429 23.5813 31.9299C23.5813 31.9169 23.5925 31.9038 23.5925 31.8908C23.5925 31.8778 23.5925 31.8648 23.5925 31.8518C23.5925 31.7997 23.5589 31.6696 23.4804 31.6306C23.4692 31.6306 23.4468 31.6306 23.4244 31.6306C23.2114 31.6696 22.9985 31.7217 22.7856 31.7607C22.8192 31.7217 22.8528 31.6696 22.8528 31.6176C22.8528 31.5785 22.8304 31.5525 22.808 31.5265C22.7744 31.5135 22.7295 31.5135 22.6847 31.5265C22.5726 31.5915 22.4718 31.6696 22.3597 31.7217C22.2028 31.7997 22.0235 31.8258 21.8778 31.8908C21.8554 31.9038 21.833 31.9299 21.8218 31.9429C21.8218 31.9689 21.8218 31.9949 21.8218 32.0079L21.8442 32.034Z" fill="#414183"/>
<path d="M21.8442 32.034H22.8865C22.9761 32.034 23.0546 32.0079 23.1442 32.0079C23.1778 32.0079 23.2227 32.0079 23.2451 32.021H23.5813C23.5813 32.021 23.5813 31.9949 23.5813 31.9689H21.833C21.833 31.9689 21.833 32.021 21.833 32.034H21.8442Z" fill="#26275E"/>
<path d="M22.416 31.6696C22.416 31.6696 22.4832 31.6696 22.5056 31.6696C22.5841 31.7216 22.6401 31.7737 22.6962 31.8388C22.7074 31.8648 22.6625 31.8778 22.6513 31.8778C22.6289 31.8778 22.5953 31.8778 22.5729 31.8518C22.528 31.7867 22.4608 31.7347 22.3936 31.6956C22.3711 31.6826 22.3936 31.6566 22.416 31.6566V31.6696Z" fill="#26275E"/>
<path d="M22.4159 24.4085C22.4047 24.9681 22.371 25.5406 22.3374 26.1002C22.3038 26.6597 22.259 27.2063 22.2142 27.7658C22.1581 28.4555 22.2029 29.1712 22.1917 29.8609C22.1917 30.3944 22.1693 30.9279 22.1469 31.4614H20.7124C20.7124 31.3313 20.7124 31.1882 20.7124 31.0581C20.7124 30.7457 20.69 30.4204 20.6788 30.1081C20.6452 29.4705 20.6116 28.8329 20.5891 28.1952V28.1562C20.5667 27.7658 20.5555 27.3754 20.5331 26.9851V26.92C20.5331 26.8289 20.5219 26.7378 20.5219 26.6467V26.5166C20.5107 26.4385 20.5107 26.3604 20.4995 26.2824V26.1392C20.4883 26.0481 20.4771 25.957 20.4771 25.8529V25.8139C20.4659 25.5927 20.4547 25.3715 20.4322 25.1633C20.4322 25.1242 20.4322 25.0722 20.4322 25.0331L20.4098 24.7339V24.6948C20.3986 24.4476 20.3762 24.2133 20.365 23.9661C20.365 23.849 20.3538 23.7319 20.3426 23.6148V23.5237C20.3426 23.5237 20.3426 23.4326 20.3314 23.3935C20.309 23.0032 20.2866 22.6128 20.2753 22.2354V21.9491L20.2529 21.793C20.2529 21.6889 20.2529 21.5718 20.2529 21.4546C20.2641 21.3245 20.2978 21.1814 20.3426 21.0512L20.365 20.9862C20.421 20.843 20.4883 20.7389 20.5779 20.6348C20.5779 20.6348 20.6228 20.5828 20.6452 20.5698C20.6788 20.5437 20.7124 20.5177 20.746 20.4917H20.7685L20.8021 20.4657H20.8357C20.8357 20.4657 20.8805 20.4266 20.9029 20.4136C20.9366 20.4136 20.9702 20.3876 21.0038 20.3746C21.1607 20.3355 21.3064 20.3225 21.4409 20.3355H21.4745C21.7883 20.3746 22.0124 20.5568 22.1693 20.804C22.1805 20.83 22.1917 20.843 22.2029 20.8691C22.2029 20.8821 22.2254 20.9081 22.2254 20.9211C22.3038 21.0903 22.3486 21.2725 22.3598 21.4676C22.3598 21.6368 22.371 21.793 22.3823 21.9621C22.4047 22.6518 22.4047 23.3285 22.3935 24.0181C22.3935 24.1483 22.3935 24.2784 22.3935 24.4085H22.4159Z" fill="#C8644D"/>
<path d="M23.8275 31.4744H22.4042C22.4042 31.3053 22.3818 31.1231 22.3706 30.9539C22.337 30.4464 22.3034 29.9389 22.2922 29.4314V29.3924C22.281 29.002 22.2698 28.6116 22.2473 28.2213V28.1822C22.2249 27.7918 22.2137 27.3884 22.1913 26.9981V26.959C22.1913 26.8679 22.1801 26.7768 22.1801 26.6858V26.5556C22.1689 26.4255 22.1577 26.2954 22.1465 26.1652V25.879L22.1241 25.8399C22.1129 25.6187 22.1017 25.3975 22.0904 25.1893C22.0904 25.1502 22.0904 25.0982 22.0904 25.0592L22.068 24.7599V24.7208C22.0568 24.4736 22.0344 24.2394 22.0232 23.9921C22.0232 23.875 22.012 23.7579 22.0008 23.6408V23.5497C22.0008 23.5497 22.0008 23.4586 21.9896 23.4195C21.9672 23.0292 21.9448 22.6388 21.9335 22.2614V21.9751L21.9111 21.819C21.9111 21.7149 21.9111 21.5978 21.9111 21.4806C21.9223 21.3505 21.956 21.2204 22.0008 21.0903V21.0642L22.0344 21.0252L22.0568 20.9731C22.1017 20.869 22.1689 20.7649 22.2473 20.6869C22.2473 20.6869 22.2922 20.6348 22.3146 20.6218C22.3482 20.5958 22.3818 20.5698 22.4154 20.5437H22.4379C22.4379 20.5437 22.5275 20.4787 22.5723 20.4657C22.606 20.4657 22.6396 20.4396 22.6732 20.4266C22.7068 20.4266 22.7517 20.4136 22.7853 20.4006H22.8189C23.1551 20.3355 23.4241 20.4266 23.6258 20.5958L23.6594 20.6218C23.8948 20.843 24.018 21.1683 24.0405 21.5067C24.0405 21.6758 24.0517 21.832 24.0629 22.0012C24.1413 24.5126 23.9396 27.0111 23.8611 29.5225C23.8387 30.1862 23.8275 30.8498 23.8051 31.5135L23.8275 31.4744Z" fill="#C8644D"/>
<path d="M19.5579 17.5248C19.5019 17.6809 19.4459 17.8241 19.3898 17.9802C19.3226 18.1494 19.2666 18.3186 19.2105 18.4877C19.1769 18.5788 19.1545 18.6699 19.1321 18.748C19.1097 18.826 19.0648 18.9171 19.0648 19.0082C19.02 19.2164 18.9864 19.4246 19.02 19.6328C19.0424 19.802 19.0872 19.9582 19.1433 20.1143C19.2666 20.4526 19.4235 20.791 19.6028 21.1163C19.67 21.2334 19.7373 21.3505 19.8493 21.4546C19.8942 21.4937 19.939 21.5327 20.0062 21.5327C20.1071 21.5327 20.1743 21.4416 20.2079 21.3505C20.5666 20.5698 20.5442 19.7109 20.5554 18.8911C20.5554 18.4877 20.5778 18.0973 20.6786 17.6939C20.7795 17.2775 20.8243 16.8351 20.7123 16.4057C20.6898 16.3406 20.6674 16.2625 20.6114 16.2105C20.5666 16.1584 20.5105 16.1714 20.4321 16.1975C20.2752 16.2365 20.1295 16.3406 20.0286 16.4577C19.8942 16.6139 19.8157 16.8091 19.7485 16.9912C19.6812 17.1734 19.614 17.3556 19.5467 17.5378L19.5579 17.5248Z" fill="#71C391"/>
<path d="M19.8605 26.5166H21.6536C21.6536 26.5166 21.6873 26.4906 21.6873 26.4645C21.7209 26.2954 21.7545 26.1392 21.7545 25.9701C21.7545 25.8009 21.7769 25.6187 21.8217 25.4495C21.8554 25.7879 21.9114 26.1262 21.9899 26.4515C21.9899 26.4775 22.0123 26.5036 22.0347 26.5166H24.4778C24.4778 26.5166 24.4778 26.2954 24.4666 26.1132C24.4442 25.5927 24.3994 24.7599 24.3881 24.6688C24.3657 24.2133 24.3433 23.7449 24.3321 23.2894C24.3097 22.7299 24.2985 22.1703 24.2985 21.6108C24.2985 21.3375 24.2985 21.0642 24.2985 20.791C24.2985 20.6478 24.2985 20.5047 24.2985 20.3616C24.2985 20.3616 24.3209 20.0623 24.3321 20.0753C24.8588 20.3876 25.7554 20.5307 25.8563 19.776C25.8787 19.5938 25.8563 19.3986 25.8114 19.2164C25.5873 18.1234 25.3071 16.8221 24.22 16.1194C23.9959 15.9763 23.783 15.9242 23.514 15.8461C23.2674 15.768 23.0321 15.69 22.7968 15.5989C22.7183 15.5598 22.6287 15.5338 22.5502 15.5078C22.483 15.4818 22.4381 15.4818 22.3597 15.4818C22.1916 15.4818 22.0235 15.4557 21.8554 15.4818C21.6873 15.4818 21.5304 15.5859 21.4071 15.677H21.3847C21.1045 15.8721 20.8355 16.0543 20.5105 16.1584C20.4321 16.1845 20.3424 16.2105 20.2752 16.2495C20.1743 16.3146 20.0959 16.3927 20.0398 16.4968C19.9838 16.5879 19.9166 16.6789 19.8717 16.77C19.8157 16.9002 19.8493 17.0823 19.8605 17.2125C19.8717 17.4207 19.9054 17.6028 19.8942 17.798C19.8942 18.0062 19.8717 18.2014 19.8717 18.4096C19.8605 18.6959 19.8493 18.9822 19.8381 19.2685C19.8045 20.2965 19.7933 21.3245 19.8045 22.3655C19.8269 23.7579 19.8605 25.1502 19.8717 26.5296L19.8605 26.5166Z" fill="#71C391"/>
<path d="M21.8665 18.0323C21.8665 18.0323 21.8329 17.9802 21.7992 17.9672C21.7768 17.9672 21.7432 17.9542 21.7208 17.9672C21.6872 17.9672 21.676 17.9932 21.6648 18.0062C21.6423 18.0453 21.6423 18.0973 21.6648 18.1364C21.6984 18.1754 21.7768 18.1754 21.8217 18.1364C21.8441 18.1234 21.8553 18.0973 21.8553 18.0843V18.0583C21.8553 18.0583 21.8553 18.0583 21.8553 18.0453L21.8665 18.0323Z" fill="#659F7F"/>
<path d="M21.8665 19.4116C21.8665 19.4116 21.8329 19.3596 21.7992 19.3466C21.7768 19.3466 21.7432 19.3335 21.7208 19.3466C21.6872 19.3466 21.676 19.3726 21.6648 19.3856C21.6423 19.4246 21.6423 19.4767 21.6648 19.5157C21.6984 19.5548 21.7768 19.5548 21.8217 19.5157C21.8441 19.5027 21.8553 19.4767 21.8553 19.4637V19.4376C21.8553 19.4376 21.8553 19.4376 21.8553 19.4246L21.8665 19.4116Z" fill="#659F7F"/>
<path d="M21.8665 20.804C21.8665 20.804 21.8329 20.752 21.7992 20.7389C21.7768 20.7389 21.7432 20.7259 21.7208 20.7389C21.6872 20.7389 21.676 20.765 21.6648 20.778C21.6423 20.817 21.6423 20.8691 21.6648 20.9081C21.6984 20.9471 21.7768 20.9471 21.8217 20.9081C21.8441 20.8951 21.8553 20.8691 21.8553 20.8561V20.83C21.8553 20.83 21.8553 20.83 21.8553 20.817L21.8665 20.804Z" fill="#659F7F"/>
<path d="M21.8665 22.1963C21.8665 22.1963 21.8329 22.1443 21.7992 22.1313C21.7768 22.1313 21.7432 22.1183 21.7208 22.1313C21.6872 22.1313 21.676 22.1573 21.6648 22.1703C21.6423 22.2094 21.6423 22.2614 21.6648 22.3005C21.6984 22.3395 21.7768 22.3395 21.8217 22.3005C21.8441 22.2874 21.8553 22.2614 21.8553 22.2484V22.2224C21.8553 22.2224 21.8553 22.2224 21.8553 22.2094L21.8665 22.1963Z" fill="#659F7F"/>
<path d="M21.8665 23.5887C21.8665 23.5887 21.8329 23.5366 21.7992 23.5236C21.7768 23.5236 21.7432 23.5106 21.7208 23.5236C21.6872 23.5236 21.676 23.5497 21.6648 23.5627C21.6423 23.6017 21.6423 23.6538 21.6648 23.6928C21.6984 23.7318 21.7768 23.7318 21.8217 23.6928C21.8441 23.6798 21.8553 23.6538 21.8553 23.6408V23.6147C21.8553 23.6147 21.8553 23.6147 21.8553 23.6017L21.8665 23.5887Z" fill="#659F7F"/>
<path d="M21.8665 24.9811C21.8665 24.9811 21.8329 24.929 21.7992 24.916C21.7768 24.916 21.7432 24.903 21.7208 24.916C21.6872 24.916 21.676 24.942 21.6648 24.9551C21.6423 24.9941 21.6423 25.0461 21.6648 25.0852C21.6984 25.1242 21.7768 25.1242 21.8217 25.0852C21.8441 25.0722 21.8553 25.0461 21.8553 25.0331V25.0071C21.8553 25.0071 21.8553 25.0071 21.8553 24.9941L21.8665 24.9811Z" fill="#659F7F"/>
<path d="M19.8383 17.0433H19.8047L19.8943 17.759H19.928L19.8383 17.0433Z" fill="#659F7F"/>
<path d="M19.8494 18.0063L19.8158 19.1904L19.7822 20.3746L19.7598 21.0512H19.7934L19.827 19.8671L19.8606 18.6829L19.883 18.0063H19.8494Z" fill="#659F7F"/>
<path d="M25.0271 19.6198C24.9038 19.5157 24.7133 19.5417 24.5676 19.5678C24.5452 19.5678 24.5676 19.5938 24.5676 19.5808C24.7021 19.5548 24.8814 19.5417 24.9822 19.6328C24.9822 19.6328 25.0271 19.6328 25.0159 19.6328L25.0271 19.6198Z" fill="#6484BF"/>
<path d="M24.2874 19.0343C24.1865 18.787 24.1193 18.5268 24.0745 18.2665C24.0296 18.0062 24.0184 17.746 24.0296 17.4857C24.0296 17.3426 24.0521 17.1864 24.0857 17.0433H24.0521C24.0072 17.3036 23.9848 17.5638 23.996 17.8371C24.0072 18.0973 24.0521 18.3576 24.1193 18.6178C24.1529 18.761 24.209 18.9041 24.265 19.0473C24.265 19.0473 24.3098 19.0473 24.2986 19.0473L24.2874 19.0343Z" fill="#659F7F"/>
<path d="M22.7967 15.5989C22.7743 15.742 22.7182 15.8852 22.651 16.0153L22.6174 16.0934C22.5613 16.1975 22.5053 16.3016 22.4493 16.4187C22.3372 16.6269 22.2251 16.8481 22.1131 17.0563C22.0346 17.1864 21.9562 17.3166 21.8553 17.4337C21.8105 17.4857 21.7657 17.5508 21.7208 17.4467C21.676 17.3556 21.6424 17.2645 21.6088 17.1604C21.5751 17.0433 21.5415 16.9392 21.5191 16.8221C21.4743 16.6139 21.4294 16.4057 21.3958 16.1975V16.1584C21.3958 16.1584 21.3734 16.0543 21.3734 16.0023C21.3734 15.8852 21.3622 15.768 21.3846 15.6509H21.407C21.5415 15.5468 21.6872 15.4557 21.8553 15.4427C22.0234 15.4427 22.1915 15.4427 22.3596 15.4427C22.4269 15.4427 22.4829 15.4427 22.5501 15.4687C22.6286 15.4948 22.7182 15.5338 22.7967 15.5598V15.5989Z" fill="white"/>
<path d="M22.0235 16.2235C22.0235 16.2235 22.0235 16.2625 22.0235 16.2886C22.046 16.5488 22.0796 16.7961 22.1132 17.0433C22.0348 17.1734 21.9563 17.3035 21.8554 17.4207C21.8106 17.4727 21.7658 17.5378 21.721 17.4337C21.6761 17.3426 21.6425 17.2515 21.6089 17.1474V17.0693C21.6761 16.7961 21.721 16.5228 21.7994 16.2495C21.7994 16.2235 21.8106 16.2105 21.7994 16.1845C21.7994 16.1584 21.777 16.1454 21.7658 16.1194C21.7546 16.0934 21.7322 16.0543 21.721 16.0283V15.9893C21.721 15.9893 21.833 15.8721 21.8891 15.8201L21.8666 15.7941H21.9003C21.9563 15.8591 22.0235 15.9242 22.0796 15.9893L22.1132 16.0153V16.0413C22.1132 16.0413 22.0684 16.0803 22.0572 16.1064C22.0348 16.1324 22.0123 16.1584 22.0123 16.1975L22.0235 16.2235Z" fill="#414183"/>
<path d="M22.6507 16.0413L22.6171 16.1064C22.6171 16.1064 22.561 16.1584 22.5274 16.1845C22.4938 16.2105 22.4714 16.2365 22.4378 16.2625C22.4153 16.2755 22.3817 16.3016 22.3369 16.3016C22.3145 16.3016 22.3033 16.2886 22.2921 16.2755L22.2472 16.2235C22.2472 16.2235 22.1576 16.1324 22.1128 16.0803C22.0455 16.0153 21.9895 15.9502 21.9222 15.8721C21.8662 15.9242 21.8102 15.9762 21.7541 16.0283L21.7317 16.0543C21.7317 16.0543 21.6421 16.1454 21.6084 16.1975C21.5748 16.2365 21.5412 16.3016 21.474 16.2755C21.4403 16.2755 21.4179 16.2365 21.3955 16.2235V16.1714C21.3955 16.1714 21.4403 16.2105 21.474 16.2365C21.474 16.2365 21.4964 16.2625 21.5076 16.2495C21.5076 16.2495 21.5188 16.2495 21.53 16.2365C21.5412 16.2235 21.5524 16.2105 21.5636 16.1975C21.6196 16.1324 21.6757 16.0803 21.7317 16.0153C21.7878 15.9632 21.8438 15.8982 21.911 15.8461L21.8886 15.8201H21.8774C21.8774 15.8201 21.8998 15.7941 21.911 15.7941H21.9334C21.9895 15.8721 22.0567 15.9372 22.1128 16.0023L22.1464 16.0283C22.1464 16.0283 22.2472 16.1324 22.2921 16.1845L22.3369 16.2365L22.3593 16.2625C22.3593 16.2625 22.3593 16.2625 22.3817 16.2625C22.4153 16.2495 22.449 16.2105 22.4714 16.1975C22.5386 16.1454 22.5947 16.0803 22.6619 16.0283L22.6507 16.0413Z" fill="#96BEE5"/>
<path d="M23.2113 15.9112L23.1441 15.742C23.1441 15.742 23.0992 15.742 23.1104 15.742L23.1665 15.8982C23.1665 15.8982 23.1889 15.9502 23.2001 15.9762C23.2001 16.0023 23.2001 16.0283 23.1665 16.0413C23.0656 16.1064 22.9535 16.1584 22.8415 16.2105C22.8863 16.2495 22.9087 16.3016 22.9423 16.3536C22.9535 16.3796 22.9647 16.4057 22.9759 16.4187C22.9872 16.4577 22.9535 16.4707 22.9311 16.4968C22.8415 16.5878 22.7518 16.6789 22.6734 16.77C22.494 16.9522 22.3147 17.1214 22.1354 17.2905C22.0794 17.3426 22.0234 17.3946 21.9561 17.4467C21.9225 17.4727 21.9001 17.4987 21.8665 17.5248C21.844 17.5378 21.8216 17.5638 21.788 17.5638C21.7096 17.5638 21.6647 17.4857 21.6087 17.4337C21.5527 17.3816 21.5078 17.3166 21.4518 17.2515C21.3509 17.1344 21.2613 17.0043 21.1828 16.8741C21.1492 16.8091 21.1156 16.757 21.082 16.692C21.0483 16.6399 21.0035 16.5618 21.0147 16.4968C21.0147 16.4447 21.0708 16.4057 21.1156 16.3536C21.1492 16.3276 21.2277 16.2625 21.1716 16.2235C21.138 16.1975 21.0932 16.1845 21.0596 16.1714C21.0371 16.1714 21.0147 16.1454 21.0035 16.1454C20.9811 16.1454 20.9699 16.1194 20.9811 16.0934C21.0035 16.0153 21.0483 15.9502 21.1044 15.8852C21.1156 15.8852 21.082 15.8721 21.0708 15.8852C21.0259 15.9372 20.9811 16.0023 20.9587 16.0543C20.9587 16.0804 20.9363 16.1064 20.9587 16.1324C20.9811 16.1584 21.0147 16.1714 21.0483 16.1845L21.1044 16.2105C21.1044 16.2105 21.1492 16.2235 21.1604 16.2365C21.1828 16.2625 21.138 16.3016 21.1156 16.3276C21.0708 16.3666 21.0259 16.4057 21.0035 16.4577C20.9699 16.5228 21.0035 16.5748 21.0259 16.6269C21.0596 16.692 21.0932 16.757 21.1268 16.8091C21.194 16.9262 21.2837 17.0563 21.3733 17.1604C21.4294 17.2385 21.4854 17.3036 21.5527 17.3816C21.5863 17.4207 21.6199 17.4467 21.6535 17.4857C21.6871 17.5248 21.7544 17.5768 21.8104 17.5638C21.844 17.5638 21.8777 17.5378 21.9001 17.5118L22.0009 17.4207C22.1354 17.3036 22.2587 17.1864 22.382 17.0563C22.5837 16.8611 22.7742 16.6659 22.9759 16.4707C22.9984 16.4447 23.0208 16.4317 23.0208 16.4057C23.0208 16.3796 22.9984 16.3536 22.9872 16.3276C22.9647 16.2755 22.9199 16.2235 22.8863 16.1845C22.9423 16.1584 22.9984 16.1324 23.0544 16.0934L23.1441 16.0413C23.1441 16.0413 23.2001 16.0153 23.2113 16.0023C23.2561 15.9632 23.2225 15.9112 23.2113 15.8721V15.9112Z" fill="#659F7F"/>
<path d="M22.2925 20.6999L23.8951 17.72L26.1365 17.733L24.5563 20.7129L22.2925 20.6999Z" fill="#26275E"/>
<path d="M22.3823 20.6997L23.9849 17.7198L26.2375 17.7328L24.6573 20.7128L22.3823 20.6997Z" fill="#414183"/>
<path d="M24.0967 17.7198C24.0967 17.7198 24.0967 17.7719 24.0967 17.7979C24.1415 18.0842 24.1527 18.3314 24.0743 18.6177C23.9734 19.0081 23.8277 19.3985 23.626 19.7628H25.6769C25.9906 19.2033 26.226 18.6047 26.2708 17.954C26.2708 17.902 26.282 17.8239 26.2708 17.7458H24.0855L24.0967 17.7198Z" fill="white"/>
<path d="M24.1191 17.707H26.2709H26.3045C26.3045 17.707 26.3045 17.707 26.3045 17.72C26.3045 18.0063 26.2709 18.3056 26.2036 18.5918C26.1364 18.8781 26.0243 19.1644 25.8898 19.4377C25.8562 19.5157 25.8226 19.5938 25.7778 19.6719L25.7442 19.737C25.7442 19.737 25.7329 19.763 25.7217 19.776C25.6993 19.789 25.6657 19.802 25.6433 19.776C25.6433 19.776 25.6657 19.763 25.6769 19.776H25.6993V19.75L25.7329 19.6979L25.7778 19.6068C25.8114 19.5418 25.845 19.4767 25.8674 19.4116C25.9235 19.2815 25.9795 19.1514 26.0355 19.0213C26.1364 18.761 26.2036 18.4877 26.2373 18.2015C26.2597 18.0453 26.2709 17.9022 26.2709 17.746H24.1303C24.1303 17.746 24.1079 17.733 24.1303 17.733L24.1191 17.707Z" fill="#96BEE5"/>
<path d="M22.9426 19.3206C22.9426 19.3206 22.9426 19.2815 22.9426 19.2685C22.9426 19.2425 22.9763 19.2034 23.0099 19.2034C23.0099 19.1514 23.0099 19.0083 23.1108 19.0343C23.1108 19.0343 23.122 19.0343 23.1332 19.0473C23.1556 19.0733 23.1668 19.0993 23.178 19.1254C23.2228 19.1904 23.2789 19.2295 23.3573 19.2425C23.4133 19.2555 23.503 19.2425 23.503 19.1774C23.503 19.1384 23.4806 19.0993 23.447 19.0603C23.4133 19.0213 23.3797 18.9822 23.3349 18.9432C23.3125 18.9172 23.2564 18.8001 23.3349 18.8131C23.3573 18.8131 23.3685 18.8131 23.3909 18.8391C23.4918 18.9042 23.5814 18.9952 23.6487 19.0863C23.6935 19.1514 23.7608 19.2295 23.772 19.3075C23.772 19.3336 23.772 19.3596 23.772 19.3856C23.772 19.4247 23.8168 19.4637 23.8392 19.4897C23.884 19.5288 23.9401 19.5678 24.0073 19.5808C24.0521 19.5938 24.1082 19.6068 24.1306 19.6329C24.1754 19.6719 24.1754 19.75 24.1642 19.802C24.1418 19.9322 24.209 20.0623 24.0185 20.0233C23.8616 19.9972 23.7271 19.9322 23.5702 19.8931C23.4806 19.8671 23.3909 19.8671 23.3013 19.8541C23.1444 19.8411 23.0099 19.8411 22.8978 19.737C22.8866 19.724 22.8642 19.7109 22.853 19.6979C22.8082 19.6589 22.7633 19.6199 22.7857 19.5548C22.7857 19.5288 22.8082 19.5158 22.8306 19.5027C22.8306 19.5027 22.797 19.4247 22.8306 19.3856C22.8418 19.3596 22.8642 19.3466 22.8978 19.3466V19.3206H22.9426Z" fill="#F5957D"/>
<path d="M23.0097 19.2035H23.0322C23.0322 19.2035 23.0322 19.2165 23.0322 19.2295C23.0322 19.2295 23.0434 19.2685 23.0546 19.2815C23.077 19.3076 23.0994 19.3336 23.1218 19.3466C23.1218 19.3466 23.1218 19.3466 23.1106 19.3466C23.0882 19.3206 23.0658 19.3076 23.0434 19.2815C23.0434 19.2815 23.0209 19.2555 23.0209 19.2425V19.2165C23.0209 19.2165 22.9985 19.2035 22.9985 19.1904L23.0097 19.2035Z" fill="#DA6357"/>
<path d="M22.9541 19.3596C22.9541 19.3596 23.0101 19.4637 23.0661 19.5027H23.0549C23.0549 19.5027 22.9653 19.4247 22.9429 19.3596H22.9541Z" fill="#DA6357"/>
<path d="M22.8979 19.5157C22.8979 19.5157 22.9652 19.5938 23.01 19.6329C23.01 19.6329 23.01 19.6329 22.9988 19.6329C22.954 19.6068 22.9091 19.5678 22.8867 19.5157H22.8979Z" fill="#DA6357"/>
<path d="M24.0631 20.1274C24.3657 20.2575 24.6907 20.3486 25.0494 20.3486C25.1166 20.3486 25.1838 20.3486 25.2511 20.3356C25.464 20.2835 25.5761 20.0232 25.5873 19.8541C25.5873 19.8281 25.5873 19.802 25.5873 19.789C25.5649 19.75 25.5313 19.737 25.4864 19.724C25.3744 19.6849 25.2511 19.6589 25.139 19.6459C25.0718 19.6459 25.0157 19.6459 24.9485 19.6329L24.1528 19.5938C24.0744 19.5938 23.8166 19.5418 23.7606 19.5938C23.7494 19.5938 23.7269 19.6719 23.7157 19.6849C23.6933 19.724 23.6485 19.75 23.6373 19.802C23.6149 19.8801 23.7045 19.9452 23.783 19.9972C23.8726 20.0493 23.9735 20.1013 24.0744 20.1404L24.0631 20.1274Z" fill="#F5957D"/>
<path d="M24.0632 20.1273C24.0632 20.1273 24.0968 20.1404 24.1193 20.1534C24.2201 20.1924 24.3098 20.2314 24.4106 20.2575C24.6124 20.3095 24.8253 20.3486 25.0382 20.3486C25.1055 20.3486 25.1727 20.3486 25.24 20.3355C25.4529 20.2835 25.565 20.0232 25.5762 19.8541C25.5762 19.828 25.5762 19.802 25.5762 19.789C25.5538 19.75 25.5201 19.737 25.4753 19.7239C25.3632 19.6849 25.24 19.6589 25.1279 19.6459C25.0606 19.6459 25.0046 19.6459 24.9374 19.6329C24.7917 19.6329 24.6348 19.6198 24.4891 19.6068H24.2537C24.2537 19.6068 24.1865 19.6068 24.1529 19.5938C24.1193 19.5938 24.0856 19.5678 24.052 19.5548C24.0296 19.5548 24.0072 19.5418 23.9848 19.5548C23.9736 19.5548 23.9624 19.5548 23.9512 19.5678C23.8951 19.6068 23.8727 19.6849 23.8503 19.737C23.8167 19.815 23.7943 19.8931 23.7718 19.9712C23.7718 19.9972 23.7606 20.0363 23.7831 20.0623C23.7943 20.0623 23.8167 20.0753 23.8391 20.0883C23.8951 20.0883 23.9512 20.1143 24.0072 20.1143C24.0296 20.1143 24.052 20.1143 24.0632 20.1273Z" fill="#D9E1F2"/>
<path d="M24.0299 20.2054C24.4109 20.3486 24.8255 20.4006 25.229 20.3486C25.4307 20.3225 25.61 20.1924 25.7109 20.0493C25.7669 19.9712 25.823 19.8671 25.7669 19.776C25.7221 19.7109 25.6212 19.6849 25.5316 19.6719C25.0833 19.6068 24.635 19.5548 24.1755 19.5157C24.1419 19.5157 24.1195 19.5157 24.0859 19.5157C23.9962 19.5418 23.9626 19.6589 23.9402 19.724C23.9066 19.8411 23.8617 19.9582 23.8281 20.0753C23.8281 20.0883 23.8281 20.1013 23.8281 20.1143C23.8281 20.1143 23.8393 20.1273 23.8505 20.1273C23.9066 20.1534 23.9626 20.1794 24.0186 20.1924L24.0299 20.2054Z" fill="#71C391"/>
<path d="M21.0934 14.6359C21.0934 14.6359 21.071 14.5969 21.0598 14.5709C21.0598 14.5709 21.0598 14.5448 21.0486 14.5448H21.0374C21.0374 14.5448 21.0262 14.5318 21.015 14.5318C20.9814 14.5318 20.9701 14.5578 20.9589 14.5709C20.9589 14.5969 20.9477 14.6099 20.9365 14.6359V14.6619H20.9477C20.9477 14.6619 20.9701 14.675 20.9701 14.6619L21.071 14.6229L21.0934 14.6359Z" fill="#414183"/>
<path d="M21.5414 15.69V15.6639C21.5414 15.6639 21.4966 15.5989 21.4966 15.5598C21.4742 15.3907 21.4518 15.2085 21.4854 15.0393C21.5078 14.9092 21.6871 14.8702 21.7992 14.8311H21.8328C21.9001 14.8051 21.9785 14.8051 22.0458 14.7791C22.1018 14.7531 22.1466 14.714 22.2027 14.688C22.2587 14.675 22.3259 14.688 22.382 14.688C22.4156 14.688 22.4604 14.688 22.4828 14.727C22.494 14.74 22.5052 14.7661 22.5052 14.7791C22.5277 14.8832 22.5501 14.9873 22.5613 15.0914C22.5837 15.2215 22.6061 15.3516 22.6285 15.4688C22.6285 15.4818 22.6285 15.5078 22.6285 15.5208C22.6061 15.5729 22.4604 15.6379 22.4156 15.6639C22.3371 15.716 22.2475 15.755 22.1578 15.7941C22.0906 15.8331 22.0121 15.8591 21.9337 15.8591C21.8216 15.8591 21.732 15.7941 21.6423 15.742C21.6087 15.716 21.5751 15.703 21.5526 15.6639L21.5414 15.69Z" fill="#F5957D"/>
<path d="M21.4292 15.1565V15.1955C21.4292 15.3126 21.4404 15.4558 21.5525 15.5338C21.6085 15.5729 21.687 15.5989 21.7654 15.5989C21.8775 15.5989 22.012 15.5989 22.1016 15.5599C22.1913 15.5208 22.2249 15.4688 22.2809 15.4037C22.337 15.3386 22.3818 15.2476 22.393 15.1695C22.393 15.0784 22.3594 14.9743 22.2921 14.8962C22.2361 14.8311 22.124 14.8181 22.0344 14.8181C21.9671 14.8181 21.8999 14.8181 21.8326 14.8181H21.799C21.7094 14.8572 21.6085 14.8832 21.5301 14.9483C21.5076 14.9743 21.4628 15.0003 21.4516 15.0263C21.4292 15.0654 21.4292 15.1044 21.4292 15.1434V15.1565Z" fill="#DA6357"/>
<path d="M22.6287 14.2065C22.6175 14.1154 22.5839 14.0243 22.5614 13.9332C22.5278 13.7771 22.3933 13.6079 22.2701 13.5038C22.2589 13.5038 22.2476 13.4778 22.2364 13.4778C22.1356 13.3997 22.0011 13.3477 21.8778 13.3346C21.7209 13.3216 21.5528 13.3737 21.4071 13.4257C21.2951 13.4648 21.183 13.5168 21.0933 13.5819C21.0261 13.6339 20.9252 13.699 20.9252 13.7901C20.9252 13.8812 20.8916 13.9853 20.8916 14.0764C20.8916 14.1805 20.9252 14.2846 20.9588 14.3887L21.1045 14.8962C21.1382 15.0003 21.1606 15.0914 21.2166 15.1955C21.3399 15.4297 21.5976 15.5728 21.9002 15.5598C22.0907 15.5598 22.2589 15.4297 22.3597 15.2996C22.5278 15.0914 22.6511 14.8311 22.6735 14.5839C22.6735 14.5318 22.6735 14.4928 22.6623 14.4407C22.6623 14.3757 22.6623 14.3106 22.6623 14.2455L22.6287 14.2065Z" fill="#F5957D"/>
<path d="M22.7854 14.3366C22.7854 14.3366 22.7181 14.4798 22.6621 14.4798C22.5948 14.5058 22.5388 14.4538 22.5164 14.4017C22.4492 14.2976 22.3931 14.2195 22.2698 14.1545C22.2138 14.1284 22.1466 14.1154 22.0793 14.1284C22.0233 14.1284 21.9785 14.1675 21.9224 14.1675C21.844 14.1675 21.7992 14.1024 21.7207 14.0764C21.6311 14.0504 21.5078 14.0764 21.4293 14.0373C21.3733 13.9983 21.3621 13.9332 21.3285 13.8682C21.306 13.8161 21.2388 13.7381 21.1716 13.712C21.1716 13.712 21.1604 13.712 21.1492 13.712C21.1267 13.712 21.1379 13.7381 21.1379 13.7511C21.1379 13.8291 21.0595 13.8812 21.0259 13.9463C21.0035 13.9983 21.0259 14.0504 21.0259 14.0894C21.0259 14.1805 21.0035 14.2716 20.9026 14.3106C20.8914 14.3106 20.869 14.3106 20.8578 14.3106C20.8354 14.3106 20.8354 14.2846 20.8241 14.2716C20.7793 14.1284 20.7793 13.9853 20.8241 13.8422C20.8578 13.7511 20.9026 13.647 20.9923 13.5949C21.0147 13.5949 21.0259 13.5689 21.0483 13.5559C21.0707 13.5429 21.0819 13.5168 21.0931 13.4908C21.194 13.3477 21.3845 13.3086 21.5526 13.2566C21.5862 13.2566 21.6086 13.2306 21.6423 13.2175C21.6759 13.2175 21.7207 13.2175 21.7543 13.2175C21.9224 13.2175 22.0793 13.1655 22.2362 13.2436C22.2811 13.2696 22.3259 13.3086 22.3819 13.3216C22.4604 13.3607 22.55 13.3737 22.6173 13.4257C22.7293 13.5168 22.7181 13.673 22.7742 13.7901C22.8078 13.8552 22.8638 13.9202 22.875 13.9983C22.8862 14.0764 22.8526 14.1545 22.8302 14.2325C22.8302 14.2456 22.819 14.2846 22.7966 14.3106L22.7854 14.3366Z" fill="#C8644D"/>
<path d="M22.5389 14.2976C22.707 14.1544 22.8303 14.3496 22.8191 14.4928C22.8191 14.5709 22.7743 14.6619 22.7407 14.727C22.707 14.7921 22.6398 14.8832 22.5389 14.8571C22.4941 14.8571 22.4829 14.8051 22.4605 14.7791C22.4044 14.6619 22.4044 14.5058 22.4605 14.3887C22.4717 14.3626 22.4941 14.3236 22.5277 14.3106L22.5389 14.2976Z" fill="#F5957D"/>
<path d="M21.9898 14.2455C22.0571 14.2455 22.1131 14.2455 22.1691 14.2716C22.1915 14.2716 22.2252 14.2976 22.2476 14.3106C22.2812 14.3236 22.2476 14.3366 22.2252 14.3236C22.1915 14.3236 22.1579 14.3106 22.1243 14.3106C22.0907 14.3106 22.0571 14.3106 22.0234 14.3106C21.9562 14.3106 21.8889 14.3366 21.8217 14.3627H21.7881C21.7881 14.3236 21.7993 14.3106 21.8441 14.2846C21.8777 14.2716 21.9226 14.2586 21.9562 14.2455H21.9786H21.9898Z" fill="#C8644D"/>
<path d="M21.4294 14.6359C21.4294 14.6359 21.3958 14.5709 21.351 14.5709C21.3285 14.5709 21.3061 14.5709 21.2949 14.5969V14.6229C21.2949 14.6229 21.2949 14.675 21.2949 14.688C21.2949 14.701 21.3173 14.727 21.3285 14.727C21.351 14.727 21.3734 14.727 21.3958 14.727C21.3958 14.727 21.4182 14.701 21.4182 14.688C21.4182 14.675 21.4182 14.6489 21.4182 14.6359H21.4294Z" fill="#26275E"/>
<path d="M22.1357 14.5448C22.1357 14.5448 22.1133 14.4798 22.0684 14.4668C22.046 14.4668 22.0236 14.4668 22.0124 14.4798V14.5058C22.0124 14.5058 21.99 14.5579 22.0124 14.5709C22.0124 14.5839 22.0236 14.6099 22.046 14.6229C22.0684 14.6229 22.0909 14.6359 22.1133 14.6229H22.1245C22.1245 14.6229 22.1469 14.5969 22.1581 14.5839C22.1581 14.5709 22.1581 14.5448 22.1581 14.5318L22.1357 14.5448Z" fill="#26275E"/>
<path d="M22.0123 15.0653C22.0123 15.0653 21.9002 15.1304 21.8218 15.1434C21.7433 15.1564 21.6761 15.1434 21.6088 15.1174H21.5864C21.6313 15.1304 21.6649 15.1434 21.7097 15.1434C21.7433 15.1434 21.7882 15.1434 21.8218 15.1434C21.9002 15.1304 21.9787 15.0914 22.0347 15.0523C22.0459 15.0523 22.0123 15.0393 22.0123 15.0523V15.0653Z" fill="#DA6357"/>
<path d="M21.788 14.9352H21.7208C21.7208 14.9352 21.6647 14.9352 21.6535 14.9352C21.6199 14.9092 21.6311 14.8701 21.6535 14.8441C21.6759 14.766 21.6759 14.701 21.6647 14.6229C21.6423 14.5058 21.5751 14.4017 21.4406 14.3496C21.4294 14.3496 21.3958 14.3496 21.4182 14.3627C21.5303 14.4017 21.5975 14.4928 21.6199 14.5839C21.6311 14.6489 21.6311 14.701 21.6199 14.766C21.6199 14.7921 21.6199 14.8311 21.5975 14.8571C21.5975 14.8832 21.5975 14.9092 21.5975 14.9352C21.6087 14.9612 21.6311 14.9612 21.6647 14.9743C21.7096 14.9743 21.7432 14.9743 21.788 14.9743C21.8104 14.9743 21.8104 14.9612 21.788 14.9612V14.9352Z" fill="#DA6357"/>
<path d="M21.295 14.3366C21.2389 14.3366 21.1829 14.3757 21.1381 14.4147C21.1157 14.4277 21.0932 14.4538 21.082 14.4668C21.0596 14.4928 21.082 14.4928 21.1045 14.4668C21.1381 14.4538 21.1605 14.4407 21.1941 14.4277C21.2277 14.4277 21.2613 14.4017 21.2838 14.4017C21.351 14.4017 21.4182 14.3887 21.4855 14.4017C21.4855 14.4017 21.5191 14.4017 21.5079 14.4017C21.4967 14.3627 21.4743 14.3497 21.4295 14.3497C21.3958 14.3497 21.351 14.3497 21.3062 14.3497H21.2838L21.295 14.3366Z" fill="#C8644D"/>
<path d="M21.8106 13.9853C21.7209 13.9853 21.6313 13.9593 21.5752 13.8942C21.5192 13.8291 21.5192 13.7381 21.4632 13.673C21.4632 13.673 21.4183 13.673 21.4295 13.673C21.4632 13.712 21.4744 13.7511 21.4968 13.8031C21.508 13.8422 21.5304 13.8812 21.564 13.9202C21.6313 13.9853 21.7209 14.0113 21.8218 14.0113H21.8442C21.8442 14.0113 21.833 14.0113 21.8218 14.0113L21.8106 13.9853Z" fill="#EA8061"/>
<path d="M22.1578 13.9072C22.0233 13.9072 21.9001 13.8291 21.8552 13.712C21.8552 13.712 21.8104 13.712 21.8216 13.712C21.8665 13.8291 22.0121 13.9202 22.1578 13.9202H22.1802C22.1802 13.9202 22.169 13.9202 22.1578 13.9202V13.9072Z" fill="#EA8061"/>
<path d="M22.606 13.7901H22.5836C22.5724 13.7901 22.5836 13.7901 22.5836 13.7901C22.662 13.8421 22.6845 13.9332 22.6508 14.0113C22.6508 14.0113 22.6845 14.0243 22.6845 14.0113C22.7181 13.9332 22.6845 13.8291 22.606 13.7771V13.7901Z" fill="#EA8061"/>
<path d="M22.5723 14.2976C22.5723 14.2976 22.5723 14.2976 22.5499 14.2976C22.5275 14.2976 22.5051 14.2976 22.4827 14.2976H22.4042L22.2585 14.3366H22.2473C22.2473 14.3366 22.1465 14.3236 22.0904 14.3366C22.0232 14.3366 21.9335 14.3496 21.8551 14.3757C21.7766 14.3887 21.7094 14.4147 21.687 14.5058C21.687 14.5188 21.687 14.5318 21.687 14.5448C21.6534 14.5448 21.6197 14.5448 21.5861 14.5448C21.5861 14.5318 21.5861 14.5188 21.5637 14.4928C21.5189 14.4147 21.4404 14.4147 21.3732 14.4147C21.2835 14.4147 21.2051 14.4277 21.1154 14.4537C21.0482 14.4667 20.9585 14.4667 20.9249 14.5318C20.9137 14.5578 20.9249 14.5839 20.9249 14.6099C20.9249 14.6489 20.9473 14.701 20.9697 14.74C20.9921 14.8051 21.037 14.8571 21.1042 14.8832C21.1266 14.8832 21.1602 14.8962 21.1827 14.8962C21.2051 14.8962 21.2275 14.8962 21.2499 14.8962C21.3284 14.8962 21.4292 14.8832 21.4853 14.8311C21.5413 14.7921 21.5749 14.727 21.5861 14.6489C21.5861 14.6489 21.5861 14.6229 21.5861 14.6099C21.5861 14.6099 21.6197 14.5839 21.6421 14.5839H21.6982C21.6982 14.5839 21.7206 14.6229 21.7206 14.6359C21.7654 14.701 21.8215 14.753 21.8887 14.766C21.9111 14.766 21.9223 14.766 21.9447 14.766C22.0232 14.766 22.1016 14.766 22.1465 14.74C22.2025 14.727 22.2473 14.701 22.2809 14.6749C22.3818 14.5969 22.3594 14.4667 22.337 14.4017C22.337 14.4017 22.4154 14.3496 22.4491 14.3236C22.4715 14.3236 22.4827 14.2976 22.4939 14.2846C22.5051 14.2716 22.5275 14.2585 22.5275 14.2325L22.5723 14.2976ZM21.5637 14.6749C21.5525 14.74 21.5189 14.7921 21.474 14.8311C21.418 14.8701 21.3171 14.8832 21.2611 14.8832C21.2051 14.8832 21.1602 14.8832 21.1266 14.8701C21.0258 14.8311 21.0034 14.701 20.9921 14.6619C20.9921 14.6099 20.9921 14.5578 21.037 14.5318C21.0706 14.5058 21.1154 14.5058 21.1603 14.4928C21.2275 14.4798 21.3059 14.4667 21.3732 14.4667C21.3956 14.4667 21.4292 14.4667 21.4404 14.4667C21.4853 14.4667 21.5077 14.4798 21.5301 14.5188C21.5637 14.5708 21.5637 14.6359 21.5525 14.6749H21.5637ZM22.2922 14.714C22.2922 14.714 22.2249 14.753 22.1689 14.766C22.1128 14.779 22.0008 14.8051 21.9335 14.766C21.8775 14.753 21.8215 14.701 21.7766 14.6489C21.7542 14.6099 21.7206 14.5578 21.7318 14.4928C21.7318 14.4277 21.7878 14.4147 21.8663 14.4017C21.9447 14.3757 22.0232 14.3757 22.0904 14.3626C22.1465 14.3626 22.1913 14.3626 22.2361 14.3626C22.3034 14.3757 22.3146 14.4147 22.337 14.4667C22.3482 14.5188 22.3706 14.6359 22.2922 14.701V14.714Z" fill="#414183"/>
<path d="M16.8571 24.0442H7.84668V28.1953H16.8571V24.0442Z" fill="#6699FF"/>
<path d="M16.8571 23.4066H7.84668V23.6668H16.8571V23.4066Z" fill="#6699FF"/>
<path d="M8.13806 23.4066H7.84668V27.4405H8.13806V23.4066Z" fill="#6699FF"/>
<path d="M16.8573 23.4066H16.5659V27.4536H16.8573V23.4066Z" fill="#96BEE5"/>
<path d="M16.5659 24.3695H8.14941V27.1152H16.5659V24.3695Z" fill="#C3E2F7"/>
<path d="M13.8652 21.4157C13.8652 21.4157 13.854 21.4937 13.8092 21.5198C13.7756 21.5458 13.7307 21.5328 13.6859 21.5458C13.6075 21.5458 13.529 21.5848 13.4506 21.5978C13.2825 21.6499 13.1031 21.6889 12.9238 21.7019C12.823 21.7019 12.7893 21.7019 12.7557 21.6108C12.7333 21.5328 12.7221 21.4417 12.7109 21.3506C12.6661 21.1554 12.6212 20.9732 12.554 20.778C12.554 20.752 12.5204 20.7 12.5316 20.6739C12.5428 20.6479 12.5988 20.6479 12.6324 20.6479C12.7557 20.6349 12.8902 20.6219 13.0135 20.5828C13.0807 20.5568 13.1031 20.5308 13.1592 20.4918C13.2152 20.4527 13.2937 20.4657 13.3497 20.4527C13.4169 20.4527 13.5626 20.4397 13.6187 20.4657C13.6523 20.4787 13.6747 20.5438 13.6859 20.5959V20.6869C13.7307 20.791 13.7419 20.8951 13.7644 20.9993C13.7644 21.0383 13.7868 21.0773 13.798 21.1164C13.8092 21.1684 13.8316 21.2075 13.8428 21.2595C13.854 21.2985 13.8764 21.3376 13.8764 21.3766L13.8652 21.4157Z" fill="#F5957D"/>
<path d="M13.7533 21.0383C13.7533 21.0383 13.6637 21.0123 13.6413 20.9993C13.5964 20.9732 13.5404 20.9472 13.5068 20.9212C13.4283 20.8561 13.4059 20.778 13.4844 20.7C13.5292 20.6609 13.6076 20.6219 13.6749 20.6349V20.726C13.7197 20.8301 13.7309 20.9342 13.7533 21.0383Z" fill="#DA6357"/>
<path d="M11.31 19.6849H11.3661C11.6911 19.6199 12.0273 19.6849 12.2962 19.8541C12.5652 20.0233 12.7557 20.2835 12.823 20.5568C12.9014 20.8951 13.0359 21.2335 13.0807 21.5848C13.1255 21.9882 13.1143 22.3916 13.1592 22.795C13.26 23.6148 13.6299 24.3956 14.1006 25.1113C14.1678 25.2154 14.2462 25.3325 14.2687 25.4496C14.2911 25.5667 14.2687 25.7099 14.1454 25.7879C14.0221 25.879 13.8316 25.853 13.6971 25.7879C13.5626 25.7229 13.4618 25.6058 13.3721 25.4886C12.9238 24.9681 12.4868 24.4346 12.0945 23.8751C11.8592 23.5367 11.635 23.1854 11.4445 22.821C11.2652 22.4957 11.0298 22.1834 10.8393 21.8581C10.6936 21.5978 10.5592 21.3376 10.4359 21.0773C10.2902 20.791 9.85311 20.1924 10.3126 19.9712C10.4359 19.9062 10.5928 19.8932 10.7273 19.8541C10.929 19.8021 11.1083 19.711 11.31 19.6719V19.6849Z" fill="#C3E2F7"/>
<path d="M15.804 23.1593C15.6023 22.782 15.4005 22.4176 15.0307 22.1443C14.9747 22.1053 14.9299 22.0663 14.8738 22.0272C14.6721 21.8971 14.4704 21.767 14.2798 21.6108C14.2014 21.5458 14.1454 21.4547 14.0557 21.4156C13.9436 21.3636 13.7979 21.3376 13.6635 21.2985C13.4057 21.2335 13.1367 21.1944 12.8678 21.2335C12.8117 21.2335 12.7445 21.2595 12.6997 21.2855C12.5652 21.3636 12.5764 21.4937 12.5428 21.6108C12.4979 21.754 12.4755 21.8971 12.4643 22.0533C12.4419 22.5477 12.554 23.0683 12.6548 23.5497C12.7557 24.0182 12.9014 24.4736 13.1031 24.9031C13.1816 25.0722 13.2712 25.2154 13.3385 25.3845C13.3945 25.5407 13.4617 25.7098 13.6298 25.7879C13.6971 25.827 13.7755 25.84 13.854 25.853C14.6497 25.9961 15.479 25.84 16.2747 25.6708C16.4652 25.6318 16.6557 25.5797 16.779 25.4626C16.8575 25.3845 16.9023 25.2674 16.9135 25.1633C16.9583 24.9031 16.8799 24.6168 16.7006 24.3956C16.5437 24.2004 16.3419 24.0442 16.185 23.849C16.0169 23.6278 15.9385 23.3675 15.804 23.1333V23.1593Z" fill="white"/>
<path d="M12.5092 22.4957C12.498 22.4307 12.4756 22.3526 12.4644 22.2875C12.4419 22.1574 12.4083 22.0142 12.4307 21.8841C12.4644 21.728 12.6437 21.5718 12.8006 21.4937C12.9014 21.4417 13.0359 21.4157 13.148 21.4547C13.2488 21.4937 13.3161 21.5848 13.3609 21.6759C13.4618 21.8451 13.529 22.0403 13.585 22.2224C13.7195 22.6389 13.8316 23.0683 13.9437 23.4977C13.9997 23.7189 14.067 23.9271 14.1342 24.1483C14.1678 24.2524 14.2014 24.3565 14.2463 24.4737C14.2799 24.5647 14.3359 24.6688 14.3023 24.7599C14.2687 24.851 14.1454 24.8901 14.0445 24.9291C13.9213 24.9681 13.798 25.0072 13.6747 25.0592C13.5514 25.1113 13.473 25.1243 13.4169 24.9942C13.0695 24.1744 12.7109 23.3546 12.5092 22.4957Z" fill="#F5957D"/>
<path d="M12.3745 22.5087C12.3857 22.756 12.4193 23.0032 12.4642 23.2505C12.4978 23.4196 12.5314 23.5758 12.5762 23.7319C12.5987 23.81 12.6099 23.8881 12.6435 23.9662C12.6771 24.0442 12.6659 24.0312 12.7555 24.0312C13.1702 24.0572 13.6185 23.9922 14.0331 23.9792H14.19C14.0556 23.3155 13.8875 22.6649 13.6633 22.0273C13.6185 21.8971 13.5625 21.754 13.484 21.6369C13.4168 21.5588 13.3383 21.4807 13.2262 21.4417C13.0133 21.3636 12.6771 21.4417 12.5426 21.6239C12.3969 21.806 12.3857 22.0663 12.3857 22.2745C12.3857 22.3526 12.3857 22.4306 12.3857 22.5087H12.3745Z" fill="white"/>
<path d="M14.0554 23.0162C13.9881 22.7429 13.9209 22.4567 13.8088 22.1964C13.7416 22.0533 13.6631 21.9101 13.5623 21.78C13.5623 21.78 13.5174 21.78 13.5287 21.78C13.708 22.0012 13.82 22.2745 13.8985 22.5347C13.9433 22.6779 13.9769 22.808 14.0106 22.9511L14.1226 23.4196L14.2571 23.9401C14.2571 23.9401 14.3019 23.9401 14.2907 23.9401L14.0554 23.0032V23.0162Z" fill="#96BEE5"/>
<path d="M13.8312 19.3987C13.9208 19.4898 13.9769 19.5939 13.9993 19.711C14.0105 19.776 14.0217 19.8281 14.0553 19.8932C14.0889 19.9452 14.145 19.9582 14.201 19.9842C14.2458 19.9973 14.2907 20.0233 14.3355 20.0493C14.3691 20.0623 14.4027 20.0883 14.4027 20.1274C14.4027 20.1664 14.3803 20.1925 14.3579 20.2315C14.3355 20.2575 14.3131 20.2835 14.3243 20.3226C14.3243 20.3616 14.3467 20.4007 14.3691 20.4397C14.4027 20.5178 14.4251 20.5958 14.4364 20.6739C14.4364 20.6739 14.4364 20.6999 14.4364 20.713C14.4251 20.765 14.3579 20.8041 14.3131 20.8301C14.1674 20.9082 13.9993 20.9472 13.82 20.9472C13.7303 20.9472 13.6519 20.9212 13.5734 20.8951C13.4838 20.8691 13.3829 20.8561 13.2932 20.8041C13.2484 20.778 13.2148 20.765 13.1588 20.752C13.0915 20.752 13.0355 20.778 12.9794 20.791C12.8113 20.8561 12.5984 20.8171 12.4527 20.713C12.307 20.6089 12.2174 20.4527 12.195 20.2966C12.1838 20.1794 12.195 20.0623 12.2398 19.9452C12.2734 19.8411 12.3182 19.737 12.3743 19.6459C12.4975 19.4637 12.6881 19.2946 12.9234 19.2165C13.1363 19.1514 13.3717 19.1644 13.5734 19.2425C13.6743 19.2816 13.7527 19.3336 13.82 19.3987H13.8312Z" fill="#F5957D"/>
<path d="M13.6406 19.9062C13.6406 19.9062 13.6406 19.8802 13.6406 19.8671C13.663 19.8021 13.7191 19.737 13.7863 19.711C13.8087 19.711 13.8535 19.685 13.8759 19.698C13.8984 19.698 13.9208 19.711 13.9096 19.737C13.9096 19.737 13.8984 19.75 13.8872 19.763C13.8535 19.7761 13.8199 19.7891 13.7863 19.7891C13.7191 19.8151 13.6742 19.8541 13.6294 19.9062H13.6406Z" fill="#26275E"/>
<path d="M13.9436 19.9062H13.9324C13.9324 19.9062 13.9212 19.8801 13.91 19.8801C13.8876 19.8801 13.8652 19.8801 13.854 19.8801C13.8428 19.8801 13.8315 19.9062 13.8315 19.9192C13.8315 19.9322 13.8315 19.9452 13.8315 19.9582C13.8315 19.9582 13.8315 19.9842 13.8428 19.9973C13.8428 19.9973 13.8652 20.0363 13.8764 20.0363C13.8988 20.0363 13.9212 20.0363 13.9324 20.0103V19.9842C13.9324 19.9842 13.9324 19.9452 13.9324 19.9322C13.9324 19.9322 13.9324 19.9062 13.91 19.8932L13.9436 19.9062Z" fill="#26275E"/>
<path d="M13.383 22.0142C13.383 22.0142 13.3494 21.9232 13.3606 21.8711C13.2037 21.8321 13.0916 21.6889 13.1028 21.5458C12.9571 21.5458 12.8114 21.4287 12.8002 21.2985C12.6545 21.2855 12.52 21.2074 12.4192 21.1164C12.2623 20.9602 12.2175 20.765 12.1278 20.5828C12.0606 20.4527 12.0269 20.3096 12.0045 20.1664C11.9709 19.8801 12.0494 19.5809 12.2735 19.3466C12.4416 19.1775 12.6882 19.0603 12.9571 19.0213C13.1364 18.9953 13.5959 18.9953 13.5959 19.2295C13.5959 19.3076 13.4951 19.3596 13.439 19.4377C13.3606 19.5418 13.4054 19.685 13.3942 19.8151C13.3942 19.9322 13.3157 20.0103 13.2373 20.1014C13.2037 20.1534 13.1701 20.2055 13.1476 20.2575C13.1252 20.3096 13.1028 20.3746 13.0916 20.4397C13.058 20.6219 13.114 20.8301 13.1813 21.0123C13.1813 21.0253 13.1925 21.0513 13.2149 21.0643C13.2373 21.0773 13.2597 21.0773 13.2821 21.0903C13.3494 21.1164 13.3942 21.1684 13.4166 21.2335C13.439 21.2985 13.439 21.3636 13.439 21.4287C13.6071 21.4677 13.6968 21.6499 13.6295 21.793C13.7304 21.793 13.7864 21.8841 13.8088 21.9752C13.8201 22.0142 13.8313 22.0533 13.8088 22.0923C13.7976 22.0923 13.7752 22.1053 13.7752 22.1314C13.7752 22.1444 13.7752 22.1574 13.7976 22.1704C13.8537 22.2355 13.8761 22.3265 13.8985 22.4046C13.9209 22.4827 13.9321 22.5868 13.8761 22.6649C13.6968 22.5348 13.5735 22.3526 13.5399 22.1574C13.4726 22.1574 13.4166 22.1053 13.383 22.0533V22.0142Z" fill="#26275E"/>
<path d="M13.1475 20.1665C13.1475 20.1665 13.0354 20.1534 12.9906 20.1665C12.8337 20.2445 12.9234 20.4527 13.0354 20.5308C13.0691 20.5568 13.1027 20.5699 13.1363 20.5829C13.2148 20.6219 13.3156 20.6219 13.3829 20.5568C13.4277 20.5178 13.4277 20.4527 13.4053 20.4007C13.3717 20.3096 13.2596 20.1795 13.1475 20.1534V20.1665Z" fill="#F5957D"/>
<path d="M13.9434 20.4263C13.9434 20.4263 13.9771 20.439 13.9883 20.4516C14.0107 20.4516 14.0331 20.4516 14.0443 20.4516C14.0891 20.4516 14.1227 20.4516 14.1564 20.4263C14.1564 20.4263 14.1676 20.4263 14.1788 20.4263C14.134 20.4516 14.0891 20.4516 14.0443 20.4516C14.0219 20.4516 13.9995 20.4516 13.9771 20.4516C13.9546 20.4516 13.9322 20.439 13.921 20.4263C13.9098 20.4263 13.9322 20.4137 13.9434 20.4137V20.4263Z" fill="#DA6357"/>
<path d="M13.3154 19.2946C13.2258 19.5158 13.293 19.7631 13.1361 19.9713C13.0913 20.0233 13.0465 20.0754 12.9792 20.1144C12.9568 20.1144 12.9904 20.1274 13.0016 20.1144C13.1025 20.0493 13.1809 19.9583 13.2258 19.8542C13.2706 19.737 13.2706 19.6199 13.2818 19.5028C13.2818 19.4377 13.3042 19.3597 13.3378 19.2946C13.3378 19.2946 13.3042 19.2816 13.3042 19.2946H13.3154Z" fill="#414183"/>
<path d="M13.0355 19.5809C13.0019 19.724 12.8898 19.8672 12.7329 19.9192H12.7553C12.9234 19.8542 13.0355 19.724 13.0691 19.5679H13.0355V19.5809Z" fill="#414183"/>
<path d="M12.3518 19.5419C12.2734 19.659 12.2398 19.8021 12.2622 19.9322H12.2958C12.2734 19.8021 12.2958 19.659 12.3855 19.5419C12.3855 19.5419 12.3518 19.5288 12.3518 19.5419Z" fill="#414183"/>
<path d="M13.1587 21.1814C13.1587 21.1814 13.1475 21.1814 13.1363 21.1814C13.1363 21.1814 13.1138 21.1814 13.1251 21.1814C13.1699 21.2335 13.1923 21.2986 13.1923 21.3636C13.1699 21.3506 13.1475 21.3246 13.1251 21.3116H13.1026C13.0914 21.3116 13.1026 21.3116 13.1026 21.3116C13.1363 21.3376 13.1699 21.3636 13.2035 21.3896H13.2371C13.2371 21.3116 13.2259 21.2465 13.1699 21.1814H13.1587Z" fill="#414183"/>
<path d="M13.4166 21.5458C13.4166 21.5458 13.3718 21.5458 13.383 21.5458C13.4166 21.6109 13.4278 21.6759 13.439 21.741C13.4166 21.741 13.4054 21.728 13.3942 21.715C13.3942 21.715 13.383 21.715 13.3718 21.715C13.3718 21.715 13.3494 21.715 13.3606 21.715C13.383 21.741 13.4166 21.754 13.4502 21.767C13.4502 21.767 13.4838 21.767 13.4726 21.767C13.4726 21.689 13.4502 21.6239 13.4166 21.5588V21.5458Z" fill="#414183"/>
<path d="M13.6966 21.9102H13.6742C13.6517 21.9362 13.6405 21.9622 13.6405 22.0013L13.5733 21.9362H13.5509C13.5397 21.9362 13.5509 21.9362 13.5509 21.9362L13.6517 22.0273C13.6517 22.0273 13.6629 22.0273 13.6742 22.0273H13.6854C13.6854 21.9882 13.6854 21.9492 13.719 21.9102C13.719 21.9102 13.719 21.9102 13.7078 21.9102H13.6966Z" fill="#414183"/>
<path d="M13.4951 25.3976L10.0322 20.0233C9.96491 19.9192 9.84163 19.8541 9.70715 19.8541H9.3037C9.02352 19.8541 8.84421 20.1144 8.9787 20.3356L12.7891 26.3605C12.8563 26.4646 12.9796 26.5297 13.1141 26.5297H33.1746C33.3763 26.5297 33.5444 26.3865 33.5444 26.2044V25.892C33.5444 25.7099 33.3763 25.5667 33.1746 25.5667H13.7641C13.6296 25.5667 13.5623 25.5017 13.4951 25.3976Z" fill="#7AAEDD"/>
<path d="M13.2374 26.0872L9.15804 19.6199C9.15804 19.6199 9.07959 19.5548 9.02355 19.5548H8.10458C7.99251 19.5548 7.92527 19.6589 7.9701 19.75L12.5762 27.0502C12.5762 27.0502 12.6546 27.1152 12.7106 27.1152H33.141C33.2194 27.1152 33.2867 27.0632 33.2867 26.9851V26.2824C33.2867 26.2174 33.2194 26.1523 33.141 26.1523H13.3719C13.3719 26.1523 13.271 26.1263 13.2374 26.0872Z" fill="#6699FF"/>
<path d="M33.3428 26.9461C33.1187 27.1412 32.7712 27.1282 32.4574 27.1152C32.1773 27.1022 31.9083 27.0892 31.6281 27.0762C30.0143 27.0111 28.3333 26.9461 26.7307 27.1282C26.585 27.1412 26.4281 27.1673 26.2824 27.1803C26.1703 27.1803 26.0583 27.2063 25.9462 27.2193H25.9238C24.747 27.3104 23.5479 27.1673 22.3712 27.2063C20.8246 27.2584 19.2892 27.2974 17.7427 27.2844C17.1487 27.2844 16.5435 27.2714 15.9496 27.2453H15.8599C15.7142 27.2453 15.5797 27.2323 15.4341 27.2193C15.0754 27.2063 14.6384 27.1152 14.2797 27.1543C14.1789 27.1543 14.2237 27.2844 14.0892 27.1803C14.022 27.1282 14.022 26.9981 14.022 26.92C14.0444 26.2954 14.1004 25.6578 14.3134 25.0592C14.347 24.9811 14.3694 24.89 14.403 24.812C14.6608 24.1874 15.0978 23.6668 15.7478 23.3025C16.3082 22.9902 17.1823 23.5237 17.7987 23.7189C17.8211 23.7189 17.8548 23.7319 17.8772 23.7449H17.9332C18.5272 23.9011 19.1548 23.8881 19.7711 23.8881C20.9927 23.8881 22.2143 23.9531 23.4246 24.0963C23.9738 24.1613 24.5117 24.2264 25.0608 24.2784C25.7445 24.3305 26.4393 24.3435 27.1229 24.3435C27.7057 24.3435 28.2997 24.3435 28.8824 24.3565C29.1738 24.3565 29.4652 24.3565 29.7678 24.3565C29.9247 24.3565 30.0479 24.3825 30.1712 24.4216C30.2273 24.4346 30.2833 24.4476 30.3505 24.4736C30.3954 24.4736 30.429 24.4997 30.4738 24.4997C31.1238 24.6558 31.8074 24.7599 32.4014 25.0462C32.435 25.0592 32.4687 25.0722 32.5023 25.0982C32.5359 25.1113 32.5583 25.1243 32.5919 25.1503C32.973 25.3585 33.2868 25.6708 33.4437 26.0222L33.4661 26.0612C33.4997 26.1393 33.5221 26.2173 33.5333 26.3084V26.3475C33.5333 26.3475 33.5333 26.3865 33.5445 26.4125C33.5445 26.5947 33.5109 26.8029 33.354 26.933L33.3428 26.9461Z" fill="#E65860"/>
<path d="M33.5108 26.3084C32.9169 26.3215 32.3229 26.3475 31.7401 26.3735C30.4737 26.4256 29.2073 26.4906 27.941 26.5036C27.3134 26.5036 26.6858 26.5036 26.0582 26.4906C25.4306 26.4646 24.8142 26.4256 24.1866 26.3865C23.5478 26.3475 22.9202 26.3215 22.2814 26.3345C21.6538 26.3345 21.0375 26.3865 20.4099 26.4125C19.715 26.4386 19.009 26.4386 18.3142 26.4125C17.5969 26.3735 16.8797 26.3084 16.1624 26.2434C16.1176 26.2434 16.0728 26.2824 16.14 26.2824C17.384 26.3995 18.628 26.5036 19.8831 26.4776C20.5107 26.4646 21.1271 26.4256 21.7547 26.3995C22.3935 26.3735 23.0323 26.3865 23.6599 26.4125C24.2875 26.4386 24.9039 26.4906 25.5315 26.5166C26.1591 26.5427 26.7866 26.5557 27.4142 26.5557C28.6806 26.5557 29.947 26.5036 31.2134 26.4516C31.9194 26.4256 32.6143 26.3865 33.3203 26.3605C33.3876 26.3605 33.466 26.3605 33.5332 26.3605V26.3215L33.5108 26.3084ZM16.0167 26.7899C16.0167 26.7899 15.9943 26.7899 15.9831 26.7899C16.0279 26.4906 16.0952 26.1913 16.1848 25.905C16.2409 25.7099 16.3081 25.5277 16.3866 25.3455C18.6952 25.5017 20.9926 25.6448 23.3013 25.7619C24.4556 25.814 25.6211 25.853 26.7754 25.879C27.9298 25.905 29.0953 25.9181 30.2496 25.9311C31.3143 25.9571 32.3901 25.9831 33.4548 26.0612L33.4324 26.0222C31.3815 25.892 29.3306 25.892 27.2685 25.853C24.9487 25.814 22.6289 25.6968 20.3202 25.5667C19.009 25.4886 17.709 25.3975 16.3978 25.3195C16.4314 25.2284 16.4762 25.1503 16.5211 25.0722C16.5883 24.9421 16.6667 24.812 16.7676 24.6949L16.8012 24.6558C17.8435 24.851 18.8745 25.0202 19.9504 25.0202C21.0375 25.0202 22.1357 24.9161 23.2228 24.9161C24.3099 24.9161 25.3746 25.1113 26.4392 25.2414C26.9547 25.3065 27.4815 25.3455 28.0082 25.3455C28.5349 25.3455 29.0617 25.3195 29.5884 25.2674C30.5858 25.1893 31.5832 25.0852 32.5806 25.1503C32.547 25.1373 32.5246 25.1113 32.491 25.0983C31.6841 25.0592 30.8772 25.1113 30.0815 25.1763C29.5436 25.2154 29.0168 25.2674 28.4789 25.2804C27.941 25.2934 27.3918 25.2804 26.8539 25.2284C25.8004 25.1243 24.747 24.9161 23.6823 24.877C22.5952 24.825 21.4969 24.9421 20.4099 24.9681C19.8607 24.9681 19.3116 24.9681 18.7624 24.9161C18.2245 24.864 17.6866 24.7729 17.1486 24.6818C17.0366 24.6688 16.9357 24.6428 16.8236 24.6298C16.9133 24.5387 17.003 24.4606 17.1038 24.3695C17.2607 24.2394 17.4288 24.1093 17.5969 23.9792C18.0564 24.0963 18.5383 24.1874 19.0202 24.2264C19.5357 24.2654 20.0512 24.2524 20.5668 24.2524C21.0935 24.2524 21.6202 24.2394 22.147 24.2785C22.6625 24.3305 23.1668 24.3956 23.6823 24.4606C25.7668 24.6949 27.8625 24.4736 29.9582 24.4997C30.0815 24.4997 30.2048 24.4997 30.3393 24.4997C30.2832 24.4867 30.216 24.4736 30.1599 24.4476C29.1961 24.4346 28.2323 24.4736 27.2797 24.4997C26.2263 24.5257 25.1616 24.5517 24.1194 24.4476C23.6151 24.4086 23.1108 24.3305 22.6176 24.2654C22.1133 24.2004 21.5978 24.1743 21.0823 24.1743C20.4995 24.1743 19.9056 24.2134 19.3228 24.1743C18.7624 24.1483 18.2021 24.0572 17.6642 23.9141C17.7314 23.862 17.8099 23.797 17.8771 23.7449C17.8547 23.7449 17.8211 23.7319 17.7986 23.7189C17.7202 23.784 17.6417 23.849 17.5633 23.9011C17.5633 23.9011 17.5409 23.9011 17.5409 23.9141C17.4064 24.0182 17.2607 24.1353 17.1262 24.2394C17.003 24.3435 16.8685 24.4476 16.7564 24.5647H16.7452C16.7452 24.5647 16.7004 24.6038 16.7116 24.6168C16.6219 24.7209 16.5435 24.825 16.4874 24.9421C16.409 25.0722 16.3529 25.2024 16.2969 25.3455C16.2409 25.4886 16.1848 25.6448 16.14 25.7879C16.0392 26.0872 15.9719 26.3865 15.9159 26.6988C15.8823 26.881 15.871 27.0502 15.8486 27.2323H15.9383C15.9383 27.1022 15.9607 26.9591 15.9831 26.829H16.0055C18.2133 27.0111 20.4435 27.0892 22.6625 27.1413C23.7495 27.1673 24.8366 27.1933 25.9237 27.2193H25.9461C26.0582 27.2193 26.1703 27.1933 26.2823 27.1803C24.1194 27.1282 21.9564 27.1022 19.7935 27.0111C18.5383 26.9591 17.2831 26.894 16.0279 26.7899H16.0167Z" fill="#D63F4E"/>
<path d="M15.5126 24.4216C15.21 24.4086 14.9186 24.3825 14.616 24.3695C14.1789 24.3565 13.7979 24.3175 13.4169 24.5517C13.1815 24.6948 13.2712 24.851 13.4393 25.0202C13.6298 25.2023 13.9324 25.2674 14.2125 25.2934C14.5488 25.3195 14.8738 25.2544 15.21 25.2284C15.7255 25.1763 16.241 25.1113 16.7565 25.0462C16.9807 25.0202 17.1936 24.9811 17.3953 24.9161C17.5186 24.864 17.5971 24.7729 17.6195 24.6558C17.6419 24.5127 17.5186 24.4736 17.3729 24.4866C16.7453 24.4997 16.1289 24.4606 15.5126 24.4216Z" fill="#F5957D"/>
<path d="M17.2831 24.4606C17.2271 24.5257 17.2158 24.5778 17.227 24.6688C17.227 24.7079 17.2383 24.7469 17.2495 24.786C17.2719 24.864 17.2831 24.9031 17.3727 24.9161C17.5408 24.9551 17.7314 24.9421 17.9107 24.9421C18.0676 24.9421 18.2469 24.9421 18.4038 24.8901C18.4262 24.8901 18.4486 24.864 18.471 24.851C18.471 24.851 18.471 24.838 18.4822 24.825C18.4822 24.812 18.471 24.799 18.4598 24.799C18.4486 24.799 18.4262 24.799 18.415 24.799C18.3926 24.799 18.09 24.825 18.09 24.812C18.09 24.812 18.4374 24.7599 18.4598 24.7469C18.5046 24.7469 18.5607 24.7339 18.6055 24.6949C18.6279 24.6819 18.6503 24.6428 18.6391 24.6168C18.6279 24.6038 18.5943 24.6038 18.5719 24.6038C18.471 24.6038 18.3814 24.6298 18.2805 24.6298H18.09C18.09 24.6298 18.3029 24.6038 18.3253 24.6038C18.415 24.6038 18.5046 24.5778 18.5943 24.5387C18.6167 24.5387 18.6279 24.5387 18.6391 24.5127C18.6503 24.5127 18.6615 24.4867 18.6615 24.4606C18.6615 24.4476 18.6503 24.4346 18.6279 24.4346C18.6055 24.4346 18.5943 24.4346 18.5831 24.4346C18.5159 24.4346 18.4374 24.4476 18.3702 24.4606C18.2693 24.4606 18.1796 24.4737 18.0788 24.4867C18.1572 24.4606 18.2245 24.4476 18.3029 24.4346C18.3702 24.4346 18.4374 24.4216 18.4934 24.4086C18.5271 24.4086 18.5495 24.3826 18.5607 24.3565C18.5607 24.3435 18.5607 24.3045 18.5383 24.3045C18.4262 24.3045 18.3141 24.3045 18.2021 24.3045C18.1684 24.3305 18.0676 24.3045 18.034 24.3175C17.9667 24.3175 17.8995 24.3435 17.8322 24.3565C17.821 24.3565 17.7986 24.3565 17.7986 24.3565C17.7986 24.3565 17.7986 24.3305 17.821 24.3305C17.9107 24.2785 18.0452 24.2394 18.0788 24.1483C18.1124 24.0703 17.8883 24.1613 17.8546 24.1744C17.7874 24.2004 17.7089 24.2264 17.6417 24.2654C17.5296 24.3045 17.4176 24.3565 17.3391 24.4346C17.3279 24.4346 17.3167 24.4606 17.3055 24.4606H17.2831Z" fill="#F5957D"/>
<path d="M14.1898 25.4236C14.1898 25.4236 14.1674 25.5277 14.1562 25.5927H13.6182L10.6484 21.0123C10.6484 21.0123 10.6372 20.9472 10.626 20.9212V20.8821C10.5923 20.5828 10.682 20.2705 10.9173 20.0493C11.1639 19.8411 11.5673 19.75 11.8699 19.9062C12.1277 20.0363 12.2398 20.2965 12.3742 20.5308C12.5311 20.791 12.6768 21.0253 12.7665 21.3115C12.8449 21.5848 12.9122 21.8711 12.9794 22.1444C13.0018 22.2485 13.0243 22.3656 13.0467 22.4697C13.1139 22.821 13.2372 23.1463 13.3268 23.4847C13.5062 24.1744 13.7751 24.812 14.201 25.4236H14.1898Z" fill="#C3E2F7"/>
<path d="M12.4414 21.7279C12.4078 21.6108 12.3629 21.4937 12.3069 21.3896C12.3069 21.3896 12.2621 21.3896 12.2733 21.3896C12.4414 21.78 12.5423 22.1964 12.5871 22.6258C12.5871 22.7429 12.5983 22.8601 12.5983 22.9772H12.6319C12.6319 22.5608 12.5647 22.1313 12.4414 21.7279Z" fill="#96BEE5"/>
<path d="M16.7674 31.3704C16.7674 31.7738 16.3864 32.1121 15.9157 32.1121C15.445 32.1121 15.064 31.7868 15.064 31.3704C15.064 30.954 15.445 30.6287 15.9157 30.6287C16.3864 30.6287 16.7674 30.954 16.7674 31.3704Z" fill="#6699FF"/>
<path d="M16.5656 31.3704C16.5656 31.6827 16.2743 31.9299 15.9156 31.9299C15.557 31.9299 15.2656 31.6827 15.2656 31.3704C15.2656 31.0581 15.557 30.8108 15.9156 30.8108C16.2743 30.8108 16.5656 31.0581 16.5656 31.3704Z" fill="white"/>
<path d="M15.6914 27.87H16.1285V31.3183C16.1285 31.4224 16.05 31.5135 15.9604 31.5135H15.8595C15.7699 31.5135 15.6914 31.4224 15.6914 31.3183V27.87Z" fill="#6699FF"/>
<path d="M35.3821 27.87H8.95605V29.4705H35.3821V27.87Z" fill="#7AAEDD"/>
<path d="M36.1779 24.0442H27.1675V28.1953H36.1779V24.0442Z" fill="#6699FF"/>
<path d="M36.1779 23.4066H27.1675V23.6668H36.1779V23.4066Z" fill="#6699FF"/>
<path d="M27.4589 23.4066H27.1675V27.4405H27.4589V23.4066Z" fill="#6699FF"/>
<path d="M36.1781 23.4066H35.8867V27.4536H36.1781V23.4066Z" fill="#6699FF"/>
<path d="M35.8867 24.3695H27.4702V27.1152H35.8867V24.3695Z" fill="#C3E2F7"/>
<path d="M29.0726 31.3704C29.0726 31.7738 28.6916 32.1121 28.2209 32.1121C27.7502 32.1121 27.3691 31.7868 27.3691 31.3704C27.3691 30.954 27.7502 30.6287 28.2209 30.6287C28.6916 30.6287 29.0726 30.954 29.0726 31.3704Z" fill="#6699FF"/>
<path d="M28.8596 31.3704C28.8596 31.6827 28.5682 31.9299 28.2096 31.9299C27.851 31.9299 27.5596 31.6827 27.5596 31.3704C27.5596 31.0581 27.851 30.8108 28.2096 30.8108C28.5682 30.8108 28.8596 31.0581 28.8596 31.3704Z" fill="white"/>
<path d="M27.9966 27.87H28.4337V31.3183C28.4337 31.4224 28.3552 31.5135 28.2655 31.5135H28.1647C28.075 31.5135 27.9966 31.4224 27.9966 31.3183V27.87Z" fill="#6699FF"/>
<path d="M36.0321 31.3704C36.0321 31.7738 35.651 32.1121 35.1803 32.1121C34.7096 32.1121 34.3286 31.7868 34.3286 31.3704C34.3286 30.954 34.7096 30.6287 35.1803 30.6287C35.651 30.6287 36.0321 30.954 36.0321 31.3704Z" fill="#6699FF"/>
<path d="M35.8303 31.3704C35.8303 31.6827 35.5389 31.9299 35.1803 31.9299C34.8217 31.9299 34.5303 31.6827 34.5303 31.3704C34.5303 31.0581 34.8217 30.8108 35.1803 30.8108C35.5389 30.8108 35.8303 31.0581 35.8303 31.3704Z" fill="white"/>
<path d="M34.9561 27.87H35.3931V31.3183C35.3931 31.4224 35.3147 31.5135 35.225 31.5135H35.1242C35.0345 31.5135 34.9561 31.4224 34.9561 31.3183V27.87Z" fill="#6699FF"/>
<path d="M9.80795 31.3704C9.80795 31.7738 9.42692 32.1121 8.95622 32.1121C8.48553 32.1121 8.10449 31.7868 8.10449 31.3704C8.10449 30.954 8.48553 30.6287 8.95622 30.6287C9.42692 30.6287 9.80795 30.954 9.80795 31.3704Z" fill="#6699FF"/>
<path d="M9.60616 31.3704C9.60616 31.6827 9.31478 31.9299 8.95616 31.9299C8.59753 31.9299 8.30615 31.6827 8.30615 31.3704C8.30615 31.0581 8.59753 30.8108 8.95616 30.8108C9.31478 30.8108 9.60616 31.0581 9.60616 31.3704Z" fill="white"/>
<path d="M8.73193 27.87H9.16901V31.3183C9.16901 31.4224 9.09056 31.5135 9.0009 31.5135H8.90004C8.81038 31.5135 8.73193 31.4224 8.73193 31.3183V27.87Z" fill="#6699FF"/>
<path d="M36.1667 27.1152H7.84668V28.2083H36.1667V27.1152Z" fill="#6699FF"/>
</g>
<defs>
<clipPath id="clip0_124_3760">
<rect width="44.6598" height="40.9381" fill="white" transform="translate(0.102539 0.608215)"/>
</clipPath>
</defs>
</svg>
